<svg xmlns="http://www.w3.org/2000/svg" xmlns:xlink="http://www.w3.org/1999/xlink" width="64" height="64" version="1.1" viewBox="0 0 64 64"><title>F01_listen_on_icon</title><desc>Created with Sketch.</desc><g id="F01_listen_on_icon" fill="none" fill-rule="evenodd" stroke="none" stroke-width="1"><g id="Group"><g id="logo_google_search_round_48dp"><polygon id="Shape" points="0 0 64 0 64 64 0 64"/><circle id="Oval" cx="32" cy="32" r="30.945" fill="#FFF" fill-rule="nonzero"/><path id="Shape" fill="#FFF" fill-opacity=".2" fill-rule="nonzero" d="M32,1.37846154 C49.0338462,1.37846154 62.8606593,15.149011 62.9450549,32.1687912 L62.9450549,32.0140659 C62.9450549,14.923956 49.0901099,1.06901099 32,1.06901099 C14.9098901,1.05494505 1.05494505,14.9098901 1.05494505,32 L1.05494505,32.1547253 C1.13934066,15.149011 14.9661538,1.37846154 32,1.37846154 Z"/><path id="Shape" fill="#263238" fill-opacity=".15" fill-rule="nonzero" d="M32,62.6215385 C49.0338462,62.6215385 62.8606593,48.850989 62.9450549,31.8312088 L62.9450549,31.9859341 C62.9450549,49.076044 49.0901099,62.930989 32,62.930989 C14.9098901,62.9450549 1.05494505,49.0901099 1.05494505,32 L1.05494505,31.8452747 C1.13934066,48.850989 14.9661538,62.6215385 32,62.6215385 Z"/></g><g id="_logo_Podcasts_192px" fill-rule="nonzero" transform="translate(10.901099, 10.901099)"><polygon id="Shape" fill="#FAB908" points="18.462 13.427 18.462 19.821 18.462 22.377 18.462 28.771 23.736 28.771 23.736 22.377 23.736 19.821 23.736 13.427"/><circle id="Oval" cx="2.637" cy="19.66" r="2.637" fill="#0066D9"/><circle id="Oval" cx="2.637" cy="22.537" r="2.637" fill="#0066D9"/><rect id="Rectangle-path" width="5.275" height="2.877" x="0" y="19.66" fill="#0066D9"/><circle id="Oval" cx="39.56" cy="22.537" r="2.637" fill="#4285F4"/><circle id="Oval" cx="39.56" cy="19.66" r="2.637" fill="#4285F4"/><rect id="Rectangle-path" width="5.275" height="2.877" x="36.923" y="19.66" fill="#4285F4" transform="translate(39.560440, 21.098901) rotate(180.000000) translate(-39.560440, -21.098901)"/><circle id="Oval" cx="11.748" cy="28.292" r="2.637" fill="#EA4335"/><circle id="Oval" cx="11.748" cy="31.169" r="2.637" fill="#EA4335"/><rect id="Rectangle-path" width="5.275" height="2.877" x="9.111" y="28.292" fill="#EA4335"/><circle id="Oval" cx="11.748" cy="11.029" r="2.637" fill="#EA4335"/><circle id="Oval" cx="11.748" cy="20.38" r="2.637" fill="#EA4335"/><rect id="Rectangle-path" width="5.275" height="9.411" x="9.111" y="11.029" fill="#EA4335"/><circle id="Oval" cx="30.45" cy="13.906" r="2.637" fill="#34A853"/><circle id="Oval" cx="30.45" cy="11.029" r="2.637" fill="#34A853"/><rect id="Rectangle-path" width="5.275" height="2.877" x="27.812" y="11.029" fill="#34A853" transform="translate(30.449550, 12.467532) rotate(180.000000) translate(-30.449550, -12.467532)"/><circle id="Oval" cx="21.099" cy="5.514" r="2.637" fill="#FAB908"/><circle id="Oval" cx="21.099" cy="2.637" r="2.637" fill="#FAB908"/><rect id="Rectangle-path" width="5.275" height="2.877" x="18.462" y="2.637" fill="#FAB908" transform="translate(21.098901, 4.075924) rotate(180.000000) translate(-21.098901, -4.075924)"/><circle id="Oval" cx="21.099" cy="39.56" r="2.637" fill="#FAB908"/><circle id="Oval" cx="21.099" cy="36.683" r="2.637" fill="#FAB908"/><rect id="Rectangle-path" width="5.275" height="2.877" x="18.462" y="36.683" fill="#FAB908" transform="translate(21.098901, 38.121878) rotate(180.000000) translate(-21.098901, -38.121878)"/><circle id="Oval" cx="30.45" cy="31.169" r="2.637" fill="#34A853"/><circle id="Oval" cx="30.45" cy="21.818" r="2.637" fill="#34A853"/><rect id="Rectangle-path" width="5.275" height="9.351" x="27.812" y="21.818" fill="#34A853" transform="translate(30.449550, 26.493506) rotate(180.000000) translate(-30.449550, -26.493506)"/><circle id="Oval" cx="21.099" cy="13.427" r="2.637" fill="#FAB908"/><circle id="Oval" cx="21.099" cy="28.771" r="2.637" fill="#FAB908"/></g></g></g></svg>