<svg viewBox="0 0 292.83 216.51" xmlns="http://www.w3.org/2000/svg"><path d="m216.49 42.23c-27.65 0-52.35 14.65-66.66 36-14.3-21.39-39-36-66.66-36a79.74 79.74 0 0 0 -79.75 79.77c0 28 17.7 48.1 36.19 66.75l72.31 68.36a6 6 0 0 0 10-4.32v-53.27a27.89 27.89 0 1 1 55.77 0v53.26a5.94 5.94 0 0 0 10 4.32l72.31-68.36c18.49-18.65 36.2-38.8 36.2-66.75a79.75 79.75 0 0 0 -79.71-79.76zm-139.06 141.26a5.53 5.53 0 0 1 -7.8.47c-23.82-21.11-35.9-43.14-35.9-65.49v-.26c0-19.21 11.72-41 27.26-50.79a5.52 5.52 0 1 1 5.87 9.36c-12.38 7.77-22.08 26-22.08 41.43v.26c0 19.05 10.83 38.3 32.17 57.21a5.54 5.54 0 0 1 .48 7.81zm35.57-20.49a5.51 5.51 0 0 1 -7.52 2.12c-16.15-9-27-26.79-27.09-44.23v-.17a44.59 44.59 0 0 1 23.9-39.38 5.52 5.52 0 0 1 5.14 9.78 33.53 33.53 0 0 0 -18 29.68c0 13.59 8.63 27.52 21.43 34.68a5.53 5.53 0 0 1 2.14 7.52zm36.85-14.11a24 24 0 1 1 24-24 24 24 0 0 1 -24.02 23.98zm44.35 16.21a5.44 5.44 0 0 1 -2.69.71 5.53 5.53 0 0 1 -2.7-10.35c12.79-7.16 21.39-21.09 21.43-34.68a33.56 33.56 0 0 0 -18-29.68 5.52 5.52 0 1 1 5.14-9.78 44.55 44.55 0 0 1 23.9 39.38v.17c-.06 17.44-10.93 35.19-27.08 44.23zm71.73-46.63c0 22.35-12.08 44.38-35.89 65.49a5.53 5.53 0 1 1 -7.33-8.28c21.34-18.91 32.17-38.16 32.17-57.21v-.26c0-15.46-9.7-33.66-22.08-41.43a5.52 5.52 0 0 1 5.87-9.36c15.54 9.75 27.26 31.58 27.26 50.79z" fill="#c6002b" transform="translate(-3.42 -42.23)"/></svg>