<svg id="svg" version="1.1" width="400" height="400" viewBox="0 0 400 400" xmlns="http://www.w3.org/2000/svg" xmlns:xlink="http://www.w3.org/1999/xlink" ><g id="svgg"><path id="path0" d="M312.448 104.542 C 312.117 104.941,312.025 131.954,312.099 206.842 L 312.200 308.600 316.394 308.715 C 319.992 308.814,320.661 308.732,321.094 308.139 C 321.499 307.586,321.600 287.151,321.600 206.114 L 321.600 104.780 320.574 104.390 C 318.975 103.782,312.986 103.894,312.448 104.542 M168.520 137.600 C 168.520 138.810,168.595 139.305,168.687 138.700 C 168.778 138.095,168.778 137.105,168.687 136.500 C 168.595 135.895,168.520 136.390,168.520 137.600 M168.493 142.400 C 168.493 143.170,168.575 143.485,168.676 143.100 C 168.776 142.715,168.776 142.085,168.676 141.700 C 168.575 141.315,168.493 141.630,168.493 142.400 M79.232 276.824 C 79.162 278.197,80.149 278.861,82.015 278.697 L 83.800 278.540 81.933 278.470 C 80.290 278.408,80.019 278.269,79.665 277.300 C 79.444 276.695,79.249 276.481,79.232 276.824 M105.131 278.700 C 116.642 278.759,135.362 278.759,146.731 278.700 C 158.099 278.641,148.680 278.593,125.800 278.593 C 102.920 278.593,93.619 278.641,105.131 278.700 " stroke="none" fill="#8c8c8c" fill-rule="evenodd"></path><path id="path1" d="M0.000 66.200 L 0.000 132.400 26.577 132.400 L 53.155 132.400 53.756 133.259 C 54.727 134.646,54.715 276.989,53.743 278.063 C 53.108 278.765,51.812 278.800,26.538 278.800 L 0.000 278.800 0.000 339.400 L 0.000 400.000 200.000 400.000 L 400.000 400.000 400.000 339.600 L 400.000 279.200 367.900 279.137 C 326.026 279.054,329.246 279.114,328.793 278.400 C 328.245 277.537,328.266 134.197,328.814 133.174 C 329.219 132.418,330.038 132.400,364.614 132.400 L 400.000 132.400 400.000 66.200 L 400.000 0.000 200.000 0.000 L 0.000 0.000 0.000 66.200 M322.013 104.007 C 322.714 105.116,322.512 308.609,321.809 309.192 C 320.845 309.992,312.472 309.789,311.537 308.943 C 310.825 308.298,310.800 304.889,310.800 206.431 L 310.800 104.585 311.900 103.880 C 313.358 102.945,321.405 103.046,322.013 104.007 M76.557 132.397 C 77.098 132.939,77.062 128.129,77.151 210.200 C 77.198 253.045,77.362 276.764,77.608 276.343 C 78.039 275.606,78.188 135.756,77.759 134.638 C 77.590 134.197,77.897 133.562,78.651 132.794 L 79.800 131.622 123.900 131.611 C 167.474 131.600,168.010 131.610,168.800 132.400 C 170.004 133.604,170.071 277.850,168.867 278.939 C 167.832 279.876,80.107 280.031,79.418 279.097 C 78.482 277.829,77.325 277.559,76.721 278.469 C 75.927 279.664,57.797 279.915,57.168 278.739 C 56.663 277.796,56.645 132.868,57.150 132.260 C 57.671 131.632,75.922 131.761,76.557 132.397 M304.971 132.409 C 306.237 133.670,305.888 278.108,304.616 279.038 C 303.482 279.867,171.924 279.872,171.236 279.043 C 170.915 278.656,170.789 258.470,170.779 206.004 C 170.765 126.061,170.569 132.220,173.142 131.923 C 176.351 131.551,304.584 132.024,304.971 132.409 " stroke="none" fill="#fefefe" fill-rule="evenodd"></path><path id="path2" d="M79.836 133.451 C 79.519 134.277,79.528 276.947,79.845 277.773 C 80.111 278.466,166.825 278.753,167.909 278.064 C 168.446 277.724,168.713 133.779,168.178 133.245 C 167.531 132.597,80.085 132.802,79.836 133.451 M62.094 133.921 L 59.988 134.042 60.006 136.121 C 60.049 141.110,59.626 143.094,58.562 142.891 L 57.589 142.705 57.695 210.052 L 57.800 277.400 59.130 277.528 C 60.202 277.630,60.503 277.493,60.679 276.818 C 60.876 276.067,60.947 276.048,61.373 276.631 C 61.929 277.391,64.915 277.818,66.975 277.431 C 68.586 277.129,68.810 276.363,67.736 274.830 C 67.111 273.938,67.117 273.850,67.828 273.330 C 69.245 272.294,69.800 272.823,69.800 275.209 L 69.800 277.400 72.022 277.518 C 74.907 277.670,76.128 276.666,75.053 275.024 C 74.231 273.770,74.234 273.737,75.201 273.484 C 75.999 273.275,76.002 273.013,75.901 203.606 L 75.800 133.938 70.000 133.869 C 66.810 133.831,63.252 133.855,62.094 133.921 M57.612 135.500 C 57.625 137.035,57.996 136.804,58.579 134.900 C 58.783 134.232,58.692 134.000,58.227 134.000 C 57.767 134.000,57.603 134.399,57.612 135.500 M71.200 136.427 C 71.200 137.097,71.309 137.139,71.970 136.726 C 72.545 136.367,72.987 136.357,73.712 136.687 L 74.683 137.130 74.046 139.959 C 73.405 142.807,72.974 143.402,71.995 142.797 C 71.562 142.529,71.588 142.279,72.132 141.448 C 73.553 139.280,72.325 137.300,69.847 137.765 C 69.086 137.908,68.359 137.858,68.233 137.654 C 67.937 137.174,69.025 136.758,69.800 137.055 C 70.241 137.225,70.400 137.003,70.400 136.219 C 70.400 135.610,70.572 135.259,70.800 135.400 C 71.020 135.536,71.200 135.998,71.200 136.427 M65.333 137.216 L 67.000 137.231 65.615 137.832 C 63.884 138.583,62.652 138.430,62.464 137.442 C 62.354 136.870,62.485 136.747,62.992 136.942 C 63.362 137.084,64.416 137.207,65.333 137.216 M57.614 139.687 C 57.603 141.204,57.718 141.530,58.200 141.345 C 58.946 141.058,58.946 140.106,58.200 138.800 C 57.643 137.826,57.628 137.849,57.614 139.687 M66.178 142.436 C 66.058 142.630,65.564 142.715,65.080 142.624 C 63.748 142.375,63.742 142.367,64.600 142.027 C 65.521 141.663,66.499 141.916,66.178 142.436 M62.797 274.100 C 62.799 274.265,62.539 274.400,62.220 274.400 C 61.901 274.400,61.476 274.693,61.276 275.050 C 60.972 275.594,60.868 275.525,60.644 274.632 C 60.496 274.044,60.471 273.408,60.588 273.219 C 60.823 272.839,62.792 273.623,62.797 274.100 " stroke="none" fill="#f1633d" fill-rule="evenodd"></path><path id="path3" d="M235.800 132.800 C 200.820 132.910,171.975 133.146,171.700 133.324 C 171.303 133.581,171.200 148.477,171.200 205.601 L 171.200 277.555 172.059 278.157 C 173.453 279.133,302.979 279.124,304.057 278.148 C 305.041 277.258,305.242 134.758,304.262 133.417 C 303.588 132.495,311.121 132.563,235.800 132.800 " stroke="none" fill="#22b1db" fill-rule="evenodd"></path><path id="path4" d="M311.900 103.880 L 310.800 104.585 310.800 206.431 C 310.800 304.889,310.825 308.298,311.537 308.943 C 312.472 309.789,320.845 309.992,321.809 309.192 C 322.512 308.609,322.714 105.116,322.013 104.007 C 321.405 103.046,313.358 102.945,311.900 103.880 M320.574 104.390 L 321.600 104.780 321.600 206.114 C 321.600 287.151,321.499 307.586,321.094 308.139 C 320.661 308.732,319.992 308.814,316.394 308.715 L 312.200 308.600 312.099 206.842 C 312.025 131.954,312.117 104.941,312.448 104.542 C 312.986 103.894,318.975 103.782,320.574 104.390 M57.150 132.260 C 56.645 132.868,56.663 277.796,57.168 278.739 C 57.797 279.915,75.927 279.664,76.721 278.469 C 77.325 277.559,78.482 277.829,79.418 279.097 C 80.107 280.031,167.832 279.876,168.867 278.939 C 170.071 277.850,170.004 133.604,168.800 132.400 C 168.010 131.610,167.474 131.600,123.900 131.611 L 79.800 131.622 78.651 132.794 C 77.897 133.562,77.590 134.197,77.759 134.638 C 78.188 135.756,78.039 275.606,77.608 276.343 C 77.362 276.764,77.198 253.045,77.151 210.200 C 77.062 128.129,77.098 132.939,76.557 132.397 C 75.922 131.761,57.671 131.632,57.150 132.260 M173.142 131.923 C 170.569 132.220,170.765 126.061,170.779 206.004 C 170.789 258.470,170.915 278.656,171.236 279.043 C 171.924 279.872,303.482 279.867,304.616 279.038 C 305.888 278.108,306.237 133.670,304.971 132.409 C 304.584 132.024,176.351 131.551,173.142 131.923 M0.000 205.600 L 0.000 278.800 26.538 278.800 C 51.812 278.800,53.108 278.765,53.743 278.063 C 54.715 276.989,54.727 134.646,53.756 133.259 L 53.155 132.400 26.577 132.400 L 0.000 132.400 0.000 205.600 M304.262 133.417 C 305.242 134.758,305.041 277.258,304.057 278.148 C 302.979 279.124,173.453 279.133,172.059 278.157 L 171.200 277.555 171.200 205.601 C 171.200 148.477,171.303 133.581,171.700 133.324 C 172.083 133.075,291.277 132.448,301.562 132.640 C 303.167 132.670,303.862 132.870,304.262 133.417 M328.814 133.174 C 328.254 134.220,328.234 277.343,328.794 278.389 C 329.171 279.094,330.654 279.127,364.594 279.179 L 400.000 279.233 400.000 205.817 L 400.000 132.400 364.614 132.400 C 330.038 132.400,329.219 132.418,328.814 133.174 M167.938 133.153 C 168.889 133.756,168.659 278.087,167.707 278.467 C 166.640 278.892,80.075 278.844,79.811 278.418 C 79.512 277.933,79.513 133.665,79.812 133.180 C 80.110 132.699,167.180 132.673,167.938 133.153 M75.901 203.606 C 76.002 273.013,75.999 273.275,75.201 273.484 C 74.234 273.737,74.231 273.770,75.053 275.024 C 76.128 276.666,74.907 277.670,72.022 277.518 L 69.800 277.400 69.800 275.209 C 69.800 272.823,69.245 272.294,67.828 273.330 C 67.117 273.850,67.111 273.938,67.736 274.830 C 68.810 276.363,68.586 277.129,66.975 277.431 C 64.915 277.818,61.929 277.391,61.373 276.631 C 60.947 276.048,60.876 276.067,60.679 276.818 C 60.503 277.493,60.202 277.630,59.130 277.528 L 57.800 277.400 57.695 210.052 L 57.589 142.705 58.562 142.891 C 59.626 143.094,60.049 141.110,60.006 136.121 L 59.988 134.042 62.094 133.921 C 63.252 133.855,66.810 133.831,70.000 133.869 L 75.800 133.938 75.901 203.606 M58.579 134.900 C 57.996 136.804,57.625 137.035,57.612 135.500 C 57.603 134.399,57.767 134.000,58.227 134.000 C 58.692 134.000,58.783 134.232,58.579 134.900 M70.400 136.219 C 70.400 137.003,70.241 137.225,69.800 137.055 C 69.025 136.758,67.937 137.174,68.233 137.654 C 68.359 137.858,69.086 137.908,69.847 137.765 C 72.325 137.300,73.553 139.280,72.132 141.448 C 71.588 142.279,71.562 142.529,71.995 142.797 C 72.974 143.402,73.405 142.807,74.046 139.959 L 74.683 137.130 73.712 136.687 C 72.987 136.357,72.545 136.367,71.970 136.726 C 71.309 137.139,71.200 137.097,71.200 136.427 C 71.200 135.998,71.020 135.536,70.800 135.400 C 70.572 135.259,70.400 135.610,70.400 136.219 M62.464 137.442 C 62.652 138.430,63.884 138.583,65.615 137.832 L 67.000 137.231 65.333 137.216 C 64.416 137.207,63.362 137.084,62.992 136.942 C 62.485 136.747,62.354 136.870,62.464 137.442 M58.786 140.457 C 58.794 140.819,58.530 141.218,58.200 141.345 C 57.718 141.530,57.603 141.204,57.614 139.687 C 57.629 137.780,58.744 138.513,58.786 140.457 M64.600 142.027 C 63.742 142.367,63.748 142.375,65.080 142.624 C 65.564 142.715,66.058 142.630,66.178 142.436 C 66.499 141.916,65.521 141.663,64.600 142.027 M60.588 273.219 C 60.471 273.408,60.496 274.044,60.644 274.632 C 60.868 275.525,60.972 275.594,61.276 275.050 C 61.476 274.693,61.901 274.400,62.220 274.400 C 62.539 274.400,62.799 274.265,62.797 274.100 C 62.792 273.623,60.823 272.839,60.588 273.219 " stroke="none" fill="#d1d05a" fill-rule="evenodd"></path></g></svg>