<?xml version="1.0" encoding="utf-8"?>
<!-- Generator: Adobe Illustrator 16.0.4, SVG Export Plug-In . SVG Version: 6.00 Build 0)  -->
<!DOCTYPE svg PUBLIC "-//W3C//DTD SVG 1.1//EN" "http://www.w3.org/Graphics/SVG/1.1/DTD/svg11.dtd">
<svg version="1.1" id="Layer_1" xmlns="http://www.w3.org/2000/svg" xmlns:xlink="http://www.w3.org/1999/xlink" x="0px" y="0px"
	 width="257.75px" height="47.631px" viewBox="0 0 257.75 47.631" enable-background="new 0 0 257.75 47.631" xml:space="preserve">
<g>
	<path d="M0,0h18.868c3.569,0,6.323,0.867,8.261,2.449c2.192,1.783,3.365,4.436,3.365,7.598c0,3.672-1.479,5.967-4.539,7.395v0.152
		c3.978,1.326,6.272,4.896,6.272,9.23c0,4.131-1.581,7.344-4.182,9.281c-2.192,1.58-5.048,2.346-8.822,2.346H0V0z M16.981,15.045
		c2.04,0,3.519-1.123,3.519-3.367c0-2.191-1.53-3.264-3.57-3.264h-6.476v6.631H16.981z M17.95,29.936
		c2.295,0,3.978-1.377,3.978-3.928c0-2.652-1.836-3.926-4.029-3.926h-7.445v7.854H17.95z"/>
	<path d="M34.068,0h9.893v38.451h-9.893V0z"/>
	<path d="M45.951,24.785c0-8.67,5.609-14.535,14.278-14.535c8.669,0,14.177,5.865,14.177,14.535c0,8.719-5.507,14.533-14.177,14.533
		C51.56,39.318,45.951,33.504,45.951,24.785z M64.615,24.785c0-4.795-1.53-7.803-4.488-7.803c-2.958,0-4.385,3.008-4.385,7.803
		c0,4.844,1.428,7.852,4.385,7.852C63.085,32.637,64.615,29.629,64.615,24.785z"/>
	<path d="M75.582,24.785c0-8.67,5.609-14.535,14.278-14.535c8.669,0,14.177,5.865,14.177,14.535c0,8.719-5.507,14.533-14.177,14.533
		C81.191,39.318,75.582,33.504,75.582,24.785z M94.246,24.785c0-4.795-1.53-7.803-4.488-7.803c-2.958,0-4.385,3.008-4.385,7.803
		c0,4.844,1.428,7.852,4.385,7.852C92.716,32.637,94.246,29.629,94.246,24.785z"/>
	<path d="M106.028,11.016h9.179v4.131h0.153c1.836-3.213,4.334-4.947,8.261-4.947c3.468,0,6.068,1.734,7.394,4.742h0.153
		c2.244-3.619,5.15-4.742,8.516-4.742c6.374,0,9.128,4.691,9.128,11.016v17.236h-9.638V22.949c0-2.805-0.867-4.641-3.314-4.641
		c-2.397,0-3.621,2.242-3.621,5.201v14.941h-9.638V22.949c0-2.805-0.867-4.641-3.314-4.641c-2.397,0-3.621,2.242-3.621,5.201v14.941
		h-9.638V11.016z"/>
	<path d="M160.954,34.881h-0.102v3.57h-9.179V0h9.638v13.871h0.153c1.836-2.396,4.284-3.672,7.802-3.672
		c6.884,0,10.862,6.223,10.862,14.482c0,9.332-4.334,14.688-11.474,14.688C165.697,39.369,162.637,37.941,160.954,34.881z
		 M170.337,24.58c0-4.436-1.632-7.293-4.539-7.293c-2.958,0-4.845,2.857-4.845,7.293c0,4.387,1.887,7.293,4.845,7.293
		S170.337,29.018,170.337,24.58z"/>
	<path d="M181.305,24.682c0-8.566,5.66-14.533,13.871-14.533c4.08,0,7.241,1.275,9.638,3.57c3.162,3.059,4.59,7.854,4.488,13.514
		h-18.409c0.408,3.416,2.04,5.15,4.946,5.15c1.683,0,3.162-0.766,3.774-2.602h9.281c-1.632,6.273-6.476,9.436-13.36,9.436
		C187.016,39.217,181.305,33.453,181.305,24.682z M190.892,21.826h8.771c-0.153-3.314-1.989-5.049-4.284-5.049
		C192.728,16.777,191.249,18.664,190.892,21.826z"/>
	<path d="M220.216,15.707h0.153c1.989-3.824,4.589-5.252,7.904-5.252c0.765,0,1.275,0.102,1.581,0.254v8.414h-0.204
		c-5.661-1.02-8.975,1.684-8.975,7.854v11.475h-9.638V11.016h9.179V15.707z"/>
	<path d="M230.927,38.502h9.281c0.357,1.172,1.581,2.346,3.875,2.346c3.111,0,4.182-1.938,4.182-4.793v-2.041h-0.204
		c-1.53,1.785-3.57,3.111-6.578,3.111c-5.916,0-11.066-4.385-11.066-12.953c0-7.854,4.232-13.973,10.607-13.973
		c3.671,0,5.915,1.479,7.394,3.824h0.153v-3.008h9.179v23.764c0,4.385-1.53,7.803-3.825,9.842c-2.396,2.143-5.813,3.01-9.689,3.01
		C236.944,47.631,231.845,44.621,230.927,38.502z M248.673,23.713c0-3.416-1.632-6.17-4.437-6.17c-2.703,0-4.437,2.447-4.437,6.17
		c0,3.672,1.734,6.324,4.437,6.324C247.041,30.037,248.673,27.334,248.673,23.713z"/>
</g>
</svg>
