<?xml version="1.0" encoding="utf-8"?>
<!-- Generator: Adobe Illustrator 19.1.0, SVG Export Plug-In . SVG Version: 6.00 Build 0)  -->
<svg version="1.1" id="Layer_1" xmlns="http://www.w3.org/2000/svg" xmlns:xlink="http://www.w3.org/1999/xlink" x="0px" y="0px"
	 viewBox="0 0 142 14" style="enable-background:new 0 0 142 14;" xml:space="preserve">
<g>
	<path fill="#9F9E9F" d="M0.1,0.2h5.2c1.1,0,2,0.3,2.6,0.8C8.5,1.5,8.8,2.2,8.8,3c0,1.1-0.6,1.8-1.8,2.2v0.1C8.4,5.6,9.2,6.6,9.2,8
		c0,1-0.4,1.8-1.1,2.4c-0.6,0.5-1.5,0.8-2.7,0.8H0.1V0.2z M5,4.6c0.9,0,1.4-0.4,1.4-1.2c0-0.8-0.5-1.2-1.4-1.2H2.6v2.5H5z M5.2,9.2
		c0.5,0,0.9-0.1,1.2-0.4c0.3-0.2,0.4-0.6,0.4-1c0-1-0.7-1.4-1.6-1.4H2.6v2.8H5.2z"/>
	<path fill="#9F9E9F" d="M10,0.2h2.3v11H10V0.2z"/>
	<path fill="#9F9E9F" d="M13.1,7.3c0-2.4,1.7-4.2,4.2-4.2c2.5,0,4.1,1.8,4.1,4.2c0,2.3-1.6,4.2-4.1,4.2C14.7,11.4,13.1,9.6,13.1,7.3z
		 M19,7.3c0-1.5-0.6-2.5-1.8-2.5c-1.2,0-1.8,1-1.8,2.5c0,1.5,0.6,2.5,1.8,2.5C18.4,9.7,19,8.7,19,7.3z"/>
	<path fill="#9F9E9F" d="M21.7,7.3c0-2.4,1.7-4.2,4.2-4.2c2.5,0,4.1,1.8,4.1,4.2c0,2.3-1.6,4.2-4.1,4.2C23.4,11.4,21.7,9.6,21.7,7.3z
		 M27.7,7.3c0-1.5-0.6-2.5-1.8-2.5c-1.2,0-1.8,1-1.8,2.5c0,1.5,0.6,2.5,1.8,2.5C27,9.7,27.7,8.7,27.7,7.3z"/>
	<path fill="#9F9E9F" d="M30.7,3.3h2.2v1.2h0c0.5-0.9,1.3-1.4,2.4-1.4c1,0,1.8,0.5,2.2,1.5h0c0.6-1,1.5-1.5,2.5-1.5
		c1.7,0,2.6,1.1,2.6,2.9v5.2h-2.3V6.4c0-0.9-0.4-1.4-1.2-1.4c-0.8,0-1.3,0.7-1.3,1.7v4.5h-2.3V6.4c0-0.9-0.4-1.4-1.1-1.4
		C33.6,5,33,5.7,33,6.7v4.5h-2.3V3.3z"/>
	<path fill="#9F9E9F" d="M45.9,10L45.9,10l0,1.1h-2.2v-11H46v2.4c0,0.7,0,1.3-0.1,1.8h0c0.5-0.8,1.3-1.3,2.3-1.3c2,0,3.4,1.7,3.4,4.1
		c0,2.6-1.3,4.2-3.4,4.2C47.3,11.4,46.4,11,45.9,10z M49.3,7.2c0-1.4-0.5-2.4-1.6-2.4c-1.2,0-1.8,1-1.8,2.4c0,1.4,0.7,2.3,1.8,2.3
		C48.8,9.6,49.3,8.6,49.3,7.2z"/>
	<path fill="#9F9E9F" d="M52,7.3c0-2.4,1.6-4.2,4-4.2c1.1,0,2,0.4,2.7,1C59.6,5,60,6.3,60,7.8h-5.7c0.1,1.2,0.8,1.9,1.9,1.9
		c0.7,0,1.2-0.3,1.4-0.8h2.2c-0.4,1.4-1.7,2.4-3.7,2.4C53.6,11.4,52,9.6,52,7.3z M54.3,6.5h3.3c-0.1-1.1-0.7-1.8-1.6-1.8
		C55,4.7,54.5,5.4,54.3,6.5z"/>
	<path fill="#9F9E9F" d="M63,4.7L63,4.7c0.5-1.1,1.3-1.5,2.2-1.5c0.2,0,0.4,0,0.5,0.1v2h-0.1c-0.2,0-0.3,0-0.5,0
		c-1.3,0-2.1,0.8-2.1,2.3v3.6h-2.3V3.3H63V4.7z"/>
	<path fill="#9F9E9F" d="M66.1,11.4h2.3c0.1,0.5,0.6,0.8,1.5,0.8c1.1,0,1.6-0.6,1.6-1.5v-0.2c0-0.4,0-0.8,0-1h-0.1
		c-0.5,0.8-1.1,1.1-2.1,1.1c-1.8,0-3.4-1.3-3.4-3.7c0-2.3,1.4-3.9,3.3-3.9c1.1,0,1.8,0.4,2.3,1.2h0v-1h2.2v7.1c0,1.2-0.4,2-1,2.6
		c-0.7,0.6-1.7,0.9-2.8,0.9C67.7,13.9,66.3,13,66.1,11.4z M71.5,6.9c0-1.2-0.6-2-1.7-2c-1,0-1.7,0.8-1.7,2c0,1.2,0.6,2,1.7,2
		C71,8.9,71.5,8,71.5,6.9z"/>
	<path fill="#2C334C" d="M82.7,10.7c-0.8,0.5-1.7,0.7-2.8,0.7c-3.3,0-5.4-2.4-5.4-5.7c0-3.3,2.1-5.7,5.4-5.7c3.3,0,5.4,2.4,5.4,5.7
		c0,1.6-0.5,2.9-1.3,4l1.4,1.2l-1.1,1.2L82.7,10.7z M81.1,9.2L79.8,8l1.1-1.2l1.4,1.3c0.3-0.6,0.5-1.4,0.5-2.4
		c0-2.1-0.9-3.7-2.8-3.7c-1.9,0-2.9,1.6-2.9,3.7c0,2.1,1,3.7,2.9,3.7C80.4,9.4,80.7,9.3,81.1,9.2z"/>
	<path fill="#2C334C" d="M91.2,11.2V10h0c-0.6,0.9-1.3,1.3-2.4,1.3c-1.8,0-2.8-1.1-2.8-2.9V3.3h2.3v4.7c0,0.9,0.4,1.4,1.3,1.4
		c0.9,0,1.5-0.7,1.5-1.7V3.3h2.3v7.8H91.2z"/>
	<path fill="#2C334C" d="M94.5,0.2h2.3v2h-2.3V0.2z M94.5,3.3h2.3v7.8h-2.3V3.3z"/>
	<path fill="#2C334C" d="M97.5,7.3c0-2.4,1.6-4.2,4.1-4.2c2.1,0,3.4,1.2,3.7,2.9H103c-0.2-0.7-0.6-1.2-1.4-1.2c-1.2,0-1.8,1-1.8,2.4
		c0,1.4,0.6,2.4,1.8,2.4c0.9,0,1.4-0.5,1.5-1.4h2.2c-0.1,1.8-1.5,3.2-3.7,3.2C99.2,11.4,97.5,9.6,97.5,7.3z"/>
	<path fill="#2C334C" d="M109,7.7l-0.8,0.8v2.6H106v-11h2.3v3.4c0,1.1,0,2-0.1,2.5l2.6-2.8h2.7l-2.8,2.9l3.1,4.9h-2.7L109,7.7z"/>
	<path fill="#2C334C" d="M111.6,0.2h9.1v2.1h-3.3v8.8h-2.5V2.3h-3.3V0.2z"/>
	<path fill="#2C334C" d="M123.5,10.2L123.5,10.2c-0.5,0.7-1.2,1.2-2.4,1.2c-1.5,0-2.7-0.8-2.7-2.4c0-1.7,1.4-2.2,3.1-2.4
		c1.4-0.2,2-0.4,2-1c0-0.6-0.4-0.9-1.2-0.9c-0.9,0-1.3,0.4-1.4,1h-2.1c0.1-1.3,1.1-2.6,3.5-2.6c1,0,1.7,0.1,2.3,0.5
		c0.8,0.5,1.2,1.3,1.2,2.3v4c0,0.6,0.1,1,0.3,1.1v0.1h-2.3C123.7,11,123.6,10.6,123.5,10.2z M123.5,8.3v-1c-0.3,0.2-0.8,0.3-1.4,0.4
		c-1,0.2-1.5,0.5-1.5,1.1s0.5,0.9,1.1,0.9C122.9,9.8,123.5,9.2,123.5,8.3z"/>
	<path fill="#2C334C" d="M129.9,7.7l-0.8,0.8v2.6h-2.3v-11h2.3v3.4c0,1.1,0,2-0.1,2.5l2.6-2.8h2.7l-2.8,2.9l3.1,4.9H132L129.9,7.7z"/>
	<path fill="#2C334C" d="M134,7.3c0-2.4,1.6-4.2,4-4.2c1.1,0,2,0.4,2.7,1c0.9,0.9,1.3,2.2,1.3,3.7h-5.7c0.1,1.2,0.8,1.9,1.9,1.9
		c0.7,0,1.2-0.3,1.4-0.8h2.2c-0.4,1.4-1.7,2.4-3.7,2.4C135.6,11.4,134,9.6,134,7.3z M136.3,6.5h3.3c-0.1-1.1-0.7-1.8-1.6-1.8
		C137,4.7,136.4,5.4,136.3,6.5z"/>
</g>
</svg>
