<?xml version="1.0" encoding="utf-8"?>
<!DOCTYPE svg PUBLIC "-//W3C//DTD SVG 1.1//EN" "http://www.w3.org/Graphics/SVG/1.1/DTD/svg11.dtd">
<svg version="1.1" id="Layer_1" xmlns="http://www.w3.org/2000/svg" xmlns:xlink="http://www.w3.org/1999/xlink" x="0px" y="0px"
	 width="101px" height="14px" viewBox="0 0 101 14" enable-background="new 0 0 101 14" xml:space="preserve">
<g id="BloombergView_Logo">
	<g>
		<g>
			<g>
				<path id="SVGID_1_" fill="#1EB6E7" d="M80.478,10.457h1.698V3.704h-1.698V10.457z M99.301,3.704L97.906,8.41h-0.045l-1.48-4.707
					h-1.831l-1.35,4.707h-0.043l-1.481-4.707h-1.831l2.352,6.753h1.743l1.439-4.619h0.043l1.612,4.619h1.655L101,3.704H99.301z
					 M86.533,4.793c1.046,0,1.7,0.61,1.7,1.611H84.79C84.922,5.446,85.532,4.793,86.533,4.793 M83.092,7.103
					c0,2.133,1.612,3.528,3.659,3.528c1.089,0,2.049-0.392,2.877-1.35l-1.22-0.916c-0.436,0.523-0.958,0.916-1.83,0.916
					c-0.959,0-1.699-0.61-1.831-1.612h5.142V7.189c0-2.353-1.263-3.66-3.181-3.66C84.747,3.529,83.092,4.967,83.092,7.103
					 M77.818,0.522l-2.787,7.538l-2.702-7.538h-2.047l3.921,9.935h1.525l4.008-9.935H77.818z M80.26,1.438
					c0,0.522,0.436,1.002,1.089,1.002c0.609,0,1.089-0.436,1.089-1.002c0-0.567-0.48-1.003-1.089-1.003
					C80.695,0.392,80.26,0.872,80.26,1.438"/>
			</g>
		</g>
		<g>
			<path d="M1.83,1.787h1.481c1.351,0,1.961,0.436,1.961,1.307c0,0.784-0.61,1.264-1.83,1.264H1.83V1.787z M0,10.457h3.704
				c1.917,0,3.878-0.697,3.878-2.918c0-1.307-0.915-2.31-2.222-2.484V5.011c1.045-0.304,1.787-1.089,1.787-2.222
				c0-1.874-1.569-2.571-3.138-2.571H0V10.457z M1.83,5.969h1.743c1.481,0,2.179,0.393,2.179,1.438c0,1.351-1.307,1.481-2.223,1.481
				H1.83V5.969z"/>
			<rect x="8.758" width="1.743" height="10.457"/>
			<path d="M13.376,7.015c0-1.089,0.784-2.091,2.048-2.091c1.263,0,2.047,1.001,2.047,2.091s-0.784,2.091-2.047,2.091
				C14.118,9.063,13.376,8.104,13.376,7.015 M11.634,7.015c0,2.178,1.656,3.66,3.791,3.66c2.091,0,3.79-1.438,3.79-3.66
				c0-2.179-1.655-3.661-3.79-3.661C13.333,3.354,11.634,4.836,11.634,7.015"/>
			<path d="M21.699,7.015c0-1.089,0.784-2.091,2.048-2.091c1.264,0,2.048,1.001,2.048,2.091s-0.784,2.091-2.048,2.091
				C22.439,9.063,21.699,8.104,21.699,7.015 M19.956,7.015c0,2.178,1.655,3.66,3.791,3.66c2.092,0,3.791-1.438,3.791-3.66
				c0-2.179-1.655-3.661-3.791-3.661S19.956,4.836,19.956,7.015"/>
			<path d="M28.54,3.529h1.656v1.089h0.044c0.304-0.653,0.958-1.264,2.135-1.264c1.089,0,1.787,0.436,2.179,1.307
				c0.522-0.872,1.263-1.307,2.266-1.307c1.83,0,2.483,1.307,2.483,2.963v4.139h-1.743V6.536c0-0.871-0.261-1.611-1.263-1.611
				c-1.089,0-1.481,0.914-1.481,1.786v3.747h-1.743V6.318c0-0.872-0.349-1.394-1.177-1.394c-1.133,0-1.569,0.827-1.569,1.743v3.79
				h-1.743V3.529H28.54z"/>
			<path d="M46.447,7.015c0,1.089-0.784,2.091-2.047,2.091s-2.048-1.002-2.048-2.091s0.785-2.091,2.048-2.091
				C45.707,4.924,46.447,5.926,46.447,7.015 M40.696,10.457h1.655V9.412h0.044c0.523,0.827,1.394,1.219,2.396,1.219
				c2.135,0,3.442-1.567,3.442-3.659c0-2.047-1.351-3.66-3.355-3.66c-1.307,0-2.004,0.61-2.353,1.046h-0.043V0H40.74v10.457H40.696z
				"/>
			<path d="M50.718,6.318c0.13-1.003,0.784-1.656,1.786-1.656c1.089,0,1.743,0.653,1.743,1.656H50.718z M55.99,7.625V7.146
				c0-2.396-1.307-3.791-3.268-3.791c-2.091,0-3.791,1.482-3.791,3.661c0,2.178,1.655,3.66,3.791,3.66
				c1.089,0,2.136-0.392,2.92-1.394l-1.263-0.959c-0.436,0.523-1.003,0.959-1.875,0.959c-0.958,0-1.743-0.61-1.874-1.656H55.99z"/>
			<path d="M57.122,3.529h1.743v1.089h0.045c0.391-0.784,1.133-1.264,2.048-1.264c0.218,0,0.436,0.045,0.61,0.087v1.655
				C61.261,5.011,61,4.967,60.74,4.967c-1.612,0-1.875,1.395-1.875,1.743v3.747h-1.743V3.529z"/>
			<path d="M65.445,4.924c1.262,0,2.048,0.827,2.048,2.047c0,1.176-0.786,2.047-2.048,2.047c-1.177,0-2.048-0.914-2.048-2.003
				C63.397,5.751,64.226,4.924,65.445,4.924 M67.494,3.529v1.046H67.45c-0.524-0.828-1.396-1.221-2.396-1.221
				c-2.135,0-3.442,1.612-3.442,3.661c0,1.96,1.393,3.574,3.442,3.574c0.872,0,1.743-0.35,2.265-1.003h0.043v0.522
				c0,1.352-0.521,2.31-2.179,2.31c-0.957,0-1.698-0.35-2.396-1.003l-1.044,1.395c1.001,0.872,2.134,1.134,3.441,1.134
				c2.703,0,3.921-1.569,3.921-4.096V3.529H67.494z"/>
		</g>
	</g>
</g>
</svg>
