<svg xmlns="http://www.w3.org/2000/svg"><metadata/><defs><font id="supria_sansblack" horiz-adv-x="670"><font-face ascent="800" descent="-200" units-per-em="1000"/><glyph d="M57 175h201v-175h-201v175zM345 175h200v-175h-200v175zM629 175h201v-175h-201v175z" horiz-adv-x="887" unicode="..."/><glyph horiz-adv-x="0"/><glyph horiz-adv-x="255"/><glyph horiz-adv-x="255"/><glyph horiz-adv-x="255"/><glyph d="M74 500v190h207v-190l-65 -239h-75zM62 190h227v-190h-227v190z" horiz-adv-x="354" unicode="!"/><glyph d="M43 591v99h162v-102l-17 -147h-128zM255 591v99h162v-102l-18 -147h-127z" horiz-adv-x="460" unicode="&quot;"/><glyph d="M155 166h-123v100h150l34 144h-120v100h149l45 180h116l-46 -180h129l46 180h115l-45 -180h131v-100h-159l-34 -144h127v-100h-155l-40 -166h-117l41 166h-128l-41 -166h-117zM427 266l34 144h-128l-35 -144h129z" horiz-adv-x="767" unicode="#"/><glyph d="M272 227q-1 -4 -1 -8v-8q0 -25 8.5 -47t37.5 -34v134l-80 23q-42 12 -76.5 28t-59.5 39.5t-38.5 56.5t-13.5 80q0 88 67.5 144t200.5 64v77h84v-78q82 -5 132 -25.5t78 -48t37.5 -58t9.5 -55.5v-18t-1 -14l-226 -1q1 4 1 8v9q0 18 -7 34.5t-24 27.5v-126l94 -25 q49 -13 85 -29.5t59.5 -41t35 -58.5t11.5 -80q0 -89 -74.5 -143t-210.5 -62v-96h-84v95q-92 4 -147.5 26.5t-86 53t-40.5 65t-10 61.5q0 8 0.5 15.5t1.5 12.5zM459 178q0 22 -11.5 36t-46.5 26v-118q32 5 45 20.5t13 35.5zM267 516q0 -22 10.5 -36.5t39.5 -25.5v113 q-26 -5 -38 -19t-12 -32z" horiz-adv-x="717" unicode="$"/><glyph d="M166 10l482 680h134v-10l-481 -680h-135v10zM226 322q-45 0 -81.5 14.5t-62 40t-39.5 59t-14 72.5q0 40 14 75.5t39.5 61t62 40.5t81.5 15q46 0 83 -15t63.5 -40.5t40.5 -61t14 -75.5q0 -39 -14 -72.5t-40.5 -59t-63.5 -40t-83 -14.5zM715 -10q-45 0 -81.5 14.5t-62 40 t-39.5 59t-14 72.5q0 40 14 75.5t39.5 61t62 40.5t81.5 15q46 0 83 -15t63.5 -40.5t40.5 -61t14 -75.5q0 -39 -14 -72.5t-40.5 -59t-63.5 -40t-83 -14.5zM670 180q0 -20 13.5 -33.5t33.5 -13.5t34 13.5t14 33.5t-14 34t-34 14t-33.5 -14t-13.5 -34zM182 511 q0 -20 13.5 -33.5t33.5 -13.5t34 13.5t14 33.5t-14 34t-34 14t-33.5 -14t-13.5 -34z" horiz-adv-x="946" unicode="%"/><glyph d="M23 174q0 41 16 71.5t40.5 52t54.5 35.5t58 23l-44 41q-26 25 -41.5 51.5t-15.5 69.5t18.5 77t53 57t83 35.5t107.5 12.5q63 0 112.5 -13.5t84 -38t53 -59t18.5 -77.5q0 -37 -17 -67t-42.5 -53t-54.5 -39t-54 -25l88 -70q31 17 62 42t59 48l137 -122q-31 -24 -63 -46.5 t-61 -40.5l114 -105v-34h-204l-53 53q-49 -25 -109.5 -44t-135.5 -19q-58 0 -106.5 12t-83.5 35.5t-54.5 57.5t-19.5 79zM363 414q11 5 23 11.5t22 15.5t16.5 20.5t6.5 26.5q0 26 -21.5 41t-56.5 15q-32 0 -50 -14.5t-18 -33.5q0 -13 8 -23.5t26 -24.5zM224 216 q0 -14 7.5 -27t20.5 -23t29.5 -16t34.5 -6q47 0 85 25l-122 107q-22 -8 -38.5 -21.5t-16.5 -38.5z" horiz-adv-x="811" unicode="&amp;"/><glyph d="M43 591v99h162v-102l-17 -147h-127z" horiz-adv-x="248" unicode="'"/><glyph d="M28 262q0 90 19 163t48 131t65 102.5t71 77.5l97 -51q-27 -29 -54 -69.5t-48.5 -93.5t-34.5 -118t-13 -142q0 -84 14 -150.5t35.5 -119t48 -92.5t52.5 -71l-97 -50q-34 33 -70 80.5t-65.5 108.5t-48.5 135t-19 159z" horiz-adv-x="334" unicode="("/><glyph d="M306 262q0 -85 -19 -159t-48.5 -135t-65.5 -108.5t-70 -80.5l-97 50q25 31 52 71t48.5 92.5t35.5 119t14 150.5q0 77 -13 142t-34.5 118t-48.5 93.5t-54 69.5l97 51q34 -33 70.5 -77.5t65.5 -102.5t48 -131t19 -163z" horiz-adv-x="334" unicode=")"/><glyph d="M192 452l-110 -75l-47 81l120 59l-121 63l48 81l110 -75l-9 134h95l-7 -136l109 77l48 -81l-120 -63l120 -59l-48 -81l-109 77l7 -136h-95z" horiz-adv-x="462" unicode="*"/><glyph d="M411 203v-161h-154v161h-159v143h159v157h154v-157h160v-143h-160z" unicode="+"/><glyph d="M58 200h227v-200q0 -47 -11 -83.5t-37 -61t-69.5 -36.5t-108.5 -9l8 93q33 0 52.5 4t29.5 14.5t12.5 29.5t2.5 49h-106v200z" horiz-adv-x="343" unicode=","/><glyph d="M48 348h344v-143h-344v143z" horiz-adv-x="440" unicode="-"/><glyph d="M58 200h227v-200h-227v200z" horiz-adv-x="343" unicode="."/><glyph d="M298 690h130l-271 -690h-130z" horiz-adv-x="454" unicode="/"/><glyph d="M360 -10q-79 0 -140 25t-103 71.5t-63.5 112t-21.5 145.5q0 81 21.5 146.5t63.5 112t103 72t140 25.5t140.5 -25.5t103.5 -72t63.5 -112t21.5 -146.5q0 -80 -21.5 -145.5t-63.5 -112t-103.5 -71.5t-140.5 -25zM360 166q49 0 73.5 45.5t24.5 132.5t-24.5 133t-73.5 46 q-50 0 -73.5 -46t-23.5 -133t23.5 -132.5t73.5 -45.5z" horiz-adv-x="720" unicode="0"/><glyph d="M149 396h-145v164q48 0 84 6t60 20.5t36 39.5t12 64h175v-690h-222v396z" horiz-adv-x="454" unicode="1"/><glyph d="M340 161q19 5 54.5 9.5t79.5 4.5h136v-175h-567v145l285 220q30 23 47 45.5t17 50.5q0 14 -4 28t-13 25t-23 17.5t-35 6.5q-35 0 -52.5 -22.5t-17.5 -58.5q0 -13 1 -23.5t3 -19.5l-209 -3q-2 8 -3.5 22.5t-1.5 32.5q0 29 9 69.5t38.5 77t86 62t151.5 25.5 q77 0 133.5 -18.5t93 -50t54 -72.5t17.5 -85q0 -71 -38.5 -123t-106.5 -97l-71 -47q-23 -15 -42 -25.5t-26 -14.5z" horiz-adv-x="658" unicode="2"/><glyph d="M240 270v-8q0 -18 3.5 -36t14 -33t29.5 -24.5t50 -9.5q40 0 64.5 18t24.5 46q0 31 -22.5 42.5t-59.5 11.5h-59v154h58q32 0 52 9.5t20 37.5q0 55 -83 55q-27 0 -44 -7t-26.5 -18.5t-13 -25.5t-3.5 -27v-10l-195 1q-3 12 -3 29q0 31 10.5 70t41.5 73.5t88.5 58t152.5 23.5 q62 0 116 -11t94 -34t63 -58t23 -83q0 -37 -13 -63.5t-31.5 -44.5t-40 -27.5t-38.5 -11.5v-8q22 -2 47.5 -11t46.5 -27.5t35 -47t14 -69.5q0 -51 -23.5 -91t-65.5 -67t-99.5 -41.5t-124.5 -14.5q-69 0 -120 13t-86.5 34.5t-57.5 49t-34.5 55.5t-17 54t-4.5 45q0 11 0.5 17 t1.5 11z" horiz-adv-x="688" unicode="3"/><glyph d="M16 267l303 423h262v-407h100v-164h-100v-119h-226v119h-339v148zM361 280v126q0 26 1 49.5t4 44.5h-10q-8 -20 -20.5 -42t-26.5 -41l-94 -133l1 -4h145z" horiz-adv-x="707" unicode="4"/><glyph d="M244 231v-7q0 -12 5 -25t16 -23.5t27.5 -17t39.5 -6.5q39 0 64.5 25.5t25.5 65.5q0 48 -25.5 72.5t-66.5 24.5q-30 0 -53 -14t-33 -33h-200l41 397h498v-160h-314l-7 -105h7q20 14 61 25t87 11q112 0 174 -56.5t62 -156.5q0 -61 -24 -109t-66 -81t-98.5 -50.5 t-122.5 -17.5q-93 0 -154 22t-96.5 55t-50 71.5t-14.5 72.5q0 11 2 19z" horiz-adv-x="673" unicode="5"/><glyph d="M372 -10q-84 0 -147.5 25t-106.5 71.5t-65 112t-22 146.5t22 146.5t64.5 112t106 71.5t147.5 25t138.5 -20t86 -50t44 -64t12.5 -62q0 -8 -1.5 -16.5t-3.5 -13.5l-221 -1q1 2 1 4.5v4.5q0 10 -3 21.5t-11 21t-21.5 15.5t-35.5 6q-17 0 -34.5 -8t-31.5 -25.5t-23.5 -45 t-9.5 -66.5q0 -7 0.5 -13t1.5 -11h9q9 10 22.5 21.5t33.5 20.5t47 15t64 6q58 0 103 -14.5t75.5 -40.5t46 -62.5t15.5 -80.5q0 -63 -21.5 -110t-61 -78.5t-95.5 -47.5t-125 -16zM297 227q0 -38 21 -56.5t56 -18.5t56 18t21 56q0 34 -20 52.5t-57 18.5q-35 0 -56 -18.5 t-21 -51.5z" horiz-adv-x="704" unicode="6"/><glyph d="M31 690h584v-139q-2 -7 -15 -31t-33 -59.5t-45 -79t-51.5 -89.5t-52.5 -91.5t-47 -85t-35.5 -69.5t-18.5 -46h-241v22q3 14 16.5 41t33.5 62t44.5 76t50 82t50 80t44 70.5t32 53t14.5 28.5h-162v-89h-168v264z" horiz-adv-x="631" unicode="7"/><glyph d="M359 430q37 0 59 15.5t22 41.5t-19.5 41t-61.5 15q-41 0 -62 -15t-21 -41t23.5 -41.5t59.5 -15.5zM359 149q44 0 70.5 17.5t26.5 46.5t-24.5 47.5t-72.5 18.5q-49 0 -74 -18.5t-25 -47.5t27 -46.5t72 -17.5zM359 -10q-71 0 -131 12.5t-104.5 37.5t-69.5 63.5t-25 89.5 q0 41 15 71.5t38 51t50 31t50 11.5v9q-18 2 -40 11t-40.5 26t-31 43t-12.5 62q0 51 22.5 87t63 59t95.5 34t120 11t120.5 -11t95.5 -34t62.5 -59t22.5 -86q0 -36 -12.5 -62.5t-31.5 -43.5t-41 -26t-41 -11v-9q24 -1 50.5 -11.5t49.5 -31t38 -51t15 -71.5q0 -51 -25 -89.5 t-68.5 -63.5t-104 -37.5t-130.5 -12.5z" horiz-adv-x="717" unicode="8"/><glyph d="M332 700q84 0 147.5 -25t106.5 -71.5t65 -112t22 -146.5t-22 -146.5t-64.5 -112t-106 -71.5t-147.5 -25t-138.5 20t-86 50t-44 64t-12.5 62q0 8 1 16.5t3 13.5l221 1v-9q0 -11 3 -22t10.5 -20.5t21.5 -15.5t35 -6q17 0 34.5 8t32 25.5t24 45t9.5 66.5q0 6 -0.5 13 t-2.5 11h-8q-9 -9 -24 -20t-37 -20.5t-51 -16t-64 -6.5q-55 0 -98 14.5t-72.5 40.5t-45 62.5t-15.5 80.5q0 63 21.5 110t61 78.5t95.5 47.5t125 16zM407 463q0 39 -20.5 57t-56.5 18q-35 0 -56 -18t-21 -56q0 -34 20 -52.5t57 -18.5q35 0 56 18.5t21 51.5z" horiz-adv-x="704" unicode="9"/><glyph d="M79 185h217v-185h-217v185zM79 490h217v-185h-217v185z" horiz-adv-x="375" unicode=":"/><glyph d="M79 490h216v-185h-216v185zM79 185h216v-185q0 -47 -10.5 -83.5t-36.5 -61t-69 -36.5t-108 -9l8 93q33 0 52.5 4t29.5 14.5t12.5 29.5t2.5 49h-97v185z" horiz-adv-x="361" unicode=";"/><glyph d="M85 358l474 172v-161l-301 -89v-9l301 -89v-161l-474 173v164z" unicode="&lt;"/><glyph d="M98 333v143h473v-143h-473zM98 78v143h473v-143h-473z" unicode="="/><glyph d="M585 194l-474 -173v161l301 89v9l-301 89v161l474 -172v-164z" unicode="&gt;"/><glyph d="M211 261q-14 42 -14 71q0 38 22 58.5t60 35.5t64.5 29.5t26.5 41.5q0 18 -13 30.5t-43 12.5q-35 0 -47 -19t-12 -48v-9l-223 1q-2 10 -2 26q0 25 7.5 60.5t36 68.5t85.5 56.5t155 23.5q65 0 118 -15t90.5 -42t58 -64.5t20.5 -82.5q0 -48 -19.5 -79t-47.5 -51.5t-60 -32 t-57 -19.5q-34 -11 -45 -17.5t-11 -18.5q0 -11 2 -17h-152zM172 190h227v-190h-227v190z" horiz-adv-x="634" unicode="?"/><glyph d="M34 260q0 105 36 187t101 138t155.5 85.5t198.5 29.5q212 0 323 -82t111 -234q0 -60 -15.5 -119.5t-49 -107t-86.5 -77t-127 -29.5q-66 0 -104 18.5t-43 45.5h-5q-8 -8 -22.5 -19t-35 -21t-46.5 -17t-57 -7q-30 0 -59 8t-52.5 27t-37.5 51t-14 80q0 57 16 111t47.5 96 t79 67.5t111.5 25.5q36 0 61 -9.5t40.5 -22.5t24 -26.5t13.5 -21.5h6l35 70h147l-60 -304q-5 -26 3 -40.5t31 -14.5q24 0 45.5 17t38 48t26.5 74t10 96q0 63 -24 109t-69.5 75.5t-111.5 43.5t-150 14q-94 0 -170 -24.5t-130 -71.5t-83 -115.5t-29 -156.5q0 -56 14 -108.5 t48 -92.5t92 -64t146 -24q11 0 16 0.5t9 0.5l-10 -77q-107 0 -182 28t-122 77.5t-68.5 116.5t-21.5 146zM513 391q-25 0 -43 -13.5t-30 -35t-17.5 -47t-5.5 -49.5q0 -17 4.5 -27.5t12 -16.5t16.5 -8t19 -2q17 0 29 6t21 14q10 9 18 21l24 116q-3 11 -9 21q-5 8 -14.5 14.5 t-24.5 6.5z" horiz-adv-x="993" unicode="@"/><glyph d="M246 690h280l247 -690h-229l-45 133h-227l-44 -133h-228zM466 278l-43 130q-11 31 -19 58.5t-13 51.5h-9q-5 -23 -12.5 -51.5t-16.5 -53.5l-47 -135h160z" horiz-adv-x="773" unicode="A"/><glyph d="M67 690h360q124 0 188 -40.5t64 -140.5q0 -35 -11 -61t-28 -44.5t-37 -30t-39 -16.5v-6q21 -5 44 -15t42.5 -29t32 -48t12.5 -71q0 -99 -71 -143.5t-208 -44.5h-349v690zM380 418q26 0 42.5 4.5t25.5 12.5t12.5 19.5t3.5 25.5q0 27 -15.5 42.5t-62.5 15.5h-108v-120h102z M390 155q48 0 68 13.5t20 49.5q0 32 -20 46.5t-68 14.5h-112v-124h112z" horiz-adv-x="731" unicode="B"/><glyph d="M406 526q-65 0 -103.5 -49t-38.5 -134q0 -82 38 -130.5t104 -48.5q36 0 60 10.5t39 28t21.5 39t6.5 43.5v8l227 -1q2 -9 3 -19.5t1 -21.5q0 -70 -28 -119.5t-76 -81t-111.5 -46t-133.5 -14.5q-87 0 -158 22t-121.5 66.5t-77.5 110.5t-27 154q0 89 27 156t77.5 111.5 t121.5 67t158 22.5q112 0 181 -25.5t106.5 -64t50 -83.5t12.5 -84q0 -14 -1.5 -25t-3.5 -20l-227 -1v9q0 26 -7 48t-22 38t-39 25t-59 9z" horiz-adv-x="795" unicode="C"/><glyph d="M67 690h314q189 0 284 -83.5t95 -261.5t-95.5 -261.5t-283.5 -83.5h-314v690zM368 173q46 0 77 12t49.5 34.5t26.5 54.5t8 73q0 40 -8 72.5t-26.5 55t-49.5 34.5t-77 12h-81v-348h81z" horiz-adv-x="793" unicode="D"/><glyph d="M67 690h567v-172h-347v-86h270v-168h-270v-89h347v-175h-567v690z" horiz-adv-x="677" unicode="E"/><glyph d="M67 690h548v-172h-326v-122h278v-171h-278v-225h-222v690z" horiz-adv-x="638" unicode="F"/><glyph d="M424 145q26 0 46 7.5t34.5 19.5t23 27t11.5 30h-115v127h354v-356h-148l-19 90h-10q-30 -39 -89 -69.5t-147 -30.5q-69 0 -129.5 22t-106 66.5t-72 110.5t-26.5 154q0 86 27 152.5t77.5 112t121.5 69t158 23.5q73 0 127.5 -10.5t93 -28t64 -40.5t40 -49.5t20 -54 t5.5 -53.5q0 -25 -5 -45l-230 -1v9q0 51 -30.5 75t-90.5 24q-66 0 -105 -48.5t-39 -134.5q0 -41 10.5 -77t30.5 -63t49.5 -42.5t68.5 -15.5z" horiz-adv-x="822" unicode="G"/><glyph d="M67 690h220v-259h254v259h222v-690h-222v259h-254v-259h-220v690z" horiz-adv-x="830" unicode="H"/><glyph d="M67 690h220v-690h-220v690z" horiz-adv-x="354" unicode="I"/><glyph d="M233 281q-3 -14 -5 -26.5t-2 -23.5q0 -29 12.5 -48t49.5 -19q35 0 51.5 20.5t16.5 66.5v439h220v-439q0 -129 -69 -195t-219 -66q-78 0 -131.5 19.5t-86.5 52.5t-47.5 77t-14.5 92q0 11 2 27.5t6 27.5z" horiz-adv-x="637" unicode="J"/><glyph d="M67 690h220v-278l61 5q4 10 16 32t27.5 50t32.5 59t32.5 58t27 47t15.5 27h235v-15q-6 -8 -20.5 -32t-34 -57t-41.5 -70t-42 -71.5t-36.5 -62t-24.5 -40.5q8 -12 24 -39t36.5 -61.5t43 -71.5t42 -69t34 -54.5t20.5 -27.5v-19h-247q-4 6 -15.5 25t-26 45t-30.5 55.5 t-30.5 55.5t-26 45.5t-15.5 26.5h-57v-253h-220v690z" horiz-adv-x="748" unicode="K"/><glyph d="M67 690h220v-515h311v-175h-531v690z" horiz-adv-x="608" unicode="L"/><glyph d="M407 136l-59 142q-8 18 -16 40.5t-16.5 45.5t-16.5 46t-15 43h-9q6 -48 9 -98.5t3 -100.5v-254h-220v690h276l107 -225q11 -22 20.5 -48t16.5 -49h11q7 23 17 49t21 48l106 225h275v-690h-220v254q0 49 1.5 100.5t6.5 98.5h-9q-6 -20 -13 -42.5t-15.5 -45.5t-17 -45 t-15.5 -41l-58 -143h-170z" horiz-adv-x="984" unicode="M"/><glyph d="M67 690h236l179 -302q18 -31 35.5 -64t30.5 -63h10q-5 35 -10.5 80.5t-5.5 86.5v262h222v-690h-234l-185 300q-17 27 -32.5 61t-31.5 71h-9q6 -42 10.5 -85t4.5 -88v-259h-220v690z" horiz-adv-x="831" unicode="N"/><glyph d="M415 -10q-186 0 -285 92.5t-99 261.5q0 84 25.5 150.5t74 112t120 69.5t164.5 24q91 0 163 -24t121 -69.5t75 -112t26 -150.5t-26 -150t-75 -111t-121 -69t-163 -24zM415 164q70 0 111 43.5t41 136.5t-41 137.5t-111 44.5q-71 0 -111.5 -44.5t-40.5 -137.5t40.5 -136.5 t111.5 -43.5z" horiz-adv-x="830" unicode="O"/><glyph d="M67 690h330q79 0 133.5 -20t88 -54.5t48 -81t14.5 -99.5q0 -51 -14.5 -98t-48 -83t-88 -57.5t-133.5 -21.5h-108v-175h-222v690zM358 340q50 0 71.5 21.5t21.5 71.5q0 48 -21.5 70t-71.5 22h-68v-185h68z" horiz-adv-x="697" unicode="P"/><glyph d="M376 -9q-168 10 -256.5 101t-88.5 252q0 84 25.5 150.5t74 112t120 69.5t164.5 24q91 0 163 -24t121 -69.5t75 -112t26 -150.5q0 -120 -47.5 -199t-140.5 -113v-4q9 -5 27.5 -15.5t41.5 -22.5t47.5 -24.5t47.5 -23t41 -17.5t28 -8l2 -28l-138 -126q-39 10 -84 36t-90 59 t-86.5 68.5t-72.5 64.5zM415 164q70 0 111 43.5t41 136.5t-41 137.5t-111 44.5q-71 0 -111.5 -44.5t-40.5 -137.5t40.5 -136.5t111.5 -43.5z" horiz-adv-x="830" unicode="Q"/><glyph d="M67 690h322q84 0 142 -16.5t94 -47t51.5 -73.5t15.5 -95q0 -75 -36 -124.5t-92 -69.5v-8q15 -17 38.5 -52t48.5 -72t48 -67t36 -37v-28h-236q-14 10 -33.5 40.5t-39.5 65.5t-37.5 66.5t-28.5 44.5h-71v-217h-222v690zM369 367q54 0 74.5 21.5t20.5 57.5q0 37 -19.5 57.5 t-75.5 20.5h-85v-157h85z" horiz-adv-x="749" unicode="R"/><glyph d="M255 229v-12q0 -32 26.5 -55t78.5 -23q38 0 58.5 14t20.5 37q0 19 -15 31t-50 22l-141 40q-42 12 -77 28.5t-60 40.5t-38.5 56.5t-13.5 76.5q0 102 77.5 158.5t230.5 56.5q95 0 153.5 -20t91 -49.5t43.5 -63t11 -60.5q0 -19 -3 -32l-218 -1q1 5 1 7.5v6.5 q0 29 -19.5 45.5t-64.5 16.5q-37 0 -55 -13.5t-18 -35.5q0 -32 58 -49l154 -44q40 -12 75 -27t60.5 -38t40 -55.5t14.5 -77.5q0 -109 -86 -164.5t-242 -55.5q-104 0 -167 22t-97 54.5t-45 68.5t-11 64v15t2 14z" horiz-adv-x="705" unicode="S"/><glyph d="M220 518h-209v172h640v-172h-211v-518h-220v518z" horiz-adv-x="662" unicode="T"/><glyph d="M60 690h220v-377q0 -84 29.5 -116.5t88.5 -32.5q58 0 88 32.5t30 116.5v377h220v-376q0 -88 -21.5 -149.5t-64 -100.5t-105.5 -56.5t-147 -17.5t-147.5 17.5t-105.5 56.5t-63.5 100.5t-21.5 149.5v376z" horiz-adv-x="796" unicode="U"/><glyph d="M-1 690h232l98 -330q11 -36 20.5 -74t16.5 -78h14q7 40 16 78t20 74l97 330h233l-241 -690h-263z" horiz-adv-x="746" unicode="V"/><glyph d="M751 374q9 -34 17.5 -69t14.5 -73h14q2 38 4.5 71t10.5 71l63 316h231l-160 -690h-270l-79 279q-9 32 -17 72t-14 84h-13q-5 -44 -13.5 -84t-17.5 -72l-81 -279h-269l-159 690h231l62 -315q7 -35 11 -70.5t5 -72.5h14q6 38 14 72.5t18 69.5l86 316h212z" horiz-adv-x="1119" unicode="W"/><glyph d="M376 234q-17 -38 -34.5 -70t-34.5 -61l-61 -103h-232v18l201 330l-198 323v19h234l58 -102q17 -30 34 -63t33 -71h16q34 76 67 133l60 103h230v-19l-199 -323l202 -330v-18h-230l-62 104q-17 28 -34 60t-34 70h-16z" horiz-adv-x="766" unicode="X"/><glyph d="M256 252l-258 418v20h227l67 -118q19 -33 36.5 -69.5t31.5 -73.5h14q16 37 34 75t35 67l68 119h225v-20l-259 -418v-252h-221v252z" horiz-adv-x="733" unicode="Y"/><glyph d="M35 153l254 274q20 22 43.5 44.5t47.5 39.5l-1 9q-35 -3 -65 -4t-63 -1h-198v175h609v-139l-266 -284q-18 -20 -44.5 -45.5t-46.5 -42.5l2 -8q27 3 64 5t74 2h210v-178h-620v153z" horiz-adv-x="702" unicode="Z"/><glyph d="M328 -120v-100h-266v940h266v-100h-131v-740h131z" horiz-adv-x="351" unicode="["/><glyph d="M26 690h131l271 -690h-131z" horiz-adv-x="455" unicode="\"/><glyph d="M155 -120v740h-132v100h266v-940h-266v100h132z" horiz-adv-x="351" unicode="]"/><glyph d="M386 721l194 -295h-135l-116 193h-13l-118 -193h-134l195 295h127z" horiz-adv-x="644" unicode="^"/><glyph d="M448 -20v-131h-451v131h451z" horiz-adv-x="445" unicode="_"/><glyph d="M285 690v10h214l56 -130v-10h-176z" horiz-adv-x="679" unicode="`"/><glyph d="M47 306q-3 16 -3 35q0 73 63.5 116t200.5 43q75 0 124 -15.5t78 -41.5t41 -60.5t12 -71.5v-142q0 -37 22 -37q11 0 23 3l7 -130q-23 -7 -51 -11t-57 -4q-35 0 -56.5 7.5t-34 18.5t-17 24t-5.5 25h-7q-25 -30 -69.5 -52.5t-120.5 -22.5q-81 0 -129.5 33t-48.5 96 q0 37 15.5 66.5t54 50.5t103.5 33.5t164 15.5v28q0 53 -61 53q-36 0 -51.5 -11.5t-15.5 -29.5q0 -5 2 -15zM218 151q0 -37 53 -37q23 0 46 9.5t39 25.5v61q-42 -2 -68.5 -7.5t-42 -13.5t-21.5 -18t-6 -20z" horiz-adv-x="625" unicode="a"/><glyph d="M51 720h213v-280h7q17 23 51 41.5t84 18.5q37 0 75.5 -11.5t70 -40t52 -78t20.5 -124.5t-20 -124.5t-51.5 -78.5t-70.5 -41t-76 -12q-35 0 -61 7.5t-45.5 18.5t-33 23.5t-22.5 23.5h-6l-28 -63h-159v720zM264 165q9 -14 25.5 -23t36.5 -9q16 0 30.5 5.5t26 18t18.5 34.5 t7 55t-7 54.5t-18.5 33.5t-26.5 17t-30 5q-18 0 -36 -10t-26 -24v-157z" horiz-adv-x="649" unicode="b"/><glyph d="M23 244q0 52 17 98.5t53 81.5t92 55.5t133 20.5q90 0 142 -20t78.5 -48.5t33.5 -60t7 -54.5q0 -16 -4 -35l-209 -1q1 4 1 7.5v5.5q0 8 -2.5 18.5t-9 20.5t-17.5 16.5t-29 6.5q-15 0 -27.5 -5t-22 -18t-15 -34.5t-5.5 -54.5q0 -57 19 -84t51 -27q18 0 29 6.5t17.5 16t9 20 t2.5 18.5q0 9 -1 14h209q2 -11 3 -20t1 -16q0 -21 -7 -52.5t-33.5 -60t-78.5 -49t-142 -20.5q-148 0 -221.5 66.5t-73.5 187.5z" horiz-adv-x="604" unicode="c"/><glyph d="M598 0h-159l-28 63h-6q-9 -11 -22.5 -23.5t-33 -23.5t-46 -18.5t-60.5 -7.5q-38 0 -76.5 12t-70 41t-51.5 78.5t-20 124.5t20.5 124.5t52 78t70 40t75.5 11.5q50 0 84 -18.5t51 -41.5h7v280h213v-720zM385 322q-8 14 -26 24t-36 10q-15 0 -30 -5t-26.5 -17t-18.5 -33.5 t-7 -54.5t7 -55t18.5 -34.5t26 -18t30.5 -5.5q20 0 36.5 9t25.5 23v157z" horiz-adv-x="649" unicode="d"/><glyph d="M23 243q0 53 16 100t51.5 82t91 55t134.5 20q66 0 115.5 -14t83.5 -39.5t51 -61.5t17 -79q0 -19 -2 -40t-5 -39h-349q0 -53 25.5 -76.5t59.5 -23.5q37 0 53.5 11.5t16.5 29.5v7l194 -1q2 -5 2.5 -11.5t0.5 -11.5q0 -25 -9.5 -53.5t-38 -52.5t-81.5 -39.5t-139 -15.5 q-146 0 -217 66t-71 187zM395 312v8q0 35 -20 51t-57 16q-35 0 -58 -19.5t-27 -55.5h162z" horiz-adv-x="608" unicode="e"/><glyph d="M92 370h-79v120h79v37q0 106 54 154.5t161 48.5q35 0 70.5 -4t69.5 -12l-18 -140q-19 7 -37 9.5t-32 2.5q-25 0 -40 -12.5t-15 -47.5v-36h129v-120h-129v-370h-213v370z" horiz-adv-x="443" unicode="f"/><glyph d="M256 -28v-4q0 -14 12 -25.5t46 -11.5q40 0 63.5 24.5t23.5 69.5v51h-8q-23 -23 -63 -39.5t-85 -16.5q-36 0 -74.5 10t-70.5 36t-53 71.5t-21 117.5t20.5 119t52 75t70.5 39.5t76 11.5q36 0 63.5 -9.5t47.5 -22.5t32.5 -26.5t18.5 -21.5h7l27 70h159v-440 q0 -64 -21 -112.5t-58 -81.5t-88.5 -49.5t-112.5 -16.5q-67 0 -117 12.5t-83.5 33.5t-50 49t-16.5 58q0 8 0.5 16.5t2.5 14.5zM324 153q18 0 35.5 10t27.5 26v131q-11 17 -27.5 26.5t-35.5 9.5q-15 0 -29.5 -3.5t-26.5 -14.5t-19 -31t-7 -53t7 -52.5t19 -30.5t26.5 -14.5 t29.5 -3.5z" horiz-adv-x="651" unicode="g"/><glyph d="M51 720h213v-292h9q4 7 13.5 19t26 24t42 20.5t61.5 8.5q37 0 69.5 -11t57 -35t39 -62t14.5 -92v-300h-212v284q0 72 -56 72q-14 0 -24.5 -5t-18.5 -11.5t-13 -14t-8 -13.5v-312h-213v720z" horiz-adv-x="643" unicode="h"/><glyph d="M51 490h213v-490h-213v490zM51 700h213v-147h-213v147z" horiz-adv-x="315" unicode="i"/><glyph d="M264 -12q0 -101 -53 -149.5t-152 -48.5q-42 0 -72 3t-57 8l16 138q15 -2 31 -4t33 -2q20 0 30.5 15t10.5 52v490h213v-502zM52 700h213v-147h-213v147z" horiz-adv-x="315" unicode="j"/><glyph d="M51 720h213v-412q42 26 82.5 72.5t64.5 109.5h227v-23q-14 -32 -34 -62.5t-42 -57.5t-43.5 -49.5t-39.5 -37.5q7 -9 21 -28.5t30.5 -43.5t34.5 -50.5t34 -49.5t29 -41t20 -24v-23h-224q-8 7 -23 31t-31.5 51t-31.5 51.5t-22 33.5q-10 -7 -26 -16t-26 -14v-137h-213v720z" horiz-adv-x="656" unicode="k"/><glyph d="M51 720h213v-720h-213v720z" horiz-adv-x="315" unicode="l"/><glyph d="M51 490h158l23 -77h9q9 14 21.5 29.5t31 28t43 21t57.5 8.5q57 0 100.5 -22t67.5 -67h8q10 16 22.5 31.5t30.5 28.5t42 21t57 8q88 0 141 -50t53 -150v-300h-213v284q0 42 -13.5 57t-38.5 15t-40 -14t-23 -30v-312h-212v287q0 35 -11 52t-40 17q-23 0 -38.5 -14 t-22.5 -29v-313h-213v490z" horiz-adv-x="962" unicode="m"/><glyph d="M51 490h158l24 -77h7q9 15 22 30t32 28t43.5 21t55.5 8q43 0 79 -11t62 -35t40.5 -62t14.5 -92v-300h-212v284q0 37 -11.5 54.5t-40.5 17.5q-23 0 -38 -10.5t-23 -23.5v-322h-213v490z" horiz-adv-x="635" unicode="n"/><glyph d="M23 244q0 57 17 104t53 80.5t90.5 52.5t129.5 19q74 0 128.5 -19t90.5 -52.5t53.5 -80.5t17.5 -104q0 -56 -17.5 -103t-53.5 -80.5t-90.5 -52t-128.5 -18.5q-75 0 -129.5 18.5t-90.5 52t-53 80.5t-17 103zM313 133q32 0 53 24t21 87q0 32 -5.5 53.5t-15.5 34.5 t-23.5 18.5t-29.5 5.5t-30 -5.5t-24 -18.5t-16 -34.5t-6 -53.5q0 -63 22 -87t54 -24z" horiz-adv-x="626" unicode="o"/><glyph d="M51 490h159l28 -63h6q9 10 22 23t32.5 24t46 18.5t60.5 7.5q38 0 77 -12t70.5 -41t51.5 -78.5t20 -124.5t-20.5 -124.5t-52.5 -78t-70.5 -40t-75.5 -11.5q-49 0 -83 18.5t-52 41.5h-6v-250h-213v690zM264 167q8 -14 26 -24t36 -10q15 0 30 5t26.5 17t18.5 33.5t7 54.5 t-7 55t-18.5 34.5t-26 18t-30.5 5.5q-20 0 -37 -9t-25 -23v-157z" horiz-adv-x="649" unicode="p"/><glyph d="M598 -200h-213v250h-7q-17 -23 -51 -41.5t-84 -18.5q-37 0 -75.5 11.5t-70 40t-52 78t-20.5 124.5t20 124.5t51.5 78.5t70 41t76.5 12q34 0 60.5 -7.5t46 -18.5t33 -24t22.5 -23h6l28 63h159v-690zM385 324q-9 14 -25.5 23t-36.5 9q-16 0 -30.5 -5.5t-26 -18t-18.5 -34.5 t-7 -55t7 -54.5t18.5 -33.5t26.5 -17t30 -5q18 0 36 10t26 24v157z" horiz-adv-x="649" unicode="q"/><glyph d="M265 0h-214v490h158l25 -72h8q9 13 22.5 27.5t31.5 26.5t41.5 20t53.5 8q48 0 77 -15.5t44.5 -39.5t20.5 -53t5 -56q0 -26 -5.5 -51t-10.5 -42l-175 10q3 12 4 24t1 21q0 26 -11.5 40.5t-29.5 14.5q-17 0 -29 -11.5t-17 -25.5v-316z" horiz-adv-x="551" unicode="r"/><glyph d="M213 156v-10q0 -9 3 -18t11.5 -16t23.5 -11.5t38 -4.5q30 0 43.5 8.5t13.5 25.5t-14.5 24.5t-42.5 13.5l-72 16q-52 12 -87.5 25.5t-57.5 32.5t-31.5 43.5t-9.5 57.5q0 75 66.5 116t193.5 41q81 0 130 -14.5t75.5 -35.5t35.5 -45.5t10 -44.5q0 -14 -3 -24l-181 -1v9 q0 8 -3 17t-11 16t-21.5 11.5t-33.5 4.5q-29 0 -42.5 -10t-13.5 -24q0 -19 19 -26.5t44 -12.5l84 -16q53 -10 87 -25.5t54 -35t28 -43.5t8 -51q0 -35 -16 -64t-48.5 -50t-82.5 -33t-119 -12q-86 0 -138 15.5t-80.5 38t-38.5 48t-10 45.5q0 13 1 18z" horiz-adv-x="579" unicode="s"/><glyph d="M95 370h-87v120h106l27 111h167v-111h154v-120h-154v-167q0 -29 12 -41.5t46 -12.5q20 0 42.5 5t49.5 14l9 -157q-37 -10 -83.5 -15.5t-92.5 -5.5q-102 0 -149 41t-47 134v205z" horiz-adv-x="492" unicode="t"/><glyph d="M585 0h-158l-24 77h-7q-9 -15 -22 -30t-32 -28t-43.5 -21t-55.5 -8q-43 0 -79 11t-62.5 35t-41 62t-14.5 92v300h213v-284q0 -37 11.5 -54.5t40.5 -17.5q23 0 38 10.5t23 23.5v322h213v-490z" horiz-adv-x="636" unicode="u"/><glyph d="M2 473v17h215l61 -214q4 -13 7.5 -30l7 -34t6 -34t4.5 -30h11q2 13 5 29.5t6.5 33.5t7.5 34t8 31l58 214h215v-17l-184 -473h-244z" horiz-adv-x="616" unicode="v"/><glyph d="M7 490h212l38 -171q7 -31 13 -69t10 -73h10q5 35 12.5 74t14.5 68l39 171h230l39 -171q8 -32 15 -69.5t12 -72.5h9q5 35 10.5 72.5t12.5 69.5l37 171h213l-136 -490h-256l-50 225q-5 23 -10 49t-7 46h-10q-2 -20 -7 -45.5t-10 -48.5l-49 -226h-257z" horiz-adv-x="941" unicode="w"/><glyph d="M10 18l171 229l-167 224v19h223l42 -69q10 -17 19 -34t20 -39h9q6 11 10 19.5t8.5 16.5t9.5 16.5t12 19.5l42 70h222v-19l-168 -220l173 -233v-18h-223l-50 81q-12 20 -18.5 33t-17.5 36h-9q-11 -23 -18.5 -37t-18.5 -33l-49 -80h-222v18z" horiz-adv-x="645" unicode="x"/><glyph d="M52 -55q21 -5 47 -8.5t46 -3.5q30 0 45.5 9.5t20.5 29.5l8 30l-219 471v17h215l68 -211q8 -24 15 -52.5t12 -53.5h12q5 24 11 53t12 53l52 211h212v-19l-193 -518q-17 -45 -37 -76t-47 -50.5t-62.5 -28t-84.5 -8.5q-40 0 -77.5 4t-69.5 9z" horiz-adv-x="612" unicode="y"/><glyph d="M30 126l157 146q9 8 21 18t25.5 20t27 18.5t25.5 14.5l-1 10q-31 -4 -62.5 -5.5t-63.5 -1.5h-116v144h492v-116l-154 -147q-23 -22 -51 -43t-54 -38l2 -11q27 5 60.5 6.5t65.5 1.5h131v-143h-505v126z" horiz-adv-x="570" unicode="z"/><glyph d="M98 -65q0 31 5 58.5t11 52.5t11 48t5 46q0 38 -27 51t-94 13v121q67 0 94 13.5t27 51.5q0 21 -5 43.5t-11.5 47.5t-11.5 51.5t-5 55.5q0 44 15 71.5t44 43.5t73 21.5t102 5.5v-109q-27 0 -44 -4.5t-26 -12t-12 -18t-3 -21.5q0 -20 5 -43t11.5 -48.5t11.5 -53.5t5 -58 q0 -23 -7.5 -39t-19 -26.5t-25 -17t-26.5 -10.5v-8q13 -4 27 -10t25 -17t18.5 -27.5t7.5 -41.5q0 -32 -5 -60t-11.5 -53.5t-11.5 -49t-5 -47.5q0 -11 3 -21.5t12 -18t26 -12t44 -4.5v-109q-59 0 -102.5 7t-72.5 24t-43.5 45t-14.5 69z" horiz-adv-x="364" unicode="{"/><glyph d="M63 720h109v-920h-109v920z" horiz-adv-x="235" unicode="|"/><glyph d="M266 -65q0 -41 -14.5 -69t-43.5 -45t-73 -24t-102 -7v109q27 0 44 4.5t26 12t12 18t3 21.5q0 24 -5 47.5t-11.5 49t-11.5 53.5t-5 60q0 25 7.5 41.5t18.5 27.5t25 17t27 10v8q-13 4 -26.5 10.5t-25 17t-19 26.5t-7.5 39q0 30 5 58t11.5 53.5t11.5 48.5t5 43q0 11 -3 21.5 t-12 18t-26 12t-44 4.5v109q58 0 102 -5.5t73.5 -21.5t44 -43.5t14.5 -71.5q0 -29 -5 -55.5t-11.5 -51.5t-11.5 -47.5t-5 -43.5q0 -38 27 -51.5t94 -13.5v-121q-67 0 -94 -13t-27 -51q0 -23 5 -46t11 -48t11 -52.5t5 -58.5z" horiz-adv-x="364" unicode="}"/><glyph d="M47 188q-1 7 -1 12v10q0 33 9 63t28 52.5t47.5 35.5t66.5 13q31 0 56 -8.5t51 -21.5q24 -13 48.5 -21.5t45.5 -8.5q20 0 28 12t8 28v7h120q1 -5 1.5 -11.5t0.5 -12.5q0 -33 -10 -62.5t-29.5 -51.5t-48 -35t-65.5 -13q-30 0 -52 5t-47 14q-29 11 -54 22.5t-49 11.5 q-20 0 -27.5 -11t-7.5 -24v-5h-119v0z" horiz-adv-x="600" unicode="~"/><glyph d="M274 -10v-190h-207v190l65 239h75zM286 300h-227v190h227v-190z" horiz-adv-x="341" unicode="¡"/><glyph d="M235 -61l9 56q-103 15 -157 79t-54 170q0 52 17 98.5t51 81.5t86 55.5t123 20.5h11t11 -1l11 61h83l-13 -73q35 -9 62.5 -23.5t47.5 -31.5l-65 -127q-34 35 -68 51l-41 -237q29 3 57.5 15t54.5 32l34 -128q-24 -19 -67 -32.5t-101 -15.5l-9 -51h-83zM218 244 q0 -82 50 -112l42 238q-45 -5 -68.5 -35t-23.5 -91z" horiz-adv-x="554" unicode="¢"/><glyph d="M147 348q-11 26 -21 54t-10 62q0 52 18.5 95t55.5 74.5t91 49t125 17.5q82 0 136.5 -21t87.5 -54t46.5 -72.5t13.5 -75.5q0 -11 -0.5 -23t-2.5 -22q-54 0 -108 -0.5t-108 -0.5q0 3 0.5 6.5t0.5 6.5q0 34 -17 56t-53 22q-26 0 -44 -16.5t-18 -48.5q0 -29 15 -55.5 t27 -53.5h195v-90h-190q-6 -18 -15.5 -31t-20.5 -23t-22 -17t-19 -11l3 -8q20 5 61.5 7.5t92.5 2.5h185v-178h-599v130q22 8 43 20t37.5 28.5t27 36.5t12.5 43h-139v90h113z" horiz-adv-x="724" unicode="£"/><glyph d="M290 91q-62 0 -113 28l-58 -58l-80 80l59 58q-13 24 -20 52t-7 60q0 63 27 111l-58 58l80 80l58 -58q50 28 112 28q31 0 59 -7t52 -20l58 57l80 -80l-58 -57q29 -49 29 -112t-29 -113l58 -58l-80 -80l-58 59q-50 -28 -111 -28zM290 195q51 0 82 32t31 84q0 51 -31 83.5 t-82 32.5t-82.5 -32.5t-31.5 -83.5q0 -52 31.5 -84t82.5 -32z" horiz-adv-x="579" unicode="¤"/><glyph d="M128 345h105l-207 325v20h226l67 -118q14 -25 26 -50t21 -45q11 -24 19 -45h15q10 21 21 45q10 20 22 45t26 49l67 119h223v-20l-210 -325h105v-90h-153v-60h153v-90h-153v-105h-220v105h-153v90h153v60h-153v90z" horiz-adv-x="784" unicode="¥"/><glyph d="M69 165h109v-364h-109v364zM178 721v-344h-109v344h109z" horiz-adv-x="247" unicode="¦"/><glyph d="M261 30v-10q1 -33 27 -50.5t81 -17.5q49 0 67 12t18 32q0 18 -13 25t-37 14l-173 42q-40 10 -75 22.5t-61 31.5t-41 45.5t-15 64.5q0 40 24.5 73t65.5 48q-36 21 -55.5 50.5t-19.5 77.5q0 60 30 100t76 64.5t102 35t108 10.5q100 0 162 -22t96 -53.5t46 -67t12 -62.5 q0 -8 -0.5 -15t-1.5 -13l-218 -1v13q0 27 -25 42.5t-71 15.5q-30 0 -51.5 -11.5t-21.5 -32.5q0 -20 14.5 -27t36.5 -12l163 -40q50 -12 84 -27t55 -34t30 -42.5t9 -51.5q0 -45 -18.5 -74.5t-50.5 -50.5q36 -26 54.5 -56t18.5 -80q0 -99 -88.5 -153.5t-246.5 -54.5 q-105 0 -168.5 23t-98 56.5t-46 70.5t-11.5 65q0 8 0.5 12.5t1.5 11.5zM257 270q0 -12 7 -19t24 -12l164 -45q10 3 17 10.5t7 18.5q0 14 -7.5 21.5t-26.5 13.5l-161 44q-10 -4 -17 -11t-7 -21z" horiz-adv-x="733" unicode="§"/><glyph d="M377 700h211v-142h-211v142zM55 700h211v-142h-211v142z" horiz-adv-x="646" unicode="¨"/><glyph d="M34 345q0 77 27.5 142t76.5 112.5t117 74t148 26.5t148 -26.5t117 -74t76.5 -112.5t27.5 -142t-27.5 -142.5t-76.5 -112.5t-117 -73.5t-148 -26.5t-148 26.5t-117 73.5t-76.5 112.5t-27.5 142.5zM113 345q0 -61 21.5 -112.5t60 -89t91.5 -58.5t117 -21t117 21t91.5 58.5 t59.5 89t21 112.5t-21 112.5t-59.5 89t-91.5 58.5t-117 21t-117 -21t-91.5 -58.5t-60 -89t-21.5 -112.5zM181 344q0 54 16 94.5t45 67.5t70 40.5t92 13.5q72 0 114 -19t63 -47t25 -60t0 -59l-147 -2q3 29 -12.5 49t-47.5 20q-30 0 -48.5 -26.5t-18.5 -71.5q0 -44 18.5 -70 t49.5 -26q32 0 47 22t12 46h147q4 -25 0 -57t-25 -61t-63 -49t-114 -20q-51 0 -92 13t-70 40t-45 67.5t-16 94.5z" horiz-adv-x="806" unicode="©"/><glyph d="M63 554q-1 5 -1.5 11t-0.5 13q0 52 48.5 82t154.5 30q57 0 95 -11t60.5 -29.5t31.5 -42.5t9 -51v-90q0 -28 17 -28q4 0 8 0.5t9 1.5l5 -96q-38 -11 -84 -11q-27 0 -44 6t-27 14.5t-13.5 18t-3.5 17.5h-6q-4 -5 -14 -14.5t-27.5 -18.5t-44 -16t-63.5 -7q-62 0 -96 23 t-34 67q0 24 11.5 44.5t40.5 36t78 25t124 11.5v17q0 34 -42 34q-26 0 -36.5 -7.5t-10.5 -18.5q0 -6 1 -9zM199 447q0 -22 38 -22q16 0 32 5.5t27 15.5v40q-29 -2 -48 -5.5t-30 -9t-15 -11.5t-4 -13zM78 275h390v-90h-390v90z" horiz-adv-x="540" unicode="ª"/><glyph d="M343 452l-157 -172v-10l157 -174h-176l-131 146v68l131 142h176zM615 452l-157 -172v-10l157 -174h-177l-131 146v68l131 142h177z" horiz-adv-x="658" unicode="«"/><glyph d="M370 273h-330v143h473v-309h-143v166z" horiz-adv-x="565" unicode="¬"/><glyph d="M48 348h344v-143h-344v143z" horiz-adv-x="440" unicode="­"/><glyph d="M253 291q-48 0 -88 16.5t-69 46t-45.5 69.5t-16.5 88t16.5 88t45.5 69t69 45.5t88 16.5q47 0 87.5 -16.5t70 -45.5t46 -69t16.5 -88t-16.5 -88t-46 -69.5t-70 -46t-87.5 -16.5zM253 340q37 0 68 12.5t53 35t34 54t12 69.5q0 37 -12 68.5t-34 54.5t-53 35.5t-68 12.5 q-38 0 -68.5 -12.5t-53 -35.5t-34.5 -54.5t-12 -68.5q0 -38 12 -69.5t34.5 -54t53 -35t68.5 -12.5zM156 632h92q61 0 85 -21t24 -56q0 -27 -12.5 -41t-28.5 -21q4 -5 12 -18t17 -26.5t17.5 -25t12.5 -14.5v-9h-81q-5 3 -10 12.5t-10.5 20.5t-12 23t-12.5 21h-17v-77h-76v232 zM249 525q30 0 30 25q0 12 -6.5 18t-23.5 6h-18v-49h18z" horiz-adv-x="507" unicode="®"/><glyph d="M120 715h393v-130h-393v130z" horiz-adv-x="633" unicode="¯"/><glyph d="M245 303q-50 0 -90 16t-68.5 43.5t-43.5 65t-15 80.5q0 44 15 82.5t43.5 67t68.5 45t90 16.5q51 0 91.5 -16.5t69.5 -45t44.5 -67t15.5 -82.5q0 -43 -15.5 -80.5t-44.5 -65t-69.5 -43.5t-91.5 -16zM247 449q32 0 49.5 18t17.5 43q0 24 -17.5 45t-49.5 21q-33 0 -48 -21 t-15 -45q0 -25 15 -43t48 -18z" horiz-adv-x="493" unicode="°"/><glyph d="M411 334v-91h-154v91h-159v143h159v107h154v-107h160v-143h-160zM98 56v143h473v-143h-473z" unicode="±"/><glyph d="M220 497q2 0 22 2.5t60 2.5h79v-102h-347v84l175 119q34 22 34 49q0 14 -9 26.5t-33 12.5q-19 0 -29 -11.5t-10 -30.5q0 -6 1 -11.5t1 -10.5l-132 -1q0 4 -1 11.5t-1 17.5q0 16 5.5 38t23.5 42.5t52.5 35t93.5 14.5q47 0 81.5 -10.5t57 -27.5t33 -40t10.5 -47 q0 -39 -23 -68t-66 -52l-42 -22q-14 -8 -24 -12t-14 -6z" horiz-adv-x="418" unicode="²"/><glyph d="M158 551v-5q0 -9 2 -18.5t7.5 -17t16.5 -12.5t29 -5q23 0 36.5 8.5t13.5 22.5q0 16 -12.5 21t-32.5 5h-35v89h34q17 0 28.5 4t11.5 18q0 27 -47 27q-32 0 -41 -13.5t-9 -26.5v-5h-123q-1 5 -1 17q0 17 6 38.5t25 41t54.5 32.5t93.5 13q38 0 71.5 -6t58 -18.5t38.5 -32 t14 -45.5q0 -20 -8 -35t-19 -25t-24.5 -15t-23.5 -6v-5q14 -1 29.5 -6t28 -15t21 -25.5t8.5 -37.5q0 -29 -14.5 -51t-40 -37t-61 -23t-76.5 -8q-64 0 -102.5 16t-59.5 38t-27.5 46t-6.5 40q0 6 0.5 10t0.5 6z" horiz-adv-x="435" unicode="³"/><glyph d="M133 570l56 130h214v-10l-94 -130h-176v10z" horiz-adv-x="621" unicode="´"/><glyph d="M52 490h213v-284q0 -37 11.5 -54.5t40.5 -17.5q23 0 38 10.5t23 23.5v322h213v-490h-158l-24 77h-7q-9 -15 -21.5 -30t-29 -28t-36 -21t-40.5 -8h-10v-190h-213v690z" horiz-adv-x="653" unicode="µ"/><glyph d="M30 488q0 65 20.5 109.5t56 71.5t84.5 39t106 12h127v-920h-129v457q-56 0 -104.5 12t-84 39t-56 71t-20.5 109zM536 720h129v-920h-129v920z" horiz-adv-x="731" unicode="¶"/><glyph d="M137 238q-42 0 -67.5 25.5t-25.5 64.5q0 40 25.5 65.5t67.5 25.5q40 0 65 -25.5t25 -65.5q0 -39 -25 -64.5t-65 -25.5z" horiz-adv-x="271" unicode="·"/><glyph d="M379 -31q16 -17 30 -44t14 -63q0 -53 -36 -87.5t-115 -34.5q-41 0 -70 9t-46 21l14 108q14 -10 29.5 -16t31.5 -6q20 0 29.5 11t9.5 23q0 23 -18 53z" horiz-adv-x="617" unicode="¸"/><glyph d="M97 611h-87v96q57 0 87 14.5t30 58.5h110v-380h-140v211z" horiz-adv-x="297" unicode="¹"/><glyph d="M39 511q0 39 13 72t40 57t69 37t100 13q57 0 99 -13t69 -37t40.5 -57t13.5 -72q0 -79 -54 -128.5t-168 -49.5q-58 0 -100 13t-69 36.5t-40 56.5t-13 72zM261 439q21 0 36 15t15 57t-15 57t-36 15q-22 0 -37 -15t-15 -57t15 -57t37 -15zM87 275h350v-90h-350v90z" horiz-adv-x="522" unicode="º"/><glyph d="M219 452l130 -142v-68l-130 -146h-177l157 174v10l-156 172h176zM491 452l131 -142v-68l-131 -146h-177l157 174v10l-157 172h177z" horiz-adv-x="658" unicode="»"/><glyph d="M121 10l482 680h134v-10l-481 -680h-135v10zM117 522h-87v96q57 0 87 14.5t30 58.5h110v-380h-140v211zM499 150l181 231h165v-222h60v-95h-60v-63h-143v63h-203v86zM706 157l3 114h-6l-79 -111v-3h82z" horiz-adv-x="936" unicode="¼"/><glyph d="M121 10l482 680h134v-10l-481 -680h-135v10zM117 522h-87v96q57 0 87 14.5t30 58.5h110v-380h-140v211zM731 98q2 0 22 2.5t60 2.5h79v-102h-347v84l175 119q34 22 34 49q0 14 -9 26.5t-33 12.5q-19 0 -29 -11.5t-10 -30.5q0 -6 1 -11.5t1 -10.5l-132 -1q0 4 -1 11.5 t-1 17.5q0 16 5.5 38t23.5 42.5t52.5 35t93.5 14.5q47 0 81.5 -10.5t57 -27.5t33 -40t10.5 -47q0 -39 -23 -68t-66 -52l-42 -22q-14 -8 -24 -12t-14 -6z" horiz-adv-x="935" unicode="½"/><glyph d="M233 10l482 680h134v-10l-481 -680h-135v10zM611 150l181 231h165v-222h60v-95h-60v-63h-143v63h-203v86zM818 157l3 114h-6l-79 -111v-3h82zM169 462v-5q0 -9 2 -18.5t7.5 -17t16.5 -12.5t29 -5q23 0 36.5 8.5t13.5 22.5q0 16 -12.5 21t-32.5 5h-35v89h34q17 0 28.5 4 t11.5 18q0 27 -47 27q-32 0 -41 -13.5t-9 -26.5v-5h-123q-1 5 -1 17q0 17 6 38.5t25 41t54.5 32.5t93.5 13q38 0 71.5 -6t58 -18.5t38.5 -32t14 -45.5q0 -20 -8 -35t-19 -25t-24.5 -15t-23.5 -6v-5q14 -1 29.5 -6t28 -15t21 -25.5t8.5 -37.5q0 -29 -14.5 -51t-40 -37 t-61 -23t-76.5 -8q-64 0 -102.5 16t-59.5 38t-27.5 46t-6.5 40q0 6 0.5 10t0.5 6z" horiz-adv-x="1047" unicode="¾"/><glyph d="M419 229q14 -42 14 -71q0 -38 -22 -58.5t-60 -35.5t-64.5 -29.5t-26.5 -41.5q0 -18 13 -30.5t43 -12.5q35 0 47 19t12 48v9l223 -1q2 -10 2 -26q0 -25 -7.5 -60.5t-36 -68.5t-85.5 -56.5t-155 -23.5q-65 0 -118 15t-90.5 42t-58 64.5t-20.5 82.5q0 48 19.5 79t47.5 51.5 t60 32t57 19.5q34 11 45 17.5t11 18.5q0 11 -2 17h152zM458 300h-227v190h227v-190z" horiz-adv-x="626" unicode="¿"/><glyph d="M246 690h280l247 -690h-229l-45 133h-227l-44 -133h-228zM466 278l-43 130q-11 31 -19 58.5t-13 51.5h-9q-5 -23 -12.5 -51.5t-16.5 -53.5l-47 -135h160zM209 870v10h214l56 -130v-10h-176z" horiz-adv-x="773" unicode="À"/><glyph d="M246 690h280l247 -690h-229l-45 133h-227l-44 -133h-228zM466 278l-43 130q-11 31 -19 58.5t-13 51.5h-9q-5 -23 -12.5 -51.5t-16.5 -53.5l-47 -135h160zM296 750l56 130h214v-10l-94 -130h-176v10z" horiz-adv-x="773" unicode="Á"/><glyph d="M246 690h280l247 -690h-229l-45 133h-227l-44 -133h-228zM466 278l-43 130q-11 31 -19 58.5t-13 51.5h-9q-5 -23 -12.5 -51.5t-16.5 -53.5l-47 -135h160zM125 750l111 130h300l112 -130v-10h-178l-80 83h-7l-81 -83h-177v10z" horiz-adv-x="773" unicode="Â"/><glyph d="M246 690h280l247 -690h-229l-45 133h-227l-44 -133h-228zM466 278l-43 130q-11 31 -19 58.5t-13 51.5h-9q-5 -23 -12.5 -51.5t-16.5 -53.5l-47 -135h160zM174 740q-1 94 31 132t90 38q21 0 39.5 -4.5t32.5 -11.5l59 -27q5 -2 12.5 -4.5t12.5 -2.5q15 0 22.5 11t8.5 30 h117q0 -47 -8.5 -79.5t-25 -53t-40.5 -29.5t-53 -9q-26 0 -45.5 5.5t-34.5 12.5l-43 19q-19 8 -29 8q-16 0 -22.5 -9.5t-8.5 -25.5h-115v0z" horiz-adv-x="773" unicode="Ã"/><glyph d="M246 690h280l247 -690h-229l-45 133h-227l-44 -133h-228zM466 278l-43 130q-11 31 -19 58.5t-13 51.5h-9q-5 -23 -12.5 -51.5t-16.5 -53.5l-47 -135h160zM442 880h211v-142h-211v142zM120 880h211v-142h-211v142z" horiz-adv-x="773" unicode="Ä"/><glyph d="M246 690h44q-20 17 -31.5 42.5t-11.5 55.5q0 27 10.5 51t29 41t44 27t56.5 10q30 0 55.5 -10t44 -27t29 -41t10.5 -51q0 -30 -12 -55.5t-32 -42.5h44l247 -690h-229l-45 133h-227l-44 -133h-228zM466 278l-43 130q-11 31 -19 58.5t-13 51.5h-9q-5 -23 -12.5 -51.5 t-16.5 -53.5l-47 -135h160zM387 739q23 0 36 13.5t13 35.5q0 21 -13 34t-36 13t-37.5 -13t-14.5 -34q0 -22 14.5 -35.5t37.5 -13.5z" horiz-adv-x="773" unicode="Å"/><glyph d="M467 133h-168l-54 -133h-257l320 690h726v-172h-347v-86h270v-168h-270v-89h347v-175h-567v133zM467 278v249h-10l-102 -249h112z" horiz-adv-x="1077" unicode="Æ"/><glyph d="M406 526q-65 0 -103.5 -49t-38.5 -134q0 -82 38 -130.5t104 -48.5q36 0 60 10.5t39 28t21.5 39t6.5 43.5v8l227 -1q2 -9 3 -19.5t1 -21.5q0 -70 -28 -119.5t-76 -81t-111.5 -46t-133.5 -14.5q-87 0 -158 22t-121.5 66.5t-77.5 110.5t-27 154q0 89 27 156t77.5 111.5 t121.5 67t158 22.5q112 0 181 -25.5t106.5 -64t50 -83.5t12.5 -84q0 -14 -1.5 -25t-3.5 -20l-227 -1v9q0 26 -7 48t-22 38t-39 25t-59 9zM437 -31q16 -17 30 -44t14 -63q0 -53 -36 -87.5t-115 -34.5q-41 0 -70 9t-46 21l14 108q14 -10 29.5 -16t31.5 -6q20 0 29.5 11t9.5 23 q0 23 -18 53z" horiz-adv-x="795" unicode="Ç"/><glyph d="M67 690h567v-172h-347v-86h270v-168h-270v-89h347v-175h-567v690zM186 870v10h214l56 -130v-10h-176z" horiz-adv-x="677" unicode="È"/><glyph d="M67 690h567v-172h-347v-86h270v-168h-270v-89h347v-175h-567v690zM254 750l56 130h214v-10l-94 -130h-176v10z" horiz-adv-x="677" unicode="É"/><glyph d="M67 690h567v-172h-347v-86h270v-168h-270v-89h347v-175h-567v690zM91 750l111 130h300l112 -130v-10h-178l-80 83h-7l-81 -83h-177v10z" horiz-adv-x="677" unicode="Ê"/><glyph d="M67 690h567v-172h-347v-86h270v-168h-270v-89h347v-175h-567v690zM408 880h211v-142h-211v142zM86 880h211v-142h-211v142z" horiz-adv-x="677" unicode="Ë"/><glyph d="M67 690h220v-690h-220v690zM8 870v10h214l56 -130v-10h-176z" horiz-adv-x="354" unicode="Ì"/><glyph d="M67 690h220v-690h-220v690zM78 750l56 130h214v-10l-94 -130h-176v10z" horiz-adv-x="354" unicode="Í"/><glyph d="M67 690h220v-690h-220v690zM-83 750l111 130h300l112 -130v-10h-178l-80 83h-7l-81 -83h-177v10z" horiz-adv-x="354" unicode="Î"/><glyph d="M67 690h220v-690h-220v690zM234 880h211v-142h-211v142zM-88 880h211v-142h-211v142z" horiz-adv-x="354" unicode="Ï"/><glyph d="M12 409h55v281h314q189 0 284 -83.5t95 -261.5t-95.5 -261.5t-283.5 -83.5h-314v279h-55v130zM368 173q46 0 77 12t49.5 34.5t26.5 54.5t8 73q0 40 -8 72.5t-26.5 55t-49.5 34.5t-77 12h-81v-112h118v-130h-118v-106h81z" horiz-adv-x="793" unicode="Ð"/><glyph d="M67 690h236l179 -302q18 -31 35.5 -64t30.5 -63h10q-5 35 -10.5 80.5t-5.5 86.5v262h222v-690h-234l-185 300q-17 27 -32.5 61t-31.5 71h-9q6 -42 10.5 -85t4.5 -88v-259h-220v690zM210 740q-1 94 31 132t90 38q21 0 39.5 -4.5t32.5 -11.5l59 -27q5 -2 12.5 -4.5 t12.5 -2.5q15 0 22.5 11t8.5 30h117q0 -47 -8.5 -79.5t-25 -53t-40.5 -29.5t-53 -9q-26 0 -45.5 5.5t-34.5 12.5l-43 19q-19 8 -29 8q-16 0 -22.5 -9.5t-8.5 -25.5h-115v0z" horiz-adv-x="831" unicode="Ñ"/><glyph d="M415 -10q-186 0 -285 92.5t-99 261.5q0 84 25.5 150.5t74 112t120 69.5t164.5 24q91 0 163 -24t121 -69.5t75 -112t26 -150.5t-26 -150t-75 -111t-121 -69t-163 -24zM415 164q70 0 111 43.5t41 136.5t-41 137.5t-111 44.5q-71 0 -111.5 -44.5t-40.5 -137.5t40.5 -136.5 t111.5 -43.5zM246 870v10h214l56 -130v-10h-176z" horiz-adv-x="830" unicode="Ò"/><glyph d="M415 -10q-186 0 -285 92.5t-99 261.5q0 84 25.5 150.5t74 112t120 69.5t164.5 24q91 0 163 -24t121 -69.5t75 -112t26 -150.5t-26 -150t-75 -111t-121 -69t-163 -24zM415 164q70 0 111 43.5t41 136.5t-41 137.5t-111 44.5q-71 0 -111.5 -44.5t-40.5 -137.5t40.5 -136.5 t111.5 -43.5zM305 750l56 130h214v-10l-94 -130h-176v10z" horiz-adv-x="830" unicode="Ó"/><glyph d="M415 -10q-186 0 -285 92.5t-99 261.5q0 84 25.5 150.5t74 112t120 69.5t164.5 24q91 0 163 -24t121 -69.5t75 -112t26 -150.5t-26 -150t-75 -111t-121 -69t-163 -24zM415 164q70 0 111 43.5t41 136.5t-41 137.5t-111 44.5q-71 0 -111.5 -44.5t-40.5 -137.5t40.5 -136.5 t111.5 -43.5zM154 750l111 130h300l112 -130v-10h-178l-80 83h-7l-81 -83h-177v10z" horiz-adv-x="830" unicode="Ô"/><glyph d="M415 -10q-186 0 -285 92.5t-99 261.5q0 84 25.5 150.5t74 112t120 69.5t164.5 24q91 0 163 -24t121 -69.5t75 -112t26 -150.5t-26 -150t-75 -111t-121 -69t-163 -24zM415 164q70 0 111 43.5t41 136.5t-41 137.5t-111 44.5q-71 0 -111.5 -44.5t-40.5 -137.5t40.5 -136.5 t111.5 -43.5zM196 740q-1 94 31 132t90 38q21 0 39.5 -4.5t32.5 -11.5l59 -27q5 -2 12.5 -4.5t12.5 -2.5q15 0 22.5 11t8.5 30h117q0 -47 -8.5 -79.5t-25 -53t-40.5 -29.5t-53 -9q-26 0 -45.5 5.5t-34.5 12.5l-43 19q-19 8 -29 8q-16 0 -22.5 -9.5t-8.5 -25.5h-115v0z" horiz-adv-x="830" unicode="Õ"/><glyph d="M415 -10q-186 0 -285 92.5t-99 261.5q0 84 25.5 150.5t74 112t120 69.5t164.5 24q91 0 163 -24t121 -69.5t75 -112t26 -150.5t-26 -150t-75 -111t-121 -69t-163 -24zM415 164q70 0 111 43.5t41 136.5t-41 137.5t-111 44.5q-71 0 -111.5 -44.5t-40.5 -137.5t40.5 -136.5 t111.5 -43.5zM473 880h211v-142h-211v142zM151 880h211v-142h-211v142z" horiz-adv-x="830" unicode="Ö"/><glyph d="M335 379l136 137l106 -106l-137 -136l136 -136l-105 -105l-136 135l-135 -135l-106 106l135 135l-135 136l105 105z" unicode="×"/><glyph d="M137 77q-52 46 -79 112.5t-27 154.5q0 84 25.5 150.5t74 112t120 69.5t164.5 24q113 0 197 -38l23 28h130l-67 -83q50 -46 76 -112t26 -151q0 -84 -26 -150t-75 -111t-121 -69t-163 -24q-112 0 -192 34l-19 -24h-130zM263 344q0 -56 15 -93l210 259q-34 16 -73 16 q-71 0 -111.5 -44.5t-40.5 -137.5zM415 164q70 0 111 43.5t41 136.5q0 25 -3.5 46.5t-9.5 39.5l-207 -254q30 -12 68 -12z" horiz-adv-x="830" unicode="Ø"/><glyph d="M60 690h220v-377q0 -84 29.5 -116.5t88.5 -32.5q58 0 88 32.5t30 116.5v377h220v-376q0 -88 -21.5 -149.5t-64 -100.5t-105.5 -56.5t-147 -17.5t-147.5 17.5t-105.5 56.5t-63.5 100.5t-21.5 149.5v376zM229 870v10h214l56 -130v-10h-176z" horiz-adv-x="796" unicode="Ù"/><glyph d="M60 690h220v-377q0 -84 29.5 -116.5t88.5 -32.5q58 0 88 32.5t30 116.5v377h220v-376q0 -88 -21.5 -149.5t-64 -100.5t-105.5 -56.5t-147 -17.5t-147.5 17.5t-105.5 56.5t-63.5 100.5t-21.5 149.5v376zM308 750l56 130h214v-10l-94 -130h-176v10z" horiz-adv-x="796" unicode="Ú"/><glyph d="M60 690h220v-377q0 -84 29.5 -116.5t88.5 -32.5q58 0 88 32.5t30 116.5v377h220v-376q0 -88 -21.5 -149.5t-64 -100.5t-105.5 -56.5t-147 -17.5t-147.5 17.5t-105.5 56.5t-63.5 100.5t-21.5 149.5v376zM136 750l111 130h300l112 -130v-10h-178l-80 83h-7l-81 -83h-177v10 z" horiz-adv-x="796" unicode="Û"/><glyph d="M60 690h220v-377q0 -84 29.5 -116.5t88.5 -32.5q58 0 88 32.5t30 116.5v377h220v-376q0 -88 -21.5 -149.5t-64 -100.5t-105.5 -56.5t-147 -17.5t-147.5 17.5t-105.5 56.5t-63.5 100.5t-21.5 149.5v376zM449 880h211v-142h-211v142zM127 880h211v-142h-211v142z" horiz-adv-x="796" unicode="Ü"/><glyph d="M256 252l-258 418v20h227l67 -118q19 -33 36.5 -69.5t31.5 -73.5h14q16 37 34 75t35 67l68 119h225v-20l-259 -418v-252h-221v252zM277 750l56 130h214v-10l-94 -130h-176v10z" horiz-adv-x="733" unicode="Ý"/><glyph d="M67 690h228v-91h77q79 0 134.5 -19.5t90.5 -53.5t50.5 -78.5t15.5 -95.5t-15.5 -96t-50.5 -78.5t-90.5 -53.5t-134.5 -20h-77v-104h-228v690zM357 252q49 0 74 26t25 72q0 39 -24.5 63.5t-72.5 24.5h-63v-186h61z" horiz-adv-x="677" unicode="Þ"/><glyph d="M51 492q0 48 15.5 91.5t50 76t89.5 51.5t133 19q143 0 217.5 -50t74.5 -141q0 -39 -13 -67.5t-34 -47t-47 -29t-51 -14.5v-6q32 -3 66 -14.5t62 -33t46 -54.5t18 -80q0 -59 -21.5 -98.5t-58 -62.5t-86.5 -32.5t-107 -9.5q-33 0 -50.5 2.5t-34.5 6.5l8 137q18 -3 37 -3 q88 0 88 84q0 41 -24 62t-84 21h-22v142h22q21 0 33 6.5t18 17.5t7.5 24.5t1.5 27.5q0 33 -20.5 50.5t-55.5 17.5q-32 0 -49 -23.5t-17 -62.5v-500h-212v492z" horiz-adv-x="699" unicode="ß"/><glyph d="M47 306q-3 16 -3 35q0 73 63.5 116t200.5 43q75 0 124 -15.5t78 -41.5t41 -60.5t12 -71.5v-142q0 -37 22 -37q11 0 23 3l7 -130q-23 -7 -51 -11t-57 -4q-35 0 -56.5 7.5t-34 18.5t-17 24t-5.5 25h-7q-25 -30 -69.5 -52.5t-120.5 -22.5q-81 0 -129.5 33t-48.5 96 q0 37 15.5 66.5t54 50.5t103.5 33.5t164 15.5v28q0 53 -61 53q-36 0 -51.5 -11.5t-15.5 -29.5q0 -5 2 -15zM218 151q0 -37 53 -37q23 0 46 9.5t39 25.5v61q-42 -2 -68.5 -7.5t-42 -13.5t-21.5 -18t-6 -20zM147 690v10h214l56 -130v-10h-176z" horiz-adv-x="625" unicode="à"/><glyph d="M47 306q-3 16 -3 35q0 73 63.5 116t200.5 43q75 0 124 -15.5t78 -41.5t41 -60.5t12 -71.5v-142q0 -37 22 -37q11 0 23 3l7 -130q-23 -7 -51 -11t-57 -4q-35 0 -56.5 7.5t-34 18.5t-17 24t-5.5 25h-7q-25 -30 -69.5 -52.5t-120.5 -22.5q-81 0 -129.5 33t-48.5 96 q0 37 15.5 66.5t54 50.5t103.5 33.5t164 15.5v28q0 53 -61 53q-36 0 -51.5 -11.5t-15.5 -29.5q0 -5 2 -15zM218 151q0 -37 53 -37q23 0 46 9.5t39 25.5v61q-42 -2 -68.5 -7.5t-42 -13.5t-21.5 -18t-6 -20zM205 570l56 130h214v-10l-94 -130h-176v10z" horiz-adv-x="625" unicode="á"/><glyph d="M47 306q-3 16 -3 35q0 73 63.5 116t200.5 43q75 0 124 -15.5t78 -41.5t41 -60.5t12 -71.5v-142q0 -37 22 -37q11 0 23 3l7 -130q-23 -7 -51 -11t-57 -4q-35 0 -56.5 7.5t-34 18.5t-17 24t-5.5 25h-7q-25 -30 -69.5 -52.5t-120.5 -22.5q-81 0 -129.5 33t-48.5 96 q0 37 15.5 66.5t54 50.5t103.5 33.5t164 15.5v28q0 53 -61 53q-36 0 -51.5 -11.5t-15.5 -29.5q0 -5 2 -15zM218 151q0 -37 53 -37q23 0 46 9.5t39 25.5v61q-42 -2 -68.5 -7.5t-42 -13.5t-21.5 -18t-6 -20zM80 571l91 130h260l92 -130v-10h-158l-60 63h-7l-61 -63h-157v10z" horiz-adv-x="625" unicode="â"/><glyph d="M47 306q-3 16 -3 35q0 73 63.5 116t200.5 43q75 0 124 -15.5t78 -41.5t41 -60.5t12 -71.5v-142q0 -37 22 -37q11 0 23 3l7 -130q-23 -7 -51 -11t-57 -4q-35 0 -56.5 7.5t-34 18.5t-17 24t-5.5 25h-7q-25 -30 -69.5 -52.5t-120.5 -22.5q-81 0 -129.5 33t-48.5 96 q0 37 15.5 66.5t54 50.5t103.5 33.5t164 15.5v28q0 53 -61 53q-36 0 -51.5 -11.5t-15.5 -29.5q0 -5 2 -15zM218 151q0 -37 53 -37q23 0 46 9.5t39 25.5v61q-42 -2 -68.5 -7.5t-42 -13.5t-21.5 -18t-6 -20zM103 551q-1 94 31 132t90 38q21 0 39.5 -4.5t32.5 -11.5l59 -27 q5 -2 12.5 -4.5t12.5 -2.5q15 0 22.5 11t8.5 30h117q0 -47 -8.5 -79.5t-25 -53t-40.5 -29.5t-53 -9q-26 0 -45.5 5.5t-34.5 12.5l-43 19q-19 8 -29 8q-16 0 -22.5 -9.5t-8.5 -25.5h-115v0z" horiz-adv-x="625" unicode="ã"/><glyph d="M47 306q-3 16 -3 35q0 73 63.5 116t200.5 43q75 0 124 -15.5t78 -41.5t41 -60.5t12 -71.5v-142q0 -37 22 -37q11 0 23 3l7 -130q-23 -7 -51 -11t-57 -4q-35 0 -56.5 7.5t-34 18.5t-17 24t-5.5 25h-7q-25 -30 -69.5 -52.5t-120.5 -22.5q-81 0 -129.5 33t-48.5 96 q0 37 15.5 66.5t54 50.5t103.5 33.5t164 15.5v28q0 53 -61 53q-36 0 -51.5 -11.5t-15.5 -29.5q0 -5 2 -15zM218 151q0 -37 53 -37q23 0 46 9.5t39 25.5v61q-42 -2 -68.5 -7.5t-42 -13.5t-21.5 -18t-6 -20zM367 701h181v-142h-181v142zM95 701h181v-142h-181v142z" horiz-adv-x="625" unicode="ä"/><glyph d="M47 306q-3 16 -3 35q0 73 63.5 116t200.5 43q75 0 124 -15.5t78 -41.5t41 -60.5t12 -71.5v-142q0 -37 22 -37q11 0 23 3l7 -130q-23 -7 -51 -11t-57 -4q-35 0 -56.5 7.5t-34 18.5t-17 24t-5.5 25h-7q-25 -30 -69.5 -52.5t-120.5 -22.5q-81 0 -129.5 33t-48.5 96 q0 37 15.5 66.5t54 50.5t103.5 33.5t164 15.5v28q0 53 -61 53q-36 0 -51.5 -11.5t-15.5 -29.5q0 -5 2 -15zM218 151q0 -37 53 -37q23 0 46 9.5t39 25.5v61q-42 -2 -68.5 -7.5t-42 -13.5t-21.5 -18t-6 -20zM316 549q-31 0 -56.5 10t-44 27t-29 41t-10.5 53q0 27 10.5 51 t29 41t44 27t56.5 10q30 0 55.5 -10t44 -27t29 -41t10.5 -51q0 -29 -10.5 -53t-29 -41t-44 -27t-55.5 -10zM316 631q23 0 36 13.5t13 35.5q0 21 -13 34t-36 13t-37.5 -13t-14.5 -34q0 -22 14.5 -35.5t37.5 -13.5z" horiz-adv-x="625" unicode="å"/><glyph d="M47 306q-3 16 -3 35q0 73 63.5 116t200.5 43q63 0 102 -14.5t66 -37.5q28 21 68.5 36.5t92.5 15.5q66 0 115.5 -14t83.5 -39.5t51 -61.5t17 -79q0 -19 -2 -42.5t-5 -41.5h-344q0 -53 23 -74t57 -21q37 0 53.5 14t16.5 32v7q49 0 97 -0.5t97 -0.5q2 -5 2.5 -11.5 t0.5 -11.5q0 -25 -9.5 -54t-38 -54t-81.5 -41.5t-139 -16.5q-40 0 -70 5t-53.5 15.5t-42 25t-35.5 34.5h-4q-15 -12 -35 -26t-47 -26t-62 -20t-81 -8q-90 0 -136.5 33t-46.5 96q0 34 15 63.5t52.5 51t101.5 35t163 16.5v28q0 26 -12 39.5t-44 13.5q-36 0 -51.5 -11.5 t-15.5 -29.5q0 -5 2 -15zM218 151q0 -37 53 -37q23 0 43.5 9.5t36.5 25.5v61q-42 -2 -68 -7.5t-40.5 -13.5t-19.5 -18t-5 -20zM716 312v8q0 35 -20 51t-57 16q-35 0 -55.5 -19.5t-24.5 -55.5h157z" horiz-adv-x="928" unicode="æ"/><glyph d="M23 244q0 52 17 98.5t53 81.5t92 55.5t133 20.5q90 0 142 -20t78.5 -48.5t33.5 -60t7 -54.5q0 -16 -4 -35l-209 -1q1 4 1 7.5v5.5q0 8 -2.5 18.5t-9 20.5t-17.5 16.5t-29 6.5q-15 0 -27.5 -5t-22 -18t-15 -34.5t-5.5 -54.5q0 -57 19 -84t51 -27q18 0 29 6.5t17.5 16t9 20 t2.5 18.5q0 9 -1 14h209q2 -11 3 -20t1 -16q0 -21 -7 -52.5t-33.5 -60t-78.5 -49t-142 -20.5q-148 0 -221.5 66.5t-73.5 187.5zM374 -31q16 -17 30 -44t14 -63q0 -53 -36 -87.5t-115 -34.5q-41 0 -70 9t-46 21l14 108q14 -10 29.5 -16t31.5 -6q20 0 29.5 11t9.5 23 q0 23 -18 53z" horiz-adv-x="604" unicode="ç"/><glyph d="M23 243q0 53 16 100t51.5 82t91 55t134.5 20q66 0 115.5 -14t83.5 -39.5t51 -61.5t17 -79q0 -19 -2 -40t-5 -39h-349q0 -53 25.5 -76.5t59.5 -23.5q37 0 53.5 11.5t16.5 29.5v7l194 -1q2 -5 2.5 -11.5t0.5 -11.5q0 -25 -9.5 -53.5t-38 -52.5t-81.5 -39.5t-139 -15.5 q-146 0 -217 66t-71 187zM395 312v8q0 35 -20 51t-57 16q-35 0 -58 -19.5t-27 -55.5h162zM155 690v10h214l56 -130v-10h-176z" horiz-adv-x="608" unicode="è"/><glyph d="M23 243q0 53 16 100t51.5 82t91 55t134.5 20q66 0 115.5 -14t83.5 -39.5t51 -61.5t17 -79q0 -19 -2 -40t-5 -39h-349q0 -53 25.5 -76.5t59.5 -23.5q37 0 53.5 11.5t16.5 29.5v7l194 -1q2 -5 2.5 -11.5t0.5 -11.5q0 -25 -9.5 -53.5t-38 -52.5t-81.5 -39.5t-139 -15.5 q-146 0 -217 66t-71 187zM395 312v8q0 35 -20 51t-57 16q-35 0 -58 -19.5t-27 -55.5h162zM215 570l56 130h214v-10l-94 -130h-176v10z" horiz-adv-x="608" unicode="é"/><glyph d="M23 243q0 53 16 100t51.5 82t91 55t134.5 20q66 0 115.5 -14t83.5 -39.5t51 -61.5t17 -79q0 -19 -2 -40t-5 -39h-349q0 -53 25.5 -76.5t59.5 -23.5q37 0 53.5 11.5t16.5 29.5v7l194 -1q2 -5 2.5 -11.5t0.5 -11.5q0 -25 -9.5 -53.5t-38 -52.5t-81.5 -39.5t-139 -15.5 q-146 0 -217 66t-71 187zM395 312v8q0 35 -20 51t-57 16q-35 0 -58 -19.5t-27 -55.5h162zM99 571l91 130h260l92 -130v-10h-158l-60 63h-7l-61 -63h-157v10z" horiz-adv-x="608" unicode="ê"/><glyph d="M23 243q0 53 16 100t51.5 82t91 55t134.5 20q66 0 115.5 -14t83.5 -39.5t51 -61.5t17 -79q0 -19 -2 -40t-5 -39h-349q0 -53 25.5 -76.5t59.5 -23.5q37 0 53.5 11.5t16.5 29.5v7l194 -1q2 -5 2.5 -11.5t0.5 -11.5q0 -25 -9.5 -53.5t-38 -52.5t-81.5 -39.5t-139 -15.5 q-146 0 -217 66t-71 187zM395 312v8q0 35 -20 51t-57 16q-35 0 -58 -19.5t-27 -55.5h162zM363 701h181v-142h-181v142zM91 701h181v-142h-181v142z" horiz-adv-x="608" unicode="ë"/><glyph d="M-11 690v10h214l56 -130v-10h-176zM51 490h213v-490h-213v490z" horiz-adv-x="315" unicode="ì"/><glyph d="M69 570l56 130h214v-10l-94 -130h-176v10zM51 490h213v-490h-213v490z" horiz-adv-x="315" unicode="í"/><glyph d="M51 490h213v-490h-213v490zM-64 571l91 130h260l92 -130v-10h-158l-60 63h-7l-61 -63h-157v10z" horiz-adv-x="315" unicode="î"/><glyph d="M51 490h213v-490h-213v490zM202 701h181v-142h-181v142zM-70 701h181v-142h-181v142z" horiz-adv-x="315" unicode="ï"/><glyph d="M213 535l63 43q-26 17 -55.5 31.5t-61.5 26.5l181 94q48 -15 94 -44l67 46l79 -48l-77 -51q52 -50 85.5 -119.5t33.5 -157.5q0 -85 -20.5 -152.5t-60.5 -115t-99.5 -73t-136.5 -25.5q-64 0 -115.5 16t-88 47.5t-56 78.5t-19.5 110q0 44 14 80.5t40 62.5t64.5 40.5 t86.5 14.5q29 0 54 -7t44.5 -17t33.5 -21t21 -18h9q1 5 1.5 11t0.5 13q0 34 -14 64.5t-40 58.5l-55 -37zM372 227q0 33 -16 51.5t-45 18.5t-45.5 -18.5t-16.5 -52.5q0 -38 17.5 -56t44.5 -18q61 0 61 75z" horiz-adv-x="649" unicode="ð"/><glyph d="M51 490h158l24 -77h7q9 15 22 30t32 28t43.5 21t55.5 8q43 0 79 -11t62 -35t40.5 -62t14.5 -92v-300h-212v284q0 37 -11.5 54.5t-40.5 17.5q-23 0 -38 -10.5t-23 -23.5v-322h-213v490zM107 560q-1 94 31 132t90 38q21 0 39.5 -4.5t32.5 -11.5l59 -27q5 -2 12.5 -4.5 t12.5 -2.5q15 0 22.5 11t8.5 30h117q0 -47 -8.5 -79.5t-25 -53t-40.5 -29.5t-53 -9q-26 0 -45.5 5.5t-34.5 12.5l-43 19q-19 8 -29 8q-16 0 -22.5 -9.5t-8.5 -25.5h-115v0z" horiz-adv-x="635" unicode="ñ"/><glyph d="M23 244q0 57 17 104t53 80.5t90.5 52.5t129.5 19q74 0 128.5 -19t90.5 -52.5t53.5 -80.5t17.5 -104q0 -56 -17.5 -103t-53.5 -80.5t-90.5 -52t-128.5 -18.5q-75 0 -129.5 18.5t-90.5 52t-53 80.5t-17 103zM313 133q32 0 53 24t21 87q0 32 -5.5 53.5t-15.5 34.5 t-23.5 18.5t-29.5 5.5t-30 -5.5t-24 -18.5t-16 -34.5t-6 -53.5q0 -63 22 -87t54 -24zM146 690v10h214l56 -130v-10h-176z" horiz-adv-x="626" unicode="ò"/><glyph d="M23 244q0 57 17 104t53 80.5t90.5 52.5t129.5 19q74 0 128.5 -19t90.5 -52.5t53.5 -80.5t17.5 -104q0 -56 -17.5 -103t-53.5 -80.5t-90.5 -52t-128.5 -18.5q-75 0 -129.5 18.5t-90.5 52t-53 80.5t-17 103zM313 133q32 0 53 24t21 87q0 32 -5.5 53.5t-15.5 34.5 t-23.5 18.5t-29.5 5.5t-30 -5.5t-24 -18.5t-16 -34.5t-6 -53.5q0 -63 22 -87t54 -24zM222 570l56 130h214v-10l-94 -130h-176v10z" horiz-adv-x="626" unicode="ó"/><glyph d="M23 244q0 57 17 104t53 80.5t90.5 52.5t129.5 19q74 0 128.5 -19t90.5 -52.5t53.5 -80.5t17.5 -104q0 -56 -17.5 -103t-53.5 -80.5t-90.5 -52t-128.5 -18.5q-75 0 -129.5 18.5t-90.5 52t-53 80.5t-17 103zM313 133q32 0 53 24t21 87q0 32 -5.5 53.5t-15.5 34.5 t-23.5 18.5t-29.5 5.5t-30 -5.5t-24 -18.5t-16 -34.5t-6 -53.5q0 -63 22 -87t54 -24zM89 571l91 130h260l92 -130v-10h-158l-60 63h-7l-61 -63h-157v10z" horiz-adv-x="626" unicode="ô"/><glyph d="M23 244q0 57 17 104t53 80.5t90.5 52.5t129.5 19q74 0 128.5 -19t90.5 -52.5t53.5 -80.5t17.5 -104q0 -56 -17.5 -103t-53.5 -80.5t-90.5 -52t-128.5 -18.5q-75 0 -129.5 18.5t-90.5 52t-53 80.5t-17 103zM313 133q32 0 53 24t21 87q0 32 -5.5 53.5t-15.5 34.5 t-23.5 18.5t-29.5 5.5t-30 -5.5t-24 -18.5t-16 -34.5t-6 -53.5q0 -63 22 -87t54 -24zM101 560q-1 94 31 132t90 38q21 0 39.5 -4.5t32.5 -11.5l59 -27q5 -2 12.5 -4.5t12.5 -2.5q15 0 22.5 11t8.5 30h117q0 -47 -8.5 -79.5t-25 -53t-40.5 -29.5t-53 -9q-26 0 -45.5 5.5 t-34.5 12.5l-43 19q-19 8 -29 8q-16 0 -22.5 -9.5t-8.5 -25.5h-115v0z" horiz-adv-x="626" unicode="õ"/><glyph d="M23 244q0 57 17 104t53 80.5t90.5 52.5t129.5 19q74 0 128.5 -19t90.5 -52.5t53.5 -80.5t17.5 -104q0 -56 -17.5 -103t-53.5 -80.5t-90.5 -52t-128.5 -18.5q-75 0 -129.5 18.5t-90.5 52t-53 80.5t-17 103zM313 133q32 0 53 24t21 87q0 32 -5.5 53.5t-15.5 34.5 t-23.5 18.5t-29.5 5.5t-30 -5.5t-24 -18.5t-16 -34.5t-6 -53.5q0 -63 22 -87t54 -24zM357 701h181v-142h-181v142zM85 701h181v-142h-181v142z" horiz-adv-x="626" unicode="ö"/><glyph d="M99 203v143h473v-143h-473zM251 73q0 18 6.5 33.5t17.5 27t26.5 18t32.5 6.5q35 0 60 -25t25 -60q0 -17 -6.5 -32.5t-18 -26.5t-27 -17.5t-33.5 -6.5q-35 0 -59 24t-24 59zM251 474q0 18 6.5 33.5t17.5 27t26.5 18t32.5 6.5q35 0 60 -25t25 -60q0 -17 -6.5 -32.5 t-18 -26.5t-27 -17.5t-33.5 -6.5q-35 0 -59 24t-24 59z" unicode="÷"/><glyph d="M85 68q-32 33 -47 77.5t-15 98.5q0 57 17 104t53 80.5t90.5 52.5t129.5 19q89 0 153 -28l27 28h130l-79 -84q30 -33 44.5 -76.5t14.5 -95.5q0 -56 -17.5 -103t-53.5 -80.5t-90.5 -52t-128.5 -18.5q-86 0 -148 25l-23 -25h-130zM233 225l120 126q-17 11 -40 11 q-35 0 -57.5 -25.5t-22.5 -92.5v-19zM313 127q28 0 49 18t27 65q1 9 1.5 20t0.5 24l-113 -120q14 -7 35 -7z" horiz-adv-x="626" unicode="ø"/><glyph d="M585 0h-158l-24 77h-7q-9 -15 -22 -30t-32 -28t-43.5 -21t-55.5 -8q-43 0 -79 11t-62.5 35t-41 62t-14.5 92v300h213v-284q0 -37 11.5 -54.5t40.5 -17.5q23 0 38 10.5t23 23.5v322h213v-490zM145 690v10h214l56 -130v-10h-176z" horiz-adv-x="636" unicode="ù"/><glyph d="M585 0h-158l-24 77h-7q-9 -15 -22 -30t-32 -28t-43.5 -21t-55.5 -8q-43 0 -79 11t-62.5 35t-41 62t-14.5 92v300h213v-284q0 -37 11.5 -54.5t40.5 -17.5q23 0 38 10.5t23 23.5v322h213v-490zM231 570l56 130h214v-10l-94 -130h-176v10z" horiz-adv-x="636" unicode="ú"/><glyph d="M585 0h-158l-24 77h-7q-9 -15 -22 -30t-32 -28t-43.5 -21t-55.5 -8q-43 0 -79 11t-62.5 35t-41 62t-14.5 92v300h213v-284q0 -37 11.5 -54.5t40.5 -17.5q23 0 38 10.5t23 23.5v322h213v-490zM93 571l91 130h260l92 -130v-10h-158l-60 63h-7l-61 -63h-157v10z" horiz-adv-x="636" unicode="û"/><glyph d="M585 0h-158l-24 77h-7q-9 -15 -22 -30t-32 -28t-43.5 -21t-55.5 -8q-43 0 -79 11t-62.5 35t-41 62t-14.5 92v300h213v-284q0 -37 11.5 -54.5t40.5 -17.5q23 0 38 10.5t23 23.5v322h213v-490zM363 701h181v-142h-181v142zM91 701h181v-142h-181v142z" horiz-adv-x="636" unicode="ü"/><glyph d="M52 -55q21 -5 47 -8.5t46 -3.5q30 0 45.5 9.5t20.5 29.5l8 30l-219 471v17h215l68 -211q8 -24 15 -52.5t12 -53.5h12q5 24 11 53t12 53l52 211h212v-19l-193 -518q-17 -45 -37 -76t-47 -50.5t-62.5 -28t-84.5 -8.5q-40 0 -77.5 4t-69.5 9zM214 570l56 130h214v-10 l-94 -130h-176v10z" horiz-adv-x="612" unicode="ý"/><glyph d="M51 720h213v-273h6q17 21 49 37t86 16q38 0 77 -12t70.5 -41t51.5 -78.5t20 -124.5t-20.5 -124.5t-52.5 -78t-70.5 -40t-75.5 -11.5q-49 0 -83 18.5t-52 41.5h-6v-250h-213v920zM264 167q8 -14 26 -24t36 -10q15 0 30 5t26.5 17t18.5 33.5t7 54.5t-7 55t-18.5 34.5 t-26 18t-30.5 5.5q-20 0 -37 -9t-25 -23v-157z" horiz-adv-x="649" unicode="þ"/><glyph d="M52 -55q21 -5 47 -8.5t46 -3.5q30 0 45.5 9.5t20.5 29.5l8 30l-219 471v17h215l68 -211q8 -24 15 -52.5t12 -53.5h12q5 24 11 53t12 53l52 211h212v-19l-193 -518q-17 -45 -37 -76t-47 -50.5t-62.5 -28t-84.5 -8.5q-40 0 -77.5 4t-69.5 9zM357 701h181v-142h-181v142z M85 701h181v-142h-181v142z" horiz-adv-x="612" unicode="ÿ"/><glyph d="M246 690h280l247 -690h-229l-45 133h-227l-44 -133h-228zM466 278l-43 130q-11 31 -19 58.5t-13 51.5h-9q-5 -23 -12.5 -51.5t-16.5 -53.5l-47 -135h160zM190 875h393v-130h-393v130z" horiz-adv-x="773" unicode="Ā"/><glyph d="M47 306q-3 16 -3 35q0 73 63.5 116t200.5 43q75 0 124 -15.5t78 -41.5t41 -60.5t12 -71.5v-142q0 -37 22 -37q11 0 23 3l7 -130q-23 -7 -51 -11t-57 -4q-35 0 -56.5 7.5t-34 18.5t-17 24t-5.5 25h-7q-25 -30 -69.5 -52.5t-120.5 -22.5q-81 0 -129.5 33t-48.5 96 q0 37 15.5 66.5t54 50.5t103.5 33.5t164 15.5v28q0 53 -61 53q-36 0 -51.5 -11.5t-15.5 -29.5q0 -5 2 -15zM218 151q0 -37 53 -37q23 0 46 9.5t39 25.5v61q-42 -2 -68.5 -7.5t-42 -13.5t-21.5 -18t-6 -20zM120 696h393v-130h-393v130z" horiz-adv-x="625" unicode="ā"/><glyph d="M246 690h280l247 -690h-229l-45 133h-227l-44 -133h-228zM466 278l-43 130q-11 31 -19 58.5t-13 51.5h-9q-5 -23 -12.5 -51.5t-16.5 -53.5l-47 -135h160zM386 730q-45 0 -83.5 11.5t-67.5 35.5t-47 61t-21 87h132q10 -28 29.5 -43t57.5 -15q41 0 59.5 15t27.5 43h133 q-3 -50 -21 -87t-47.5 -61t-68 -35.5t-83.5 -11.5z" horiz-adv-x="773" unicode="Ă"/><glyph d="M47 306q-3 16 -3 35q0 73 63.5 116t200.5 43q75 0 124 -15.5t78 -41.5t41 -60.5t12 -71.5v-142q0 -37 22 -37q11 0 23 3l7 -130q-23 -7 -51 -11t-57 -4q-35 0 -56.5 7.5t-34 18.5t-17 24t-5.5 25h-7q-25 -30 -69.5 -52.5t-120.5 -22.5q-81 0 -129.5 33t-48.5 96 q0 37 15.5 66.5t54 50.5t103.5 33.5t164 15.5v28q0 53 -61 53q-36 0 -51.5 -11.5t-15.5 -29.5q0 -5 2 -15zM218 151q0 -37 53 -37q23 0 46 9.5t39 25.5v61q-42 -2 -68.5 -7.5t-42 -13.5t-21.5 -18t-6 -20zM314 551q-45 0 -82 10t-64 32t-43.5 57.5t-19.5 85.5h112 q2 -43 30.5 -60.5t66.5 -17.5q41 0 68 17.5t29 60.5h113q-3 -50 -19.5 -85.5t-44 -57.5t-64.5 -32t-82 -10z" horiz-adv-x="625" unicode="ă"/><glyph d="M461 -144q0 39 28 70.5t94 62.5l25 11h-64l-45 133h-227l-44 -133h-228l246 690h280l247 -690l-95 -54q-15 -8 -24 -18.5t-9 -24.5t9.5 -19.5t22.5 -5.5q23 0 50 13t52 34l7 -131q-9 -6 -27 -12.5t-41 -12t-50.5 -9t-55.5 -3.5q-66 0 -108.5 23t-42.5 76zM466 278 l-43 130q-11 31 -19 58.5t-13 51.5h-9q-5 -23 -12.5 -51.5t-16.5 -53.5l-47 -135h160z" horiz-adv-x="773" unicode="Ą"/><glyph d="M303 -139q0 39 28 70.5t94 62.5l16 7q-28 11 -37 29t-10 35h-7q-25 -30 -69.5 -52.5t-120.5 -22.5q-81 0 -129.5 33t-48.5 96q0 37 15.5 66.5t54 50.5t103.5 33.5t164 15.5v28q0 53 -61 53q-36 0 -51.5 -11.5t-15.5 -29.5q0 -5 2 -15l-183 -4q-3 16 -3 35q0 73 63.5 116 t200.5 43q75 0 124 -15.5t78 -41.5t41 -60.5t12 -71.5v-142q0 -37 22 -37q11 0 23 3l7 -130l-95 -54q-15 -8 -24 -18.5t-9 -24.5t9.5 -19.5t22.5 -5.5q23 0 50 13t52 34l7 -131q-9 -6 -27 -12.5t-41 -12t-50.5 -9t-55.5 -3.5q-66 0 -108.5 23t-42.5 76zM218 151 q0 -37 53 -37q23 0 46 9.5t39 25.5v61q-42 -2 -68.5 -7.5t-42 -13.5t-21.5 -18t-6 -20z" horiz-adv-x="625" unicode="ą"/><glyph d="M406 526q-65 0 -103.5 -49t-38.5 -134q0 -82 38 -130.5t104 -48.5q36 0 60 10.5t39 28t21.5 39t6.5 43.5v8l227 -1q2 -9 3 -19.5t1 -21.5q0 -70 -28 -119.5t-76 -81t-111.5 -46t-133.5 -14.5q-87 0 -158 22t-121.5 66.5t-77.5 110.5t-27 154q0 89 27 156t77.5 111.5 t121.5 67t158 22.5q112 0 181 -25.5t106.5 -64t50 -83.5t12.5 -84q0 -14 -1.5 -25t-3.5 -20l-227 -1v9q0 26 -7 48t-22 38t-39 25t-59 9zM327 750l56 130h214v-10l-94 -130h-176v10z" horiz-adv-x="795" unicode="Ć"/><glyph d="M23 244q0 52 17 98.5t53 81.5t92 55.5t133 20.5q90 0 142 -20t78.5 -48.5t33.5 -60t7 -54.5q0 -16 -4 -35l-209 -1q1 4 1 7.5v5.5q0 8 -2.5 18.5t-9 20.5t-17.5 16.5t-29 6.5q-15 0 -27.5 -5t-22 -18t-15 -34.5t-5.5 -54.5q0 -57 19 -84t51 -27q18 0 29 6.5t17.5 16t9 20 t2.5 18.5q0 9 -1 14h209q2 -11 3 -20t1 -16q0 -21 -7 -52.5t-33.5 -60t-78.5 -49t-142 -20.5q-148 0 -221.5 66.5t-73.5 187.5zM223 570l56 130h214v-10l-94 -130h-176v10z" horiz-adv-x="604" unicode="ć"/><glyph d="M406 526q-65 0 -103.5 -49t-38.5 -134q0 -82 38 -130.5t104 -48.5q36 0 60 10.5t39 28t21.5 39t6.5 43.5v8l227 -1q2 -9 3 -19.5t1 -21.5q0 -70 -28 -119.5t-76 -81t-111.5 -46t-133.5 -14.5q-87 0 -158 22t-121.5 66.5t-77.5 110.5t-27 154q0 89 27 156t77.5 111.5 t121.5 67t158 22.5q112 0 181 -25.5t106.5 -64t50 -83.5t12.5 -84q0 -14 -1.5 -25t-3.5 -20l-227 -1v9q0 26 -7 48t-22 38t-39 25t-59 9zM156 750l111 130h300l112 -130v-10h-178l-80 83h-7l-81 -83h-177v10z" horiz-adv-x="795" unicode="Ĉ"/><glyph d="M23 244q0 52 17 98.5t53 81.5t92 55.5t133 20.5q90 0 142 -20t78.5 -48.5t33.5 -60t7 -54.5q0 -16 -4 -35l-209 -1q1 4 1 7.5v5.5q0 8 -2.5 18.5t-9 20.5t-17.5 16.5t-29 6.5q-15 0 -27.5 -5t-22 -18t-15 -34.5t-5.5 -54.5q0 -57 19 -84t51 -27q18 0 29 6.5t17.5 16t9 20 t2.5 18.5q0 9 -1 14h209q2 -11 3 -20t1 -16q0 -21 -7 -52.5t-33.5 -60t-78.5 -49t-142 -20.5q-148 0 -221.5 66.5t-73.5 187.5zM92 571l91 130h260l92 -130v-10h-158l-60 63h-7l-61 -63h-157v10z" horiz-adv-x="604" unicode="ĉ"/><glyph d="M406 526q-65 0 -103.5 -49t-38.5 -134q0 -82 38 -130.5t104 -48.5q36 0 60 10.5t39 28t21.5 39t6.5 43.5v8l227 -1q2 -9 3 -19.5t1 -21.5q0 -70 -28 -119.5t-76 -81t-111.5 -46t-133.5 -14.5q-87 0 -158 22t-121.5 66.5t-77.5 110.5t-27 154q0 89 27 156t77.5 111.5 t121.5 67t158 22.5q112 0 181 -25.5t106.5 -64t50 -83.5t12.5 -84q0 -14 -1.5 -25t-3.5 -20l-227 -1v9q0 26 -7 48t-22 38t-39 25t-59 9zM312 880h211v-142h-211v142z" horiz-adv-x="795" unicode="Ċ"/><glyph d="M23 244q0 52 17 98.5t53 81.5t92 55.5t133 20.5q90 0 142 -20t78.5 -48.5t33.5 -60t7 -54.5q0 -16 -4 -35l-209 -1q1 4 1 7.5v5.5q0 8 -2.5 18.5t-9 20.5t-17.5 16.5t-29 6.5q-15 0 -27.5 -5t-22 -18t-15 -34.5t-5.5 -54.5q0 -57 19 -84t51 -27q18 0 29 6.5t17.5 16t9 20 t2.5 18.5q0 9 -1 14h209q2 -11 3 -20t1 -16q0 -21 -7 -52.5t-33.5 -60t-78.5 -49t-142 -20.5q-148 0 -221.5 66.5t-73.5 187.5zM210 700h211v-142h-211v142z" horiz-adv-x="604" unicode="ċ"/><glyph d="M406 526q-65 0 -103.5 -49t-38.5 -134q0 -82 38 -130.5t104 -48.5q36 0 60 10.5t39 28t21.5 39t6.5 43.5v8l227 -1q2 -9 3 -19.5t1 -21.5q0 -70 -28 -119.5t-76 -81t-111.5 -46t-133.5 -14.5q-87 0 -158 22t-121.5 66.5t-77.5 110.5t-27 154q0 89 27 156t77.5 111.5 t121.5 67t158 22.5q112 0 181 -25.5t106.5 -64t50 -83.5t12.5 -84q0 -14 -1.5 -25t-3.5 -20l-227 -1v9q0 26 -7 48t-22 38t-39 25t-59 9zM679 870l-111 -130h-300l-112 130v10h177l81 -83h7l81 83h177v-10z" horiz-adv-x="795" unicode="Č"/><glyph d="M23 244q0 52 17 98.5t53 81.5t92 55.5t133 20.5q90 0 142 -20t78.5 -48.5t33.5 -60t7 -54.5q0 -16 -4 -35l-209 -1q1 4 1 7.5v5.5q0 8 -2.5 18.5t-9 20.5t-17.5 16.5t-29 6.5q-15 0 -27.5 -5t-22 -18t-15 -34.5t-5.5 -54.5q0 -57 19 -84t51 -27q18 0 29 6.5t17.5 16t9 20 t2.5 18.5q0 9 -1 14h209q2 -11 3 -20t1 -16q0 -21 -7 -52.5t-33.5 -60t-78.5 -49t-142 -20.5q-148 0 -221.5 66.5t-73.5 187.5zM533 691l-91 -130h-260l-92 130v10h158l60 -63h7l61 63h157v-10z" horiz-adv-x="604" unicode="č"/><glyph d="M67 690h314q189 0 284 -83.5t95 -261.5t-95.5 -261.5t-283.5 -83.5h-314v690zM368 173q46 0 77 12t49.5 34.5t26.5 54.5t8 73q0 40 -8 72.5t-26.5 55t-49.5 34.5t-77 12h-81v-348h81zM653 870l-111 -130h-300l-112 130v10h177l81 -83h7l81 83h177v-10z" horiz-adv-x="793" unicode="Ď"/><glyph d="M598 0h-159l-28 63h-6q-9 -11 -22.5 -23.5t-33 -23.5t-46 -18.5t-60.5 -7.5q-38 0 -76.5 12t-70 41t-51.5 78.5t-20 124.5t20.5 124.5t52 78t70 40t75.5 11.5q50 0 84 -18.5t51 -41.5h7v280h213v-720zM385 322q-8 14 -26 24t-36 10q-15 0 -30 -5t-26.5 -17t-18.5 -33.5 t-7 -54.5t7 -55t18.5 -34.5t26 -18t30.5 -5.5q20 0 36.5 9t25.5 23v157zM871 690v-139q0 -38 -10 -67.5t-35.5 -49t-68.5 -28.5t-110 -5l7 81q64 -5 89 12.5t25 48.5h-114v147h217z" horiz-adv-x="830" unicode="ď"/><glyph d="M12 409h55v281h314q189 0 284 -83.5t95 -261.5t-95.5 -261.5t-283.5 -83.5h-314v279h-55v130zM368 173q46 0 77 12t49.5 34.5t26.5 54.5t8 73q0 40 -8 72.5t-26.5 55t-49.5 34.5t-77 12h-81v-112h118v-130h-118v-106h81z" horiz-adv-x="793" unicode="Đ"/><glyph d="M301 648h84v72h213v-72h44v-109h-44v-539h-159l-28 63h-6q-9 -11 -22.5 -23.5t-33 -23.5t-46 -18.5t-60.5 -7.5q-38 0 -76.5 12t-70 41t-51.5 78.5t-20 124.5t20.5 124.5t52 78t70 40t75.5 11.5q50 0 84 -18.5t51 -41.5h7v99h-84v109zM385 322q-8 14 -26 24t-36 10 q-15 0 -30 -5t-26.5 -17t-18.5 -33.5t-7 -54.5t7 -55t18.5 -34.5t26 -18t30.5 -5.5q20 0 36.5 9t25.5 23v157z" horiz-adv-x="649" unicode="đ"/><glyph d="M67 690h567v-172h-347v-86h270v-168h-270v-89h347v-175h-567v690zM153 875h393v-130h-393v130z" horiz-adv-x="677" unicode="Ē"/><glyph d="M23 243q0 53 16 100t51.5 82t91 55t134.5 20q66 0 115.5 -14t83.5 -39.5t51 -61.5t17 -79q0 -19 -2 -40t-5 -39h-349q0 -53 25.5 -76.5t59.5 -23.5q37 0 53.5 11.5t16.5 29.5v7l194 -1q2 -5 2.5 -11.5t0.5 -11.5q0 -25 -9.5 -53.5t-38 -52.5t-81.5 -39.5t-139 -15.5 q-146 0 -217 66t-71 187zM395 312v8q0 35 -20 51t-57 16q-35 0 -58 -19.5t-27 -55.5h162zM120 696h393v-130h-393v130z" horiz-adv-x="608" unicode="ē"/><glyph d="M67 690h567v-172h-347v-86h270v-168h-270v-89h347v-175h-567v690zM352 730q-45 0 -83.5 11.5t-67.5 35.5t-47 61t-21 87h132q10 -28 29.5 -43t57.5 -15q41 0 59.5 15t27.5 43h133q-3 -50 -21 -87t-47.5 -61t-68 -35.5t-83.5 -11.5z" horiz-adv-x="677" unicode="Ĕ"/><glyph d="M23 243q0 53 16 100t51.5 82t91 55t134.5 20q66 0 115.5 -14t83.5 -39.5t51 -61.5t17 -79q0 -19 -2 -40t-5 -39h-349q0 -53 25.5 -76.5t59.5 -23.5q37 0 53.5 11.5t16.5 29.5v7l194 -1q2 -5 2.5 -11.5t0.5 -11.5q0 -25 -9.5 -53.5t-38 -52.5t-81.5 -39.5t-139 -15.5 q-146 0 -217 66t-71 187zM395 312v8q0 35 -20 51t-57 16q-35 0 -58 -19.5t-27 -55.5h162zM319 551q-45 0 -82 10t-64 32t-43.5 57.5t-19.5 85.5h112q2 -43 30.5 -60.5t66.5 -17.5q41 0 68 17.5t29 60.5h113q-3 -50 -19.5 -85.5t-44 -57.5t-64.5 -32t-82 -10z" horiz-adv-x="608" unicode="ĕ"/><glyph d="M67 690h567v-172h-347v-86h270v-168h-270v-89h347v-175h-567v690zM259 880h211v-142h-211v142z" horiz-adv-x="677" unicode="Ė"/><glyph d="M23 243q0 53 16 100t51.5 82t91 55t134.5 20q66 0 115.5 -14t83.5 -39.5t51 -61.5t17 -79q0 -19 -2 -40t-5 -39h-349q0 -53 25.5 -76.5t59.5 -23.5q37 0 53.5 11.5t16.5 29.5v7l194 -1q2 -5 2.5 -11.5t0.5 -11.5q0 -25 -9.5 -53.5t-38 -52.5t-81.5 -39.5t-139 -15.5 q-146 0 -217 66t-71 187zM395 312v8q0 35 -20 51t-57 16q-35 0 -58 -19.5t-27 -55.5h162zM212 700h211v-142h-211v142z" horiz-adv-x="608" unicode="ė"/><glyph d="M67 690h567v-172h-347v-86h270v-168h-270v-89h347v-175l-95 -54q-15 -8 -24 -18.5t-9 -24.5t9.5 -19.5t22.5 -5.5q23 0 50 13t52 34l7 -131q-9 -6 -27 -12.5t-41 -12t-50.5 -9t-55.5 -3.5q-66 0 -108.5 23t-42.5 76q0 39 28 70.5t94 62.5l25 11h-402v690z" horiz-adv-x="677" unicode="Ę"/><glyph d="M110 -144q0 39 28 70.5t94 62.5l12 6q-112 14 -166.5 78t-54.5 170q0 53 16 100t51.5 82t91 55t134.5 20q66 0 115.5 -14t83.5 -39.5t51 -61.5t17 -79q0 -19 -2 -40t-5 -39h-349q0 -53 25.5 -76.5t59.5 -23.5q37 0 53.5 11.5t16.5 29.5v7l194 -1q2 -5 2.5 -11.5 t0.5 -11.5q0 -21 -6 -43.5t-23.5 -43.5t-48.5 -38.5t-81 -26.5l-93 -53q-15 -8 -24 -18.5t-9 -24.5t9.5 -19.5t22.5 -5.5q23 0 50 13t52 34l7 -131q-9 -6 -27 -12.5t-41 -12t-50.5 -9t-55.5 -3.5q-66 0 -108.5 23t-42.5 76zM395 312v8q0 35 -20 51t-57 16q-35 0 -58 -19.5 t-27 -55.5h162z" horiz-adv-x="608" unicode="ę"/><glyph d="M67 690h567v-172h-347v-86h270v-168h-270v-89h347v-175h-567v690zM615 870l-111 -130h-300l-112 130v10h177l81 -83h7l81 83h177v-10z" horiz-adv-x="677" unicode="Ě"/><glyph d="M23 243q0 53 16 100t51.5 82t91 55t134.5 20q66 0 115.5 -14t83.5 -39.5t51 -61.5t17 -79q0 -19 -2 -40t-5 -39h-349q0 -53 25.5 -76.5t59.5 -23.5q37 0 53.5 11.5t16.5 29.5v7l194 -1q2 -5 2.5 -11.5t0.5 -11.5q0 -25 -9.5 -53.5t-38 -52.5t-81.5 -39.5t-139 -15.5 q-146 0 -217 66t-71 187zM395 312v8q0 35 -20 51t-57 16q-35 0 -58 -19.5t-27 -55.5h162zM533 691l-91 -130h-260l-92 130v10h158l60 -63h7l61 63h157v-10z" horiz-adv-x="608" unicode="ě"/><glyph d="M424 145q26 0 46 7.5t34.5 19.5t23 27t11.5 30h-115v127h354v-356h-148l-19 90h-10q-30 -39 -89 -69.5t-147 -30.5q-69 0 -129.5 22t-106 66.5t-72 110.5t-26.5 154q0 86 27 152.5t77.5 112t121.5 69t158 23.5q73 0 127.5 -10.5t93 -28t64 -40.5t40 -49.5t20 -54 t5.5 -53.5q0 -25 -5 -45l-230 -1v9q0 51 -30.5 75t-90.5 24q-66 0 -105 -48.5t-39 -134.5q0 -41 10.5 -77t30.5 -63t49.5 -42.5t68.5 -15.5zM159 750l111 130h300l112 -130v-10h-178l-80 83h-7l-81 -83h-177v10z" horiz-adv-x="822" unicode="Ĝ"/><glyph d="M256 -28v-4q0 -14 12 -25.5t46 -11.5q40 0 63.5 24.5t23.5 69.5v51h-8q-23 -23 -63 -39.5t-85 -16.5q-36 0 -74.5 10t-70.5 36t-53 71.5t-21 117.5t20.5 119t52 75t70.5 39.5t76 11.5q36 0 63.5 -9.5t47.5 -22.5t32.5 -26.5t18.5 -21.5h7l27 70h159v-440 q0 -64 -21 -112.5t-58 -81.5t-88.5 -49.5t-112.5 -16.5q-67 0 -117 12.5t-83.5 33.5t-50 49t-16.5 58q0 8 0.5 16.5t2.5 14.5zM324 153q18 0 35.5 10t27.5 26v131q-11 17 -27.5 26.5t-35.5 9.5q-15 0 -29.5 -3.5t-26.5 -14.5t-19 -31t-7 -53t7 -52.5t19 -30.5t26.5 -14.5 t29.5 -3.5zM120 571l91 130h260l92 -130v-10h-158l-60 63h-7l-61 -63h-157v10z" horiz-adv-x="651" unicode="ĝ"/><glyph d="M424 145q26 0 46 7.5t34.5 19.5t23 27t11.5 30h-115v127h354v-356h-148l-19 90h-10q-30 -39 -89 -69.5t-147 -30.5q-69 0 -129.5 22t-106 66.5t-72 110.5t-26.5 154q0 86 27 152.5t77.5 112t121.5 69t158 23.5q73 0 127.5 -10.5t93 -28t64 -40.5t40 -49.5t20 -54 t5.5 -53.5q0 -25 -5 -45l-230 -1v9q0 51 -30.5 75t-90.5 24q-66 0 -105 -48.5t-39 -134.5q0 -41 10.5 -77t30.5 -63t49.5 -42.5t68.5 -15.5zM409 730q-45 0 -83.5 11.5t-67.5 35.5t-47 61t-21 87h132q10 -28 29.5 -43t57.5 -15q41 0 59.5 15t27.5 43h133q-3 -50 -21 -87 t-47.5 -61t-68 -35.5t-83.5 -11.5z" horiz-adv-x="822" unicode="Ğ"/><glyph d="M256 -28v-4q0 -14 12 -25.5t46 -11.5q40 0 63.5 24.5t23.5 69.5v51h-8q-23 -23 -63 -39.5t-85 -16.5q-36 0 -74.5 10t-70.5 36t-53 71.5t-21 117.5t20.5 119t52 75t70.5 39.5t76 11.5q36 0 63.5 -9.5t47.5 -22.5t32.5 -26.5t18.5 -21.5h7l27 70h159v-440 q0 -64 -21 -112.5t-58 -81.5t-88.5 -49.5t-112.5 -16.5q-67 0 -117 12.5t-83.5 33.5t-50 49t-16.5 58q0 8 0.5 16.5t2.5 14.5zM324 153q18 0 35.5 10t27.5 26v131q-11 17 -27.5 26.5t-35.5 9.5q-15 0 -29.5 -3.5t-26.5 -14.5t-19 -31t-7 -53t7 -52.5t19 -30.5t26.5 -14.5 t29.5 -3.5zM344 551q-45 0 -82 10t-64 32t-43.5 57.5t-19.5 85.5h112q2 -43 30.5 -60.5t66.5 -17.5q41 0 68 17.5t29 60.5h113q-3 -50 -19.5 -85.5t-44 -57.5t-64.5 -32t-82 -10z" horiz-adv-x="651" unicode="ğ"/><glyph d="M424 145q26 0 46 7.5t34.5 19.5t23 27t11.5 30h-115v127h354v-356h-148l-19 90h-10q-30 -39 -89 -69.5t-147 -30.5q-69 0 -129.5 22t-106 66.5t-72 110.5t-26.5 154q0 86 27 152.5t77.5 112t121.5 69t158 23.5q73 0 127.5 -10.5t93 -28t64 -40.5t40 -49.5t20 -54 t5.5 -53.5q0 -25 -5 -45l-230 -1v9q0 51 -30.5 75t-90.5 24q-66 0 -105 -48.5t-39 -134.5q0 -41 10.5 -77t30.5 -63t49.5 -42.5t68.5 -15.5zM316 880h211v-142h-211v142z" horiz-adv-x="822" unicode="Ġ"/><glyph d="M256 -28v-4q0 -14 12 -25.5t46 -11.5q40 0 63.5 24.5t23.5 69.5v51h-8q-23 -23 -63 -39.5t-85 -16.5q-36 0 -74.5 10t-70.5 36t-53 71.5t-21 117.5t20.5 119t52 75t70.5 39.5t76 11.5q36 0 63.5 -9.5t47.5 -22.5t32.5 -26.5t18.5 -21.5h7l27 70h159v-440 q0 -64 -21 -112.5t-58 -81.5t-88.5 -49.5t-112.5 -16.5q-67 0 -117 12.5t-83.5 33.5t-50 49t-16.5 58q0 8 0.5 16.5t2.5 14.5zM324 153q18 0 35.5 10t27.5 26v131q-11 17 -27.5 26.5t-35.5 9.5q-15 0 -29.5 -3.5t-26.5 -14.5t-19 -31t-7 -53t7 -52.5t19 -30.5t26.5 -14.5 t29.5 -3.5zM226 700h211v-142h-211v142z" horiz-adv-x="651" unicode="ġ"/><glyph d="M424 145q26 0 46 7.5t34.5 19.5t23 27t11.5 30h-115v127h354v-356h-148l-19 90h-10q-30 -39 -89 -69.5t-147 -30.5q-69 0 -129.5 22t-106 66.5t-72 110.5t-26.5 154q0 86 27 152.5t77.5 112t121.5 69t158 23.5q73 0 127.5 -10.5t93 -28t64 -40.5t40 -49.5t20 -54 t5.5 -53.5q0 -25 -5 -45l-230 -1v9q0 51 -30.5 75t-90.5 24q-66 0 -105 -48.5t-39 -134.5q0 -41 10.5 -77t30.5 -63t49.5 -42.5t68.5 -15.5zM522 -47v-139q0 -38 -10 -67.5t-35.5 -49t-68.5 -28.5t-110 -5l7 81q64 -5 89 12.5t25 48.5h-114v147h217z" horiz-adv-x="822" unicode="Ģ"/><glyph d="M256 -28v-4q0 -14 12 -25.5t46 -11.5q40 0 63.5 24.5t23.5 69.5v51h-8q-23 -23 -63 -39.5t-85 -16.5q-36 0 -74.5 10t-70.5 36t-53 71.5t-21 117.5t20.5 119t52 75t70.5 39.5t76 11.5q36 0 63.5 -9.5t47.5 -22.5t32.5 -26.5t18.5 -21.5h7l27 70h159v-440 q0 -64 -21 -112.5t-58 -81.5t-88.5 -49.5t-112.5 -16.5q-67 0 -117 12.5t-83.5 33.5t-50 49t-16.5 58q0 8 0.5 16.5t2.5 14.5zM324 153q18 0 35.5 10t27.5 26v131q-11 17 -27.5 26.5t-35.5 9.5q-15 0 -29.5 -3.5t-26.5 -14.5t-19 -31t-7 -53t7 -52.5t19 -30.5t26.5 -14.5 t29.5 -3.5zM220 558v139q0 37 10 67t35.5 49.5t68.5 28.5t110 5l-7 -81q-65 4 -89.5 -13t-24.5 -48h114v-147h-217z" horiz-adv-x="651" unicode="ģ"/><glyph d="M67 690h220v-259h254v259h222v-690h-222v259h-254v-259h-220v690zM153 750l111 130h300l112 -130v-10h-178l-80 83h-7l-81 -83h-177v10z" horiz-adv-x="830" unicode="Ĥ"/><glyph d="M51 720h213v-292h9q4 7 13.5 19t26 24t42 20.5t61.5 8.5q37 0 69.5 -11t57 -35t39 -62t14.5 -92v-300h-212v284q0 72 -56 72q-14 0 -24.5 -5t-18.5 -11.5t-13 -14t-8 -13.5v-312h-213v720zM105 770l91 130h260l92 -130v-10h-158l-60 63h-7l-61 -63h-157v10z" horiz-adv-x="642" unicode="ĥ"/><glyph d="M12 636h55v54h220v-54h254v54h222v-54h53v-110h-53v-526h-222v259h-254v-259h-220v526h-55v110zM541 431v95h-254v-95h254z" horiz-adv-x="830" unicode="Ħ"/><glyph d="M7 648h44v72h213v-72h84v-109h-84v-111h9q4 7 13.5 19t26 24t42 20.5t61.5 8.5q37 0 69.5 -11t57 -35t39 -62t14.5 -92v-300h-212v284q0 72 -56 72q-14 0 -24.5 -5t-18.5 -11.5t-13 -14t-8 -13.5v-312h-213v539h-44v109z" horiz-adv-x="642" unicode="ħ"/><glyph d="M67 690h220v-690h-220v690zM-32 740q-1 94 31 132t90 38q21 0 39.5 -4.5t32.5 -11.5l59 -27q5 -2 12.5 -4.5t12.5 -2.5q15 0 22.5 11t8.5 30h117q0 -47 -8.5 -79.5t-25 -53t-40.5 -29.5t-53 -9q-26 0 -45.5 5.5t-34.5 12.5l-43 19q-19 8 -29 8q-16 0 -22.5 -9.5 t-8.5 -25.5h-115v0z" horiz-adv-x="354" unicode="Ĩ"/><glyph d="M-53 560q-1 94 31 132t90 38q21 0 39.5 -4.5t32.5 -11.5l59 -27q5 -2 12.5 -4.5t12.5 -2.5q15 0 22.5 11t8.5 30h117q0 -47 -8.5 -79.5t-25 -53t-40.5 -29.5t-53 -9q-26 0 -45.5 5.5t-34.5 12.5l-43 19q-19 8 -29 8q-16 0 -22.5 -9.5t-8.5 -25.5h-115v0zM51 490h213v-490 h-213v490z" horiz-adv-x="315" unicode="ĩ"/><glyph d="M67 690h220v-690h-220v690zM-18 875h393v-130h-393v130z" horiz-adv-x="354" unicode="Ī"/><glyph d="M-42 696h393v-130h-393v130zM51 490h213v-490h-213v490z" horiz-adv-x="315" unicode="ī"/><glyph d="M67 690h220v-690h-220v690zM180 730q-45 0 -83.5 11.5t-67.5 35.5t-47 61t-21 87h132q10 -28 29.5 -43t57.5 -15q41 0 59.5 15t27.5 43h133q-3 -50 -21 -87t-47.5 -61t-68 -35.5t-83.5 -11.5z" horiz-adv-x="354" unicode="Ĭ"/><glyph d="M51 490h213v-490h-213v490zM155 551q-45 0 -82 10t-64 32t-43.5 57.5t-19.5 85.5h112q2 -43 30.5 -60.5t66.5 -17.5q41 0 68 17.5t29 60.5h113q-3 -50 -19.5 -85.5t-44 -57.5t-64.5 -32t-82 -10z" horiz-adv-x="315" unicode="ĭ"/><glyph d="M67 690h220v-690l-95 -54q-15 -8 -24 -18.5t-9 -24.5t9.5 -19.5t22.5 -5.5q23 0 50 13t52 34l7 -131q-9 -6 -27 -12.5t-41 -12t-50.5 -9t-55.5 -3.5q-66 0 -108.5 23t-42.5 76q0 39 28 70.5t94 62.5l25 11h-55v690z" horiz-adv-x="354" unicode="Į"/><glyph d="M51 490h213v-490l-95 -54q-15 -8 -24 -18.5t-9 -24.5t9.5 -19.5t22.5 -5.5q23 0 50 13t52 34l7 -131q-9 -6 -27 -12.5t-41 -12t-50.5 -9t-55.5 -3.5q-66 0 -108.5 23t-42.5 76q0 39 28 70.5t94 62.5l25 11h-48v490zM51 700h213v-147h-213v147z" horiz-adv-x="315" unicode="į"/><glyph d="M67 690h220v-690h-220v690zM74 880h211v-142h-211v142z" horiz-adv-x="354" unicode="İ"/><glyph d="M51 490h213v-490h-213v490z" horiz-adv-x="315" unicode="ı"/><glyph d="M67 690h220v-690h-220v690zM618 281q-3 -14 -5 -26.5t-2 -23.5q0 -29 12.5 -48t49.5 -19q35 0 51.5 20.5t16.5 66.5v439h220v-439q0 -129 -69 -195t-219 -66q-78 0 -131.5 19.5t-86.5 52.5t-47.5 77t-14.5 92q0 11 2 27.5t6 27.5z" horiz-adv-x="1022" unicode="Ĳ"/><glyph d="M51 490h213v-490h-213v490zM51 700h213v-147h-213v147zM589 -12q0 -101 -53 -149.5t-152 -48.5q-42 0 -72 3t-57 8l16 138q15 -2 31 -4t33 -2q20 0 30.5 15t10.5 52v490h213v-502zM377 700h213v-147h-213v147z" horiz-adv-x="640" unicode="ĳ"/><glyph d="M233 281q-3 -14 -5 -26.5t-2 -23.5q0 -29 12.5 -48t49.5 -19q35 0 51.5 20.5t16.5 66.5v439h220v-439q0 -129 -69 -195t-219 -66q-78 0 -131.5 19.5t-86.5 52.5t-47.5 77t-14.5 92q0 11 2 27.5t6 27.5zM198 750l111 130h300l112 -130v-10h-178l-80 83h-7l-81 -83h-177v10 z" horiz-adv-x="637" unicode="Ĵ"/><glyph d="M264 -12q0 -101 -53 -149.5t-152 -48.5q-42 0 -72 3t-57 8l16 138q15 -2 31 -4t33 -2q20 0 30.5 15t10.5 52v490h213v-502zM-68 571l91 130h260l92 -130v-10h-158l-60 63h-7l-61 -63h-157v10z" horiz-adv-x="315" unicode="ĵ"/><glyph d="M67 690h220v-278l61 5q4 10 16 32t27.5 50t32.5 59t32.5 58t27 47t15.5 27h235v-15q-6 -8 -20.5 -32t-34 -57t-41.5 -70t-42 -71.5t-36.5 -62t-24.5 -40.5q8 -12 24 -39t36.5 -61.5t43 -71.5t42 -69t34 -54.5t20.5 -27.5v-19h-247q-4 6 -15.5 25t-26 45t-30.5 55.5 t-30.5 55.5t-26 45.5t-15.5 26.5h-57v-253h-220v690zM484 -47v-139q0 -38 -10 -67.5t-35.5 -49t-68.5 -28.5t-110 -5l7 81q64 -5 89 12.5t25 48.5h-114v147h217z" horiz-adv-x="748" unicode="Ķ"/><glyph d="M51 720h213v-412q42 26 82.5 72.5t64.5 109.5h227v-23q-14 -32 -34 -62.5t-42 -57.5t-43.5 -49.5t-39.5 -37.5q7 -9 21 -28.5t30.5 -43.5t34.5 -50.5t34 -49.5t29 -41t20 -24v-23h-224q-8 7 -23 31t-31.5 51t-31.5 51.5t-22 33.5q-10 -7 -26 -16t-26 -14v-137h-213v720z M447 -47v-139q0 -38 -10 -67.5t-35.5 -49t-68.5 -28.5t-110 -5l7 81q64 -5 89 12.5t25 48.5h-114v147h217z" horiz-adv-x="656" unicode="ķ"/><glyph d="M51 490h204v-185l44 3q5 13 20 39.5t32.5 55.5t32.5 53.5t20 33.5h213v-13q-5 -7 -15.5 -24t-24.5 -39t-29.5 -47.5t-30 -49.5t-27 -44.5t-19.5 -31.5q6 -10 18.5 -29.5t27.5 -43.5t31 -49.5t30 -47t24.5 -36.5t14.5 -19v-16h-222q-5 7 -19.5 30.5t-31 50t-30.5 50 t-18 31.5h-41v-162h-204v490z" horiz-adv-x="630" unicode="ĸ"/><glyph d="M67 690h220v-515h311v-175h-531v690zM78 750l56 130h214v-10l-94 -130h-176v10z" horiz-adv-x="608" unicode="Ĺ"/><glyph d="M51 720h213v-720h-213v720zM59 770l56 130h214v-10l-94 -130h-176v10z" horiz-adv-x="315" unicode="ĺ"/><glyph d="M67 690h220v-515h311v-175h-531v690zM449 -47v-139q0 -38 -10 -67.5t-35.5 -49t-68.5 -28.5t-110 -5l7 81q64 -5 89 12.5t25 48.5h-114v147h217z" horiz-adv-x="608" unicode="Ļ"/><glyph d="M51 720h213v-720h-213v720zM268 -47v-139q0 -38 -10 -67.5t-35.5 -49t-68.5 -28.5t-110 -5l7 81q64 -5 89 12.5t25 48.5h-114v147h217z" horiz-adv-x="315" unicode="ļ"/><glyph d="M67 690h220v-515h311v-175h-531v690zM593 690v-139q0 -38 -10 -67.5t-35.5 -49t-68.5 -28.5t-110 -5l7 81q64 -5 89 12.5t25 48.5h-114v147h217z" horiz-adv-x="608" unicode="Ľ"/><glyph d="M51 720h213v-720h-213v720zM538 690v-139q0 -38 -10 -67.5t-35.5 -49t-68.5 -28.5t-110 -5l7 81q64 -5 89 12.5t25 48.5h-114v147h217z" horiz-adv-x="497" unicode="ľ"/><glyph d="M67 690h220v-515h311v-175h-531v690zM479 316q-42 0 -67.5 25.5t-25.5 64.5q0 40 25.5 65.5t67.5 25.5q40 0 65 -25.5t25 -65.5q0 -39 -25 -64.5t-65 -25.5z" horiz-adv-x="608" unicode="Ŀ"/><glyph d="M51 720h213v-720h-213v720zM412 286q-42 0 -67.5 25.5t-25.5 64.5q0 40 25.5 65.5t67.5 25.5q40 0 65 -25.5t25 -65.5q0 -39 -25 -64.5t-65 -25.5z" horiz-adv-x="506" unicode="ŀ"/><glyph d="M-53 311l120 69v310h220v-183l70 41l72 -124l-142 -82v-167h311v-175h-531v215l-49 -28z" horiz-adv-x="608" unicode="Ł"/><glyph d="M-55 322l106 62v336h213v-212l38 23l72 -124l-110 -64v-343h-213v218l-35 -20z" horiz-adv-x="315" unicode="ł"/><glyph d="M67 690h236l179 -302q18 -31 35.5 -64t30.5 -63h10q-5 35 -10.5 80.5t-5.5 86.5v262h222v-690h-234l-185 300q-17 27 -32.5 61t-31.5 71h-9q6 -42 10.5 -85t4.5 -88v-259h-220v690zM315 750l56 130h214v-10l-94 -130h-176v10z" horiz-adv-x="831" unicode="Ń"/><glyph d="M51 490h158l24 -77h7q9 15 22 30t32 28t43.5 21t55.5 8q43 0 79 -11t62 -35t40.5 -62t14.5 -92v-300h-212v284q0 37 -11.5 54.5t-40.5 17.5q-23 0 -38 -10.5t-23 -23.5v-322h-213v490zM237 570l56 130h214v-10l-94 -130h-176v10z" horiz-adv-x="635" unicode="ń"/><glyph d="M67 690h236l179 -302q18 -31 35.5 -64t30.5 -63h10q-5 35 -10.5 80.5t-5.5 86.5v262h222v-690h-234l-185 300q-17 27 -32.5 61t-31.5 71h-9q6 -42 10.5 -85t4.5 -88v-259h-220v690zM547 -47v-139q0 -38 -10 -67.5t-35.5 -49t-68.5 -28.5t-110 -5l7 81q64 -5 89 12.5 t25 48.5h-114v147h217z" horiz-adv-x="831" unicode="Ņ"/><glyph d="M51 490h158l24 -77h7q9 15 22 30t32 28t43.5 21t55.5 8q43 0 79 -11t62 -35t40.5 -62t14.5 -92v-300h-212v284q0 37 -11.5 54.5t-40.5 17.5q-23 0 -38 -10.5t-23 -23.5v-322h-213v490zM431 -47v-139q0 -38 -10 -67.5t-35.5 -49t-68.5 -28.5t-110 -5l7 81q64 -5 89 12.5 t25 48.5h-114v147h217z" horiz-adv-x="635" unicode="ņ"/><glyph d="M67 690h236l179 -302q18 -31 35.5 -64t30.5 -63h10q-5 35 -10.5 80.5t-5.5 86.5v262h222v-690h-234l-185 300q-17 27 -32.5 61t-31.5 71h-9q6 -42 10.5 -85t4.5 -88v-259h-220v690zM677 870l-111 -130h-300l-112 130v10h177l81 -83h7l81 83h177v-10z" horiz-adv-x="831" unicode="Ň"/><glyph d="M51 490h158l24 -77h7q9 15 22 30t32 28t43.5 21t55.5 8q43 0 79 -11t62 -35t40.5 -62t14.5 -92v-300h-212v284q0 37 -11.5 54.5t-40.5 17.5q-23 0 -38 -10.5t-23 -23.5v-322h-213v490zM532 691l-91 -130h-260l-92 130v10h158l60 -63h7l61 63h157v-10z" horiz-adv-x="635" unicode="ň"/><glyph d="M51 490h158l24 -77h7q9 15 22 30t32 28t43.5 21t55.5 8q43 0 79 -11t62 -35t40.5 -62t14.5 -92v-300h-212v284q0 37 -11.5 54.5t-40.5 17.5q-23 0 -38 -10.5t-23 -23.5v-322h-213v490zM22 691v-139q0 -38 -10 -67.5t-35.5 -49t-68.5 -28.5t-110 -5l7 81q64 -5 89 12.5 t25 48.5h-114v147h217z" horiz-adv-x="635" unicode="ŉ"/><glyph d="M67 690h236l185 -302q19 -31 34.5 -62t28.5 -61h10q-5 35 -12 78.5t-7 84.5v262h222v-702q0 -101 -53 -149.5t-152 -48.5q-42 0 -72 3t-57 8l16 138q15 -2 31 -4t33 -2q20 0 30.5 15t10.5 52v12l-203 288q-18 26 -34.5 60.5t-32.5 71.5h-9q6 -42 10.5 -85t4.5 -88v-259 h-220v690z" horiz-adv-x="831" unicode="Ŋ"/><glyph d="M51 490h158l24 -77h7q9 15 22 30t32 28t43.5 21t55.5 8q43 0 79 -11t62 -35t40.5 -62t14.5 -92v-312q0 -101 -52.5 -149.5t-151.5 -48.5q-42 0 -72 3t-57 8l16 138q15 -2 31 -4t33 -2q20 0 30.5 13t10.5 50v288q0 37 -11.5 54.5t-40.5 17.5q-23 0 -38 -10.5t-23 -23.5 v-322h-213v490z" horiz-adv-x="635" unicode="ŋ"/><glyph d="M415 -10q-186 0 -285 92.5t-99 261.5q0 84 25.5 150.5t74 112t120 69.5t164.5 24q91 0 163 -24t121 -69.5t75 -112t26 -150.5t-26 -150t-75 -111t-121 -69t-163 -24zM415 164q70 0 111 43.5t41 136.5t-41 137.5t-111 44.5q-71 0 -111.5 -44.5t-40.5 -137.5t40.5 -136.5 t111.5 -43.5zM219 875h393v-130h-393v130z" horiz-adv-x="830" unicode="Ō"/><glyph d="M23 244q0 57 17 104t53 80.5t90.5 52.5t129.5 19q74 0 128.5 -19t90.5 -52.5t53.5 -80.5t17.5 -104q0 -56 -17.5 -103t-53.5 -80.5t-90.5 -52t-128.5 -18.5q-75 0 -129.5 18.5t-90.5 52t-53 80.5t-17 103zM313 133q32 0 53 24t21 87q0 32 -5.5 53.5t-15.5 34.5 t-23.5 18.5t-29.5 5.5t-30 -5.5t-24 -18.5t-16 -34.5t-6 -53.5q0 -63 22 -87t54 -24zM116 696h393v-130h-393v130z" horiz-adv-x="626" unicode="ō"/><glyph d="M415 -10q-186 0 -285 92.5t-99 261.5q0 84 25.5 150.5t74 112t120 69.5t164.5 24q91 0 163 -24t121 -69.5t75 -112t26 -150.5t-26 -150t-75 -111t-121 -69t-163 -24zM415 164q70 0 111 43.5t41 136.5t-41 137.5t-111 44.5q-71 0 -111.5 -44.5t-40.5 -137.5t40.5 -136.5 t111.5 -43.5zM413 730q-45 0 -83.5 11.5t-67.5 35.5t-47 61t-21 87h132q10 -28 29.5 -43t57.5 -15q41 0 59.5 15t27.5 43h133q-3 -50 -21 -87t-47.5 -61t-68 -35.5t-83.5 -11.5z" horiz-adv-x="830" unicode="Ŏ"/><glyph d="M23 244q0 57 17 104t53 80.5t90.5 52.5t129.5 19q74 0 128.5 -19t90.5 -52.5t53.5 -80.5t17.5 -104q0 -56 -17.5 -103t-53.5 -80.5t-90.5 -52t-128.5 -18.5q-75 0 -129.5 18.5t-90.5 52t-53 80.5t-17 103zM313 133q32 0 53 24t21 87q0 32 -5.5 53.5t-15.5 34.5 t-23.5 18.5t-29.5 5.5t-30 -5.5t-24 -18.5t-16 -34.5t-6 -53.5q0 -63 22 -87t54 -24zM313 551q-45 0 -82 10t-64 32t-43.5 57.5t-19.5 85.5h112q2 -43 30.5 -60.5t66.5 -17.5q41 0 68 17.5t29 60.5h113q-3 -50 -19.5 -85.5t-44 -57.5t-64.5 -32t-82 -10z" horiz-adv-x="626" unicode="ŏ"/><glyph d="M415 -10q-186 0 -285 92.5t-99 261.5q0 84 25.5 150.5t74 112t120 69.5t164.5 24q91 0 163 -24t121 -69.5t75 -112t26 -150.5t-26 -150t-75 -111t-121 -69t-163 -24zM415 164q70 0 111 43.5t41 136.5t-41 137.5t-111 44.5q-71 0 -111.5 -44.5t-40.5 -137.5t40.5 -136.5 t111.5 -43.5zM442 750l61 130h205v-10l-99 -130h-167v10zM182 750l62 130h206v-10l-100 -130h-168v10z" horiz-adv-x="830" unicode="Ő"/><glyph d="M23 244q0 57 17 104t53 80.5t90.5 52.5t129.5 19q74 0 128.5 -19t90.5 -52.5t53.5 -80.5t17.5 -104q0 -56 -17.5 -103t-53.5 -80.5t-90.5 -52t-128.5 -18.5q-75 0 -129.5 18.5t-90.5 52t-53 80.5t-17 103zM313 133q32 0 53 24t21 87q0 32 -5.5 53.5t-15.5 34.5 t-23.5 18.5t-29.5 5.5t-30 -5.5t-24 -18.5t-16 -34.5t-6 -53.5q0 -63 22 -87t54 -24zM365 570l61 130h205v-10l-99 -130h-167v10zM105 570l62 130h206v-10l-100 -130h-168v10z" horiz-adv-x="626" unicode="ő"/><glyph d="M556 28q-30 -17 -71 -27.5t-89 -10.5q-86 0 -153.5 24t-114.5 69t-72 111t-25 150t25 150.5t72 112t114.5 69.5t153.5 24q48 0 89 -11t71 -28v29h567v-172h-347v-86h270v-168h-270v-89h347v-175h-567v28zM415 164q53 0 89 24.5t52 75.5v161q-16 51 -52 76t-89 25 q-71 0 -111.5 -44.5t-40.5 -137.5t40.5 -136.5t111.5 -43.5z" horiz-adv-x="1166" unicode="Œ"/><glyph d="M23 244q0 57 17 104t51.5 80.5t87.5 52.5t124 19q68 0 114 -19t78 -54q32 35 79 54t120 19q60 0 107.5 -14t79.5 -39.5t49 -61.5t17 -79q0 -19 -2 -42.5t-5 -41.5h-345q0 -26 7 -44.5t18.5 -29.5t27 -16t32.5 -5q37 0 53.5 14t16.5 32v7q48 0 95 -0.5t95 -0.5 q2 -5 2.5 -11.5t0.5 -11.5q0 -25 -9.5 -54t-36.5 -54t-76 -41.5t-128 -16.5q-74 0 -121 17t-79 52q-32 -34 -77.5 -51.5t-112.5 -17.5q-71 0 -124 18.5t-87.5 52t-51.5 80.5t-17 103zM309 133q32 0 53 24t21 87q0 32 -5.5 53.5t-15.5 34.5t-23.5 18.5t-29.5 5.5t-30 -5.5 t-24 -18.5t-16 -34.5t-6 -53.5q0 -63 22 -87t54 -24zM763 312v8q0 35 -20 51t-57 16q-35 0 -58 -19.5t-27 -55.5h162z" horiz-adv-x="972" unicode="œ"/><glyph d="M67 690h322q84 0 142 -16.5t94 -47t51.5 -73.5t15.5 -95q0 -75 -36 -124.5t-92 -69.5v-8q15 -17 38.5 -52t48.5 -72t48 -67t36 -37v-28h-236q-14 10 -33.5 40.5t-39.5 65.5t-37.5 66.5t-28.5 44.5h-71v-217h-222v690zM369 367q54 0 74.5 21.5t20.5 57.5q0 37 -19.5 57.5 t-75.5 20.5h-85v-157h85zM236 750l56 130h214v-10l-94 -130h-176v10z" horiz-adv-x="749" unicode="Ŕ"/><glyph d="M265 0h-214v490h158l25 -72h8q9 13 22.5 27.5t31.5 26.5t41.5 20t53.5 8q48 0 77 -15.5t44.5 -39.5t20.5 -53t5 -56q0 -26 -5.5 -51t-10.5 -42l-175 10q3 12 4 24t1 21q0 26 -11.5 40.5t-29.5 14.5q-17 0 -29 -11.5t-17 -25.5v-316zM159 570l56 130h214v-10l-94 -130 h-176v10z" horiz-adv-x="551" unicode="ŕ"/><glyph d="M67 690h322q84 0 142 -16.5t94 -47t51.5 -73.5t15.5 -95q0 -75 -36 -124.5t-92 -69.5v-8q15 -17 38.5 -52t48.5 -72t48 -67t36 -37v-28h-236q-14 10 -33.5 40.5t-39.5 65.5t-37.5 66.5t-28.5 44.5h-71v-217h-222v690zM369 367q54 0 74.5 21.5t20.5 57.5q0 37 -19.5 57.5 t-75.5 20.5h-85v-157h85zM488 -47v-139q0 -38 -10 -67.5t-35.5 -49t-68.5 -28.5t-110 -5l7 81q64 -5 89 12.5t25 48.5h-114v147h217z" horiz-adv-x="749" unicode="Ŗ"/><glyph d="M265 0h-214v490h158l25 -72h8q9 13 22.5 27.5t31.5 26.5t41.5 20t53.5 8q48 0 77 -15.5t44.5 -39.5t20.5 -53t5 -56q0 -26 -5.5 -51t-10.5 -42l-175 10q3 12 4 24t1 21q0 26 -11.5 40.5t-29.5 14.5q-17 0 -29 -11.5t-17 -25.5v-316zM268 -47v-139q0 -38 -10 -67.5 t-35.5 -49t-68.5 -28.5t-110 -5l7 81q64 -5 89 12.5t25 48.5h-114v147h217z" horiz-adv-x="551" unicode="ŗ"/><glyph d="M67 690h322q84 0 142 -16.5t94 -47t51.5 -73.5t15.5 -95q0 -75 -36 -124.5t-92 -69.5v-8q15 -17 38.5 -52t48.5 -72t48 -67t36 -37v-28h-236q-14 10 -33.5 40.5t-39.5 65.5t-37.5 66.5t-28.5 44.5h-71v-217h-222v690zM369 367q54 0 74.5 21.5t20.5 57.5q0 37 -19.5 57.5 t-75.5 20.5h-85v-157h85zM627 870l-111 -130h-300l-112 130v10h177l81 -83h7l81 83h177v-10z" horiz-adv-x="749" unicode="Ř"/><glyph d="M265 0h-214v490h158l25 -72h8q9 13 22.5 27.5t31.5 26.5t41.5 20t53.5 8q48 0 77 -15.5t44.5 -39.5t20.5 -53t5 -56q0 -26 -5.5 -51t-10.5 -42l-175 10q3 12 4 24t1 21q0 26 -11.5 40.5t-29.5 14.5q-17 0 -29 -11.5t-17 -25.5v-316zM501 691l-91 -130h-260l-92 130v10 h158l60 -63h7l61 63h157v-10z" horiz-adv-x="551" unicode="ř"/><glyph d="M255 229v-12q0 -32 26.5 -55t78.5 -23q38 0 58.5 14t20.5 37q0 19 -15 31t-50 22l-141 40q-42 12 -77 28.5t-60 40.5t-38.5 56.5t-13.5 76.5q0 102 77.5 158.5t230.5 56.5q95 0 153.5 -20t91 -49.5t43.5 -63t11 -60.5q0 -19 -3 -32l-218 -1q1 5 1 7.5v6.5 q0 29 -19.5 45.5t-64.5 16.5q-37 0 -55 -13.5t-18 -35.5q0 -32 58 -49l154 -44q40 -12 75 -27t60.5 -38t40 -55.5t14.5 -77.5q0 -109 -86 -164.5t-242 -55.5q-104 0 -167 22t-97 54.5t-45 68.5t-11 64v15t2 14zM265 750l56 130h214v-10l-94 -130h-176v10z" horiz-adv-x="705" unicode="Ś"/><glyph d="M213 156v-10q0 -9 3 -18t11.5 -16t23.5 -11.5t38 -4.5q30 0 43.5 8.5t13.5 25.5t-14.5 24.5t-42.5 13.5l-72 16q-52 12 -87.5 25.5t-57.5 32.5t-31.5 43.5t-9.5 57.5q0 75 66.5 116t193.5 41q81 0 130 -14.5t75.5 -35.5t35.5 -45.5t10 -44.5q0 -14 -3 -24l-181 -1v9 q0 8 -3 17t-11 16t-21.5 11.5t-33.5 4.5q-29 0 -42.5 -10t-13.5 -24q0 -19 19 -26.5t44 -12.5l84 -16q53 -10 87 -25.5t54 -35t28 -43.5t8 -51q0 -35 -16 -64t-48.5 -50t-82.5 -33t-119 -12q-86 0 -138 15.5t-80.5 38t-38.5 48t-10 45.5q0 13 1 18zM209 570l56 130h214v-10 l-94 -130h-176v10z" horiz-adv-x="579" unicode="ś"/><glyph d="M255 229v-12q0 -32 26.5 -55t78.5 -23q38 0 58.5 14t20.5 37q0 19 -15 31t-50 22l-141 40q-42 12 -77 28.5t-60 40.5t-38.5 56.5t-13.5 76.5q0 102 77.5 158.5t230.5 56.5q95 0 153.5 -20t91 -49.5t43.5 -63t11 -60.5q0 -19 -3 -32l-218 -1q1 5 1 7.5v6.5 q0 29 -19.5 45.5t-64.5 16.5q-37 0 -55 -13.5t-18 -35.5q0 -32 58 -49l154 -44q40 -12 75 -27t60.5 -38t40 -55.5t14.5 -77.5q0 -109 -86 -164.5t-242 -55.5q-104 0 -167 22t-97 54.5t-45 68.5t-11 64v15t2 14zM93 750l111 130h300l112 -130v-10h-178l-80 83h-7l-81 -83 h-177v10z" horiz-adv-x="705" unicode="Ŝ"/><glyph d="M213 156v-10q0 -9 3 -18t11.5 -16t23.5 -11.5t38 -4.5q30 0 43.5 8.5t13.5 25.5t-14.5 24.5t-42.5 13.5l-72 16q-52 12 -87.5 25.5t-57.5 32.5t-31.5 43.5t-9.5 57.5q0 75 66.5 116t193.5 41q81 0 130 -14.5t75.5 -35.5t35.5 -45.5t10 -44.5q0 -14 -3 -24l-181 -1v9 q0 8 -3 17t-11 16t-21.5 11.5t-33.5 4.5q-29 0 -42.5 -10t-13.5 -24q0 -19 19 -26.5t44 -12.5l84 -16q53 -10 87 -25.5t54 -35t28 -43.5t8 -51q0 -35 -16 -64t-48.5 -50t-82.5 -33t-119 -12q-86 0 -138 15.5t-80.5 38t-38.5 48t-10 45.5q0 13 1 18zM79 571l91 130h260 l92 -130v-10h-158l-60 63h-7l-61 -63h-157v10z" horiz-adv-x="579" unicode="ŝ"/><glyph d="M255 229v-12q0 -32 26.5 -55t78.5 -23q38 0 58.5 14t20.5 37q0 19 -15 31t-50 22l-141 40q-42 12 -77 28.5t-60 40.5t-38.5 56.5t-13.5 76.5q0 102 77.5 158.5t230.5 56.5q95 0 153.5 -20t91 -49.5t43.5 -63t11 -60.5q0 -19 -3 -32l-218 -1q1 5 1 7.5v6.5 q0 29 -19.5 45.5t-64.5 16.5q-37 0 -55 -13.5t-18 -35.5q0 -32 58 -49l154 -44q40 -12 75 -27t60.5 -38t40 -55.5t14.5 -77.5q0 -109 -86 -164.5t-242 -55.5q-104 0 -167 22t-97 54.5t-45 68.5t-11 64v15t2 14zM424 -31q16 -17 30 -44t14 -63q0 -53 -36 -87.5t-115 -34.5 q-41 0 -70 9t-46 21l14 108q14 -10 29.5 -16t31.5 -6q20 0 29.5 11t9.5 23q0 23 -18 53z" horiz-adv-x="705" unicode="Ş"/><glyph d="M213 156v-10q0 -9 3 -18t11.5 -16t23.5 -11.5t38 -4.5q30 0 43.5 8.5t13.5 25.5t-14.5 24.5t-42.5 13.5l-72 16q-52 12 -87.5 25.5t-57.5 32.5t-31.5 43.5t-9.5 57.5q0 75 66.5 116t193.5 41q81 0 130 -14.5t75.5 -35.5t35.5 -45.5t10 -44.5q0 -14 -3 -24l-181 -1v9 q0 8 -3 17t-11 16t-21.5 11.5t-33.5 4.5q-29 0 -42.5 -10t-13.5 -24q0 -19 19 -26.5t44 -12.5l84 -16q53 -10 87 -25.5t54 -35t28 -43.5t8 -51q0 -35 -16 -64t-48.5 -50t-82.5 -33t-119 -12q-86 0 -138 15.5t-80.5 38t-38.5 48t-10 45.5q0 13 1 18zM372 -31q16 -17 30 -44 t14 -63q0 -53 -36 -87.5t-115 -34.5q-41 0 -70 9t-46 21l14 108q14 -10 29.5 -16t31.5 -6q20 0 29.5 11t9.5 23q0 23 -18 53z" horiz-adv-x="579" unicode="ş"/><glyph d="M255 229v-12q0 -32 26.5 -55t78.5 -23q38 0 58.5 14t20.5 37q0 19 -15 31t-50 22l-141 40q-42 12 -77 28.5t-60 40.5t-38.5 56.5t-13.5 76.5q0 102 77.5 158.5t230.5 56.5q95 0 153.5 -20t91 -49.5t43.5 -63t11 -60.5q0 -19 -3 -32l-218 -1q1 5 1 7.5v6.5 q0 29 -19.5 45.5t-64.5 16.5q-37 0 -55 -13.5t-18 -35.5q0 -32 58 -49l154 -44q40 -12 75 -27t60.5 -38t40 -55.5t14.5 -77.5q0 -109 -86 -164.5t-242 -55.5q-104 0 -167 22t-97 54.5t-45 68.5t-11 64v15t2 14zM616 870l-111 -130h-300l-112 130v10h177l81 -83h7l81 83h177 v-10z" horiz-adv-x="705" unicode="Š"/><glyph d="M213 156v-10q0 -9 3 -18t11.5 -16t23.5 -11.5t38 -4.5q30 0 43.5 8.5t13.5 25.5t-14.5 24.5t-42.5 13.5l-72 16q-52 12 -87.5 25.5t-57.5 32.5t-31.5 43.5t-9.5 57.5q0 75 66.5 116t193.5 41q81 0 130 -14.5t75.5 -35.5t35.5 -45.5t10 -44.5q0 -14 -3 -24l-181 -1v9 q0 8 -3 17t-11 16t-21.5 11.5t-33.5 4.5q-29 0 -42.5 -10t-13.5 -24q0 -19 19 -26.5t44 -12.5l84 -16q53 -10 87 -25.5t54 -35t28 -43.5t8 -51q0 -35 -16 -64t-48.5 -50t-82.5 -33t-119 -12q-86 0 -138 15.5t-80.5 38t-38.5 48t-10 45.5q0 13 1 18zM526 691l-91 -130h-260 l-92 130v10h158l60 -63h7l61 63h157v-10z" horiz-adv-x="579" unicode="š"/><glyph d="M220 518h-209v172h640v-172h-211v-518h-220v518zM386 -31q16 -17 30 -44t14 -63q0 -53 -36 -87.5t-115 -34.5q-41 0 -70 9t-46 21l14 108q14 -10 29.5 -16t31.5 -6q20 0 29.5 11t9.5 23q0 23 -18 53z" horiz-adv-x="662" unicode="Ţ"/><glyph d="M95 370h-87v120h106l27 111h167v-111h154v-120h-154v-167q0 -29 12 -41.5t46 -12.5q20 0 42.5 5t49.5 14l9 -157q-37 -10 -83.5 -15.5t-92.5 -5.5q-102 0 -149 41t-47 134v205zM358 -31q16 -17 30 -44t14 -63q0 -53 -36 -87.5t-115 -34.5q-41 0 -70 9t-46 21l14 108 q14 -10 29.5 -16t31.5 -6q20 0 29.5 11t9.5 23q0 23 -18 53z" horiz-adv-x="492" unicode="ţ"/><glyph d="M220 518h-209v172h640v-172h-211v-518h-220v518zM592 870l-111 -130h-300l-112 130v10h177l81 -83h7l81 83h177v-10z" horiz-adv-x="662" unicode="Ť"/><glyph d="M95 370h-87v120h106l27 111h167v-111h154v-120h-154v-167q0 -29 12 -41.5t46 -12.5q20 0 42.5 5t49.5 14l9 -157q-37 -10 -83.5 -15.5t-92.5 -5.5q-102 0 -149 41t-47 134v205zM716 690v-139q0 -38 -10 -67.5t-35.5 -49t-68.5 -28.5t-110 -5l7 81q64 -5 89 12.5t25 48.5 h-114v147h217z" horiz-adv-x="628" unicode="ť"/><glyph d="M124 362h96v156h-209v172h640v-172h-211v-156h97v-130h-97v-232h-220v232h-96v130z" horiz-adv-x="662" unicode="Ŧ"/><glyph d="M24 330h71v40h-87v120h106l27 111h167v-111h154v-120h-154v-40h109v-110h-109v-17q0 -29 12 -41.5t46 -12.5q20 0 42.5 5t49.5 14l9 -157q-37 -10 -83.5 -15.5t-92.5 -5.5q-102 0 -149 41t-47 134v55h-71v110z" horiz-adv-x="492" unicode="ŧ"/><glyph d="M60 690h220v-377q0 -84 29.5 -116.5t88.5 -32.5q58 0 88 32.5t30 116.5v377h220v-376q0 -88 -21.5 -149.5t-64 -100.5t-105.5 -56.5t-147 -17.5t-147.5 17.5t-105.5 56.5t-63.5 100.5t-21.5 149.5v376zM179 740q-1 94 31 132t90 38q21 0 39.5 -4.5t32.5 -11.5l59 -27 q5 -2 12.5 -4.5t12.5 -2.5q15 0 22.5 11t8.5 30h117q0 -47 -8.5 -79.5t-25 -53t-40.5 -29.5t-53 -9q-26 0 -45.5 5.5t-34.5 12.5l-43 19q-19 8 -29 8q-16 0 -22.5 -9.5t-8.5 -25.5h-115v0z" horiz-adv-x="796" unicode="Ũ"/><glyph d="M585 0h-158l-24 77h-7q-9 -15 -22 -30t-32 -28t-43.5 -21t-55.5 -8q-43 0 -79 11t-62.5 35t-41 62t-14.5 92v300h213v-284q0 -37 11.5 -54.5t40.5 -17.5q23 0 38 10.5t23 23.5v322h213v-490zM120 560q-1 94 31 132t90 38q21 0 39.5 -4.5t32.5 -11.5l59 -27 q5 -2 12.5 -4.5t12.5 -2.5q15 0 22.5 11t8.5 30h117q0 -47 -8.5 -79.5t-25 -53t-40.5 -29.5t-53 -9q-26 0 -45.5 5.5t-34.5 12.5l-43 19q-19 8 -29 8q-16 0 -22.5 -9.5t-8.5 -25.5h-115v0z" horiz-adv-x="636" unicode="ũ"/><glyph d="M60 690h220v-377q0 -84 29.5 -116.5t88.5 -32.5q58 0 88 32.5t30 116.5v377h220v-376q0 -88 -21.5 -149.5t-64 -100.5t-105.5 -56.5t-147 -17.5t-147.5 17.5t-105.5 56.5t-63.5 100.5t-21.5 149.5v376zM200 875h393v-130h-393v130z" horiz-adv-x="796" unicode="Ū"/><glyph d="M585 0h-158l-24 77h-7q-9 -15 -22 -30t-32 -28t-43.5 -21t-55.5 -8q-43 0 -79 11t-62.5 35t-41 62t-14.5 92v300h213v-284q0 -37 11.5 -54.5t40.5 -17.5q23 0 38 10.5t23 23.5v322h213v-490zM124 696h393v-130h-393v130z" horiz-adv-x="636" unicode="ū"/><glyph d="M60 690h220v-377q0 -84 29.5 -116.5t88.5 -32.5q58 0 88 32.5t30 116.5v377h220v-376q0 -88 -21.5 -149.5t-64 -100.5t-105.5 -56.5t-147 -17.5t-147.5 17.5t-105.5 56.5t-63.5 100.5t-21.5 149.5v376zM398 730q-45 0 -83.5 11.5t-67.5 35.5t-47 61t-21 87h132 q10 -28 29.5 -43t57.5 -15q41 0 59.5 15t27.5 43h133q-3 -50 -21 -87t-47.5 -61t-68 -35.5t-83.5 -11.5z" horiz-adv-x="796" unicode="Ŭ"/><glyph d="M585 0h-158l-24 77h-7q-9 -15 -22 -30t-32 -28t-43.5 -21t-55.5 -8q-43 0 -79 11t-62.5 35t-41 62t-14.5 92v300h213v-284q0 -37 11.5 -54.5t40.5 -17.5q23 0 38 10.5t23 23.5v322h213v-490zM314 551q-45 0 -82 10t-64 32t-43.5 57.5t-19.5 85.5h112q2 -43 30.5 -60.5 t66.5 -17.5q41 0 68 17.5t29 60.5h113q-3 -50 -19.5 -85.5t-44 -57.5t-64.5 -32t-82 -10z" horiz-adv-x="636" unicode="ŭ"/><glyph d="M60 690h220v-377q0 -84 29.5 -116.5t88.5 -32.5q58 0 88 32.5t30 116.5v377h220v-376q0 -88 -21.5 -149.5t-64 -100.5t-105.5 -56.5t-147 -17.5t-147.5 17.5t-105.5 56.5t-63.5 100.5t-21.5 149.5v376zM398 697q-31 0 -56.5 10t-44 27t-29 41t-10.5 53q0 27 10.5 51 t29 41t44 27t56.5 10q30 0 55.5 -10t44 -27t29 -41t10.5 -51q0 -29 -10.5 -53t-29 -41t-44 -27t-55.5 -10zM398 779q23 0 36 13.5t13 35.5q0 21 -13 34t-36 13t-37.5 -13t-14.5 -34q0 -22 14.5 -35.5t37.5 -13.5z" horiz-adv-x="796" unicode="Ů"/><glyph d="M585 0h-158l-24 77h-7q-9 -15 -22 -30t-32 -28t-43.5 -21t-55.5 -8q-43 0 -79 11t-62.5 35t-41 62t-14.5 92v300h213v-284q0 -37 11.5 -54.5t40.5 -17.5q23 0 38 10.5t23 23.5v322h213v-490zM317 529q-31 0 -56.5 10t-44 27t-29 41t-10.5 53q0 27 10.5 51t29 41t44 27 t56.5 10q30 0 55.5 -10t44 -27t29 -41t10.5 -51q0 -29 -10.5 -53t-29 -41t-44 -27t-55.5 -10zM317 611q23 0 36 13.5t13 35.5q0 21 -13 34t-36 13t-37.5 -13t-14.5 -34q0 -22 14.5 -35.5t37.5 -13.5z" horiz-adv-x="636" unicode="ů"/><glyph d="M60 690h220v-377q0 -84 29.5 -116.5t88.5 -32.5q58 0 88 32.5t30 116.5v377h220v-376q0 -88 -21.5 -149.5t-64 -100.5t-105.5 -56.5t-147 -17.5t-147.5 17.5t-105.5 56.5t-63.5 100.5t-21.5 149.5v376zM435 750l61 130h205v-10l-99 -130h-167v10zM175 750l62 130h206v-10 l-100 -130h-168v10z" horiz-adv-x="796" unicode="Ű"/><glyph d="M585 0h-158l-24 77h-7q-9 -15 -22 -30t-32 -28t-43.5 -21t-55.5 -8q-43 0 -79 11t-62.5 35t-41 62t-14.5 92v300h213v-284q0 -37 11.5 -54.5t40.5 -17.5q23 0 38 10.5t23 23.5v322h213v-490zM365 570l61 130h205v-10l-99 -130h-167v10zM105 570l62 130h206v-10l-100 -130 h-168v10z" horiz-adv-x="636" unicode="ű"/><glyph d="M199 -144q0 39 28 70.5t94 62.5l10 5q-68 6 -118.5 27.5t-84.5 60t-51 96t-17 136.5v376h220v-377q0 -84 29.5 -116.5t88.5 -32.5q58 0 88 32.5t30 116.5v377h220v-376q0 -143 -57 -218t-169 -96l-94 -54q-15 -8 -24 -18.5t-9 -24.5t9.5 -19.5t22.5 -5.5q23 0 50 13 t52 34l7 -131q-9 -6 -27 -12.5t-41 -12t-50.5 -9t-55.5 -3.5q-66 0 -108.5 23t-42.5 76z" horiz-adv-x="796" unicode="Ų"/><glyph d="M273 -144q0 39 28 70.5t94 62.5l31 13l-23 75h-7q-9 -15 -22 -30t-32 -28t-43.5 -21t-55.5 -8q-43 0 -79 11t-62.5 35t-41 62t-14.5 92v300h213v-284q0 -37 11.5 -54.5t40.5 -17.5q23 0 38 10.5t23 23.5v322h213v-490l-95 -54q-15 -8 -24 -18.5t-9 -24.5t9.5 -19.5 t22.5 -5.5q23 0 50 13t52 34l7 -131q-9 -6 -27 -12.5t-41 -12t-50.5 -9t-55.5 -3.5q-66 0 -108.5 23t-42.5 76z" horiz-adv-x="636" unicode="ų"/><glyph d="M751 374q9 -34 17.5 -69t14.5 -73h14q2 38 4.5 71t10.5 71l63 316h231l-160 -690h-270l-79 279q-9 32 -17 72t-14 84h-13q-5 -44 -13.5 -84t-17.5 -72l-81 -279h-269l-159 690h231l62 -315q7 -35 11 -70.5t5 -72.5h14q6 38 14 72.5t18 69.5l86 316h212zM297 750l111 130 h300l112 -130v-10h-178l-80 83h-7l-81 -83h-177v10z" horiz-adv-x="1119" unicode="Ŵ"/><glyph d="M7 490h212l38 -171q7 -31 13 -69t10 -73h10q5 35 12.5 74t14.5 68l39 171h230l39 -171q8 -32 15 -69.5t12 -72.5h9q5 35 10.5 72.5t12.5 69.5l37 171h213l-136 -490h-256l-50 225q-5 23 -10 49t-7 46h-10q-2 -20 -7 -45.5t-10 -48.5l-49 -226h-257zM249 571l91 130h260 l92 -130v-10h-158l-60 63h-7l-61 -63h-157v10z" horiz-adv-x="941" unicode="ŵ"/><glyph d="M256 252l-258 418v20h227l67 -118q19 -33 36.5 -69.5t31.5 -73.5h14q16 37 34 75t35 67l68 119h225v-20l-259 -418v-252h-221v252zM105 750l111 130h300l112 -130v-10h-178l-80 83h-7l-81 -83h-177v10z" horiz-adv-x="733" unicode="Ŷ"/><glyph d="M52 -55q21 -5 47 -8.5t46 -3.5q30 0 45.5 9.5t20.5 29.5l8 30l-219 471v17h215l68 -211q8 -24 15 -52.5t12 -53.5h12q5 24 11 53t12 53l52 211h212v-19l-193 -518q-17 -45 -37 -76t-47 -50.5t-62.5 -28t-84.5 -8.5q-40 0 -77.5 4t-69.5 9zM85 571l91 130h260l92 -130v-10 h-158l-60 63h-7l-61 -63h-157v10z" horiz-adv-x="612" unicode="ŷ"/><glyph d="M256 252l-258 418v20h227l67 -118q19 -33 36.5 -69.5t31.5 -73.5h14q16 37 34 75t35 67l68 119h225v-20l-259 -418v-252h-221v252zM423 880h211v-142h-211v142zM101 880h211v-142h-211v142z" horiz-adv-x="733" unicode="Ÿ"/><glyph d="M35 153l254 274q20 22 43.5 44.5t47.5 39.5l-1 9q-35 -3 -65 -4t-63 -1h-198v175h609v-139l-266 -284q-18 -20 -44.5 -45.5t-46.5 -42.5l2 -8q27 3 64 5t74 2h210v-178h-620v153zM259 750l56 130h214v-10l-94 -130h-176v10z" horiz-adv-x="702" unicode="Ź"/><glyph d="M30 126l157 146q9 8 21 18t25.5 20t27 18.5t25.5 14.5l-1 10q-31 -4 -62.5 -5.5t-63.5 -1.5h-116v144h492v-116l-154 -147q-23 -22 -51 -43t-54 -38l2 -11q27 5 60.5 6.5t65.5 1.5h131v-143h-505v126zM192 570l56 130h214v-10l-94 -130h-176v10z" horiz-adv-x="570" unicode="ź"/><glyph d="M35 153l254 274q20 22 43.5 44.5t47.5 39.5l-1 9q-35 -3 -65 -4t-63 -1h-198v175h609v-139l-266 -284q-18 -20 -44.5 -45.5t-46.5 -42.5l2 -8q27 3 64 5t74 2h210v-178h-620v153zM250 880h211v-142h-211v142z" horiz-adv-x="702" unicode="Ż"/><glyph d="M30 126l157 146q9 8 21 18t25.5 20t27 18.5t25.5 14.5l-1 10q-31 -4 -62.5 -5.5t-63.5 -1.5h-116v144h492v-116l-154 -147q-23 -22 -51 -43t-54 -38l2 -11q27 5 60.5 6.5t65.5 1.5h131v-143h-505v126zM192 700h211v-142h-211v142z" horiz-adv-x="570" unicode="ż"/><glyph d="M35 153l254 274q20 22 43.5 44.5t47.5 39.5l-1 9q-35 -3 -65 -4t-63 -1h-198v175h609v-139l-266 -284q-18 -20 -44.5 -45.5t-46.5 -42.5l2 -8q27 3 64 5t74 2h210v-178h-620v153zM622 870l-111 -130h-300l-112 130v10h177l81 -83h7l81 83h177v-10z" horiz-adv-x="702" unicode="Ž"/><glyph d="M30 126l157 146q9 8 21 18t25.5 20t27 18.5t25.5 14.5l-1 10q-31 -4 -62.5 -5.5t-63.5 -1.5h-116v144h492v-116l-154 -147q-23 -22 -51 -43t-54 -38l2 -11q27 5 60.5 6.5t65.5 1.5h131v-143h-505v126zM515 691l-91 -130h-260l-92 130v10h158l60 -63h7l61 63h157v-10z" horiz-adv-x="570" unicode="ž"/><glyph d="M113 280h-100l15 120h100l19 150q11 88 68 134t157 46q25 0 43 -1t32 -2t26 -3t24 -3l-35 -140q-19 2 -31.5 3.5t-29.5 1.5q-24 0 -32 -10t-11 -33l-18 -143h126l-15 -120h-126l-37 -311q-11 -88 -69 -133.5t-158 -45.5q-48 0 -75 2.5t-48 6.5l35 140q17 -2 30.5 -3 t30.5 -1q23 0 31.5 9.5t10.5 32.5z" horiz-adv-x="473" unicode="ƒ"/><glyph d="M245 652h21q-20 28 -20 66q0 41 25 71t67 42l33 80h214v-9l-100 -98q19 -17 29.5 -38.5t10.5 -47.5q0 -37 -21 -66h21l247 -652h-229l-45 124h-227l-44 -124h-228zM465 259l-42 121q-10 29 -19 54.5t-14 48.5h-9q-5 -21 -13 -48t-16 -50l-47 -126h160zM386 673 q23 0 36 12.5t13 32.5t-13 32t-36 12t-37.5 -12t-14.5 -32t14.5 -32.5t37.5 -12.5z" horiz-adv-x="771" unicode="Ǻ"/><glyph d="M47 306q-3 16 -3 35q0 73 63.5 116t200.5 43q75 0 124 -15.5t78 -41.5t41 -60.5t12 -71.5v-142q0 -37 22 -37q11 0 23 3l7 -130q-23 -7 -51 -11t-57 -4q-35 0 -56.5 7.5t-34 18.5t-17 24t-5.5 25h-7q-25 -30 -69.5 -52.5t-120.5 -22.5q-81 0 -129.5 33t-48.5 96 q0 37 15.5 66.5t54 50.5t103.5 33.5t164 15.5v28q0 53 -61 53q-36 0 -51.5 -11.5t-15.5 -29.5q0 -5 2 -15zM323 529q-62 0 -101 34t-39 87q0 34 18.5 61t50.5 42l37 86h186v-9l-64 -88q23 -16 36.5 -39.5t13.5 -52.5q0 -26 -10.5 -48.5t-28.5 -38.5t-43.5 -25t-55.5 -9z M218 151q0 -37 53 -37q23 0 46 9.5t39 25.5v61q-42 -2 -68.5 -7.5t-42 -13.5t-21.5 -18t-6 -20zM323 605q23 0 36 12.5t13 32.5q0 19 -13 31t-36 12t-37.5 -12t-14.5 -31q0 -20 14.5 -32.5t37.5 -12.5z" horiz-adv-x="625" unicode="ǻ"/><glyph d="M467 133h-168l-54 -133h-257l320 690h726v-172h-347v-86h270v-168h-270v-89h347v-175h-567v133zM467 278v249h-10l-102 -249h112zM527 750l56 130h214v-10l-94 -130h-176v10z" horiz-adv-x="1077" unicode="Ǽ"/><glyph d="M47 306q-3 16 -3 35q0 73 63.5 116t200.5 43q63 0 102 -14.5t66 -37.5q28 21 68.5 36.5t92.5 15.5q66 0 115.5 -14t83.5 -39.5t51 -61.5t17 -79q0 -19 -2 -42.5t-5 -41.5h-344q0 -53 23 -74t57 -21q37 0 53.5 14t16.5 32v7q49 0 97 -0.5t97 -0.5q2 -5 2.5 -11.5 t0.5 -11.5q0 -25 -9.5 -54t-38 -54t-81.5 -41.5t-139 -16.5q-40 0 -70 5t-53.5 15.5t-42 25t-35.5 34.5h-4q-15 -12 -35 -26t-47 -26t-62 -20t-81 -8q-90 0 -136.5 33t-46.5 96q0 34 15 63.5t52.5 51t101.5 35t163 16.5v28q0 26 -12 39.5t-44 13.5q-36 0 -51.5 -11.5 t-15.5 -29.5q0 -5 2 -15zM218 151q0 -37 53 -37q23 0 43.5 9.5t36.5 25.5v61q-42 -2 -68 -7.5t-40.5 -13.5t-19.5 -18t-5 -20zM716 312v8q0 35 -20 51t-57 16q-35 0 -55.5 -19.5t-24.5 -55.5h157zM390 570l56 130h214v-10l-94 -130h-176v10z" horiz-adv-x="928" unicode="ǽ"/><glyph d="M305 750l56 130h214v-10l-94 -130h-176v10zM137 77q-52 46 -79 112.5t-27 154.5q0 84 25.5 150.5t74 112t120 69.5t164.5 24q113 0 197 -38l23 28h130l-67 -83q50 -46 76 -112t26 -151q0 -84 -26 -150t-75 -111t-121 -69t-163 -24q-112 0 -192 34l-19 -24h-130zM263 344 q0 -56 15 -93l210 259q-34 16 -73 16q-71 0 -111.5 -44.5t-40.5 -137.5zM415 164q70 0 111 43.5t41 136.5q0 25 -3.5 46.5t-9.5 39.5l-207 -254q30 -12 68 -12z" horiz-adv-x="830" unicode="Ǿ"/><glyph d="M232 570l56 130h214v-10l-94 -130h-176v10zM85 68q-32 33 -47 77.5t-15 98.5q0 57 17 104t53 80.5t90.5 52.5t129.5 19q89 0 153 -28l27 28h130l-79 -84q30 -33 44.5 -76.5t14.5 -95.5q0 -56 -17.5 -103t-53.5 -80.5t-90.5 -52t-128.5 -18.5q-86 0 -148 25l-23 -25h-130z M233 225l120 126q-17 11 -40 11q-35 0 -57.5 -25.5t-22.5 -92.5v-19zM313 127q28 0 49 18t27 65q1 9 1.5 20t0.5 24l-113 -120q14 -7 35 -7z" horiz-adv-x="626" unicode="ǿ"/><glyph d="M255 229v-12q0 -32 26.5 -55t78.5 -23q38 0 58.5 14t20.5 37q0 19 -15 31t-50 22l-141 40q-42 12 -77 28.5t-60 40.5t-38.5 56.5t-13.5 76.5q0 102 77.5 158.5t230.5 56.5q95 0 153.5 -20t91 -49.5t43.5 -63t11 -60.5q0 -19 -3 -32l-218 -1q1 5 1 7.5v6.5 q0 29 -19.5 45.5t-64.5 16.5q-37 0 -55 -13.5t-18 -35.5q0 -32 58 -49l154 -44q40 -12 75 -27t60.5 -38t40 -55.5t14.5 -77.5q0 -109 -86 -164.5t-242 -55.5q-104 0 -167 22t-97 54.5t-45 68.5t-11 64v15t2 14zM467 -47v-139q0 -38 -10 -67.5t-35.5 -49t-68.5 -28.5t-110 -5 l7 81q64 -5 89 12.5t25 48.5h-114v147h217z" horiz-adv-x="705" unicode="Ș"/><glyph d="M213 156v-10q0 -9 3 -18t11.5 -16t23.5 -11.5t38 -4.5q30 0 43.5 8.5t13.5 25.5t-14.5 24.5t-42.5 13.5l-72 16q-52 12 -87.5 25.5t-57.5 32.5t-31.5 43.5t-9.5 57.5q0 75 66.5 116t193.5 41q81 0 130 -14.5t75.5 -35.5t35.5 -45.5t10 -44.5q0 -14 -3 -24l-181 -1v9 q0 8 -3 17t-11 16t-21.5 11.5t-33.5 4.5q-29 0 -42.5 -10t-13.5 -24q0 -19 19 -26.5t44 -12.5l84 -16q53 -10 87 -25.5t54 -35t28 -43.5t8 -51q0 -35 -16 -64t-48.5 -50t-82.5 -33t-119 -12q-86 0 -138 15.5t-80.5 38t-38.5 48t-10 45.5q0 13 1 18zM417 -47v-139 q0 -38 -10 -67.5t-35.5 -49t-68.5 -28.5t-110 -5l7 81q64 -5 89 12.5t25 48.5h-114v147h217z" horiz-adv-x="579" unicode="ș"/><glyph d="M220 518h-209v172h640v-172h-211v-518h-220v518zM439 -47v-139q0 -38 -10 -67.5t-35.5 -49t-68.5 -28.5t-110 -5l7 81q64 -5 89 12.5t25 48.5h-114v147h217z" horiz-adv-x="662" unicode="Ț"/><glyph d="M95 370h-87v120h106l27 111h167v-111h154v-120h-154v-167q0 -29 12 -41.5t46 -12.5q20 0 42.5 5t49.5 14l9 -157q-37 -10 -83.5 -15.5t-92.5 -5.5q-102 0 -149 41t-47 134v205zM378 -47v-139q0 -38 -10 -67.5t-35.5 -49t-68.5 -28.5t-110 -5l7 81q64 -5 89 12.5t25 48.5 h-114v147h217z" horiz-adv-x="492" unicode="ț"/><glyph d="M264 -12q0 -101 -53 -149.5t-152 -48.5q-42 0 -72 3t-57 8l16 138q15 -2 31 -4t33 -2q20 0 30.5 15t10.5 52v490h213v-502z" horiz-adv-x="315" unicode="ȷ"/><glyph d="M48 570l111 130h300l112 -130v-10h-178l-80 83h-7l-81 -83h-177v10z" horiz-adv-x="633" unicode="ˆ"/><glyph d="M571 690l-111 -130h-300l-112 130v10h177l81 -83h7l81 83h177v-10z" horiz-adv-x="633" unicode="ˇ"/><glyph d="M120 715h393v-130h-393v130z" horiz-adv-x="633" unicode="ˉ"/><glyph d="M315 560q-45 0 -83.5 11.5t-67.5 35.5t-47 61t-21 87h132q10 -28 29.5 -43t57.5 -15q41 0 59.5 15t27.5 43h133q-3 -50 -21 -87t-47.5 -61t-68 -35.5t-83.5 -11.5z" horiz-adv-x="631" unicode="˘"/><glyph d="M198 700h211v-142h-211v142z" horiz-adv-x="617" unicode="˙"/><glyph d="M312 578q-31 0 -56.5 10t-44 27t-29 41t-10.5 53q0 27 10.5 51t29 41t44 27t56.5 10q30 0 55.5 -10t44 -27t29 -41t10.5 -51q0 -29 -10.5 -53t-29 -41t-44 -27t-55.5 -10zM312 660q23 0 36 13.5t13 35.5q0 21 -13 34t-36 13t-37.5 -13t-14.5 -34q0 -22 14.5 -35.5 t37.5 -13.5z" horiz-adv-x="624" unicode="˚"/><glyph d="M46 -144q0 39 28 70.5t94 62.5l138 59l52 -48l-95 -54q-15 -8 -24 -18.5t-9 -24.5t9.5 -19.5t22.5 -5.5q23 0 50 13t52 34l7 -131q-9 -6 -27 -12.5t-41 -12t-50.5 -9t-55.5 -3.5q-66 0 -108.5 23t-42.5 76z" horiz-adv-x="612" unicode="˛"/><glyph d="M102 560q-1 94 31 132t90 38q21 0 39.5 -4.5t32.5 -11.5l59 -27q5 -2 12.5 -4.5t12.5 -2.5q15 0 22.5 11t8.5 30h117q0 -47 -8.5 -79.5t-25 -53t-40.5 -29.5t-53 -9q-26 0 -45.5 5.5t-34.5 12.5l-43 19q-19 8 -29 8q-16 0 -22.5 -9.5t-8.5 -25.5h-115v0z" horiz-adv-x="627" unicode="˜"/><glyph d="M302 570l61 130h205v-10l-99 -130h-167v10zM42 570l62 130h206v-10l-100 -130h-168v10z" horiz-adv-x="642" unicode="˝"/><glyph d="M273 690h280l247 -690h-773zM528 175l-110 352h-9l-111 -352h230z" horiz-adv-x="827" unicode="Δ"/><glyph d="M426 526q-70 0 -111 -39.5t-41 -117.5q0 -40 11 -72t27.5 -56t36 -40.5t36.5 -25.5v-175h-335v175h105q-47 38 -80.5 92t-33.5 126q0 68 26 124.5t75 97t120.5 63t163.5 22.5q91 0 163 -22.5t121 -63t75 -97t26 -124.5q0 -36 -9 -67.5t-24.5 -58.5t-36.5 -50t-44 -42h105 v-175h-335v175q17 10 36.5 26t36 39.5t27.5 55t11 73.5q0 78 -41 117.5t-111 39.5z" horiz-adv-x="851" unicode="Ω"/><glyph d="M52 490h213v-284q0 -37 11.5 -54.5t40.5 -17.5q23 0 38 10.5t23 23.5v322h213v-490h-158l-24 77h-7q-9 -15 -21.5 -30t-29 -28t-36 -21t-40.5 -8h-10v-190h-213v690z" horiz-adv-x="653" unicode="μ"/><glyph d="M319 345v-345h-213v345h-86v145h696v-145h-90v-167q0 -26 13 -33t24 -7q16 0 31 5t23 7v-135q-9 -3 -25.5 -7.5t-37 -8.5t-44 -6.5t-46.5 -2.5q-39 0 -67.5 7.5t-47 25.5t-27.5 48t-9 75v199h-94z" horiz-adv-x="752" unicode="π"/><glyph d="M751 374q9 -34 17.5 -69t14.5 -73h14q2 38 4.5 71t10.5 71l63 316h231l-160 -690h-270l-79 279q-9 32 -17 72t-14 84h-13q-5 -44 -13.5 -84t-17.5 -72l-81 -279h-269l-159 690h231l62 -315q7 -35 11 -70.5t5 -72.5h14q6 38 14 72.5t18 69.5l86 316h212zM388 870v10h214 l56 -130v-10h-176z" horiz-adv-x="1119" unicode="Ẁ"/><glyph d="M7 490h212l38 -171q7 -31 13 -69t10 -73h10q5 35 12.5 74t14.5 68l39 171h230l39 -171q8 -32 15 -69.5t12 -72.5h9q5 35 10.5 72.5t12.5 69.5l37 171h213l-136 -490h-256l-50 225q-5 23 -10 49t-7 46h-10q-2 -20 -7 -45.5t-10 -48.5l-49 -226h-257zM300 690v10h214 l56 -130v-10h-176z" horiz-adv-x="941" unicode="ẁ"/><glyph d="M751 374q9 -34 17.5 -69t14.5 -73h14q2 38 4.5 71t10.5 71l63 316h231l-160 -690h-270l-79 279q-9 32 -17 72t-14 84h-13q-5 -44 -13.5 -84t-17.5 -72l-81 -279h-269l-159 690h231l62 -315q7 -35 11 -70.5t5 -72.5h14q6 38 14 72.5t18 69.5l86 316h212zM458 750l56 130 h214v-10l-94 -130h-176v10z" horiz-adv-x="1119" unicode="Ẃ"/><glyph d="M7 490h212l38 -171q7 -31 13 -69t10 -73h10q5 35 12.5 74t14.5 68l39 171h230l39 -171q8 -32 15 -69.5t12 -72.5h9q5 35 10.5 72.5t12.5 69.5l37 171h213l-136 -490h-256l-50 225q-5 23 -10 49t-7 46h-10q-2 -20 -7 -45.5t-10 -48.5l-49 -226h-257zM370 570l56 130h214 v-10l-94 -130h-176v10z" horiz-adv-x="941" unicode="ẃ"/><glyph d="M751 374q9 -34 17.5 -69t14.5 -73h14q2 38 4.5 71t10.5 71l63 316h231l-160 -690h-270l-79 279q-9 32 -17 72t-14 84h-13q-5 -44 -13.5 -84t-17.5 -72l-81 -279h-269l-159 690h231l62 -315q7 -35 11 -70.5t5 -72.5h14q6 38 14 72.5t18 69.5l86 316h212zM616 880h211v-142 h-211v142zM294 880h211v-142h-211v142z" horiz-adv-x="1119" unicode="Ẅ"/><glyph d="M7 490h212l38 -171q7 -31 13 -69t10 -73h10q5 35 12.5 74t14.5 68l39 171h230l39 -171q8 -32 15 -69.5t12 -72.5h9q5 35 10.5 72.5t12.5 69.5l37 171h213l-136 -490h-256l-50 225q-5 23 -10 49t-7 46h-10q-2 -20 -7 -45.5t-10 -48.5l-49 -226h-257zM516 701h181v-142 h-181v142zM244 701h181v-142h-181v142z" horiz-adv-x="941" unicode="ẅ"/><glyph d="M256 252l-258 418v20h227l67 -118q19 -33 36.5 -69.5t31.5 -73.5h14q16 37 34 75t35 67l68 119h225v-20l-259 -418v-252h-221v252zM197 870v10h214l56 -130v-10h-176z" horiz-adv-x="733" unicode="Ỳ"/><glyph d="M52 -55q21 -5 47 -8.5t46 -3.5q30 0 45.5 9.5t20.5 29.5l8 30l-219 471v17h215l68 -211q8 -24 15 -52.5t12 -53.5h12q5 24 11 53t12 53l52 211h212v-19l-193 -518q-17 -45 -37 -76t-47 -50.5t-62.5 -28t-84.5 -8.5q-40 0 -77.5 4t-69.5 9zM145 690v10h214l56 -130v-10 h-176z" horiz-adv-x="612" unicode="ỳ"/><glyph d="M48 344h474v-143h-474v143z" horiz-adv-x="570" unicode="–"/><glyph d="M48 344h745v-143h-745v143z" horiz-adv-x="841" unicode="—"/><glyph d="M257 299h-207v200q0 47 10.5 83.5t35 61t64 36.5t96.5 9l-8 -93q-26 0 -41 -4t-23 -14.5t-10.5 -29.5t-2.5 -49h86v-200z" horiz-adv-x="307" unicode="‘"/><glyph d="M51 690h207v-200q0 -47 -10.5 -83.5t-35 -61t-64 -36.5t-96.5 -9l8 93q26 0 41 4t23 14.5t10.5 29.5t2.5 49h-86v200z" horiz-adv-x="299" unicode="’"/><glyph d="M57 199h207v-200q0 -47 -10.5 -83.5t-35 -61t-64 -36.5t-96.5 -9l8 93q26 0 41 4t23 14.5t10.5 29.5t2.5 49h-86v200z" horiz-adv-x="321" unicode="‚"/><glyph d="M547 299h-207v200q0 47 10.5 83.5t35 61t64 36.5t96.5 9l-8 -93q-26 0 -41 -4t-23 -14.5t-10.5 -29.5t-2.5 -49h86v-200zM257 299h-207v200q0 47 10.5 83.5t35 61t64 36.5t96.5 9l-8 -93q-26 0 -41 -4t-23 -14.5t-10.5 -29.5t-2.5 -49h86v-200z" horiz-adv-x="597" unicode="“"/><glyph d="M51 690h207v-200q0 -47 -10.5 -83.5t-35 -61t-64 -36.5t-96.5 -9l8 93q26 0 41 4t23 14.5t10.5 29.5t2.5 49h-86v200zM341 690h207v-200q0 -47 -10.5 -83.5t-35 -61t-64 -36.5t-96.5 -9l8 93q26 0 41 4t23 14.5t10.5 29.5t2.5 49h-86v200z" horiz-adv-x="589" unicode="”"/><glyph d="M58 200h207v-200q0 -47 -10.5 -83.5t-35 -61t-64 -36.5t-96.5 -9l8 93q26 0 41 4t23 14.5t10.5 29.5t2.5 49h-86v200zM348 200h207v-200q0 -47 -10.5 -83.5t-35 -61t-64 -36.5t-96.5 -9l8 93q26 0 41 4t23 14.5t10.5 29.5t2.5 49h-86v200z" horiz-adv-x="613" unicode="„"/><glyph d="M30 370l197 -25l-27 345h163l-27 -345l200 25v-150l-200 25l27 -445h-163l27 445l-197 -25v150z" horiz-adv-x="566" unicode="†"/><glyph d="M39 125l199 -25v290l-199 -25v150l199 -25l-27 200h163l-27 -200l201 25v-150l-201 25v-290l201 25v-150l-201 25l27 -200h-163l27 200l-199 -25v150z" horiz-adv-x="587" unicode="‡"/><glyph d="M187 176q-33 0 -61.5 11t-48.5 31t-31.5 47.5t-11.5 60.5t11.5 60.5t31.5 47.5t48.5 31t61.5 11q34 0 62.5 -11t49 -31t32 -47.5t11.5 -60.5t-11.5 -60.5t-32 -47.5t-49 -31t-62.5 -11z" horiz-adv-x="376" unicode="•"/><glyph d="M1013 -10q-36 0 -65.5 11.5t-50 32t-31.5 47.5t-11 58q0 32 11 60t31.5 48.5t50 32.5t65.5 12q37 0 66.5 -12t50.5 -32.5t32 -48.5t11 -60q0 -31 -11 -58t-32 -47.5t-50.5 -32t-66.5 -11.5zM168 10l482 680h134v-10l-481 -680h-135v10zM228 322q-45 0 -81.5 14.5t-62 40 t-39.5 59t-14 72.5q0 40 14 75.5t39.5 61t62 40.5t81.5 15q46 0 83 -15t63.5 -40.5t40.5 -61t14 -75.5q0 -39 -14 -72.5t-40.5 -59t-63.5 -40t-83 -14.5zM670 -10q-36 0 -65.5 11.5t-49.5 32t-31 47.5t-11 58q0 32 11 60t31 48.5t49.5 32.5t65.5 12q37 0 67 -12t51 -32.5 t32 -48.5t11 -60q0 -31 -11 -58t-32 -47.5t-51 -32t-67 -11.5zM182 511q0 -20 13.5 -33.5t33.5 -13.5t34 13.5t14 33.5t-14 34t-34 14t-33.5 -14t-13.5 -34zM634 142q0 -16 11 -27t28 -11t28.5 11t11.5 27q0 15 -11.5 26.5t-28.5 11.5t-28 -11.5t-11 -26.5zM975 142 q0 -16 11 -27t28 -11t28.5 11t11.5 27q0 15 -11.5 26.5t-28.5 11.5t-28 -11.5t-11 -26.5z" horiz-adv-x="1201" unicode="‰"/><glyph d="M343 452l-157 -172v-10l157 -174h-176l-131 146v68l131 142h176z" horiz-adv-x="386" unicode="‹"/><glyph d="M219 452l130 -142v-68l-130 -146h-177l157 174v10l-156 172h176z" horiz-adv-x="386" unicode="›"/><glyph d="M-259 10l482 680h134v-10l-481 -680h-135v10z" horiz-adv-x="116" unicode="⁄"/><glyph d="M226 394q-97 0 -148.5 53.5t-51.5 141.5q0 89 51.5 142.5t148.5 53.5t149 -53.5t52 -142.5q0 -88 -52 -141.5t-149 -53.5zM226 497q55 0 55 92q0 45 -14 69t-41 24q-28 0 -41 -24t-13 -69q0 -92 54 -92z" horiz-adv-x="453" unicode="⁰"/><glyph d="M16 549l181 231h165v-222h60v-95h-60v-63h-143v63h-203v86zM223 556l3 114h-6l-79 -111v-3h82z" horiz-adv-x="444" unicode="⁴"/><glyph d="M159 528v-4q0 -11 12 -23.5t38 -12.5q22 0 36.5 13.5t14.5 33.5q0 24 -14.5 37t-37.5 13q-17 0 -30.5 -7.5t-18.5 -18.5h-126l25 221h305v-93h-189l-4 -52h5q11 7 36 13t52 6q68 0 105.5 -31t37.5 -85q0 -34 -15 -61t-40.5 -45.5t-60 -28t-74.5 -9.5q-58 0 -95.5 12.5 t-59 31t-30 40t-8.5 39.5q0 8 1 10z" horiz-adv-x="425" unicode="⁵"/><glyph d="M235 394q-103 0 -156 53.5t-53 142.5t52.5 142t155.5 53q51 0 84 -11t52.5 -27.5t27.5 -35.5t8 -34q0 -9 -2 -17q-35 0 -70 -0.5t-70 -0.5v3q0 10 -7 22t-32 12q-9 0 -18.5 -4t-18 -12.5t-14 -22.5t-5.5 -34q0 -5 2 -13h5q9 9 36 20.5t69 11.5q66 0 102.5 -29.5 t36.5 -78.5q0 -69 -50 -104.5t-135 -35.5zM194 525q0 -19 11 -28t31 -9q19 0 31 9t12 28q0 34 -43 34q-20 0 -31 -8.5t-11 -25.5z" horiz-adv-x="445" unicode="⁶"/><glyph d="M26 780h356v-82q-2 -5 -15 -26.5t-31.5 -51t-40 -63.5t-40.5 -65.5t-33 -56.5t-17 -35h-152v13q2 9 15 31t31 50t39 58.5t39 56.5t30 45t14 24h-89v-47h-106v149z" horiz-adv-x="395" unicode="⁷"/><glyph d="M227 638q20 0 33 7.5t13 20.5q0 28 -46 28t-46 -28q0 -13 13 -20.5t33 -7.5zM227 487q25 0 40 8.5t15 23.5q0 14 -14 23t-41 9t-41.5 -9t-14.5 -23q0 -15 15 -23.5t41 -8.5zM227 394q-43 0 -80 7t-64 21t-42.5 35t-15.5 50q0 22 9.5 39t23.5 28t30.5 17t30.5 6v5 q-11 1 -24.5 5.5t-25 14t-19 23.5t-7.5 34q0 28 14 48.5t38.5 33t58.5 18.5t73 6q40 0 73.5 -6t58.5 -18.5t39 -32.5t14 -48q0 -20 -8 -34.5t-19.5 -24t-25 -14t-25.5 -5.5v-5q15 0 31.5 -6t30.5 -17t23 -28t9 -39q0 -29 -15 -50t-42 -35t-64 -21t-80 -7z" horiz-adv-x="453" unicode="⁸"/><glyph d="M210 785q103 0 156 -53t53 -142q0 -90 -52.5 -143t-155.5 -53q-51 0 -84.5 11t-53 27.5t-27 35.5t-7.5 34q0 10 2 18h140v-5q0 -10 7 -20.5t32 -10.5q9 0 18.5 4t18 12.5t14 22t5.5 33.5q0 8 -2 14h-5q-9 -9 -36 -21t-69 -12q-66 0 -102.5 30t-36.5 78q0 70 50 105 t135 35zM251 654q0 20 -11 28.5t-31 8.5q-19 0 -31 -8.5t-12 -27.5q0 -35 43 -35q20 0 31 8.5t11 25.5z" horiz-adv-x="445" unicode="⁹"/><glyph d="M226 -170q-97 0 -148.5 53.5t-51.5 141.5q0 89 51.5 142.5t148.5 53.5t149 -53.5t52 -142.5q0 -88 -52 -141.5t-149 -53.5zM226 -67q55 0 55 92q0 45 -14 69t-41 24q-28 0 -41 -24t-13 -69q0 -92 54 -92z" horiz-adv-x="453" unicode="₀"/><glyph d="M97 47h-87v96q57 0 87 14.5t30 58.5h110v-380h-140v211z" horiz-adv-x="298" unicode="₁"/><glyph d="M220 -67q2 0 22 2.5t60 2.5h79v-102h-347v84l175 119q34 22 34 49q0 14 -9 26.5t-33 12.5q-19 0 -29 -11.5t-10 -30.5q0 -6 1 -11.5t1 -10.5l-132 -1q0 4 -1 11.5t-1 17.5q0 16 5.5 38t23.5 42.5t52.5 35t93.5 14.5q47 0 81.5 -10.5t57 -27.5t33 -40t10.5 -47 q0 -39 -23 -68t-66 -52l-42 -22q-14 -8 -24 -12t-14 -6z" horiz-adv-x="417" unicode="₂"/><glyph d="M159 -13v-5q0 -9 2 -18.5t7.5 -17t16.5 -12.5t29 -5q23 0 36.5 8.5t13.5 22.5q0 16 -12.5 21t-32.5 5h-35v89h34q17 0 28.5 4t11.5 18q0 27 -47 27q-32 0 -41 -13.5t-9 -26.5v-5h-123q-1 5 -1 17q0 17 6 38.5t25 41t54.5 32.5t93.5 13q38 0 71.5 -6t58 -18.5t38.5 -32 t14 -45.5q0 -20 -8 -35t-19 -25t-24.5 -15t-23.5 -6v-5q14 -1 29.5 -6t28 -15t21 -25.5t8.5 -37.5q0 -29 -14.5 -51t-40 -37t-61 -23t-76.5 -8q-64 0 -102.5 16t-59.5 38t-27.5 46t-6.5 40q0 6 0.5 10t0.5 6z" horiz-adv-x="436" unicode="₃"/><glyph d="M16 -15l181 231h165v-222h60v-95h-60v-63h-143v63h-203v86zM223 -8l3 114h-6l-79 -111v-3h82z" horiz-adv-x="445" unicode="₄"/><glyph d="M160 -36v-4q0 -11 12 -23.5t38 -12.5q22 0 36.5 13.5t14.5 33.5q0 24 -14.5 37t-37.5 13q-17 0 -30.5 -7.5t-18.5 -18.5h-126l25 221h305v-93h-189l-4 -52h5q11 7 36 13t52 6q68 0 105.5 -31t37.5 -85q0 -34 -15 -61t-40.5 -45.5t-60 -28t-74.5 -9.5q-58 0 -95.5 12.5 t-59 31t-30 40t-8.5 39.5q0 8 1 10z" horiz-adv-x="427" unicode="₅"/><glyph d="M235 -170q-103 0 -156 53.5t-53 142.5t52.5 142t155.5 53q51 0 84 -11t52.5 -27.5t27.5 -35.5t8 -34q0 -9 -2 -17q-35 0 -70 -0.5t-70 -0.5v3q0 10 -7 22t-32 12q-9 0 -18.5 -4t-18 -12.5t-14 -22.5t-5.5 -34q0 -5 2 -13h5q9 9 36 20.5t69 11.5q66 0 102.5 -29.5 t36.5 -78.5q0 -69 -50 -104.5t-135 -35.5zM194 -39q0 -19 11 -28t31 -9q19 0 31 9t12 28q0 34 -43 34q-20 0 -31 -8.5t-11 -25.5z" horiz-adv-x="445" unicode="₆"/><glyph d="M26 216h356v-82q-2 -5 -15 -26.5t-31.5 -51t-40 -63.5t-40.5 -65.5t-33 -56.5t-17 -35h-152v13q2 9 15 31t31 50t39 58.5t39 56.5t30 45t14 24h-89v-47h-106v149z" horiz-adv-x="395" unicode="₇"/><glyph d="M227 74q20 0 33 7.5t13 20.5q0 28 -46 28t-46 -28q0 -13 13 -20.5t33 -7.5zM227 -77q25 0 40 8.5t15 23.5q0 14 -14 23t-41 9t-41.5 -9t-14.5 -23q0 -15 15 -23.5t41 -8.5zM227 -170q-43 0 -80 7t-64 21t-42.5 35t-15.5 50q0 22 9.5 39t23.5 28t30.5 17t30.5 6v5 q-11 1 -24.5 5.5t-25 14t-19 23.5t-7.5 34q0 28 14 48.5t38.5 33t58.5 18.5t73 6q40 0 73.5 -6t58.5 -18.5t39 -32.5t14 -48q0 -20 -8 -34.5t-19.5 -24t-25 -14t-25.5 -5.5v-5q15 0 31.5 -6t30.5 -17t23 -28t9 -39q0 -29 -15 -50t-42 -35t-64 -21t-80 -7z" horiz-adv-x="453" unicode="₈"/><glyph d="M210 221q103 0 156 -53t53 -142q0 -90 -52.5 -143t-155.5 -53q-51 0 -84.5 11t-53 27.5t-27 35.5t-7.5 34q0 10 2 18h140v-5q0 -10 7 -20.5t32 -10.5q9 0 18.5 4t18 12.5t14 22t5.5 33.5q0 8 -2 14h-5q-9 -9 -36 -21t-69 -12q-66 0 -102.5 30t-36.5 78q0 70 50 105 t135 35zM251 90q0 20 -11 28.5t-31 8.5q-19 0 -31 -8.5t-12 -27.5q0 -35 43 -35q20 0 31 8.5t11 25.5z" horiz-adv-x="445" unicode="₉"/><glyph d="M74 454h86q29 119 123.5 182.5t244.5 63.5q38 0 75 -5t70 -13.5t60.5 -19t46.5 -22.5l-79 -160q-34 24 -74 35t-81 11q-51 0 -85 -19.5t-54 -52.5h283l-44 -90h-265q-1 -5 -1 -10.5v-10.5v-9.5t1 -9.5h247l-44 -90h-177q20 -32 53.5 -50.5t83.5 -18.5q86 0 169 77 l25 -201q-41 -20 -93.5 -35.5t-134.5 -15.5q-139 0 -230.5 63.5t-120.5 180.5h-128l43 90h73v19v21h-116z" horiz-adv-x="810" unicode="€"/><glyph d="M412 41q-29 -22 -67.5 -36.5t-80.5 -14.5q-59 0 -95 31t-36 103v84l-71 -69l-42 74l113 104v229q0 84 40.5 134t109.5 50q72 0 106 -39.5t34 -106.5t-38 -140t-129 -159v-124q0 -38 11 -50.5t33 -12.5q23 0 43.5 12t42.5 34zM341 572q0 27 -12 40t-28 13q-45 0 -45 -58 v-162q38 36 61.5 79t23.5 88z" horiz-adv-x="448" unicode="ℓ"/><glyph d="M241 550h200q50 0 86 -12.5t58.5 -34t33 -50.5t10.5 -63q0 -29 -10.5 -55.5t-33 -46.5t-58.5 -32.5t-86 -12.5h-48v-106h-152v413zM419 334q41 0 54 14.5t13 42.5q0 23 -13 37t-54 14h-26v-108h26zM34 345q0 77 27.5 142t76.5 112.5t117 74t148 26.5t148 -26.5t117 -74 t76.5 -112.5t27.5 -142t-27.5 -142.5t-76.5 -112.5t-117 -73.5t-148 -26.5t-148 26.5t-117 73.5t-76.5 112.5t-27.5 142.5zM113 345q0 -61 21.5 -112.5t60 -89t91.5 -58.5t117 -21t117 21t91.5 58.5t59.5 89t21 112.5t-21 112.5t-59.5 89t-91.5 58.5t-117 21t-117 -21 t-91.5 -58.5t-60 -89t-21.5 -112.5z" horiz-adv-x="806" unicode="℗"/><glyph d="M371 690h141l52 -225h5l53 225h143v-301h-103l8 183h-4l-48 -183h-101l-50 183h-4l9 -183h-101v301zM126 610h-88v80h282v-80h-88v-221h-106v221z" horiz-adv-x="813" unicode="™"/><glyph d="M426 526q-70 0 -111 -39.5t-41 -117.5q0 -40 11 -72t27.5 -56t36 -40.5t36.5 -25.5v-175h-335v175h105q-47 38 -80.5 92t-33.5 126q0 68 26 124.5t75 97t120.5 63t163.5 22.5q91 0 163 -22.5t121 -63t75 -97t26 -124.5q0 -36 -9 -67.5t-24.5 -58.5t-36.5 -50t-44 -42h105 v-175h-335v175q17 10 36.5 26t36 39.5t27.5 55t11 73.5q0 78 -41 117.5t-111 39.5z" horiz-adv-x="851" unicode="Ω"/><glyph d="M187 348v-236q77 -77 189 -77q81 0 142 37t110 120l46 -28q-30 -47 -61 -80t-66.5 -54.5t-77.5 -31.5t-93 -10q-77 0 -139 28t-106 76.5t-68 114.5t-24 141q0 76 24 142t68 114.5t106 76.5t139 28q75 0 137.5 -26.5t106.5 -74.5t69 -114.5t25 -145.5h-527zM567 396v189 q-83 78 -192 78q-110 0 -188 -78v-189h380z" horiz-adv-x="746" unicode="℮"/><glyph d="M121 10l482 680h134v-10l-481 -680h-135v10zM117 522h-87v96q57 0 87 14.5t30 58.5h110v-380h-140v211zM678 153v-5q0 -9 2 -18.5t7.5 -17t16.5 -12.5t29 -5q23 0 36.5 8.5t13.5 22.5q0 16 -12.5 21t-32.5 5h-35v89h34q17 0 28.5 4t11.5 18q0 27 -47 27q-32 0 -41 -13.5 t-9 -26.5v-5h-123q-1 5 -1 17q0 17 6 38.5t25 41t54.5 32.5t93.5 13q38 0 71.5 -6t58 -18.5t38.5 -32t14 -45.5q0 -20 -8 -35t-19 -25t-24.5 -15t-23.5 -6v-5q14 -1 29.5 -6t28 -15t21 -25.5t8.5 -37.5q0 -29 -14.5 -51t-40 -37t-61 -23t-76.5 -8q-64 0 -102.5 16t-59.5 38 t-27.5 46t-6.5 40q0 6 0.5 10t0.5 6z" horiz-adv-x="962" unicode="⅓"/><glyph d="M234 10l482 680h134v-10l-481 -680h-135v10zM229 408q2 0 22 2.5t60 2.5h79v-102h-347v84l175 119q34 22 34 49q0 14 -9 26.5t-33 12.5q-19 0 -29 -11.5t-10 -30.5q0 -6 1 -11.5t1 -10.5l-132 -1q0 4 -1 11.5t-1 17.5q0 16 5.5 38t23.5 42.5t52.5 35t93.5 14.5 q47 0 81.5 -10.5t57 -27.5t33 -40t10.5 -47q0 -39 -23 -68t-66 -52l-42 -22q-14 -8 -24 -12t-14 -6zM771 153v-5q0 -9 2 -18.5t7.5 -17t16.5 -12.5t29 -5q23 0 36.5 8.5t13.5 22.5q0 16 -12.5 21t-32.5 5h-35v89h34q17 0 28.5 4t11.5 18q0 27 -47 27q-32 0 -41 -13.5 t-9 -26.5v-5h-123q-1 5 -1 17q0 17 6 38.5t25 41t54.5 32.5t93.5 13q38 0 71.5 -6t58 -18.5t38.5 -32t14 -45.5q0 -20 -8 -35t-19 -25t-24.5 -15t-23.5 -6v-5q14 -1 29.5 -6t28 -15t21 -25.5t8.5 -37.5q0 -29 -14.5 -51t-40 -37t-61 -23t-76.5 -8q-64 0 -102.5 16t-59.5 38 t-27.5 46t-6.5 40q0 6 0.5 10t0.5 6z" horiz-adv-x="1053" unicode="⅔"/><glyph d="M121 10l482 680h134v-10l-481 -680h-135v10zM117 522h-87v96q57 0 87 14.5t30 58.5h110v-380h-140v211zM753 240q20 0 33 7.5t13 20.5q0 28 -46 28t-46 -28q0 -13 13 -20.5t33 -7.5zM753 89q25 0 40 8.5t15 23.5q0 14 -14 23t-41 9t-41.5 -9t-14.5 -23q0 -15 15 -23.5 t41 -8.5zM753 -4q-43 0 -80 7t-64 21t-42.5 35t-15.5 50q0 22 9.5 39t23.5 28t30.5 17t30.5 6v5q-11 1 -24.5 5.5t-25 14t-19 23.5t-7.5 34q0 28 14 48.5t38.5 33t58.5 18.5t73 6q40 0 73.5 -6t58.5 -18.5t39 -32.5t14 -48q0 -20 -8 -34.5t-19.5 -24t-25 -14t-25.5 -5.5v-5 q15 0 31.5 -6t30.5 -17t23 -28t9 -39q0 -29 -15 -50t-42 -35t-64 -21t-80 -7z" horiz-adv-x="987" unicode="⅛"/><glyph d="M232 10l482 680h134v-10l-481 -680h-135v10zM864 240q20 0 33 7.5t13 20.5q0 28 -46 28t-46 -28q0 -13 13 -20.5t33 -7.5zM864 89q25 0 40 8.5t15 23.5q0 14 -14 23t-41 9t-41.5 -9t-14.5 -23q0 -15 15 -23.5t41 -8.5zM864 -4q-43 0 -80 7t-64 21t-42.5 35t-15.5 50 q0 22 9.5 39t23.5 28t30.5 17t30.5 6v5q-11 1 -24.5 5.5t-25 14t-19 23.5t-7.5 34q0 28 14 48.5t38.5 33t58.5 18.5t73 6q40 0 73.5 -6t58.5 -18.5t39 -32.5t14 -48q0 -20 -8 -34.5t-19.5 -24t-25 -14t-25.5 -5.5v-5q15 0 31.5 -6t30.5 -17t23 -28t9 -39q0 -29 -15 -50 t-42 -35t-64 -21t-80 -7zM168 462v-5q0 -9 2 -18.5t7.5 -17t16.5 -12.5t29 -5q23 0 36.5 8.5t13.5 22.5q0 16 -12.5 21t-32.5 5h-35v89h34q17 0 28.5 4t11.5 18q0 27 -47 27q-32 0 -41 -13.5t-9 -26.5v-5h-123q-1 5 -1 17q0 17 6 38.5t25 41t54.5 32.5t93.5 13q38 0 71.5 -6 t58 -18.5t38.5 -32t14 -45.5q0 -20 -8 -35t-19 -25t-24.5 -15t-23.5 -6v-5q14 -1 29.5 -6t28 -15t21 -25.5t8.5 -37.5q0 -29 -14.5 -51t-40 -37t-61 -23t-76.5 -8q-64 0 -102.5 16t-59.5 38t-27.5 46t-6.5 40q0 6 0.5 10t0.5 6z" horiz-adv-x="1096" unicode="⅜"/><glyph d="M224 10l482 680h134v-10l-481 -680h-135v10zM167 439v-4q0 -11 12 -23.5t38 -12.5q22 0 36.5 13.5t14.5 33.5q0 24 -14.5 37t-37.5 13q-17 0 -30.5 -7.5t-18.5 -18.5h-126l25 221h305v-93h-189l-4 -52h5q11 7 36 13t52 6q68 0 105.5 -31t37.5 -85q0 -34 -15 -61 t-40.5 -45.5t-60 -28t-74.5 -9.5q-58 0 -95.5 12.5t-59 31t-30 40t-8.5 39.5q0 8 1 10zM856 240q20 0 33 7.5t13 20.5q0 28 -46 28t-46 -28q0 -13 13 -20.5t33 -7.5zM856 89q25 0 40 8.5t15 23.5q0 14 -14 23t-41 9t-41.5 -9t-14.5 -23q0 -15 15 -23.5t41 -8.5zM856 -4 q-43 0 -80 7t-64 21t-42.5 35t-15.5 50q0 22 9.5 39t23.5 28t30.5 17t30.5 6v5q-11 1 -24.5 5.5t-25 14t-19 23.5t-7.5 34q0 28 14 48.5t38.5 33t58.5 18.5t73 6q40 0 73.5 -6t58.5 -18.5t39 -32.5t14 -48q0 -20 -8 -34.5t-19.5 -24t-25 -14t-25.5 -5.5v-5q15 0 31.5 -6 t30.5 -17t23 -28t9 -39q0 -29 -15 -50t-42 -35t-64 -21t-80 -7z" horiz-adv-x="1088" unicode="⅝"/><glyph d="M130 10l482 680h134v-10l-481 -680h-135v10zM762 240q20 0 33 7.5t13 20.5q0 28 -46 28t-46 -28q0 -13 13 -20.5t33 -7.5zM762 89q25 0 40 8.5t15 23.5q0 14 -14 23t-41 9t-41.5 -9t-14.5 -23q0 -15 15 -23.5t41 -8.5zM762 -4q-43 0 -80 7t-64 21t-42.5 35t-15.5 50 q0 22 9.5 39t23.5 28t30.5 17t30.5 6v5q-11 1 -24.5 5.5t-25 14t-19 23.5t-7.5 34q0 28 14 48.5t38.5 33t58.5 18.5t73 6q40 0 73.5 -6t58.5 -18.5t39 -32.5t14 -48q0 -20 -8 -34.5t-19.5 -24t-25 -14t-25.5 -5.5v-5q15 0 31.5 -6t30.5 -17t23 -28t9 -39q0 -29 -15 -50 t-42 -35t-64 -21t-80 -7zM36 691h356v-82q-2 -5 -15 -26.5t-31.5 -51t-40 -63.5t-40.5 -65.5t-33 -56.5t-17 -35h-152v13q2 9 15 31t31 50t39 58.5t39 56.5t30 45t14 24h-89v-47h-106v149z" horiz-adv-x="994" unicode="⅞"/><glyph d="M626 264h-384q12 -12 25.5 -24.5t27.5 -26.5l126 -127h-177l-200 206v68l200 202h176l-124 -125l-28 -28t-27 -25h385v-120z" unicode="←"/><glyph d="M275 33v385q-12 -14 -25 -27.5t-28 -27.5l-125 -124v176l202 200h68l206 -200v-177l-127 126l-27 27t-24 26v-384h-120z" unicode="↑"/><glyph d="M44 384h385q-14 12 -27.5 25t-27.5 28l-124 125h176l200 -202v-68l-200 -206h-177l126 127l27 27t26 24h-384v120z" unicode="→"/><glyph d="M395 615v-384q11 13 24 26l27 27l127 126v-177l-206 -200h-68l-202 200v176l125 -124q15 -14 28 -27.5t25 -27.5v385h120z" unicode="↓"/><glyph d="M498 76l-271 271q1 -17 1 -35v-38v-179l-126 125v287l53 50h284l124 -126h-176h-39.5t-36.5 2l272 -272z" unicode="↖"/><glyph d="M102 161l271 271q-17 -1 -35 -1h-38h-179l125 126h287l50 -53v-284l-126 -124v176v39.5t2 36.5l-272 -272z" unicode="↗"/><glyph d="M187 557l271 -271q-1 17 -1 35v38v179l126 -125v-287l-53 -50h-284l-124 126h176h39.5t36.5 -2l-272 272z" unicode="↘"/><glyph d="M583 472l-271 -271q17 1 35 1h38h179l-125 -126h-287l-50 53v284l126 124v-176v-39.5t-2 -36.5l272 272z" unicode="↙"/><glyph d="M114 657q29 16 81.5 29.5t119.5 13.5q84 0 150.5 -25t113 -71.5t71.5 -112t25 -146.5t-22 -146.5t-65 -112t-106.5 -71.5t-147.5 -25q-69 0 -125 16t-95.5 47.5t-61 78.5t-21.5 110q0 44 15.5 80.5t45 62.5t72.5 40.5t98 14.5q36 0 65 -7t51.5 -17t37.5 -21t22 -18h9 q1 5 1.5 11t0.5 13q0 39 -13 66.5t-33.5 45t-46 25.5t-51.5 8q-33 0 -72 -13.5t-68 -35.5zM409 227q0 33 -21 51.5t-56 18.5q-37 0 -57 -18.5t-20 -52.5q0 -38 21 -56t56 -18t56 18.5t21 56.5z" horiz-adv-x="716" unicode="∂"/><glyph d="M273 690h280l247 -690h-773zM528 175l-110 352h-9l-111 -352h230z" horiz-adv-x="827" unicode="∆"/><glyph d="M49 720h696v-920h-222v748h-254v-748h-220v920z" horiz-adv-x="794" unicode="∏"/><glyph d="M38 -200v156l245 318l-234 292v154h552v-172h-301l207 -274l-214 -299h319v-175h-574z" horiz-adv-x="642" unicode="∑"/><glyph d="M98 203v143h473v-143h-473z" unicode="−"/><glyph d="M-259 10l482 680h134v-10l-481 -680h-135v10z" horiz-adv-x="116" unicode="∕"/><glyph d="M137 238q-42 0 -67.5 25.5t-25.5 64.5q0 40 25.5 65.5t67.5 25.5q40 0 65 -25.5t25 -65.5q0 -39 -25 -64.5t-65 -25.5z" horiz-adv-x="271" unicode="∙"/><glyph d="M464 -200h-189l-140 256l-77 -27l-65 158l213 88l128 -252l136 697h198z" horiz-adv-x="671" unicode="√"/><glyph d="M749 266q0 -36 -10.5 -68t-30 -55t-48.5 -36.5t-65 -13.5q-60 0 -110 26.5t-90 61.5q-23 -17 -45 -32.5t-46 -27.5t-51 -19.5t-59 -7.5q-35 0 -63.5 13t-48.5 35.5t-31 53.5t-11 67q0 35 10 66t29.5 54.5t48 37t64.5 13.5q32 0 60 -8t52.5 -20.5t47 -29.5t43.5 -35 q21 18 42.5 35t45.5 30.5t51.5 22t59.5 8.5q36 0 64.5 -13t48.5 -36.5t31 -54.5t11 -67zM605 264q0 19 -11 32t-28 13q-19 0 -36 -16t-29 -30q14 -14 29.5 -28t35.5 -14q17 0 28 12.5t11 30.5zM288 263q-6 6 -13.5 14t-16 15t-17.5 11.5t-18 4.5q-17 0 -28 -13.5t-11 -30.5 q0 -20 12 -31.5t29 -11.5t34.5 14t28.5 28z" horiz-adv-x="793" unicode="∞"/><glyph d="M403 55q0 -66 -14.5 -116t-46 -83t-81.5 -49.5t-122 -16.5q-51 0 -84 12t-52 31.5t-26.5 44t-7.5 50.5q0 20 2 38.5t4 29.5l124 -2q-1 -5 -1.5 -10t-0.5 -10q0 -18 9.5 -29t28.5 -11q25 0 40 12.5t15 47.5v471q0 66 14.5 116t46 83t81.5 49.5t122 16.5q51 0 84 -12 t52 -31.5t26.5 -44t7.5 -50.5q0 -20 -2 -38.5t-4 -29.5l-124 2q1 5 1.5 10t0.5 10q0 18 -9.5 29t-28.5 11q-25 0 -40 -12.5t-15 -47.5v-471z" horiz-adv-x="625" unicode="∫"/><glyph d="M80 323q5 33 16.5 65.5t29.5 58t43.5 41.5t58.5 16t58.5 -9t51.5 -21q30 -14 46.5 -22t37.5 -8q18 0 30 12.5t16 34.5h120q-3 -34 -14 -67t-30 -59.5t-46.5 -43t-62.5 -16.5q-36 0 -61 8t-54 22q-14 7 -32.5 15t-42.5 8q-20 0 -31.5 -10t-13.5 -25h-120zM80 88 q5 33 16.5 65.5t29.5 58t43.5 41.5t58.5 16t58.5 -9t51.5 -21q30 -14 46.5 -22t37.5 -8q18 0 30 12.5t16 34.5h120q-3 -34 -14 -67t-30 -59.5t-46.5 -43t-62.5 -16.5q-36 0 -61 8t-54 22q-14 7 -32.5 15t-42.5 8q-20 0 -31.5 -10t-13.5 -25h-120z" unicode="≈"/><glyph d="M172 0l33 78h-107v143h168l47 112h-215v143h276l36 84h93l-36 -84h104v-143h-165l-47 -112h212v-143h-273l-33 -78h-93z" unicode="≠"/><glyph d="M93 478l473 152v-161l-300 -69v-9l300 -69v-161l-473 153v164zM93 0v143h473v-143h-473z" unicode="≤"/><glyph d="M577 314l-473 -153v161l300 69v9l-300 69v161l473 -152v-164zM104 0v143h473v-143h-473z" unicode="≥"/><glyph d="M425 0h-198l-200 361l202 360h196l203 -360zM327 581l-116 -220l116 -219l115 219z" horiz-adv-x="654" unicode="◊"/><glyph d="M0 490h490v-490h-490v490z" horiz-adv-x="490" unicode=""/><glyph d="M412 -47v-139q0 -38 -10 -67.5t-35.5 -49t-68.5 -28.5t-110 -5l7 81q64 -5 89 12.5t25 48.5h-114v147h217z" horiz-adv-x="619" unicode=""/><glyph d="M562 720v-720h-512v720h512zM310 283v18q0 16 22 33t48 38.5t48 48t22 62.5q0 49 -35 82.5t-103 33.5q-42 0 -68 -14.5t-40.5 -35t-19.5 -42.5t-5 -38v-7t1 -8l47 -3q-1 5 -1 8.5v6.5q0 17 4.5 33.5t15 29t27 20t39.5 7.5q42 0 64.5 -20.5t22.5 -52.5q0 -28 -21.5 -50 t-47 -42.5t-47 -42t-21.5 -47.5v-18h48zM255 123h68v71h-68v-71z" horiz-adv-x="612" unicode=""/><glyph d="M92 370h-79v120h79v37q0 106 54 154.5t161 48.5q35 0 70.5 -4t69.5 -12l-18 -140q-19 7 -37 9.5t-32 2.5q-25 0 -40 -12.5t-15 -47.5v-36h129v-120h-129v-370h-213v370zM503 490h213v-490h-213v490zM503 700h213v-147h-213v147z" horiz-adv-x="767" unicode="ﬁ"/><glyph d="M92 370h-79v120h79v37q0 106 54 154.5t161 48.5q35 0 70.5 -4t69.5 -12l-18 -140q-19 7 -37 9.5t-32 2.5q-25 0 -40 -12.5t-15 -47.5v-36h129v-120h-129v-370h-213v370zM502 720h213v-720h-213v720z" horiz-adv-x="766" unicode="ﬂ"/><glyph d="M188 830v10h241l97 -100v-10h-215z" horiz-adv-x="627"/><glyph d="M88 740l147 100h241v-10l-172 -100h-216v10z" horiz-adv-x="627"/><glyph d="M88 742l91 130h260l92 -130v-10h-158l-60 63h-7l-61 -63h-157v10z" horiz-adv-x="636"/><glyph d="M531 860l-91 -130h-260l-92 130v10h158l60 -63h7l61 63h157v-10z" horiz-adv-x="636"/><glyph d="M412 690v-139q0 -38 -10 -67.5t-35.5 -49t-68.5 -28.5t-110 -5l7 81q64 -5 89 12.5t25 48.5h-114v147h217z" horiz-adv-x="619"/><glyph d="M62 730q-1 163 124 163q24 0 46 -5t37 -11l54 -21q15 -6 27 -6q16 0 23.5 9.5t8.5 24.5h122q2 -163 -136 -163q-22 0 -42.5 4.5t-36.5 10.5l-45 16q-11 4 -18 6t-12 2q-17 0 -23.5 -8t-8.5 -22h-120v0z" horiz-adv-x="630"/><glyph d="M357 873h181v-142h-181v142zM85 873h181v-142h-181v142z" horiz-adv-x="646"/><glyph d="M120 860h393v-130h-393v130z" horiz-adv-x="633"/><glyph d="M315 709q-45 0 -82 10t-64 32t-43.5 57.5t-19.5 85.5h112q2 -43 30.5 -60.5t66.5 -17.5q41 0 68 17.5t29 60.5h113q-3 -50 -19.5 -85.5t-44 -57.5t-64.5 -32t-82 -10z" horiz-adv-x="633"/><glyph d="M311 720q-30 0 -55.5 9.5t-44 26t-29 39t-10.5 49.5t10.5 49.5t29 39t44 26t55.5 9.5t55.5 -9.5t44 -26t29 -39t10.5 -49.5t-10.5 -49.5t-29 -39t-44 -26t-55.5 -9.5zM311 797q23 0 36 13t13 34t-13 33t-36 12t-37 -12t-14 -33t14 -34t37 -13z" horiz-adv-x="624"/><glyph d="M309 740l123 120h231v-10l-178 -120h-176v10zM20 740l122 120h232v-10l-179 -120h-175v10z" horiz-adv-x="651"/><glyph d="M203 873h211v-143h-211v143z" horiz-adv-x="617"/><glyph d="M379 -31q16 -17 30 -44t14 -63q0 -53 -36 -87.5t-115 -34.5q-41 0 -70 9t-46 21l14 108q14 -10 29.5 -16t31.5 -6q20 0 29.5 11t9.5 23q0 23 -18 53z" horiz-adv-x="617"/><glyph d="M46 -144q0 39 28 70.5t94 62.5l138 59l52 -48l-95 -54q-15 -8 -24 -18.5t-9 -24.5t9.5 -19.5t22.5 -5.5q23 0 50 13t52 34l7 -131q-9 -6 -27 -12.5t-41 -12t-50.5 -9t-55.5 -3.5q-66 0 -108.5 23t-42.5 76z" horiz-adv-x="612"/><glyph d="M412 -47v-139q0 -38 -10 -67.5t-35.5 -49t-68.5 -28.5t-110 -5l7 81q64 -5 89 12.5t25 48.5h-114v147h217z" horiz-adv-x="619"/><glyph d="M188 558v139q0 37 10 67t35.5 49.5t68.5 28.5t110 5l-7 -81q-65 4 -89.5 -13t-24.5 -48h114v-147h-217z" horiz-adv-x="619"/></font>
</defs>
</svg>
