<svg id="svg" version="1.1" width="360" height="223" xmlns="http://www.w3.org/2000/svg"><path d="M0.000 59.059 C 0.000 95.255,0.360 117.895,0.931 117.543 C 1.443 117.226,2.146 117.428,2.494 117.991 C 2.842 118.554,2.423 119.284,1.563 119.614 C 0.523 120.013,0.000 121.492,0.000 124.037 C 0.000 127.197,0.377 127.916,2.172 128.180 C 5.170 128.622,5.627 130.773,2.808 131.173 C 0.820 131.455,0.458 132.159,0.195 136.246 L -0.109 140.992 2.515 139.994 C 5.710 138.779,10.000 139.704,10.000 141.608 C 10.000 142.907,6.506 143.569,1.750 143.170 C 0.110 143.033,0.000 145.539,0.000 183.012 L 0.000 223.000 149.250 222.884 C 231.338 222.820,297.689 222.558,296.697 222.300 C 295.266 221.929,295.136 221.541,296.069 220.416 C 297.005 219.289,296.899 219.000,295.551 219.000 C 294.031 219.000,294.014 218.843,295.386 217.471 C 296.227 216.630,296.661 215.280,296.351 214.471 C 295.706 212.791,293.420 212.511,292.500 214.000 C 291.566 215.511,290.000 215.198,290.000 213.500 C 290.000 212.675,290.675 212.000,291.500 212.000 C 293.059 212.000,293.484 210.818,292.337 209.671 C 291.973 209.306,291.517 207.566,291.324 205.805 C 291.131 204.043,290.512 202.316,289.948 201.968 C 289.260 201.542,289.317 200.375,290.123 198.417 C 290.783 196.813,291.230 195.102,291.117 194.616 C 291.003 194.130,292.298 194.010,293.993 194.349 C 296.327 194.815,297.231 194.562,297.713 193.306 C 298.279 191.831,298.440 191.860,299.159 193.573 C 299.852 195.224,299.943 195.141,299.797 193.000 C 299.536 189.165,300.970 185.775,302.590 186.396 C 303.424 186.716,304.000 186.313,304.000 185.410 C 304.000 184.569,304.441 184.154,304.979 184.487 C 305.518 184.820,306.775 184.656,307.772 184.122 C 309.247 183.332,309.616 183.548,309.746 185.280 C 309.834 186.450,309.440 187.969,308.871 188.656 C 308.301 189.342,308.107 190.762,308.440 191.811 C 308.788 192.907,308.438 194.222,307.616 194.904 C 306.507 195.824,306.403 196.877,307.154 199.596 C 307.686 201.524,307.828 205.441,307.469 208.301 C 306.711 214.345,306.728 214.128,306.882 215.750 C 307.036 217.384,308.807 217.384,308.683 215.750 C 308.630 215.063,308.955 212.813,309.405 210.750 L 310.223 207.000 315.095 211.079 C 318.403 213.849,320.344 216.418,321.142 219.079 L 322.317 223.000 341.158 223.000 L 360.000 223.000 360.000 139.604 L 360.000 56.207 356.466 53.105 C 350.338 47.724,348.180 46.606,346.543 47.964 C 345.747 48.625,344.260 48.900,343.238 48.576 C 341.942 48.164,340.491 48.987,338.440 51.296 C 333.437 56.927,332.145 56.759,323.817 49.387 C 320.526 46.473,319.568 46.152,314.817 46.367 C 311.893 46.499,308.285 46.021,306.800 45.304 C 300.337 42.184,294.675 44.886,293.397 51.700 C 293.051 53.542,291.999 55.600,291.059 56.274 C 288.674 57.984,283.946 68.386,283.540 72.817 C 283.091 77.719,282.940 77.934,282.000 75.000 C 281.285 72.769,281.189 72.903,281.100 76.250 C 281.045 78.313,281.450 80.000,282.000 80.000 C 282.550 80.000,283.000 82.282,283.000 85.071 C 283.000 90.016,284.786 93.431,287.433 93.547 C 289.284 93.628,293.000 96.427,293.000 97.741 C 293.000 99.678,299.458 99.270,303.344 97.088 C 305.217 96.036,309.345 94.851,312.519 94.454 C 317.020 93.892,319.082 93.022,321.895 90.499 C 326.616 86.264,329.470 85.423,332.462 87.383 C 335.184 89.167,336.779 94.621,335.077 96.323 C 334.458 96.942,330.302 97.558,325.841 97.693 C 321.379 97.827,317.477 98.189,317.169 98.498 C 314.574 101.092,318.040 106.458,321.715 105.535 C 324.589 104.814,329.470 107.261,331.580 110.482 C 332.459 111.824,334.151 113.218,335.339 113.579 C 339.369 114.805,340.804 117.005,341.503 123.028 C 342.302 129.909,341.451 133.120,335.733 144.791 C 329.914 156.668,327.669 158.336,315.404 159.900 C 306.517 161.032,305.010 160.988,301.248 159.483 C 297.805 158.105,296.854 157.134,296.025 154.149 C 295.467 152.142,295.009 149.761,295.006 148.857 C 295.003 147.953,294.419 146.991,293.708 146.718 C 292.170 146.128,289.000 148.243,289.000 149.860 C 289.000 150.487,288.626 151.000,288.169 151.000 C 287.712 151.000,286.736 152.125,286.000 153.500 C 285.264 154.875,283.838 156.000,282.831 156.000 C 281.824 156.000,281.000 156.436,281.000 156.969 C 281.000 157.501,280.325 157.678,279.500 157.362 C 278.550 156.997,278.000 157.375,278.000 158.393 C 278.000 159.277,277.239 160.000,276.309 160.000 C 274.794 160.000,274.809 160.140,276.457 161.345 C 278.216 162.631,278.203 162.714,276.148 163.251 C 274.529 163.674,274.000 164.582,274.000 166.938 C 274.000 168.786,273.390 170.297,272.507 170.636 C 271.506 171.020,271.209 171.984,271.605 173.561 C 272.098 175.527,271.727 176.028,269.347 176.610 C 267.781 176.994,266.275 177.576,266.000 177.904 C 264.623 179.545,261.112 180.675,257.750 180.558 C 255.293 180.473,254.000 180.871,254.000 181.714 C 254.000 182.421,253.438 183.069,252.750 183.152 C 249.224 183.582,248.440 183.485,247.765 182.535 C 247.299 181.878,247.025 181.978,247.015 182.809 C 247.007 183.529,246.550 183.840,246.000 183.500 C 245.450 183.160,245.000 183.471,244.999 184.191 C 244.999 184.911,243.815 185.569,242.369 185.652 C 240.922 185.736,239.354 186.411,238.885 187.152 C 238.252 188.151,238.027 188.176,238.015 187.250 C 238.007 186.563,237.073 186.000,235.941 186.000 C 234.809 186.000,234.160 186.450,234.500 187.000 C 234.840 187.550,234.641 188.000,234.059 188.000 C 233.477 188.000,233.000 187.625,233.000 187.167 C 233.000 186.708,232.438 186.266,231.750 186.183 C 231.063 186.101,228.925 185.769,227.000 185.446 C 224.656 185.052,223.948 185.171,224.857 185.804 C 225.866 186.508,225.913 186.936,225.039 187.476 C 224.392 187.876,224.143 188.931,224.485 189.821 C 224.826 190.711,224.803 191.137,224.434 190.767 C 224.064 190.398,223.108 190.749,222.310 191.548 C 221.511 192.346,220.102 193.034,219.179 193.077 C 216.437 193.201,214.573 193.662,203.588 196.928 C 194.814 199.536,191.442 200.040,182.807 200.037 C 177.138 200.035,170.250 200.192,167.500 200.386 C 164.750 200.580,161.262 200.798,159.750 200.870 C 158.237 200.941,156.100 201.900,155.000 203.000 C 152.731 205.269,147.512 205.646,143.522 203.828 C 140.305 202.362,137.407 197.744,135.370 190.836 C 134.504 187.901,133.318 184.915,132.734 184.199 C 132.149 183.484,131.309 175.384,130.867 166.199 C 129.465 137.078,129.566 137.581,123.910 131.713 C 121.210 128.911,119.000 126.479,119.000 126.309 C 119.000 126.139,119.863 126.000,120.918 126.000 C 125.039 126.000,125.859 125.074,124.879 121.525 C 124.164 118.934,124.419 116.956,126.019 112.678 C 128.853 105.105,128.085 102.545,122.919 102.348 C 120.731 102.265,118.301 101.665,117.519 101.016 C 116.736 100.366,115.149 100.135,113.992 100.503 C 111.233 101.378,107.069 97.153,108.020 94.442 C 108.378 93.422,108.200 91.342,107.625 89.819 C 105.753 84.858,113.263 73.241,121.250 68.744 C 126.065 66.032,126.286 63.664,121.666 64.286 C 118.106 64.766,116.871 65.624,108.198 73.646 C 102.653 78.775,102.640 78.802,104.317 81.361 C 106.693 84.988,106.416 87.503,103.250 91.045 C 100.636 93.969,97.150 94.941,93.133 93.866 C 92.381 93.665,91.629 94.316,91.462 95.313 C 91.104 97.451,95.885 100.689,100.761 101.610 C 102.555 101.949,104.273 102.633,104.580 103.130 C 104.887 103.626,105.552 103.777,106.058 103.464 C 106.563 103.152,106.691 103.641,106.342 104.552 C 105.835 105.872,104.896 106.079,101.721 105.571 L 97.737 104.934 98.343 107.967 C 98.881 110.656,98.683 111.000,96.601 111.000 C 93.064 111.000,85.842 108.200,83.356 105.865 L 81.156 103.798 79.589 106.828 C 78.727 108.495,77.004 110.177,75.761 110.567 C 74.517 110.957,70.833 112.564,67.573 114.138 C 64.313 115.712,61.441 117.000,61.192 117.000 C 60.942 117.000,60.993 115.433,61.303 113.518 C 61.614 111.603,61.448 109.777,60.934 109.459 C 60.420 109.142,60.000 109.644,60.000 110.575 C 60.000 111.506,59.475 114.021,58.833 116.163 C 57.806 119.592,56.901 120.422,51.255 123.117 C 47.729 124.800,44.541 125.850,44.172 125.452 C 43.802 125.053,44.063 124.525,44.750 124.280 C 45.437 124.034,46.000 123.304,46.000 122.657 C 46.000 122.010,46.953 120.886,48.118 120.158 C 49.689 119.177,49.945 118.545,49.109 117.709 C 48.272 116.872,47.534 117.216,46.248 119.041 C 45.295 120.393,44.625 121.838,44.758 122.250 C 45.311 123.962,41.679 122.830,39.944 120.750 C 38.074 118.508,38.066 118.508,38.033 120.615 C 38.015 121.778,38.917 123.896,40.037 125.320 L 42.074 127.910 38.787 129.652 C 35.832 131.218,29.559 134.276,20.214 138.705 C 16.649 140.394,15.024 139.881,16.875 137.651 C 18.172 136.088,17.347 132.920,15.325 131.700 C 13.766 130.759,13.560 127.390,15.008 126.495 C 15.643 126.103,15.509 125.367,14.646 124.503 C 13.246 123.103,11.557 115.862,11.914 112.789 C 12.023 111.848,11.607 110.135,10.990 108.982 C 9.206 105.649,8.974 97.604,10.572 94.524 C 11.357 93.010,12.000 91.106,12.000 90.294 C 12.000 88.485,15.252 84.156,20.250 79.313 C 22.313 77.314,24.000 75.076,24.000 74.339 C 24.000 73.488,25.215 73.000,27.336 73.000 C 32.468 73.000,40.385 82.408,37.008 84.495 C 36.463 84.832,34.878 83.969,33.486 82.577 L 30.955 80.045 24.828 86.172 L 18.702 92.298 18.223 103.910 L 17.745 115.522 20.873 120.156 C 22.593 122.705,24.000 125.287,24.000 125.895 C 24.000 126.503,24.380 127.000,24.845 127.000 C 26.220 127.000,29.000 123.474,29.000 121.730 C 29.000 120.844,29.450 119.840,30.000 119.500 C 31.564 118.533,31.172 115.000,29.500 115.000 C 28.675 115.000,28.000 114.277,28.000 113.393 C 28.000 112.509,28.562 112.002,29.250 112.266 C 30.220 112.639,30.462 109.415,30.329 97.873 C 30.231 89.354,30.552 83.000,31.079 83.000 C 31.586 83.000,32.000 83.723,32.000 84.606 C 32.000 85.489,33.159 87.124,34.575 88.237 C 37.574 90.597,39.505 94.895,38.166 96.234 C 37.621 96.779,36.447 96.113,35.235 94.571 C 34.122 93.157,33.052 92.002,32.856 92.005 C 32.207 92.014,31.959 101.125,32.581 102.132 C 32.932 102.700,33.791 102.350,34.600 101.310 C 35.931 99.600,36.146 99.666,38.499 102.500 C 40.917 105.412,41.906 110.000,40.115 110.000 C 39.628 110.000,38.493 108.875,37.592 107.500 C 34.864 103.337,33.000 104.284,33.000 109.833 C 33.000 115.636,33.872 116.822,36.032 113.958 L 37.640 111.826 40.882 115.518 C 42.665 117.549,44.258 119.050,44.422 118.855 C 44.586 118.660,44.997 115.731,45.335 112.347 C 45.858 107.101,45.695 106.092,44.225 105.497 C 42.709 104.884,42.773 104.694,44.750 103.932 C 47.330 102.937,47.733 100.495,45.462 99.624 C 44.463 99.240,43.616 99.817,43.048 101.267 C 42.496 102.675,42.291 99.066,42.492 91.500 C 42.784 80.537,44.671 71.018,46.407 71.750 C 46.733 71.888,47.337 71.933,47.750 71.852 C 48.163 71.771,49.400 71.658,50.500 71.602 C 53.433 71.452,53.709 67.450,50.890 65.941 C 48.453 64.637,48.137 64.894,44.837 70.854 C 43.923 72.507,41.689 74.627,39.874 75.565 C 36.758 77.177,36.516 77.176,35.537 75.546 C 34.967 74.597,32.813 71.530,30.750 68.730 C 28.688 65.930,27.000 63.270,27.000 62.819 C 27.000 60.925,30.030 62.223,32.260 65.073 L 34.665 68.146 37.682 66.323 C 39.341 65.320,41.894 63.659,43.354 62.632 C 45.283 61.275,46.360 61.054,47.289 61.825 C 49.356 63.540,51.366 61.596,50.616 58.607 C 50.256 57.173,49.520 56.000,48.981 56.000 C 48.441 56.000,48.000 55.534,48.000 54.965 C 48.000 54.270,48.604 54.253,49.838 54.913 C 52.224 56.190,56.000 55.188,56.000 53.277 C 56.000 52.107,52.261 46.480,49.170 43.000 C 48.926 42.725,48.525 43.063,48.280 43.750 C 48.034 44.438,47.524 45.000,47.146 45.000 C 45.764 45.000,42.034 36.269,39.560 27.245 C 38.165 22.155,36.273 16.305,35.357 14.245 C 34.441 12.185,33.796 10.057,33.924 9.515 C 34.052 8.973,33.869 6.611,33.517 4.265 L 32.877 0.000 26.404 0.000 C 20.130 0.000,19.964 0.065,21.057 2.107 C 23.039 5.809,20.508 6.607,17.914 3.098 C 15.693 0.094,15.387 0.000,7.812 0.000 L 0.000 0.000 0.000 59.059 M37.477 5.250 C 42.812 26.857,46.000 36.189,46.000 30.200 C 46.000 27.603,48.177 27.320,50.476 29.619 C 52.427 31.570,53.797 30.665,52.060 28.572 C 51.355 27.723,51.128 26.173,51.525 24.923 C 51.991 23.453,51.856 22.971,51.107 23.434 C 50.498 23.810,50.000 23.641,50.000 23.059 C 50.000 22.477,49.438 21.975,48.750 21.945 C 46.722 21.855,42.583 16.017,43.732 14.868 C 44.394 14.206,45.278 14.421,46.364 15.507 C 47.879 17.021,48.000 16.977,48.000 14.905 C 48.000 12.380,49.229 13.059,49.531 15.750 C 49.639 16.713,50.168 18.598,50.706 19.940 C 51.481 21.871,51.654 21.036,51.534 15.940 C 51.409 10.556,51.107 9.523,49.692 9.639 C 48.469 9.739,48.000 8.994,48.000 6.948 C 48.000 5.391,47.570 3.852,47.044 3.527 C 46.518 3.202,46.341 2.275,46.651 1.468 C 47.104 0.287,46.137 0.000,41.697 0.000 L 36.180 -0.000 37.477 5.250 M56.015 1.250 C 56.023 1.938,56.660 4.311,57.432 6.525 C 58.426 9.377,58.622 12.353,58.106 16.735 C 57.705 20.138,57.779 23.641,58.272 24.521 C 58.764 25.401,58.895 26.832,58.562 27.700 C 57.929 29.347,59.967 35.000,61.193 35.000 C 61.581 35.000,61.309 33.538,60.590 31.750 C 59.625 29.353,59.549 27.581,60.298 25.000 L 61.313 21.500 62.245 26.000 C 63.894 33.965,64.546 32.196,63.825 21.714 C 63.073 10.782,63.489 6.894,65.342 7.533 C 65.979 7.752,67.733 6.147,69.240 3.966 L 71.981 0.000 66.882 -0.000 C 61.943 -0.000,61.803 0.078,62.411 2.500 C 62.858 4.282,62.633 5.000,61.627 5.000 C 60.852 5.000,59.934 3.875,59.589 2.500 C 58.956 -0.025,55.988 -1.063,56.015 1.250 M205.992 1.060 C 193.697 4.617,189.000 6.279,189.000 7.070 C 189.000 7.581,188.213 8.032,187.250 8.070 C 185.754 8.130,185.790 8.265,187.500 9.000 C 189.408 9.820,189.397 9.863,187.250 9.930 C 186.012 9.968,185.000 10.450,185.000 11.000 C 185.000 12.457,191.742 12.227,192.338 10.750 C 192.615 10.063,192.885 10.400,192.936 11.500 C 193.015 13.164,193.193 13.248,194.000 12.000 C 194.761 10.822,194.973 10.794,194.985 11.872 C 194.998 13.036,195.252 13.036,196.654 11.872 C 197.563 11.118,198.576 10.613,198.904 10.751 C 199.232 10.889,201.750 10.685,204.500 10.297 C 207.250 9.909,209.946 9.720,210.491 9.876 C 211.036 10.033,212.273 10.220,213.241 10.293 C 214.208 10.366,215.000 10.716,215.000 11.071 C 215.000 11.426,216.912 11.595,219.250 11.447 C 221.588 11.298,224.700 11.759,226.168 12.471 C 227.809 13.267,229.193 13.407,229.764 12.836 C 230.335 12.265,232.656 12.682,235.796 13.919 C 241.176 16.040,245.373 15.547,249.079 12.358 C 249.947 11.611,251.860 11.000,253.329 11.000 C 255.629 11.000,256.357 10.240,256.202 8.000 C 256.156 7.324,263.743 7.410,264.427 8.093 C 264.725 8.392,268.126 8.470,271.984 8.267 C 277.260 7.990,279.004 8.221,279.015 9.199 C 279.027 10.170,279.222 10.198,279.788 9.310 C 280.330 8.457,281.787 8.954,284.923 11.060 C 287.331 12.677,289.671 14.000,290.123 14.000 C 290.575 14.000,293.468 12.806,296.550 11.346 C 302.106 8.716,304.160 6.616,305.471 2.226 L 306.150 -0.047 257.317 0.146 C 230.459 0.252,207.363 0.663,205.992 1.060 M329.000 0.742 C 329.000 2.175,334.258 8.000,335.551 8.000 C 336.348 8.000,337.000 8.418,337.000 8.929 C 337.000 9.439,337.710 10.567,338.577 11.434 C 341.046 13.903,346.490 12.396,351.873 7.754 C 354.339 5.627,355.885 5.005,357.623 5.442 C 359.733 5.971,360.000 5.698,360.000 3.019 L 360.000 -0.000 344.500 0.086 C 335.975 0.134,329.000 0.429,329.000 0.742 M44.184 3.504 C 45.751 6.944,44.253 8.024,41.914 5.139 C 39.605 2.291,39.482 1.000,41.521 1.000 C 42.358 1.000,43.556 2.127,44.184 3.504 M125.856 8.477 C 125.593 8.740,124.506 9.121,123.439 9.325 C 122.373 9.528,120.233 10.213,118.685 10.847 C 117.137 11.481,115.539 12.000,115.135 12.000 C 114.731 12.000,113.895 12.505,113.277 13.123 C 112.062 14.338,113.556 19.000,115.161 19.000 C 115.622 19.000,116.000 19.658,116.000 20.461 C 116.000 21.980,108.664 24.528,107.090 23.556 C 106.615 23.262,105.931 21.448,105.570 19.523 C 105.209 17.599,104.063 15.569,103.023 15.012 C 100.567 13.698,100.680 13.676,98.024 15.979 C 96.769 17.068,95.373 17.731,94.922 17.452 C 94.471 17.173,92.078 17.455,89.603 18.078 C 85.925 19.005,83.981 20.475,78.954 26.131 C 75.572 29.936,71.430 33.760,69.750 34.629 C 66.960 36.072,66.619 36.070,65.798 34.604 C 64.649 32.550,63.383 32.559,62.590 34.627 C 61.773 36.755,63.874 39.350,65.392 38.089 C 67.129 36.648,73.355 38.333,74.490 40.553 C 78.728 48.840,84.275 54.092,88.618 53.929 C 89.763 53.886,88.933 53.155,86.500 52.062 C 80.271 49.264,77.440 45.057,76.408 37.066 C 76.041 34.223,76.528 33.046,79.233 30.237 C 82.419 26.928,87.793 24.000,90.681 24.000 C 91.471 24.000,91.860 24.418,91.544 24.929 C 91.229 25.439,91.765 26.052,92.735 26.291 C 93.706 26.529,93.398 26.607,92.051 26.463 C 88.627 26.097,83.487 30.327,81.588 35.072 C 79.088 41.321,79.775 42.722,83.595 39.163 C 84.680 38.152,86.902 36.997,88.533 36.595 C 90.165 36.193,92.520 35.205,93.767 34.398 C 95.619 33.200,95.841 32.572,94.982 30.966 C 93.552 28.294,95.373 28.373,98.102 31.102 L 100.203 33.203 96.352 35.570 C 94.233 36.872,92.827 37.952,93.226 37.969 C 93.625 37.986,95.425 37.102,97.226 36.004 C 99.027 34.906,100.835 34.006,101.244 34.004 C 102.401 33.998,101.568 37.606,99.953 39.594 C 99.066 40.687,98.987 41.091,99.750 40.633 C 100.438 40.220,101.000 40.275,101.000 40.754 C 101.000 41.234,99.415 42.249,97.478 43.008 C 95.542 43.768,93.222 45.202,92.323 46.195 C 90.784 47.896,90.859 48.000,93.623 48.000 C 97.058 48.000,100.723 45.687,102.101 42.649 C 102.637 41.467,104.176 38.700,105.521 36.500 L 107.967 32.500 107.984 36.790 C 108.002 41.684,104.949 48.422,101.997 50.002 C 100.899 50.589,100.000 51.595,100.000 52.235 C 100.000 53.096,100.293 53.107,101.122 52.278 C 101.739 51.661,102.773 51.360,103.421 51.608 C 105.352 52.349,108.867 44.815,110.190 37.097 C 111.250 30.916,111.218 29.747,109.964 28.941 C 108.683 28.118,108.688 27.877,110.000 27.015 C 110.825 26.474,112.768 26.024,114.317 26.015 C 116.562 26.003,117.020 26.360,116.572 27.773 C 115.976 29.650,124.013 39.000,126.222 39.000 C 126.856 39.000,126.216 37.763,124.801 36.250 C 123.386 34.737,121.460 31.978,120.520 30.117 C 118.567 26.250,119.450 25.042,124.250 25.015 C 125.763 25.007,127.000 24.568,127.000 24.039 C 127.000 23.510,127.844 22.273,128.876 21.289 C 131.699 18.597,132.566 15.000,130.393 15.000 C 128.894 15.000,128.974 14.657,130.971 12.531 L 133.291 10.061 130.580 9.031 C 127.573 7.887,126.564 7.769,125.856 8.477 M357.039 9.847 C 355.685 10.038,352.666 11.510,350.328 13.118 L 346.079 16.042 346.593 22.771 C 347.593 35.866,347.445 35.542,353.561 38.025 C 356.592 39.255,359.293 40.041,359.563 39.771 C 359.833 39.501,359.929 32.579,359.777 24.390 L 359.500 9.500 357.039 9.847 M21.927 12.635 C 24.062 15.349,24.717 19.000,23.068 19.000 C 21.755 19.000,18.000 13.514,18.000 11.596 C 18.000 9.235,19.583 9.654,21.927 12.635 M108.485 14.025 C 108.077 14.684,108.364 15.609,109.122 16.080 C 110.785 17.113,111.681 15.281,110.225 13.825 C 109.559 13.159,108.979 13.226,108.485 14.025 M163.174 13.694 C 161.604 14.008,161.035 14.648,161.424 15.661 C 161.741 16.488,162.000 17.352,162.000 17.582 C 162.000 17.812,162.498 18.000,163.107 18.000 C 163.716 18.000,163.955 17.325,163.638 16.500 C 162.842 14.425,164.219 14.624,166.708 16.943 C 168.773 18.867,168.811 18.867,170.552 16.943 C 171.519 15.874,173.140 15.000,174.155 15.000 C 175.170 15.000,176.000 14.660,176.000 14.244 C 176.000 13.387,166.705 12.988,163.174 13.694 M147.802 16.979 C 142.892 17.894,140.831 19.747,141.199 22.914 C 141.463 25.181,141.911 25.467,144.827 25.236 C 146.657 25.090,149.526 24.190,151.203 23.236 C 152.880 22.281,155.320 20.913,156.626 20.195 C 157.932 19.478,159.000 18.439,159.000 17.886 C 159.000 17.334,159.450 17.160,160.000 17.500 C 160.550 17.840,161.000 17.685,161.000 17.155 C 161.000 16.056,153.306 15.953,147.802 16.979 M4.000 18.000 C 4.000 18.550,3.577 19.000,3.059 19.000 C 2.541 19.000,1.840 18.550,1.500 18.000 C 1.160 17.450,1.584 17.000,2.441 17.000 C 3.298 17.000,4.000 17.450,4.000 18.000 M281.750 18.662 C 282.438 18.940,283.563 18.940,284.250 18.662 C 284.938 18.385,284.375 18.158,283.000 18.158 C 281.625 18.158,281.063 18.385,281.750 18.662 M281.269 20.693 C 282.242 20.947,283.592 20.930,284.269 20.656 C 284.946 20.382,284.150 20.175,282.500 20.195 C 280.850 20.215,280.296 20.439,281.269 20.693 M23.686 25.174 C 24.970 26.381,25.987 28.495,25.971 29.924 L 25.941 32.500 22.971 29.234 C 18.440 24.253,19.045 20.815,23.686 25.174 M105.434 32.047 C 104.370 32.433,103.288 32.556,103.029 32.320 C 102.216 31.580,105.354 30.101,106.386 30.738 C 106.926 31.072,106.497 31.661,105.434 32.047 M46.524 32.961 C 46.095 33.655,46.139 34.511,46.622 34.862 C 47.105 35.213,48.175 36.814,49.000 38.420 C 50.772 41.869,53.011 42.947,52.973 40.333 C 52.933 37.590,47.501 31.380,46.524 32.961 M58.564 36.293 C 58.940 37.279,59.499 37.834,59.807 37.526 C 60.115 37.219,59.808 36.412,59.124 35.733 C 58.136 34.753,58.022 34.868,58.564 36.293 M26.686 38.174 C 28.897 40.252,29.923 45.000,28.160 45.000 C 26.911 45.000,22.012 37.790,22.606 36.828 C 23.392 35.556,24.172 35.813,26.686 38.174 M89.000 38.000 C 87.787 38.784,87.931 38.972,89.750 38.985 C 90.987 38.993,92.000 38.550,92.000 38.000 C 92.000 36.747,90.939 36.747,89.000 38.000 M203.500 38.111 C 200.742 39.656,196.000 44.995,196.000 46.554 C 196.000 47.259,195.727 48.548,195.393 49.418 C 195.059 50.288,195.284 51.000,195.893 51.000 C 196.502 51.000,197.000 50.045,197.000 48.878 C 197.000 47.333,197.340 47.017,198.250 47.718 C 199.369 48.580,201.679 48.557,210.000 47.600 C 211.375 47.442,214.188 47.243,216.250 47.157 C 219.428 47.024,219.999 46.657,219.992 44.750 C 219.978 40.512,207.895 35.648,203.500 38.111 M38.729 42.604 C 38.397 42.936,37.534 42.972,36.813 42.683 C 36.015 42.364,36.252 42.127,37.417 42.079 C 38.471 42.036,39.061 42.272,38.729 42.604 M221.079 44.583 C 221.127 45.748,221.364 45.985,221.683 45.188 C 221.972 44.466,221.936 43.603,221.604 43.271 C 221.272 42.939,221.036 43.529,221.079 44.583 M30.328 52.821 C 33.177 57.699,31.030 59.218,27.615 54.740 C 26.177 52.854,25.000 50.758,25.000 50.082 C 25.000 47.763,28.392 49.507,30.328 52.821 M115.500 51.690 C 111.358 52.230,107.000 54.043,107.000 55.228 C 107.000 55.770,106.325 55.955,105.500 55.638 C 104.405 55.218,104.000 55.762,104.000 57.654 C 104.000 59.875,104.220 60.062,105.542 58.965 C 106.671 58.028,107.382 57.982,108.193 58.793 C 109.004 59.604,110.183 59.533,112.588 58.528 C 114.396 57.772,116.805 57.398,117.943 57.695 C 120.633 58.399,123.000 56.378,123.000 53.378 C 123.000 50.889,122.508 50.778,115.500 51.690 M61.787 55.000 C 61.321 58.170,62.367 59.093,63.393 56.418 C 64.272 54.127,64.138 52.000,63.113 52.000 C 62.626 52.000,62.029 53.350,61.787 55.000 M94.000 53.000 L 90.500 53.737 94.809 53.868 C 97.456 53.949,98.880 53.614,98.500 53.000 C 98.160 52.450,97.796 52.059,97.691 52.132 C 97.586 52.204,95.925 52.595,94.000 53.000 M192.000 52.927 C 192.000 53.517,191.518 54.000,190.929 54.000 C 190.339 54.000,189.286 54.563,188.587 55.250 C 187.888 55.938,185.895 57.580,184.158 58.900 C 182.421 60.219,181.000 62.212,181.000 63.329 C 181.000 66.043,183.199 72.000,184.201 72.000 C 184.640 72.000,185.000 72.665,185.000 73.477 C 185.000 75.738,188.945 77.808,194.691 78.561 C 199.793 79.230,199.918 79.184,201.937 75.871 C 203.068 74.017,203.994 71.458,203.996 70.184 C 204.000 67.647,205.672 63.965,207.400 62.685 C 208.005 62.237,206.700 62.138,204.500 62.465 C 195.000 63.877,195.500 64.125,195.500 58.017 C 195.500 53.592,195.162 52.469,193.750 52.194 C 192.787 52.007,192.000 52.336,192.000 52.927 M54.630 64.250 C 53.718 67.655,53.883 72.000,54.925 72.000 C 56.484 72.000,59.005 82.121,57.942 84.109 C 56.602 86.613,56.777 89.242,58.250 88.743 C 58.938 88.511,60.795 90.074,62.379 92.218 C 64.261 94.766,65.781 95.914,66.770 95.535 C 67.601 95.216,69.286 95.613,70.514 96.417 C 71.741 97.221,73.655 97.641,74.767 97.351 C 76.766 96.828,76.762 96.760,74.390 90.921 C 73.071 87.675,71.258 81.678,70.360 77.593 C 69.165 72.153,68.363 70.307,67.364 70.691 C 66.614 70.978,66.000 70.737,66.000 70.154 C 66.000 69.571,64.409 68.339,62.465 67.417 C 60.521 66.494,58.481 64.898,57.930 63.870 C 56.592 61.369,55.364 61.511,54.630 64.250 M60.295 70.250 C 62.101 71.595,63.822 78.004,62.375 77.993 C 61.894 77.989,60.487 76.499,59.250 74.681 C 55.885 69.739,56.442 67.379,60.295 70.250 M98.994 73.637 C 98.208 75.211,97.426 76.760,97.256 77.078 C 97.087 77.395,97.988 78.129,99.259 78.708 C 101.470 79.716,101.555 79.603,101.213 76.131 C 100.676 70.683,100.544 70.534,98.994 73.637 M120.000 79.167 C 120.000 80.358,120.127 81.146,120.283 80.917 C 120.439 80.688,121.169 79.713,121.905 78.750 C 123.052 77.252,123.011 77.000,121.622 77.000 C 120.625 77.000,120.000 77.835,120.000 79.167 M96.000 80.500 C 96.000 81.325,96.177 82.000,96.393 82.000 C 96.609 82.000,97.045 81.325,97.362 80.500 C 97.678 79.675,97.501 79.000,96.969 79.000 C 96.436 79.000,96.000 79.675,96.000 80.500 M62.455 82.621 C 64.072 83.241,67.000 87.964,67.000 89.950 C 67.000 93.223,60.092 87.076,60.032 83.750 C 59.996 81.803,60.144 81.734,62.455 82.621 M53.000 85.000 C 53.000 86.949,54.061 87.606,55.264 86.402 C 56.066 85.601,55.017 83.000,53.893 83.000 C 53.402 83.000,53.000 83.900,53.000 85.000 M28.000 88.441 C 28.000 88.684,27.550 89.160,27.000 89.500 C 26.450 89.840,26.000 89.641,26.000 89.059 C 26.000 88.477,26.450 88.000,27.000 88.000 C 27.550 88.000,28.000 88.198,28.000 88.441 M121.750 94.679 C 120.787 94.936,120.000 95.590,120.000 96.132 C 120.000 96.674,120.480 96.821,121.067 96.459 C 121.653 96.096,122.741 96.632,123.485 97.648 C 124.993 99.710,125.645 99.439,126.155 96.536 C 126.513 94.496,124.930 93.829,121.750 94.679 M28.500 96.833 C 28.500 98.642,26.543 98.312,26.154 96.438 C 25.939 95.395,26.313 94.938,27.154 95.218 C 27.895 95.465,28.500 96.192,28.500 96.833 M50.000 100.559 C 50.000 101.416,50.450 101.840,51.000 101.500 C 51.550 101.160,52.000 100.459,52.000 99.941 C 52.000 99.423,51.550 99.000,51.000 99.000 C 50.450 99.000,50.000 99.702,50.000 100.559 M65.000 103.762 C 65.000 104.783,65.666 106.491,66.481 107.559 C 67.763 109.239,68.097 109.298,68.966 108.000 C 70.343 105.941,70.275 105.746,67.469 103.703 C 65.085 101.969,65.000 101.971,65.000 103.762 M29.000 105.000 C 29.000 106.100,28.550 107.000,28.000 107.000 C 27.450 107.000,27.000 106.100,27.000 105.000 C 27.000 103.900,27.450 103.000,28.000 103.000 C 28.550 103.000,29.000 103.900,29.000 105.000 M53.542 111.750 C 53.165 114.362,52.653 117.625,52.405 119.000 C 51.966 121.433,51.981 121.440,52.945 119.250 C 53.490 118.013,54.450 117.000,55.079 117.000 C 55.839 117.000,56.007 115.853,55.581 113.578 C 55.204 111.568,55.371 109.889,55.986 109.509 C 56.561 109.153,56.774 108.443,56.457 107.931 C 55.203 105.901,54.195 107.222,53.542 111.750 M48.000 111.469 C 48.000 112.361,48.587 112.712,49.494 112.364 C 50.316 112.048,50.740 111.388,50.435 110.895 C 49.563 109.483,48.000 109.851,48.000 111.469 M309.667 114.667 C 308.529 115.804,308.931 119.966,310.464 122.931 C 312.945 127.729,321.000 127.334,321.000 122.415 C 321.000 121.621,319.988 119.409,318.750 117.498 C 316.988 114.779,315.831 114.022,313.417 114.012 C 311.721 114.006,310.033 114.300,309.667 114.667 M154.020 115.743 C 147.602 116.308,146.664 117.408,147.463 123.432 C 147.829 126.192,148.600 129.018,149.177 129.713 C 150.446 131.242,178.811 130.475,183.263 128.792 C 186.604 127.528,187.863 123.720,185.665 121.522 C 184.715 120.572,183.890 120.370,183.505 120.992 C 182.279 122.975,177.867 121.942,172.864 118.500 C 167.547 114.843,166.314 114.662,154.020 115.743 M161.000 153.896 C 158.754 154.521,158.691 154.666,160.384 155.316 C 162.655 156.189,169.000 155.137,169.000 153.889 C 169.000 152.868,164.675 152.872,161.000 153.896 M143.381 167.541 C 141.002 171.172,142.806 175.000,146.895 175.000 C 148.511 175.000,150.005 175.516,150.216 176.147 C 150.479 176.936,152.456 176.589,156.549 175.035 C 161.727 173.069,164.222 172.792,175.750 172.903 C 183.037 172.973,189.000 172.735,189.000 172.374 C 189.000 170.226,182.705 166.078,178.485 165.446 C 173.059 164.632,160.488 165.585,155.994 167.152 C 153.493 168.024,152.571 167.922,151.126 166.614 C 148.512 164.249,145.285 164.635,143.381 167.541 M290.000 195.441 C 290.000 195.684,289.550 196.160,289.000 196.500 C 288.450 196.840,288.000 196.641,288.000 196.059 C 288.000 195.477,288.450 195.000,289.000 195.000 C 289.550 195.000,290.000 195.198,290.000 195.441 M286.282 210.000 C 287.804 210.000,288.095 210.305,287.315 211.085 C 285.872 212.528,281.777 211.864,281.192 210.091 C 280.866 209.101,281.239 208.878,282.445 209.341 C 283.390 209.703,285.117 210.000,286.282 210.000 M297.000 212.000 C 297.000 212.550,297.450 213.000,298.000 213.000 C 298.550 213.000,299.000 212.550,299.000 212.000 C 299.000 211.450,298.550 211.000,298.000 211.000 C 297.450 211.000,297.000 211.450,297.000 212.000 M306.500 220.000 C 306.125 221.183,306.042 222.376,306.317 222.651 C 306.592 222.926,307.125 222.183,307.500 221.000 C 307.875 219.817,307.958 218.624,307.683 218.349 C 307.408 218.074,306.875 218.817,306.500 220.000 " stroke="none" fill="black" fill-rule="evenodd"/></svg>