<?xml version="1.0" encoding="UTF-8" standalone="no"?>
<svg xmlns:rdf="http://www.w3.org/1999/02/22-rdf-syntax-ns#" xmlns="http://www.w3.org/2000/svg" xml:space="preserve" height="101.13" viewBox="0 0 101.1275 101.1275" width="101.13" version="1.1" xmlns:cc="http://creativecommons.org/ns#" xmlns:xlink="http://www.w3.org/1999/xlink" xmlns:dc="http://purl.org/dc/elements/1.1/"><g transform="matrix(1.25 0 0 -1.25 -204.9 812.38)"><g><path d="m204.31 570.96c21.303 0 38.572 17.27 38.572 38.572s-17.269 38.572-38.572 38.572c-21.302 0-38.572-17.27-38.572-38.572s17.27-38.572 38.572-38.572z" stroke="#e4cc0d" stroke-miterlimit="10" stroke-width="2.158" fill="none"/><path d="m204.28 571.26c21.108 0 38.219 17.112 38.219 38.219 0 21.108-17.111 38.22-38.219 38.22-21.107 0-38.219-17.112-38.219-38.22 0-21.107 17.112-38.219 38.219-38.219" fill="#002147"/><g fill="#fff"><path d="m234.96 609.41c0-16.623-13.476-30.099-30.099-30.099s-30.099 13.476-30.099 30.099 13.476 30.099 30.099 30.099 30.099-13.476 30.099-30.099"/><path d="m203.77 615.38c0.073-0.11 0.073-0.438 0.073-0.731 0.147-0.11 0.585-0.347 0.731-0.493 0.15-0.151-0.036-0.768-0.182-0.878-0.147-0.11-0.585-1.005-0.695-1.151s-0.11-0.585 0.146-0.805c0.256-0.218 1.206 0.637 1.389 0.82-0.073-0.439-0.004-1.2 0.256-1.257 0.329-0.074 0.69 1.408 0.763 1.627-0.073-0.292 0.451-1.825 0.845-1.627 0.439 0.219 0.461 1.445 0.498 1.627 0-0.182 0.672-1.701 1.074-1.298 0.402 0.401 0.183 0.913 0.11 1.096 0.146 0.182 0.146 0.767 0.146 0.877 0 0.109-0.183 0.365-0.037 0.657 0.146 0.293 0.181 1.26 0.146 1.536-0.036 0.292-0.146 0.384-0.109 0.548 0.001 0.009 0.566 0.241 0.219 0.439-0.932 0.529-1.9 0.803-3.034 1.023-1.118 0.216-1.848-0.02-2.01-0.183-0.566 0.019-0.877 0.037-0.969-0.219 0.045 0.125-2.65-0.311-1.662-2.01 0.146 0.365 0.401 0.731 1.462 0.585 1.06-0.147 1.571-0.548 1.79-0.621-0.255 0.255-0.109 0.548-0.767 0.84"/><path d="m198.04 632.22c-0.53 1.315 0.495 2.506 1.964 2.101-0.264 1.069 1.088 2.413 2.477 1.362 0.21 1.179 1.818 1.846 2.806 0.493 0.602 1.17 2.631 1.106 2.795-0.503 0.524 0.698 2.778 0.695 2.541-1.37 0.676 0.549 2.795-0.183 1.974-2.065 1.462 0.165 2.229-1.517 1.197-2.623 0.95-0.164 1.89-1.909 0.237-2.887 1.38-1.234 0.393-2.677-0.667-2.805 0.768-1.499-0.366-2.559-1.645-2.413 0.183-1.443-0.987-2.394-2.312-1.718-0.155-1.443-1.663-1.9-2.695-0.931-0.713-1.371-2.312-1.198-2.861 0.082-0.868-1.033-2.594-0.567-2.713 0.922-1.115-0.556-2.568 0.156-2.221 1.819-1.361-0.201-2.284 1.096-1.562 2.358-1.106 0.182-1.91 1.662-0.64 2.749-1.069 0.522-1.288 2.185 0.174 2.843-0.886 1.069-0.274 2.531 1.151 2.586"/><path d="m201.02 589.81c-0.328-0.221-3.089-2.542-2.509-1.444-0.056-0.107 1.613 3.423 3.945 5.1l6.131-0.074c2.558-1.827 3.78-4.829 3.837-4.935 0.585-1.096-2.083 1.133-2.412 1.353"/><path d="m208 592.59c2.239-2.207 3.071-5.686 3.11-5.799 0.406-1.174-1.878 1.447-2.169 1.715"/><path d="m207.42 592.04c1.676-2.291 2.09-6.801 2.083-6.543 0.036-1.279-1.647 1.997-1.828 2.229"/><path d="m206.36 592c1.754-3.317 1.383-7.271 1.352-7.53-0.148-1.27-1.248 1.86-1.392 2.117"/><path d="m202.92 592.51c-2.231-2.216-3.051-5.698-3.09-5.81-0.401-1.177 1.874 1.454 2.163 1.722"/><path d="m203.5 591.97c-1.668-2.298-2.065-6.809-2.059-6.551-0.031-1.279 1.661 2.003 1.84 2.237"/><path d="m204.56 591.93c-1.743-3.324-1.356-7.277-1.324-7.535 0.153-1.27 1.24 1.864 1.385 2.122"/><path d="m205 591.31c-0.145-0.512-0.495-4.461-0.382-5.265 0.113-0.803 0.398-2.839 0.837-2.946 0.439 0.108 0.75 2.21 0.86 3.015 0.109 0.804-0.257 4.751-0.403 5.262"/><path d="m211.32 608.11 0.018-12.518c0-0.53-0.201-0.877-0.84-0.877-0.439-0.038-4.459 0-4.459 0-0.53 0-0.366-0.238-0.585-0.494-0.146 0.256-0.073 0.494-0.585 0.494h-4.46c-0.639-0.021-0.885 0.264-0.995 0.74 0 0.42-0.009 12.655-0.009 12.655h11.915z"/></g><g><path d="m49.844 40.752c-0.279 0-0.733-0.026-0.809 0.201-0.734 0.128-1.475 0.446-1.822 0.733-0.43 0.355-0.507 0.582-0.557 0.884 0 0-0.005 1.256 0.108 1.002 0.173-0.39 0.433-0.174 0.433-0.174s0.695-0.159 1.303 0.043 2.025 0.75 2.355 1.18c0.177-0.254 0.406-0.91 0.331-1.088-0.077-0.176-0.086-0.532-0.432-1.062-0.38-0.583-0.404-1.365-0.481-1.518-0.075-0.176-0.237-0.201-0.429-0.201zm21.162 26.199c-0.244-0.025-0.534 0.007-0.85 0.158-0.632 0.304-0.862 1.216-0.228 2.051-0.229 0.025-2.529-0.001-2.504 0.049 0.096 0.194-0.228 0.304-0.481 0.33s-1.012 0.05-1.568-0.027c0.101 0.052 0.708 0.431 0.961 0.634 0.252 0.203 0.608 0.556 0.48 0.86 0.178 0.026 1.29-0.051 1.62-0.051 0.327 0 1.339-0.101 1.339-0.101s0.052 0.127 0.077 0.253c-0.128 0.127-0.127 0.48-0.051 0.631 0.076 0.153 0.438 0.601 0.607 0.811 0.201 0.252 0.227 0.658 1.137 1.037 0.91 0.38 1.544-0.556 1.266-1.238 0.177 0.075 0.758 0.024 1.062-0.203 0.304-0.229 0.178-0.607 0.025-1.088 0.127 0.025 0.43 0.05 0.758-0.229 0.329-0.279 0.203-0.935 0.102-1.062s-1.037-1.138-1.492-1.567c-0.455-0.43-0.811-0.304-1.19-0.203-0.025-0.127-0.251-0.709-0.504-0.861-0.126-0.075-0.323-0.158-0.566-0.184zm-37.66 0.172c-0.415-0.043-0.981 0.158-1.487 1.012-0.86 0-1.214 0.251-1.771 1.011-0.556 0.759-0.809 0.607-0.809 1.366 0 0.758 0.609 0.81 0.862 0.709-0.203 0.657-0.053 1.364 1.111 1.314-0.253 0.759 0.507 1.57 1.266 1.215 0.758-0.354 1.416-1.165 1.619-1.568 0.202-0.405 0.15-0.911 0.15-0.911v-0.304s0.912 0.152 1.367 0.152c0.608 0.05 1.416 0.051 1.67 0.051-0.101-0.304 0.707-1.518 1.315-1.518-0.962 0.153-1.873 0.051-1.873-0.252l-2.832-0.152c0.81-1.416 0.203-1.567-0.049-1.871-0.095-0.114-0.291-0.228-0.539-0.254z" transform="matrix(.8 0 0 -.8 163.92 649.9)" fill="#f0be07"/><path d="m80.223 31.574c-0.455 0-2.1765 0.19992-3.4902 0.85742-1.2312 0.61625-2.5301 1.2648-3.6426 1.8223-1.72 0.86-3.4918 2.3275-4.6543 3.1875-2.0212 1.4925-3.3384 3.0338-4.7559 4.2988-1.4162 1.265-1.8207 2.0748-1.7207 2.8848 0.10125 0.80875 0.45656 0.96078 1.1641 1.7695 0.71 0.81 0.75781 0.96172 0.75781 2.0742 0 1.1138-0.60617 2.8333-1.6699 3.8945-1.0613 1.0625-2.4262 0.70953-2.9824 0.45703l0.04883 9.9648s0.15219 0.30391 0.30469 0.25391c0.15125-0.05125 0.35461-0.45531 0.50586-1.1641 0.2025 0.405 0.86008 1.1642 1.5176 1.0117 0.375-0.08625 0.35336-0.35516 0.50586-1.3164 0.35375 0.30375 1.0626 0.86141 1.5176 0.66016 0.45625-0.20375 0.40453-0.40547 0.45703-1.418 0.505 0.6075 1.1611 0.60609 1.4648 0.40234 0.3025-0.20125 0.45688-0.60617 0.20312-1.2637 0.45625 0.405 1.5678 0.30406 1.8203 0.10156s0.20172-0.55602-0.05078-1.416c0.355 0.35375 1.2641 0.60875 1.6191 0.40625s0.25367-0.65883-0.04883-1.5176c0.2525 0.15125 1.2135 0.35289 1.416 0.15039s0.25344-0.7593-0.10156-1.4668c0.30375 0.15125 1.2252 0.15969 1.3652-0.10156 0.455-0.85875-0.6582-1.8223-0.6582-1.8223s-0.10031-0.10047 0.30469 0.05078c0.405 0.15375 1.2151 0.305 1.5176 0 0.30375-0.3025-0.0012-0.90938-0.40625-1.5156 0.405 0.10125 1.1164-0.20328 1.3164-0.45703 0.20375-0.2525-0.4068-1.0609-0.81055-1.6172 0.40375 0 1.5191-0.000078 1.6191-0.45508 0.10125-0.45625-0.30375-0.9107-1.0625-1.3145 0.355-0.1025 1.2159-0.35672 1.3672-0.76172 0.1525-0.405-0.25383-0.80711-0.86133-1.1621 0.50625-0.2025 0.76008-0.25398 0.86133-0.70898 0.10125-0.45625-0.45453-0.96039-1.1133-1.2129 0.50625-0.1525 1.1128-0.65906 1.1641-1.1641 0.05-0.50625-0.60797-0.65766-1.418-0.91016 0.70875-0.30375 1.1638-0.86109 1.0625-1.2148-0.1-0.35375-0.50609-0.45461-1.2148-0.50586 0 0 1.5696-0.70844 1.9746-0.96094 0.40375-0.2525 0.80938-0.65859 0.85938-1.2148 0.05125-0.55625-0.85914-0.50578-1.6191-0.70703 0.30375-0.1525 1.9752-0.91109 2.3789-1.2148 0.405-0.30375 0.91031-1.2649 0.75781-1.6699-0.15125-0.40375-0.60711-0.55562-1.5684-0.45312 0 0 0.80938-0.45648 1.2656-0.70898 0.455-0.25375 2.4794-1.7211 2.9844-2.2773 0.50625-0.555 0.2043-0.55469-0.25195-0.55469zm-57.064 0.20117c-0.455 0-0.35391 0.40594 0.15234 0.96094 0.505 0.5575 2.377 1.6173 2.832 1.8711 0.455 0.2525 1.7715 1.0625 1.7715 1.0625-0.96125-0.10125-1.9217-0.30344-2.0742 0.10156-0.15125 0.40375 0.35281 1.3662 0.75781 1.6699 0.405 0.30375 1.8212 1.2127 2.125 1.3652-0.75875 0.2025-1.6184 0.00039-1.5684 0.55664 0.05125 0.55625 0.45758 1.0119 0.86133 1.2656 0.405 0.2525 1.8711 1.0098 1.8711 1.0098-0.70875 0.05125-1.1624 0.25242-1.2637 0.60742-0.10125 0.35375 0.50539 0.80953 1.2129 1.1133-0.80875 0.2525-1.4165 0.55625-1.3652 1.0625 0.05 0.505 0.8082 0.75891 1.3145 0.91016-0.6575 0.25375-1.4157 0.75984-1.3145 1.2148 0.1 0.455 0.55625 0.50578 1.0625 0.70703-0.6075 0.355-1.163 0.81109-1.0117 1.2148 0.1525 0.40625 0.86008 0.65898 1.5176 0.70898-0.75875 0.40625-1.1638 0.85945-1.0625 1.3145 0.10125 0.455 1.0618 0.60742 1.4668 0.60742-0.405 0.55625-0.8607 1.2155-0.6582 1.4668 0.2025 0.25375 0.91141 0.55633 1.3164 0.45508-0.405 0.6075-0.71 1.2138-0.40625 1.5176 0.30375 0.30375 1.1476 0.2225 1.5176 0 0.25375-0.15125-0.30274 0.4043-0.30274 0.4043s-0.50578 0.50594-0.05078 1.3672c0.1375 0.26 1.0634 0.25281 1.3672 0.10156-0.35375 0.7075-0.30406 1.2643-0.10156 1.4668s1.1623-0.0011 1.416-0.15234c-0.30375 0.85875-0.40328 1.3151-0.05078 1.5176 0.355 0.20125 1.2641-0.05055 1.6191-0.4043-0.2525 0.86125-0.30328 1.2135-0.05078 1.416s1.3653 0.30414 1.8203-0.09961c-0.2525 0.65625-0.10062 1.0612 0.20312 1.2637 0.30375 0.2025 0.96055 0.20195 1.4668-0.4043 0.05 1.01 0.000078 1.2128 0.45508 1.4141 0.455 0.2025 1.1638-0.3525 1.5176-0.65625 0.15125 0.96125 0.29695 1.0779 0.6582 1.2129 0.405 0.1525 1.1647-0.50516 1.3672-0.91016 0.15125 0.7075 0.60656 1.1135 0.75781 1.166 0.15125 0.04875 0.05078-0.25586 0.05078-0.25586l0.05078-9.9648c-0.55625 0.2525-1.9219 0.60867-2.9844-0.45508-1.0625-1.0612-1.8223-2.6316-1.8223-3.7441 0-1.1138 0.000235-1.3651 0.70898-2.1738 0.7075-0.81 1.0854-0.96524 1.2129-1.7715 0.15125-0.96125-0.90984-2.1743-1.8711-3.1855-1.3088-1.3775-2.6799-2.5313-4.4512-4.0488-1.0988-0.9425-3.0854-2.1752-4.8066-3.0352-1.112-0.557-2.412-1.156-3.642-1.772-1.316-0.656-3.136-1.061-3.592-1.061zm26.398 15.486c-0.55625 0.35375-1.053 0.75203-1.1543 1.207-0.10125 0.455-0.20312 0.50586-0.20312 0.50586s-0.10055 0.10102-0.4043 0.35352c-0.3025 0.25375-0.60578 0.60852-0.70703 0.75977-0.10125 0.1525-0.10156 0.4043-0.10156 0.4043s-0.05172 0.05133-0.35547 0.45508c-0.3025 0.405-0.55586 0.60859-0.50586 1.2148l12.041-0.05078s0.09961 0.000703 0.09961-0.4043c0-0.40375-0.80844-2.0237-0.96094-2.3262-0.3025-0.05125-0.35414-0.0525-0.55664-0.40625s-0.30274-0.70812-0.30274-0.85938c0-0.1525-0.22852-0.45508-0.22852-0.45508-0.125 0.80875-0.42914 0.75781-0.68164 0.75781s-0.80891-0.60688-0.91016-0.85938c-0.1525 0.75875-0.25484 1.1116-0.55859 1.2129-0.30375 0.10125-0.65688-0.04937-0.85938-0.45312-0.20125-0.405-0.30273-0.70898-0.30273-0.70898-0.15125 0.5575-0.30289 0.86-0.55664 1.0625-0.2525 0.2025-0.85969-0.04977-0.96094-0.35352-0.1025-0.30375-0.05078-0.70898-0.05078-0.70898-0.6075 0.50625-1.1135 0.80875-1.416 0.65625-0.30375-0.15125-0.30664-0.38906-0.30664-0.53906 0-0.1525-0.05664-0.46484-0.05664-0.46484zm10.475 16.275c-0.21576-0.01881-0.45031-0.01781-0.70312 0.0078 0 0 0.05 1.161 0 2.0723-0.05125 0.91 0.1018 2.4805-0.25195 2.9355-0.355 0.45625-0.85922 0.40352-2.0742 0.35352 0 0 0.4557 0.35414 0.6582 0.55664 0.20125 0.2025 1.163 0.70016 1.668 0.91016 0.6075 0.25375 1.2662 0.60789 2.125 0.55664 0.45625 0.25375 0.91148 0.35352 1.3652 0.35352 0.45625 0 0.96289-0.05078 0.96289-0.05078s0.36602 0.21141 0.75977 0.25391c0.455 0.05125 0.80781 0.05016 1.4141-0.15234 0.6075-0.2025 0.91227-0.10117 0.75977-0.60742-0.15125-0.505-0.6582-0.85859-1.3145-1.2148 0 0 0.9107 0.05273 1.3145 0.05273 0.405 0 0.80828-0.20297 0.70703-0.35547-0.10125-0.15125-0.60648-0.65797-1.3652-1.0117 0 0-0.2018-0.40453-0.4043-0.70703-0.20375-0.30375-0.4557-0.60773-1.3145-1.1152 0 0-0.40453-0.55547-1.1133-1.2617-0.70875-0.70875-1.0137-0.55859-1.0137-0.55859s-0.55453-0.40336-0.70703-0.50586c-0.34125-0.22781-0.82537-0.45529-1.4727-0.51172zm-15.676 0.20898c-1.0112-0.10125-1.9736 0.30352-2.2773 0.75976-0.30375 0.45625-0.15039 0.15234-0.15039 0.15234s-0.50609-0.000469-1.2148 0.70703c-0.7075 0.70875-0.96094 1.1641-0.96094 1.1641-0.86 0.50625-1.317 1.0107-1.5195 1.3145-0.20125 0.30375-0.20117 0.6582-0.20117 0.6582-0.75875 0.35375-1.0609 0.60656-1.1621 0.75781-0.1025 0.15125-0.000704 0.40625 0.4043 0.40625h1.3652c-0.6325 0.43-0.91227 0.61969-1.2285 1.0234-0.15 0.19375-0.28984 0.44328 0.31641 0.64453 0.6075 0.2025 1.874 0.50641 2.1777 0.25391 0.30375-0.25375 0.50586-0.35547 0.50586-0.35547s0.000078 0.20312 0.45508 0.20312c0.45625 0 1.4661-0.10258 1.8711-0.45508 0.86 0.05 1.618-0.25289 2.0742-0.55664l1.8711-1.5176c-1.2138 0.05-1.7205 0.10148-2.0742-0.35352-0.35375-0.45625-0.2007-2.0243-0.25195-2.9355-0.05-0.91 0-1.8711 0-1.8711zm4.4082 5.1016s-0.50453 0.50555-0.70703 0.81055c-0.2025 0.3025-0.15398 0.50727-0.05273 0.75977s0.86172 0.15078 1.418-0.35547c0 0-0.20305 0.25242-0.4043 0.60742-0.2025 0.35375-0.25492 0.91055 0.04883 1.0605 0.30375 0.1525 0.45609 0.05094 1.2148-0.75781 0 0-0.15102 0.40648-0.35352 0.70898-0.2025 0.30375-0.45578 0.80836-0.05078 1.1621 0.40375 0.35375 0.73719 0.23992 1.2422-0.51758 0 0-0.23024 0.69438-0.11524 0.98438 0.15 0.375 0.69266 0.52 1.0977 0.34375 0.64875-0.2825 0.55711-1.3654 0.50586-2.2754 0.35375 1.1125 1.3151 1.8705 1.5176 1.668 0.32125-0.32 0.365-0.65062 0.0625-1.3594 0.3025 0.25375 0.59547 0.39797 0.94922 0.04297 0.355-0.3525 0.15305-0.605-0.25195-1.3125 0.2525 0.2525 1.1639 0.3025 1.3164 0 0.15125-0.30375-0.40586-1.0141-0.91211-1.5703 0 0-2.1754 0.05078-2.6816 0.05078-0.50625 0-0.45453 0.25367-0.70703 0.60742 0-0.70875-0.60938-0.6582-0.60938-0.6582h-2.5273z" transform="matrix(.8 0 0 -.8 163.92 649.9)" fill="#7a4d26"/><path d="m81.623 53.482-1.957 2.1699 0.79688 0.05469 0.49219 0.72461 0.66797-2.9492zm1.4668 1.1309-2.043 2.0879 0.79102 0.08789 0.46484 0.74414 0.78711-2.9199zm-5.1055 0.79297-1.6133 2.4395 0.79688-0.06445 0.57617 0.62109-1.0059 1.3203 0.79883-0.01172 0.55274 0.67969 0.41992-2.9922-0.74219 0.97461 0.2168-2.9668zm2.7773 1.7422-2.002 1.6465 0.70703 0.12891 0.35742 0.66797 0.9375-2.4434zm2.8262 0.02539-2.334 1.7598 0.77148 0.20508 0.3457 0.80469 1.2168-2.7695zm-7.4199 0.30664-1.4941 2.5137 0.79297-0.10547 0.625 0.61523 0.07617-3.0234zm7.4551 1.623-2.1367 1.4746 0.69531 0.18555 0.29883 0.69727 1.1426-2.3574zm-9.3223 0.18164-1.2344 2.6504 0.77734-0.18359 0.68555 0.54688-0.22852-3.0137zm5.5039 0.92383-2.0039 1.6484 0.70508 0.12891 0.35938 0.66602 0.93945-2.4434zm1.6895 0.22852-2.0039 1.6484 0.70508 0.12695 0.36133 0.66992 0.9375-2.4453zm0.14258 1.8262-2.5332 1.459 0.74023 0.29688 0.09961 0.33984-2.4805 1.1113 0.70703 0.37109 0.1582 0.86133 1.6504-2.2227 0.11133 0.38086 1.5469-2.5977zm-32.477 8.0586s-0.60688 0.15226-0.85938 0.35352c-0.5925 0.475-0.91102 0.75859-1.416 1.2148-0.50625 0.455-1.3656 1.1141-0.85938 0.96289 0.505-0.1525 1.1123-0.1543 1.416-0.1543 0.30375 0 0.4043 0.20312 0.4043 0.20312s-0.505 0.75969-0.65625 0.96094c-0.1525 0.2025-0.30469 0.35352-0.30469 0.35352s0.25289-0.20227 0.55664-0.35352c0.30375-0.1525 1.0117-0.35352 1.0117-0.35352l0.55469-0.20117c-0.40375 0.55625-0.40219 0.90914-0.55469 1.2129-0.15125 0.30375-0.30469 0.70898-0.30469 0.70898 0.6075-0.355 0.45562-0.50742 0.85937-0.60742 0.405-0.10125 0.86133-0.20312 0.86133-0.20312h0.25195c-0.3025 0.6575-0.50586 1.418-0.50586 1.418 0 0.15125-0.09961 0.45508-0.09961 0.45508 0.455-0.405 0.65641-0.76086 0.91016-0.91211 0.2525-0.15125 0.60742-0.30273 0.60742-0.30273h0.20117s-0.15039 0.80984-0.15039 1.2148c0.2525 0.55625 1.4158 0.50383 1.7695 0.04883 0.05-0.30375-0.05078-1.1113-0.05078-1.1113 0.50625 0.35375 1.4679 0.40516 1.6191 0.91016-0.10125-0.40375-0.50586-1.6699-0.50586-1.6699 0.75875 0.25125 0.91203 0.35492 1.1133 0.60742 0.2025 0.2525 0.75781 0.25195 0.75781 0.25195-0.15125-0.555-0.50391-1.4668-0.50391-1.4668 0.70875 0.30375 0.9607 0.30414 1.3145 0.55664 0.35375 0.25375 0.60547 0.05078 0.60547 0.05078s-0.15047-0.45625-0.60547-1.0625c-0.19677-0.26272-0.2589-0.31885-0.30078-0.34961 0.80514 0.08425 0.91986 0.04779 1.2109 0.0957 0.305 0.05125 0.70898 0.05273 0.70898 0.05273s0.15016 0.20281-0.15234-0.30469c-0.30375-0.505-2.0253-1.9726-2.2266-2.1738-0.55625 0-0.80969-0.05305-0.96094-0.1543 0.45625 0.75875 0.55766 0.91234 0.25391 1.2148-0.30375 0.30375-0.91016-0.15039-0.91016-0.15039 0.30375 0.7075 0.25219 1.3144-0.10156 1.5156-0.355 0.20375-1.4175-1.1115-1.4688-1.3652 0.10125 0.81-0.04844 1.8214-0.55469 1.9727-0.50625 0.1525-0.65852-0.20125-0.75976-0.65625-0.10125-0.455-0.10156-0.85938-0.10156-0.85938-0.6075 0.75875-0.8082 0.95984-1.3145 0.80859-0.50625-0.15375-0.35469-0.75891-0.30469-0.91016 0.05-0.1525 0.45508-0.91211 0.45508-0.91211-0.7075 0.75875-0.85961 0.75836-1.1621 0.50586-0.30375-0.2525-0.30406-0.60484-0.10156-0.80859 0.20125-0.20125 0.35352-0.60742 0.35352-0.60742zm16.902 3.9492-1.873 1.7383 1.1133 0.04297 0.16602 1.0977 0.54492-0.69922 0.63086-0.08984 0.35938 1.0488 0.48242-0.92383 0.31055-0.06445 0.4043 1.0273 0.96484-2.3262-0.33203-0.75195-0.75781 0.14453-0.08008 0.12891-0.10742-0.27344-0.81836 0.10156-0.12305 0.16406-0.0625-0.31836-0.82227-0.04687zm4.041 1.2871-0.78906 0.23633-1.1699 2.2695 1.0625-0.33594 0.21094 0.39062-0.08008 0.20312 0.1543-0.06641 0.24219 0.44727 0.20898-0.64062 0.41797-0.17969 0.625 0.91602 0.54688-2.5039-0.49414-0.66016-0.71289 0.29492-0.22266-0.37109z" transform="matrix(.8 0 0 -.8 163.92 649.9)" fill="#bdbcbc"/></g><path d="m203.57 612.09c-0.445-0.283-0.842-0.601-0.923-0.965s-0.162-0.405-0.162-0.405-0.081-0.081-0.324-0.283c-0.242-0.203-0.485-0.486-0.566-0.607-0.081-0.122-0.081-0.324-0.081-0.324s-0.041-0.041-0.284-0.364c-0.242-0.324-0.445-0.486-0.405-0.971l9.633 0.04s0.08 0 0.08 0.324c0 0.323-0.647 1.619-0.769 1.861-0.242 0.041-0.283 0.041-0.445 0.324s-0.243 0.567-0.243 0.688c0 0.122-0.182 0.364-0.182 0.364-0.1-0.647-0.344-0.607-0.546-0.607s-0.647 0.486-0.728 0.688c-0.122-0.607-0.203-0.89-0.446-0.971s-0.526 0.041-0.688 0.364c-0.161 0.324-0.243 0.567-0.243 0.567-0.121-0.446-0.242-0.688-0.445-0.85-0.202-0.162-0.687 0.04-0.768 0.283-0.082 0.243-0.041 0.567-0.041 0.567-0.486-0.405-0.891-0.648-1.133-0.526-0.243 0.121-0.245 0.312-0.245 0.432 0 0.122-0.046 0.371-0.046 0.371z" stroke="#8c5a2d" stroke-miterlimit="10" stroke-width=".278" fill="none"/><path d="m32.395 26.367c-0.14695-0.01828-0.28664-0.007-0.40039 0.03711-0.45625 0.17625-0.48109 0.17695-0.68359 0.6582-0.20125 0.48125-0.37883 1.7197-0.45508 2.0234-0.075 0.30375-0.58242 0.83609-0.73242 1.0898-0.1525 0.25125-0.37961 0.91016 0.02539 1.4414 0.40375 0.53 1.4907 1.4163 1.9707 1.5176 0 0-0.07547 0.98484 0.05078 1.4648 0.1275 0.48125 0.27812 0.75852 0.85938 0.88477 0.5825 0.12625 4.2251 0.76 6.2988 2.125 1.67 1.1 3.2903 1.9753 4.3516 3.6953 0 0-0.33039 0.32883-0.43164 0.45508s-0.35383 0.30266-0.98633 0.50391c-0.6325 0.2025-0.3782 0.73414-0.25195 0.96289 0.12625 0.2275 0.61578 0.76805 1.1133 1.0605 0.43 0.25375 0.45547 0.86062 0.48047 1.2656 0.025 0.405 0.40445 0.75812 0.6582 0.85938 0.2525 0.10125 0.73383 0.05172 0.98633-0.05078 0.2525-0.1 0.60695-0.12656 0.7832-0.22656 0.1775-0.1025 0.86086-0.55562 0.91211-0.85938 0.05-0.30375 0.08008-1.6172 0.08008-1.6172-0.3475-0.13-0.34766-0.95508-0.34766-0.95508-0.50625 0.1775-1.023 0.49672-0.99805 1.2305 0.025 0.73375 0.05086 1.2647-0.02539 1.4922-0.355 0.1525-0.50578 0.02492-0.58203-0.45508-0.075-0.48125 0.0768-0.73367-0.25195-1.1387-0.32875-0.405-0.75976-0.70898-0.75976-0.70898 0.37875-0.12625 0.35305-0.12524 0.4043-0.42774 0.035-0.2125 0.32922-0.55773 0.48047-0.70898s0.5075-0.40508 0.9375-0.45508c0.43-0.05125 0.60078-0.56898 0.05078-1.3652-0.91125-1.315-1.7212-1.8467-3.1387-3.1367-1.7462-1.59-5.0832-2.9094-7.1582-3.3906 0.1025-0.505 0.26375-0.87438 0.40625-1.2656 0.1-0.2775 0.04984-1.186-0.78516-1.541-1.2888-0.54625-1.8955-0.75852-2.1992-0.88476-0.30375-0.12625-0.75977-0.43164-0.75977-0.43164 0.35375-0.50625 1.0371-1.6126 1.0371-2.1738 0-0.58781-0.49859-0.91977-0.93945-0.97461zm38.922 0.05664c-0.39475-0.01506-0.92078 0.2343-1.0352 0.44336-0.15125 0.2775-0.45492 0.58133-0.07617 0.98633 0.38 0.405 0.70789 1.3424 0.55664 1.6699-0.15375 0.33-0.17774 0.20312-0.17774 0.20312s-0.73211 0.42914-1.1621 0.55664c-0.43 0.12625-1.7216 0.4293-2.0254 1.0605-0.30375 0.6325-0.15078 0.58094-0.05078 0.83594 0.10125 0.25125 0.30469 0.80891 0.30469 0.91016v0.20312s-0.70836 0.20148-1.0371 0.30273c-0.32875 0.10125-2.1504 0.78289-2.6816 1.0879-0.53125 0.30375-2.832 1.8223-2.832 1.8223-0.5825 0.42875-2.0492 1.643-2.6055 2.1992-0.5575 0.55625-0.68328 0.78484-1.1133 1.2148-0.43 0.43-0.91039 0.88625-0.68164 1.0625 0.2275 0.17625 0.78383 0.47914 0.98633 0.68164 0.20125 0.2025 0.35297 0.58227 0.60547 0.88477 0.25375 0.30375 0.65758 0.76078 0.98633 0.45703 0.14418-0.13271 0.16627-0.1628 0.17383-0.17773 0.03244-0.0025 0.2447-0.01556 0.4082 0.10156 0.1775 0.12625 0.40461 0.30305 0.50586 0.4043s0.125 0.20117 0.125 0.20117-0.7568 0.68453-1.0605 0.98828c-0.3025 0.30375-1.0874 1.4156-1.1387 1.9219-0.05 0.505-0.25195 1.1382-0.25195 1.4395 0 0.305 0.05078 0.76172 0.05078 0.76172s-0.35297-0.81-0.48047-1.0625c-0.12625-0.25375-0.96039-1.8479-1.0879-2.0254-0.12625-0.17625-0.30469-0.47852-0.30469-0.47852-0.075 0.1525-0.125 0.35367 0 0.73242 0.12625 0.37875-0.10859 0.98453-0.15234 1.1133-0.05 0.1525 0.12891 0.27836 0.12891 0.50586s0.02344 0.22852 0.02344 0.22852 0.10109 0.09961 0.15234 0.22461c0.05 0.12875 0.25383 0.73547 0.33008 0.88672 0.075 0.15125 0.09984 0.6332 0.80859 0.6582 0.70875 0.02625 1.4928-0.12641 1.6953-0.37891s0.27734-1.1119 0.27734-1.3906c0-0.27875 0.55609-1.0123 0.80859-1.2148 0.25375-0.2025 0.93781-0.70922 1.0391-0.88672 0.10125-0.17625 0.02516-0.45375-0.15234-0.65625-0.17625-0.2025-0.37953-0.68227-0.05078-1.416 0.32875-0.73375 0.17672-1.2404-0.05078-1.4941-0.2275-0.2525-0.60758-0.12586-0.86133 0.02539-0.2525 0.1525-0.58078-0.15023-0.70703-0.30273-0.12625-0.15125-0.27773-0.48055 0.22852-0.93555s2.135-1.8284 3.1875-2.6309c0.96-0.73375 2.5286-1.5934 4.1211-2.0996 0.785-0.2275 2.9348-0.83359 3.3398-0.93359 0.405-0.1025 0.53156-0.20266 0.63281-0.25391 0.1-0.05125 0.16766-0.11781-0.02734-0.50781-0.10125-0.2025 0.02734-0.68141 0.02734-1.0352v-0.32812s0.42828-0.30617 0.70703-0.48242c0.27875-0.1775 1.1645-0.88578 1.3145-1.2383 0.1525-0.355 0.45625-0.75812 0-1.3906-0.455-0.6325-0.55469-0.70969-0.55469-1.3672 0-0.6575-0.50719-1.6677-0.83594-1.9727-0.08219-0.07562-0.1985-0.11021-0.33008-0.11523zm-22.866 16.48c0.1525 0.6075 0.10125 1.5681 0 1.9219-0.1 0.35375-0.70703 1.4672-0.70703 2.0234 0 0.55625 0.10211 1.4685 0.50586 1.8223 0 0 0.2025-0.4057 0.40625-0.6582 0.20125-0.2525 0.45508-0.45508 0.45508-0.45508 0-0.76 0.10023-1.3141 0.30273-1.8203 0.2025-0.50625 0.55469-1.3154 0.55469-1.6191 0-0.30375-0.20117-1.0137-0.20117-1.0137s-0.30398-0.04836-0.70898-0.09961c-0.40375-0.05-0.60742-0.10156-0.60742-0.10156z" transform="matrix(.8 0 0 -.8 163.92 649.9)" fill="#fddd04"/><path d="m199.34 631.34c0.42-1.096-0.183-1.91-0.923-2.156 0.732-0.723 0.485-1.846-0.182-2.33 0.84-0.548 1.05-1.435 0.566-2.248 1.161-0.22 1.48-1.234 1.252-2.01 0.832 0.182 1.848-0.498 1.812-1.485 0.71 0.488 1.907 0.178 2.236-0.818 0.676 0.722 1.654 0.795 2.367 0.018 0.366 0.877 1.562 1.243 2.22 0.75 0 0.95 1.06 1.754 1.992 1.37-0.42 1.133 0.567 1.992 1.279 2.029-0.584 0.749-0.293 1.991 0.677 2.339-0.878 0.457-0.988 1.736-0.22 2.412-1.215 0.325-1.374 1.522-0.969 2.193-0.694-0.183-1.9 0.622-1.662 1.773-0.932-0.402-1.956 0.219-2.121 1.115-0.712-0.676-2.01-0.384-2.329 0.347-0.329-0.603-1.307-1.178-2.367-0.412-0.128-0.803-1.014-1.489-2.047-1.151 0.064-1.123-0.786-1.8-1.581-1.736" stroke="#231f20" stroke-miterlimit="10" stroke-width=".278" fill="#5fabd7"/><path d="m204.65 616.4c0.152 0.108 0.476-0.037 0.804 0-0.149-0.017 0.819 0.138 1.024 0.037 0.292-0.147 0.402-0.366 0.402-0.476" stroke="#231f20" stroke-miterlimit="10" stroke-width=".347" fill="none"/><g fill="#231f20"><path d="m204.94 616.34c0.186 0 0.714 0.073 0.877 0.073 0.183-0.183 0.402-0.329 0.073-0.476-0.329-0.146-1.06 0.403-0.95 0.403"/><path d="m189.75 594.69c-0.222-0.304-0.462-0.052-0.486-0.04-0.073 0.036-0.207 0.254 0.121 0.546 0.329 0.292 0.748-0.061 0.951-0.33 0.231-0.309-0.079-0.049-0.427-0.123l-0.159-0.053z"/><path d="m191.09 594.1c0.329 0.11-0.837 0.307-1.092-0.096-0.256-0.402 0.162-0.642 0.303-0.607 0.147 0.036 0.152 0.055 0.258 0.246 0.092 0.165 0.421 0.42 0.531 0.457"/><path d="m191.19 592.71s-0.122-0.122-0.357-0.071c-0.209 0.044-0.299 0.267-0.111 0.493 0.184 0.22 0.266 0.205 0.458 0.585 0.111-0.238 0.193-0.44 0.111-0.764l-0.101-0.243z"/><path d="m221.44 594.69c0.077-0.025 0.468 0.267 0.267 0.596-0.371 0.607-1.237-0.248-1.179-0.183-0.079-0.089 0.406-0.028 0.629-0.28l0.283-0.133z"/><path d="m220.05 594.25c-0.33 0.108 0.849 0.321 1.107-0.081 0.258-0.399-0.065-0.727-0.38-0.696-0.15 0.016-0.169 0.1-0.275 0.292-0.094 0.163-0.343 0.449-0.452 0.485"/><path d="m219.72 593.38c-0.02 0.223 0.023 0.302 0.113 0.541 0.125-0.182 0.188-0.318 0.353-0.501l0.303-0.141c0.032-0.036 0.136-0.317-0.02-0.486-0.243-0.263-0.405-0.101-0.587 0.101l-0.162 0.486z"/></g><g><path d="m21.395 51.609c-0.22875 0.45625-0.77672 2.0572-0.73047 2.7422 0.045 0.685 0.59266 2.1467 1.0039 2.5117 0.41125 0.365 0.95898 1.9656 0.95898 2.4219-0.31875-0.5475-1.1866-1.9645-1.9629-2.377-0.77625-0.41-1.4183-0.50273-1.7383-0.95898s-0.45609-0.36492-0.68359-0.63867c0.09125 0.59375 0.31859 1.7808 0.68359 2.2383 1.145 1.43 0.79016 1.1036 2.8789 1.9648 1.2288 0.505 0.94703 1.1154 1.0508 1.4629-0.275 0-0.73094 0.07031-0.96094 0.07031 0.115-0.11375 0.29625-0.74688 0-0.85938-0.29-0.11-0.68352 0.10195-0.72852 0.37695-0.04625 0.27375 0.09039 0.27461 0.18164 0.41211-0.32-0.1375-0.22852-0.18414-0.82226-0.27539-0.59375-0.09125-1.5069 0.22836-1.7344 0.41211 0.31875 0.365 0.86688 0.86688 1.1406 1.1406 0.27375 0.27375 0.4275 0.25516 0.65625 0.34766l0.44531 0.28516c-0.67 0.04625-1.1505 0.19359-1.5117 0.46484-0.54875 0.41125 0.13633 0.18406 0.45508 0.32031 0.32 0.13625 0.77898 0.63859 1.0527 0.77734 0.275 0.13625 1.7352 0.72891 2.7852 0.41016 1.25-0.38 1.783 0.92812 2.0117 1.2344-0.41125-0.23-0.79344-0.35992-1.0234-0.45117 0.02625-0.35375-0.0507-0.58062-0.43945-0.57812-0.38375 0.0025-0.72406 0.43086-0.44531 0.75586l0.48047 0.20313c-0.41125 0-1.9227-0.02586-2.3652 0.52539-0.28625 0.3575-0.82273 0.31898-0.95898 0.36523 0.32 0.27375 1.2341 1.1422 2.1016 0.96094l0.23438 0.01953c-0.26875 0.20125-0.54461 0.36289-0.59961 0.61914-0.1375 0.64-0.59305 0.73164-0.68555 0.86914 0.32 0.13625 1.8741 0.3182 2.6504-0.0918 0.65875-0.34875 1.6765-1.3309 2.1465-1.5996 0.32-0.18125 0.68531-0.13758 0.91406 0.04492 0.22875 0.18375 0.41125 0.13906 0.59375 0.32031-0.27375 0.1375-0.63867 0.45656-0.63867 0.32031 0-0.275-0.0807-0.63258-0.50195-0.54883-0.4575 0.0925-0.54859 0.54859-0.18359 0.77734-0.2275 0.18125-0.68609 0.34102-0.77734 0.47852 0.0675-0.3425-0.38648-0.63953-0.61523-0.45703-0.22875 0.18375-0.35524 0.32867-0.17774 0.60742 0.14875 0.23375 0.31953 0.05984 0.45703 0.15234-0.1825 0.1375-1.399 0.81891-1.4902 1.5039-0.09125 0.68625-0.13781 1.507-0.32031 1.6445 0.34875 0 1.3991-0.42602 2.1641-0.94726v0.30273c-0.08625 1.28-0.0682 1.7288 0.0293 1.9238 0.1375 0.275 0.13734 0.5018 0.08984 0.68555 0.54875-0.5025 1.8729-1.6911 2.0566-3.1523 0.18125-1.4625 0.045-2.561 0-2.6973l0.41016-0.22656c0.22875 0.13625 0.86383 0.50633 0.95508 0.73633l0.6582-0.69336c-0.4125-0.27375-0.56164-0.27242-0.74414-0.54492-0.13-0.195 0.17164-0.90078 0.27539-0.55078 0.06375 0.22 0.71898 0.35703 0.77148-0.26172 0.025-0.30375-0.25195-0.65617-0.7832-0.32617 0.1375-0.32 0.60461-0.73625 0.78711-0.78125 0.18375-0.04625 1.5075-0.91461 1.7812-1.5996 0.27375-0.68625 0.27461-1.0955 0.41211-1.3242 0.13625-0.22875 0.45703-1.0527 0.45703-1.0527-0.5025 0.1825-0.41172 0.32148-0.73047 0.45898-0.32 0.13625-1.0511 0.22758-1.3711 0.45508-0.32 0.22875-0.87609 0.98867-1.0586 1.2637l0.15234-0.6582c0.1475-0.45375 0.03789-2.0667-0.09961-2.3867s-0.0918-0.59359-0.0918-0.77734c-0.27375 0.4575-0.73078 1.0511-1.0508 1.3711-0.32 0.32125-1.0495 1.3708-1.0957 2.2383-0.04625 0.8675 0.39062 1.3877 0.39062 1.7539-0.505-0.12625-0.78969-0.05125-0.83594 0.40625-0.045 0.45625 0.65922 0.50453 0.88672 0.17578 0 0.1375-0.05055 0.6582-0.2793 0.6582 0.0025 0-1.0855-0.28734-1.0117-0.80859l0.4043-0.25391c0.375-0.625-0.104-0.8-0.259-0.835h-0.002c-0.32125-0.0425-0.5318 0.20094-0.62305 0.42969 0.09125-0.4575 0.14289-0.61422 0.46289-0.88672 0.31875-0.275 0.63789-1.4168 0.77539-1.9668 0.1375-0.5475-0.45703-2.9672-0.45703-3.2422-0.365 0.365-0.6857 0.86859-1.0957 1.3711-0.4125 0.50375-0.86797 1.736-0.73047 2.6035 0.13625 0.86875 0.22773 1.3252 0.36523 1.6914 0.1375 0.365 0.09039 0.40922 0.18164 0.73047-0.32-0.54875-0.73094-0.82242-0.86719-1.3262-0.1375-0.50125-0.27422-0.68461-0.13672-0.91211 0.1375-0.22875 0.36406-0.54984 0.22656-0.77734-0.13625-0.22875-0.2725-0.31844-0.5-0.27344-0.22875 0.04625-0.36719 0.13578-0.36719 0.45703l-0.22852 0.18164c-0.27375-0.41125-0.59492-0.59328-0.73242-1.0508-0.13625-0.45625 0.04922-1.0506 0.23047-1.2344 0.1825-0.1825 1.5089-1.827 1.6914-2.2832 0.1825-0.45625 0.36414-1.8729 0.18164-2.5566-0.45625 0.36375-1.1183 0.98219-1.3008 1.2109-0.045-0.32-0.25367-0.52726-0.48242-0.57226 0.275-0.32 1.4179-1.7833 0.86914-4.1133-0.44656 0.35749-1.6265 1.3658-1.8516 2.3496-0.03883-0.36674-0.16428-0.80596-0.47852-1.3887-0.9575-1.7825-1.1875-1.6924-1.1875-1.9199zm1.5996 4.0898c-0.03599 0.22619-0.08491 0.42283-0.13867 0.61133-0.10125 0.35375-0.15188 0.70844-0.20312 0.96094l0.10156-0.65625c0.03615-0.30853 0.15462-0.59316 0.24024-0.91602zm0.73047 1.125c-0.06449 0.09029-0.10938 0.21483-0.10938 0.37891 0 0.45625 0.50469 0.34727 0.55469 0.35352-0.045 0.27375-0.35445 0.72297-0.62695 1.043-0.275 0.31875-0.27594 0.50274-0.36719 0.95898-0.04089 0.20502-0.0055 0.48115 0.04687 0.73828l-0.06445-0.24414c-0.12125-0.96375-0.15125-1.837 0.40625-2.3945l0.05078-0.45508c-0.02475-0.12135-0.01006-0.26786 0.10938-0.37891zm1.1641 3.9883c-0.29 0-0.52344 0.23539-0.52344 0.52539 0 0.28875 0.23344 0.52344 0.52344 0.52344 0.28875 0 0.52344-0.23469 0.52344-0.52344 0-0.29-0.23469-0.52539-0.52344-0.52539zm-2.873 4.291c-0.27375 0-0.49414 0.22039-0.49414 0.49414 0 0.2725 0.22039 0.49414 0.49414 0.49414 0.2725 0 0.49414-0.22164 0.49414-0.49414 0-0.27375-0.22164-0.49414-0.49414-0.49414zm12.309 6.8828c-0.1375 0.41125-0.45703 0.82227-0.45703 0.82227 0.22875 0.27375 0.73047 1.3444 0.82422 1.8281 0.2275 1.1888 0.18109 1.7366 0.08984 2.6504-0.09625 0.9575 0.63898 1.2317 0.95898 1.3242 0.31875 0.09125 0.86836 0.41125 1.0059 0.59375 0.13625 0.1825 0.41016 0.38578 0.41016-0.13672 0-0.5925-0.77633-3.0156-1.1426-4.2031-0.365-1.1888-1.3232-2.6502-1.6895-2.8789z" transform="matrix(.8 0 0 -.8 163.92 649.9)" fill="#2c9d36"/><path d="m187.71 597.16c-0.285-0.352-0.435-0.49-0.569-0.757-0.183-0.366 0.11-0.658 0.256-0.622 0.146 0.037 0.108 0.211 0.146 0.44 0.025 0.151 0.066 0.252 0.073 0.402 0.054 0.174 0.094 0.335 0.094 0.335v0.202z" fill="#fff"/><path d="m218.21 588.62-0.439-0.878h0.804l0.804 1.536 0.146 0.036-0.289 0.402-0.753-1.775-0.273 0.679z" fill="#a7a5a6"/></g><path d="m209.07 627.62 2.741 0.182m-7.6019 4.0761-0.475 1.407m-0.0004-2.9602-1.316 2.412m-0.3654-1.9372-1.06 1.169m0.0728-1.9727-1.353 0.914m1.353-2.157-1.645 0.512m2.4492-1.5714h-2.558m2.777-0.8413-2.704-0.511m1.7179-0.9508-1.353-0.658m1.901-0.4752-1.024-1.023m2.6504 1.3519-1.444-2.011m2.1937 1.6091-0.878-2.485m3.6556 2.4118 0.95-2.303m-0.0367 2.5951 1.408-1.808m0.2 1.7352 1.061-0.987m-0.5488 2.0471 1.554-0.75m-2.3944 2.1387 2.522-0.438m-1.7182 2.3387 1.645 0.731m-1.7551 0.6946 1.243 0.878m-2.7776-0.6222 1.425 1.535m-2.5217-1.4984 1.28 2.303m-1.3898 0.7301-0.402-1.425m-1.2062 1.9005v-1.316m-0.822-10.27-0.237-1.425m1.6435 1.4613 0.367-1.388" stroke="#fff" stroke-miterlimit="10" stroke-width=".16" fill="none"/><g><path d="m51.826 21.988l-0.267 0.801h-0.825l0.659 0.535-0.309 0.844 0.783-0.475 0.717 0.495-0.266-0.905 0.596-0.494h-0.842l-0.246-0.801zm-4.088 2.366l-0.267 0.802h-0.823l0.659 0.533-0.309 0.844 0.781-0.472 0.719 0.494-0.268-0.907 0.598-0.492h-0.844l-0.246-0.802zm2.828 0l-0.267 0.802h-0.822l0.658 0.533-0.309 0.844 0.781-0.472 0.719 0.494-0.267-0.907 0.597-0.492h-0.844l-0.246-0.802zm2.807 0l-0.268 0.802h-0.82l0.656 0.533-0.308 0.844 0.781-0.472 0.721 0.494-0.268-0.907 0.596-0.492h-0.842l-0.248-0.802zm2.783 0l-0.267 0.802h-0.823l0.657 0.533-0.307 0.844 0.781-0.472 0.719 0.494-0.268-0.907 0.598-0.492h-0.844l-0.246-0.802zm-4.375 2.476l-0.267 0.803h-0.823l0.659 0.535-0.309 0.844 0.781-0.475 0.721 0.492-0.27-0.904 0.596-0.492h-0.842l-0.246-0.803zm-2.773 0.08l-0.268 0.801h-0.822l0.658 0.535-0.308 0.844 0.781-0.473 0.721 0.492-0.268-0.904 0.596-0.494h-0.844l-0.246-0.801zm5.754 0l-0.27 0.801h-0.822l0.658 0.535-0.308 0.844 0.781-0.473 0.72 0.492-0.267-0.904 0.596-0.494h-0.844l-0.244-0.801zm-7.078 2.494l-0.268 0.803h-0.822l0.658 0.535-0.309 0.842 0.782-0.473 0.72 0.494-0.267-0.904 0.593-0.494h-0.841l-0.246-0.803zm2.81 0l-0.265 0.803h-0.825l0.658 0.535-0.306 0.842 0.781-0.473 0.719 0.494-0.268-0.904 0.598-0.494h-0.844l-0.248-0.803zm2.961 0l-0.267 0.803h-0.821l0.656 0.535-0.308 0.842 0.781-0.473 0.721 0.494-0.268-0.904 0.596-0.494h-0.842l-0.248-0.803zm2.863 0l-0.269 0.803h-0.82l0.658 0.535-0.309 0.842 0.781-0.473 0.719 0.494-0.266-0.904 0.594-0.494h-0.842l-0.246-0.803zm-4.365 2.389l-0.267 0.803h-0.825l0.659 0.533-0.307 0.844 0.781-0.475 0.719 0.494-0.268-0.904 0.598-0.492h-0.844l-0.246-0.803z" transform="matrix(.8 0 0 -.8 163.92 649.9)" fill="#fff"/><path d="m217.48 591.4 0.059-0.649-0.284-0.304-0.469 0.04-0.96-0.89-0.101-0.061 0.11 0.475-0.84 0.073 1.791 1.462 0.694-0.146 2.223 1.597" stroke="#231f20" stroke-miterlimit="10" stroke-width=".278" fill="#bdbcbc"/><path d="m190.24 594.48c-0.177-0.298 0.833 0.316 0.763 0.787-0.068 0.472-0.542 0.38-0.626 0.261-0.087-0.123-0.079-0.141-0.035-0.356 0.038-0.184-0.043-0.592-0.102-0.692" fill="#231f20"/><path d="m219.94 595c0.087-0.206 0.164-0.255 0.356-0.423 0.024 0.22 0.015 0.37 0.073 0.608l0.2 0.268c0.012 0.047-0.03 0.343-0.248 0.418-0.338 0.117-0.404-0.102-0.468-0.367l0.087-0.504z" fill="#231f20"/></g><path d="m188.19 598.4c-0.041-0.385-0.202-0.89-0.425-1.153m30.462-6.8403 1.671 1.862m0.0966-0.1739-1.634-2.76m2.3277 1.993-1.195-3.085m1.6343 2.8289-0.602-2.648m-3.0959 2.9343-1.133-0.91m3.6436 4.5582c0.087-0.206 0.164-0.255 0.356-0.423 0.024 0.22 0.015 0.37 0.073 0.608l0.2 0.268c0.012 0.047-0.03 0.343-0.248 0.418-0.338 0.117-0.404-0.102-0.468-0.367l0.087-0.504zm-29.707-0.5253c-0.177-0.298 0.833 0.316 0.763 0.787-0.068 0.472-0.542 0.38-0.626 0.261-0.087-0.123-0.079-0.141-0.035-0.356 0.038-0.184-0.043-0.592-0.102-0.692zm-7.4255 1.2687c0.292 0.183 0.581 0.329 0.819 0.402 0.475 0.147 1.133 0.111 1.572 0.111-0.22 0.256-1.091 0.596-1.42 0.741m2.833-2.0635c-0.526-0.324-0.814-1.007-0.938-1.566-0.044-0.194-0.234-0.404-0.49-0.604m-3.0557 7.1825c0.256-0.072 0.584-0.255 0.804-0.621 0.219-0.365 0.658-0.877 0.731-1.023-0.292 0.219-1.279 1.133-1.973 1.279-0.178 0.038-0.378 0.054-0.583 0.05m0.6433 0.1601c0.217 0 0.395 0.177 0.395 0.395 0 0.219-0.178 0.396-0.395 0.396-0.219 0-0.396-0.177-0.396-0.396 0-0.218 0.177-0.395 0.396-0.395zm12.389-6.1125c0.202 0.162 0.782 0.493 0.782 0.493-0.357-0.169-0.841-0.439-1.097-0.84-0.23-0.362 0-0.367 0.329-0.367s0.914 0.147 1.426 0.512m2.4573 38.671c-0.53 1.315 0.495 2.506 1.964 2.101-0.264 1.069 1.088 2.413 2.477 1.362 0.21 1.178 1.818 1.846 2.806 0.493 0.602 1.17 2.631 1.106 2.795-0.503 0.524 0.698 2.778 0.695 2.541-1.37 0.676 0.548 2.795-0.183 1.974-2.065 1.462 0.165 2.229-1.517 1.197-2.623 0.95-0.164 1.89-1.909 0.237-2.887 1.38-1.234 0.393-2.677-0.667-2.805 0.768-1.499-0.366-2.559-1.645-2.413 0.183-1.443-0.987-2.394-2.312-1.718-0.155-1.443-1.663-1.9-2.695-0.931-0.713-1.371-2.312-1.198-2.86 0.082-0.869-1.033-2.595-0.567-2.714 0.923-1.115-0.557-2.568 0.155-2.221 1.818-1.361-0.201-2.284 1.096-1.562 2.358-1.106 0.182-1.91 1.662-0.64 2.749-1.069 0.522-1.288 2.185 0.174 2.843-0.886 1.069-0.274 2.53 1.151 2.586zm21.963-42.698 0.34-0.567-0.636-1.949-0.422 0.78-0.85-0.268 0.937 1.815 0.631 0.189m-1.7953-0.8331-0.439-0.878h0.804l0.804 1.536 0.146 0.036-0.289 0.402-0.753-1.775-0.273 0.679zm-1.4828 1.2177 3.053 2.546m-0.7915-1.9805 0.266-0.601-0.772-1.861-0.323 0.822-0.816-0.169 1.039 1.693 0.606 0.116m1.765-1.0105 0.395-0.529-0.438-2.003-0.499 0.733-0.819-0.351 0.752 1.899 0.609 0.251m-3.3236 1.0532 0.128-0.648-1.261-1.618-0.133 0.878-0.89 0.035 1.498 1.39 0.658-0.037m0.8029-0.042 0.242-0.614-0.95-1.818-0.287 0.839-0.884-0.124 1.225 1.635 0.654 0.082m7.659 7.1204 2.135 0.955-1.443-1.942-0.126 0.69-0.566 0.297zm-2.4555-3.0932 4.349 4.203m-0.2705 1.5982 1.603 1.318-0.751-1.956-0.288 0.536-0.564 0.102zm-1.3526 0.1827 1.604 1.318-0.752-1.955-0.287 0.534-0.565 0.103zm0.7677 2.449 1.602 1.318-0.75-1.955-0.287 0.535-0.565 0.102zm-0.2775-2.6575-2.011-2.632m4.8255 4.8978-5.372-5.994m4.1293 8.8446-5.606-10.05 6.702 9.21m-6.3955-9.5396 3.496 2.284m-0.719 6.3776-3.216-8.149m0.5117 5.0425-0.941-4.898m5.1483 3.3214 2.026 1.168-1.237-2.079-0.196 0.674-0.593 0.237zm1.9069 2.5163 1.708 1.18-0.913-1.886-0.24 0.558-0.555 0.148zm-0.1865 1.316 1.867 1.407-0.973-2.215-0.277 0.644-0.617 0.164zm-0.1664 1.7847 1.635 1.671-0.629-2.336-0.372 0.596-0.634 0.069zm-1.104 0.8391 1.565 1.737-0.533-2.36-0.395 0.58-0.637 0.043zm-2.3416-3.2557 1.417 1.86-0.336-2.395-0.443 0.545-0.638-0.01zm-1.6523-0.2166 1.195 2.011-0.06-2.419-0.501 0.492-0.634-0.084zm-1.2851-1.5531 0.987 2.12 0.183-2.412-0.548 0.438-0.622-0.146zm2.6437 3.2715 1.29 1.951-0.176-2.413-0.477 0.514-0.637-0.052zm-37.309-6.462c-0.285-0.352-0.435-0.49-0.569-0.757-0.183-0.366 0.11-0.658 0.256-0.622 0.146 0.037 0.108 0.211 0.146 0.44 0.025 0.151 0.066 0.252 0.073 0.402 0.054 0.174 0.094 0.335 0.094 0.335v0.202zm0.4856 1.3765c0.146 0.22 0.59 0.827 0.846 1.01 0.256 0.182 0.841 0.256 1.097 0.365 0.255 0.11 0.182 0.22 0.584 0.366 0 0-0.256-0.658-0.365-0.841-0.11-0.183-0.11-0.511-0.329-1.06-0.219-0.548-1.279-1.242-1.426-1.279-0.146-0.036-0.52-0.369-0.63-0.625 0.425 0.264 0.648-0.019 0.628-0.262-0.042-0.495-0.567-0.385-0.618-0.209-0.083 0.28-0.324-0.284-0.22-0.44 0.146-0.218 0.265-0.218 0.595-0.437l-0.526-0.554c-0.073 0.184-0.581 0.48-0.764 0.589l-0.328-0.182c0.036-0.109 0.145-0.987 0-2.157-0.147-1.169-1.207-2.12-1.646-2.522 0.038 0.147 0.038 0.329-0.072 0.549-0.078 0.156-0.092 0.514-0.023 1.538v0.242c-0.612-0.417-1.453-0.757-1.732-0.757 0.146 0.11 0.183 0.767 0.256 1.316 0.073 0.548 1.047 1.092 1.193 1.202-0.11 0.074-0.246-0.065-0.365 0.122-0.142 0.223-0.041 0.339 0.142 0.486 0.183 0.146 0.546-0.092 0.492-0.366 0.073 0.11 0.439 0.238 0.621 0.383-0.292 0.183-0.219 0.548 0.147 0.622 0.337 0.067 0.402-0.219 0.402-0.439 0-0.109 0.292 0.147 0.511 0.257-0.146 0.145-0.292 0.108-0.475 0.255-0.183 0.146-0.475 0.182-0.731 0.037-0.376-0.215-1.191-1.001-1.718-1.28-0.621-0.328-1.864-0.182-2.12-0.073 0.074 0.11 0.439 0.183 0.549 0.695 0.044 0.205 0.265 0.334 0.48 0.495l-0.188 0.016c-0.694-0.145-1.425 0.549-1.681 0.768 0.109 0.037 0.538 0.007 0.767 0.293 0.354 0.441 1.563 0.42 1.892 0.42l-0.385 0.163c-0.223 0.26 0.05 0.602 0.357 0.604 0.311 0.002 0.372-0.18 0.351-0.463 0.184-0.073 0.49-0.176 0.819-0.36-0.183 0.245-0.609 1.292-1.609 0.988-0.84-0.255-2.009 0.219-2.229 0.328-0.219 0.111-0.585 0.513-0.841 0.622-0.255 0.109-0.804-0.073-0.365 0.256 0.289 0.217 0.674 0.335 1.21 0.372l-0.356 0.228c-0.183 0.074-0.306 0.058-0.525 0.277s-0.658 0.621-0.913 0.913c0.182 0.147 0.913 0.403 1.388 0.33s0.402-0.11 0.658-0.22c-0.073 0.11-0.183 0.11-0.146 0.329 0.036 0.22 0.35 0.39 0.582 0.302 0.237-0.09 0.092-0.597 0-0.688 0.184 0 0.55 0.057 0.77 0.057-0.083 0.278 0.142 0.766-0.841 1.17-1.671 0.689-1.387 0.428-2.303 1.572-0.292 0.366-0.474 1.315-0.547 1.79 0.182-0.219 0.291-0.146 0.547-0.511s0.769-0.439 1.39-0.767c0.621-0.33 1.316-1.463 1.571-1.901 0 0.365-0.438 1.645-0.767 1.937s-0.768 1.462-0.804 2.01c-0.037 0.548 0.402 1.828 0.585 2.193 0-0.182 0.183-0.109 0.949-1.535 0.769-1.426 0.211-1.846 0.138-2.469l-0.081-0.525c0.041 0.202 0.081 0.486 0.162 0.769 0.081 0.284 0.162 0.566 0.148 1.055 0.145 0.805 1.132 1.645 1.498 1.938 0.439-1.864-0.475-3.034-0.695-3.29-0.354-0.057-0.374-0.265-0.343-0.417l-0.041-0.365c-0.446-0.446-0.421-1.145-0.324-1.916l0.197-0.738c-0.037 0.11-0.256 0.768-0.183 1.134 0.073 0.365 0.073 0.512 0.293 0.767 0.218 0.256 0.466 0.615 0.502 0.834-0.04 0.005-0.444-0.081-0.444 0.284 0 0.294 0.16 0.454 0.343 0.417 0.183-0.036 0.349-0.202 0.385-0.458 0.146 0.183 0.676 0.678 1.041 0.969 0.146-0.547 0-1.681-0.146-2.046s-1.207-1.681-1.353-1.827c-0.145-0.147-0.292-0.622-0.183-0.987 0.11-0.366 0.366-0.512 0.585-0.841l0.183 0.146c0 0.257 0.11 0.329 0.293 0.366 0.182 0.036 0.292-0.037 0.401-0.22 0.11-0.182-0.072-0.438-0.182-0.621-0.11-0.182 0-0.329 0.11-0.73 0.109-0.403 0.438-0.622 0.694-1.061-0.073 0.257-0.036 0.293-0.146 0.585-0.11 0.293-0.183 0.658-0.292 1.353-0.11 0.694 0.255 1.68 0.585 2.083 0.328 0.402 0.584 0.804 0.876 1.096 0-0.22 0.476-2.156 0.366-2.594-0.11-0.44-0.366-1.353-0.621-1.573-0.256-0.218-0.297-0.343-0.37-0.709 0.073 0.183 0.241 0.378 0.498 0.344-0.206 0.026 0.609-0.003 0.21-0.668l-0.324-0.203c-0.059-0.417 0.812-0.647 0.81-0.647 0.183 0 0.223 0.417 0.223 0.527-0.182-0.263-0.745-0.224-0.709 0.141 0.037 0.366 0.264 0.425 0.668 0.324 0 0.293-0.349 0.709-0.312 1.403s0.621 1.534 0.877 1.791c0.256 0.256 0.622 0.731 0.841 1.097 0-0.147-0.037-0.366 0.073-0.622s0.198-1.546 0.08-1.909l-0.122-0.526zm-6.6607-1.5123c0.218 0 0.395 0.178 0.395 0.396 0 0.219-0.177 0.396-0.395 0.396-0.219 0-0.396-0.177-0.396-0.396 0-0.218 0.177-0.396 0.396-0.396zm2.2978 3.3855c0.231 0 0.418 0.188 0.418 0.419 0 0.232-0.187 0.419-0.418 0.419-0.232 0-0.419-0.187-0.419-0.419 0-0.231 0.187-0.419 0.419-0.419zm7.1826-8.7583c0.183-0.219 0.584-1.075 0.659-1.462 0.182-0.951 0.145-1.389 0.072-2.12-0.077-0.766 0.512-0.986 0.768-1.06 0.255-0.073 0.694-0.329 0.804-0.475 0.109-0.146 0.328-0.308 0.328 0.11 0 0.474-0.62 2.412-0.913 3.362-0.292 0.951-1.059 2.12-1.352 2.303-0.11-0.329-0.366-0.658-0.366-0.658zm14.037-0.4327c-0.145-0.512-0.495-4.461-0.382-5.265 0.113-0.803 0.398-2.839 0.837-2.946 0.439 0.109 0.75 2.211 0.86 3.015 0.109 0.804-0.257 4.752-0.403 5.262m-1.3528 0.5541c-1.742-3.324-1.356-7.277-1.324-7.535 0.153-1.27 1.24 1.864 1.385 2.122m-1.1214 5.4453c-1.668-2.298-2.065-6.808-2.059-6.55-0.031-1.28 1.661 2.003 1.841 2.237m-0.369 4.859c-2.231-2.216-3.051-5.698-3.09-5.81-0.401-1.177 1.874 1.454 2.163 1.722m0.4646 5.0417c-2.332-1.678-4-5.207-3.944-5.101-0.581-1.098 2.181 1.223 2.508 1.444m5.3371 2.1936c1.755-3.317 1.383-7.271 1.353-7.53-0.149-1.271-1.249 1.86-1.393 2.117m1.1009 5.4493c1.676-2.29 2.09-6.801 2.082-6.542 0.037-1.279-1.646 1.996-1.827 2.229m0.3295 4.8613c2.239-2.207 3.072-5.686 3.111-5.799 0.405-1.174-1.879 1.447-2.17 1.715m-0.3561 4.8885c2.558-1.828 3.78-4.829 3.837-4.935 0.585-1.096-2.083 1.133-2.412 1.353m-6.2138 4.2681c0.046 0.093-1.279-1.016-0.84-1.491 0.438-0.475 1.085 0.601 1.096 0.581 0.024-0.045-0.964-1.388-0.183-1.568 0.476-0.109 0.882 0.526 0.992 0.672m-1.9782 2.5822c-0.636-0.404-0.897-1.073-0.622-1.28 0.293-0.219 0.977-0.089 1.489 0.643m0.241 0.5503c-0.219-0.621-0.112-1.255-0.011-1.413 0.255-0.401 0.67-0.037 0.78 0.22m0.1623-0.3854c0.045 0.152-0.524-2.306 0.555-2.137 0.869 0.137 0.259 2.296 0.293 2.303m2.3024 1.4991c0.255-0.257 0.84-0.841 0.694-1.17s-0.723-0.227-1.198 0.102m0.3578 1.0302c0.146-0.219 0.292-0.548 0.037-0.767-0.177-0.152-1.161 0.516-0.768 0.219m-0.1462 0.1466c0.402-0.329 1.364-1.472 1.146-1.911-0.257-0.329-0.845-0.044-1.065 0.139m-0.4481 2.1648c0.256-0.256 0.852-0.885 0.404-1.234-0.329-0.255-0.585 0.037-0.585 0.037m-0.4865 0.5698c-0.094 0.105 1.883-2.034 1.181-2.544-0.803-0.581-1.39 1.347-1.363 1.654m13.922-0.1824c-0.061-0.141-0.205-0.39 0.052-0.645 0.258-0.254 0.591-1.093 1.36-1.344 0.77-0.252 1.094 0.481 1.02 0.809-0.075 0.328-0.663 0.801-1.104 1.273-0.386 0.414-0.68 0.535-0.863 0.373m-0.546-0.1014c-0.02 0.223 0.023 0.302 0.113 0.541 0.125-0.182 0.188-0.318 0.353-0.501l0.303-0.141c0.032-0.036 0.136-0.317-0.02-0.486-0.243-0.263-0.405-0.101-0.587 0.101l-0.162 0.486zm0.3333 0.8692c-0.33 0.108 0.849 0.321 1.107-0.081 0.258-0.399-0.065-0.727-0.38-0.696-0.15 0.016-0.169 0.1-0.275 0.292-0.094 0.163-0.343 0.449-0.452 0.485zm1.3866 0.4454c0.077-0.025 0.468 0.267 0.267 0.596-0.371 0.607-1.237-0.248-1.179-0.183-0.079-0.089 0.406-0.028 0.629-0.28l0.283-0.133zm-0.1345-0.3419c-0.275 0.109-0.27 0.434-0.149 0.474m-0.1063-0.5851c0.219 0.038 0.254 0.202 0.621 0.058 0.366-0.144 1.248-0.998 1.321-1.143 0.074-0.147 0.296-0.621 0.078-0.878-0.217-0.257-0.692-0.296-0.875-0.26m-0.6434 3.4463c0.447 0.283 0.809 0.061 1.064-0.191 0.331-0.327 1.014-1 1.141-1.274 0.277-0.601-0.265-1.051-0.691-0.936m-1.5113 2.4967c-0.075 0.401-0.499 1.106-1.483 0.663-0.985-0.445-0.393-1.67-0.082-1.768m-2.6983-1.3669c-0.473-0.383-1.131-0.338-1.505-0.357-0.357-0.018-0.737 0.146-0.851 0.22m4.8072 0.256c-0.069-0.018-1.749-0.137-2.289-0.138m0.3418 1.4829c0.22 0.002 1.645-0.063 1.937 0.011m-3.5443-0.2749c0.292-0.058 0.843-0.435 1.102-0.834 0.23-0.36 0.001-0.366-0.328-0.367-0.07-0.002-1.309 0.419-1.428 0.503m1.2198 1.7368c0.293-0.108 0.6-0.375 0.858-0.593 0.257-0.217 0.331-0.327 0.002-0.401-0.333-0.076-0.805-0.075-1.043-0.066-0.219 0.008-0.356 0.028-0.356 0.028m-1.9237-0.711c0.243-0.195 0.404-0.254 0.551-0.436s0.22-0.218-0.181-0.293c-0.402-0.075-1.352 0.029-1.647 0.357m2.6952 1.8408c0.257-0.29 0.405-0.546 0.479-0.765 0.075-0.219-0.153-0.199-0.415-0.152-0.295 0.054-0.435 0.013-0.644 0.074-0.226 0.066-0.885 0.499-0.787 0.44 0.183-0.108 1.039-0.787 1.192-1.059 0.133-0.237 0.124-0.384-0.144-0.367-0.372 0.024-0.908 0.265-1.099 0.36-0.146 0.072-0.36 0.263-0.479 0.317m1.5584 2.8681c0.257-0.145 0.958-0.519 1.212-1.054 0.171-0.361 0.161-0.463 0.154-0.498-0.036-0.147-0.238-0.018-0.568 0.163-0.205 0.113-0.206 0.113-0.352 0.149m-1.3232 1.2361c0.367-0.181 1.1-0.689 1.323-1.236 0.154-0.379 0.001-0.219 0.002-0.365s-0.376-0.076-0.622-0.003c0.002-0.001-1.304 0.6-1.001 0.367m-1.3693-0.1079c0.146-0.145 0.617-0.452 0.765-0.78 0.148-0.329 0.111-0.365 0.187-0.658 0.074-0.291-0.177-0.315-0.412-0.3-0.356 0.024-0.703 0.265-0.688 0.243 0.138-0.203 0.151-0.239 0.298-0.495 0.148-0.255-0.003-0.321-0.291-0.257-1.057 0.235-0.914 0.285-1.478 0.518-0.461 0.191-1.224 0.667-1.517 0.959m3.2353 2.1569c0.33-0.144 0.805-0.704 1.024-0.922 0.221-0.219 0.273-0.505 0.37-0.767 0.086-0.23 0.049-0.321 0.003-0.438-0.042-0.102-0.146-0.111-0.365-0.074-0.22 0.035-0.33 0.107-0.513 0.216m-0.5719 2.9135c0.404-0.202 1.107-0.425 1.364-0.716s0.368-0.474 0.479-0.728c0.111-0.256 0.133-0.347 0.092-0.407-0.054-0.082-0.393-0.036-0.502 0-0.111 0.035-0.429 0.11-0.539 0.182m-0.1584 2.2288c0.366-0.036 0.733-0.362 1.063-0.616 0.331-0.255 0.515-0.509 0.699-0.91 0.186-0.401-0.034-0.22-0.217-0.221-0.183 0-0.513 0.108-0.513 0.108m-3.232 2.4158c1.318 0.155 2.119-0.669 2.2-0.777 0.221-0.291 0.223-0.465-0.034-0.438-0.329 0.034-0.878 0.105-1.097 0.104-0.22-0.002-0.036-0.11 0.11-0.22 0.148-0.109 0.551-0.289 0.699-0.581 0.147-0.291 0.22-0.182-0.108-0.294-0.33-0.11-0.695 0.034-0.988 0.069-0.31 0.038-0.073 0 0.074-0.145 0.147-0.146 0.643-0.489 0.735-0.728 0.111-0.291 0.221-0.364 0.186-0.511-0.037-0.146-0.365-0.185-0.585-0.112-0.033 0.01-0.644 0.078-0.691 0.105 0.486-0.284 0.674-0.571 0.769-0.769 0.163-0.339 0.001-0.432 0.002-0.579 0-0.146-0.366-0.037-0.659 0.034-0.487 0.119-1.014 0.356-1.179 0.576m-19.654-2.0946s-0.122-0.122-0.357-0.071c-0.209 0.044-0.299 0.267-0.111 0.493 0.184 0.22 0.266 0.205 0.458 0.585 0.111-0.238 0.193-0.44 0.111-0.764l-0.101-0.243zm-0.4249 0.6269c-0.073 0.105-0.39 0.046-0.773-0.37-0.439-0.474-1.024-0.95-1.097-1.278-0.073-0.33 0.256-1.061 1.024-0.805 0.767 0.256 1.106 0.972 1.312 1.269 0.081 0.213 0.181 0.79 0.141 0.921m-0.2836 1.0267c0.329 0.11-0.837 0.307-1.092-0.096-0.256-0.402 0.162-0.642 0.303-0.607 0.147 0.036 0.152 0.055 0.258 0.246 0.092 0.165 0.421 0.42 0.531 0.457zm-1.335 0.592c-0.222-0.304-0.462-0.052-0.486-0.04-0.073 0.036-0.207 0.254 0.121 0.546 0.329 0.292 0.748-0.061 0.951-0.33 0.231-0.309-0.079-0.049-0.427-0.123l-0.159-0.053zm0.0556-0.4818c0.11 0.095 0.151 0.398 0.103 0.535m0.1526-0.6452c-0.219 0.037-0.256 0.201-0.621 0.055s-1.243-1.005-1.316-1.152c-0.073-0.145-0.292-0.621-0.073-0.876 0.219-0.256 0.694-0.293 0.877-0.256m0.5784 3.4489c-0.242 0.142-0.73 0.091-1.016-0.196-0.33-0.329-1.009-1.005-1.134-1.279-0.274-0.604 0.271-1.05 0.695-0.932m1.3524 2.5037c0.073 0.401 0.945 1.154 1.681 0.548 0.621-0.511 0.013-1.738-0.242-1.738m4.6644-1.6257c-0.439 0-1.316 0.074-1.681 0.366 0.091-0.072-2.393 0.137-2.478 0.157m-0.2265 1.3782c0.292-0.073 1.973-0.073 2.193-0.073m2.9234-1.5346c-0.11-0.074-0.548-0.366-0.95-0.33m-0.9504 2.5595c-0.292-0.11-0.584-0.293-0.841-0.512-0.256-0.219-0.329-0.329 0-0.402s0.971-0.063 1.19-0.063m2.1362-0.6683c-0.219-0.219-0.402-0.255-0.548-0.438-0.146-0.182-0.219-0.22 0.183-0.292 0.402-0.074 1.352 0.036 1.645 0.365m-2.7056 1.8276c-0.256-0.293-0.402-0.549-0.475-0.768s0.109-0.329 0.366-0.255c0.255 0.072 0.475 0.145 0.694 0.182s0.987 0.585 0.804 0.475c-0.182-0.109-1.096-0.804-1.206-1.097-0.109-0.292-0.183-0.401 0.146-0.365 0.37 0.042 0.906 0.27 1.097 0.365 0.146 0.074 0.438 0.293 0.548 0.256m-1.6448 2.925c-0.255-0.146-0.987-0.512-1.206-1.06-0.219-0.549-0.219-0.329-0.183-0.475 0.036-0.147 0.219-0.147 0.549 0.036 0.204 0.113 0.255 0.219 0.401 0.256m1.3163 1.243c-0.366-0.183-1.097-0.695-1.316-1.243-0.152-0.379 0-0.22 0-0.366s0.376-0.073 0.621 0c0.366 0.11 0.768 0.329 0.951 0.293m1.2793-0.0734c-0.147-0.146-0.475-0.402-0.622-0.731-0.146-0.329-0.109-0.366-0.182-0.658s0.255-0.219 0.474-0.183c0.22 0.036 1.243 0.636 0.768 0.256-0.183-0.146-0.292-0.365-0.438-0.621-0.147-0.256 0-0.293 0.292-0.256 1.051 0.131 0.849 0.234 1.425 0.548 0.328 0.179 1.178 0.857 1.484 1.099m-3.2747 1.8986c-0.329-0.146-0.694-0.621-0.914-0.841-0.218-0.22-0.255-0.511-0.365-0.768-0.11-0.255 0-0.329 0-0.438 0-0.11 0.147-0.11 0.365-0.074 0.22 0.037 0.329 0.111 0.512 0.22m0.1829 2.6686c-0.329-0.074-0.731-0.183-0.987-0.476-0.255-0.292-0.366-0.475-0.475-0.73-0.11-0.256-0.073-0.366-0.073-0.439s0.366 0.036 0.475 0.073c0.11 0.037 0.438 0.073 0.548 0.146m0.1464 2.2298c-0.365-0.037-0.73-0.366-1.06-0.622-0.329-0.255-0.512-0.511-0.694-0.913-0.183-0.401 0.036-0.22 0.219-0.22s0.512 0.11 0.512 0.11m2.9241 2.3399c-1.319 0.147-1.819-0.586-1.901-0.695-0.219-0.292-0.22-0.468 0.036-0.438 0.33 0.035 0.878 0.109 1.097 0.109s0.037-0.109-0.11-0.219c-0.146-0.11-0.548-0.293-0.694-0.585s-0.219-0.183 0.11-0.292c0.328-0.11 0.694 0.036 0.986 0.073 0.31 0.038 0.074 0-0.073-0.147-0.146-0.146-0.641-0.491-0.73-0.73-0.11-0.293-0.22-0.366-0.183-0.511 0.036-0.147 0.178-0.195 0.41-0.195 0.141 0 0.427 0.003 0.465 0.041-0.162-0.163-0.283-0.319-0.465-0.648-0.183-0.329 0-0.445 0.102-0.552 0.1-0.106 0.455-0.068 0.748 0.006 0.207 0.052 0.36 0.215 0.869 0.546m-1.252 5.7353c0.036-0.548 0.475-0.95 0.585-1.023m-1.9185 4.415c-0.188-0.199-0.321-0.957-0.108-1.064 0.296-0.147 0.934 0.25 1.321 0.752 0.482 0.624 0.561 1.464 0.706 1.708m-0.7056-1.7083c-0.188-0.199-0.32-0.958-0.107-1.065 0.403-0.202 0.288-0.313 0.794 0.361m-9.5613 14.847c-0.279 0.098-2.437 0.991-3.204 1.442-0.509 0.299-0.977 0.612-1.354 0.826-0.414 0.235-0.827 1.025-0.763 1.248 0.133 0.461 1.342 0.233 1.669 0.242m5.1136-5.8695c-0.586 0.141-2.81 0.864-3.335 1.103-0.538 0.246-1.036 0.509-1.432 0.683-0.501 0.22-0.944 0.612-0.887 1.162 0.029 0.284 0.869 0.472 1.348 0.414m4.4642-4.7138c-0.507 0.099-2.043 0.597-2.602 0.745-0.588 0.155-0.902 0.333-1.284 0.501-0.437 0.191-0.866 0.54-0.764 0.748 0.143 0.293 0.831 0.42 1.156 0.461m3.5765-3.6242c-0.516 0.03-1.992 0.242-2.561 0.344-0.586 0.104-1.156 0.217-1.547 0.363-0.541 0.203-0.808 0.555-0.661 0.884 0.115 0.261 0.743 0.558 1.058 0.643m3.7931-3.2568c-0.516-0.014-1.938-0.095-2.515-0.074-0.608 0.022-1.069 0.062-1.478 0.141-0.468 0.091-0.869 0.419-0.896 0.649-0.034 0.284 0.68 0.763 0.988 0.874m4.0939-2.6845c-0.516-0.037-2.085-0.35-2.663-0.354s-1.039 0.01-1.483 0.076c-0.471 0.07-0.837 0.312-0.898 0.625-0.056 0.279 0.466 0.717 0.768 0.842m4.3946-2.2481c-0.473-0.26-1.62-0.43-2.188-0.531-0.6-0.105-1.243-0.186-1.659-0.194-0.476-0.01-0.937 0.226-1.012 0.445-0.092 0.271 0.482 0.839 0.759 1.012m4.2197-1.8999c-0.485-0.18-1.292-0.62-1.846-0.785-0.583-0.173-0.904-0.278-1.317-0.333-0.472-0.063-1.086 0.112-1.185 0.322-0.122 0.257 0.434 0.998 0.689 1.202m4.1065-1.4261c-0.451-0.252-1.093-0.66-1.614-0.91-0.549-0.263-0.975-0.441-1.373-0.562-0.457-0.137-0.965-0.034-1.095 0.157-0.314 0.458 0.404 1.143 0.471 1.217m4.2673-1.0298c-0.423-0.296-0.867-0.685-1.36-0.987-0.519-0.317-0.924-0.538-1.31-0.698-0.439-0.183-0.955-0.132-1.104 0.045-0.185 0.217 0.044 1.018 0.238 1.281m4.3908-0.5293c-0.395-0.333-0.802-0.759-1.267-1.103-0.489-0.363-0.873-0.619-1.243-0.813-0.422-0.22-0.94-0.215-1.104-0.052-0.203 0.2-0.036 0.883 0.134 1.162m4.4054 0.0285c-0.363-0.368-0.729-0.831-1.159-1.216-0.453-0.406-0.812-0.698-1.162-0.924-0.4-0.26-0.916-0.302-1.095-0.155-0.221 0.18-0.117 0.875 0.026 1.169m2.7209-1.8401c-0.399-0.259-0.91-0.41-1.313-0.268-0.404 0.143-0.209 0.913-0.138 1.205m3.2597 1.308c-0.276-0.337-1.579-2.063-1.809-2.245-0.202-0.16-0.246-1.062 0.303-1.204 0.722-0.186 1.273 0.742 1.563 1.11 0.288 0.368 0.9 1.506 1.044 1.727m1.3433-0.2851c-0.211-0.476-0.924-2.037-1.174-2.419-0.268-0.411-0.832-0.92-1.345-0.815-0.512 0.105-0.374 1.057-0.338 1.166m3.7709 0.8989c-0.253-0.466-0.514-1.543-0.765-1.968-0.281-0.477-0.62-0.691-0.835-0.666-0.586 0.068-0.556 0.909-0.594 1.128m-0.9411 3.8182c-0.188-0.199-0.32-0.957-0.108-1.065 0.296-0.147 0.945 0.022 1.332 0.523 0.523 0.678 0.813 1.235 0.919 1.413m-3.3419-0.2215c-0.203-0.183-0.396-0.928-0.193-1.052 0.283-0.172 0.878-0.066 1.369 0.414 0.448 0.435 0.786 0.849 0.994 1.141m-3.2543 0.0819c-0.222-0.16-0.437-0.771-0.248-0.916 0.263-0.2 0.768-0.067 1.331 0.359 0.609 0.46 0.934 0.786 1.071 0.942m-2.9297 0.5593c-0.222-0.161-0.491-0.883-0.302-1.026 0.263-0.201 0.851-0.039 1.405 0.268 0.668 0.368 0.934 0.695 1.071 0.85m-2.6954 1.0364c-0.255-0.161-0.724-0.833-0.577-1.014 0.232-0.284 0.756-0.264 1.386 0.029 0.759 0.352 1.064 0.527 1.226 0.687m-2.5019 1.3308c-0.255-0.1-0.705-0.587-0.557-0.773 0.204-0.261 0.745-0.336 1.358-0.178 0.739 0.189 1.042 0.292 1.213 0.409m-2.151 1.6607c-0.267-0.063-0.934-0.495-0.816-0.702 0.164-0.287 0.47-0.459 1.1-0.392 0.758 0.081 1.418 0.38 1.604 0.47m-2.0795 1.6815c-0.267-0.062-0.878-0.349-0.78-0.646 0.102-0.314 0.689-0.439 1.319-0.372 0.758 0.081 1.073 0.139 1.258 0.23m-1.9888 1.8467c-0.273-0.03-0.857-0.189-0.764-0.409 0.129-0.303 0.633-0.617 1.266-0.628 0.804-0.013 1.603 0.134 1.735 0.179m-2.2459 1.8811c-0.272-0.029-0.857-0.189-0.764-0.408 0.128-0.304 0.633-0.619 1.266-0.629 0.805-0.013 1.75 0.063 1.882 0.107m-2.431 2.1c-0.329-0.003-1.022-0.119-0.984-0.338 0.039-0.219 0.482-0.8 1.324-0.902 0.841-0.103 2.157-0.072 2.266-0.035m-2.7637 2.6259c-0.293 0.07-1.17 0.063-1.279-0.12-0.108-0.185 0.117-0.767 0.887-1.054 0.77-0.285 3.368-0.591 3.368-0.591m-3.5013 3.2954c-0.219 0.035-1.062 0.246-1.242-0.083-0.18-0.331 0.41-0.875 0.814-1.09 0.404-0.216 3.665-1.211 3.776-1.284m-4.0591 4.4251c-0.55 0.178-1.245 0.256-1.389-0.049-0.306-0.652 0.483-1.031 0.779-1.272 0.221-0.182 4.329-1.936 4.441-2.082m5.3324-8.0316c-0.362-0.369-2.116-0.384-2.933 0.997-0.816 1.383-1.121 2.988-0.616 3.651 0.506 0.662 2.033 1.699 0.998 3.006s-4.298 4.29-6.043 5.503c-1.765 1.228-5.936 3.373-8.175 3.79-0.647 0.12-0.366-0.659-0.037-0.914 0.497-0.385 4.491-2.604 4.85-2.905 0.413-0.348 5.177-2.914 5.658-3.387-0.069-0.512 0.665-0.798 1.4-1.23-0.586 0.141-1.02-0.375 0.449-1.166-0.696 0.14-0.947-0.447-0.211-1.062-0.402-0.04-0.764-0.372-0.357-0.917-0.255-0.112-0.654-0.481-0.248-0.916-0.219-0.111-0.544-0.516 0.007-0.804-0.474-0.15-0.434-0.625-0.067-0.731-0.618-0.161-0.287-0.786 0.082-0.95-0.201-0.307-0.323-0.698 0.19-0.876-0.199-0.355-0.029-0.841 0.372-0.728 0.001-0.182-0.14-0.768 0.517-0.689 0.003-0.293 0.155-0.876 0.702-0.762 0.04-0.475 0.443-0.618 0.844-0.468 0.26-0.473 0.517-0.617 1.063-0.32 0.111-0.181 0.847-0.687 1.207-0.136 0.111-0.145 0.319-0.338 0.319-0.338m12.655-4.8943c0.036-0.365-0.168-0.502-0.278-0.648s-0.426 0.023-0.426 0.023m9.6501 18.166c0.706 0.264 2.592 1.209 3.107 1.498 0.53 0.299 1.241 0.583 1.535 0.878 0.439 0.438 0.611 0.976 0.585 1.205-0.032 0.285-0.768 0.512-1.353 0.403m-5.4826-6.141c0.585 0.146 2.802 0.889 3.327 1.133 0.534 0.25 1.03 0.518 1.424 0.695 0.436 0.195 0.903 0.94 0.878 1.17-0.032 0.283-1.028 0.363-1.353 0.401m-4.4223-4.7507c0.506 0.104 2.038 0.615 2.596 0.767 0.586 0.16 0.898 0.341 1.278 0.512 0.436 0.195 0.688 0.67 0.585 0.877-0.146 0.292-0.662 0.29-0.986 0.329m-3.546-3.6551c0.516 0.034 1.991 0.259 2.559 0.366 0.585 0.109 1.153 0.226 1.543 0.376 0.54 0.208 0.717 0.745 0.722 0.976 0.007 0.286-0.816 0.466-1.133 0.548m-3.7636-3.2895c0.517-0.009 1.938-0.079 2.516-0.052 0.608 0.028 1.067 0.071 1.477 0.154 0.466 0.096 0.864 0.426 0.889 0.656 0.032 0.284-0.529 0.708-0.838 0.816m-4.2269-2.6703c0.516-0.033 2.088-0.331 2.665-0.331 0.577 0.001 1.039 0.019 1.482 0.088 0.471 0.074 0.884 0.388 0.919 0.616 0.044 0.282-0.498 0.731-0.801 0.854m-4.374-2.2867c0.475-0.256 1.621-0.417 2.192-0.512 0.6-0.101 1.243-0.176 1.66-0.181 0.476-0.006 0.936 0.236 1.008 0.455 0.09 0.271-0.488 0.834-0.767 1.005m-4.203-1.9375c0.486-0.174 1.297-0.608 1.852-0.768 0.585-0.168 1.034-0.274 1.448-0.326 0.473-0.06 0.956 0.126 1.054 0.337 0.12 0.258-0.443 0.994-0.699 1.196m-4.0939-1.4624c0.453-0.248 1.098-0.65 1.621-0.896 0.551-0.257 0.979-0.432 1.379-0.549 0.458-0.133 0.964-0.026 1.094 0.166 0.159 0.238-0.141 0.873-0.363 1.113m-4.3773-0.9664c0.425-0.293 0.872-0.678 1.368-0.975 0.522-0.313 0.929-0.532 1.315-0.688 0.442-0.179 0.957-0.122 1.106 0.055 0.182 0.219-0.052 0.882-0.248 1.143m-4.3891-0.4304c0.399-0.33 0.81-0.753 1.277-1.092 0.492-0.359 0.879-0.612 1.25-0.802 0.423-0.218 0.942-0.207 1.105-0.045 0.201 0.203 0.028 0.884-0.145 1.163m-4.405-0.01c0.365-0.366 0.736-0.824 1.169-1.207 0.457-0.402 0.818-0.689 1.17-0.913 0.402-0.256 0.919-0.295 1.097-0.147 0.219 0.183 0.109 0.878-0.037 1.17m-2.7049-1.864c0.402-0.256 0.914-0.401 1.316-0.256 0.402 0.147 0.201 0.914 0.128 1.206m-3.2712 1.2802c0.183-0.219 1.498-1.974 1.827-2.23 0.205-0.159 0.257-1.06-0.291-1.207-0.721-0.191-1.281 0.732-1.573 1.098-0.293 0.365-0.913 1.498-1.06 1.717m-1.2795-0.4024c0.183-0.401 0.842-1.864 1.133-2.302 0.273-0.409 0.841-0.914 1.353-0.804s0.365 1.059 0.33 1.169m-3.8027 0.9139c0.184-0.329 0.433-1.48 0.805-2.01 0.255-0.366 0.862-0.655 0.84-0.658 0.585 0.073 0.549 0.914 0.585 1.133m0.9081 3.8255c0.19-0.197 0.328-0.954 0.117-1.062-0.295-0.151-0.946 0.012-1.337 0.511-0.529 0.673-0.824 1.227-0.931 1.404m3.343-0.1919c0.206-0.182 0.404-0.926 0.202-1.051-0.281-0.174-0.876-0.072-1.372 0.402-0.551 0.527-0.882 0.966-1.003 1.134m3.2529 0.1084c0.223-0.158 0.444-0.767 0.256-0.913-0.262-0.203-0.767-0.074-1.334 0.348-0.612 0.453-0.94 0.777-1.079 0.931m2.9241 0.5848c0.223-0.159 0.499-0.878 0.311-1.024-0.261-0.202-0.85-0.044-1.407 0.256-0.671 0.363-0.94 0.687-1.078 0.841m2.686 1.0598c0.256-0.158 0.841-0.731 0.694-0.914-0.228-0.285-0.863-0.365-1.494-0.078-0.762 0.346-1.069 0.517-1.232 0.677m2.3691 1.3298c0.255-0.098 0.831-0.558 0.685-0.747-0.202-0.262-0.742-0.341-1.357-0.188-0.74 0.182-1.044 0.283-1.216 0.398m2.1358 1.6794c0.267-0.06 0.939-0.488 0.823-0.695-0.163-0.288-0.467-0.463-1.097-0.402-0.759 0.074-1.421 0.368-1.608 0.457m2.0656 1.6997c0.267-0.06 0.901-0.433 0.786-0.639-0.163-0.289-0.687-0.446-1.317-0.385-0.759 0.075-1.074 0.131-1.261 0.22m1.9743 1.8642c0.271-0.027 0.858-0.183 0.767-0.402-0.126-0.306-0.628-0.624-1.261-0.64-0.804-0.02-1.604 0.12-1.736 0.165m2.23 1.9004c0.271-0.027 0.858-0.182 0.767-0.402-0.126-0.307-0.628-0.624-1.261-0.641-0.804-0.019-1.75 0.049-1.883 0.093m2.4129 2.1192c0.329 0 1.023-0.11 0.987-0.329-0.037-0.219-0.475-0.804-1.315-0.913-0.841-0.111-2.157-0.092-2.267-0.055m2.7413 2.6493c0.293 0.073 1.17 0.073 1.279-0.109 0.11-0.183-0.109-0.768-0.877-1.061-0.767-0.292-3.363-0.621-3.363-0.621m3.4732 3.3258c0.219 0.037 1.059 0.256 1.243-0.073 0.182-0.329-0.403-0.877-0.805-1.097-0.402-0.218-3.655-1.242-3.765-1.315m4.0216 4.4588c0.548 0.183 1.133 0.183 1.388-0.036 0.256-0.22-0.548-1.097-0.767-1.279-0.22-0.183-4.313-1.974-4.422-2.121m-5.264-8.0773c0.365-0.365 2.12-0.365 2.924 1.023 0.804 1.39 1.097 2.998 0.585 3.656s-2.047 1.681-1.024 2.997c1.024 1.316 4.26 4.327 5.994 5.555 1.755 1.243 4.783 3.086 7.018 3.582 0.658 0.147 1.882 0.412 1.645 0-0.695-1.206-3.545-2.485-5.263-3.691-0.383-0.268-5.189-2.85-5.666-3.326 0.073-0.511-0.657-0.804-1.388-1.242 0.585 0.146 1.024-0.366-0.44-1.17 0.695 0.146 0.952-0.439 0.22-1.06 0.403-0.037 0.768-0.366 0.366-0.914 0.256-0.11 0.657-0.475 0.256-0.914 0.219-0.11 0.548-0.512 0-0.804 0.475-0.146 0.438-0.621 0.072-0.731 0.62-0.155 0.295-0.783-0.072-0.95 0.203-0.306 0.329-0.696-0.184-0.877 0.202-0.354 0.037-0.842-0.364-0.732 0-0.182 0.146-0.767-0.513-0.694 0-0.292-0.145-0.877-0.693-0.768-0.037-0.475-0.44-0.621-0.841-0.475-0.256-0.474-0.512-0.621-1.06-0.329-0.11-0.183-0.841-0.695-1.207-0.145-0.109-0.147-0.365-0.44-0.365-0.44m0.9501-1.6443c0.028-0.061 0.362-1.681-0.841-0.767m1.9383 1.0592c0.142-0.234 0.141-0.792-0.089-0.852-0.319-0.084-0.799 0.294-1.193 0.79-0.473 0.597-0.626 1.109-0.692 1.304m-6.4242-10.413c0-0.438-0.341-1.623 0.503-1.538 0.548 0.054 0.56 0.752 0.469 1.538m-2.7722 0.0719c0.081 0.101 0.04-0.017 0.04-0.017m-1.52 20.556c-0.042-0.334-0.121-1.512-0.241-1.752 0.04 0.08-0.404-0.486-1.313-0.66m-0.9132 2.5951c0.256-0.183 0.768-0.658 0.768-0.878 0-0.218 0-0.548 0.036-0.731 0.037-0.182 0.219-0.402 0.475-0.256m-7.7481 11.185c0-0.329 0.137-0.723-0.046-1.016-0.182-0.292-0.21-0.702-0.21-0.702m6.3232-6.3231c-0.213-0.106-0.221-0.3-0.475-0.402-0.183-0.073-0.512-0.11-0.658-0.292m-7.8949 7.7115c-0.183-0.475-0.036-0.914-0.073-1.279-0.037-0.366 0.149-0.886 0.858-0.968 0.787-0.092 3.217-0.713 4.515-1.444 0.955-0.539 2.479-1.559 2.997-2.157 0.475-0.548 1.206-1.352 1.279-1.754s-0.073-0.621-0.256-0.694m-10.161 12.61c-0.183-0.439-0.22-0.841-0.292-1.316 0.015 0.1-0.814-1.311-0.622-1.023-0.219-0.329-0.088-0.773 0.073-1.097-0.26 0.52 0.512-0.878 1.645-1.206m0.8408 4.5687c-0.073-0.476-0.658-1.608-0.768-1.681m11.422-10.563c-0.292-0.074-0.749-0.33-0.713-0.987 0.037-0.658 0.046-1.739-0.402-1.901-0.751-0.271-1.255 0.25-1.279 0.84-0.037 0.878-0.622 0.878-0.914 1.17 0.025-0.024-1.075 1.126 0 1.28 0.256 0.036 0.658-0.329 0.695-0.476 0.036-0.146 0.767-0.511 0.913 0.037 0.147 0.548 0.659 0.95 1.024 0.987 0.365 0.036 0.731 0.474 0.036 1.316-1.151 1.392-3.289 3.216-5.116 3.983-1.644 0.691-4.208 1.426-5.447 1.572-0.621 0.073-0.082 0.696 0.183 0.658 0.402 0 1.572-0.219 1.864-0.183 0.293 0.037 1.097 0.549 0.329 1.061-0.767 0.51-2.266 0.914-2.595 1.206s-1.352 0.767-0.841 1.936c0.512 1.17 1.682 0.403 1.645-0.073-0.036-0.474-0.511-0.986-0.95-0.474-0.227-0.364-0.263-0.683-0.403-0.878m13.525-11.696c-0.22 0.037-0.75 0.165-1.079 0.091m0.7864-4.221c-0.804 0.987-0.11 2.376 0.11 2.887 0.138 0.324 0.149 1.548 0.073 1.682m1.169-0.9137c0.037-0.366-0.256-1.206-0.438-1.535-0.183-0.329-0.22-0.877-0.183-1.17m0.2921-3.3627c0.11-0.22 0.11-0.329 0.22-0.402m-0.5123 0.4386c-0.146-0.219-0.183-0.329-0.365-0.366m-1.0969 0.7683c0-0.22-0.146-0.585-0.037-0.768m-0.2551 1.2795c-0.22-0.256-0.622-0.878-0.658-1.133m8.9543 1.8278c0.329-0.402 0.987-1.755 0.804-1.974-0.182-0.22-0.913 0.401-1.023 0.658m-4.1304-0.5494c0.511-0.072 0.732 0.695 0.878 0.914 0.182-0.438 0.548-0.95 0.913-1.023 0.366-0.073 0.841 0.987 0.841 1.207 0.256-0.549 0.694-1.098 1.096-1.098s0.365 1.244 0.439 1.463m-4.5692-1.6082c0.11 0 0.679 0.117 0.402 0.145-0.694 0.074-0.767 0.842-0.84 1.171-0.073-0.146-0.804-1.171-1.243-0.987-0.439 0.183-0.585 1.17-0.621 1.572-0.33-0.256-0.987-1.756-1.207-0.878-0.219 0.878 1.221 1.468 1.06 1.609m1.1336 1.2787c-0.256-0.074-1.133-0.804-1.133-1.279 0-0.476 0.036-0.621 0.146-0.731s1.254 0.67 1.365 1.145c-0.037-0.365-0.013-1.255 0.389-1.584s0.988 0.622 1.024 1.06c0.109-0.366 0.109-1.06 0.768-1.352 0.657-0.292 0.756 0.88 0.829 1.136 0.146-0.512 0.558-0.844 0.925-0.88 0.365-0.037 0.579 0.809 0.579 1.065 0.183-0.475 0.591-0.663 0.883-0.846s0.365 0.402 0.256 0.585m11.44 16.484c-0.074 0.293-0.219 0.95-0.219 0.95-0.156-0.465-1.317-0.438-0.951 0.293s1.316 0.804 1.535 0.073-0.731-1.9-1.389-2.266-1.9-0.585-2.193-0.951c-0.203-0.254-0.747-1.036 0.805-0.804 1.462 0.219 1.9 0.585 1.9-0.073s-1.17-0.511-2.047-0.73c-0.731-0.183-2.416-0.623-3.988-1.567-1.655-0.992-3.761-2.674-4.272-3.331-0.512-0.658-1.532-1.208-0.878-1.536 1.024-0.511 0.95-1.316 1.462-1.461m9.1383 12.134c0.219-0.293 0.512-0.95 0.438-1.17m-10.088-15.57c-0.292 0.731-1.316 2.777-1.535 2.924m4.0582 2.0827c0.146-0.584-0.549-1.279-0.111-1.937 0.439-0.657-0.072-0.584-0.365-0.95-0.293-0.365-1.096-0.804-1.023-1.754s-0.804-0.878-1.463-0.95m1.4626 5.3355c0.487 0 0.877-0.584 0.877-0.584m-0.7669 1.9728c-0.174-0.139-0.034-0.864 0.548-0.768m5.7022 7.9322c0.116-0.466 0.37-0.684 0.219-0.987m2.6319 0.9138c0.146-0.293 0.073-0.585 0.073-0.95 0-0.366-0.146-0.658 0.073-0.95 0.219-0.293-0.882-0.498-1.389-0.658-0.705-0.224-2.827-0.842-3.984-1.56-1.173-0.729-2.913-1.983-4.24-3.302-0.206-0.203-0.644-0.74-0.256-1.206 0.366-0.438 0.882 0.776 1.389 0.878 0.549 0.109 0.877-0.585 0.366-1.024-0.512-0.438-1.974-1.462-2.193-2.851-0.221-1.389-0.221-0.95-0.074-1.608 0.146-0.658-0.95-0.804-1.169 0-0.22 0.804-0.366 0.878-0.366 0.878m12.647 16.446c0.219-0.511 0.366-0.804 0.366-1.243s0.218-0.731 0.511-1.096 0.073-0.804-0.219-1.243c-0.292-0.438-1.462-1.17-1.462-1.17m-17.106-7.4552-0.255 0.219m0.4011-0.877c0.073-0.11 0.073-0.439 0.073-0.731 0.146-0.11 0.585-0.348 0.731-0.494 0.151-0.15-0.036-0.767-0.182-0.877-0.147-0.11-0.585-1.005-0.695-1.151s-0.11-0.585 0.146-0.805c0.256-0.219 1.206 0.637 1.389 0.82-0.073-0.439-0.003-1.2 0.256-1.258 0.329-0.073 0.69 1.41 0.763 1.628-0.073-0.292 0.451-1.825 0.845-1.628 0.439 0.219 0.461 1.445 0.498 1.628 0-0.183 0.671-1.701 1.074-1.299 0.402 0.402 0.183 0.914 0.109 1.097 0.147 0.182 0.147 0.767 0.147 0.877 0 0.109-0.184 0.365-0.037 0.658 0.146 0.292 0.181 1.259 0.146 1.535-0.036 0.292-0.146 0.383-0.109 0.547 0.001 0.009 0.566 0.242 0.219 0.439-0.932 0.53-1.901 0.804-3.034 1.024-1.118 0.216-1.848-0.02-2.01-0.183-0.566 0.018-0.877 0.037-0.969-0.219 0.045 0.125-2.65-0.311-1.662-2.011 0.146 0.366 0.401 0.731 1.462 0.586 1.059-0.147 1.571-0.548 1.79-0.622-0.256 0.256-0.109 0.549-0.767 0.841" stroke="#231f20" stroke-miterlimit="10" stroke-width=".278" fill="none"/><g fill="#231f20"><path d="m190.45 621.95 0.008 0.041c0.045-0.007 0.079-0.007 0.099 0 0.033 0.011 0.054 0.039 0.062 0.084l0.148 0.77c0.009 0.046-0.001 0.079-0.028 0.101-0.015 0.013-0.046 0.025-0.091 0.036l0.008 0.042 0.915-0.176-0.061-0.32-0.04 0.008c-0.001 0.107-0.022 0.183-0.063 0.23s-0.125 0.083-0.253 0.107c-0.049 0.01-0.08 0.011-0.096 0.003-0.015-0.008-0.026-0.027-0.031-0.057l-0.071-0.37c0.09-0.019 0.155-0.014 0.194 0.013 0.038 0.028 0.075 0.084 0.109 0.17l0.04-0.008-0.102-0.531-0.04 0.008c0.006 0.092-0.005 0.16-0.033 0.203-0.028 0.044-0.087 0.075-0.178 0.092l-0.074-0.385c-0.007-0.033-0.002-0.057 0.013-0.073 0.014-0.015 0.049-0.028 0.103-0.039 0.101-0.019 0.188-0.015 0.26 0.012 0.071 0.027 0.142 0.09 0.213 0.189l0.044-0.009-0.128-0.319-0.927 0.178z"/><path d="m193.11 621.89c0.059 0.016 0.105 0.076 0.138 0.179 0.022 0.072 0.028 0.132 0.018 0.183s-0.049 0.088-0.116 0.109c-0.031 0.009-0.055 0.013-0.07 0.01-0.016-0.003-0.027-0.016-0.034-0.037l-0.131-0.417c0.093-0.028 0.158-0.037 0.195-0.027m-0.726-0.333c0.052-0.013 0.09-0.014 0.113-0.001 0.023 0.012 0.043 0.045 0.061 0.1l0.214 0.681c0.019 0.058 0.022 0.097 0.008 0.118-0.013 0.021-0.044 0.042-0.093 0.064l0.013 0.04 0.498-0.157c0.132-0.042 0.225-0.095 0.281-0.159 0.055-0.064 0.066-0.148 0.034-0.252-0.016-0.051-0.045-0.094-0.086-0.13s-0.097-0.058-0.167-0.066c-0.053-0.004-0.103 0-0.151 0.011-0.048 0.012-0.117 0.032-0.21 0.062l-0.091-0.291c-0.018-0.057-0.02-0.096-0.007-0.12 0.013-0.023 0.045-0.045 0.097-0.063l-0.013-0.04-0.514 0.162 0.013 0.041z"/><path d="m195.21 621.64-0.015-0.039c-0.059 0.022-0.102 0.029-0.128 0.021s-0.05-0.041-0.074-0.098l-0.206-0.5c-0.031-0.077-0.046-0.139-0.045-0.188 0-0.09 0.047-0.154 0.14-0.192 0.115-0.048 0.209-0.037 0.285 0.032 0.041 0.037 0.08 0.098 0.114 0.182l0.188 0.458c0.023 0.053 0.027 0.094 0.016 0.122-0.011 0.029-0.045 0.057-0.1 0.085l0.016 0.039 0.327-0.135-0.016-0.039c-0.052 0.01-0.088 0.012-0.108 0.005-0.021-0.007-0.041-0.034-0.061-0.082l-0.197-0.479c-0.052-0.127-0.123-0.213-0.213-0.257s-0.2-0.039-0.332 0.015c-0.171 0.071-0.268 0.171-0.288 0.3-0.012 0.068 0 0.145 0.036 0.232l0.206 0.5c0.023 0.056 0.03 0.094 0.021 0.115s-0.039 0.045-0.088 0.072l0.016 0.039 0.506-0.208z"/><path d="m193.37 621.22c0.041-0.013 0.072-0.018 0.093-0.016 0.036 0.005 0.062 0.03 0.078 0.074l0.27 0.735c0.016 0.044 0.013 0.079-0.01 0.104-0.013 0.015-0.041 0.032-0.083 0.05l0.015 0.04 0.527-0.194-0.015-0.04c-0.062 0.021-0.106 0.028-0.132 0.02s-0.05-0.042-0.072-0.101l-0.264-0.717c-0.012-0.034-0.012-0.06 0.002-0.077s0.046-0.035 0.097-0.054c0.092-0.034 0.176-0.042 0.253-0.024s0.16 0.076 0.248 0.177l0.043-0.016-0.188-0.323-0.877 0.322 0.015 0.04z"/><path d="m196.25 620.54c0.054 0.001 0.107 0.044 0.159 0.132 0.032 0.054 0.049 0.101 0.053 0.141 0.005 0.069-0.028 0.124-0.097 0.165-0.038 0.022-0.065 0.031-0.082 0.03-0.017-0.003-0.032-0.015-0.045-0.036l-0.209-0.353c0.093-0.053 0.167-0.08 0.221-0.079m-0.831-0.162c0.048-0.025 0.085-0.035 0.111-0.029 0.026 0.005 0.054 0.033 0.085 0.085l0.364 0.615c0.031 0.053 0.042 0.094 0.031 0.122-0.007 0.019-0.032 0.044-0.077 0.076l0.021 0.036 0.449-0.265c0.093-0.055 0.163-0.109 0.209-0.163 0.088-0.106 0.103-0.209 0.042-0.311-0.045-0.076-0.106-0.12-0.185-0.132-0.059-0.008-0.114-0.004-0.164 0.013l0.027-0.549c0.002-0.016 0.006-0.028 0.013-0.037s0.017-0.017 0.03-0.026l-0.021-0.036-0.283 0.167-0.03 0.608-0.038 0.022-0.163-0.274c-0.028-0.048-0.04-0.087-0.033-0.113 0.006-0.026 0.032-0.055 0.08-0.085l-0.022-0.036-0.468 0.276 0.022 0.036z"/><path d="m196.55 619.69c0.037-0.027 0.066-0.043 0.088-0.047 0.036-0.006 0.069 0.01 0.097 0.047l0.475 0.624c0.029 0.038 0.035 0.072 0.02 0.104-0.009 0.019-0.033 0.044-0.07 0.075l0.025 0.034 0.452-0.343-0.025-0.033c-0.042 0.029-0.073 0.045-0.094 0.049-0.035 0.007-0.067-0.009-0.096-0.047l-0.474-0.625c-0.027-0.035-0.035-0.066-0.024-0.094s0.036-0.056 0.077-0.087l-0.025-0.034-0.452 0.343 0.026 0.034z"/><path d="m198.05 619.35c0.048 0.004 0.096 0.04 0.148 0.105 0.037 0.048 0.06 0.096 0.068 0.143s-0.013 0.09-0.064 0.13c-0.026 0.021-0.049 0.031-0.066 0.03-0.018-0.001-0.035-0.012-0.053-0.036l-0.223-0.285c0.079-0.062 0.143-0.091 0.19-0.087m-0.498-0.327c-0.003-0.026 0.009-0.051 0.039-0.075 0.06-0.046 0.116-0.063 0.166-0.05 0.05 0.014 0.099 0.051 0.146 0.111 0.07 0.091 0.091 0.172 0.06 0.244-0.019 0.043-0.063 0.092-0.134 0.145l-0.248-0.318c-0.018-0.023-0.027-0.042-0.029-0.057m-0.352 0.216c0.035-0.025 0.063-0.04 0.084-0.043 0.035-0.007 0.067 0.008 0.096 0.045l0.483 0.619c0.028 0.036 0.036 0.07 0.022 0.101-0.007 0.019-0.028 0.043-0.064 0.074l0.026 0.033 0.394-0.308c0.076-0.06 0.133-0.118 0.169-0.174 0.069-0.107 0.07-0.203 0.002-0.29-0.04-0.053-0.093-0.079-0.155-0.08-0.063-0.001-0.12 0.013-0.171 0.039l-0.009-0.012c0.04-0.046 0.069-0.093 0.087-0.142 0.034-0.096 0.022-0.181-0.037-0.257-0.055-0.071-0.132-0.103-0.232-0.095-0.099 0.007-0.203 0.052-0.311 0.137l-0.41 0.32 0.026 0.033z"/><path d="m199.11 619.01-0.029-0.031c-0.047 0.041-0.085 0.062-0.111 0.064-0.028 0.001-0.062-0.021-0.104-0.067l-0.366-0.398c-0.056-0.06-0.092-0.113-0.108-0.16-0.03-0.085-0.009-0.162 0.065-0.229 0.091-0.084 0.184-0.107 0.278-0.069 0.053 0.021 0.109 0.065 0.171 0.132l0.335 0.364c0.039 0.043 0.058 0.079 0.057 0.11-0.001 0.03-0.023 0.068-0.065 0.113l0.029 0.031 0.26-0.239-0.029-0.031c-0.044 0.028-0.077 0.042-0.099 0.042-0.022 0.001-0.051-0.018-0.086-0.056l-0.35-0.381c-0.093-0.101-0.189-0.157-0.289-0.167s-0.201 0.032-0.306 0.129c-0.136 0.126-0.193 0.252-0.167 0.381 0.013 0.068 0.051 0.136 0.114 0.205l0.367 0.398c0.041 0.045 0.06 0.078 0.059 0.101-0.001 0.022-0.021 0.055-0.058 0.098l0.029 0.031 0.403-0.371z"/><path d="m199.2 617.87 0.031-0.035c-0.076-0.099-0.116-0.187-0.12-0.267-0.005-0.079 0.017-0.147 0.065-0.203 0.047-0.054 0.094-0.081 0.143-0.08 0.048 0.002 0.088 0.016 0.12 0.043 0.037 0.032 0.056 0.07 0.059 0.114 0.002 0.029-0.006 0.078-0.024 0.147l-0.026 0.113c-0.028 0.111-0.036 0.199-0.025 0.264s0.045 0.122 0.102 0.17c0.06 0.051 0.134 0.079 0.223 0.081 0.088 0.002 0.17-0.041 0.245-0.128 0.038-0.044 0.068-0.093 0.09-0.147 0.022-0.053 0.035-0.083 0.04-0.089 0.012-0.012 0.023-0.019 0.035-0.017 0.013 0.001 0.026 0.005 0.041 0.012l0.031-0.036-0.267-0.228-0.029 0.033c0.049 0.07 0.078 0.143 0.088 0.222 0.01 0.08-0.009 0.148-0.059 0.206-0.035 0.041-0.074 0.063-0.117 0.067-0.043 0.005-0.08-0.007-0.113-0.035-0.039-0.033-0.058-0.069-0.058-0.108-0.002-0.038 0.011-0.112 0.038-0.22l0.032-0.13c0.014-0.058 0.019-0.109 0.015-0.155-0.008-0.084-0.045-0.155-0.112-0.212-0.062-0.053-0.141-0.079-0.237-0.077-0.096 0.001-0.19 0.054-0.28 0.16-0.021 0.025-0.04 0.051-0.057 0.08s-0.032 0.059-0.043 0.092l-0.012 0.03c-0.002 0.008-0.006 0.014-0.009 0.02-0.004 0.005-0.007 0.011-0.01 0.014-0.011 0.013-0.022 0.018-0.033 0.017-0.011-0.002-0.025-0.006-0.041-0.014l-0.03 0.036 0.304 0.26z"/><path d="m211.98 619.39 0.027-0.033c-0.047-0.041-0.074-0.075-0.078-0.102-0.006-0.026 0.011-0.063 0.05-0.111l0.344-0.419c0.051-0.063 0.099-0.107 0.143-0.129 0.079-0.042 0.159-0.031 0.236 0.032 0.095 0.079 0.131 0.168 0.107 0.267-0.014 0.054-0.049 0.116-0.107 0.187l-0.314 0.382c-0.036 0.045-0.07 0.069-0.1 0.072-0.031 0.004-0.071-0.013-0.122-0.048l-0.027 0.033 0.273 0.224 0.027-0.033c-0.033-0.04-0.052-0.071-0.055-0.093-0.004-0.021 0.011-0.052 0.043-0.092l0.329-0.4c0.087-0.106 0.129-0.21 0.125-0.31s-0.061-0.194-0.171-0.284c-0.143-0.119-0.277-0.156-0.4-0.114-0.065 0.023-0.128 0.071-0.187 0.143l-0.343 0.418c-0.039 0.048-0.069 0.072-0.092 0.074s-0.057-0.013-0.105-0.044l-0.026 0.032 0.423 0.348z"/><path d="m213.45 619.26c0.049 0.033 0.076 0.064 0.078 0.091 0.003 0.027-0.007 0.058-0.03 0.093l-0.413 0.643c-0.071 0.02-0.114 0.031-0.13 0.033-0.014 0.002-0.03-0.001-0.049-0.009l-0.022 0.035 0.286 0.184 0.839-0.269 0.006 0.004-0.259 0.403c-0.029 0.046-0.058 0.073-0.088 0.082-0.029 0.009-0.07-0.001-0.123-0.029l-0.023 0.035 0.292 0.187 0.022-0.035c-0.037-0.034-0.06-0.062-0.066-0.083-0.007-0.021 0.003-0.052 0.03-0.094l0.516-0.803-0.037-0.025-1.071 0.343-0.009-0.005 0.343-0.533c0.026-0.042 0.051-0.068 0.074-0.078 0.036-0.016 0.082-0.007 0.139 0.026l0.022-0.035-0.304-0.196-0.023 0.035z"/><path d="m214.79 621.38 0.022-0.036c-0.054-0.033-0.085-0.062-0.095-0.088-0.01-0.025 0.001-0.065 0.032-0.118l0.272-0.469c0.04-0.072 0.08-0.122 0.12-0.15 0.072-0.055 0.152-0.057 0.238-0.007 0.107 0.063 0.157 0.144 0.149 0.246-0.005 0.056-0.03 0.123-0.075 0.202l-0.248 0.428c-0.029 0.05-0.058 0.079-0.088 0.087-0.029 0.008-0.072-0.001-0.127-0.028l-0.022 0.037 0.307 0.177 0.02-0.037c-0.039-0.034-0.063-0.061-0.07-0.082s0.003-0.054 0.029-0.099l0.259-0.448c0.069-0.119 0.094-0.227 0.074-0.325s-0.091-0.183-0.214-0.254c-0.162-0.093-0.299-0.108-0.414-0.046-0.061 0.032-0.115 0.089-0.161 0.17l-0.272 0.468c-0.03 0.053-0.056 0.083-0.078 0.088s-0.059-0.003-0.111-0.026l-0.021 0.036 0.474 0.274z"/><path d="m216.21 620.94c0.057 0.025 0.09 0.051 0.099 0.078s0.005 0.061-0.012 0.1l-0.303 0.705c-0.017 0.04-0.038 0.062-0.063 0.066-0.024 0.005-0.062-0.002-0.113-0.02l-0.017 0.04 0.373 0.16 0.588-0.563 0.012 0.006-0.007 0.812 0.375 0.161 0.016-0.039c-0.049-0.025-0.078-0.049-0.09-0.072-0.012-0.022-0.006-0.062 0.019-0.119l0.282-0.656c0.024-0.054 0.048-0.086 0.074-0.095 0.025-0.01 0.063-0.004 0.114 0.015l0.017-0.039-0.493-0.211-0.017 0.038c0.044 0.021 0.073 0.042 0.091 0.065 0.017 0.022 0.015 0.056-0.004 0.1l-0.313 0.727-0.01-0.004 0.012-1.03-0.042-0.018-0.732 0.698-0.008-0.002 0.289-0.671c0.021-0.049 0.046-0.081 0.075-0.096 0.028-0.015 0.075-0.01 0.139 0.015l0.016-0.039-0.35-0.151-0.017 0.039z"/></g><path d="m198.26 631.98c-0.511 1.269 0.478 2.417 1.894 2.026-0.256 1.031 1.048 2.326 2.388 1.313 0.203 1.137 1.753 1.78 2.705 0.476 0.581 1.127 2.537 1.066 2.695-0.485 0.506 0.673 2.679 0.67 2.45-1.321 0.652 0.528 2.695-0.177 1.903-1.992 1.409 0.159 2.149-1.462 1.153-2.528 0.917-0.158 1.824-1.841 0.229-2.784 1.331-1.189 0.38-2.582-0.642-2.705 0.738-1.445-0.352-2.466-1.586-2.325 0.176-1.393-0.951-2.309-2.23-1.657-0.149-1.391-1.603-1.833-2.598-0.898-0.687-1.322-2.229-1.155-2.758 0.079-0.837-0.996-2.502-0.546-2.616 0.889-1.075-0.536-2.476 0.151-2.142 1.754-1.312-0.194-2.202 1.058-1.506 2.273-1.066 0.176-1.841 1.603-0.617 2.651-1.031 0.503-1.242 2.107 0.168 2.74-0.854 1.031-0.265 2.441 1.11 2.494z" stroke="#d3d2d2" stroke-miterlimit="10" stroke-width="0.353" fill="none"/><path d="m211.34 608.17h-11.899v-4.613h11.899v4.613z" fill="#002147"/><path d="m45.564 57.928v10.976h1.165v-10.976h-1.165zm2.329 0v10.976h1.164v-10.976h-1.164zm2.277 0v10.976h1.162v-10.976h-1.162zm2.377 0v10.976h1.164v-10.976h-1.164zm2.226 0v10.976h1.163v-10.976h-1.163zm2.225 0.051v10.976h1.164v-10.976h-1.164z" transform="matrix(.8 0 0 -.8 163.92 649.9)" fill="#bb133e"/><path d="m211.32 608.16 0.018-12.518c0-0.53-0.201-0.877-0.84-0.877-0.439-0.038-4.459 0-4.459 0-0.531 0-0.366-0.238-0.585-0.493-0.146 0.255-0.073 0.493-0.585 0.493h-4.46c-0.639-0.021-0.885 0.264-0.995 0.74 0 0.42-0.009 12.655-0.009 12.655h11.915z" stroke="#e6d007" stroke-miterlimit="10" stroke-width=".278" fill="none"/><path d="m204.21 570.96c21.303 0 38.572 17.27 38.572 38.572s-17.269 38.572-38.572 38.572c-21.302 0-38.572-17.27-38.572-38.572s17.27-38.572 38.572-38.572z" stroke="#fff" stroke-miterlimit="10" stroke-width=".833" fill="none"/><path d="m48.334 5.5391l-0.002 0.164c0.346 0.0038 0.487 0.0489 0.838 0.4864l-0.043 3.8305c-0.011 0.936-0.196 1.065-0.856 1.101l-0.001 0.166 2.041 0.022 0.001-0.164c-0.632-0.033-0.813-0.228-0.802-1.122l0.037-3.3863h0.017l3.766 4.8023h0.149l0.05-4.566c0.012-1.0162 0.289-1.0465 0.838-1.1015v-0.166l-2.039-0.0215-0.002 0.164c0.589 0.05 0.832 0.1224 0.82 1.1211l-0.031 2.9004h-0.017l-3.28-4.2148-1.484-0.0156zm-1.275 0.1347l-4.577 0.5664 0.02 0.1641c0.547-0.025 0.762 0.0036 0.846 0.6836l0.474 3.8261c0.083 0.663-0.107 0.765-0.654 0.867l0.021 0.164 4.653-0.576 0.207-1.5038-0.24 0.0274c-0.272 0.9184-0.671 1.2314-1.748 1.3654-1.284 0.159-1.285 0.148-1.329-0.205l-0.265-2.135 1.328-0.1485c0.717-0.08 0.862 0.025 1.051 0.7012l0.199-0.0254-0.248-1.998-0.199 0.0254c-0.019 0.6237-0.08 0.8405-0.846 0.9355l-1.328 0.1641-0.236-1.9121c-0.037-0.2925 0.066-0.3076 0.248-0.3301l1.164-0.1426c0.956-0.1187 1.196-0.0091 1.42 0.7422l0.214-0.0254-0.175-1.2305zm8.209 0.0391l-0.268 1.4531 0.207 0.0293c0.326-0.9087 0.582-1.0372 1.527-0.8984l0.463 0.0683-0.629 4.2948c-0.093 0.635-0.149 0.83-0.935 0.75l-0.026 0.162 2.51 0.369 0.026-0.164c-0.719-0.132-0.798-0.31-0.713-0.894l0.644-4.3908 0.463 0.0703c0.945 0.1387 1.164 0.3276 1.205 1.2988l0.207 0.0313 0.162-1.4688-4.843-0.7109zm-13.756 0.6387l-1.662 0.4707-0.651 4.7417-3.127-3.6714-1.652 0.4687 0.045 0.1602c0.629-0.1413 0.823-0.1252 1.008 0.5273l0.961 3.3902c0.255 0.903 0.114 1.078-0.508 1.299l0.045 0.158 1.963-0.556-0.045-0.158c-0.617 0.147-0.844 0.014-1.088-0.846l-0.946-3.334 0.016-0.004 3.373 3.971 0.117-0.033 0.776-5.3559 0.015-0.0039 1.063 3.7498c0.195 0.685 0.122 0.841-0.52 1.059l0.045 0.16 2.34-0.664-0.045-0.158c-0.544 0.118-0.759 0.097-0.941-0.545l-1.051-3.7092c-0.188-0.66-0.001-0.7678 0.514-0.959l-0.045-0.1582zm23.508 1.4629c-1.067 0.0326-2.127 0.6635-2.612 2.08-0.599 1.7505 0.231 3.2395 1.719 3.7485 1.486 0.508 3.054-0.157 3.654-1.907 0.648-1.8884-0.365-3.3001-1.713-3.7614-0.336-0.1156-0.693-0.171-1.048-0.1601zm0.275 0.373c0.234-0.022 0.462 0.0102 0.672 0.082 0.839 0.2875 1.522 1.2643 0.881 3.1365-0.619 1.808-1.707 2.252-2.619 1.94-0.913-0.312-1.5-1.331-0.881-3.139 0.482-1.4043 1.243-1.9535 1.947-2.0195zm-31.772 0.6113l-4.451 2.0412 0.567 1.363 0.191-0.088c-0.221-0.94-0.076-1.186 0.791-1.584l0.426-0.195 1.808 3.945c0.269 0.585 0.327 0.777-0.376 1.137l0.07 0.15 2.305-1.056-0.069-0.151c-0.674 0.28-0.838 0.175-1.084-0.361l-1.849-4.0352 0.425-0.1933c0.868-0.3975 1.155-0.3589 1.719 0.4335l0.19-0.086-0.663-1.3202zm36.059 0.6094l-0.074 0.1484c0.471 0.2813 0.635 0.4214 0.33 1.0354l-1.672 3.367c-0.316 0.639-0.466 0.708-1.064 0.449l-0.075 0.149 2.178 1.08 0.072-0.147c-0.54-0.297-0.649-0.467-0.359-1.051l0.842-1.697 1.127 0.561c0.576 0.305 0.723 0.475 0.484 1.172l0.18 0.087 0.894-1.804-0.177-0.088c-0.367 0.544-0.586 0.631-1.223 0.314l-1.127-0.56 0.857-1.727c0.117-0.233 0.184-0.237 0.379-0.14l1.059 0.525c0.862 0.429 1.005 0.652 0.777 1.402l0.194 0.098 0.529-1.125-4.131-2.0488zm-41.764 2.6818c-0.614-0.07-1.282 0.254-1.695 0.506l-2.045 1.25 0.086 0.138c0.55-0.265 0.702-0.265 1.037 0.284l1.957 3.209c0.34 0.556 0.406 0.729-0.172 1.132l0.086 0.141 2.053-1.252-0.086-0.141c-0.611 0.333-0.77 0.237-1.074-0.259l-0.891-1.461 0.406-0.268 3.157 1.207 1.193-0.73-0.086-0.139c-0.312 0.17-0.572 0.145-0.857 0.045l-2.672-0.943c0.332-0.305 1.188-1.071 0.582-2.065-0.261-0.428-0.61-0.612-0.979-0.654zm-0.894 0.578c0.359-0.043 0.755 0.062 1.056 0.555 0.647 1.058-0.456 1.753-1.074 2.14l-1.111-1.822c-0.131-0.215-0.098-0.309 0.295-0.549 0.152-0.092 0.475-0.281 0.834-0.324zm50.109 1.174c-0.383 0.026-0.759 0.21-1.049 0.611-0.502 0.698-0.275 1.331 0.104 2.172 0.599 1.353 0.537 1.673 0.248 2.074-0.274 0.381-0.845 0.578-1.408 0.172-0.952-0.685-0.649-1.86-0.545-2.287l-0.16-0.117-0.868 1.646 0.155 0.112c0.081-0.114 0.238-0.183 0.386-0.077 0.212 0.154 0.385 0.642 0.92 1.028 1.007 0.726 1.973 0.395 2.405-0.203 1.041-1.444-1.209-3.28-0.448-4.336 0.315-0.438 0.832-0.397 1.184-0.143 0.739 0.534 0.732 1.491 0.436 2.154l0.175 0.127 0.928-1.611-0.148-0.107c-0.069 0.067-0.223 0.203-0.42 0.062-0.175-0.127-0.383-0.64-0.807-0.945-0.317-0.228-0.705-0.359-1.088-0.332zm-56.025 2.293l-0.135 0.111 1.316 4.44c0.117 0.4 0.312 1.059 0.295 1.353-0.016 0.228-0.119 0.335-0.22 0.43l0.103 0.127 1.328-1.094-0.105-0.127c-0.14 0.116-0.455 0.375-0.688 0.094-0.061-0.074-0.117-0.184-0.156-0.299l-0.338-1.037 1.756-1.447 0.807 0.418c0.117 0.06 0.386 0.21 0.474 0.318 0.204 0.247-0.011 0.436-0.259 0.64l0.103 0.126 1.711-1.407-0.105-0.127c-0.312 0.223-0.467 0.227-1.084-0.086l-4.803-2.433zm59.732 0.127l-1.037 1.05 0.154 0.141c0.782-0.567 1.064-0.531 1.768 0.115l0.346 0.319-2.936 3.197c-0.435 0.472-0.588 0.602-1.193 0.094l-0.113 0.121 1.867 1.715 0.111-0.121c-0.519-0.513-0.483-0.706-0.084-1.141l3-3.268 0.346 0.319c0.703 0.645 0.776 0.924 0.263 1.752l0.155 0.14 0.961-1.123-3.608-3.31zm-59.189 1.023l2.295 1.203-1.549 1.276-0.746-2.479zm-2.625 1.555c-0.583 0.02-1.201 0.397-1.723 0.933l-1.598 1.645 0.12 0.115c0.486-0.412 0.627-0.407 1.068 0.022l2.695 2.619c0.449 0.436 0.591 0.575 0.121 1.135l0.12 0.115 1.693-1.744-0.117-0.114c-0.479 0.468-0.675 0.483-1.129 0.041l-1.135-1.101c0.158-0.138 0.28-0.251 0.426-0.401 0.635-0.653 0.909-1.16 0.914-1.675 0.002-0.203 0.014-0.725-0.471-1.198-0.297-0.287-0.634-0.404-0.984-0.392zm-0.403 0.717c0.238 0.018 0.488 0.124 0.739 0.367 0.946 0.92 0.136 1.753-0.088 1.984-0.126 0.13-0.254 0.249-0.381 0.356l-1.619-1.575c-0.206-0.198-0.144-0.273 0.037-0.46 0.166-0.172 0.577-0.587 1.08-0.663 0.075-0.011 0.153-0.015 0.232-0.009zm67.915 2.226l-4.413 1.406c-0.397 0.124-1.052 0.332-1.347 0.321-0.227-0.01-0.336-0.111-0.434-0.211l-0.125 0.107 1.119 1.305 0.125-0.107c-0.118-0.139-0.383-0.448-0.107-0.684 0.071-0.063 0.181-0.124 0.295-0.164l1.031-0.358 1.482 1.727-0.4 0.813c-0.059 0.12-0.202 0.391-0.309 0.482-0.243 0.209-0.435-0.004-0.644-0.248l-0.127 0.107 1.441 1.682 0.125-0.107c-0.227-0.308-0.235-0.463 0.065-1.086l2.336-4.852-0.113-0.133zm-71.627 0.576l-2.801 3.662 0.131 0.1c0.366-0.407 0.534-0.541 1.078-0.125l3.062 2.342c0.531 0.406 0.472 0.612 0.162 1.074l0.131 0.102 2.85-3.725-0.93-1.203-0.146 0.195c0.465 0.837 0.406 1.339-0.252 2.201-0.787 1.028-0.794 1.021-1.076 0.805l-1.711-1.308 0.826-1.051c0.445-0.568 0.62-0.597 1.236-0.258l0.121-0.158-1.599-1.225-0.122 0.16c0.433 0.45 0.545 0.646 0.075 1.26l-0.811 1.061-1.531-1.17c-0.235-0.179-0.172-0.262-0.061-0.407l0.711-0.931c0.587-0.765 0.833-0.861 1.526-0.494l0.132-0.172-1.001-0.735zm70.601 0.123l-1.156 2.319-1.307-1.524 2.463-0.795zm2.867 1.643l-1.252 0.785 0.119 0.172c0.89-0.372 1.156-0.27 1.694 0.52l0.264 0.386-3.592 2.44c-0.532 0.361-0.711 0.45-1.184-0.184l-0.137 0.094 1.424 2.098 0.137-0.094c-0.388-0.618-0.309-0.798 0.18-1.129l3.67-2.492 0.263 0.388c0.536 0.792 0.543 1.08-0.144 1.766l0.117 0.172 1.191-0.871-2.75-4.051zm-75.992 3.732c-1.003 0.085-1.884 0.809-2.5604 1.997l-1.1602 2.039 0.1445 0.082c0.3763-0.557 0.4972-0.596 1.0547-0.278l3.3514 1.907c0.529 0.301 0.597 0.461 0.301 1.052l0.143 0.08 1.22-2.142c1.315-2.309 0.175-3.747-0.828-4.319-0.422-0.24-0.833-0.375-1.228-0.414-0.149-0.014-0.295-0.016-0.438-0.004zm-0.344 0.856c0.554-0.043 1.074 0.119 1.549 0.389 2.195 1.251 1.138 3.106 0.863 3.589-0.206 0.363-0.31 0.424-0.566 0.278l-3.832-2.184c-0.1512-0.086-0.295-0.166-0.0937-0.521 0.5417-0.952 0.9877-1.258 1.5177-1.436 0.191-0.063 0.378-0.101 0.562-0.115zm79.522 0.185l-0.147 0.075c0.21 0.507 0.26 0.716-0.351 1.029l-3.436 1.752c-0.595 0.305-0.753 0.162-1.037-0.316l-0.148 0.074 2.133 4.176 1.484-0.321-0.111-0.217c-0.955 0.059-1.384-0.208-1.877-1.175-0.589-1.152-0.58-1.154-0.262-1.317l1.916-0.98 0.594 1.199c0.318 0.646 0.268 0.816-0.303 1.225l0.092 0.177 1.795-0.916-0.09-0.177c-0.594 0.196-0.821 0.212-1.172-0.475l-0.607-1.191 1.716-0.875c0.263-0.134 0.31-0.042 0.393 0.121l0.533 1.043c0.439 0.857 0.418 1.122-0.211 1.589l0.098 0.194 1.095-0.588-2.097-4.106zm-83.338 13.383l-0.4688 1.516-1.543 0.037 1.2578 0.973-0.541 1.595 1.4453-0.92 1.3711 0.895-0.541-1.686 1.0976-0.953-1.58 0.037-0.498-1.494zm84.625 0l-0.469 1.516-1.545 0.037 1.26 0.973-0.543 1.595 1.447-0.92 1.369 0.895-0.539-1.686 1.098-0.953-1.58 0.037-0.498-1.494zm-80.783 10.631l-0.166 0.018c0.027 0.661-0.055 0.79-0.694 0.859l-2.693 0.289c-0.5175 0.055-2.2014 0.236-1.9726 2.377 0.24 2.236 1.8634 2.062 2.5546 1.988l2.252-0.24c0.908-0.097 1.051 0.035 1.191 0.692l0.164-0.018-0.212-2.002-0.164 0.018c0.03 0.607-0.096 0.829-1.02 0.929l-2.3301 0.248c-0.6987 0.077-0.9928 0.021-1.1953-0.072-0.4325-0.207-0.7615-0.669-0.834-1.342-0.16-1.502 1.0393-1.63 1.5918-1.689l2.7636-0.295c0.613-0.066 0.736 0.025 0.859 0.701l0.166-0.018-0.261-2.443zm83.345 3.006c-0.087 0.374-0.201 0.479-0.871 0.652l-5.214 1.346-0.028 0.172 3.92 2.463c0.351 0.224 0.933 0.59 1.115 0.822 0.139 0.18 0.132 0.33 0.119 0.469l0.163 0.025 0.275-1.695-0.162-0.027c-0.031 0.181-0.095 0.58-0.455 0.523-0.095-0.015-0.212-0.06-0.317-0.121l-0.937-0.555 0.363-2.246 0.879-0.219c0.129-0.032 0.43-0.098 0.566-0.074 0.318 0.051 0.28 0.335 0.229 0.652l0.164 0.026 0.354-2.186-0.163-0.027zm-2.4 1.891l-0.32 1.98-2.199-1.367 2.519-0.613zm-80.289 1.193l-0.158 0.045c0.091 0.335 0.085 0.48-0.24 0.937l-3.6977 1.004c-0.905 0.245-1.076 0.103-1.291-0.523l-0.1602 0.043 0.5352 1.969 0.1582-0.043c-0.14-0.618-0.0031-0.845 0.8594-1.079l3.2671-0.886 0.006 0.017-3.5935 4.932 0.0391 0.143 4.4084-1.196c0.981-0.266 1.086-0.007 1.289 0.504l0.158-0.041-0.533-1.971-0.16 0.043c0.113 0.582 0.11 0.835-0.854 1.096l-2.7986 0.76-0.0039-0.018 3.1585-4.302-0.389-1.434zm75.941 2.389l-0.056 0.173c0.251 0.155 0.163 0.428 0.15 0.469-0.059 0.181-0.506 0.63-0.744 1.365-0.46 1.42 0.088 3.132 1.938 3.731 2.056 0.667 3.312-0.505 3.744-1.834 0.493-1.52-0.311-2.564-0.325-2.578l-0.195 0.101c0.164 0.337 0.559 1.121 0.229 2.137-0.338 1.04-1.375 1.79-3.125 1.223-1.19-0.387-1.601-0.92-1.811-1.344-0.226-0.456-0.235-0.99-0.101-1.402 0.328-1.017 1.183-1.398 2.117-1.323l0.06-0.189-1.881-0.529zm-74.195 3.611l-0.154 0.062c0.236 0.682 0.184 0.833-0.412 1.073l-3.576 1.435c-0.5717 0.23-0.7483 0.188-1.0395-0.49l-0.1524 0.063 0.959 2.392 0.1539-0.06c-0.2234-0.604-0.2202-0.83 0.409-1.082l3.576-1.436c0.645-0.26 0.783-0.081 1.043 0.498l0.152-0.062-0.959-2.393zm72.553 1.541l-1.063 2.35 0.151 0.068c0.327-0.643 0.473-0.71 1.058-0.445l3.514 1.588c0.561 0.253 0.652 0.409 0.363 1.089l0.151 0.067 1.062-2.35-0.15-0.066c-0.281 0.577-0.445 0.732-1.063 0.453l-3.513-1.588c-0.632-0.285-0.599-0.509-0.362-1.098l-0.148-0.068zm-71.516 1.162l-1.33 0.645 0.098 0.185c0.926-0.274 1.182-0.144 1.629 0.699l0.218 0.414-3.837 2.032c-0.569 0.3-0.757 0.37-1.157-0.313l-0.144 0.078 1.183 2.241 0.147-0.079c-0.319-0.656-0.221-0.824 0.301-1.101l3.922-2.074 0.22 0.414c0.446 0.845 0.421 1.132-0.338 1.74l0.098 0.185 1.279-0.736-2.289-4.33zm70.451 2.783c-0.753 0.064-1.327 0.83-1.623 1.328l-1.22 2.063 0.14 0.082c0.363-0.493 0.497-0.563 1.049-0.236l3.234 1.918c0.56 0.332 0.701 0.454 0.379 1.082l0.141 0.084 1.227-2.069-0.141-0.084c-0.385 0.58-0.572 0.57-1.072 0.274l-1.471-0.873 0.234-0.428 3.354-0.414 0.713-1.201-0.143-0.086c-0.197 0.298-0.437 0.398-0.736 0.443l-2.801 0.418c0.151-0.425 0.546-1.501-0.455-2.096-0.288-0.17-0.558-0.226-0.809-0.205zm-0.359 0.826c0.199-0.012 0.423 0.037 0.672 0.184 1.067 0.634 0.42 1.763 0.055 2.395l-1.838-1.088c-0.217-0.129-0.23-0.227 0.004-0.623 0.136-0.23 0.51-0.83 1.107-0.868zm-67.689 0.915l-0.135 0.095c0.282 0.471 0.36 0.671-0.197 1.069l-3.135 2.242c-0.544 0.389-0.725 0.274-1.076-0.158l-0.133 0.095 2.726 3.813 1.42-0.533-0.14-0.2c-0.937 0.2-1.4-0.002-2.032-0.884-0.752-1.053-0.745-1.058-0.457-1.264l1.754-1.254 0.762 1.098c0.412 0.591 0.39 0.767-0.115 1.256l0.117 0.164 1.639-1.172-0.118-0.162c-0.557 0.281-0.777 0.33-1.226-0.297l-0.777-1.088 1.568-1.121c0.24-0.172 0.302-0.087 0.408 0.06l0.68 0.953c0.56 0.785 0.58 1.05 0.027 1.606l0.125 0.176 0.994-0.744-2.679-3.75zm64.798 2.15l-2.879 3.6 0.129 0.103c0.375-0.401 0.546-0.53 1.082-0.102l3.01 2.409c0.521 0.418 0.458 0.623 0.137 1.078l0.129 0.103 2.931-3.662-0.904-1.22-0.15 0.189c0.445 0.845 0.376 1.348-0.301 2.195-0.809 1.01-0.814 1.005-1.092 0.783l-1.681-1.345 0.849-1.033c0.456-0.558 0.633-0.583 1.24-0.231l0.125-0.156-1.572-1.258-0.125 0.156c0.421 0.459 0.529 0.658 0.047 1.26l-0.836 1.045-1.504-1.203c-0.231-0.185-0.166-0.268-0.053-0.41l0.731-0.914c0.604-0.754 0.853-0.843 1.539-0.461l0.135-0.17-0.987-0.756zm-61.769 2.125l-0.119 0.115c0.426 0.518 0.43 0.648-0.033 1.094l-2.78 2.67c-0.437 0.421-0.609 0.443-1.092-0.008l-0.119 0.113 1.709 1.778c1.842 1.915 3.543 1.229 4.375 0.429 1.401-1.348 1.128-2.997-0.316-4.5l-1.625-1.691zm0.873 1.521c0.081-0.007 0.181 0.038 0.322 0.186 0.759 0.789 0.925 1.301 0.945 1.859 0.028 0.807-0.335 1.445-0.861 1.95-1.821 1.751-3.3 0.21-3.685-0.19-0.29-0.301-0.318-0.416-0.106-0.621l3.18-3.059c0.063-0.06 0.124-0.118 0.205-0.125zm57.949 0.155l-1.285 1.158 1.51 4.541-4.424-1.916-1.277 1.152 0.109 0.121c0.501-0.403 0.683-0.474 1.137 0.03l2.359 2.619c0.628 0.696 0.578 0.915 0.117 1.39l0.112 0.121 1.515-1.365-0.109-0.123c-0.489 0.404-0.753 0.386-1.352-0.279l-2.318-2.572 0.014-0.014 4.779 2.076 0.09-0.082-1.668-5.146 0.011-0.012 2.61 2.896c0.477 0.529 0.48 0.701 0 1.18l0.111 0.123 1.805-1.627-0.11-0.123c-0.436 0.346-0.636 0.422-1.084-0.074l-2.58-2.865c-0.46-0.51-0.339-0.688 0.037-1.086l-0.109-0.123zm-52.123 4.922c-0.382 0.032-0.756 0.222-1.039 0.628-0.491 0.705-0.252 1.337 0.141 2.17 0.62 1.343 0.565 1.664 0.283 2.071-0.269 0.385-0.836 0.591-1.406 0.195-0.962-0.671-0.68-1.849-0.582-2.277l-0.165-0.116-0.839 1.661 0.158 0.107c0.079-0.114 0.235-0.184 0.385-0.08 0.212 0.15 0.394 0.633 0.935 1.01 1.019 0.71 1.979 0.364 2.401-0.242 1.017-1.46-1.262-3.26-0.518-4.329 0.309-0.441 0.823-0.409 1.18-0.162 0.748 0.522 0.759 1.482 0.472 2.151l0.178 0.123 0.9-1.627-0.15-0.104c-0.069 0.069-0.218 0.207-0.418 0.069-0.179-0.124-0.393-0.635-0.82-0.932-0.321-0.224-0.713-0.349-1.096-0.316zm43.961 1.503l-0.146 0.092 0.726 4.573c0.063 0.411 0.17 1.091 0.115 1.382-0.045 0.223-0.159 0.316-0.273 0.397l0.086 0.139 1.459-0.911-0.088-0.14c-0.154 0.097-0.5 0.312-0.693 0.004-0.05-0.082-0.093-0.198-0.116-0.317l-0.201-1.074 1.93-1.205 0.744 0.517c0.109 0.077 0.356 0.26 0.43 0.377 0.17 0.273-0.07 0.433-0.342 0.604l0.09 0.139 1.877-1.172-0.088-0.141c-0.338 0.18-0.492 0.164-1.065-0.226l-4.445-3.038zm-40.666 0.487l-0.729 1.285 0.186 0.096c0.606-0.75 0.892-0.789 1.738-0.348l0.416 0.217-2.006 3.849c-0.296 0.57-0.412 0.735-1.128 0.401l-0.077 0.146 2.248 1.172 0.077-0.146c-0.635-0.36-0.652-0.555-0.379-1.078l2.05-3.934 0.416 0.215c0.847 0.441 0.99 0.694 0.711 1.625l0.184 0.096 0.637-1.334-4.344-2.262zm41.055 0.724l2.119 1.493-1.701 1.062-0.418-2.555zm-4.684 1.307l-4.295 1.674 0.059 0.154c0.526-0.159 0.738-0.187 0.988 0.453l1.365 3.504c0.259 0.663 0.209 0.821-0.386 1.09l0.062 0.154 2.264-0.882-0.059-0.153c-0.584 0.199-0.784 0.165-1.021-0.441l-0.688-1.764 1.174-0.459c0.614-0.22 0.838-0.213 1.191 0.432l0.188-0.074-0.733-1.875-0.185 0.072c0.156 0.637 0.073 0.856-0.59 1.115l-1.174 0.457-0.699-1.797c-0.095-0.242-0.053-0.295 0.15-0.375l1.102-0.429c0.897-0.35 1.156-0.302 1.559 0.371l0.203-0.08-0.475-1.147zm-29.691 0.982l-3.16 3.385c-0.287 0.303-0.758 0.806-1.02 0.94-0.204 0.101-0.347 0.067-0.48 0.027l-0.057 0.156 1.613 0.59 0.057-0.154c-0.17-0.063-0.553-0.205-0.428-0.547 0.033-0.09 0.098-0.194 0.178-0.285l0.724-0.817 2.135 0.782 0.049 0.904c0.007 0.132 0.016 0.44-0.033 0.57-0.11 0.303-0.381 0.213-0.684 0.102l-0.056 0.154 2.08 0.76 0.056-0.152c-0.35-0.157-0.431-0.289-0.474-0.979l-0.336-5.375-0.164-0.061zm2.24 0.942l-0.385 1.426 0.203 0.047c0.4-0.879 0.666-0.988 1.596-0.772l0.457 0.106-0.979 4.23c-0.145 0.626-0.214 0.814-0.992 0.67l-0.039 0.16 2.471 0.572 0.037-0.16c-0.705-0.19-0.769-0.374-0.637-0.949l1-4.324 0.459 0.107c0.93 0.215 1.132 0.421 1.094 1.393l0.203 0.047 0.281-1.45-4.769-1.103zm-2.795 0.17l0.127 2.588-1.885-0.688 1.758-1.9zm23.414 0.16c-0.178 0.009-0.356 0.034-0.529 0.074-1.386 0.326-2.533 1.631-2.076 3.576 0.422 1.799 1.917 2.615 3.447 2.256s2.504-1.754 2.082-3.554c-0.399-1.702-1.681-2.418-2.924-2.352zm-0.125 0.336c0.794-0.021 1.686 0.546 2.082 2.232 0.438 1.859-0.25 2.814-1.187 3.035-0.939 0.22-1.976-0.33-2.413-2.189-0.452-1.927 0.325-2.833 1.186-3.035 0.108-0.025 0.219-0.04 0.332-0.043zm-15.502 0.478l-0.016 0.166c0.542 0.094 0.744 0.166 0.68 0.848l-0.357 3.838c-0.062 0.666-0.268 0.726-0.824 0.709l-0.016 0.164 4.668 0.436 0.525-1.424-0.242-0.024c-0.462 0.839-0.918 1.057-1.998 0.955-1.289-0.12-1.288-0.127-1.256-0.482l0.201-2.145 1.33 0.141c0.718 0.076 0.835 0.209 0.875 0.91l0.198 0.02 0.187-2.006-0.199-0.018c-0.153 0.605-0.257 0.804-1.027 0.733l-1.332-0.125 0.179-1.918c0.028-0.295 0.132-0.285 0.313-0.268l1.168 0.11c0.96 0.088 1.169 0.248 1.228 1.029l0.215 0.019 0.092-1.238-4.592-0.43zm8.983 0.217l-0.184 0.004c-0.014 0.096-0.049 0.299-0.293 0.307-0.216 0.006-0.696-0.273-1.217-0.254-0.78 0.026-1.554 0.537-1.521 1.527 0.028 0.859 0.597 1.222 1.41 1.654 1.301 0.704 1.45 0.995 1.467 1.489 0.016 0.469-0.316 0.975-1.01 0.998-1.173 0.04-1.653-1.074-1.83-1.477l-0.199 0.008 0.32 1.832 0.191-0.008c-0.004-0.14 0.079-0.288 0.26-0.295 0.261-0.008 0.696 0.273 1.356 0.25 1.24-0.041 1.802-0.895 1.777-1.632-0.059-1.779-2.962-1.855-3.006-3.157-0.018-0.538 0.416-0.821 0.85-0.836 0.911-0.03 1.494 0.732 1.664 1.438l0.216-0.008-0.251-1.84z" transform="matrix(.8 0 0 -.8 163.92 649.9)" fill="#e4cc0d"/></g></g></svg>
