<svg xmlns="http://www.w3.org/2000/svg" width="209" height="256" baseProfile="tiny" version="1.2" viewBox="0 0 209 256"><rect id="0" width="209" height="256" x="0" y="0" fill="#444146" fill-opacity="1"/><polyline id="1" fill="none" stroke="#FFF" stroke-opacity=".502" stroke-width="1" points="86 160 107 48 110 99 101 32"/><polyline id="2" fill="none" stroke="#FFF" stroke-opacity=".502" stroke-width="1" points="57 130 81 126 38 142 36 230"/><polyline id="3" fill="none" stroke="#FFF" stroke-opacity=".502" stroke-width="1" points="104 49 104 98 97 50 96 161"/><polyline id="4" fill="none" stroke="#FFF" stroke-opacity=".502" stroke-width="1" points="93 138 63 130 94 136 62 131"/><polyline id="5" fill="none" stroke="#F5F6FF" stroke-opacity=".502" stroke-width="1" points="156 77 109 42 83 150 103 51"/><polyline id="6" fill="none" stroke="#EDF1FF" stroke-opacity=".502" stroke-width="1" points="148 40 140 165 137 148 143 166"/><polyline id="7" fill="none" stroke="#FEFFFF" stroke-opacity=".502" stroke-width="1" points="176 51 112 42 86 168 111 39"/><polyline id="8" fill="none" stroke="#FFF" stroke-opacity=".502" stroke-width="1" points="30 138 92 125 39 140 78 124"/><polyline id="9" fill="none" stroke="#E3EEF3" stroke-opacity=".502" stroke-width="1" points="92 160 83 121 90 161 110 26"/><polyline id="10" fill="none" stroke="#F5F3F7" stroke-opacity=".502" stroke-width="1" points="39 151 82 122 91 166 105 42"/><polyline id="11" fill="none" stroke="#FF3E3B" stroke-opacity=".502" stroke-width="1" points="59 134 57 214 65 123 60 215"/><polyline id="12" fill="none" stroke="#E8F3FA" stroke-opacity=".502" stroke-width="1" points="101 29 95 98 105 49 93 148"/><polyline id="13" fill="none" stroke="#CAD1DA" stroke-opacity=".502" stroke-width="1" points="143 141 68 27 155 50 84 42"/><polyline id="14" fill="none" stroke="#DCDEE7" stroke-opacity=".502" stroke-width="1" points="151 48 147 85 151 44 134 229"/><polyline id="15" fill="none" stroke="#C9C0CF" stroke-opacity=".502" stroke-width="1" points="83 159 114 43 79 149 124 24"/><polyline id="16" fill="none" stroke="#F5F7EA" stroke-opacity=".502" stroke-width="1" points="149 31 119 39 174 52 98 48"/><polyline id="17" fill="none" stroke="#B6C4D1" stroke-opacity=".502" stroke-width="1" points="108 33 92 149 97 31 103 55"/><polyline id="18" fill="none" stroke="#D1DFFF" stroke-opacity=".502" stroke-width="1" points="29 155 57 138 40 143 153 106"/><polyline id="19" fill="none" stroke="#FF4D4A" stroke-opacity=".502" stroke-width="1" points="81 116 77 183 77 142 77 199"/><polyline id="20" fill="none" stroke="#B4B4CB" stroke-opacity=".502" stroke-width="1" points="138 31 164 157 146 39 140 215"/><polyline id="21" fill="none" stroke="#A3B2C1" stroke-opacity=".502" stroke-width="1" points="132 0 179 172 137 40 147 80"/><polyline id="22" fill="none" stroke="#FF7972" stroke-opacity=".502" stroke-width="1" points="40 135 39 231 47 139 47 189"/><polyline id="23" fill="none" stroke="#FF5855" stroke-opacity=".502" stroke-width="1" points="83 221 80 127 85 209 82 138"/><polyline id="24" fill="none" stroke="#CED1C6" stroke-opacity=".502" stroke-width="1" points="23 0 128 62 65 28 137 62"/><polyline id="25" fill="none" stroke="#FFF" stroke-opacity=".502" stroke-width="1" points="44 131 35 182 42 139 63 132"/><polyline id="26" fill="none" stroke="#9B9DB8" stroke-opacity=".502" stroke-width="1" points="143 35 143 190 146 56 142 192"/><polyline id="27" fill="none" stroke="#E2E3D8" stroke-opacity=".502" stroke-width="1" points="63 26 132 57 79 62 128 36"/><polyline id="28" fill="none" stroke="#B9AEB4" stroke-opacity=".502" stroke-width="1" points="142 35 165 171 37 135 103 117"/><polyline id="29" fill="none" stroke="#AFC0D2" stroke-opacity=".502" stroke-width="1" points="101 85 73 29 133 161 87 34"/><polyline id="30" fill="none" stroke="#ABA4BF" stroke-opacity=".502" stroke-width="1" points="81 177 104 88 85 157 119 37"/><polyline id="31" fill="none" stroke="#FF7B77" stroke-opacity=".502" stroke-width="1" points="76 125 83 206 75 121 35 164"/><polyline id="32" fill="none" stroke="#7994C7" stroke-opacity=".502" stroke-width="1" points="36 181 37 148 170 96 49 131"/><polyline id="33" fill="none" stroke="#B4C0C7" stroke-opacity=".502" stroke-width="1" points="97 30 95 152 95 45 165 31"/><polyline id="34" fill="none" stroke="#A2A398" stroke-opacity=".502" stroke-width="1" points="82 40 159 46 65 38 208 54"/><polyline id="35" fill="none" stroke="#8290AC" stroke-opacity=".502" stroke-width="1" points="133 255 152 59 142 126 155 38"/><polyline id="36" fill="none" stroke="#AFBCC8" stroke-opacity=".502" stroke-width="1" points="104 34 89 163 106 61 127 49"/><polyline id="37" fill="none" stroke="#9494B0" stroke-opacity=".502" stroke-width="1" points="135 201 150 43 140 153 149 60"/><polyline id="38" fill="none" stroke="#1C5BCF" stroke-opacity=".502" stroke-width="1" points="42 89 168 115 36 84 152 130"/><polyline id="39" fill="none" stroke="#98A9BD" stroke-opacity=".502" stroke-width="1" points="139 128 130 164 162 26 139 207"/><polyline id="40" fill="none" stroke="#FFE8DE" stroke-opacity=".502" stroke-width="1" points="172 170 175 118 172 168 172 141"/><polyline id="41" fill="none" stroke="#3A59A4" stroke-opacity=".502" stroke-width="1" points="143 211 131 101 47 91 172 140"/><polyline id="42" fill="none" stroke="#FFF" stroke-opacity=".502" stroke-width="1" points="105 157 70 122 36 161 66 129"/><polyline id="43" fill="none" stroke="#DDE0D8" stroke-opacity=".502" stroke-width="1" points="142 43 95 70 72 35 112 103"/><polyline id="44" fill="none" stroke="#FF3535" stroke-opacity=".502" stroke-width="1" points="63 208 58 146 63 205 58 157"/><polyline id="45" fill="none" stroke="#2552B1" stroke-opacity=".502" stroke-width="1" points="30 84 169 121 40 88 190 135"/><polyline id="46" fill="none" stroke="#D3C2C6" stroke-opacity=".502" stroke-width="1" points="147 46 163 168 163 142 63 177"/><polyline id="47" fill="none" stroke="#2254B7" stroke-opacity=".502" stroke-width="1" points="175 126 38 92 168 120 55 106"/><polyline id="48" fill="none" stroke="#D3BCB0" stroke-opacity=".502" stroke-width="1" points="136 156 105 159 142 161 33 148"/><polyline id="49" fill="none" stroke="#FF302F" stroke-opacity=".502" stroke-width="1" points="59 213 60 181 61 146 66 232"/><polyline id="50" fill="none" stroke="#FFA8A0" stroke-opacity=".502" stroke-width="1" points="46 129 40 210 44 133 99 129"/><polyline id="51" fill="none" stroke="#E3D7C8" stroke-opacity=".502" stroke-width="1" points="37 138 36 217 39 163 37 236"/><polyline id="52" fill="none" stroke="#B7B8AC" stroke-opacity=".502" stroke-width="1" points="119 41 70 37 165 42 84 50"/><polyline id="53" fill="none" stroke="#263F83" stroke-opacity=".502" stroke-width="1" points="127 215 166 97 62 98 142 138"/><polyline id="54" fill="none" stroke="#7186B7" stroke-opacity=".502" stroke-width="1" points="164 152 164 28 148 129 160 57"/><polyline id="55" fill="none" stroke="#D0D1C4" stroke-opacity=".502" stroke-width="1" points="82 65 165 39 94 71 79 36"/><polyline id="56" fill="none" stroke="#FFDFD5" stroke-opacity=".502" stroke-width="1" points="171 142 171 164 178 168 173 124"/><polyline id="57" fill="none" stroke="#2B51A1" stroke-opacity=".502" stroke-width="1" points="208 147 37 89 147 101 78 94"/><polyline id="58" fill="none" stroke="#C6D9ED" stroke-opacity=".502" stroke-width="1" points="131 107 37 144 55 146 39 135"/><polyline id="59" fill="none" stroke="#F33" stroke-opacity=".502" stroke-width="1" points="79 128 81 211 78 140 84 211"/><polyline id="60" fill="none" stroke="#E9F9F2" stroke-opacity=".502" stroke-width="1" points="107 124 36 137 78 130 87 144"/><polyline id="61" fill="none" stroke="#FF3936" stroke-opacity=".502" stroke-width="1" points="66 188 63 145 66 190 65 123"/><polyline id="62" fill="none" stroke="#FFC9C1" stroke-opacity=".502" stroke-width="1" points="39 160 49 136 38 186 39 138"/><polyline id="63" fill="none" stroke="#DE2821" stroke-opacity=".502" stroke-width="1" points="162 136 103 155 183 127 115 148"/><polyline id="64" fill="none" stroke="#3A4B91" stroke-opacity=".502" stroke-width="1" points="160 131 44 101 162 132 87 176"/><polyline id="65" fill="none" stroke="#2054B5" stroke-opacity=".502" stroke-width="1" points="157 107 73 96 164 99 37 95"/><polyline id="66" fill="none" stroke="#203F6E" stroke-opacity=".502" stroke-width="1" points="148 123 37 122 175 120 42 123"/><polyline id="67" fill="none" stroke="#EBEBDD" stroke-opacity=".502" stroke-width="1" points="103 69 163 46 161 24 149 70"/><polyline id="68" fill="none" stroke="#FF3230" stroke-opacity=".502" stroke-width="1" points="43 170 43 197 47 150 39 255"/><polyline id="69" fill="none" stroke="#DE4841" stroke-opacity=".502" stroke-width="1" points="103 155 177 126 111 146 97 209"/><polyline id="70" fill="none" stroke="#D4D5CB" stroke-opacity=".502" stroke-width="1" points="111 62 75 48 139 39 84 68"/><polyline id="71" fill="none" stroke="#FF2B2C" stroke-opacity=".502" stroke-width="1" points="36 184 44 158 45 213 47 152"/><polyline id="72" fill="none" stroke="#FFF" stroke-opacity=".502" stroke-width="1" points="108 88 113 46 105 94 97 69"/><polyline id="73" fill="none" stroke="#2252AC" stroke-opacity=".502" stroke-width="1" points="90 117 169 118 55 89 164 126"/><polyline id="74" fill="none" stroke="#FFFFF4" stroke-opacity=".502" stroke-width="1" points="126 153 176 139 127 158 138 160"/><polyline id="75" fill="none" stroke="#989991" stroke-opacity=".502" stroke-width="1" points="70 46 138 41 75 45 131 37"/><polyline id="76" fill="none" stroke="#A7A99C" stroke-opacity=".502" stroke-width="1" points="136 154 138 247 138 184 183 207"/><polyline id="77" fill="none" stroke="#8B8C82" stroke-opacity=".502" stroke-width="1" points="139 238 138 178 138 189 187 203"/><polyline id="78" fill="none" stroke="#E2E2D3" stroke-opacity=".502" stroke-width="1" points="145 144 145 170 127 151 176 145"/><polyline id="79" fill="none" stroke="#0A1009" stroke-opacity=".502" stroke-width="1" points="47 225 13 255 31 0 36 253"/><polyline id="80" fill="none" stroke="#AAAAA0" stroke-opacity=".502" stroke-width="1" points="82 27 112 46 152 42 63 61"/><polyline id="81" fill="none" stroke="#FF3D3C" stroke-opacity=".502" stroke-width="1" points="63 236 60 141 59 184 61 136"/><polyline id="82" fill="none" stroke="#E6E7E0" stroke-opacity=".502" stroke-width="1" points="105 46 71 37 88 63 73 62"/><polyline id="83" fill="none" stroke="#2354B4" stroke-opacity=".502" stroke-width="1" points="157 103 70 106 164 107 33 99"/><polyline id="84" fill="none" stroke="#000400" stroke-opacity=".502" stroke-width="1" points="208 33 116 0 107 44 117 0"/><polyline id="85" fill="none" stroke="#E92322" stroke-opacity=".502" stroke-width="1" points="98 178 99 209 82 147 83 204"/><polyline id="86" fill="none" stroke="#F7322F" stroke-opacity=".502" stroke-width="1" points="56 136 79 183 79 220 78 177"/><polyline id="87" fill="none" stroke="#1F0F09" stroke-opacity=".502" stroke-width="1" points="176 84 174 135 188 10 169 118"/><polyline id="88" fill="none" stroke="#0A110A" stroke-opacity=".502" stroke-width="1" points="8 226 16 253 32 0 0 246"/><polyline id="89" fill="none" stroke="#0B110A" stroke-opacity=".502" stroke-width="1" points="198 188 178 223 205 0 182 214"/><polyline id="90" fill="none" stroke="#204FA4" stroke-opacity=".502" stroke-width="1" points="39 102 166 119 40 101 189 118"/><polyline id="91" fill="none" stroke="#2653AB" stroke-opacity=".502" stroke-width="1" points="170 99 50 102 155 94 55 104"/><polyline id="92" fill="none" stroke="#E5E8DC" stroke-opacity=".502" stroke-width="1" points="181 138 127 157 143 149 122 160"/><polyline id="93" fill="none" stroke="#E5F8EA" stroke-opacity=".502" stroke-width="1" points="64 131 96 143 72 125 94 155"/><polyline id="94" fill="none" stroke="#27478D" stroke-opacity=".502" stroke-width="1" points="37 84 160 155 45 77 152 126"/><polyline id="95" fill="none" stroke="#F6F7E6" stroke-opacity=".502" stroke-width="1" points="176 160 164 160 164 142 165 188"/><polyline id="96" fill="none" stroke="#FFF" stroke-opacity=".502" stroke-width="1" points="46 139 42 150 48 134 90 123"/><polyline id="97" fill="none" stroke="#696E65" stroke-opacity=".502" stroke-width="1" points="51 232 129 236 165 234 165 146"/><polyline id="98" fill="none" stroke="#0B110B" stroke-opacity=".502" stroke-width="1" points="7 62 33 255 24 0 30 112"/><polyline id="99" fill="none" stroke="#030000" stroke-opacity=".502" stroke-width="1" points="167 129 139 169 138 193 134 163"/><polyline id="100" fill="none" stroke="#081425" stroke-opacity=".502" stroke-width="1" points="124 169 21 0 69 27 33 6"/><polyline id="101" fill="none" stroke="#0D130C" stroke-opacity=".502" stroke-width="1" points="19 225 35 151 34 0 28 230"/><polyline id="102" fill="none" stroke="#0E1109" stroke-opacity=".502" stroke-width="1" points="185 228 137 206 85 145 199 255"/><polyline id="103" fill="none" stroke="#9CAFCB" stroke-opacity=".502" stroke-width="1" points="98 79 66 54 135 110 97 67"/><polyline id="104" fill="none" stroke="#2857B0" stroke-opacity=".502" stroke-width="1" points="137 132 37 79 146 126 40 99"/><polyline id="105" fill="none" stroke="#0F160F" stroke-opacity=".502" stroke-width="1" points="192 44 189 0 173 255 208 30"/><polyline id="106" fill="none" stroke="#16120A" stroke-opacity=".502" stroke-width="1" points="120 218 144 189 0 248 146 243"/><polyline id="107" fill="none" stroke="#0E140E" stroke-opacity=".502" stroke-width="1" points="9 61 43 2 0 255 38 4"/><polyline id="108" fill="none" stroke="#B9BDB8" stroke-opacity=".502" stroke-width="1" points="87 107 82 19 85 63 127 59"/><polyline id="109" fill="none" stroke="#EBECE3" stroke-opacity=".502" stroke-width="1" points="65 28 113 56 76 27 84 24"/><polyline id="110" fill="none" stroke="#070D06" stroke-opacity=".502" stroke-width="1" points="71 177 74 140 65 255 156 181"/><polyline id="111" fill="none" stroke="#0F140E" stroke-opacity=".502" stroke-width="1" points="56 178 31 255 12 23 10 132"/><polyline id="112" fill="none" stroke="#080E06" stroke-opacity=".502" stroke-width="1" points="86 175 122 159 166 252 0 238"/><polyline id="113" fill="none" stroke="#0B1211" stroke-opacity=".502" stroke-width="1" points="95 110 172 255 119 150 148 218"/><polyline id="114" fill="none" stroke="#2651A4" stroke-opacity=".502" stroke-width="1" points="158 110 38 92 120 132 39 88"/><polyline id="115" fill="none" stroke="#DBDCD2" stroke-opacity=".502" stroke-width="1" points="125 46 94 65 123 56 93 59"/><polyline id="116" fill="none" stroke="#C73734" stroke-opacity=".502" stroke-width="1" points="101 183 95 211 104 150 81 182"/><polyline id="117" fill="none" stroke="#DDDCD1" stroke-opacity=".502" stroke-width="1" points="139 41 92 52 151 55 153 80"/><polyline id="118" fill="none" stroke="#101610" stroke-opacity=".502" stroke-width="1" points="24 150 13 8 38 255 1 106"/><polyline id="119" fill="none" stroke="#0C0F07" stroke-opacity=".502" stroke-width="1" points="99 240 154 146 116 207 96 166"/><polyline id="120" fill="none" stroke="#2B57AE" stroke-opacity=".502" stroke-width="1" points="156 118 50 98 160 103 42 98"/><polyline id="121" fill="none" stroke="#AEB4B1" stroke-opacity=".502" stroke-width="1" points="121 29 147 52 140 34 49 149"/><polyline id="122" fill="none" stroke="#6E7DA4" stroke-opacity=".502" stroke-width="1" points="159 150 157 32 155 119 159 46"/><polyline id="123" fill="none" stroke="#DFE5DF" stroke-opacity=".502" stroke-width="1" points="142 36 156 94 144 34 148 80"/><polyline id="124" fill="none" stroke="#0B110B" stroke-opacity=".502" stroke-width="1" points="208 169 88 174 207 223 104 255"/><polyline id="125" fill="none" stroke="#0E140E" stroke-opacity=".502" stroke-width="1" points="197 249 188 0 208 144 198 238"/><polyline id="126" fill="none" stroke="#FFF" stroke-opacity=".502" stroke-width="1" points="176 198 158 195 174 204 154 189"/><polyline id="127" fill="none" stroke="#0D140D" stroke-opacity=".502" stroke-width="1" points="208 63 183 255 206 20 208 90"/><polyline id="128" fill="none" stroke="#111813" stroke-opacity=".502" stroke-width="1" points="6 255 16 19 39 255 26 181"/><polyline id="129" fill="none" stroke="#627FAB" stroke-opacity=".502" stroke-width="1" points="109 149 161 126 89 119 126 105"/><polyline id="130" fill="none" stroke="#D6A095" stroke-opacity=".502" stroke-width="1" points="145 144 174 116 174 168 177 136"/><polyline id="131" fill="none" stroke="#2C57A8" stroke-opacity=".502" stroke-width="1" points="27 66 146 132 39 80 143 113"/><polyline id="132" fill="none" stroke="#0E150F" stroke-opacity=".502" stroke-width="1" points="180 196 178 2 202 183 208 97"/><polyline id="133" fill="none" stroke="#8E9288" stroke-opacity=".502" stroke-width="1" points="87 233 150 235 37 234 148 234"/><polyline id="134" fill="none" stroke="#FDDDD2" stroke-opacity=".502" stroke-width="1" points="66 133 89 138 87 162 80 132"/><polyline id="135" fill="none" stroke="#0C120C" stroke-opacity=".502" stroke-width="1" points="62 55 74 0 0 7 208 21"/><polyline id="136" fill="none" stroke="#FF6261" stroke-opacity=".502" stroke-width="1" points="84 162 85 180 85 223 82 108"/><polyline id="137" fill="none" stroke="#0D130C" stroke-opacity=".502" stroke-width="1" points="196 255 18 231 205 255 148 255"/><polyline id="138" fill="none" stroke="#0B0C06" stroke-opacity=".502" stroke-width="1" points="108 134 88 200 91 163 79 255"/><polyline id="139" fill="none" stroke="#101610" stroke-opacity=".502" stroke-width="1" points="208 247 4 233 164 255 147 144"/><polyline id="140" fill="none" stroke="#101610" stroke-opacity=".502" stroke-width="1" points="205 197 208 252 175 5 196 248"/><polyline id="141" fill="none" stroke="#151A15" stroke-opacity=".502" stroke-width="1" points="193 20 172 253 208 0 208 159"/><polyline id="142" fill="none" stroke="#F1FAED" stroke-opacity=".502" stroke-width="1" points="99 152 92 128 71 125 116 165"/><polyline id="143" fill="none" stroke="#E3EBDF" stroke-opacity=".502" stroke-width="1" points="81 128 49 132 100 127 55 131"/><polyline id="144" fill="none" stroke="#274E98" stroke-opacity=".502" stroke-width="1" points="52 107 162 91 51 103 197 88"/><polyline id="145" fill="none" stroke="#131813" stroke-opacity=".502" stroke-width="1" points="20 48 0 255 27 0 0 89"/><polyline id="146" fill="none" stroke="#101610" stroke-opacity=".502" stroke-width="1" points="68 27 0 30 208 7 0 0"/><polyline id="147" fill="none" stroke="#FF3636" stroke-opacity=".502" stroke-width="1" points="63 205 65 159 64 176 58 210"/><polyline id="148" fill="none" stroke="#482418" stroke-opacity=".502" stroke-width="1" points="179 130 133 150 177 131 177 66"/><polyline id="149" fill="none" stroke="#13130E" stroke-opacity=".502" stroke-width="1" points="183 255 143 175 83 164 208 187"/><polyline id="150" fill="none" stroke="#141814" stroke-opacity=".502" stroke-width="1" points="0 197 37 0 20 247 0 24"/><polyline id="151" fill="none" stroke="#264C92" stroke-opacity=".502" stroke-width="1" points="156 101 88 120 158 119 166 36"/><polyline id="152" fill="none" stroke="#0D130E" stroke-opacity=".502" stroke-width="1" points="63 226 2 255 7 28 0 238"/><polyline id="153" fill="none" stroke="#1C1F19" stroke-opacity=".502" stroke-width="1" points="208 238 36 255 28 0 36 255"/><polyline id="154" fill="none" stroke="#FFF" stroke-opacity=".502" stroke-width="1" points="42 153 51 141 41 145 73 123"/><polyline id="155" fill="none" stroke="#B92425" stroke-opacity=".502" stroke-width="1" points="104 219 101 174 104 215 105 124"/><polyline id="156" fill="none" stroke="#F5F5EB" stroke-opacity=".502" stroke-width="1" points="98 55 125 55 103 55 80 26"/><polyline id="157" fill="none" stroke="#AFB6BA" stroke-opacity=".502" stroke-width="1" points="125 96 77 49 108 80 71 41"/><polyline id="158" fill="none" stroke="#0E0F0A" stroke-opacity=".502" stroke-width="1" points="187 207 111 189 119 147 103 255"/><polyline id="159" fill="none" stroke="#151A15" stroke-opacity=".502" stroke-width="1" points="208 255 196 0 177 255 208 124"/><polyline id="160" fill="none" stroke="#BCBDB8" stroke-opacity=".502" stroke-width="1" points="71 41 174 55 154 45 161 84"/><polyline id="161" fill="none" stroke="#FF191D" stroke-opacity=".502" stroke-width="1" points="44 202 40 159 41 196 42 153"/><polyline id="162" fill="none" stroke="#FCFBF2" stroke-opacity=".502" stroke-width="1" points="119 176 176 201 156 194 161 197"/><polyline id="163" fill="none" stroke="#2C5299" stroke-opacity=".502" stroke-width="1" points="136 139 37 85 165 121 100 127"/><polyline id="164" fill="none" stroke="#1D1C16" stroke-opacity=".502" stroke-width="1" points="155 135 155 240 140 165 90 255"/><polyline id="165" fill="none" stroke="#E1EEE3" stroke-opacity=".502" stroke-width="1" points="85 122 36 137 83 122 84 145"/><polyline id="166" fill="none" stroke="#1B201B" stroke-opacity=".502" stroke-width="1" points="205 0 188 255 183 0 177 191"/><polyline id="167" fill="none" stroke="#101510" stroke-opacity=".502" stroke-width="1" points="0 22 0 255 12 0 162 0"/><polyline id="168" fill="none" stroke="#151B16" stroke-opacity=".502" stroke-width="1" points="205 57 201 253 187 52 166 146"/><polyline id="169" fill="none" stroke="#2C55A4" stroke-opacity=".502" stroke-width="1" points="165 99 110 82 153 98 27 96"/><polyline id="170" fill="none" stroke="#FBF7EC" stroke-opacity=".502" stroke-width="1" points="93 163 73 124 94 144 85 123"/><polyline id="171" fill="none" stroke="#FF2C2D" stroke-opacity=".502" stroke-width="1" points="48 175 46 212 47 179 40 154"/><polyline id="172" fill="none" stroke="#222622" stroke-opacity=".502" stroke-width="1" points="0 234 54 234 3 230 160 243"/><polyline id="173" fill="none" stroke="#2A539F" stroke-opacity=".502" stroke-width="1" points="63 105 169 127 76 108 157 125"/><polyline id="174" fill="none" stroke="#111712" stroke-opacity=".502" stroke-width="1" points="208 186 90 169 208 234 96 166"/><polyline id="175" fill="none" stroke="#131913" stroke-opacity=".502" stroke-width="1" points="0 0 208 17 7 16 153 13"/><polyline id="176" fill="none" stroke="#1F221D" stroke-opacity=".502" stroke-width="1" points="208 155 126 185 166 168 142 172"/><polyline id="177" fill="none" stroke="#5A494B" stroke-opacity=".502" stroke-width="1" points="95 156 159 128 96 156 165 117"/><polyline id="178" fill="none" stroke="#121712" stroke-opacity=".502" stroke-width="1" points="194 7 0 10 195 0 123 27"/><polyline id="179" fill="none" stroke="#2852A3" stroke-opacity=".502" stroke-width="1" points="164 117 41 99 144 130 121 80"/><polyline id="180" fill="none" stroke="#F5FFFA" stroke-opacity=".502" stroke-width="1" points="70 134 91 130 74 139 95 135"/><polyline id="181" fill="none" stroke="#292D23" stroke-opacity=".502" stroke-width="1" points="162 216 171 92 165 176 168 105"/><polyline id="182" fill="none" stroke="#FF3133" stroke-opacity=".502" stroke-width="1" points="80 147 78 208 81 143 81 206"/><polyline id="183" fill="none" stroke="#20241F" stroke-opacity=".502" stroke-width="1" points="208 9 102 42 198 0 208 143"/><polyline id="184" fill="none" stroke="#121812" stroke-opacity=".502" stroke-width="1" points="29 255 0 0 7 255 133 255"/><polyline id="185" fill="none" stroke="#10140E" stroke-opacity=".502" stroke-width="1" points="22 0 88 95 64 24 91 99"/><polyline id="186" fill="none" stroke="#B62E29" stroke-opacity=".502" stroke-width="1" points="190 126 159 130 102 154 208 110"/><polyline id="187" fill="none" stroke="#171C17" stroke-opacity=".502" stroke-width="1" points="208 0 36 10 208 13 38 0"/><polyline id="188" fill="none" stroke="#254C98" stroke-opacity=".502" stroke-width="1" points="164 127 161 86 97 128 165 92"/><polyline id="189" fill="none" stroke="#171B17" stroke-opacity=".502" stroke-width="1" points="32 208 29 5 11 255 8 36"/><polyline id="190" fill="none" stroke="#161B17" stroke-opacity=".502" stroke-width="1" points="180 246 0 255 2 0 24 248"/><polyline id="191" fill="none" stroke="#2B57A9" stroke-opacity=".502" stroke-width="1" points="58 92 38 43 40 98 162 111"/><polyline id="192" fill="none" stroke="#1D1F1A" stroke-opacity=".502" stroke-width="1" points="208 92 162 255 116 141 147 220"/><polyline id="193" fill="none" stroke="#7A8185" stroke-opacity=".502" stroke-width="1" points="165 92 121 29 139 54 143 41"/><polyline id="194" fill="none" stroke="#8D9187" stroke-opacity=".502" stroke-width="1" points="97 235 59 232 141 232 89 232"/><polyline id="195" fill="none" stroke="#0A231E" stroke-opacity=".502" stroke-width="1" points="207 172 105 199 105 129 101 179"/><polyline id="196" fill="none" stroke="#131613" stroke-opacity=".502" stroke-width="1" points="208 23 115 7 107 39 114 6"/><polyline id="197" fill="none" stroke="#D7D5C8" stroke-opacity=".502" stroke-width="1" points="177 55 147 44 144 69 144 39"/><polyline id="198" fill="none" stroke="#1B1610" stroke-opacity=".502" stroke-width="1" points="0 243 156 191 119 220 96 157"/><polyline id="199" fill="none" stroke="#B3B7A3" stroke-opacity=".502" stroke-width="1" points="184 116 107 149 142 135 126 133"/><polyline id="200" fill="none" stroke="#181D18" stroke-opacity=".502" stroke-width="1" points="167 0 0 10 208 24 0 20"/><polyline id="201" fill="none" stroke="#181C18" stroke-opacity=".502" stroke-width="1" points="0 46 149 0 0 45 132 5"/><polyline id="202" fill="none" stroke="#0D0C06" stroke-opacity=".502" stroke-width="1" points="58 244 52 148 45 255 76 199"/><polygon id="203" fill="#1F211D" fill-opacity=".502" points="209 256 205 0 163 100"/><polygon id="204" fill="#1C211F" fill-opacity=".502" points="0 99 100 0 0 0"/><polygon id="205" fill="#2E549F" fill-opacity=".502" points="98 129 119 68 177 121"/><polygon id="206" fill="#2E64C7" fill-opacity=".502" points="33 48 61 53 47 113"/><polygon id="207" fill="#EEF1E5" fill-opacity=".502" points="42 158 37 138 72 123"/><polygon id="208" fill="#1C211D" fill-opacity=".502" points="103 256 209 178 209 256"/><polygon id="209" fill="#1E211D" fill-opacity=".502" points="0 249 35 256 36 3"/><polygon id="210" fill="#FFF" fill-opacity=".502" points="124 151 130 165 145 158"/><polygon id="211" fill="#0E100A" fill-opacity=".502" points="102 228 113 163 136 215"/><polygon id="212" fill="#DAE4DE" fill-opacity=".502" points="175 169 177 141 160 165"/><polygon id="213" fill="#A6A8A1" fill-opacity=".502" points="114 97 91 22 62 32"/><polygon id="214" fill="#E4EAE0" fill-opacity=".502" points="99 151 93 123 61 127"/><polygon id="215" fill="#EDE7DF" fill-opacity=".502" points="118 159 101 166 108 146"/><polygon id="216" fill="#222522" fill-opacity=".502" points="147 32 209 0 0 3"/><polygon id="217" fill="#34528F" fill-opacity=".502" points="138 142 170 86 55 104"/><polygon id="218" fill="#262925" fill-opacity=".502" points="0 256 107 256 55 202"/><polygon id="219" fill="#FF3839" fill-opacity=".502" points="94 210 102 179 106 218"/><polygon id="220" fill="#E6393A" fill-opacity=".502" points="56 213 68 212 61 119"/><polygon id="221" fill="#A6A7A2" fill-opacity=".502" points="129 235 57 230 61 237"/><polygon id="222" fill="#222523" fill-opacity=".502" points="0 0 36 137 0 256"/><polygon id="223" fill="#090C07" fill-opacity=".502" points="159 151 149 143 153 226"/><polygon id="224" fill="#C3332F" fill-opacity=".502" points="178 133 177 122 98 155"/><polygon id="225" fill="#CB8F88" fill-opacity=".502" points="93 221 75 189 91 243"/><rect id="226" width="9" height="32" x="129" y="45" fill="#1C1E17" fill-opacity=".502"/><rect id="227" width="7" height="89" x="67" y="134" fill="#000400" fill-opacity=".502"/><polygon id="228" fill="#FFF" fill-opacity=".502" points="144 227 139 216 134 228"/><polygon id="229" fill="#AEAEA9" fill-opacity=".502" points="125 68 117 23 135 45"/><polygon id="230" fill="#FEFDF2" fill-opacity=".502" points="111 98 96 93 96 65"/><rect id="231" width="8" height="47" x="86" y="166" fill="#0E0E09" fill-opacity=".502"/><rect id="232" width="43" height="139" x="165" y="0" fill="#292A27" fill-opacity=".502"/><rect id="233" width="69" height="52" x="0" y="0" fill="#262726" fill-opacity=".502"/><rect id="234" width="8" height="70" x="48" y="150" fill="#0D0A05" fill-opacity=".502"/><rect id="235" width="6" height="6" x="168" y="51" fill="#FFF" fill-opacity=".502"/><polygon id="236" fill="#345596" fill-opacity=".502" points="123 108 37 71 37 108"/><rect id="237" width="19" height="19" x="61" y="63" fill="#080A01" fill-opacity=".502"/><rect id="238" width="9" height="29" x="76" y="146" fill="#E12829" fill-opacity=".502"/><rect id="239" width="21" height="32" x="94" y="12" fill="#2E302C" fill-opacity=".502"/><rect id="240" width="32" height="11" x="98" y="132" fill="#0F1108" fill-opacity=".502"/><rect id="241" width="8" height="15" x="137" y="149" fill="#FFF" fill-opacity=".502"/><polygon id="242" fill="#C1C4BE" fill-opacity=".502" points="142 30 142 101 154 53"/><rect id="243" width="6" height="27" x="170" y="140" fill="#E5E9E4" fill-opacity=".502"/><polygon id="244" fill="#0E1411" fill-opacity=".502" points="120 157 143 172 87 179"/><rect id="245" width="7" height="25" x="102" y="46" fill="#FFFFFD" fill-opacity=".502"/><rect id="246" width="7" height="52" x="40" y="160" fill="#F33336" fill-opacity=".502"/><rect id="247" width="9" height="46" x="76" y="165" fill="#E82F32" fill-opacity=".502"/><rect id="248" width="184" height="18" x="24" y="237" fill="#242726" fill-opacity=".502"/><rect id="249" width="33" height="48" x="110" y="84" fill="#34569D" fill-opacity=".502"/><rect id="250" width="29" height="49" x="105" y="183" fill="#1F201C" fill-opacity=".502"/><rect id="251" width="5" height="78" x="159" y="40" fill="#425C87" fill-opacity=".502"/><rect id="252" width="15" height="4" x="167" y="148" fill="#181A18" fill-opacity=".502"/><rect id="253" width="6" height="9" x="157" y="27" fill="#FFF" fill-opacity=".502"/><rect id="254" width="6" height="9" x="123" y="173" fill="#EEECE4" fill-opacity=".502"/><rect id="255" width="9" height="62" x="57" y="146" fill="#DF3A3C" fill-opacity=".502"/><rect id="256" width="48" height="8" x="44" y="115" fill="#23271A" fill-opacity=".502"/><rect id="257" width="5" height="5" x="174" y="71" fill="#FFFFFB" fill-opacity=".502"/><polygon id="258" fill="#282A27" fill-opacity=".502" points="187 166 208 197 120 174"/><rect id="259" width="8" height="30" x="96" y="183" fill="#FF3D3F" fill-opacity=".502"/><rect id="260" width="3" height="16" x="136" y="209" fill="#FFFFF8" fill-opacity=".502"/><polygon id="261" fill="#D5D4CE" fill-opacity=".502" points="97 30 103 68 100 30"/><rect id="262" width="35" height="236" x="0" y="0" fill="#272828" fill-opacity=".502"/><polygon id="263" fill="#262826" fill-opacity=".502" points="158 256 129 179 209 238"/><rect id="264" width="11" height="29" x="94" y="153" fill="#212D2A" fill-opacity=".502"/><polygon id="265" fill="#949490" fill-opacity=".502" points="143 28 115 68 112 50"/><rect id="266" width="5" height="36" x="88" y="47" fill="#3E3E38" fill-opacity=".502"/><rect id="267" width="6" height="9" x="172" y="123" fill="#FF323C" fill-opacity=".502"/><rect id="268" width="17" height="17" x="74" y="123" fill="#D7D9D3" fill-opacity=".502"/><rect id="269" width="38" height="4" x="107" y="74" fill="#272311" fill-opacity=".502"/><rect id="270" width="4" height="6" x="144" y="167" fill="#FFF" fill-opacity=".502"/><polygon id="271" fill="#202120" fill-opacity=".502" points="97 223 118 233 143 162"/><polygon id="272" fill="#FFF" fill-opacity=".502" points="156 194 170 202 178 198"/><polygon id="273" fill="#0C1411" fill-opacity=".502" points="70 233 76 218 49 209"/><polygon id="274" fill="#3B3A38" fill-opacity=".502" points="166 138 165 195 168 192"/><rect id="275" width="29" height="210" x="179" y="45" fill="#262828" fill-opacity=".502"/><rect id="276" width="70" height="5" x="80" y="233" fill="#767873" fill-opacity=".502"/><rect id="277" width="1" height="38" x="134" y="134" fill="#3B4B41" fill-opacity=".502"/><rect id="278" width="21" height="53" x="37" y="51" fill="#33569B" fill-opacity=".502"/><rect id="279" width="2" height="28" x="161" y="143" fill="#FAFFF4" fill-opacity=".502"/><rect id="280" width="9" height="24" x="57" y="137" fill="#E93839" fill-opacity=".502"/><rect id="281" width="6" height="11" x="86" y="152" fill="#FFF" fill-opacity=".502"/><rect id="282" width="5" height="9" x="111" y="41" fill="#FBF6EE" fill-opacity=".502"/><rect id="283" width="8" height="10" x="170" y="139" fill="#FBFBF7" fill-opacity=".502"/><rect id="284" width="13" height="9" x="35" y="218" fill="#7A807B" fill-opacity=".502"/><rect id="285" width="1" height="62" x="36" y="148" fill="#C5CEC4" fill-opacity=".502"/><rect id="286" width="9" height="3" x="166" y="183" fill="#BBBDB6" fill-opacity=".502"/><rect id="287" width="8" height="20" x="37" y="136" fill="#DAE0DA" fill-opacity=".502"/><polygon id="288" fill="#DBDBD4" fill-opacity=".502" points="111 69 96 76 90 63 104 56"/><polygon id="289" fill="#151716" fill-opacity=".502" points="161 165 170 173 156 189 147 181"/><polygon id="290" fill="#0F1009" fill-opacity=".502" points="75 83 84 77 91 88 82 94"/><polygon id="291" fill="#FEFFFF" fill-opacity=".502" points="107 162 106 156 114 155 115 161"/><polygon id="292" fill="#181F1A" fill-opacity=".502" points="129 149 120 159 115 154 125 145"/><rect id="293" width="38" height="5" x="30" y="123" fill="#242A20" fill-opacity=".502"/><rect id="294" width="9" height="46" x="155" y="78" fill="#2B52A1" fill-opacity=".502"/><rect id="295" width="65" height="28" x="95" y="0" fill="#272928" fill-opacity=".502"/><rect id="296" width="4" height="6" x="60" y="231" fill="#FFF" fill-opacity=".502"/><rect id="297" width="4" height="5" x="140" y="185" fill="#FFFFF3" fill-opacity=".502"/><rect id="298" width="7" height="12" x="92" y="84" fill="#D6D6C8" fill-opacity=".502"/><rect id="299" width="2" height="23" x="131" y="34" fill="#242322" fill-opacity=".502"/><rect id="300" width="7" height="9" x="170" y="159" fill="#FFFFFE" fill-opacity=".502"/><rect id="301" width="3" height="48" x="81" y="22" fill="#C1C1BC" fill-opacity=".502"/><rect id="302" width="7" height="16" x="90" y="134" fill="#F0EDE6" fill-opacity=".502"/><rect id="303" width="24" height="9" x="141" y="225" fill="#232422" fill-opacity=".502"/><rect id="304" width="6" height="20" x="85" y="214" fill="#8CABA3" fill-opacity=".502"/><rect id="305" width="5" height="8" x="158" y="190" fill="#E5E3D8" fill-opacity=".502"/><rect id="306" width="8" height="6" x="118" y="229" fill="#9FA099" fill-opacity=".502"/><rect id="307" width="18" height="4" x="141" y="161" fill="#0E120D" fill-opacity=".502"/><rect id="308" width="4" height="14" x="136" y="153" fill="#FCFCF0" fill-opacity=".502"/><rect id="309" width="5" height="47" x="147" y="42" fill="#D2D0C4" fill-opacity=".502"/><rect id="310" width="30" height="32" x="112" y="80" fill="#35579A" fill-opacity=".502"/><rect id="311" width="4" height="9" x="172" y="197" fill="#D6D7D0" fill-opacity=".502"/><rect id="312" width="4" height="4" x="65" y="55" fill="#FFFFF7" fill-opacity=".502"/><rect id="313" width="4" height="12" x="81" y="224" fill="#171612" fill-opacity=".502"/><rect id="314" width="10" height="14" x="147" y="147" fill="#131411" fill-opacity=".502"/><rect id="315" width="3" height="23" x="147" y="129" fill="#2C504D" fill-opacity=".502"/><rect id="316" width="9" height="24" x="59" y="30" fill="#141510" fill-opacity=".502"/><rect id="317" width="6" height="39" x="80" y="149" fill="#D14041" fill-opacity=".502"/><polygon id="318" fill="#242922" fill-opacity=".502" points="163 137 135 147 209 131"/><rect id="319" width="8" height="27" x="121" y="34" fill="#BABBB7" fill-opacity=".502"/><rect id="320" width="8" height="18" x="147" y="23" fill="#1E221C" fill-opacity=".502"/><polygon id="321" fill="#2F5498" fill-opacity=".502" points="47 91 72 81 105 126"/><polygon id="322" fill="#231C1B" fill-opacity=".502" points="125 174 124 149 91 186"/><polygon id="323" fill="#C5C9C5" fill-opacity=".502" points="93 127 46 136 73 123"/><rect id="324" width="4" height="26" x="98" y="124" fill="#131510" fill-opacity=".502"/><rect id="325" width="5" height="31" x="159" y="38" fill="#7A6C4B" fill-opacity=".502"/><rect id="326" width="19" height="4" x="101" y="74" fill="#3E3D3A" fill-opacity=".502"/><rect id="327" width="7" height="67" x="78" y="145" fill="#D5393C" fill-opacity=".502"/><polygon id="328" fill="#1B1C17" fill-opacity=".502" points="85 86 74 50 78 53"/><polygon id="329" fill="#3A5795" fill-opacity=".502" points="159 129 152 90 60 102"/><rect id="330" width="6" height="63" x="69" y="142" fill="#181918" fill-opacity=".502"/><rect id="331" width="18" height="13" x="37" y="134" fill="#DDDFD8" fill-opacity=".502"/><rect id="332" width="4" height="6" x="155" y="64" fill="#DEDBC7" fill-opacity=".502"/><polygon id="333" fill="#262928" fill-opacity=".502" points="209 0 143 0 209 87"/><rect id="334" width="15" height="4" x="110" y="37" fill="#52534F" fill-opacity=".502"/><rect id="335" width="1" height="13" x="77" y="210" fill="#E2AB9F" fill-opacity=".502"/><polygon id="336" fill="#CFCCBE" fill-opacity=".502" points="164 29 161 44 165 40"/><polygon id="337" fill="#262826" fill-opacity=".502" points="20 32 54 0 76 58"/><polygon id="338" fill="#292B29" fill-opacity=".502" points="101 125 65 105 57 115"/><rect id="339" width="4" height="26" x="62" y="132" fill="#D93939" fill-opacity=".502"/><rect id="340" width="8" height="8" x="136" y="35" fill="#4F4E48" fill-opacity=".502"/><rect id="341" width="4" height="7" x="125" y="175" fill="#FFF" fill-opacity=".502"/><polygon id="342" fill="#554945" fill-opacity=".502" points="104 166 81 143 94 150"/><rect id="343" width="12" height="17" x="83" y="129" fill="#DFE0DA" fill-opacity=".502"/><polygon id="344" fill="#C9C6BA" fill-opacity=".502" points="139 67 147 61 140 71"/><rect id="345" width="19" height="11" x="137" y="46" fill="#C2BFBA" fill-opacity=".502"/><rect id="346" width="12" height="16" x="94" y="214" fill="#13160F" fill-opacity=".502"/><polygon id="347" fill="#33538F" fill-opacity=".502" points="61 54 38 110 52 115"/><polygon id="348" fill="#FFF" fill-opacity=".502" points="148 191 150 187 148 193"/><polygon id="349" fill="#282A28" fill-opacity=".502" points="48 0 111 0 120 39"/><rect id="350" width="4" height="14" x="96" y="181" fill="#FA3D3E" fill-opacity=".502"/><polygon id="351" fill="#333430" fill-opacity=".502" points="115 63 140 59 145 63"/><polygon id="352" fill="#F4EFE7" fill-opacity=".502" points="175 48 171 47 167 57"/><rect id="353" width="0" height="17" x="106" y="81" fill="#000" fill-opacity=".502"/><rect id="354" width="8" height="6" x="136" y="219" fill="#EFEADF" fill-opacity=".502"/><rect id="355" width="1" height="11" x="132" y="156" fill="#FFF" fill-opacity=".502"/><rect id="356" width="9" height="11" x="69" y="29" fill="#C4C4BF" fill-opacity=".502"/><rect id="357" width="62" height="4" x="122" y="204" fill="#262725" fill-opacity=".502"/><rect id="358" width="58" height="29" x="0" y="226" fill="#242626" fill-opacity=".502"/><polygon id="359" fill="#242725" fill-opacity=".502" points="0 155 39 186 0 180"/><polygon id="360" fill="#1A1A19" fill-opacity=".502" points="123 165 162 185 127 175"/><rect id="361" width="2" height="5" x="142" y="71" fill="#000" fill-opacity=".502"/><rect id="362" width="5" height="6" x="89" y="26" fill="#BDBFB6" fill-opacity=".502"/><polygon id="363" fill="#D6D5D3" fill-opacity=".502" points="126 64 109 46 131 56"/><polygon id="364" fill="#C93D3E" fill-opacity=".502" points="47 150 41 216 36 220"/><rect id="365" width="10" height="7" x="154" y="130" fill="#FA2425" fill-opacity=".502"/><rect id="366" width="23" height="1" x="151" y="145" fill="#EBECE6" fill-opacity=".502"/><polygon id="367" fill="#272928" fill-opacity=".502" points="209 200 175 148 209 131"/><polyline id="368" fill="none" stroke="#1E201E" stroke-opacity=".502" stroke-width="1" points="138 35 130 34 160 0 134 37"/><rect id="369" width="2" height="81" x="165" y="83" fill="#2E332F" fill-opacity=".502"/><rect id="370" width="5" height="14" x="144" y="77" fill="#DBDACB" fill-opacity=".502"/><rect id="371" width="8" height="8" x="115" y="179" fill="#434141" fill-opacity=".502"/><rect id="372" width="41" height="46" x="167" y="75" fill="#252826" fill-opacity=".502"/><rect id="373" width="3" height="22" x="86" y="13" fill="#292A28" fill-opacity=".502"/><rect id="374" width="10" height="11" x="75" y="38" fill="#D1D1CC" fill-opacity=".502"/><polygon id="375" fill="#282A29" fill-opacity=".502" points="170 185 202 256 209 184"/><rect id="376" width="35" height="227" x="0" y="28" fill="#272927" fill-opacity=".502"/><rect id="377" width="5" height="5" x="158" y="50" fill="#040401" fill-opacity=".502"/><rect id="378" width="15" height="3" x="130" y="151" fill="#FAF9F0" fill-opacity=".502"/><rect id="379" width="12" height="12" x="128" y="187" fill="#1B1A19" fill-opacity=".502"/><rect id="380" width="7" height="3" x="91" y="148" fill="#FAFDF5" fill-opacity=".502"/><polygon id="381" fill="#30508D" fill-opacity=".502" points="57 83 54 101 132 135"/><rect id="382" width="8" height="45" x="66" y="188" fill="#232220" fill-opacity=".502"/><rect id="383" width="3" height="57" x="40" y="156" fill="#D73537" fill-opacity=".502"/><rect id="384" width="13" height="2" x="75" y="211" fill="#E74745" fill-opacity=".502"/><polygon id="385" fill="#454842" fill-opacity=".502" points="64 113 68 126 37 134"/><polygon id="386" fill="#262927" fill-opacity=".502" points="199 68 164 41 190 0"/><rect id="387" width="7" height="6" x="148" y="45" fill="#FDFAF7" fill-opacity=".502"/><rect id="388" width="27" height="5" x="111" y="39" fill="#ABABA7" fill-opacity=".502"/><rect id="389" width="3" height="10" x="142" y="31" fill="#D5D5D0" fill-opacity=".502"/><rect id="390" width="5" height="14" x="79" y="217" fill="#1B2A24" fill-opacity=".502"/><polygon id="391" fill="#535248" fill-opacity=".502" points="110 83 113 50 121 75"/><rect id="392" width="62" height="2" x="65" y="235" fill="#90918C" fill-opacity=".502"/><polyline id="393" fill="none" stroke="#1F2120" stroke-opacity=".502" stroke-width="1" points="102 0 104 38 99 0 106 44"/><rect id="394" width="6" height="5" x="70" y="59" fill="#BABAAF" fill-opacity=".502"/><rect id="395" width="208" height="17" x="0" y="238" fill="#272928" fill-opacity=".502"/><polygon id="396" fill="#1E2124" fill-opacity=".502" points="86 73 57 90 62 56"/><rect id="397" width="12" height="14" x="84" y="42" fill="#7E7E7B" fill-opacity=".502"/><rect id="398" width="1" height="16" x="100" y="49" fill="#6F706D" fill-opacity=".502"/><rect id="399" width="22" height="14" x="74" y="124" fill="#D5D7D1" fill-opacity=".502"/><rect id="400" width="4" height="18" x="83" y="59" fill="#9D9D97" fill-opacity=".502"/><polygon id="401" fill="#292A29" fill-opacity=".502" points="140 193 146 232 209 219"/><polygon id="402" fill="#36599D" fill-opacity=".502" points="46 84 73 84 105 116"/><polygon id="403" fill="#252624" fill-opacity=".502" points="94 77 56 53 85 91"/><polygon id="404" fill="#252726" fill-opacity=".502" points="98 43 152 0 159 0"/><rect id="405" width="6" height="27" x="132" y="53" fill="#1F201F" fill-opacity=".502"/><rect id="406" width="5" height="11" x="120" y="48" fill="#81817E" fill-opacity=".502"/><rect id="407" width="9" height="23" x="102" y="45" fill="#E5E6DF" fill-opacity=".502"/><polygon id="408" fill="#403631" fill-opacity=".502" points="191 130 111 152 149 146"/><polygon id="409" fill="#252726" fill-opacity=".502" points="39 155 14 148 0 104"/><rect id="410" width="3" height="5" x="175" y="69" fill="#D8D8D5" fill-opacity=".502"/><rect id="411" width="23" height="3" x="87" y="231" fill="#8D8F89" fill-opacity=".502"/><rect id="412" width="5" height="16" x="102" y="141" fill="#202E2C" fill-opacity=".502"/><rect id="413" width="5" height="9" x="130" y="45" fill="#232322" fill-opacity=".502"/><rect id="414" width="7" height="46" x="150" y="147" fill="#232424" fill-opacity=".502"/><rect id="415" width="7" height="3" x="156" y="28" fill="#FFFBF0" fill-opacity=".502"/><polygon id="416" fill="#C8C8C5" fill-opacity=".502" points="123 68 70 27 89 40"/><rect id="417" width="1" height="14" x="89" y="58" fill="#090908" fill-opacity=".502"/><rect id="418" width="8" height="8" x="125" y="152" fill="#EBEDE4" fill-opacity=".502"/><rect id="419" width="3" height="15" x="153" y="66" fill="#39382B" fill-opacity=".502"/><rect id="420" width="40" height="43" x="168" y="0" fill="#282A2A" fill-opacity=".502"/><polyline id="421" fill="none" stroke="#262827" stroke-opacity=".502" stroke-width="1" points="0 69 5 48 0 57 0 85"/><rect id="422" width="0" height="31" x="208" y="13" fill="#272928" fill-opacity=".502"/><polyline id="423" fill="none" stroke="#272928" stroke-opacity=".502" stroke-width="1" points="34 255 13 238 27 230 20 255"/><polygon id="424" fill="#272928" fill-opacity=".502" points="0 40 0 58 0 56"/><polygon id="425" fill="#262727" fill-opacity=".502" points="26 104 18 123 25 125"/><rect id="426" width="10" height="3" x="11" y="239" fill="#262828" fill-opacity=".502"/><polygon id="427" fill="#272928" fill-opacity=".502" points="201 191 221 163 180 216"/><polyline id="428" fill="none" stroke="#272928" stroke-opacity=".502" stroke-width="1" points="46 0 5 33 12 7 25 0"/><rect id="429" width="7" height="4" x="62" y="43" fill="#1F1E1C" fill-opacity=".502"/><polyline id="430" fill="none" stroke="#272929" stroke-opacity=".502" stroke-width="1" points="184 86 193 105 175 79 185 75"/><rect id="431" width="30" height="2" x="19" y="240" fill="#262827" fill-opacity=".502"/><polyline id="432" fill="none" stroke="#365492" stroke-opacity=".502" stroke-width="1" points="90 98 87 104 80 95 75 104"/><polygon id="433" fill="#292B2A" fill-opacity=".502" points="104 15 111 4 80 21"/><polygon id="434" fill="#282B2A" fill-opacity=".502" points="40 2 11 23 68 19"/><polyline id="435" fill="none" stroke="#282A2A" stroke-opacity=".502" stroke-width="1" points="208 94 208 113 199 71 208 77"/><rect id="436" width="12" height="12" x="99" y="168" fill="#191D1D" fill-opacity=".502"/><polygon id="437" fill="#252825" fill-opacity=".502" points="106 252 116 238 102 261"/></svg>