<?xml version="1.0" standalone="no"?>
<svg xmlns="http://www.w3.org/2000/svg" version="1.2" baseProfile="tiny" width="256" height="170" viewBox="0 0 256 170">
<rect x="0" y="0" width="256" height="170" id="0" fill="rgb(145,155,175)" fill-opacity="1" />
<line x1="143" y1="94" x2="114" y2="94" id="1" stroke="rgb(0,0,0)" stroke-width="1" fill="none" stroke-opacity="0.501961" />
<line x1="166" y1="69" x2="15" y2="0" id="2" stroke="rgb(242,249,255)" stroke-width="1" fill="none" stroke-opacity="0.501961" />
<line x1="255" y1="169" x2="160" y2="164" id="3" stroke="rgb(0,0,14)" stroke-width="1" fill="none" stroke-opacity="0.501961" />
<line x1="248" y1="36" x2="113" y2="55" id="4" stroke="rgb(243,251,255)" stroke-width="1" fill="none" stroke-opacity="0.501961" />
<line x1="107" y1="93" x2="144" y2="91" id="5" stroke="rgb(0,0,0)" stroke-width="1" fill="none" stroke-opacity="0.501961" />
<line x1="151" y1="139" x2="26" y2="167" id="6" stroke="rgb(34,42,61)" stroke-width="1" fill="none" stroke-opacity="0.501961" />
<line x1="162" y1="32" x2="34" y2="36" id="7" stroke="rgb(252,255,255)" stroke-width="1" fill="none" stroke-opacity="0.501961" />
<line x1="191" y1="169" x2="255" y2="169" id="8" stroke="rgb(8,15,30)" stroke-width="1" fill="none" stroke-opacity="0.501961" />
<line x1="24" y1="152" x2="100" y2="141" id="9" stroke="rgb(19,28,44)" stroke-width="1" fill="none" stroke-opacity="0.501961" />
<line x1="105" y1="164" x2="0" y2="169" id="10" stroke="rgb(15,23,42)" stroke-width="1" fill="none" stroke-opacity="0.501961" />
<line x1="255" y1="168" x2="164" y2="162" id="11" stroke="rgb(18,28,43)" stroke-width="1" fill="none" stroke-opacity="0.501961" />
<line x1="252" y1="167" x2="175" y2="147" id="12" stroke="rgb(19,28,43)" stroke-width="1" fill="none" stroke-opacity="0.501961" />
<line x1="49" y1="22" x2="255" y2="58" id="13" stroke="rgb(241,249,255)" stroke-width="1" fill="none" stroke-opacity="0.501961" />
<line x1="21" y1="36" x2="205" y2="44" id="14" stroke="rgb(246,250,255)" stroke-width="1" fill="none" stroke-opacity="0.501961" />
<line x1="1" y1="81" x2="193" y2="22" id="15" stroke="rgb(233,242,255)" stroke-width="1" fill="none" stroke-opacity="0.501961" />
<line x1="94" y1="53" x2="255" y2="16" id="16" stroke="rgb(248,252,255)" stroke-width="1" fill="none" stroke-opacity="0.501961" />
<line x1="2" y1="169" x2="76" y2="153" id="17" stroke="rgb(13,23,41)" stroke-width="1" fill="none" stroke-opacity="0.501961" />
<line x1="82" y1="169" x2="28" y2="168" id="18" stroke="rgb(16,22,40)" stroke-width="1" fill="none" stroke-opacity="0.501961" />
<line x1="101" y1="64" x2="255" y2="38" id="19" stroke="rgb(240,248,255)" stroke-width="1" fill="none" stroke-opacity="0.501961" />
<line x1="120" y1="91" x2="168" y2="93" id="20" stroke="rgb(0,5,20)" stroke-width="1" fill="none" stroke-opacity="0.501961" />
<line x1="90" y1="15" x2="239" y2="18" id="21" stroke="rgb(240,245,255)" stroke-width="1" fill="none" stroke-opacity="0.501961" />
<line x1="95" y1="154" x2="0" y2="146" id="22" stroke="rgb(7,17,33)" stroke-width="1" fill="none" stroke-opacity="0.501961" />
<line x1="188" y1="169" x2="84" y2="169" id="23" stroke="rgb(35,40,58)" stroke-width="1" fill="none" stroke-opacity="0.501961" />
<line x1="254" y1="13" x2="118" y2="31" id="24" stroke="rgb(240,245,255)" stroke-width="1" fill="none" stroke-opacity="0.501961" />
<line x1="1" y1="155" x2="82" y2="139" id="25" stroke="rgb(30,42,59)" stroke-width="1" fill="none" stroke-opacity="0.501961" />
<line x1="89" y1="153" x2="166" y2="157" id="26" stroke="rgb(15,20,36)" stroke-width="1" fill="none" stroke-opacity="0.501961" />
<line x1="124" y1="52" x2="255" y2="25" id="27" stroke="rgb(246,251,255)" stroke-width="1" fill="none" stroke-opacity="0.501961" />
<line x1="45" y1="42" x2="207" y2="39" id="28" stroke="rgb(242,247,255)" stroke-width="1" fill="none" stroke-opacity="0.501961" />
<line x1="222" y1="23" x2="40" y2="51" id="29" stroke="rgb(241,248,255)" stroke-width="1" fill="none" stroke-opacity="0.501961" />
<line x1="1" y1="16" x2="136" y2="1" id="30" stroke="rgb(249,253,255)" stroke-width="1" fill="none" stroke-opacity="0.501961" />
<line x1="30" y1="18" x2="143" y2="3" id="31" stroke="rgb(250,254,255)" stroke-width="1" fill="none" stroke-opacity="0.501961" />
<line x1="119" y1="60" x2="255" y2="36" id="32" stroke="rgb(240,248,255)" stroke-width="1" fill="none" stroke-opacity="0.501961" />
<line x1="85" y1="55" x2="251" y2="25" id="33" stroke="rgb(242,247,255)" stroke-width="1" fill="none" stroke-opacity="0.501961" />
<line x1="147" y1="67" x2="0" y2="67" id="34" stroke="rgb(222,235,255)" stroke-width="1" fill="none" stroke-opacity="0.501961" />
<line x1="160" y1="2" x2="11" y2="22" id="35" stroke="rgb(244,250,255)" stroke-width="1" fill="none" stroke-opacity="0.501961" />
<line x1="1" y1="169" x2="9" y2="84" id="36" stroke="rgb(34,47,68)" stroke-width="1" fill="none" stroke-opacity="0.501961" />
<line x1="39" y1="63" x2="198" y2="52" id="37" stroke="rgb(230,242,255)" stroke-width="1" fill="none" stroke-opacity="0.501961" />
<line x1="117" y1="63" x2="253" y2="46" id="38" stroke="rgb(235,248,255)" stroke-width="1" fill="none" stroke-opacity="0.501961" />
<line x1="93" y1="142" x2="0" y2="168" id="39" stroke="rgb(39,50,68)" stroke-width="1" fill="none" stroke-opacity="0.501961" />
<line x1="0" y1="34" x2="133" y2="27" id="40" stroke="rgb(241,246,255)" stroke-width="1" fill="none" stroke-opacity="0.501961" />
<line x1="190" y1="32" x2="79" y2="48" id="41" stroke="rgb(238,243,255)" stroke-width="1" fill="none" stroke-opacity="0.501961" />
<line x1="210" y1="152" x2="255" y2="167" id="42" stroke="rgb(5,16,30)" stroke-width="1" fill="none" stroke-opacity="0.501961" />
<line x1="109" y1="8" x2="243" y2="35" id="43" stroke="rgb(237,242,255)" stroke-width="1" fill="none" stroke-opacity="0.501961" />
<line x1="46" y1="59" x2="201" y2="26" id="44" stroke="rgb(235,242,255)" stroke-width="1" fill="none" stroke-opacity="0.501961" />
<line x1="167" y1="161" x2="255" y2="165" id="45" stroke="rgb(19,29,44)" stroke-width="1" fill="none" stroke-opacity="0.501961" />
<line x1="165" y1="73" x2="1" y2="55" id="46" stroke="rgb(223,237,255)" stroke-width="1" fill="none" stroke-opacity="0.501961" />
<line x1="183" y1="17" x2="0" y2="55" id="47" stroke="rgb(234,242,255)" stroke-width="1" fill="none" stroke-opacity="0.501961" />
<line x1="255" y1="138" x2="187" y2="132" id="48" stroke="rgb(6,17,32)" stroke-width="1" fill="none" stroke-opacity="0.501961" />
<line x1="57" y1="4" x2="181" y2="14" id="49" stroke="rgb(240,245,255)" stroke-width="1" fill="none" stroke-opacity="0.501961" />
<line x1="224" y1="150" x2="132" y2="152" id="50" stroke="rgb(45,54,72)" stroke-width="1" fill="none" stroke-opacity="0.501961" />
<line x1="0" y1="166" x2="76" y2="164" id="51" stroke="rgb(20,29,46)" stroke-width="1" fill="none" stroke-opacity="0.501961" />
<line x1="81" y1="168" x2="0" y2="165" id="52" stroke="rgb(14,23,41)" stroke-width="1" fill="none" stroke-opacity="0.501961" />
<line x1="255" y1="161" x2="172" y2="161" id="53" stroke="rgb(26,36,51)" stroke-width="1" fill="none" stroke-opacity="0.501961" />
<line x1="26" y1="39" x2="140" y2="34" id="54" stroke="rgb(245,250,255)" stroke-width="1" fill="none" stroke-opacity="0.501961" />
<line x1="45" y1="19" x2="154" y2="6" id="55" stroke="rgb(244,249,255)" stroke-width="1" fill="none" stroke-opacity="0.501961" />
<line x1="169" y1="66" x2="4" y2="39" id="56" stroke="rgb(230,243,255)" stroke-width="1" fill="none" stroke-opacity="0.501961" />
<line x1="0" y1="143" x2="149" y2="137" id="57" stroke="rgb(52,62,80)" stroke-width="1" fill="none" stroke-opacity="0.501961" />
<line x1="0" y1="169" x2="99" y2="143" id="58" stroke="rgb(37,48,65)" stroke-width="1" fill="none" stroke-opacity="0.501961" />
<line x1="255" y1="158" x2="163" y2="169" id="59" stroke="rgb(44,54,71)" stroke-width="1" fill="none" stroke-opacity="0.501961" />
<line x1="133" y1="169" x2="0" y2="157" id="60" stroke="rgb(50,58,78)" stroke-width="1" fill="none" stroke-opacity="0.501961" />
<line x1="179" y1="143" x2="242" y2="143" id="61" stroke="rgb(24,34,49)" stroke-width="1" fill="none" stroke-opacity="0.501961" />
<line x1="255" y1="162" x2="181" y2="169" id="62" stroke="rgb(22,31,46)" stroke-width="1" fill="none" stroke-opacity="0.501961" />
<line x1="87" y1="168" x2="244" y2="159" id="63" stroke="rgb(49,56,74)" stroke-width="1" fill="none" stroke-opacity="0.501961" />
<line x1="119" y1="93" x2="171" y2="94" id="64" stroke="rgb(0,0,10)" stroke-width="1" fill="none" stroke-opacity="0.501961" />
<line x1="51" y1="89" x2="5" y2="169" id="65" stroke="rgb(48,59,79)" stroke-width="1" fill="none" stroke-opacity="0.501961" />
<line x1="77" y1="120" x2="0" y2="127" id="66" stroke="rgb(36,47,63)" stroke-width="1" fill="none" stroke-opacity="0.501961" />
<line x1="252" y1="19" x2="143" y2="43" id="67" stroke="rgb(246,251,255)" stroke-width="1" fill="none" stroke-opacity="0.501961" />
<line x1="17" y1="153" x2="116" y2="155" id="68" stroke="rgb(40,48,67)" stroke-width="1" fill="none" stroke-opacity="0.501961" />
<line x1="0" y1="87" x2="121" y2="89" id="69" stroke="rgb(43,55,87)" stroke-width="1" fill="none" stroke-opacity="0.501961" />
<line x1="0" y1="0" x2="149" y2="22" id="70" stroke="rgb(233,240,255)" stroke-width="1" fill="none" stroke-opacity="0.501961" />
<line x1="235" y1="20" x2="143" y2="31" id="71" stroke="rgb(243,247,255)" stroke-width="1" fill="none" stroke-opacity="0.501961" />
<line x1="247" y1="66" x2="118" y2="36" id="72" stroke="rgb(232,241,255)" stroke-width="1" fill="none" stroke-opacity="0.501961" />
<line x1="89" y1="69" x2="225" y2="67" id="73" stroke="rgb(226,240,255)" stroke-width="1" fill="none" stroke-opacity="0.501961" />
<line x1="3" y1="84" x2="0" y2="168" id="74" stroke="rgb(36,49,70)" stroke-width="1" fill="none" stroke-opacity="0.501961" />
<line x1="0" y1="160" x2="120" y2="120" id="75" stroke="rgb(55,65,82)" stroke-width="1" fill="none" stroke-opacity="0.501961" />
<line x1="168" y1="153" x2="1" y2="165" id="76" stroke="rgb(58,67,86)" stroke-width="1" fill="none" stroke-opacity="0.501961" />
<line x1="255" y1="85" x2="255" y2="158" id="77" stroke="rgb(44,58,77)" stroke-width="1" fill="none" stroke-opacity="0.501961" />
<line x1="255" y1="162" x2="172" y2="164" id="78" stroke="rgb(28,37,53)" stroke-width="1" fill="none" stroke-opacity="0.501961" />
<line x1="227" y1="90" x2="138" y2="90" id="79" stroke="rgb(49,61,84)" stroke-width="1" fill="none" stroke-opacity="0.501961" />
<line x1="129" y1="154" x2="0" y2="156" id="80" stroke="rgb(48,57,77)" stroke-width="1" fill="none" stroke-opacity="0.501961" />
<line x1="111" y1="42" x2="0" y2="44" id="81" stroke="rgb(234,242,255)" stroke-width="1" fill="none" stroke-opacity="0.501961" />
<line x1="102" y1="124" x2="0" y2="159" id="82" stroke="rgb(51,62,79)" stroke-width="1" fill="none" stroke-opacity="0.501961" />
<line x1="113" y1="14" x2="7" y2="0" id="83" stroke="rgb(238,243,255)" stroke-width="1" fill="none" stroke-opacity="0.501961" />
<line x1="243" y1="0" x2="94" y2="0" id="84" stroke="rgb(234,239,255)" stroke-width="1" fill="none" stroke-opacity="0.501961" />
<line x1="14" y1="88" x2="4" y2="169" id="85" stroke="rgb(43,57,76)" stroke-width="1" fill="none" stroke-opacity="0.501961" />
<line x1="15" y1="86" x2="10" y2="169" id="86" stroke="rgb(48,61,81)" stroke-width="1" fill="none" stroke-opacity="0.501961" />
<line x1="135" y1="153" x2="0" y2="149" id="87" stroke="rgb(51,60,77)" stroke-width="1" fill="none" stroke-opacity="0.501961" />
<line x1="24" y1="17" x2="144" y2="34" id="88" stroke="rgb(230,238,255)" stroke-width="1" fill="none" stroke-opacity="0.501961" />
<line x1="228" y1="15" x2="136" y2="9" id="89" stroke="rgb(238,242,255)" stroke-width="1" fill="none" stroke-opacity="0.501961" />
<line x1="255" y1="169" x2="244" y2="84" id="90" stroke="rgb(47,60,79)" stroke-width="1" fill="none" stroke-opacity="0.501961" />
<line x1="0" y1="88" x2="86" y2="91" id="91" stroke="rgb(42,54,87)" stroke-width="1" fill="none" stroke-opacity="0.501961" />
<line x1="247" y1="153" x2="121" y2="169" id="92" stroke="rgb(47,57,74)" stroke-width="1" fill="none" stroke-opacity="0.501961" />
<line x1="255" y1="145" x2="188" y2="143" id="93" stroke="rgb(26,36,51)" stroke-width="1" fill="none" stroke-opacity="0.501961" />
<line x1="34" y1="29" x2="180" y2="2" id="94" stroke="rgb(227,234,255)" stroke-width="1" fill="none" stroke-opacity="0.501961" />
<line x1="171" y1="153" x2="255" y2="156" id="95" stroke="rgb(43,52,69)" stroke-width="1" fill="none" stroke-opacity="0.501961" />
<line x1="154" y1="23" x2="7" y2="10" id="96" stroke="rgb(231,238,255)" stroke-width="1" fill="none" stroke-opacity="0.501961" />
<line x1="72" y1="134" x2="2" y2="135" id="97" stroke="rgb(38,50,66)" stroke-width="1" fill="none" stroke-opacity="0.501961" />
<line x1="114" y1="114" x2="0" y2="141" id="98" stroke="rgb(57,66,84)" stroke-width="1" fill="none" stroke-opacity="0.501961" />
<line x1="146" y1="134" x2="252" y2="128" id="99" stroke="rgb(48,61,77)" stroke-width="1" fill="none" stroke-opacity="0.501961" />
<line x1="238" y1="39" x2="98" y2="58" id="100" stroke="rgb(234,242,255)" stroke-width="1" fill="none" stroke-opacity="0.501961" />
<line x1="121" y1="62" x2="255" y2="39" id="101" stroke="rgb(234,242,255)" stroke-width="1" fill="none" stroke-opacity="0.501961" />
<line x1="201" y1="69" x2="0" y2="2" id="102" stroke="rgb(225,233,254)" stroke-width="1" fill="none" stroke-opacity="0.501961" />
<line x1="138" y1="67" x2="0" y2="45" id="103" stroke="rgb(228,242,255)" stroke-width="1" fill="none" stroke-opacity="0.501961" />
<line x1="57" y1="65" x2="226" y2="60" id="104" stroke="rgb(222,237,255)" stroke-width="1" fill="none" stroke-opacity="0.501961" />
<line x1="7" y1="0" x2="158" y2="5" id="105" stroke="rgb(234,238,255)" stroke-width="1" fill="none" stroke-opacity="0.501961" />
<line x1="121" y1="144" x2="29" y2="139" id="106" stroke="rgb(60,70,88)" stroke-width="1" fill="none" stroke-opacity="0.501961" />
<line x1="12" y1="169" x2="48" y2="169" id="107" stroke="rgb(27,32,50)" stroke-width="1" fill="none" stroke-opacity="0.501961" />
<line x1="218" y1="0" x2="47" y2="40" id="108" stroke="rgb(225,233,255)" stroke-width="1" fill="none" stroke-opacity="0.501961" />
<line x1="252" y1="34" x2="136" y2="0" id="109" stroke="rgb(230,234,254)" stroke-width="1" fill="none" stroke-opacity="0.501961" />
<line x1="119" y1="63" x2="224" y2="55" id="110" stroke="rgb(227,242,255)" stroke-width="1" fill="none" stroke-opacity="0.501961" />
<line x1="118" y1="5" x2="43" y2="14" id="111" stroke="rgb(249,253,255)" stroke-width="1" fill="none" stroke-opacity="0.501961" />
<line x1="183" y1="131" x2="247" y2="135" id="112" stroke="rgb(28,41,55)" stroke-width="1" fill="none" stroke-opacity="0.501961" />
<line x1="137" y1="144" x2="242" y2="157" id="113" stroke="rgb(56,66,84)" stroke-width="1" fill="none" stroke-opacity="0.501961" />
<line x1="171" y1="154" x2="9" y2="145" id="114" stroke="rgb(65,74,93)" stroke-width="1" fill="none" stroke-opacity="0.501961" />
<line x1="150" y1="26" x2="11" y2="38" id="115" stroke="rgb(234,239,255)" stroke-width="1" fill="none" stroke-opacity="0.501961" />
<line x1="138" y1="42" x2="57" y2="53" id="116" stroke="rgb(239,244,255)" stroke-width="1" fill="none" stroke-opacity="0.501961" />
<line x1="148" y1="145" x2="255" y2="169" id="117" stroke="rgb(50,58,75)" stroke-width="1" fill="none" stroke-opacity="0.501961" />
<line x1="79" y1="132" x2="6" y2="134" id="118" stroke="rgb(55,66,82)" stroke-width="1" fill="none" stroke-opacity="0.501961" />
<line x1="6" y1="136" x2="77" y2="135" id="119" stroke="rgb(45,53,71)" stroke-width="1" fill="none" stroke-opacity="0.501961" />
<line x1="229" y1="120" x2="103" y2="166" id="120" stroke="rgb(62,71,88)" stroke-width="1" fill="none" stroke-opacity="0.501961" />
<line x1="95" y1="91" x2="160" y2="88" id="121" stroke="rgb(47,51,63)" stroke-width="1" fill="none" stroke-opacity="0.501961" />
<line x1="247" y1="169" x2="255" y2="90" id="122" stroke="rgb(55,68,87)" stroke-width="1" fill="none" stroke-opacity="0.501961" />
<line x1="243" y1="46" x2="121" y2="45" id="123" stroke="rgb(231,237,255)" stroke-width="1" fill="none" stroke-opacity="0.501961" />
<line x1="19" y1="64" x2="194" y2="0" id="124" stroke="rgb(222,231,253)" stroke-width="1" fill="none" stroke-opacity="0.501961" />
<line x1="113" y1="53" x2="237" y2="24" id="125" stroke="rgb(236,241,255)" stroke-width="1" fill="none" stroke-opacity="0.501961" />
<line x1="88" y1="77" x2="221" y2="56" id="126" stroke="rgb(221,236,255)" stroke-width="1" fill="none" stroke-opacity="0.501961" />
<line x1="37" y1="16" x2="161" y2="35" id="127" stroke="rgb(225,232,254)" stroke-width="1" fill="none" stroke-opacity="0.501961" />
<line x1="4" y1="128" x2="145" y2="114" id="128" stroke="rgb(64,72,90)" stroke-width="1" fill="none" stroke-opacity="0.501961" />
<line x1="255" y1="157" x2="132" y2="164" id="129" stroke="rgb(51,60,77)" stroke-width="1" fill="none" stroke-opacity="0.501961" />
<line x1="154" y1="81" x2="10" y2="79" id="130" stroke="rgb(213,227,255)" stroke-width="1" fill="none" stroke-opacity="0.501961" />
<line x1="204" y1="33" x2="52" y2="68" id="131" stroke="rgb(224,232,253)" stroke-width="1" fill="none" stroke-opacity="0.501961" />
<line x1="0" y1="29" x2="128" y2="13" id="132" stroke="rgb(223,231,252)" stroke-width="1" fill="none" stroke-opacity="0.501961" />
<line x1="22" y1="90" x2="120" y2="96" id="133" stroke="rgb(58,72,97)" stroke-width="1" fill="none" stroke-opacity="0.501961" />
<line x1="199" y1="139" x2="93" y2="130" id="134" stroke="rgb(74,82,99)" stroke-width="1" fill="none" stroke-opacity="0.501961" />
<line x1="225" y1="88" x2="250" y2="158" id="135" stroke="rgb(59,73,91)" stroke-width="1" fill="none" stroke-opacity="0.501961" />
<line x1="222" y1="81" x2="115" y2="73" id="136" stroke="rgb(220,234,255)" stroke-width="1" fill="none" stroke-opacity="0.501961" />
<line x1="147" y1="127" x2="255" y2="112" id="137" stroke="rgb(66,80,96)" stroke-width="1" fill="none" stroke-opacity="0.501961" />
<line x1="251" y1="66" x2="111" y2="17" id="138" stroke="rgb(220,230,251)" stroke-width="1" fill="none" stroke-opacity="0.501961" />
<line x1="133" y1="153" x2="249" y2="89" id="139" stroke="rgb(68,80,97)" stroke-width="1" fill="none" stroke-opacity="0.501961" />
<line x1="1" y1="90" x2="68" y2="95" id="140" stroke="rgb(47,61,86)" stroke-width="1" fill="none" stroke-opacity="0.501961" />
<line x1="99" y1="0" x2="9" y2="3" id="141" stroke="rgb(227,231,254)" stroke-width="1" fill="none" stroke-opacity="0.501961" />
<line x1="141" y1="107" x2="255" y2="109" id="142" stroke="rgb(57,71,86)" stroke-width="1" fill="none" stroke-opacity="0.501961" />
<line x1="80" y1="74" x2="166" y2="71" id="143" stroke="rgb(219,233,255)" stroke-width="1" fill="none" stroke-opacity="0.501961" />
<line x1="0" y1="95" x2="0" y2="149" id="144" stroke="rgb(46,58,79)" stroke-width="1" fill="none" stroke-opacity="0.501961" />
<line x1="126" y1="168" x2="209" y2="168" id="145" stroke="rgb(37,43,61)" stroke-width="1" fill="none" stroke-opacity="0.501961" />
<line x1="140" y1="137" x2="255" y2="150" id="146" stroke="rgb(72,81,98)" stroke-width="1" fill="none" stroke-opacity="0.501961" />
<line x1="164" y1="18" x2="250" y2="21" id="147" stroke="rgb(232,237,255)" stroke-width="1" fill="none" stroke-opacity="0.501961" />
<line x1="3" y1="169" x2="0" y2="86" id="148" stroke="rgb(46,59,80)" stroke-width="1" fill="none" stroke-opacity="0.501961" />
<line x1="0" y1="86" x2="162" y2="89" id="149" stroke="rgb(61,74,102)" stroke-width="1" fill="none" stroke-opacity="0.501961" />
<line x1="120" y1="78" x2="0" y2="18" id="150" stroke="rgb(221,230,252)" stroke-width="1" fill="none" stroke-opacity="0.501961" />
<line x1="241" y1="65" x2="157" y2="66" id="151" stroke="rgb(220,235,255)" stroke-width="1" fill="none" stroke-opacity="0.501961" />
<line x1="75" y1="14" x2="226" y2="39" id="152" stroke="rgb(220,228,249)" stroke-width="1" fill="none" stroke-opacity="0.501961" />
<line x1="198" y1="15" x2="2" y2="9" id="153" stroke="rgb(228,233,253)" stroke-width="1" fill="none" stroke-opacity="0.501961" />
<line x1="4" y1="56" x2="185" y2="23" id="154" stroke="rgb(230,238,255)" stroke-width="1" fill="none" stroke-opacity="0.501961" />
<line x1="246" y1="7" x2="115" y2="34" id="155" stroke="rgb(226,232,253)" stroke-width="1" fill="none" stroke-opacity="0.501961" />
<line x1="202" y1="151" x2="96" y2="137" id="156" stroke="rgb(67,74,92)" stroke-width="1" fill="none" stroke-opacity="0.501961" />
<line x1="27" y1="6" x2="122" y2="0" id="157" stroke="rgb(231,236,255)" stroke-width="1" fill="none" stroke-opacity="0.501961" />
<line x1="188" y1="2" x2="53" y2="29" id="158" stroke="rgb(221,229,251)" stroke-width="1" fill="none" stroke-opacity="0.501961" />
<line x1="1" y1="44" x2="106" y2="37" id="159" stroke="rgb(230,238,255)" stroke-width="1" fill="none" stroke-opacity="0.501961" />
<line x1="252" y1="81" x2="133" y2="80" id="160" stroke="rgb(213,227,251)" stroke-width="1" fill="none" stroke-opacity="0.501961" />
<line x1="129" y1="54" x2="6" y2="8" id="161" stroke="rgb(220,227,248)" stroke-width="1" fill="none" stroke-opacity="0.501961" />
<line x1="183" y1="28" x2="31" y2="49" id="162" stroke="rgb(222,230,249)" stroke-width="1" fill="none" stroke-opacity="0.501961" />
<line x1="149" y1="73" x2="255" y2="68" id="163" stroke="rgb(221,235,255)" stroke-width="1" fill="none" stroke-opacity="0.501961" />
<line x1="18" y1="85" x2="36" y2="165" id="164" stroke="rgb(58,71,91)" stroke-width="1" fill="none" stroke-opacity="0.501961" />
<line x1="213" y1="147" x2="132" y2="154" id="165" stroke="rgb(54,63,79)" stroke-width="1" fill="none" stroke-opacity="0.501961" />
<line x1="254" y1="169" x2="242" y2="85" id="166" stroke="rgb(58,70,90)" stroke-width="1" fill="none" stroke-opacity="0.501961" />
<line x1="2" y1="150" x2="122" y2="144" id="167" stroke="rgb(62,71,89)" stroke-width="1" fill="none" stroke-opacity="0.501961" />
<line x1="6" y1="86" x2="18" y2="168" id="168" stroke="rgb(58,71,92)" stroke-width="1" fill="none" stroke-opacity="0.501961" />
<line x1="0" y1="91" x2="124" y2="100" id="169" stroke="rgb(67,81,104)" stroke-width="1" fill="none" stroke-opacity="0.501961" />
<line x1="255" y1="129" x2="157" y2="150" id="170" stroke="rgb(67,77,93)" stroke-width="1" fill="none" stroke-opacity="0.501961" />
<line x1="0" y1="32" x2="72" y2="28" id="171" stroke="rgb(235,241,255)" stroke-width="1" fill="none" stroke-opacity="0.501961" />
<line x1="0" y1="125" x2="93" y2="118" id="172" stroke="rgb(58,69,86)" stroke-width="1" fill="none" stroke-opacity="0.501961" />
<line x1="245" y1="60" x2="146" y2="66" id="173" stroke="rgb(219,234,252)" stroke-width="1" fill="none" stroke-opacity="0.501961" />
<line x1="129" y1="62" x2="1" y2="44" id="174" stroke="rgb(221,236,254)" stroke-width="1" fill="none" stroke-opacity="0.501961" />
<line x1="118" y1="95" x2="180" y2="94" id="175" stroke="rgb(67,75,96)" stroke-width="1" fill="none" stroke-opacity="0.501961" />
<line x1="228" y1="120" x2="169" y2="114" id="176" stroke="rgb(53,66,81)" stroke-width="1" fill="none" stroke-opacity="0.501961" />
<line x1="253" y1="68" x2="151" y2="69" id="177" stroke="rgb(218,232,255)" stroke-width="1" fill="none" stroke-opacity="0.501961" />
<line x1="0" y1="68" x2="111" y2="71" id="178" stroke="rgb(217,230,255)" stroke-width="1" fill="none" stroke-opacity="0.501961" />
<line x1="244" y1="38" x2="140" y2="44" id="179" stroke="rgb(224,231,253)" stroke-width="1" fill="none" stroke-opacity="0.501961" />
<line x1="77" y1="102" x2="0" y2="92" id="180" stroke="rgb(59,73,95)" stroke-width="1" fill="none" stroke-opacity="0.501961" />
<line x1="242" y1="96" x2="133" y2="130" id="181" stroke="rgb(72,84,100)" stroke-width="1" fill="none" stroke-opacity="0.501961" />
<line x1="255" y1="13" x2="126" y2="0" id="182" stroke="rgb(218,225,249)" stroke-width="1" fill="none" stroke-opacity="0.501961" />
<line x1="25" y1="45" x2="173" y2="57" id="183" stroke="rgb(220,228,247)" stroke-width="1" fill="none" stroke-opacity="0.501961" />
<line x1="72" y1="162" x2="28" y2="164" id="184" stroke="rgb(22,29,47)" stroke-width="1" fill="none" stroke-opacity="0.501961" />
<line x1="255" y1="91" x2="168" y2="91" id="185" stroke="rgb(55,69,93)" stroke-width="1" fill="none" stroke-opacity="0.501961" />
<line x1="116" y1="153" x2="225" y2="135" id="186" stroke="rgb(65,73,91)" stroke-width="1" fill="none" stroke-opacity="0.501961" />
<line x1="149" y1="129" x2="40" y2="129" id="187" stroke="rgb(79,86,104)" stroke-width="1" fill="none" stroke-opacity="0.501961" />
<line x1="255" y1="35" x2="139" y2="55" id="188" stroke="rgb(217,226,247)" stroke-width="1" fill="none" stroke-opacity="0.501961" />
<line x1="163" y1="19" x2="0" y2="31" id="189" stroke="rgb(215,226,248)" stroke-width="1" fill="none" stroke-opacity="0.501961" />
<line x1="245" y1="135" x2="155" y2="135" id="190" stroke="rgb(70,80,97)" stroke-width="1" fill="none" stroke-opacity="0.501961" />
<line x1="21" y1="143" x2="121" y2="144" id="191" stroke="rgb(62,73,90)" stroke-width="1" fill="none" stroke-opacity="0.501961" />
<line x1="111" y1="75" x2="224" y2="73" id="192" stroke="rgb(220,234,255)" stroke-width="1" fill="none" stroke-opacity="0.501961" />
<line x1="23" y1="116" x2="110" y2="117" id="193" stroke="rgb(67,75,92)" stroke-width="1" fill="none" stroke-opacity="0.501961" />
<line x1="1" y1="10" x2="78" y2="7" id="194" stroke="rgb(232,237,255)" stroke-width="1" fill="none" stroke-opacity="0.501961" />
<line x1="255" y1="167" x2="161" y2="160" id="195" stroke="rgb(66,76,93)" stroke-width="1" fill="none" stroke-opacity="0.501961" />
<line x1="144" y1="122" x2="10" y2="89" id="196" stroke="rgb(79,90,110)" stroke-width="1" fill="none" stroke-opacity="0.501961" />
<line x1="66" y1="144" x2="190" y2="133" id="197" stroke="rgb(72,80,98)" stroke-width="1" fill="none" stroke-opacity="0.501961" />
<line x1="119" y1="45" x2="1" y2="69" id="198" stroke="rgb(219,230,254)" stroke-width="1" fill="none" stroke-opacity="0.501961" />
<line x1="0" y1="95" x2="100" y2="118" id="199" stroke="rgb(67,79,98)" stroke-width="1" fill="none" stroke-opacity="0.501961" />
<line x1="118" y1="88" x2="237" y2="89" id="200" stroke="rgb(73,84,104)" stroke-width="1" fill="none" stroke-opacity="0.501961" />
<line x1="137" y1="38" x2="247" y2="24" id="201" stroke="rgb(225,230,250)" stroke-width="1" fill="none" stroke-opacity="0.501961" />
<line x1="255" y1="41" x2="119" y2="15" id="202" stroke="rgb(220,229,250)" stroke-width="1" fill="none" stroke-opacity="0.501961" />
<line x1="255" y1="95" x2="175" y2="118" id="203" stroke="rgb(65,79,96)" stroke-width="1" fill="none" stroke-opacity="0.501961" />
<line x1="21" y1="66" x2="107" y2="60" id="204" stroke="rgb(219,233,255)" stroke-width="1" fill="none" stroke-opacity="0.501961" />
<line x1="96" y1="71" x2="2" y2="70" id="205" stroke="rgb(214,227,255)" stroke-width="1" fill="none" stroke-opacity="0.501961" />
<line x1="251" y1="32" x2="163" y2="2" id="206" stroke="rgb(223,228,248)" stroke-width="1" fill="none" stroke-opacity="0.501961" />
<line x1="4" y1="162" x2="129" y2="169" id="207" stroke="rgb(67,76,96)" stroke-width="1" fill="none" stroke-opacity="0.501961" />
<line x1="64" y1="155" x2="191" y2="169" id="208" stroke="rgb(73,81,101)" stroke-width="1" fill="none" stroke-opacity="0.501961" />
<line x1="137" y1="6" x2="28" y2="21" id="209" stroke="rgb(225,231,252)" stroke-width="1" fill="none" stroke-opacity="0.501961" />
<line x1="21" y1="41" x2="172" y2="27" id="210" stroke="rgb(224,229,249)" stroke-width="1" fill="none" stroke-opacity="0.501961" />
<line x1="255" y1="154" x2="144" y2="120" id="211" stroke="rgb(67,77,94)" stroke-width="1" fill="none" stroke-opacity="0.501961" />
<line x1="4" y1="129" x2="102" y2="119" id="212" stroke="rgb(64,74,92)" stroke-width="1" fill="none" stroke-opacity="0.501961" />
<line x1="253" y1="147" x2="252" y2="84" id="213" stroke="rgb(59,72,93)" stroke-width="1" fill="none" stroke-opacity="0.501961" />
<line x1="102" y1="104" x2="2" y2="106" id="214" stroke="rgb(59,73,90)" stroke-width="1" fill="none" stroke-opacity="0.501961" />
<line x1="195" y1="91" x2="255" y2="168" id="215" stroke="rgb(68,81,98)" stroke-width="1" fill="none" stroke-opacity="0.501961" />
<line x1="239" y1="169" x2="241" y2="89" id="216" stroke="rgb(60,74,91)" stroke-width="1" fill="none" stroke-opacity="0.501961" />
<line x1="250" y1="142" x2="201" y2="142" id="217" stroke="rgb(54,68,83)" stroke-width="1" fill="none" stroke-opacity="0.501961" />
<line x1="147" y1="60" x2="249" y2="50" id="218" stroke="rgb(230,243,255)" stroke-width="1" fill="none" stroke-opacity="0.501961" />
<line x1="193" y1="75" x2="119" y2="79" id="219" stroke="rgb(220,233,255)" stroke-width="1" fill="none" stroke-opacity="0.501961" />
<line x1="255" y1="88" x2="127" y2="101" id="220" stroke="rgb(75,89,110)" stroke-width="1" fill="none" stroke-opacity="0.501961" />
<line x1="255" y1="42" x2="103" y2="66" id="221" stroke="rgb(217,228,247)" stroke-width="1" fill="none" stroke-opacity="0.501961" />
<line x1="79" y1="0" x2="26" y2="0" id="222" stroke="rgb(234,237,255)" stroke-width="1" fill="none" stroke-opacity="0.501961" />
<line x1="53" y1="52" x2="237" y2="80" id="223" stroke="rgb(213,227,248)" stroke-width="1" fill="none" stroke-opacity="0.501961" />
<line x1="28" y1="155" x2="104" y2="151" id="224" stroke="rgb(69,81,99)" stroke-width="1" fill="none" stroke-opacity="0.501961" />
<line x1="18" y1="88" x2="17" y2="169" id="225" stroke="rgb(62,74,96)" stroke-width="1" fill="none" stroke-opacity="0.501961" />
<line x1="149" y1="93" x2="255" y2="94" id="226" stroke="rgb(80,94,118)" stroke-width="1" fill="none" stroke-opacity="0.501961" />
<line x1="99" y1="146" x2="3" y2="161" id="227" stroke="rgb(74,85,105)" stroke-width="1" fill="none" stroke-opacity="0.501961" />
<line x1="141" y1="148" x2="8" y2="144" id="228" stroke="rgb(74,84,104)" stroke-width="1" fill="none" stroke-opacity="0.501961" />
<line x1="116" y1="93" x2="153" y2="96" id="229" stroke="rgb(3,8,19)" stroke-width="1" fill="none" stroke-opacity="0.501961" />
<line x1="88" y1="0" x2="255" y2="4" id="230" stroke="rgb(217,224,246)" stroke-width="1" fill="none" stroke-opacity="0.501961" />
<line x1="255" y1="18" x2="155" y2="5" id="231" stroke="rgb(227,231,253)" stroke-width="1" fill="none" stroke-opacity="0.501961" />
<line x1="0" y1="35" x2="123" y2="82" id="232" stroke="rgb(208,222,245)" stroke-width="1" fill="none" stroke-opacity="0.501961" />
<line x1="132" y1="51" x2="255" y2="33" id="233" stroke="rgb(231,238,255)" stroke-width="1" fill="none" stroke-opacity="0.501961" />
<line x1="44" y1="166" x2="121" y2="165" id="234" stroke="rgb(97,107,127)" stroke-width="1" fill="none" stroke-opacity="0.501961" />
<line x1="203" y1="38" x2="47" y2="39" id="235" stroke="rgb(214,220,241)" stroke-width="1" fill="none" stroke-opacity="0.501961" />
<line x1="13" y1="32" x2="127" y2="27" id="236" stroke="rgb(224,229,248)" stroke-width="1" fill="none" stroke-opacity="0.501961" />
<line x1="60" y1="6" x2="136" y2="4" id="237" stroke="rgb(227,233,253)" stroke-width="1" fill="none" stroke-opacity="0.501961" />
<line x1="14" y1="24" x2="149" y2="9" id="238" stroke="rgb(223,230,251)" stroke-width="1" fill="none" stroke-opacity="0.501961" />
<line x1="49" y1="11" x2="168" y2="0" id="239" stroke="rgb(219,225,245)" stroke-width="1" fill="none" stroke-opacity="0.501961" />
<line x1="0" y1="51" x2="122" y2="66" id="240" stroke="rgb(217,231,255)" stroke-width="1" fill="none" stroke-opacity="0.501961" />
<line x1="188" y1="153" x2="255" y2="155" id="241" stroke="rgb(56,67,83)" stroke-width="1" fill="none" stroke-opacity="0.501961" />
<line x1="3" y1="111" x2="80" y2="121" id="242" stroke="rgb(60,71,88)" stroke-width="1" fill="none" stroke-opacity="0.501961" />
<line x1="236" y1="19" x2="14" y2="14" id="243" stroke="rgb(214,220,241)" stroke-width="1" fill="none" stroke-opacity="0.501961" />
<line x1="255" y1="163" x2="160" y2="161" id="244" stroke="rgb(78,88,105)" stroke-width="1" fill="none" stroke-opacity="0.501961" />
<line x1="112" y1="78" x2="22" y2="71" id="245" stroke="rgb(215,229,255)" stroke-width="1" fill="none" stroke-opacity="0.501961" />
<line x1="135" y1="35" x2="12" y2="60" id="246" stroke="rgb(220,230,251)" stroke-width="1" fill="none" stroke-opacity="0.501961" />
<line x1="82" y1="24" x2="176" y2="7" id="247" stroke="rgb(215,224,245)" stroke-width="1" fill="none" stroke-opacity="0.501961" />
<line x1="99" y1="140" x2="0" y2="166" id="248" stroke="rgb(68,80,99)" stroke-width="1" fill="none" stroke-opacity="0.501961" />
<line x1="204" y1="58" x2="122" y2="63" id="249" stroke="rgb(216,231,246)" stroke-width="1" fill="none" stroke-opacity="0.501961" />
<line x1="145" y1="137" x2="68" y2="138" id="250" stroke="rgb(76,83,101)" stroke-width="1" fill="none" stroke-opacity="0.501961" />
<line x1="234" y1="119" x2="135" y2="140" id="251" stroke="rgb(72,83,99)" stroke-width="1" fill="none" stroke-opacity="0.501961" />
<line x1="255" y1="54" x2="122" y2="66" id="252" stroke="rgb(214,229,247)" stroke-width="1" fill="none" stroke-opacity="0.501961" />
<line x1="67" y1="32" x2="6" y2="35" id="253" stroke="rgb(239,245,255)" stroke-width="1" fill="none" stroke-opacity="0.501961" />
<line x1="0" y1="96" x2="92" y2="87" id="254" stroke="rgb(74,86,113)" stroke-width="1" fill="none" stroke-opacity="0.501961" />
<line x1="106" y1="128" x2="0" y2="133" id="255" stroke="rgb(76,86,104)" stroke-width="1" fill="none" stroke-opacity="0.501961" />
<line x1="80" y1="92" x2="147" y2="91" id="256" stroke="rgb(24,32,48)" stroke-width="1" fill="none" stroke-opacity="0.501961" />
<line x1="5" y1="105" x2="94" y2="107" id="257" stroke="rgb(72,85,103)" stroke-width="1" fill="none" stroke-opacity="0.501961" />
<line x1="7" y1="169" x2="3" y2="97" id="258" stroke="rgb(56,69,88)" stroke-width="1" fill="none" stroke-opacity="0.501961" />
<line x1="145" y1="84" x2="255" y2="75" id="259" stroke="rgb(207,221,246)" stroke-width="1" fill="none" stroke-opacity="0.501961" />
<line x1="125" y1="162" x2="50" y2="164" id="260" stroke="rgb(68,77,98)" stroke-width="1" fill="none" stroke-opacity="0.501961" />
<line x1="153" y1="58" x2="255" y2="48" id="261" stroke="rgb(215,226,246)" stroke-width="1" fill="none" stroke-opacity="0.501961" />
<line x1="37" y1="164" x2="165" y2="108" id="262" stroke="rgb(82,90,108)" stroke-width="1" fill="none" stroke-opacity="0.501961" />
<line x1="255" y1="139" x2="187" y2="133" id="263" stroke="rgb(53,63,79)" stroke-width="1" fill="none" stroke-opacity="0.501961" />
<line x1="34" y1="128" x2="113" y2="128" id="264" stroke="rgb(67,75,93)" stroke-width="1" fill="none" stroke-opacity="0.501961" />
<line x1="133" y1="104" x2="255" y2="101" id="265" stroke="rgb(79,94,110)" stroke-width="1" fill="none" stroke-opacity="0.501961" />
<line x1="0" y1="82" x2="1" y2="4" id="266" stroke="rgb(212,222,250)" stroke-width="1" fill="none" stroke-opacity="0.501961" />
<line x1="245" y1="144" x2="89" y2="131" id="267" stroke="rgb(74,83,100)" stroke-width="1" fill="none" stroke-opacity="0.501961" />
<line x1="74" y1="115" x2="0" y2="115" id="268" stroke="rgb(65,76,94)" stroke-width="1" fill="none" stroke-opacity="0.501961" />
<line x1="245" y1="153" x2="148" y2="151" id="269" stroke="rgb(73,83,100)" stroke-width="1" fill="none" stroke-opacity="0.501961" />
<line x1="141" y1="158" x2="255" y2="123" id="270" stroke="rgb(86,96,114)" stroke-width="1" fill="none" stroke-opacity="0.501961" />
<line x1="156" y1="19" x2="255" y2="0" id="271" stroke="rgb(215,223,247)" stroke-width="1" fill="none" stroke-opacity="0.501961" />
<line x1="132" y1="141" x2="255" y2="128" id="272" stroke="rgb(76,86,102)" stroke-width="1" fill="none" stroke-opacity="0.501961" />
<line x1="28" y1="82" x2="138" y2="52" id="273" stroke="rgb(210,222,247)" stroke-width="1" fill="none" stroke-opacity="0.501961" />
<line x1="116" y1="45" x2="0" y2="10" id="274" stroke="rgb(216,223,244)" stroke-width="1" fill="none" stroke-opacity="0.501961" />
<line x1="91" y1="47" x2="0" y2="21" id="275" stroke="rgb(218,224,245)" stroke-width="1" fill="none" stroke-opacity="0.501961" />
<line x1="92" y1="77" x2="3" y2="73" id="276" stroke="rgb(209,222,253)" stroke-width="1" fill="none" stroke-opacity="0.501961" />
<line x1="20" y1="154" x2="110" y2="156" id="277" stroke="rgb(66,73,94)" stroke-width="1" fill="none" stroke-opacity="0.501961" />
<line x1="3" y1="99" x2="92" y2="88" id="278" stroke="rgb(69,82,108)" stroke-width="1" fill="none" stroke-opacity="0.501961" />
<line x1="20" y1="124" x2="147" y2="138" id="279" stroke="rgb(78,87,105)" stroke-width="1" fill="none" stroke-opacity="0.501961" />
<line x1="149" y1="96" x2="18" y2="97" id="280" stroke="rgb(82,95,118)" stroke-width="1" fill="none" stroke-opacity="0.501961" />
<line x1="184" y1="81" x2="48" y2="83" id="281" stroke="rgb(212,225,252)" stroke-width="1" fill="none" stroke-opacity="0.501961" />
<line x1="251" y1="103" x2="176" y2="104" id="282" stroke="rgb(66,81,96)" stroke-width="1" fill="none" stroke-opacity="0.501961" />
<line x1="51" y1="27" x2="254" y2="22" id="283" stroke="rgb(216,224,243)" stroke-width="1" fill="none" stroke-opacity="0.501961" />
<line x1="255" y1="39" x2="140" y2="18" id="284" stroke="rgb(218,227,249)" stroke-width="1" fill="none" stroke-opacity="0.501961" />
<line x1="122" y1="9" x2="239" y2="13" id="285" stroke="rgb(211,215,238)" stroke-width="1" fill="none" stroke-opacity="0.501961" />
<line x1="191" y1="40" x2="16" y2="65" id="286" stroke="rgb(214,223,245)" stroke-width="1" fill="none" stroke-opacity="0.501961" />
<line x1="197" y1="166" x2="92" y2="166" id="287" stroke="rgb(74,81,101)" stroke-width="1" fill="none" stroke-opacity="0.501961" />
<line x1="89" y1="147" x2="0" y2="155" id="288" stroke="rgb(70,80,98)" stroke-width="1" fill="none" stroke-opacity="0.501961" />
<line x1="6" y1="36" x2="153" y2="30" id="289" stroke="rgb(220,226,246)" stroke-width="1" fill="none" stroke-opacity="0.501961" />
<line x1="152" y1="70" x2="254" y2="71" id="290" stroke="rgb(218,232,255)" stroke-width="1" fill="none" stroke-opacity="0.501961" />
<line x1="255" y1="35" x2="162" y2="18" id="291" stroke="rgb(223,229,249)" stroke-width="1" fill="none" stroke-opacity="0.501961" />
<line x1="254" y1="115" x2="120" y2="130" id="292" stroke="rgb(81,92,109)" stroke-width="1" fill="none" stroke-opacity="0.501961" />
<line x1="23" y1="80" x2="138" y2="77" id="293" stroke="rgb(211,224,252)" stroke-width="1" fill="none" stroke-opacity="0.501961" />
<line x1="146" y1="94" x2="115" y2="92" id="294" stroke="rgb(0,0,1)" stroke-width="1" fill="none" stroke-opacity="0.501961" />
<line x1="135" y1="160" x2="17" y2="129" id="295" stroke="rgb(81,88,108)" stroke-width="1" fill="none" stroke-opacity="0.501961" />
<line x1="115" y1="147" x2="254" y2="93" id="296" stroke="rgb(85,96,114)" stroke-width="1" fill="none" stroke-opacity="0.501961" />
<line x1="15" y1="167" x2="109" y2="165" id="297" stroke="rgb(85,93,114)" stroke-width="1" fill="none" stroke-opacity="0.501961" />
<line x1="53" y1="72" x2="152" y2="73" id="298" stroke="rgb(210,223,247)" stroke-width="1" fill="none" stroke-opacity="0.501961" />
<line x1="255" y1="80" x2="255" y2="0" id="299" stroke="rgb(212,223,247)" stroke-width="1" fill="none" stroke-opacity="0.501961" />
<line x1="142" y1="43" x2="5" y2="85" id="300" stroke="rgb(205,216,241)" stroke-width="1" fill="none" stroke-opacity="0.501961" />
<line x1="2" y1="17" x2="117" y2="50" id="301" stroke="rgb(214,221,244)" stroke-width="1" fill="none" stroke-opacity="0.501961" />
<line x1="174" y1="13" x2="255" y2="18" id="302" stroke="rgb(222,227,246)" stroke-width="1" fill="none" stroke-opacity="0.501961" />
<line x1="127" y1="22" x2="2" y2="16" id="303" stroke="rgb(207,215,238)" stroke-width="1" fill="none" stroke-opacity="0.501961" />
<line x1="4" y1="86" x2="9" y2="169" id="304" stroke="rgb(66,79,99)" stroke-width="1" fill="none" stroke-opacity="0.501961" />
<line x1="23" y1="162" x2="192" y2="130" id="305" stroke="rgb(80,90,108)" stroke-width="1" fill="none" stroke-opacity="0.501961" />
<line x1="115" y1="106" x2="254" y2="91" id="306" stroke="rgb(80,94,113)" stroke-width="1" fill="none" stroke-opacity="0.501961" />
<line x1="225" y1="100" x2="62" y2="92" id="307" stroke="rgb(84,97,118)" stroke-width="1" fill="none" stroke-opacity="0.501961" />
<line x1="242" y1="74" x2="146" y2="75" id="308" stroke="rgb(213,227,251)" stroke-width="1" fill="none" stroke-opacity="0.501961" />
<line x1="129" y1="3" x2="1" y2="6" id="309" stroke="rgb(225,229,251)" stroke-width="1" fill="none" stroke-opacity="0.501961" />
<line x1="172" y1="67" x2="255" y2="50" id="310" stroke="rgb(214,229,247)" stroke-width="1" fill="none" stroke-opacity="0.501961" />
<line x1="253" y1="115" x2="169" y2="143" id="311" stroke="rgb(73,85,101)" stroke-width="1" fill="none" stroke-opacity="0.501961" />
<line x1="202" y1="77" x2="55" y2="82" id="312" stroke="rgb(210,224,247)" stroke-width="1" fill="none" stroke-opacity="0.501961" />
<line x1="115" y1="0" x2="241" y2="13" id="313" stroke="rgb(219,224,247)" stroke-width="1" fill="none" stroke-opacity="0.501961" />
<line x1="255" y1="38" x2="119" y2="13" id="314" stroke="rgb(209,217,240)" stroke-width="1" fill="none" stroke-opacity="0.501961" />
<line x1="5" y1="64" x2="157" y2="31" id="315" stroke="rgb(213,222,244)" stroke-width="1" fill="none" stroke-opacity="0.501961" />
<line x1="255" y1="42" x2="165" y2="33" id="316" stroke="rgb(207,217,237)" stroke-width="1" fill="none" stroke-opacity="0.501961" />
<line x1="255" y1="53" x2="191" y2="56" id="317" stroke="rgb(215,230,250)" stroke-width="1" fill="none" stroke-opacity="0.501961" />
<line x1="190" y1="79" x2="79" y2="75" id="318" stroke="rgb(204,217,240)" stroke-width="1" fill="none" stroke-opacity="0.501961" />
<line x1="186" y1="4" x2="250" y2="8" id="319" stroke="rgb(215,224,250)" stroke-width="1" fill="none" stroke-opacity="0.501961" />
<line x1="116" y1="89" x2="221" y2="85" id="320" stroke="rgb(75,87,108)" stroke-width="1" fill="none" stroke-opacity="0.501961" />
<line x1="131" y1="63" x2="229" y2="64" id="321" stroke="rgb(214,229,246)" stroke-width="1" fill="none" stroke-opacity="0.501961" />
<line x1="131" y1="103" x2="18" y2="119" id="322" stroke="rgb(80,92,110)" stroke-width="1" fill="none" stroke-opacity="0.501961" />
<line x1="255" y1="29" x2="95" y2="25" id="323" stroke="rgb(213,219,238)" stroke-width="1" fill="none" stroke-opacity="0.501961" />
<line x1="117" y1="113" x2="193" y2="127" id="324" stroke="rgb(87,95,112)" stroke-width="1" fill="none" stroke-opacity="0.501961" />
<line x1="106" y1="87" x2="230" y2="86" id="325" stroke="rgb(77,93,120)" stroke-width="1" fill="none" stroke-opacity="0.501961" />
<line x1="97" y1="169" x2="198" y2="142" id="326" stroke="rgb(86,93,112)" stroke-width="1" fill="none" stroke-opacity="0.501961" />
<line x1="138" y1="146" x2="251" y2="86" id="327" stroke="rgb(77,89,107)" stroke-width="1" fill="none" stroke-opacity="0.501961" />
<line x1="3" y1="121" x2="132" y2="107" id="328" stroke="rgb(81,92,110)" stroke-width="1" fill="none" stroke-opacity="0.501961" />
<line x1="186" y1="108" x2="70" y2="92" id="329" stroke="rgb(89,101,119)" stroke-width="1" fill="none" stroke-opacity="0.501961" />
<line x1="0" y1="46" x2="108" y2="64" id="330" stroke="rgb(212,226,250)" stroke-width="1" fill="none" stroke-opacity="0.501961" />
<line x1="0" y1="111" x2="59" y2="111" id="331" stroke="rgb(67,81,99)" stroke-width="1" fill="none" stroke-opacity="0.501961" />
<line x1="158" y1="92" x2="253" y2="106" id="332" stroke="rgb(83,98,117)" stroke-width="1" fill="none" stroke-opacity="0.501961" />
<line x1="163" y1="157" x2="32" y2="153" id="333" stroke="rgb(87,94,113)" stroke-width="1" fill="none" stroke-opacity="0.501961" />
<line x1="1" y1="84" x2="0" y2="9" id="334" stroke="rgb(207,218,246)" stroke-width="1" fill="none" stroke-opacity="0.501961" />
<line x1="52" y1="159" x2="221" y2="169" id="335" stroke="rgb(75,84,104)" stroke-width="1" fill="none" stroke-opacity="0.501961" />
<line x1="108" y1="72" x2="0" y2="79" id="336" stroke="rgb(202,215,245)" stroke-width="1" fill="none" stroke-opacity="0.501961" />
<line x1="255" y1="28" x2="103" y2="22" id="337" stroke="rgb(212,220,241)" stroke-width="1" fill="none" stroke-opacity="0.501961" />
<line x1="242" y1="82" x2="183" y2="83" id="338" stroke="rgb(209,226,251)" stroke-width="1" fill="none" stroke-opacity="0.501961" />
<line x1="145" y1="6" x2="3" y2="28" id="339" stroke="rgb(210,218,240)" stroke-width="1" fill="none" stroke-opacity="0.501961" />
<line x1="20" y1="114" x2="222" y2="85" id="340" stroke="rgb(96,110,131)" stroke-width="1" fill="none" stroke-opacity="0.501961" />
<line x1="10" y1="99" x2="124" y2="125" id="341" stroke="rgb(82,92,111)" stroke-width="1" fill="none" stroke-opacity="0.501961" />
<line x1="150" y1="167" x2="251" y2="153" id="342" stroke="rgb(79,90,107)" stroke-width="1" fill="none" stroke-opacity="0.501961" />
<line x1="121" y1="63" x2="255" y2="40" id="343" stroke="rgb(217,225,244)" stroke-width="1" fill="none" stroke-opacity="0.501961" />
<line x1="67" y1="134" x2="191" y2="143" id="344" stroke="rgb(86,93,111)" stroke-width="1" fill="none" stroke-opacity="0.501961" />
<line x1="19" y1="0" x2="189" y2="59" id="345" stroke="rgb(209,216,237)" stroke-width="1" fill="none" stroke-opacity="0.501961" />
<line x1="243" y1="115" x2="116" y2="142" id="346" stroke="rgb(89,100,116)" stroke-width="1" fill="none" stroke-opacity="0.501961" />
<line x1="253" y1="134" x2="112" y2="95" id="347" stroke="rgb(84,97,114)" stroke-width="1" fill="none" stroke-opacity="0.501961" />
<line x1="127" y1="154" x2="0" y2="136" id="348" stroke="rgb(78,88,108)" stroke-width="1" fill="none" stroke-opacity="0.501961" />
<line x1="255" y1="144" x2="145" y2="169" id="349" stroke="rgb(85,97,115)" stroke-width="1" fill="none" stroke-opacity="0.501961" />
<line x1="98" y1="4" x2="3" y2="2" id="350" stroke="rgb(213,218,240)" stroke-width="1" fill="none" stroke-opacity="0.501961" />
<line x1="20" y1="8" x2="124" y2="10" id="351" stroke="rgb(220,226,246)" stroke-width="1" fill="none" stroke-opacity="0.501961" />
<line x1="82" y1="54" x2="0" y2="43" id="352" stroke="rgb(211,225,244)" stroke-width="1" fill="none" stroke-opacity="0.501961" />
<line x1="255" y1="0" x2="105" y2="2" id="353" stroke="rgb(212,218,241)" stroke-width="1" fill="none" stroke-opacity="0.501961" />
<line x1="24" y1="80" x2="213" y2="10" id="354" stroke="rgb(203,211,233)" stroke-width="1" fill="none" stroke-opacity="0.501961" />
<line x1="249" y1="124" x2="159" y2="125" id="355" stroke="rgb(77,90,106)" stroke-width="1" fill="none" stroke-opacity="0.501961" />
<line x1="0" y1="58" x2="126" y2="70" id="356" stroke="rgb(208,222,246)" stroke-width="1" fill="none" stroke-opacity="0.501961" />
<line x1="141" y1="143" x2="43" y2="138" id="357" stroke="rgb(102,112,131)" stroke-width="1" fill="none" stroke-opacity="0.501961" />
<line x1="186" y1="72" x2="252" y2="72" id="358" stroke="rgb(217,231,255)" stroke-width="1" fill="none" stroke-opacity="0.501961" />
<line x1="74" y1="91" x2="171" y2="133" id="359" stroke="rgb(94,104,122)" stroke-width="1" fill="none" stroke-opacity="0.501961" />
<line x1="171" y1="53" x2="255" y2="45" id="360" stroke="rgb(214,225,243)" stroke-width="1" fill="none" stroke-opacity="0.501961" />
<line x1="2" y1="30" x2="92" y2="19" id="361" stroke="rgb(212,222,245)" stroke-width="1" fill="none" stroke-opacity="0.501961" />
<line x1="112" y1="71" x2="7" y2="49" id="362" stroke="rgb(203,216,240)" stroke-width="1" fill="none" stroke-opacity="0.501961" />
<line x1="31" y1="11" x2="194" y2="17" id="363" stroke="rgb(214,220,240)" stroke-width="1" fill="none" stroke-opacity="0.501961" />
<line x1="143" y1="42" x2="0" y2="41" id="364" stroke="rgb(211,218,238)" stroke-width="1" fill="none" stroke-opacity="0.501961" />
<line x1="0" y1="92" x2="62" y2="89" id="365" stroke="rgb(63,76,103)" stroke-width="1" fill="none" stroke-opacity="0.501961" />
<line x1="101" y1="112" x2="255" y2="111" id="366" stroke="rgb(87,99,115)" stroke-width="1" fill="none" stroke-opacity="0.501961" />
<line x1="154" y1="132" x2="16" y2="130" id="367" stroke="rgb(81,91,108)" stroke-width="1" fill="none" stroke-opacity="0.501961" />
<line x1="91" y1="25" x2="222" y2="21" id="368" stroke="rgb(211,220,239)" stroke-width="1" fill="none" stroke-opacity="0.501961" />
<line x1="78" y1="6" x2="3" y2="8" id="369" stroke="rgb(222,227,247)" stroke-width="1" fill="none" stroke-opacity="0.501961" />
<line x1="94" y1="56" x2="246" y2="21" id="370" stroke="rgb(218,223,242)" stroke-width="1" fill="none" stroke-opacity="0.501961" />
<line x1="255" y1="24" x2="110" y2="37" id="371" stroke="rgb(212,217,237)" stroke-width="1" fill="none" stroke-opacity="0.501961" />
<line x1="0" y1="123" x2="123" y2="115" id="372" stroke="rgb(79,89,108)" stroke-width="1" fill="none" stroke-opacity="0.501961" />
<line x1="7" y1="161" x2="77" y2="157" id="373" stroke="rgb(75,88,109)" stroke-width="1" fill="none" stroke-opacity="0.501961" />
</svg>