<svg xmlns="http://www.w3.org/2000/svg" width="256" height="170" baseProfile="tiny" version="1.2" viewBox="0 0 256 170"><rect id="0" width="256" height="170" x="0" y="0" fill="#919BAF" fill-opacity="1"/><line id="1" x1="143" x2="114" y1="94" y2="94" fill="none" stroke="#000" stroke-opacity=".502" stroke-width="1"/><line id="2" x1="166" x2="15" y1="69" y2="0" fill="none" stroke="#F2F9FF" stroke-opacity=".502" stroke-width="1"/><line id="3" x1="255" x2="160" y1="169" y2="164" fill="none" stroke="#00000E" stroke-opacity=".502" stroke-width="1"/><line id="4" x1="248" x2="113" y1="36" y2="55" fill="none" stroke="#F3FBFF" stroke-opacity=".502" stroke-width="1"/><line id="5" x1="107" x2="144" y1="93" y2="91" fill="none" stroke="#000" stroke-opacity=".502" stroke-width="1"/><line id="6" x1="151" x2="26" y1="139" y2="167" fill="none" stroke="#222A3D" stroke-opacity=".502" stroke-width="1"/><line id="7" x1="162" x2="34" y1="32" y2="36" fill="none" stroke="#FCFFFF" stroke-opacity=".502" stroke-width="1"/><line id="8" x1="191" x2="255" y1="169" y2="169" fill="none" stroke="#080F1E" stroke-opacity=".502" stroke-width="1"/><line id="9" x1="24" x2="100" y1="152" y2="141" fill="none" stroke="#131C2C" stroke-opacity=".502" stroke-width="1"/><line id="10" x1="105" x2="0" y1="164" y2="169" fill="none" stroke="#0F172A" stroke-opacity=".502" stroke-width="1"/><line id="11" x1="255" x2="164" y1="168" y2="162" fill="none" stroke="#121C2B" stroke-opacity=".502" stroke-width="1"/><line id="12" x1="252" x2="175" y1="167" y2="147" fill="none" stroke="#131C2B" stroke-opacity=".502" stroke-width="1"/><line id="13" x1="49" x2="255" y1="22" y2="58" fill="none" stroke="#F1F9FF" stroke-opacity=".502" stroke-width="1"/><line id="14" x1="21" x2="205" y1="36" y2="44" fill="none" stroke="#F6FAFF" stroke-opacity=".502" stroke-width="1"/><line id="15" x1="1" x2="193" y1="81" y2="22" fill="none" stroke="#E9F2FF" stroke-opacity=".502" stroke-width="1"/><line id="16" x1="94" x2="255" y1="53" y2="16" fill="none" stroke="#F8FCFF" stroke-opacity=".502" stroke-width="1"/><line id="17" x1="2" x2="76" y1="169" y2="153" fill="none" stroke="#0D1729" stroke-opacity=".502" stroke-width="1"/><line id="18" x1="82" x2="28" y1="169" y2="168" fill="none" stroke="#101628" stroke-opacity=".502" stroke-width="1"/><line id="19" x1="101" x2="255" y1="64" y2="38" fill="none" stroke="#F0F8FF" stroke-opacity=".502" stroke-width="1"/><line id="20" x1="120" x2="168" y1="91" y2="93" fill="none" stroke="#000514" stroke-opacity=".502" stroke-width="1"/><line id="21" x1="90" x2="239" y1="15" y2="18" fill="none" stroke="#F0F5FF" stroke-opacity=".502" stroke-width="1"/><line id="22" x1="95" x2="0" y1="154" y2="146" fill="none" stroke="#071121" stroke-opacity=".502" stroke-width="1"/><line id="23" x1="188" x2="84" y1="169" y2="169" fill="none" stroke="#23283A" stroke-opacity=".502" stroke-width="1"/><line id="24" x1="254" x2="118" y1="13" y2="31" fill="none" stroke="#F0F5FF" stroke-opacity=".502" stroke-width="1"/><line id="25" x1="1" x2="82" y1="155" y2="139" fill="none" stroke="#1E2A3B" stroke-opacity=".502" stroke-width="1"/><line id="26" x1="89" x2="166" y1="153" y2="157" fill="none" stroke="#0F1424" stroke-opacity=".502" stroke-width="1"/><line id="27" x1="124" x2="255" y1="52" y2="25" fill="none" stroke="#F6FBFF" stroke-opacity=".502" stroke-width="1"/><line id="28" x1="45" x2="207" y1="42" y2="39" fill="none" stroke="#F2F7FF" stroke-opacity=".502" stroke-width="1"/><line id="29" x1="222" x2="40" y1="23" y2="51" fill="none" stroke="#F1F8FF" stroke-opacity=".502" stroke-width="1"/><line id="30" x1="1" x2="136" y1="16" y2="1" fill="none" stroke="#F9FDFF" stroke-opacity=".502" stroke-width="1"/><line id="31" x1="30" x2="143" y1="18" y2="3" fill="none" stroke="#FAFEFF" stroke-opacity=".502" stroke-width="1"/><line id="32" x1="119" x2="255" y1="60" y2="36" fill="none" stroke="#F0F8FF" stroke-opacity=".502" stroke-width="1"/><line id="33" x1="85" x2="251" y1="55" y2="25" fill="none" stroke="#F2F7FF" stroke-opacity=".502" stroke-width="1"/><line id="34" x1="147" x2="0" y1="67" y2="67" fill="none" stroke="#DEEBFF" stroke-opacity=".502" stroke-width="1"/><line id="35" x1="160" x2="11" y1="2" y2="22" fill="none" stroke="#F4FAFF" stroke-opacity=".502" stroke-width="1"/><line id="36" x1="1" x2="9" y1="169" y2="84" fill="none" stroke="#222F44" stroke-opacity=".502" stroke-width="1"/><line id="37" x1="39" x2="198" y1="63" y2="52" fill="none" stroke="#E6F2FF" stroke-opacity=".502" stroke-width="1"/><line id="38" x1="117" x2="253" y1="63" y2="46" fill="none" stroke="#EBF8FF" stroke-opacity=".502" stroke-width="1"/><line id="39" x1="93" x2="0" y1="142" y2="168" fill="none" stroke="#273244" stroke-opacity=".502" stroke-width="1"/><line id="40" x1="0" x2="133" y1="34" y2="27" fill="none" stroke="#F1F6FF" stroke-opacity=".502" stroke-width="1"/><line id="41" x1="190" x2="79" y1="32" y2="48" fill="none" stroke="#EEF3FF" stroke-opacity=".502" stroke-width="1"/><line id="42" x1="210" x2="255" y1="152" y2="167" fill="none" stroke="#05101E" stroke-opacity=".502" stroke-width="1"/><line id="43" x1="109" x2="243" y1="8" y2="35" fill="none" stroke="#EDF2FF" stroke-opacity=".502" stroke-width="1"/><line id="44" x1="46" x2="201" y1="59" y2="26" fill="none" stroke="#EBF2FF" stroke-opacity=".502" stroke-width="1"/><line id="45" x1="167" x2="255" y1="161" y2="165" fill="none" stroke="#131D2C" stroke-opacity=".502" stroke-width="1"/><line id="46" x1="165" x2="1" y1="73" y2="55" fill="none" stroke="#DFEDFF" stroke-opacity=".502" stroke-width="1"/><line id="47" x1="183" x2="0" y1="17" y2="55" fill="none" stroke="#EAF2FF" stroke-opacity=".502" stroke-width="1"/><line id="48" x1="255" x2="187" y1="138" y2="132" fill="none" stroke="#061120" stroke-opacity=".502" stroke-width="1"/><line id="49" x1="57" x2="181" y1="4" y2="14" fill="none" stroke="#F0F5FF" stroke-opacity=".502" stroke-width="1"/><line id="50" x1="224" x2="132" y1="150" y2="152" fill="none" stroke="#2D3648" stroke-opacity=".502" stroke-width="1"/><line id="51" x1="0" x2="76" y1="166" y2="164" fill="none" stroke="#141D2E" stroke-opacity=".502" stroke-width="1"/><line id="52" x1="81" x2="0" y1="168" y2="165" fill="none" stroke="#0E1729" stroke-opacity=".502" stroke-width="1"/><line id="53" x1="255" x2="172" y1="161" y2="161" fill="none" stroke="#1A2433" stroke-opacity=".502" stroke-width="1"/><line id="54" x1="26" x2="140" y1="39" y2="34" fill="none" stroke="#F5FAFF" stroke-opacity=".502" stroke-width="1"/><line id="55" x1="45" x2="154" y1="19" y2="6" fill="none" stroke="#F4F9FF" stroke-opacity=".502" stroke-width="1"/><line id="56" x1="169" x2="4" y1="66" y2="39" fill="none" stroke="#E6F3FF" stroke-opacity=".502" stroke-width="1"/><line id="57" x1="0" x2="149" y1="143" y2="137" fill="none" stroke="#343E50" stroke-opacity=".502" stroke-width="1"/><line id="58" x1="0" x2="99" y1="169" y2="143" fill="none" stroke="#253041" stroke-opacity=".502" stroke-width="1"/><line id="59" x1="255" x2="163" y1="158" y2="169" fill="none" stroke="#2C3647" stroke-opacity=".502" stroke-width="1"/><line id="60" x1="133" x2="0" y1="169" y2="157" fill="none" stroke="#323A4E" stroke-opacity=".502" stroke-width="1"/><line id="61" x1="179" x2="242" y1="143" y2="143" fill="none" stroke="#182231" stroke-opacity=".502" stroke-width="1"/><line id="62" x1="255" x2="181" y1="162" y2="169" fill="none" stroke="#161F2E" stroke-opacity=".502" stroke-width="1"/><line id="63" x1="87" x2="244" y1="168" y2="159" fill="none" stroke="#31384A" stroke-opacity=".502" stroke-width="1"/><line id="64" x1="119" x2="171" y1="93" y2="94" fill="none" stroke="#00000A" stroke-opacity=".502" stroke-width="1"/><line id="65" x1="51" x2="5" y1="89" y2="169" fill="none" stroke="#303B4F" stroke-opacity=".502" stroke-width="1"/><line id="66" x1="77" x2="0" y1="120" y2="127" fill="none" stroke="#242F3F" stroke-opacity=".502" stroke-width="1"/><line id="67" x1="252" x2="143" y1="19" y2="43" fill="none" stroke="#F6FBFF" stroke-opacity=".502" stroke-width="1"/><line id="68" x1="17" x2="116" y1="153" y2="155" fill="none" stroke="#283043" stroke-opacity=".502" stroke-width="1"/><line id="69" x1="0" x2="121" y1="87" y2="89" fill="none" stroke="#2B3757" stroke-opacity=".502" stroke-width="1"/><line id="70" x1="0" x2="149" y1="0" y2="22" fill="none" stroke="#E9F0FF" stroke-opacity=".502" stroke-width="1"/><line id="71" x1="235" x2="143" y1="20" y2="31" fill="none" stroke="#F3F7FF" stroke-opacity=".502" stroke-width="1"/><line id="72" x1="247" x2="118" y1="66" y2="36" fill="none" stroke="#E8F1FF" stroke-opacity=".502" stroke-width="1"/><line id="73" x1="89" x2="225" y1="69" y2="67" fill="none" stroke="#E2F0FF" stroke-opacity=".502" stroke-width="1"/><line id="74" x1="3" x2="0" y1="84" y2="168" fill="none" stroke="#243146" stroke-opacity=".502" stroke-width="1"/><line id="75" x1="0" x2="120" y1="160" y2="120" fill="none" stroke="#374152" stroke-opacity=".502" stroke-width="1"/><line id="76" x1="168" x2="1" y1="153" y2="165" fill="none" stroke="#3A4356" stroke-opacity=".502" stroke-width="1"/><line id="77" x1="255" x2="255" y1="85" y2="158" fill="none" stroke="#2C3A4D" stroke-opacity=".502" stroke-width="1"/><line id="78" x1="255" x2="172" y1="162" y2="164" fill="none" stroke="#1C2535" stroke-opacity=".502" stroke-width="1"/><line id="79" x1="227" x2="138" y1="90" y2="90" fill="none" stroke="#313D54" stroke-opacity=".502" stroke-width="1"/><line id="80" x1="129" x2="0" y1="154" y2="156" fill="none" stroke="#30394D" stroke-opacity=".502" stroke-width="1"/><line id="81" x1="111" x2="0" y1="42" y2="44" fill="none" stroke="#EAF2FF" stroke-opacity=".502" stroke-width="1"/><line id="82" x1="102" x2="0" y1="124" y2="159" fill="none" stroke="#333E4F" stroke-opacity=".502" stroke-width="1"/><line id="83" x1="113" x2="7" y1="14" y2="0" fill="none" stroke="#EEF3FF" stroke-opacity=".502" stroke-width="1"/><line id="84" x1="243" x2="94" y1="0" y2="0" fill="none" stroke="#EAEFFF" stroke-opacity=".502" stroke-width="1"/><line id="85" x1="14" x2="4" y1="88" y2="169" fill="none" stroke="#2B394C" stroke-opacity=".502" stroke-width="1"/><line id="86" x1="15" x2="10" y1="86" y2="169" fill="none" stroke="#303D51" stroke-opacity=".502" stroke-width="1"/><line id="87" x1="135" x2="0" y1="153" y2="149" fill="none" stroke="#333C4D" stroke-opacity=".502" stroke-width="1"/><line id="88" x1="24" x2="144" y1="17" y2="34" fill="none" stroke="#E6EEFF" stroke-opacity=".502" stroke-width="1"/><line id="89" x1="228" x2="136" y1="15" y2="9" fill="none" stroke="#EEF2FF" stroke-opacity=".502" stroke-width="1"/><line id="90" x1="255" x2="244" y1="169" y2="84" fill="none" stroke="#2F3C4F" stroke-opacity=".502" stroke-width="1"/><line id="91" x1="0" x2="86" y1="88" y2="91" fill="none" stroke="#2A3657" stroke-opacity=".502" stroke-width="1"/><line id="92" x1="247" x2="121" y1="153" y2="169" fill="none" stroke="#2F394A" stroke-opacity=".502" stroke-width="1"/><line id="93" x1="255" x2="188" y1="145" y2="143" fill="none" stroke="#1A2433" stroke-opacity=".502" stroke-width="1"/><line id="94" x1="34" x2="180" y1="29" y2="2" fill="none" stroke="#E3EAFF" stroke-opacity=".502" stroke-width="1"/><line id="95" x1="171" x2="255" y1="153" y2="156" fill="none" stroke="#2B3445" stroke-opacity=".502" stroke-width="1"/><line id="96" x1="154" x2="7" y1="23" y2="10" fill="none" stroke="#E7EEFF" stroke-opacity=".502" stroke-width="1"/><line id="97" x1="72" x2="2" y1="134" y2="135" fill="none" stroke="#263242" stroke-opacity=".502" stroke-width="1"/><line id="98" x1="114" x2="0" y1="114" y2="141" fill="none" stroke="#394254" stroke-opacity=".502" stroke-width="1"/><line id="99" x1="146" x2="252" y1="134" y2="128" fill="none" stroke="#303D4D" stroke-opacity=".502" stroke-width="1"/><line id="100" x1="238" x2="98" y1="39" y2="58" fill="none" stroke="#EAF2FF" stroke-opacity=".502" stroke-width="1"/><line id="101" x1="121" x2="255" y1="62" y2="39" fill="none" stroke="#EAF2FF" stroke-opacity=".502" stroke-width="1"/><line id="102" x1="201" x2="0" y1="69" y2="2" fill="none" stroke="#E1E9FE" stroke-opacity=".502" stroke-width="1"/><line id="103" x1="138" x2="0" y1="67" y2="45" fill="none" stroke="#E4F2FF" stroke-opacity=".502" stroke-width="1"/><line id="104" x1="57" x2="226" y1="65" y2="60" fill="none" stroke="#DEEDFF" stroke-opacity=".502" stroke-width="1"/><line id="105" x1="7" x2="158" y1="0" y2="5" fill="none" stroke="#EAEEFF" stroke-opacity=".502" stroke-width="1"/><line id="106" x1="121" x2="29" y1="144" y2="139" fill="none" stroke="#3C4658" stroke-opacity=".502" stroke-width="1"/><line id="107" x1="12" x2="48" y1="169" y2="169" fill="none" stroke="#1B2032" stroke-opacity=".502" stroke-width="1"/><line id="108" x1="218" x2="47" y1="0" y2="40" fill="none" stroke="#E1E9FF" stroke-opacity=".502" stroke-width="1"/><line id="109" x1="252" x2="136" y1="34" y2="0" fill="none" stroke="#E6EAFE" stroke-opacity=".502" stroke-width="1"/><line id="110" x1="119" x2="224" y1="63" y2="55" fill="none" stroke="#E3F2FF" stroke-opacity=".502" stroke-width="1"/><line id="111" x1="118" x2="43" y1="5" y2="14" fill="none" stroke="#F9FDFF" stroke-opacity=".502" stroke-width="1"/><line id="112" x1="183" x2="247" y1="131" y2="135" fill="none" stroke="#1C2937" stroke-opacity=".502" stroke-width="1"/><line id="113" x1="137" x2="242" y1="144" y2="157" fill="none" stroke="#384254" stroke-opacity=".502" stroke-width="1"/><line id="114" x1="171" x2="9" y1="154" y2="145" fill="none" stroke="#414A5D" stroke-opacity=".502" stroke-width="1"/><line id="115" x1="150" x2="11" y1="26" y2="38" fill="none" stroke="#EAEFFF" stroke-opacity=".502" stroke-width="1"/><line id="116" x1="138" x2="57" y1="42" y2="53" fill="none" stroke="#EFF4FF" stroke-opacity=".502" stroke-width="1"/><line id="117" x1="148" x2="255" y1="145" y2="169" fill="none" stroke="#323A4B" stroke-opacity=".502" stroke-width="1"/><line id="118" x1="79" x2="6" y1="132" y2="134" fill="none" stroke="#374252" stroke-opacity=".502" stroke-width="1"/><line id="119" x1="6" x2="77" y1="136" y2="135" fill="none" stroke="#2D3547" stroke-opacity=".502" stroke-width="1"/><line id="120" x1="229" x2="103" y1="120" y2="166" fill="none" stroke="#3E4758" stroke-opacity=".502" stroke-width="1"/><line id="121" x1="95" x2="160" y1="91" y2="88" fill="none" stroke="#2F333F" stroke-opacity=".502" stroke-width="1"/><line id="122" x1="247" x2="255" y1="169" y2="90" fill="none" stroke="#374457" stroke-opacity=".502" stroke-width="1"/><line id="123" x1="243" x2="121" y1="46" y2="45" fill="none" stroke="#E7EDFF" stroke-opacity=".502" stroke-width="1"/><line id="124" x1="19" x2="194" y1="64" y2="0" fill="none" stroke="#DEE7FD" stroke-opacity=".502" stroke-width="1"/><line id="125" x1="113" x2="237" y1="53" y2="24" fill="none" stroke="#ECF1FF" stroke-opacity=".502" stroke-width="1"/><line id="126" x1="88" x2="221" y1="77" y2="56" fill="none" stroke="#DDECFF" stroke-opacity=".502" stroke-width="1"/><line id="127" x1="37" x2="161" y1="16" y2="35" fill="none" stroke="#E1E8FE" stroke-opacity=".502" stroke-width="1"/><line id="128" x1="4" x2="145" y1="128" y2="114" fill="none" stroke="#40485A" stroke-opacity=".502" stroke-width="1"/><line id="129" x1="255" x2="132" y1="157" y2="164" fill="none" stroke="#333C4D" stroke-opacity=".502" stroke-width="1"/><line id="130" x1="154" x2="10" y1="81" y2="79" fill="none" stroke="#D5E3FF" stroke-opacity=".502" stroke-width="1"/><line id="131" x1="204" x2="52" y1="33" y2="68" fill="none" stroke="#E0E8FD" stroke-opacity=".502" stroke-width="1"/><line id="132" x1="0" x2="128" y1="29" y2="13" fill="none" stroke="#DFE7FC" stroke-opacity=".502" stroke-width="1"/><line id="133" x1="22" x2="120" y1="90" y2="96" fill="none" stroke="#3A4861" stroke-opacity=".502" stroke-width="1"/><line id="134" x1="199" x2="93" y1="139" y2="130" fill="none" stroke="#4A5263" stroke-opacity=".502" stroke-width="1"/><line id="135" x1="225" x2="250" y1="88" y2="158" fill="none" stroke="#3B495B" stroke-opacity=".502" stroke-width="1"/><line id="136" x1="222" x2="115" y1="81" y2="73" fill="none" stroke="#DCEAFF" stroke-opacity=".502" stroke-width="1"/><line id="137" x1="147" x2="255" y1="127" y2="112" fill="none" stroke="#425060" stroke-opacity=".502" stroke-width="1"/><line id="138" x1="251" x2="111" y1="66" y2="17" fill="none" stroke="#DCE6FB" stroke-opacity=".502" stroke-width="1"/><line id="139" x1="133" x2="249" y1="153" y2="89" fill="none" stroke="#445061" stroke-opacity=".502" stroke-width="1"/><line id="140" x1="1" x2="68" y1="90" y2="95" fill="none" stroke="#2F3D56" stroke-opacity=".502" stroke-width="1"/><line id="141" x1="99" x2="9" y1="0" y2="3" fill="none" stroke="#E3E7FE" stroke-opacity=".502" stroke-width="1"/><line id="142" x1="141" x2="255" y1="107" y2="109" fill="none" stroke="#394756" stroke-opacity=".502" stroke-width="1"/><line id="143" x1="80" x2="166" y1="74" y2="71" fill="none" stroke="#DBE9FF" stroke-opacity=".502" stroke-width="1"/><line id="144" x1="0" x2="0" y1="95" y2="149" fill="none" stroke="#2E3A4F" stroke-opacity=".502" stroke-width="1"/><line id="145" x1="126" x2="209" y1="168" y2="168" fill="none" stroke="#252B3D" stroke-opacity=".502" stroke-width="1"/><line id="146" x1="140" x2="255" y1="137" y2="150" fill="none" stroke="#485162" stroke-opacity=".502" stroke-width="1"/><line id="147" x1="164" x2="250" y1="18" y2="21" fill="none" stroke="#E8EDFF" stroke-opacity=".502" stroke-width="1"/><line id="148" x1="3" x2="0" y1="169" y2="86" fill="none" stroke="#2E3B50" stroke-opacity=".502" stroke-width="1"/><line id="149" x1="0" x2="162" y1="86" y2="89" fill="none" stroke="#3D4A66" stroke-opacity=".502" stroke-width="1"/><line id="150" x1="120" x2="0" y1="78" y2="18" fill="none" stroke="#DDE6FC" stroke-opacity=".502" stroke-width="1"/><line id="151" x1="241" x2="157" y1="65" y2="66" fill="none" stroke="#DCEBFF" stroke-opacity=".502" stroke-width="1"/><line id="152" x1="75" x2="226" y1="14" y2="39" fill="none" stroke="#DCE4F9" stroke-opacity=".502" stroke-width="1"/><line id="153" x1="198" x2="2" y1="15" y2="9" fill="none" stroke="#E4E9FD" stroke-opacity=".502" stroke-width="1"/><line id="154" x1="4" x2="185" y1="56" y2="23" fill="none" stroke="#E6EEFF" stroke-opacity=".502" stroke-width="1"/><line id="155" x1="246" x2="115" y1="7" y2="34" fill="none" stroke="#E2E8FD" stroke-opacity=".502" stroke-width="1"/><line id="156" x1="202" x2="96" y1="151" y2="137" fill="none" stroke="#434A5C" stroke-opacity=".502" stroke-width="1"/><line id="157" x1="27" x2="122" y1="6" y2="0" fill="none" stroke="#E7ECFF" stroke-opacity=".502" stroke-width="1"/><line id="158" x1="188" x2="53" y1="2" y2="29" fill="none" stroke="#DDE5FB" stroke-opacity=".502" stroke-width="1"/><line id="159" x1="1" x2="106" y1="44" y2="37" fill="none" stroke="#E6EEFF" stroke-opacity=".502" stroke-width="1"/><line id="160" x1="252" x2="133" y1="81" y2="80" fill="none" stroke="#D5E3FB" stroke-opacity=".502" stroke-width="1"/><line id="161" x1="129" x2="6" y1="54" y2="8" fill="none" stroke="#DCE3F8" stroke-opacity=".502" stroke-width="1"/><line id="162" x1="183" x2="31" y1="28" y2="49" fill="none" stroke="#DEE6F9" stroke-opacity=".502" stroke-width="1"/><line id="163" x1="149" x2="255" y1="73" y2="68" fill="none" stroke="#DDEBFF" stroke-opacity=".502" stroke-width="1"/><line id="164" x1="18" x2="36" y1="85" y2="165" fill="none" stroke="#3A475B" stroke-opacity=".502" stroke-width="1"/><line id="165" x1="213" x2="132" y1="147" y2="154" fill="none" stroke="#363F4F" stroke-opacity=".502" stroke-width="1"/><line id="166" x1="254" x2="242" y1="169" y2="85" fill="none" stroke="#3A465A" stroke-opacity=".502" stroke-width="1"/><line id="167" x1="2" x2="122" y1="150" y2="144" fill="none" stroke="#3E4759" stroke-opacity=".502" stroke-width="1"/><line id="168" x1="6" x2="18" y1="86" y2="168" fill="none" stroke="#3A475C" stroke-opacity=".502" stroke-width="1"/><line id="169" x1="0" x2="124" y1="91" y2="100" fill="none" stroke="#435168" stroke-opacity=".502" stroke-width="1"/><line id="170" x1="255" x2="157" y1="129" y2="150" fill="none" stroke="#434D5D" stroke-opacity=".502" stroke-width="1"/><line id="171" x1="0" x2="72" y1="32" y2="28" fill="none" stroke="#EBF1FF" stroke-opacity=".502" stroke-width="1"/><line id="172" x1="0" x2="93" y1="125" y2="118" fill="none" stroke="#3A4556" stroke-opacity=".502" stroke-width="1"/><line id="173" x1="245" x2="146" y1="60" y2="66" fill="none" stroke="#DBEAFC" stroke-opacity=".502" stroke-width="1"/><line id="174" x1="129" x2="1" y1="62" y2="44" fill="none" stroke="#DDECFE" stroke-opacity=".502" stroke-width="1"/><line id="175" x1="118" x2="180" y1="95" y2="94" fill="none" stroke="#434B60" stroke-opacity=".502" stroke-width="1"/><line id="176" x1="228" x2="169" y1="120" y2="114" fill="none" stroke="#354251" stroke-opacity=".502" stroke-width="1"/><line id="177" x1="253" x2="151" y1="68" y2="69" fill="none" stroke="#DAE8FF" stroke-opacity=".502" stroke-width="1"/><line id="178" x1="0" x2="111" y1="68" y2="71" fill="none" stroke="#D9E6FF" stroke-opacity=".502" stroke-width="1"/><line id="179" x1="244" x2="140" y1="38" y2="44" fill="none" stroke="#E0E7FD" stroke-opacity=".502" stroke-width="1"/><line id="180" x1="77" x2="0" y1="102" y2="92" fill="none" stroke="#3B495F" stroke-opacity=".502" stroke-width="1"/><line id="181" x1="242" x2="133" y1="96" y2="130" fill="none" stroke="#485464" stroke-opacity=".502" stroke-width="1"/><line id="182" x1="255" x2="126" y1="13" y2="0" fill="none" stroke="#DAE1F9" stroke-opacity=".502" stroke-width="1"/><line id="183" x1="25" x2="173" y1="45" y2="57" fill="none" stroke="#DCE4F7" stroke-opacity=".502" stroke-width="1"/><line id="184" x1="72" x2="28" y1="162" y2="164" fill="none" stroke="#161D2F" stroke-opacity=".502" stroke-width="1"/><line id="185" x1="255" x2="168" y1="91" y2="91" fill="none" stroke="#37455D" stroke-opacity=".502" stroke-width="1"/><line id="186" x1="116" x2="225" y1="153" y2="135" fill="none" stroke="#41495B" stroke-opacity=".502" stroke-width="1"/><line id="187" x1="149" x2="40" y1="129" y2="129" fill="none" stroke="#4F5668" stroke-opacity=".502" stroke-width="1"/><line id="188" x1="255" x2="139" y1="35" y2="55" fill="none" stroke="#D9E2F7" stroke-opacity=".502" stroke-width="1"/><line id="189" x1="163" x2="0" y1="19" y2="31" fill="none" stroke="#D7E2F8" stroke-opacity=".502" stroke-width="1"/><line id="190" x1="245" x2="155" y1="135" y2="135" fill="none" stroke="#465061" stroke-opacity=".502" stroke-width="1"/><line id="191" x1="21" x2="121" y1="143" y2="144" fill="none" stroke="#3E495A" stroke-opacity=".502" stroke-width="1"/><line id="192" x1="111" x2="224" y1="75" y2="73" fill="none" stroke="#DCEAFF" stroke-opacity=".502" stroke-width="1"/><line id="193" x1="23" x2="110" y1="116" y2="117" fill="none" stroke="#434B5C" stroke-opacity=".502" stroke-width="1"/><line id="194" x1="1" x2="78" y1="10" y2="7" fill="none" stroke="#E8EDFF" stroke-opacity=".502" stroke-width="1"/><line id="195" x1="255" x2="161" y1="167" y2="160" fill="none" stroke="#424C5D" stroke-opacity=".502" stroke-width="1"/><line id="196" x1="144" x2="10" y1="122" y2="89" fill="none" stroke="#4F5A6E" stroke-opacity=".502" stroke-width="1"/><line id="197" x1="66" x2="190" y1="144" y2="133" fill="none" stroke="#485062" stroke-opacity=".502" stroke-width="1"/><line id="198" x1="119" x2="1" y1="45" y2="69" fill="none" stroke="#DBE6FE" stroke-opacity=".502" stroke-width="1"/><line id="199" x1="0" x2="100" y1="95" y2="118" fill="none" stroke="#434F62" stroke-opacity=".502" stroke-width="1"/><line id="200" x1="118" x2="237" y1="88" y2="89" fill="none" stroke="#495468" stroke-opacity=".502" stroke-width="1"/><line id="201" x1="137" x2="247" y1="38" y2="24" fill="none" stroke="#E1E6FA" stroke-opacity=".502" stroke-width="1"/><line id="202" x1="255" x2="119" y1="41" y2="15" fill="none" stroke="#DCE5FA" stroke-opacity=".502" stroke-width="1"/><line id="203" x1="255" x2="175" y1="95" y2="118" fill="none" stroke="#414F60" stroke-opacity=".502" stroke-width="1"/><line id="204" x1="21" x2="107" y1="66" y2="60" fill="none" stroke="#DBE9FF" stroke-opacity=".502" stroke-width="1"/><line id="205" x1="96" x2="2" y1="71" y2="70" fill="none" stroke="#D6E3FF" stroke-opacity=".502" stroke-width="1"/><line id="206" x1="251" x2="163" y1="32" y2="2" fill="none" stroke="#DFE4F8" stroke-opacity=".502" stroke-width="1"/><line id="207" x1="4" x2="129" y1="162" y2="169" fill="none" stroke="#434C60" stroke-opacity=".502" stroke-width="1"/><line id="208" x1="64" x2="191" y1="155" y2="169" fill="none" stroke="#495165" stroke-opacity=".502" stroke-width="1"/><line id="209" x1="137" x2="28" y1="6" y2="21" fill="none" stroke="#E1E7FC" stroke-opacity=".502" stroke-width="1"/><line id="210" x1="21" x2="172" y1="41" y2="27" fill="none" stroke="#E0E5F9" stroke-opacity=".502" stroke-width="1"/><line id="211" x1="255" x2="144" y1="154" y2="120" fill="none" stroke="#434D5E" stroke-opacity=".502" stroke-width="1"/><line id="212" x1="4" x2="102" y1="129" y2="119" fill="none" stroke="#404A5C" stroke-opacity=".502" stroke-width="1"/><line id="213" x1="253" x2="252" y1="147" y2="84" fill="none" stroke="#3B485D" stroke-opacity=".502" stroke-width="1"/><line id="214" x1="102" x2="2" y1="104" y2="106" fill="none" stroke="#3B495A" stroke-opacity=".502" stroke-width="1"/><line id="215" x1="195" x2="255" y1="91" y2="168" fill="none" stroke="#445162" stroke-opacity=".502" stroke-width="1"/><line id="216" x1="239" x2="241" y1="169" y2="89" fill="none" stroke="#3C4A5B" stroke-opacity=".502" stroke-width="1"/><line id="217" x1="250" x2="201" y1="142" y2="142" fill="none" stroke="#364453" stroke-opacity=".502" stroke-width="1"/><line id="218" x1="147" x2="249" y1="60" y2="50" fill="none" stroke="#E6F3FF" stroke-opacity=".502" stroke-width="1"/><line id="219" x1="193" x2="119" y1="75" y2="79" fill="none" stroke="#DCE9FF" stroke-opacity=".502" stroke-width="1"/><line id="220" x1="255" x2="127" y1="88" y2="101" fill="none" stroke="#4B596E" stroke-opacity=".502" stroke-width="1"/><line id="221" x1="255" x2="103" y1="42" y2="66" fill="none" stroke="#D9E4F7" stroke-opacity=".502" stroke-width="1"/><line id="222" x1="79" x2="26" y1="0" y2="0" fill="none" stroke="#EAEDFF" stroke-opacity=".502" stroke-width="1"/><line id="223" x1="53" x2="237" y1="52" y2="80" fill="none" stroke="#D5E3F8" stroke-opacity=".502" stroke-width="1"/><line id="224" x1="28" x2="104" y1="155" y2="151" fill="none" stroke="#455163" stroke-opacity=".502" stroke-width="1"/><line id="225" x1="18" x2="17" y1="88" y2="169" fill="none" stroke="#3E4A60" stroke-opacity=".502" stroke-width="1"/><line id="226" x1="149" x2="255" y1="93" y2="94" fill="none" stroke="#505E76" stroke-opacity=".502" stroke-width="1"/><line id="227" x1="99" x2="3" y1="146" y2="161" fill="none" stroke="#4A5569" stroke-opacity=".502" stroke-width="1"/><line id="228" x1="141" x2="8" y1="148" y2="144" fill="none" stroke="#4A5468" stroke-opacity=".502" stroke-width="1"/><line id="229" x1="116" x2="153" y1="93" y2="96" fill="none" stroke="#030813" stroke-opacity=".502" stroke-width="1"/><line id="230" x1="88" x2="255" y1="0" y2="4" fill="none" stroke="#D9E0F6" stroke-opacity=".502" stroke-width="1"/><line id="231" x1="255" x2="155" y1="18" y2="5" fill="none" stroke="#E3E7FD" stroke-opacity=".502" stroke-width="1"/><line id="232" x1="0" x2="123" y1="35" y2="82" fill="none" stroke="#D0DEF5" stroke-opacity=".502" stroke-width="1"/><line id="233" x1="132" x2="255" y1="51" y2="33" fill="none" stroke="#E7EEFF" stroke-opacity=".502" stroke-width="1"/><line id="234" x1="44" x2="121" y1="166" y2="165" fill="none" stroke="#616B7F" stroke-opacity=".502" stroke-width="1"/><line id="235" x1="203" x2="47" y1="38" y2="39" fill="none" stroke="#D6DCF1" stroke-opacity=".502" stroke-width="1"/><line id="236" x1="13" x2="127" y1="32" y2="27" fill="none" stroke="#E0E5F8" stroke-opacity=".502" stroke-width="1"/><line id="237" x1="60" x2="136" y1="6" y2="4" fill="none" stroke="#E3E9FD" stroke-opacity=".502" stroke-width="1"/><line id="238" x1="14" x2="149" y1="24" y2="9" fill="none" stroke="#DFE6FB" stroke-opacity=".502" stroke-width="1"/><line id="239" x1="49" x2="168" y1="11" y2="0" fill="none" stroke="#DBE1F5" stroke-opacity=".502" stroke-width="1"/><line id="240" x1="0" x2="122" y1="51" y2="66" fill="none" stroke="#D9E7FF" stroke-opacity=".502" stroke-width="1"/><line id="241" x1="188" x2="255" y1="153" y2="155" fill="none" stroke="#384353" stroke-opacity=".502" stroke-width="1"/><line id="242" x1="3" x2="80" y1="111" y2="121" fill="none" stroke="#3C4758" stroke-opacity=".502" stroke-width="1"/><line id="243" x1="236" x2="14" y1="19" y2="14" fill="none" stroke="#D6DCF1" stroke-opacity=".502" stroke-width="1"/><line id="244" x1="255" x2="160" y1="163" y2="161" fill="none" stroke="#4E5869" stroke-opacity=".502" stroke-width="1"/><line id="245" x1="112" x2="22" y1="78" y2="71" fill="none" stroke="#D7E5FF" stroke-opacity=".502" stroke-width="1"/><line id="246" x1="135" x2="12" y1="35" y2="60" fill="none" stroke="#DCE6FB" stroke-opacity=".502" stroke-width="1"/><line id="247" x1="82" x2="176" y1="24" y2="7" fill="none" stroke="#D7E0F5" stroke-opacity=".502" stroke-width="1"/><line id="248" x1="99" x2="0" y1="140" y2="166" fill="none" stroke="#445063" stroke-opacity=".502" stroke-width="1"/><line id="249" x1="204" x2="122" y1="58" y2="63" fill="none" stroke="#D8E7F6" stroke-opacity=".502" stroke-width="1"/><line id="250" x1="145" x2="68" y1="137" y2="138" fill="none" stroke="#4C5365" stroke-opacity=".502" stroke-width="1"/><line id="251" x1="234" x2="135" y1="119" y2="140" fill="none" stroke="#485363" stroke-opacity=".502" stroke-width="1"/><line id="252" x1="255" x2="122" y1="54" y2="66" fill="none" stroke="#D6E5F7" stroke-opacity=".502" stroke-width="1"/><line id="253" x1="67" x2="6" y1="32" y2="35" fill="none" stroke="#EFF5FF" stroke-opacity=".502" stroke-width="1"/><line id="254" x1="0" x2="92" y1="96" y2="87" fill="none" stroke="#4A5671" stroke-opacity=".502" stroke-width="1"/><line id="255" x1="106" x2="0" y1="128" y2="133" fill="none" stroke="#4C5668" stroke-opacity=".502" stroke-width="1"/><line id="256" x1="80" x2="147" y1="92" y2="91" fill="none" stroke="#182030" stroke-opacity=".502" stroke-width="1"/><line id="257" x1="5" x2="94" y1="105" y2="107" fill="none" stroke="#485567" stroke-opacity=".502" stroke-width="1"/><line id="258" x1="7" x2="3" y1="169" y2="97" fill="none" stroke="#384558" stroke-opacity=".502" stroke-width="1"/><line id="259" x1="145" x2="255" y1="84" y2="75" fill="none" stroke="#CFDDF6" stroke-opacity=".502" stroke-width="1"/><line id="260" x1="125" x2="50" y1="162" y2="164" fill="none" stroke="#444D62" stroke-opacity=".502" stroke-width="1"/><line id="261" x1="153" x2="255" y1="58" y2="48" fill="none" stroke="#D7E2F6" stroke-opacity=".502" stroke-width="1"/><line id="262" x1="37" x2="165" y1="164" y2="108" fill="none" stroke="#525A6C" stroke-opacity=".502" stroke-width="1"/><line id="263" x1="255" x2="187" y1="139" y2="133" fill="none" stroke="#353F4F" stroke-opacity=".502" stroke-width="1"/><line id="264" x1="34" x2="113" y1="128" y2="128" fill="none" stroke="#434B5D" stroke-opacity=".502" stroke-width="1"/><line id="265" x1="133" x2="255" y1="104" y2="101" fill="none" stroke="#4F5E6E" stroke-opacity=".502" stroke-width="1"/><line id="266" x1="0" x2="1" y1="82" y2="4" fill="none" stroke="#D4DEFA" stroke-opacity=".502" stroke-width="1"/><line id="267" x1="245" x2="89" y1="144" y2="131" fill="none" stroke="#4A5364" stroke-opacity=".502" stroke-width="1"/><line id="268" x1="74" x2="0" y1="115" y2="115" fill="none" stroke="#414C5E" stroke-opacity=".502" stroke-width="1"/><line id="269" x1="245" x2="148" y1="153" y2="151" fill="none" stroke="#495364" stroke-opacity=".502" stroke-width="1"/><line id="270" x1="141" x2="255" y1="158" y2="123" fill="none" stroke="#566072" stroke-opacity=".502" stroke-width="1"/><line id="271" x1="156" x2="255" y1="19" y2="0" fill="none" stroke="#D7DFF7" stroke-opacity=".502" stroke-width="1"/><line id="272" x1="132" x2="255" y1="141" y2="128" fill="none" stroke="#4C5666" stroke-opacity=".502" stroke-width="1"/><line id="273" x1="28" x2="138" y1="82" y2="52" fill="none" stroke="#D2DEF7" stroke-opacity=".502" stroke-width="1"/><line id="274" x1="116" x2="0" y1="45" y2="10" fill="none" stroke="#D8DFF4" stroke-opacity=".502" stroke-width="1"/><line id="275" x1="91" x2="0" y1="47" y2="21" fill="none" stroke="#DAE0F5" stroke-opacity=".502" stroke-width="1"/><line id="276" x1="92" x2="3" y1="77" y2="73" fill="none" stroke="#D1DEFD" stroke-opacity=".502" stroke-width="1"/><line id="277" x1="20" x2="110" y1="154" y2="156" fill="none" stroke="#42495E" stroke-opacity=".502" stroke-width="1"/><line id="278" x1="3" x2="92" y1="99" y2="88" fill="none" stroke="#45526C" stroke-opacity=".502" stroke-width="1"/><line id="279" x1="20" x2="147" y1="124" y2="138" fill="none" stroke="#4E5769" stroke-opacity=".502" stroke-width="1"/><line id="280" x1="149" x2="18" y1="96" y2="97" fill="none" stroke="#525F76" stroke-opacity=".502" stroke-width="1"/><line id="281" x1="184" x2="48" y1="81" y2="83" fill="none" stroke="#D4E1FC" stroke-opacity=".502" stroke-width="1"/><line id="282" x1="251" x2="176" y1="103" y2="104" fill="none" stroke="#425160" stroke-opacity=".502" stroke-width="1"/><line id="283" x1="51" x2="254" y1="27" y2="22" fill="none" stroke="#D8E0F3" stroke-opacity=".502" stroke-width="1"/><line id="284" x1="255" x2="140" y1="39" y2="18" fill="none" stroke="#DAE3F9" stroke-opacity=".502" stroke-width="1"/><line id="285" x1="122" x2="239" y1="9" y2="13" fill="none" stroke="#D3D7EE" stroke-opacity=".502" stroke-width="1"/><line id="286" x1="191" x2="16" y1="40" y2="65" fill="none" stroke="#D6DFF5" stroke-opacity=".502" stroke-width="1"/><line id="287" x1="197" x2="92" y1="166" y2="166" fill="none" stroke="#4A5165" stroke-opacity=".502" stroke-width="1"/><line id="288" x1="89" x2="0" y1="147" y2="155" fill="none" stroke="#465062" stroke-opacity=".502" stroke-width="1"/><line id="289" x1="6" x2="153" y1="36" y2="30" fill="none" stroke="#DCE2F6" stroke-opacity=".502" stroke-width="1"/><line id="290" x1="152" x2="254" y1="70" y2="71" fill="none" stroke="#DAE8FF" stroke-opacity=".502" stroke-width="1"/><line id="291" x1="255" x2="162" y1="35" y2="18" fill="none" stroke="#DFE5F9" stroke-opacity=".502" stroke-width="1"/><line id="292" x1="254" x2="120" y1="115" y2="130" fill="none" stroke="#515C6D" stroke-opacity=".502" stroke-width="1"/><line id="293" x1="23" x2="138" y1="80" y2="77" fill="none" stroke="#D3E0FC" stroke-opacity=".502" stroke-width="1"/><line id="294" x1="146" x2="115" y1="94" y2="92" fill="none" stroke="#000001" stroke-opacity=".502" stroke-width="1"/><line id="295" x1="135" x2="17" y1="160" y2="129" fill="none" stroke="#51586C" stroke-opacity=".502" stroke-width="1"/><line id="296" x1="115" x2="254" y1="147" y2="93" fill="none" stroke="#556072" stroke-opacity=".502" stroke-width="1"/><line id="297" x1="15" x2="109" y1="167" y2="165" fill="none" stroke="#555D72" stroke-opacity=".502" stroke-width="1"/><line id="298" x1="53" x2="152" y1="72" y2="73" fill="none" stroke="#D2DFF7" stroke-opacity=".502" stroke-width="1"/><line id="299" x1="255" x2="255" y1="80" y2="0" fill="none" stroke="#D4DFF7" stroke-opacity=".502" stroke-width="1"/><line id="300" x1="142" x2="5" y1="43" y2="85" fill="none" stroke="#CDD8F1" stroke-opacity=".502" stroke-width="1"/><line id="301" x1="2" x2="117" y1="17" y2="50" fill="none" stroke="#D6DDF4" stroke-opacity=".502" stroke-width="1"/><line id="302" x1="174" x2="255" y1="13" y2="18" fill="none" stroke="#DEE3F6" stroke-opacity=".502" stroke-width="1"/><line id="303" x1="127" x2="2" y1="22" y2="16" fill="none" stroke="#CFD7EE" stroke-opacity=".502" stroke-width="1"/><line id="304" x1="4" x2="9" y1="86" y2="169" fill="none" stroke="#424F63" stroke-opacity=".502" stroke-width="1"/><line id="305" x1="23" x2="192" y1="162" y2="130" fill="none" stroke="#505A6C" stroke-opacity=".502" stroke-width="1"/><line id="306" x1="115" x2="254" y1="106" y2="91" fill="none" stroke="#505E71" stroke-opacity=".502" stroke-width="1"/><line id="307" x1="225" x2="62" y1="100" y2="92" fill="none" stroke="#546176" stroke-opacity=".502" stroke-width="1"/><line id="308" x1="242" x2="146" y1="74" y2="75" fill="none" stroke="#D5E3FB" stroke-opacity=".502" stroke-width="1"/><line id="309" x1="129" x2="1" y1="3" y2="6" fill="none" stroke="#E1E5FB" stroke-opacity=".502" stroke-width="1"/><line id="310" x1="172" x2="255" y1="67" y2="50" fill="none" stroke="#D6E5F7" stroke-opacity=".502" stroke-width="1"/><line id="311" x1="253" x2="169" y1="115" y2="143" fill="none" stroke="#495565" stroke-opacity=".502" stroke-width="1"/><line id="312" x1="202" x2="55" y1="77" y2="82" fill="none" stroke="#D2E0F7" stroke-opacity=".502" stroke-width="1"/><line id="313" x1="115" x2="241" y1="0" y2="13" fill="none" stroke="#DBE0F7" stroke-opacity=".502" stroke-width="1"/><line id="314" x1="255" x2="119" y1="38" y2="13" fill="none" stroke="#D1D9F0" stroke-opacity=".502" stroke-width="1"/><line id="315" x1="5" x2="157" y1="64" y2="31" fill="none" stroke="#D5DEF4" stroke-opacity=".502" stroke-width="1"/><line id="316" x1="255" x2="165" y1="42" y2="33" fill="none" stroke="#CFD9ED" stroke-opacity=".502" stroke-width="1"/><line id="317" x1="255" x2="191" y1="53" y2="56" fill="none" stroke="#D7E6FA" stroke-opacity=".502" stroke-width="1"/><line id="318" x1="190" x2="79" y1="79" y2="75" fill="none" stroke="#CCD9F0" stroke-opacity=".502" stroke-width="1"/><line id="319" x1="186" x2="250" y1="4" y2="8" fill="none" stroke="#D7E0FA" stroke-opacity=".502" stroke-width="1"/><line id="320" x1="116" x2="221" y1="89" y2="85" fill="none" stroke="#4B576C" stroke-opacity=".502" stroke-width="1"/><line id="321" x1="131" x2="229" y1="63" y2="64" fill="none" stroke="#D6E5F6" stroke-opacity=".502" stroke-width="1"/><line id="322" x1="131" x2="18" y1="103" y2="119" fill="none" stroke="#505C6E" stroke-opacity=".502" stroke-width="1"/><line id="323" x1="255" x2="95" y1="29" y2="25" fill="none" stroke="#D5DBEE" stroke-opacity=".502" stroke-width="1"/><line id="324" x1="117" x2="193" y1="113" y2="127" fill="none" stroke="#575F70" stroke-opacity=".502" stroke-width="1"/><line id="325" x1="106" x2="230" y1="87" y2="86" fill="none" stroke="#4D5D78" stroke-opacity=".502" stroke-width="1"/><line id="326" x1="97" x2="198" y1="169" y2="142" fill="none" stroke="#565D70" stroke-opacity=".502" stroke-width="1"/><line id="327" x1="138" x2="251" y1="146" y2="86" fill="none" stroke="#4D596B" stroke-opacity=".502" stroke-width="1"/><line id="328" x1="3" x2="132" y1="121" y2="107" fill="none" stroke="#515C6E" stroke-opacity=".502" stroke-width="1"/><line id="329" x1="186" x2="70" y1="108" y2="92" fill="none" stroke="#596577" stroke-opacity=".502" stroke-width="1"/><line id="330" x1="0" x2="108" y1="46" y2="64" fill="none" stroke="#D4E2FA" stroke-opacity=".502" stroke-width="1"/><line id="331" x1="0" x2="59" y1="111" y2="111" fill="none" stroke="#435163" stroke-opacity=".502" stroke-width="1"/><line id="332" x1="158" x2="253" y1="92" y2="106" fill="none" stroke="#536275" stroke-opacity=".502" stroke-width="1"/><line id="333" x1="163" x2="32" y1="157" y2="153" fill="none" stroke="#575E71" stroke-opacity=".502" stroke-width="1"/><line id="334" x1="1" x2="0" y1="84" y2="9" fill="none" stroke="#CFDAF6" stroke-opacity=".502" stroke-width="1"/><line id="335" x1="52" x2="221" y1="159" y2="169" fill="none" stroke="#4B5468" stroke-opacity=".502" stroke-width="1"/><line id="336" x1="108" x2="0" y1="72" y2="79" fill="none" stroke="#CAD7F5" stroke-opacity=".502" stroke-width="1"/><line id="337" x1="255" x2="103" y1="28" y2="22" fill="none" stroke="#D4DCF1" stroke-opacity=".502" stroke-width="1"/><line id="338" x1="242" x2="183" y1="82" y2="83" fill="none" stroke="#D1E2FB" stroke-opacity=".502" stroke-width="1"/><line id="339" x1="145" x2="3" y1="6" y2="28" fill="none" stroke="#D2DAF0" stroke-opacity=".502" stroke-width="1"/><line id="340" x1="20" x2="222" y1="114" y2="85" fill="none" stroke="#606E83" stroke-opacity=".502" stroke-width="1"/><line id="341" x1="10" x2="124" y1="99" y2="125" fill="none" stroke="#525C6F" stroke-opacity=".502" stroke-width="1"/><line id="342" x1="150" x2="251" y1="167" y2="153" fill="none" stroke="#4F5A6B" stroke-opacity=".502" stroke-width="1"/><line id="343" x1="121" x2="255" y1="63" y2="40" fill="none" stroke="#D9E1F4" stroke-opacity=".502" stroke-width="1"/><line id="344" x1="67" x2="191" y1="134" y2="143" fill="none" stroke="#565D6F" stroke-opacity=".502" stroke-width="1"/><line id="345" x1="19" x2="189" y1="0" y2="59" fill="none" stroke="#D1D8ED" stroke-opacity=".502" stroke-width="1"/><line id="346" x1="243" x2="116" y1="115" y2="142" fill="none" stroke="#596474" stroke-opacity=".502" stroke-width="1"/><line id="347" x1="253" x2="112" y1="134" y2="95" fill="none" stroke="#546172" stroke-opacity=".502" stroke-width="1"/><line id="348" x1="127" x2="0" y1="154" y2="136" fill="none" stroke="#4E586C" stroke-opacity=".502" stroke-width="1"/><line id="349" x1="255" x2="145" y1="144" y2="169" fill="none" stroke="#556173" stroke-opacity=".502" stroke-width="1"/><line id="350" x1="98" x2="3" y1="4" y2="2" fill="none" stroke="#D5DAF0" stroke-opacity=".502" stroke-width="1"/><line id="351" x1="20" x2="124" y1="8" y2="10" fill="none" stroke="#DCE2F6" stroke-opacity=".502" stroke-width="1"/><line id="352" x1="82" x2="0" y1="54" y2="43" fill="none" stroke="#D3E1F4" stroke-opacity=".502" stroke-width="1"/><line id="353" x1="255" x2="105" y1="0" y2="2" fill="none" stroke="#D4DAF1" stroke-opacity=".502" stroke-width="1"/><line id="354" x1="24" x2="213" y1="80" y2="10" fill="none" stroke="#CBD3E9" stroke-opacity=".502" stroke-width="1"/><line id="355" x1="249" x2="159" y1="124" y2="125" fill="none" stroke="#4D5A6A" stroke-opacity=".502" stroke-width="1"/><line id="356" x1="0" x2="126" y1="58" y2="70" fill="none" stroke="#D0DEF6" stroke-opacity=".502" stroke-width="1"/><line id="357" x1="141" x2="43" y1="143" y2="138" fill="none" stroke="#667083" stroke-opacity=".502" stroke-width="1"/><line id="358" x1="186" x2="252" y1="72" y2="72" fill="none" stroke="#D9E7FF" stroke-opacity=".502" stroke-width="1"/><line id="359" x1="74" x2="171" y1="91" y2="133" fill="none" stroke="#5E687A" stroke-opacity=".502" stroke-width="1"/><line id="360" x1="171" x2="255" y1="53" y2="45" fill="none" stroke="#D6E1F3" stroke-opacity=".502" stroke-width="1"/><line id="361" x1="2" x2="92" y1="30" y2="19" fill="none" stroke="#D4DEF5" stroke-opacity=".502" stroke-width="1"/><line id="362" x1="112" x2="7" y1="71" y2="49" fill="none" stroke="#CBD8F0" stroke-opacity=".502" stroke-width="1"/><line id="363" x1="31" x2="194" y1="11" y2="17" fill="none" stroke="#D6DCF0" stroke-opacity=".502" stroke-width="1"/><line id="364" x1="143" x2="0" y1="42" y2="41" fill="none" stroke="#D3DAEE" stroke-opacity=".502" stroke-width="1"/><line id="365" x1="0" x2="62" y1="92" y2="89" fill="none" stroke="#3F4C67" stroke-opacity=".502" stroke-width="1"/><line id="366" x1="101" x2="255" y1="112" y2="111" fill="none" stroke="#576373" stroke-opacity=".502" stroke-width="1"/><line id="367" x1="154" x2="16" y1="132" y2="130" fill="none" stroke="#515B6C" stroke-opacity=".502" stroke-width="1"/><line id="368" x1="91" x2="222" y1="25" y2="21" fill="none" stroke="#D3DCEF" stroke-opacity=".502" stroke-width="1"/><line id="369" x1="78" x2="3" y1="6" y2="8" fill="none" stroke="#DEE3F7" stroke-opacity=".502" stroke-width="1"/><line id="370" x1="94" x2="246" y1="56" y2="21" fill="none" stroke="#DADFF2" stroke-opacity=".502" stroke-width="1"/><line id="371" x1="255" x2="110" y1="24" y2="37" fill="none" stroke="#D4D9ED" stroke-opacity=".502" stroke-width="1"/><line id="372" x1="0" x2="123" y1="123" y2="115" fill="none" stroke="#4F596C" stroke-opacity=".502" stroke-width="1"/><line id="373" x1="7" x2="77" y1="161" y2="157" fill="none" stroke="#4B586D" stroke-opacity=".502" stroke-width="1"/></svg>