<svg xmlns="http://www.w3.org/2000/svg" width="256" height="144" baseProfile="tiny" version="1.2" viewBox="0 0 256 144"><rect id="0" width="256" height="144" x="0" y="0" fill="#EEDC3B" fill-opacity="1"/><line id="1" x1="100" x2="165" y1="102" y2="87" fill="none" stroke="#000019" stroke-opacity=".502" stroke-width="1"/><line id="2" x1="164" x2="100" y1="94" y2="100" fill="none" stroke="#00001F" stroke-opacity=".502" stroke-width="1"/><line id="3" x1="164" x2="84" y1="95" y2="88" fill="none" stroke="#000040" stroke-opacity=".502" stroke-width="1"/><line id="4" x1="87" x2="164" y1="91" y2="95" fill="none" stroke="#000035" stroke-opacity=".502" stroke-width="1"/><line id="5" x1="93" x2="165" y1="102" y2="78" fill="none" stroke="#004" stroke-opacity=".502" stroke-width="1"/><line id="6" x1="117" x2="78" y1="41" y2="135" fill="none" stroke="#9D0006" stroke-opacity=".502" stroke-width="1"/><line id="7" x1="157" x2="107" y1="97" y2="101" fill="none" stroke="#000023" stroke-opacity=".502" stroke-width="1"/><line id="8" x1="163" x2="109" y1="93" y2="88" fill="none" stroke="#00002C" stroke-opacity=".502" stroke-width="1"/><line id="9" x1="123" x2="164" y1="90" y2="77" fill="none" stroke="#00002E" stroke-opacity=".502" stroke-width="1"/><line id="10" x1="157" x2="94" y1="100" y2="95" fill="none" stroke="#000029" stroke-opacity=".502" stroke-width="1"/><line id="11" x1="162" x2="137" y1="92" y2="29" fill="none" stroke="#0A003D" stroke-opacity=".502" stroke-width="1"/><line id="12" x1="94" x2="164" y1="103" y2="99" fill="none" stroke="#00003D" stroke-opacity=".502" stroke-width="1"/><line id="13" x1="116" x2="164" y1="94" y2="96" fill="none" stroke="#000014" stroke-opacity=".502" stroke-width="1"/><line id="14" x1="165" x2="93" y1="89" y2="99" fill="none" stroke="#000034" stroke-opacity=".502" stroke-width="1"/><line id="15" x1="167" x2="96" y1="82" y2="88" fill="none" stroke="#00004F" stroke-opacity=".502" stroke-width="1"/><line id="16" x1="166" x2="84" y1="83" y2="76" fill="none" stroke="#320069" stroke-opacity=".502" stroke-width="1"/><line id="17" x1="55" x2="125" y1="68" y2="106" fill="none" stroke="#CE0015" stroke-opacity=".502" stroke-width="1"/><line id="18" x1="155" x2="101" y1="102" y2="104" fill="none" stroke="#00003B" stroke-opacity=".502" stroke-width="1"/><line id="19" x1="166" x2="116" y1="83" y2="95" fill="none" stroke="#000027" stroke-opacity=".502" stroke-width="1"/><line id="20" x1="87" x2="169" y1="87" y2="86" fill="none" stroke="#300063" stroke-opacity=".502" stroke-width="1"/><line id="21" x1="165" x2="117" y1="90" y2="99" fill="none" stroke="#000013" stroke-opacity=".502" stroke-width="1"/><line id="22" x1="133" x2="151" y1="113" y2="56" fill="none" stroke="#130050" stroke-opacity=".502" stroke-width="1"/><line id="23" x1="143" x2="172" y1="35" y2="119" fill="none" stroke="#C90024" stroke-opacity=".502" stroke-width="1"/><line id="24" x1="164" x2="93" y1="84" y2="79" fill="none" stroke="#32006F" stroke-opacity=".502" stroke-width="1"/><line id="25" x1="146" x2="133" y1="59" y2="112" fill="none" stroke="#000049" stroke-opacity=".502" stroke-width="1"/><line id="26" x1="99" x2="166" y1="94" y2="88" fill="none" stroke="#050042" stroke-opacity=".502" stroke-width="1"/><line id="27" x1="166" x2="115" y1="85" y2="84" fill="none" stroke="#000041" stroke-opacity=".502" stroke-width="1"/><line id="28" x1="163" x2="87" y1="87" y2="89" fill="none" stroke="#320058" stroke-opacity=".502" stroke-width="1"/><line id="29" x1="137" x2="148" y1="109" y2="49" fill="none" stroke="#21004D" stroke-opacity=".502" stroke-width="1"/><line id="30" x1="87" x2="164" y1="90" y2="89" fill="none" stroke="#240045" stroke-opacity=".502" stroke-width="1"/><line id="31" x1="160" x2="124" y1="107" y2="105" fill="none" stroke="#080027" stroke-opacity=".502" stroke-width="1"/><line id="32" x1="140" x2="159" y1="32" y2="92" fill="none" stroke="#070027" stroke-opacity=".502" stroke-width="1"/><line id="33" x1="86" x2="118" y1="113" y2="37" fill="none" stroke="#6F0012" stroke-opacity=".502" stroke-width="1"/><line id="34" x1="54" x2="132" y1="65" y2="64" fill="none" stroke="#C50018" stroke-opacity=".502" stroke-width="1"/><line id="35" x1="166" x2="97" y1="81" y2="85" fill="none" stroke="#310067" stroke-opacity=".502" stroke-width="1"/><line id="36" x1="117" x2="157" y1="100" y2="101" fill="none" stroke="#000038" stroke-opacity=".502" stroke-width="1"/><line id="37" x1="122" x2="158" y1="95" y2="98" fill="none" stroke="#000019" stroke-opacity=".502" stroke-width="1"/><line id="38" x1="91" x2="157" y1="96" y2="107" fill="none" stroke="#320026" stroke-opacity=".502" stroke-width="1"/><line id="39" x1="132" x2="86" y1="115" y2="88" fill="none" stroke="#18000D" stroke-opacity=".502" stroke-width="1"/><line id="40" x1="88" x2="167" y1="126" y2="83" fill="none" stroke="#AD0008" stroke-opacity=".502" stroke-width="1"/><line id="41" x1="178" x2="114" y1="80" y2="78" fill="none" stroke="#3B0469" stroke-opacity=".502" stroke-width="1"/><line id="42" x1="119" x2="158" y1="108" y2="102" fill="none" stroke="#1F004C" stroke-opacity=".502" stroke-width="1"/><line id="43" x1="146" x2="135" y1="46" y2="113" fill="none" stroke="#42066C" stroke-opacity=".502" stroke-width="1"/><line id="44" x1="177" x2="97" y1="78" y2="75" fill="none" stroke="#913DAA" stroke-opacity=".502" stroke-width="1"/><line id="45" x1="86" x2="201" y1="65" y2="63" fill="none" stroke="#D00025" stroke-opacity=".502" stroke-width="1"/><line id="46" x1="156" x2="94" y1="85" y2="73" fill="none" stroke="#340C5A" stroke-opacity=".502" stroke-width="1"/><line id="47" x1="95" x2="163" y1="89" y2="74" fill="none" stroke="#924399" stroke-opacity=".502" stroke-width="1"/><line id="48" x1="138" x2="162" y1="20" y2="93" fill="none" stroke="#AB002A" stroke-opacity=".502" stroke-width="1"/><line id="49" x1="52" x2="184" y1="66" y2="139" fill="none" stroke="#DA0019" stroke-opacity=".502" stroke-width="1"/><line id="50" x1="75" x2="163" y1="89" y2="93" fill="none" stroke="#4E173A" stroke-opacity=".502" stroke-width="1"/><line id="51" x1="88" x2="146" y1="78" y2="76" fill="none" stroke="#8B45AA" stroke-opacity=".502" stroke-width="1"/><line id="52" x1="135" x2="129" y1="107" y2="78" fill="none" stroke="#000" stroke-opacity=".502" stroke-width="1"/><line id="53" x1="166" x2="105" y1="75" y2="71" fill="none" stroke="#B164EF" stroke-opacity=".502" stroke-width="1"/><line id="54" x1="91" x2="150" y1="95" y2="104" fill="none" stroke="#440054" stroke-opacity=".502" stroke-width="1"/><line id="55" x1="82" x2="157" y1="90" y2="108" fill="none" stroke="#5D1B44" stroke-opacity=".502" stroke-width="1"/><line id="56" x1="138" x2="134" y1="110" y2="79" fill="none" stroke="#000" stroke-opacity=".502" stroke-width="1"/><line id="57" x1="150" x2="143" y1="98" y2="44" fill="none" stroke="#3F0D7D" stroke-opacity=".502" stroke-width="1"/><line id="58" x1="143" x2="157" y1="28" y2="71" fill="none" stroke="#D8B0FF" stroke-opacity=".502" stroke-width="1"/><line id="59" x1="139" x2="138" y1="34" y2="71" fill="none" stroke="#C99AFF" stroke-opacity=".502" stroke-width="1"/><line id="60" x1="86" x2="170" y1="86" y2="88" fill="none" stroke="#5C1A5D" stroke-opacity=".502" stroke-width="1"/><line id="61" x1="134" x2="119" y1="0" y2="35" fill="none" stroke="#DA001D" stroke-opacity=".502" stroke-width="1"/><line id="62" x1="96" x2="159" y1="67" y2="74" fill="none" stroke="#B56EDF" stroke-opacity=".502" stroke-width="1"/><line id="63" x1="83" x2="166" y1="76" y2="74" fill="none" stroke="#AE6FA5" stroke-opacity=".502" stroke-width="1"/><line id="64" x1="157" x2="144" y1="101" y2="43" fill="none" stroke="#52146C" stroke-opacity=".502" stroke-width="1"/><line id="65" x1="87" x2="158" y1="83" y2="76" fill="none" stroke="#8842A3" stroke-opacity=".502" stroke-width="1"/><line id="66" x1="153" x2="156" y1="108" y2="34" fill="none" stroke="#7D4199" stroke-opacity=".502" stroke-width="1"/><line id="67" x1="90" x2="158" y1="91" y2="100" fill="none" stroke="#2D003A" stroke-opacity=".502" stroke-width="1"/><line id="68" x1="142" x2="87" y1="66" y2="75" fill="none" stroke="#8354BE" stroke-opacity=".502" stroke-width="1"/><line id="69" x1="156" x2="203" y1="88" y2="63" fill="none" stroke="#EC0018" stroke-opacity=".502" stroke-width="1"/><line id="70" x1="86" x2="130" y1="103" y2="103" fill="none" stroke="#96473B" stroke-opacity=".502" stroke-width="1"/><line id="71" x1="101" x2="164" y1="104" y2="91" fill="none" stroke="#230030" stroke-opacity=".502" stroke-width="1"/><line id="72" x1="140" x2="106" y1="110" y2="83" fill="none" stroke="#330A49" stroke-opacity=".502" stroke-width="1"/><line id="73" x1="139" x2="138" y1="73" y2="26" fill="none" stroke="#DDB8FF" stroke-opacity=".502" stroke-width="1"/><line id="74" x1="133" x2="172" y1="66" y2="63" fill="none" stroke="#8C0A41" stroke-opacity=".502" stroke-width="1"/><line id="75" x1="73" x2="160" y1="134" y2="86" fill="none" stroke="#CF0011" stroke-opacity=".502" stroke-width="1"/><line id="76" x1="127" x2="177" y1="107" y2="136" fill="none" stroke="#D30014" stroke-opacity=".502" stroke-width="1"/><line id="77" x1="147" x2="158" y1="37" y2="70" fill="none" stroke="#D4A5FF" stroke-opacity=".502" stroke-width="1"/><line id="78" x1="142" x2="93" y1="74" y2="72" fill="none" stroke="#C26DEE" stroke-opacity=".502" stroke-width="1"/><line id="79" x1="113" x2="131" y1="47" y2="5" fill="none" stroke="#AA0013" stroke-opacity=".502" stroke-width="1"/><line id="80" x1="140" x2="140" y1="75" y2="37" fill="none" stroke="#C08EFF" stroke-opacity=".502" stroke-width="1"/><line id="81" x1="158" x2="136" y1="98" y2="35" fill="none" stroke="#9F72BA" stroke-opacity=".502" stroke-width="1"/><line id="82" x1="161" x2="139" y1="93" y2="32" fill="none" stroke="#2C000C" stroke-opacity=".502" stroke-width="1"/><line id="83" x1="151" x2="139" y1="84" y2="32" fill="none" stroke="#AB7AB8" stroke-opacity=".502" stroke-width="1"/><line id="84" x1="113" x2="87" y1="97" y2="82" fill="none" stroke="#F48AC7" stroke-opacity=".502" stroke-width="1"/><line id="85" x1="106" x2="175" y1="83" y2="36" fill="none" stroke="#E0B3D8" stroke-opacity=".502" stroke-width="1"/><line id="86" x1="163" x2="95" y1="76" y2="68" fill="none" stroke="#B06BC0" stroke-opacity=".502" stroke-width="1"/><line id="87" x1="85" x2="152" y1="89" y2="81" fill="none" stroke="#5C285B" stroke-opacity=".502" stroke-width="1"/><line id="88" x1="98" x2="152" y1="101" y2="96" fill="none" stroke="#1D0033" stroke-opacity=".502" stroke-width="1"/><line id="89" x1="150" x2="131" y1="58" y2="0" fill="none" stroke="#CF1855" stroke-opacity=".502" stroke-width="1"/><line id="90" x1="138" x2="151" y1="66" y2="66" fill="none" stroke="#000" stroke-opacity=".502" stroke-width="1"/><line id="91" x1="165" x2="102" y1="77" y2="84" fill="none" stroke="#713B8A" stroke-opacity=".502" stroke-width="1"/><line id="92" x1="90" x2="128" y1="95" y2="84" fill="none" stroke="#A24783" stroke-opacity=".502" stroke-width="1"/><line id="93" x1="102" x2="82" y1="106" y2="88" fill="none" stroke="#39001C" stroke-opacity=".502" stroke-width="1"/><line id="94" x1="86" x2="154" y1="84" y2="122" fill="none" stroke="#FF1834" stroke-opacity=".502" stroke-width="1"/><line id="95" x1="140" x2="93" y1="68" y2="71" fill="none" stroke="#E4A7EC" stroke-opacity=".502" stroke-width="1"/><line id="96" x1="91" x2="78" y1="104" y2="137" fill="none" stroke="#BE000A" stroke-opacity=".502" stroke-width="1"/><line id="97" x1="128" x2="134" y1="78" y2="109" fill="none" stroke="#000" stroke-opacity=".502" stroke-width="1"/><line id="98" x1="163" x2="155" y1="41" y2="60" fill="none" stroke="#EDF3FF" stroke-opacity=".502" stroke-width="1"/><line id="99" x1="103" x2="79" y1="75" y2="129" fill="none" stroke="#960000" stroke-opacity=".502" stroke-width="1"/><line id="100" x1="137" x2="104" y1="86" y2="107" fill="none" stroke="#00000B" stroke-opacity=".502" stroke-width="1"/><line id="101" x1="155" x2="150" y1="60" y2="36" fill="none" stroke="#BA94FF" stroke-opacity=".502" stroke-width="1"/><line id="102" x1="135" x2="139" y1="82" y2="109" fill="none" stroke="#000" stroke-opacity=".502" stroke-width="1"/><line id="103" x1="138" x2="85" y1="68" y2="83" fill="none" stroke="#DF96D9" stroke-opacity=".502" stroke-width="1"/><line id="104" x1="161" x2="119" y1="107" y2="96" fill="none" stroke="#2A1B45" stroke-opacity=".502" stroke-width="1"/><line id="105" x1="77" x2="107" y1="135" y2="66" fill="none" stroke="#B00B12" stroke-opacity=".502" stroke-width="1"/><line id="106" x1="153" x2="150" y1="40" y2="87" fill="none" stroke="#B672C2" stroke-opacity=".502" stroke-width="1"/><line id="107" x1="128" x2="104" y1="103" y2="105" fill="none" stroke="#B78868" stroke-opacity=".502" stroke-width="1"/><line id="108" x1="83" x2="144" y1="86" y2="70" fill="none" stroke="#D483BE" stroke-opacity=".502" stroke-width="1"/><line id="109" x1="134" x2="66" y1="109" y2="81" fill="none" stroke="#862F20" stroke-opacity=".502" stroke-width="1"/><line id="110" x1="155" x2="153" y1="36" y2="62" fill="none" stroke="#B999FF" stroke-opacity=".502" stroke-width="1"/><line id="111" x1="158" x2="81" y1="77" y2="76" fill="none" stroke="#A47D62" stroke-opacity=".502" stroke-width="1"/><line id="112" x1="126" x2="115" y1="97" y2="106" fill="none" stroke="#DDADAD" stroke-opacity=".502" stroke-width="1"/><line id="113" x1="167" x2="126" y1="77" y2="86" fill="none" stroke="#2B1B3C" stroke-opacity=".502" stroke-width="1"/><line id="114" x1="151" x2="143" y1="111" y2="58" fill="none" stroke="#3E1350" stroke-opacity=".502" stroke-width="1"/><line id="115" x1="83" x2="115" y1="87" y2="92" fill="none" stroke="#CE6989" stroke-opacity=".502" stroke-width="1"/><line id="116" x1="155" x2="102" y1="66" y2="80" fill="none" stroke="#D38BBA" stroke-opacity=".502" stroke-width="1"/><line id="117" x1="145" x2="167" y1="121" y2="88" fill="none" stroke="#A68797" stroke-opacity=".502" stroke-width="1"/><line id="118" x1="155" x2="160" y1="60" y2="39" fill="none" stroke="#9C85FF" stroke-opacity=".502" stroke-width="1"/><line id="119" x1="131" x2="137" y1="81" y2="111" fill="none" stroke="#000" stroke-opacity=".502" stroke-width="1"/><line id="120" x1="116" x2="80" y1="91" y2="82" fill="none" stroke="#D36A99" stroke-opacity=".502" stroke-width="1"/><line id="121" x1="106" x2="85" y1="108" y2="89" fill="none" stroke="#A287C9" stroke-opacity=".502" stroke-width="1"/><line id="122" x1="171" x2="125" y1="63" y2="64" fill="none" stroke="#EF0730" stroke-opacity=".502" stroke-width="1"/><line id="123" x1="115" x2="165" y1="76" y2="83" fill="none" stroke="#684061" stroke-opacity=".502" stroke-width="1"/><line id="124" x1="134" x2="158" y1="63" y2="35" fill="none" stroke="#CEA1FC" stroke-opacity=".502" stroke-width="1"/><line id="125" x1="155" x2="157" y1="76" y2="39" fill="none" stroke="#9D5D9F" stroke-opacity=".502" stroke-width="1"/><line id="126" x1="120" x2="145" y1="89" y2="102" fill="none" stroke="#000" stroke-opacity=".502" stroke-width="1"/><line id="127" x1="141" x2="141" y1="74" y2="44" fill="none" stroke="#C28CFC" stroke-opacity=".502" stroke-width="1"/><line id="128" x1="123" x2="95" y1="80" y2="101" fill="none" stroke="#A45881" stroke-opacity=".502" stroke-width="1"/><line id="129" x1="255" x2="0" y1="0" y2="1" fill="none" stroke="#FFFF49" stroke-opacity=".502" stroke-width="1"/><line id="130" x1="166" x2="100" y1="79" y2="88" fill="none" stroke="#553846" stroke-opacity=".502" stroke-width="1"/><line id="131" x1="129" x2="170" y1="113" y2="138" fill="none" stroke="#974500" stroke-opacity=".502" stroke-width="1"/><line id="132" x1="177" x2="163" y1="134" y2="91" fill="none" stroke="#E1001A" stroke-opacity=".502" stroke-width="1"/><line id="133" x1="138" x2="136" y1="26" y2="65" fill="none" stroke="#E8CBC4" stroke-opacity=".502" stroke-width="1"/><line id="134" x1="23" x2="91" y1="84" y2="75" fill="none" stroke="#FFFA17" stroke-opacity=".502" stroke-width="1"/><line id="135" x1="255" x2="127" y1="7" y2="37" fill="none" stroke="#FFFF61" stroke-opacity=".502" stroke-width="1"/><line id="136" x1="149" x2="82" y1="77" y2="86" fill="none" stroke="#AA6696" stroke-opacity=".502" stroke-width="1"/><line id="137" x1="108" x2="90" y1="72" y2="78" fill="none" stroke="#1E0614" stroke-opacity=".502" stroke-width="1"/><line id="138" x1="122" x2="152" y1="88" y2="105" fill="none" stroke="#00000F" stroke-opacity=".502" stroke-width="1"/><line id="139" x1="145" x2="149" y1="42" y2="83" fill="none" stroke="#874C85" stroke-opacity=".502" stroke-width="1"/><line id="140" x1="255" x2="130" y1="7" y2="1" fill="none" stroke="#FFFF64" stroke-opacity=".502" stroke-width="1"/><line id="141" x1="158" x2="159" y1="36" y2="53" fill="none" stroke="#836EED" stroke-opacity=".502" stroke-width="1"/><line id="142" x1="81" x2="46" y1="87" y2="68" fill="none" stroke="#A46200" stroke-opacity=".502" stroke-width="1"/><line id="143" x1="128" x2="95" y1="8" y2="96" fill="none" stroke="#AF2C0D" stroke-opacity=".502" stroke-width="1"/><line id="144" x1="153" x2="157" y1="35" y2="54" fill="none" stroke="#907AE6" stroke-opacity=".502" stroke-width="1"/><line id="145" x1="144" x2="158" y1="33" y2="76" fill="none" stroke="#DE9BDC" stroke-opacity=".502" stroke-width="1"/><line id="146" x1="139" x2="166" y1="108" y2="86" fill="none" stroke="#090023" stroke-opacity=".502" stroke-width="1"/><line id="147" x1="134" x2="64" y1="101" y2="140" fill="none" stroke="#BD350D" stroke-opacity=".502" stroke-width="1"/><line id="148" x1="141" x2="115" y1="70" y2="70" fill="none" stroke="#FBDFFF" stroke-opacity=".502" stroke-width="1"/><line id="149" x1="127" x2="253" y1="1" y2="26" fill="none" stroke="#FF6" stroke-opacity=".502" stroke-width="1"/><line id="150" x1="135" x2="255" y1="33" y2="40" fill="none" stroke="#FFFF5C" stroke-opacity=".502" stroke-width="1"/><line id="151" x1="154" x2="88" y1="82" y2="67" fill="none" stroke="#CF95A0" stroke-opacity=".502" stroke-width="1"/><line id="152" x1="85" x2="108" y1="100" y2="107" fill="none" stroke="#7B3200" stroke-opacity=".502" stroke-width="1"/><line id="153" x1="130" x2="94" y1="101" y2="73" fill="none" stroke="#8C5479" stroke-opacity=".502" stroke-width="1"/><line id="154" x1="125" x2="255" y1="36" y2="1" fill="none" stroke="#FFFF5C" stroke-opacity=".502" stroke-width="1"/><line id="155" x1="88" x2="112" y1="94" y2="106" fill="none" stroke="#6D2C4D" stroke-opacity=".502" stroke-width="1"/><line id="156" x1="133" x2="136" y1="82" y2="99" fill="none" stroke="#000" stroke-opacity=".502" stroke-width="1"/><line id="157" x1="164" x2="144" y1="96" y2="37" fill="none" stroke="#E90E2F" stroke-opacity=".502" stroke-width="1"/><line id="158" x1="149" x2="120" y1="83" y2="89" fill="none" stroke="#00000E" stroke-opacity=".502" stroke-width="1"/><line id="159" x1="82" x2="114" y1="81" y2="98" fill="none" stroke="#EC9BA6" stroke-opacity=".502" stroke-width="1"/><line id="160" x1="99" x2="144" y1="87" y2="59" fill="none" stroke="#EBA4BA" stroke-opacity=".502" stroke-width="1"/><line id="161" x1="74" x2="108" y1="69" y2="68" fill="none" stroke="#823300" stroke-opacity=".502" stroke-width="1"/><line id="162" x1="85" x2="116" y1="88" y2="103" fill="none" stroke="#0C000C" stroke-opacity=".502" stroke-width="1"/></svg>