<?xml version="1.0" standalone="no"?>
<svg xmlns="http://www.w3.org/2000/svg" version="1.2" baseProfile="tiny" width="256" height="144" viewBox="0 0 256 144">
<rect x="0" y="0" width="256" height="144" id="0" fill="rgb(238,220,59)" fill-opacity="1" />
<line x1="100" y1="102" x2="165" y2="87" id="1" stroke="rgb(0,0,25)" stroke-width="1" fill="none" stroke-opacity="0.501961" />
<line x1="164" y1="94" x2="100" y2="100" id="2" stroke="rgb(0,0,31)" stroke-width="1" fill="none" stroke-opacity="0.501961" />
<line x1="164" y1="95" x2="84" y2="88" id="3" stroke="rgb(0,0,64)" stroke-width="1" fill="none" stroke-opacity="0.501961" />
<line x1="87" y1="91" x2="164" y2="95" id="4" stroke="rgb(0,0,53)" stroke-width="1" fill="none" stroke-opacity="0.501961" />
<line x1="93" y1="102" x2="165" y2="78" id="5" stroke="rgb(0,0,68)" stroke-width="1" fill="none" stroke-opacity="0.501961" />
<line x1="117" y1="41" x2="78" y2="135" id="6" stroke="rgb(157,0,6)" stroke-width="1" fill="none" stroke-opacity="0.501961" />
<line x1="157" y1="97" x2="107" y2="101" id="7" stroke="rgb(0,0,35)" stroke-width="1" fill="none" stroke-opacity="0.501961" />
<line x1="163" y1="93" x2="109" y2="88" id="8" stroke="rgb(0,0,44)" stroke-width="1" fill="none" stroke-opacity="0.501961" />
<line x1="123" y1="90" x2="164" y2="77" id="9" stroke="rgb(0,0,46)" stroke-width="1" fill="none" stroke-opacity="0.501961" />
<line x1="157" y1="100" x2="94" y2="95" id="10" stroke="rgb(0,0,41)" stroke-width="1" fill="none" stroke-opacity="0.501961" />
<line x1="162" y1="92" x2="137" y2="29" id="11" stroke="rgb(10,0,61)" stroke-width="1" fill="none" stroke-opacity="0.501961" />
<line x1="94" y1="103" x2="164" y2="99" id="12" stroke="rgb(0,0,61)" stroke-width="1" fill="none" stroke-opacity="0.501961" />
<line x1="116" y1="94" x2="164" y2="96" id="13" stroke="rgb(0,0,20)" stroke-width="1" fill="none" stroke-opacity="0.501961" />
<line x1="165" y1="89" x2="93" y2="99" id="14" stroke="rgb(0,0,52)" stroke-width="1" fill="none" stroke-opacity="0.501961" />
<line x1="167" y1="82" x2="96" y2="88" id="15" stroke="rgb(0,0,79)" stroke-width="1" fill="none" stroke-opacity="0.501961" />
<line x1="166" y1="83" x2="84" y2="76" id="16" stroke="rgb(50,0,105)" stroke-width="1" fill="none" stroke-opacity="0.501961" />
<line x1="55" y1="68" x2="125" y2="106" id="17" stroke="rgb(206,0,21)" stroke-width="1" fill="none" stroke-opacity="0.501961" />
<line x1="155" y1="102" x2="101" y2="104" id="18" stroke="rgb(0,0,59)" stroke-width="1" fill="none" stroke-opacity="0.501961" />
<line x1="166" y1="83" x2="116" y2="95" id="19" stroke="rgb(0,0,39)" stroke-width="1" fill="none" stroke-opacity="0.501961" />
<line x1="87" y1="87" x2="169" y2="86" id="20" stroke="rgb(48,0,99)" stroke-width="1" fill="none" stroke-opacity="0.501961" />
<line x1="165" y1="90" x2="117" y2="99" id="21" stroke="rgb(0,0,19)" stroke-width="1" fill="none" stroke-opacity="0.501961" />
<line x1="133" y1="113" x2="151" y2="56" id="22" stroke="rgb(19,0,80)" stroke-width="1" fill="none" stroke-opacity="0.501961" />
<line x1="143" y1="35" x2="172" y2="119" id="23" stroke="rgb(201,0,36)" stroke-width="1" fill="none" stroke-opacity="0.501961" />
<line x1="164" y1="84" x2="93" y2="79" id="24" stroke="rgb(50,0,111)" stroke-width="1" fill="none" stroke-opacity="0.501961" />
<line x1="146" y1="59" x2="133" y2="112" id="25" stroke="rgb(0,0,73)" stroke-width="1" fill="none" stroke-opacity="0.501961" />
<line x1="99" y1="94" x2="166" y2="88" id="26" stroke="rgb(5,0,66)" stroke-width="1" fill="none" stroke-opacity="0.501961" />
<line x1="166" y1="85" x2="115" y2="84" id="27" stroke="rgb(0,0,65)" stroke-width="1" fill="none" stroke-opacity="0.501961" />
<line x1="163" y1="87" x2="87" y2="89" id="28" stroke="rgb(50,0,88)" stroke-width="1" fill="none" stroke-opacity="0.501961" />
<line x1="137" y1="109" x2="148" y2="49" id="29" stroke="rgb(33,0,77)" stroke-width="1" fill="none" stroke-opacity="0.501961" />
<line x1="87" y1="90" x2="164" y2="89" id="30" stroke="rgb(36,0,69)" stroke-width="1" fill="none" stroke-opacity="0.501961" />
<line x1="160" y1="107" x2="124" y2="105" id="31" stroke="rgb(8,0,39)" stroke-width="1" fill="none" stroke-opacity="0.501961" />
<line x1="140" y1="32" x2="159" y2="92" id="32" stroke="rgb(7,0,39)" stroke-width="1" fill="none" stroke-opacity="0.501961" />
<line x1="86" y1="113" x2="118" y2="37" id="33" stroke="rgb(111,0,18)" stroke-width="1" fill="none" stroke-opacity="0.501961" />
<line x1="54" y1="65" x2="132" y2="64" id="34" stroke="rgb(197,0,24)" stroke-width="1" fill="none" stroke-opacity="0.501961" />
<line x1="166" y1="81" x2="97" y2="85" id="35" stroke="rgb(49,0,103)" stroke-width="1" fill="none" stroke-opacity="0.501961" />
<line x1="117" y1="100" x2="157" y2="101" id="36" stroke="rgb(0,0,56)" stroke-width="1" fill="none" stroke-opacity="0.501961" />
<line x1="122" y1="95" x2="158" y2="98" id="37" stroke="rgb(0,0,25)" stroke-width="1" fill="none" stroke-opacity="0.501961" />
<line x1="91" y1="96" x2="157" y2="107" id="38" stroke="rgb(50,0,38)" stroke-width="1" fill="none" stroke-opacity="0.501961" />
<line x1="132" y1="115" x2="86" y2="88" id="39" stroke="rgb(24,0,13)" stroke-width="1" fill="none" stroke-opacity="0.501961" />
<line x1="88" y1="126" x2="167" y2="83" id="40" stroke="rgb(173,0,8)" stroke-width="1" fill="none" stroke-opacity="0.501961" />
<line x1="178" y1="80" x2="114" y2="78" id="41" stroke="rgb(59,4,105)" stroke-width="1" fill="none" stroke-opacity="0.501961" />
<line x1="119" y1="108" x2="158" y2="102" id="42" stroke="rgb(31,0,76)" stroke-width="1" fill="none" stroke-opacity="0.501961" />
<line x1="146" y1="46" x2="135" y2="113" id="43" stroke="rgb(66,6,108)" stroke-width="1" fill="none" stroke-opacity="0.501961" />
<line x1="177" y1="78" x2="97" y2="75" id="44" stroke="rgb(145,61,170)" stroke-width="1" fill="none" stroke-opacity="0.501961" />
<line x1="86" y1="65" x2="201" y2="63" id="45" stroke="rgb(208,0,37)" stroke-width="1" fill="none" stroke-opacity="0.501961" />
<line x1="156" y1="85" x2="94" y2="73" id="46" stroke="rgb(52,12,90)" stroke-width="1" fill="none" stroke-opacity="0.501961" />
<line x1="95" y1="89" x2="163" y2="74" id="47" stroke="rgb(146,67,153)" stroke-width="1" fill="none" stroke-opacity="0.501961" />
<line x1="138" y1="20" x2="162" y2="93" id="48" stroke="rgb(171,0,42)" stroke-width="1" fill="none" stroke-opacity="0.501961" />
<line x1="52" y1="66" x2="184" y2="139" id="49" stroke="rgb(218,0,25)" stroke-width="1" fill="none" stroke-opacity="0.501961" />
<line x1="75" y1="89" x2="163" y2="93" id="50" stroke="rgb(78,23,58)" stroke-width="1" fill="none" stroke-opacity="0.501961" />
<line x1="88" y1="78" x2="146" y2="76" id="51" stroke="rgb(139,69,170)" stroke-width="1" fill="none" stroke-opacity="0.501961" />
<line x1="135" y1="107" x2="129" y2="78" id="52" stroke="rgb(0,0,0)" stroke-width="1" fill="none" stroke-opacity="0.501961" />
<line x1="166" y1="75" x2="105" y2="71" id="53" stroke="rgb(177,100,239)" stroke-width="1" fill="none" stroke-opacity="0.501961" />
<line x1="91" y1="95" x2="150" y2="104" id="54" stroke="rgb(68,0,84)" stroke-width="1" fill="none" stroke-opacity="0.501961" />
<line x1="82" y1="90" x2="157" y2="108" id="55" stroke="rgb(93,27,68)" stroke-width="1" fill="none" stroke-opacity="0.501961" />
<line x1="138" y1="110" x2="134" y2="79" id="56" stroke="rgb(0,0,0)" stroke-width="1" fill="none" stroke-opacity="0.501961" />
<line x1="150" y1="98" x2="143" y2="44" id="57" stroke="rgb(63,13,125)" stroke-width="1" fill="none" stroke-opacity="0.501961" />
<line x1="143" y1="28" x2="157" y2="71" id="58" stroke="rgb(216,176,255)" stroke-width="1" fill="none" stroke-opacity="0.501961" />
<line x1="139" y1="34" x2="138" y2="71" id="59" stroke="rgb(201,154,255)" stroke-width="1" fill="none" stroke-opacity="0.501961" />
<line x1="86" y1="86" x2="170" y2="88" id="60" stroke="rgb(92,26,93)" stroke-width="1" fill="none" stroke-opacity="0.501961" />
<line x1="134" y1="0" x2="119" y2="35" id="61" stroke="rgb(218,0,29)" stroke-width="1" fill="none" stroke-opacity="0.501961" />
<line x1="96" y1="67" x2="159" y2="74" id="62" stroke="rgb(181,110,223)" stroke-width="1" fill="none" stroke-opacity="0.501961" />
<line x1="83" y1="76" x2="166" y2="74" id="63" stroke="rgb(174,111,165)" stroke-width="1" fill="none" stroke-opacity="0.501961" />
<line x1="157" y1="101" x2="144" y2="43" id="64" stroke="rgb(82,20,108)" stroke-width="1" fill="none" stroke-opacity="0.501961" />
<line x1="87" y1="83" x2="158" y2="76" id="65" stroke="rgb(136,66,163)" stroke-width="1" fill="none" stroke-opacity="0.501961" />
<line x1="153" y1="108" x2="156" y2="34" id="66" stroke="rgb(125,65,153)" stroke-width="1" fill="none" stroke-opacity="0.501961" />
<line x1="90" y1="91" x2="158" y2="100" id="67" stroke="rgb(45,0,58)" stroke-width="1" fill="none" stroke-opacity="0.501961" />
<line x1="142" y1="66" x2="87" y2="75" id="68" stroke="rgb(131,84,190)" stroke-width="1" fill="none" stroke-opacity="0.501961" />
<line x1="156" y1="88" x2="203" y2="63" id="69" stroke="rgb(236,0,24)" stroke-width="1" fill="none" stroke-opacity="0.501961" />
<line x1="86" y1="103" x2="130" y2="103" id="70" stroke="rgb(150,71,59)" stroke-width="1" fill="none" stroke-opacity="0.501961" />
<line x1="101" y1="104" x2="164" y2="91" id="71" stroke="rgb(35,0,48)" stroke-width="1" fill="none" stroke-opacity="0.501961" />
<line x1="140" y1="110" x2="106" y2="83" id="72" stroke="rgb(51,10,73)" stroke-width="1" fill="none" stroke-opacity="0.501961" />
<line x1="139" y1="73" x2="138" y2="26" id="73" stroke="rgb(221,184,255)" stroke-width="1" fill="none" stroke-opacity="0.501961" />
<line x1="133" y1="66" x2="172" y2="63" id="74" stroke="rgb(140,10,65)" stroke-width="1" fill="none" stroke-opacity="0.501961" />
<line x1="73" y1="134" x2="160" y2="86" id="75" stroke="rgb(207,0,17)" stroke-width="1" fill="none" stroke-opacity="0.501961" />
<line x1="127" y1="107" x2="177" y2="136" id="76" stroke="rgb(211,0,20)" stroke-width="1" fill="none" stroke-opacity="0.501961" />
<line x1="147" y1="37" x2="158" y2="70" id="77" stroke="rgb(212,165,255)" stroke-width="1" fill="none" stroke-opacity="0.501961" />
<line x1="142" y1="74" x2="93" y2="72" id="78" stroke="rgb(194,109,238)" stroke-width="1" fill="none" stroke-opacity="0.501961" />
<line x1="113" y1="47" x2="131" y2="5" id="79" stroke="rgb(170,0,19)" stroke-width="1" fill="none" stroke-opacity="0.501961" />
<line x1="140" y1="75" x2="140" y2="37" id="80" stroke="rgb(192,142,255)" stroke-width="1" fill="none" stroke-opacity="0.501961" />
<line x1="158" y1="98" x2="136" y2="35" id="81" stroke="rgb(159,114,186)" stroke-width="1" fill="none" stroke-opacity="0.501961" />
<line x1="161" y1="93" x2="139" y2="32" id="82" stroke="rgb(44,0,12)" stroke-width="1" fill="none" stroke-opacity="0.501961" />
<line x1="151" y1="84" x2="139" y2="32" id="83" stroke="rgb(171,122,184)" stroke-width="1" fill="none" stroke-opacity="0.501961" />
<line x1="113" y1="97" x2="87" y2="82" id="84" stroke="rgb(244,138,199)" stroke-width="1" fill="none" stroke-opacity="0.501961" />
<line x1="106" y1="83" x2="175" y2="36" id="85" stroke="rgb(224,179,216)" stroke-width="1" fill="none" stroke-opacity="0.501961" />
<line x1="163" y1="76" x2="95" y2="68" id="86" stroke="rgb(176,107,192)" stroke-width="1" fill="none" stroke-opacity="0.501961" />
<line x1="85" y1="89" x2="152" y2="81" id="87" stroke="rgb(92,40,91)" stroke-width="1" fill="none" stroke-opacity="0.501961" />
<line x1="98" y1="101" x2="152" y2="96" id="88" stroke="rgb(29,0,51)" stroke-width="1" fill="none" stroke-opacity="0.501961" />
<line x1="150" y1="58" x2="131" y2="0" id="89" stroke="rgb(207,24,85)" stroke-width="1" fill="none" stroke-opacity="0.501961" />
<line x1="138" y1="66" x2="151" y2="66" id="90" stroke="rgb(0,0,0)" stroke-width="1" fill="none" stroke-opacity="0.501961" />
<line x1="165" y1="77" x2="102" y2="84" id="91" stroke="rgb(113,59,138)" stroke-width="1" fill="none" stroke-opacity="0.501961" />
<line x1="90" y1="95" x2="128" y2="84" id="92" stroke="rgb(162,71,131)" stroke-width="1" fill="none" stroke-opacity="0.501961" />
<line x1="102" y1="106" x2="82" y2="88" id="93" stroke="rgb(57,0,28)" stroke-width="1" fill="none" stroke-opacity="0.501961" />
<line x1="86" y1="84" x2="154" y2="122" id="94" stroke="rgb(255,24,52)" stroke-width="1" fill="none" stroke-opacity="0.501961" />
<line x1="140" y1="68" x2="93" y2="71" id="95" stroke="rgb(228,167,236)" stroke-width="1" fill="none" stroke-opacity="0.501961" />
<line x1="91" y1="104" x2="78" y2="137" id="96" stroke="rgb(190,0,10)" stroke-width="1" fill="none" stroke-opacity="0.501961" />
<line x1="128" y1="78" x2="134" y2="109" id="97" stroke="rgb(0,0,0)" stroke-width="1" fill="none" stroke-opacity="0.501961" />
<line x1="163" y1="41" x2="155" y2="60" id="98" stroke="rgb(237,243,255)" stroke-width="1" fill="none" stroke-opacity="0.501961" />
<line x1="103" y1="75" x2="79" y2="129" id="99" stroke="rgb(150,0,0)" stroke-width="1" fill="none" stroke-opacity="0.501961" />
<line x1="137" y1="86" x2="104" y2="107" id="100" stroke="rgb(0,0,11)" stroke-width="1" fill="none" stroke-opacity="0.501961" />
<line x1="155" y1="60" x2="150" y2="36" id="101" stroke="rgb(186,148,255)" stroke-width="1" fill="none" stroke-opacity="0.501961" />
<line x1="135" y1="82" x2="139" y2="109" id="102" stroke="rgb(0,0,0)" stroke-width="1" fill="none" stroke-opacity="0.501961" />
<line x1="138" y1="68" x2="85" y2="83" id="103" stroke="rgb(223,150,217)" stroke-width="1" fill="none" stroke-opacity="0.501961" />
<line x1="161" y1="107" x2="119" y2="96" id="104" stroke="rgb(42,27,69)" stroke-width="1" fill="none" stroke-opacity="0.501961" />
<line x1="77" y1="135" x2="107" y2="66" id="105" stroke="rgb(176,11,18)" stroke-width="1" fill="none" stroke-opacity="0.501961" />
<line x1="153" y1="40" x2="150" y2="87" id="106" stroke="rgb(182,114,194)" stroke-width="1" fill="none" stroke-opacity="0.501961" />
<line x1="128" y1="103" x2="104" y2="105" id="107" stroke="rgb(183,136,104)" stroke-width="1" fill="none" stroke-opacity="0.501961" />
<line x1="83" y1="86" x2="144" y2="70" id="108" stroke="rgb(212,131,190)" stroke-width="1" fill="none" stroke-opacity="0.501961" />
<line x1="134" y1="109" x2="66" y2="81" id="109" stroke="rgb(134,47,32)" stroke-width="1" fill="none" stroke-opacity="0.501961" />
<line x1="155" y1="36" x2="153" y2="62" id="110" stroke="rgb(185,153,255)" stroke-width="1" fill="none" stroke-opacity="0.501961" />
<line x1="158" y1="77" x2="81" y2="76" id="111" stroke="rgb(164,125,98)" stroke-width="1" fill="none" stroke-opacity="0.501961" />
<line x1="126" y1="97" x2="115" y2="106" id="112" stroke="rgb(221,173,173)" stroke-width="1" fill="none" stroke-opacity="0.501961" />
<line x1="167" y1="77" x2="126" y2="86" id="113" stroke="rgb(43,27,60)" stroke-width="1" fill="none" stroke-opacity="0.501961" />
<line x1="151" y1="111" x2="143" y2="58" id="114" stroke="rgb(62,19,80)" stroke-width="1" fill="none" stroke-opacity="0.501961" />
<line x1="83" y1="87" x2="115" y2="92" id="115" stroke="rgb(206,105,137)" stroke-width="1" fill="none" stroke-opacity="0.501961" />
<line x1="155" y1="66" x2="102" y2="80" id="116" stroke="rgb(211,139,186)" stroke-width="1" fill="none" stroke-opacity="0.501961" />
<line x1="145" y1="121" x2="167" y2="88" id="117" stroke="rgb(166,135,151)" stroke-width="1" fill="none" stroke-opacity="0.501961" />
<line x1="155" y1="60" x2="160" y2="39" id="118" stroke="rgb(156,133,255)" stroke-width="1" fill="none" stroke-opacity="0.501961" />
<line x1="131" y1="81" x2="137" y2="111" id="119" stroke="rgb(0,0,0)" stroke-width="1" fill="none" stroke-opacity="0.501961" />
<line x1="116" y1="91" x2="80" y2="82" id="120" stroke="rgb(211,106,153)" stroke-width="1" fill="none" stroke-opacity="0.501961" />
<line x1="106" y1="108" x2="85" y2="89" id="121" stroke="rgb(162,135,201)" stroke-width="1" fill="none" stroke-opacity="0.501961" />
<line x1="171" y1="63" x2="125" y2="64" id="122" stroke="rgb(239,7,48)" stroke-width="1" fill="none" stroke-opacity="0.501961" />
<line x1="115" y1="76" x2="165" y2="83" id="123" stroke="rgb(104,64,97)" stroke-width="1" fill="none" stroke-opacity="0.501961" />
<line x1="134" y1="63" x2="158" y2="35" id="124" stroke="rgb(206,161,252)" stroke-width="1" fill="none" stroke-opacity="0.501961" />
<line x1="155" y1="76" x2="157" y2="39" id="125" stroke="rgb(157,93,159)" stroke-width="1" fill="none" stroke-opacity="0.501961" />
<line x1="120" y1="89" x2="145" y2="102" id="126" stroke="rgb(0,0,0)" stroke-width="1" fill="none" stroke-opacity="0.501961" />
<line x1="141" y1="74" x2="141" y2="44" id="127" stroke="rgb(194,140,252)" stroke-width="1" fill="none" stroke-opacity="0.501961" />
<line x1="123" y1="80" x2="95" y2="101" id="128" stroke="rgb(164,88,129)" stroke-width="1" fill="none" stroke-opacity="0.501961" />
<line x1="255" y1="0" x2="0" y2="1" id="129" stroke="rgb(255,255,73)" stroke-width="1" fill="none" stroke-opacity="0.501961" />
<line x1="166" y1="79" x2="100" y2="88" id="130" stroke="rgb(85,56,70)" stroke-width="1" fill="none" stroke-opacity="0.501961" />
<line x1="129" y1="113" x2="170" y2="138" id="131" stroke="rgb(151,69,0)" stroke-width="1" fill="none" stroke-opacity="0.501961" />
<line x1="177" y1="134" x2="163" y2="91" id="132" stroke="rgb(225,0,26)" stroke-width="1" fill="none" stroke-opacity="0.501961" />
<line x1="138" y1="26" x2="136" y2="65" id="133" stroke="rgb(232,203,196)" stroke-width="1" fill="none" stroke-opacity="0.501961" />
<line x1="23" y1="84" x2="91" y2="75" id="134" stroke="rgb(255,250,23)" stroke-width="1" fill="none" stroke-opacity="0.501961" />
<line x1="255" y1="7" x2="127" y2="37" id="135" stroke="rgb(255,255,97)" stroke-width="1" fill="none" stroke-opacity="0.501961" />
<line x1="149" y1="77" x2="82" y2="86" id="136" stroke="rgb(170,102,150)" stroke-width="1" fill="none" stroke-opacity="0.501961" />
<line x1="108" y1="72" x2="90" y2="78" id="137" stroke="rgb(30,6,20)" stroke-width="1" fill="none" stroke-opacity="0.501961" />
<line x1="122" y1="88" x2="152" y2="105" id="138" stroke="rgb(0,0,15)" stroke-width="1" fill="none" stroke-opacity="0.501961" />
<line x1="145" y1="42" x2="149" y2="83" id="139" stroke="rgb(135,76,133)" stroke-width="1" fill="none" stroke-opacity="0.501961" />
<line x1="255" y1="7" x2="130" y2="1" id="140" stroke="rgb(255,255,100)" stroke-width="1" fill="none" stroke-opacity="0.501961" />
<line x1="158" y1="36" x2="159" y2="53" id="141" stroke="rgb(131,110,237)" stroke-width="1" fill="none" stroke-opacity="0.501961" />
<line x1="81" y1="87" x2="46" y2="68" id="142" stroke="rgb(164,98,0)" stroke-width="1" fill="none" stroke-opacity="0.501961" />
<line x1="128" y1="8" x2="95" y2="96" id="143" stroke="rgb(175,44,13)" stroke-width="1" fill="none" stroke-opacity="0.501961" />
<line x1="153" y1="35" x2="157" y2="54" id="144" stroke="rgb(144,122,230)" stroke-width="1" fill="none" stroke-opacity="0.501961" />
<line x1="144" y1="33" x2="158" y2="76" id="145" stroke="rgb(222,155,220)" stroke-width="1" fill="none" stroke-opacity="0.501961" />
<line x1="139" y1="108" x2="166" y2="86" id="146" stroke="rgb(9,0,35)" stroke-width="1" fill="none" stroke-opacity="0.501961" />
<line x1="134" y1="101" x2="64" y2="140" id="147" stroke="rgb(189,53,13)" stroke-width="1" fill="none" stroke-opacity="0.501961" />
<line x1="141" y1="70" x2="115" y2="70" id="148" stroke="rgb(251,223,255)" stroke-width="1" fill="none" stroke-opacity="0.501961" />
<line x1="127" y1="1" x2="253" y2="26" id="149" stroke="rgb(255,255,102)" stroke-width="1" fill="none" stroke-opacity="0.501961" />
<line x1="135" y1="33" x2="255" y2="40" id="150" stroke="rgb(255,255,92)" stroke-width="1" fill="none" stroke-opacity="0.501961" />
<line x1="154" y1="82" x2="88" y2="67" id="151" stroke="rgb(207,149,160)" stroke-width="1" fill="none" stroke-opacity="0.501961" />
<line x1="85" y1="100" x2="108" y2="107" id="152" stroke="rgb(123,50,0)" stroke-width="1" fill="none" stroke-opacity="0.501961" />
<line x1="130" y1="101" x2="94" y2="73" id="153" stroke="rgb(140,84,121)" stroke-width="1" fill="none" stroke-opacity="0.501961" />
<line x1="125" y1="36" x2="255" y2="1" id="154" stroke="rgb(255,255,92)" stroke-width="1" fill="none" stroke-opacity="0.501961" />
<line x1="88" y1="94" x2="112" y2="106" id="155" stroke="rgb(109,44,77)" stroke-width="1" fill="none" stroke-opacity="0.501961" />
<line x1="133" y1="82" x2="136" y2="99" id="156" stroke="rgb(0,0,0)" stroke-width="1" fill="none" stroke-opacity="0.501961" />
<line x1="164" y1="96" x2="144" y2="37" id="157" stroke="rgb(233,14,47)" stroke-width="1" fill="none" stroke-opacity="0.501961" />
<line x1="149" y1="83" x2="120" y2="89" id="158" stroke="rgb(0,0,14)" stroke-width="1" fill="none" stroke-opacity="0.501961" />
<line x1="82" y1="81" x2="114" y2="98" id="159" stroke="rgb(236,155,166)" stroke-width="1" fill="none" stroke-opacity="0.501961" />
<line x1="99" y1="87" x2="144" y2="59" id="160" stroke="rgb(235,164,186)" stroke-width="1" fill="none" stroke-opacity="0.501961" />
<line x1="74" y1="69" x2="108" y2="68" id="161" stroke="rgb(130,51,0)" stroke-width="1" fill="none" stroke-opacity="0.501961" />
<line x1="85" y1="88" x2="116" y2="103" id="162" stroke="rgb(12,0,12)" stroke-width="1" fill="none" stroke-opacity="0.501961" />
</svg>