<svg xmlns="http://www.w3.org/2000/svg" width="800" height="533" version="1.1"><polygon fill="#3d302a" stroke="#3d302a" stroke-linejoin="miter" stroke-width="90" points="-95 354 -43 762 0 532"/><polygon fill="#55423c" stroke="#55423c" stroke-linejoin="miter" stroke-width="90" points="0 532 -43 762 170 582"/><polygon fill="#2e2b26" stroke="#2e2b26" stroke-linejoin="miter" stroke-width="90" points="-95 354 0 532 217 408"/><polygon fill="#13171a" stroke="#13171a" stroke-linejoin="miter" stroke-width="90" points="0 532 170 582 222 526"/><polygon fill="#212528" stroke="#212528" stroke-linejoin="miter" stroke-width="90" points="217 408 0 532 222 526"/><polygon fill="#f5f1f2" stroke="#f5f1f2" stroke-linejoin="miter" stroke-width="90" points="177 0 -95 354 217 408"/><polygon fill="#363732" stroke="#363732" stroke-linejoin="miter" stroke-width="90" points="0 0 -95 354 177 0"/><polygon fill="#46454a" stroke="#46454a" stroke-linejoin="miter" stroke-width="90" points="177 0 217 408 443 228"/><polygon fill="#acada8" stroke="#acada8" stroke-linejoin="miter" stroke-width="90" points="436 120 177 0 443 228"/><polygon fill="#8b7d72" stroke="#8b7d72" stroke-linejoin="miter" stroke-width="90" points="436 120 443 228 483 172"/><polygon fill="#e1d9d6" stroke="#e1d9d6" stroke-linejoin="miter" stroke-width="90" points="483 172 443 228 488 304"/><polygon fill="#6e4937" stroke="#6e4937" stroke-linejoin="miter" stroke-width="90" points="217 408 222 526 488 304"/><polygon fill="#3c4457" stroke="#3c4457" stroke-linejoin="miter" stroke-width="90" points="443 228 217 408 488 304"/><polygon fill="#535351" stroke="#535351" stroke-linejoin="miter" stroke-width="90" points="177 0 436 120 709 -233"/><polygon fill="#a2745c" stroke="#a2745c" stroke-linejoin="miter" stroke-width="90" points="436 120 483 172 749 -49"/><polygon fill="#c5c2b9" stroke="#c5c2b9" stroke-linejoin="miter" stroke-width="90" points="709 -233 436 120 749 -49"/><polygon fill="#252429" stroke="#252429" stroke-linejoin="miter" stroke-width="90" points="483 172 488 304 702 363"/><polygon fill="#bebdc3" stroke="#bebdc3" stroke-linejoin="miter" stroke-width="90" points="483 172 702 363 799 0"/><polygon fill="#b9b6b1" stroke="#b9b6b1" stroke-linejoin="miter" stroke-width="90" points="749 -49 483 172 799 0"/><polygon fill="#37313b" stroke="#37313b" stroke-linejoin="miter" stroke-width="90" points="222 526 170 582 799 532"/><polygon fill="#151515" stroke="#151515" stroke-linejoin="miter" stroke-width="90" points="488 304 222 526 799 532"/><polygon fill="#26252a" stroke="#26252a" stroke-linejoin="miter" stroke-width="90" points="702 363 488 304 799 532"/><polygon fill="#405351" stroke="#405351" stroke-linejoin="miter" stroke-width="90" points="0 0 177 0 709 -233"/><polygon fill="#62422b" stroke="#62422b" stroke-linejoin="miter" stroke-width="90" points="170 582 -43 762 799 532"/><polygon fill="#96918d" stroke="#96918d" stroke-linejoin="miter" stroke-width="90" points="749 -49 799 0 975 9"/><polygon fill="#96918d" stroke="#96918d" stroke-linejoin="miter" stroke-width="90" points="709 -233 749 -49 975 9"/><polygon fill="#b7bbbe" stroke="#b7bbbe" stroke-linejoin="miter" stroke-width="90" points="799 0 702 363 975 9"/><polygon fill="#786e6d" stroke="#786e6d" stroke-linejoin="miter" stroke-width="90" points="702 363 799 532 975 9"/></svg>