<?xml version="1.0" standalone="yes"?>
<svg width="800" height="533" xmlns="http://www.w3.org/2000/svg" version="1.1" >
	
	<polygon points="-95,354 -43,762 0,532" fill="#3d302a" stroke="#3d302a" stroke-width="90" stroke-linejoin="miter"/>
	<polygon points="0,532 -43,762 170,582" fill="#55423c" stroke="#55423c" stroke-width="90" stroke-linejoin="miter"/>
	<polygon points="-95,354 0,532 217,408" fill="#2e2b26" stroke="#2e2b26" stroke-width="90" stroke-linejoin="miter"/>
	<polygon points="0,532 170,582 222,526" fill="#13171a" stroke="#13171a" stroke-width="90" stroke-linejoin="miter"/>
	<polygon points="217,408 0,532 222,526" fill="#212528" stroke="#212528" stroke-width="90" stroke-linejoin="miter"/>
	<polygon points="177,0 -95,354 217,408" fill="#f5f1f2" stroke="#f5f1f2" stroke-width="90" stroke-linejoin="miter"/>
	<polygon points="0,0 -95,354 177,0" fill="#363732" stroke="#363732" stroke-width="90" stroke-linejoin="miter"/>
	<polygon points="177,0 217,408 443,228" fill="#46454a" stroke="#46454a" stroke-width="90" stroke-linejoin="miter"/>
	<polygon points="436,120 177,0 443,228" fill="#acada8" stroke="#acada8" stroke-width="90" stroke-linejoin="miter"/>
	<polygon points="436,120 443,228 483,172" fill="#8b7d72" stroke="#8b7d72" stroke-width="90" stroke-linejoin="miter"/>
	<polygon points="483,172 443,228 488,304" fill="#e1d9d6" stroke="#e1d9d6" stroke-width="90" stroke-linejoin="miter"/>
	<polygon points="217,408 222,526 488,304" fill="#6e4937" stroke="#6e4937" stroke-width="90" stroke-linejoin="miter"/>
	<polygon points="443,228 217,408 488,304" fill="#3c4457" stroke="#3c4457" stroke-width="90" stroke-linejoin="miter"/>
	<polygon points="177,0 436,120 709,-233" fill="#535351" stroke="#535351" stroke-width="90" stroke-linejoin="miter"/>
	<polygon points="436,120 483,172 749,-49" fill="#a2745c" stroke="#a2745c" stroke-width="90" stroke-linejoin="miter"/>
	<polygon points="709,-233 436,120 749,-49" fill="#c5c2b9" stroke="#c5c2b9" stroke-width="90" stroke-linejoin="miter"/>
	<polygon points="483,172 488,304 702,363" fill="#252429" stroke="#252429" stroke-width="90" stroke-linejoin="miter"/>
	<polygon points="483,172 702,363 799,0" fill="#bebdc3" stroke="#bebdc3" stroke-width="90" stroke-linejoin="miter"/>
	<polygon points="749,-49 483,172 799,0" fill="#b9b6b1" stroke="#b9b6b1" stroke-width="90" stroke-linejoin="miter"/>
	<polygon points="222,526 170,582 799,532" fill="#37313b" stroke="#37313b" stroke-width="90" stroke-linejoin="miter"/>
	<polygon points="488,304 222,526 799,532" fill="#151515" stroke="#151515" stroke-width="90" stroke-linejoin="miter"/>
	<polygon points="702,363 488,304 799,532" fill="#26252a" stroke="#26252a" stroke-width="90" stroke-linejoin="miter"/>
	<polygon points="0,0 177,0 709,-233" fill="#405351" stroke="#405351" stroke-width="90" stroke-linejoin="miter"/>
	<polygon points="170,582 -43,762 799,532" fill="#62422b" stroke="#62422b" stroke-width="90" stroke-linejoin="miter"/>
	<polygon points="749,-49 799,0 975,9" fill="#96918d" stroke="#96918d" stroke-width="90" stroke-linejoin="miter"/>
	<polygon points="709,-233 749,-49 975,9" fill="#96918d" stroke="#96918d" stroke-width="90" stroke-linejoin="miter"/>
	<polygon points="799,0 702,363 975,9" fill="#b7bbbe" stroke="#b7bbbe" stroke-width="90" stroke-linejoin="miter"/>
	<polygon points="702,363 799,532 975,9" fill="#786e6d" stroke="#786e6d" stroke-width="90" stroke-linejoin="miter"/>
	
</svg>