<svg xmlns="http://www.w3.org/2000/svg" width="256" height="144" baseProfile="tiny" version="1.2" viewBox="0 0 256 144"><rect id="0" width="256" height="144" x="0" y="0" fill="#8C7E77" fill-opacity="1"/><polygon id="1" fill="#FFF" fill-opacity=".502" points="22 69 256 0 0 0"/><polygon id="2" fill="#420E00" fill-opacity=".502" points="256 55 256 144 1 144"/><polygon id="3" fill="#291205" fill-opacity=".502" points="131 132 0 144 0 72"/><polygon id="4" fill="#CCD2D7" fill-opacity=".502" points="0 0 109 85 256 6"/><polygon id="5" fill="#95989C" fill-opacity=".502" points="150 0 256 0 135 140"/><polygon id="6" fill="#FFFFF4" fill-opacity=".502" points="224 120 236 136 190 129"/><polygon id="7" fill="#0E1908" fill-opacity=".502" points="256 127 189 93 256 42"/><polygon id="8" fill="#FFFFFD" fill-opacity=".502" points="141 0 100 48 36 0"/><polygon id="9" fill="#C1A48D" fill-opacity=".502" points="7 142 30 123 113 111"/><polygon id="10" fill="#AF3F15" fill-opacity=".502" points="46 144 198 139 210 104"/><polygon id="11" fill="#807E75" fill-opacity=".502" points="0 48 123 125 166 75"/><polygon id="12" fill="#080400" fill-opacity=".502" points="43 106 1 144 0 90"/><polygon id="13" fill="#B1AEAE" fill-opacity=".502" points="0 56 0 0 97 74"/><polygon id="14" fill="#8694A1" fill-opacity=".502" points="233 74 149 33 256 10"/><polygon id="15" fill="#010000" fill-opacity=".502" points="256 129 256 144 202 138"/><polygon id="16" fill="#000" fill-opacity=".502" points="41 134 0 142 77 144"/><polygon id="17" fill="#F0D0B3" fill-opacity=".502" points="196 100 229 98 233 91"/><polygon id="18" fill="#725C58" fill-opacity=".502" points="26 56 94 114 0 84"/><polygon id="19" fill="#A9AAA6" fill-opacity=".502" points="162 112 78 114 181 99"/><polygon id="20" fill="#15231A" fill-opacity=".502" points="236 44 256 39 254 74"/><polygon id="21" fill="#001406" fill-opacity=".502" points="192 101 236 76 192 72"/><polygon id="22" fill="#9D7E6A" fill-opacity=".502" points="19 117 68 129 19 137"/><polygon id="23" fill="#90857C" fill-opacity=".502" points="178 125 152 144 221 134"/><polygon id="24" fill="#090101" fill-opacity=".502" points="63 134 66 122 151 111"/><polygon id="25" fill="#400000" fill-opacity=".502" points="175 129 141 144 98 144"/><polygon id="26" fill="#AE2800" fill-opacity=".502" points="208 124 256 115 207 106"/><polygon id="27" fill="#F7F1EC" fill-opacity=".502" points="56 0 109 39 170 20"/><polygon id="28" fill="#39391F" fill-opacity=".502" points="116 95 76 115 124 106"/><polygon id="29" fill="#9A9B9F" fill-opacity=".502" points="92 51 249 70 147 23"/><polygon id="30" fill="#7F8183" fill-opacity=".502" points="33 99 67 55 0 55"/><polygon id="31" fill="#EFCDA9" fill-opacity=".502" points="217 135 198 125 245 118"/><polygon id="32" fill="#D0531F" fill-opacity=".502" points="108 144 200 104 80 144"/><polygon id="33" fill="#0039A1" fill-opacity=".502" points="157 119 161 98 170 116"/><polygon id="34" fill="#000" fill-opacity=".502" points="29 95 37 111 0 124"/><polygon id="35" fill="#000" fill-opacity=".502" points="185 103 256 98 256 112"/><polygon id="36" fill="#34381F" fill-opacity=".502" points="133 71 152 81 130 86"/><polygon id="37" fill="#8E959D" fill-opacity=".502" points="172 0 256 0 256 48"/><polygon id="38" fill="#97806C" fill-opacity=".502" points="28 91 65 144 57 117"/><polygon id="39" fill="#9A897A" fill-opacity=".502" points="170 81 105 96 198 101"/><polygon id="40" fill="#691E02" fill-opacity=".502" points="174 127 239 144 195 144"/><polygon id="41" fill="#9E7965" fill-opacity=".502" points="44 112 0 124 98 105"/><polygon id="42" fill="#B5B3B3" fill-opacity=".502" points="155 20 255 0 256 19"/><polygon id="43" fill="#000" fill-opacity=".502" points="0 143 54 133 60 144"/><polygon id="44" fill="#F0CAA8" fill-opacity=".502" points="156 98 147 126 157 117"/><polygon id="45" fill="#4B542D" fill-opacity=".502" points="228 102 222 66 256 74"/><polygon id="46" fill="#714431" fill-opacity=".502" points="0 101 74 96 57 82"/><polygon id="47" fill="#BA8669" fill-opacity=".502" points="170 130 166 107 185 124"/><polygon id="48" fill="#882707" fill-opacity=".502" points="174 111 174 126 109 144"/><polygon id="49" fill="#FFEFD2" fill-opacity=".502" points="207 134 198 128 219 135"/><polygon id="50" fill="#B9B4AD" fill-opacity=".502" points="0 56 39 49 0 0"/><polygon id="51" fill="#8A4A2B" fill-opacity=".502" points="256 125 180 119 256 118"/><polygon id="52" fill="#E7DAD1" fill-opacity=".502" points="109 41 59 54 38 0"/><polygon id="53" fill="#000" fill-opacity=".502" points="23 95 34 114 1 121"/><polygon id="54" fill="#BBAA9A" fill-opacity=".502" points="171 92 169 70 198 62"/><polygon id="55" fill="#0B101A" fill-opacity=".502" points="0 76 42 77 0 78"/><polygon id="56" fill="#886D61" fill-opacity=".502" points="2 127 0 117 17 130"/><polygon id="57" fill="#B18C7A" fill-opacity=".502" points="66 122 49 113 92 116"/><polygon id="58" fill="#A7451F" fill-opacity=".502" points="86 130 111 129 56 144"/><polygon id="59" fill="#75838E" fill-opacity=".502" points="256 17 162 27 256 40"/><polygon id="60" fill="#20110E" fill-opacity=".502" points="63 102 72 114 40 100"/><polygon id="61" fill="#6A4E3B" fill-opacity=".502" points="0 83 -18 126 28 91"/><polygon id="62" fill="#FFE4CA" fill-opacity=".502" points="117 115 148 109 116 114"/><polygon id="63" fill="#080E1B" fill-opacity=".502" points="10 121 4 126 39 120"/><polygon id="64" fill="#7F6B5C" fill-opacity=".502" points="140 109 175 59 113 112"/><polygon id="65" fill="#6F767E" fill-opacity=".502" points="71 72 5 80 0 85"/><polygon id="66" fill="#4A1D0B" fill-opacity=".502" points="148 117 129 123 146 108"/><polygon id="67" fill="#3D4A27" fill-opacity=".502" points="183 81 256 69 194 71"/><polygon id="68" fill="#000" fill-opacity=".502" points="73 120 78 130 60 144"/><polygon id="69" fill="#3F3C2B" fill-opacity=".502" points="108 93 99 82 104 132"/><polygon id="70" fill="#000" fill-opacity=".502" points="246 63 256 87 255 114"/><polygon id="71" fill="#868A8D" fill-opacity=".502" points="0 56 0 75 80 70"/><polygon id="72" fill="#0D110D" fill-opacity=".502" points="215 90 182 101 233 91"/><polygon id="73" fill="#AA9C97" fill-opacity=".502" points="89 57 135 109 120 62"/><polygon id="74" fill="#C4C2BF" fill-opacity=".502" points="140 26 134 0 190 21"/><polygon id="75" fill="#FFF" fill-opacity=".502" points="149 141 148 143 152 144"/><polygon id="76" fill="#A99583" fill-opacity=".502" points="74 108 54 112 131 86"/><polygon id="77" fill="#C8AF9B" fill-opacity=".502" points="149 112 157 102 132 104"/><polygon id="78" fill="#A3978E" fill-opacity=".502" points="187 83 147 96 177 61"/><polygon id="79" fill="#2E0D00" fill-opacity=".502" points="256 124 226 136 233 144"/><polygon id="80" fill="#9D816E" fill-opacity=".502" points="65 99 59 144 63 134"/><polygon id="81" fill="#867E79" fill-opacity=".502" points="241 141 251 138 256 142"/><polygon id="82" fill="#393730" fill-opacity=".502" points="44 115 80 102 80 97"/><polygon id="83" fill="#99999E" fill-opacity=".502" points="228 19 240 0 129 0"/><polygon id="84" fill="#928E8E" fill-opacity=".502" points="155 51 95 75 247 53"/><polygon id="85" fill="#705B4C" fill-opacity=".502" points="87 84 171 102 158 102"/><polygon id="86" fill="#91887F" fill-opacity=".502" points="88 120 103 109 87 63"/><polygon id="87" fill="#1C1E14" fill-opacity=".502" points="228 47 255 47 256 55"/><polygon id="88" fill="#BA705B" fill-opacity=".502" points="65 103 51 100 77 90"/><polygon id="89" fill="#C4BBB7" fill-opacity=".502" points="72 50 -3 -27 0 27"/><polygon id="90" fill="#000" fill-opacity=".502" points="17 134 0 142 0 138"/><polygon id="91" fill="#1B1613" fill-opacity=".502" points="83 113 45 109 99 111"/><polygon id="92" fill="#94908C" fill-opacity=".502" points="35 83 69 74 128 77"/><polygon id="93" fill="#D66735" fill-opacity=".502" points="86 144 156 119 156 125"/><polygon id="94" fill="#E2763F" fill-opacity=".502" points="169 116 201 106 185 107"/><polygon id="95" fill="#91939C" fill-opacity=".502" points="167 30 242 66 216 19"/><polygon id="96" fill="#4A4034" fill-opacity=".502" points="206 88 101 103 142 100"/><polygon id="97" fill="#583A2C" fill-opacity=".502" points="91 114 58 120 19 124"/><polygon id="98" fill="#1A0A08" fill-opacity=".502" points="70 127 117 127 109 116"/><polygon id="99" fill="#A8AAAF" fill-opacity=".502" points="67 69 180 43 134 31"/><polygon id="100" fill="#8E2E0B" fill-opacity=".502" points="191 109 158 122 239 107"/><polygon id="101" fill="#322116" fill-opacity=".502" points="127 110 98 110 142 108"/><polygon id="102" fill="#FCFBF8" fill-opacity=".502" points="86 18 135 26 113 0"/><polygon id="103" fill="#967765" fill-opacity=".502" points="63 115 61 132 10 138"/><polygon id="104" fill="#9A9199" fill-opacity=".502" points="165 128 182 121 174 131"/><polygon id="105" fill="#365272" fill-opacity=".502" points="62 79 76 90 77 81"/><polygon id="106" fill="#5F4E48" fill-opacity=".502" points="44 79 62 91 16 75"/><polygon id="107" fill="#C7A996" fill-opacity=".502" points="60 81 36 82 73 74"/><polygon id="108" fill="#2F0000" fill-opacity=".502" points="145 144 130 139 145 131"/><polygon id="109" fill="#AEA39D" fill-opacity=".502" points="167 135 188 144 169 133"/><polygon id="110" fill="#170803" fill-opacity=".502" points="256 139 206 138 256 131"/><polygon id="111" fill="#0A0B09" fill-opacity=".502" points="231 68 191 92 214 94"/><polygon id="112" fill="#8C5C41" fill-opacity=".502" points="236 138 256 116 241 119"/><polygon id="113" fill="#D1BCAC" fill-opacity=".502" points="149 102 155 108 149 125"/><polygon id="114" fill="#B24015" fill-opacity=".502" points="77 138 53 144 111 144"/><polygon id="115" fill="#C2A291" fill-opacity=".502" points="234 99 225 97 193 100"/><polygon id="116" fill="#000" fill-opacity=".502" points="0 143 52 144 63 139"/><polygon id="117" fill="#86857B" fill-opacity=".502" points="206 77 196 64 239 51"/><polygon id="118" fill="#070000" fill-opacity=".502" points="193 115 187 116 194 108"/><polygon id="119" fill="#FFE9CB" fill-opacity=".502" points="112 112 115 115 133 111"/><polygon id="120" fill="#839EB4" fill-opacity=".502" points="14 82 0 80 0 84"/><polygon id="121" fill="#878E95" fill-opacity=".502" points="187 24 158 25 110 42"/><polygon id="122" fill="#4E443F" fill-opacity=".502" points="116 90 78 93 119 91"/><polygon id="123" fill="#897F74" fill-opacity=".502" points="21 76 31 67 36 103"/><polygon id="124" fill="#CBB7A4" fill-opacity=".502" points="27 73 0 73 4 75"/><polygon id="125" fill="#3F2825" fill-opacity=".502" points="167 86 169 86 152 103"/><polygon id="126" fill="#7D8086" fill-opacity=".502" points="85 52 0 60 30 63"/><polygon id="127" fill="#799064" fill-opacity=".502" points="252 57 256 68 256 78"/><polygon id="128" fill="#634E43" fill-opacity=".502" points="197 131 180 144 152 144"/></svg>