<svg xmlns="http://www.w3.org/2000/svg" width="256" height="144" baseProfile="tiny" version="1.2" viewBox="0 0 256 144"><rect id="0" width="256" height="144" x="0" y="0" fill="#494941" fill-opacity="1"/><polygon id="1" fill="#A6A7C5" fill-opacity=".502" points="45 33 256 0 0 0"/><polygon id="2" fill="#070905" fill-opacity=".502" points="256 77 256 144 0 142"/><polygon id="3" fill="#A4A0AD" fill-opacity=".502" points="121 4 256 14 232 39"/><polygon id="4" fill="#10130C" fill-opacity=".502" points="0 144 89 144 53 59"/><polygon id="5" fill="#E6EFFF" fill-opacity=".502" points="65 0 82 25 99 0"/><polygon id="6" fill="#000" fill-opacity=".502" points="123 22 98 -1 134 6"/><polygon id="7" fill="#6B634D" fill-opacity=".502" points="84 4 254 36 121 90"/><polygon id="8" fill="#E5DFE5" fill-opacity=".502" points="25 11 0 10 -17 -31"/><polygon id="9" fill="#6C604A" fill-opacity=".502" points="24 13 0 54 98 25"/><polygon id="10" fill="#CFD0DD" fill-opacity=".502" points="170 25 198 0 169 2"/><polygon id="11" fill="#11120F" fill-opacity=".502" points="0 73 37 144 0 144"/><polygon id="12" fill="#493439" fill-opacity=".502" points="218 0 179 65 236 2"/><polygon id="13" fill="#F4E4FC" fill-opacity=".502" points="224 7 240 25 245 15"/><polygon id="14" fill="#686D59" fill-opacity=".502" points="101 134 96 116 166 85"/><polygon id="15" fill="#D7C7C2" fill-opacity=".502" points="147 1 159 10 125 34"/><polygon id="16" fill="#DEE2FB" fill-opacity=".502" points="112 13 91 0 106 21"/><polygon id="17" fill="#52583F" fill-opacity=".502" points="25 0 23 136 54 99"/><polygon id="18" fill="#0B1114" fill-opacity=".502" points="63 8 76 32 55 18"/><polygon id="19" fill="#D7EAFF" fill-opacity=".502" points="52 20 43 0 40 15"/><polygon id="20" fill="#2C2C28" fill-opacity=".502" points="104 74 88 31 92 0"/><polygon id="21" fill="#937566" fill-opacity=".502" points="144 25 84 60 95 35"/><polygon id="22" fill="#0C0C08" fill-opacity=".502" points="24 144 91 107 56 100"/><polygon id="23" fill="#FFF" fill-opacity=".502" points="17 17 21 0 23 18"/><polygon id="24" fill="#F3F7FF" fill-opacity=".502" points="90 12 88 24 64 0"/><polygon id="25" fill="#000" fill-opacity=".502" points="170 14 150 17 147 25"/><polygon id="26" fill="#3C3C3A" fill-opacity=".502" points="139 0 137 33 106 18"/><polygon id="27" fill="#20262B" fill-opacity=".502" points="27 45 60 55 130 144"/><polygon id="28" fill="#53563F" fill-opacity=".502" points="186 14 251 93 125 80"/><polygon id="29" fill="#9A8D7E" fill-opacity=".502" points="22 25 39 33 8 53"/><polygon id="30" fill="#B5ABBF" fill-opacity=".502" points="192 17 256 19 256 11"/><polygon id="31" fill="#1C1F0C" fill-opacity=".502" points="126 52 96 29 154 57"/><polygon id="32" fill="#161811" fill-opacity=".502" points="150 102 163 144 191 67"/><polygon id="33" fill="#857B67" fill-opacity=".502" points="201 92 185 31 160 13"/><polygon id="34" fill="#1F252C" fill-opacity=".502" points="37 13 0 51 29 6"/><polygon id="35" fill="#4F374B" fill-opacity=".502" points="212 20 254 0 206 0"/><polygon id="36" fill="#75756E" fill-opacity=".502" points="256 142 227 142 230 132"/><polygon id="37" fill="#646955" fill-opacity=".502" points="256 45 169 100 181 103"/><polygon id="38" fill="#221C19" fill-opacity=".502" points="210 52 241 6 228 34"/><polygon id="39" fill="#C8C2C5" fill-opacity=".502" points="217 28 241 -6 224 31"/><polygon id="40" fill="#84866E" fill-opacity=".502" points="155 98 150 33 166 88"/><polygon id="41" fill="#A4B5EE" fill-opacity=".502" points="210 17 198 -11 199 24"/><polygon id="42" fill="#97AD99" fill-opacity=".502" points="109 53 119 50 96 31"/><polygon id="43" fill="#353017" fill-opacity=".502" points="108 82 28 23 105 65"/><polygon id="44" fill="#000800" fill-opacity=".502" points="144 97 147 72 159 70"/><polygon id="45" fill="#102254" fill-opacity=".502" points="57 28 49 18 70 6"/><polygon id="46" fill="#130000" fill-opacity=".502" points="36 53 20 38 20 52"/><polygon id="47" fill="#BAC098" fill-opacity=".502" points="40 67 49 61 33 57"/><polygon id="48" fill="#3D2420" fill-opacity=".502" points="163 54 200 34 147 43"/><polygon id="49" fill="#8B8876" fill-opacity=".502" points="200 29 218 81 210 81"/><polygon id="50" fill="#072989" fill-opacity=".502" points="44 0 50 0 60 26"/><polygon id="51" fill="#0B0200" fill-opacity=".502" points="9 6 17 0 11 0"/><polygon id="52" fill="#000010" fill-opacity=".502" points="178 30 182 13 189 13"/><polygon id="53" fill="#54584E" fill-opacity=".502" points="140 118 157 144 154 108"/><polygon id="54" fill="#1D1928" fill-opacity=".502" points="245 33 248 0 256 0"/><polygon id="55" fill="#B5D3FF" fill-opacity=".502" points="29 6 51 9 58 16"/><polygon id="56" fill="#8D7B68" fill-opacity=".502" points="71 12 35 64 79 18"/><polygon id="57" fill="#292C2D" fill-opacity=".502" points="4 61 0 130 47 144"/><polygon id="58" fill="#101413" fill-opacity=".502" points="194 94 206 53 206 79"/><polygon id="59" fill="#404452" fill-opacity=".502" points="228 24 199 8 244 26"/><polygon id="60" fill="#0F1009" fill-opacity=".502" points="133 98 140 144 114 144"/><polygon id="61" fill="#8B8D77" fill-opacity=".502" points="113 107 133 98 166 94"/><polygon id="62" fill="#312332" fill-opacity=".502" points="155 0 169 7 147 3"/><polygon id="63" fill="#3F4947" fill-opacity=".502" points="101 12 96 62 93 0"/><polygon id="64" fill="#B16F6D" fill-opacity=".502" points="165 40 164 34 102 35"/><polygon id="65" fill="#141A0E" fill-opacity=".502" points="140 43 111 59 142 53"/><polygon id="66" fill="#2B1E1B" fill-opacity=".502" points="110 41 159 30 114 44"/><polygon id="67" fill="#C4C1BA" fill-opacity=".502" points="145 28 140 30 146 0"/><polygon id="68" fill="#B0AFBB" fill-opacity=".502" points="143 13 111 -4 130 0"/><polygon id="69" fill="#687A56" fill-opacity=".502" points="82 81 160 57 148 48"/><polygon id="70" fill="#1B1F11" fill-opacity=".502" points="74 46 5 69 72 41"/><polygon id="71" fill="#21261E" fill-opacity=".502" points="229 81 208 98 228 54"/><polygon id="72" fill="#62714C" fill-opacity=".502" points="55 65 76 70 86 36"/><polygon id="73" fill="#908C7D" fill-opacity=".502" points="0 23 2 0 9 34"/><polygon id="74" fill="#01091D" fill-opacity=".502" points="98 0 133 10 108 10"/><polygon id="75" fill="#00092A" fill-opacity=".502" points="137 13 144 0 141 0"/><polygon id="76" fill="#1D2711" fill-opacity=".502" points="115 72 109 116 120 99"/><polygon id="77" fill="#312F2E" fill-opacity=".502" points="134 65 105 62 78 36"/><polygon id="78" fill="#7E876B" fill-opacity=".502" points="46 108 33 119 50 90"/><polygon id="79" fill="#191C26" fill-opacity=".502" points="118 30 110 30 117 2"/><polygon id="80" fill="#3E4237" fill-opacity=".502" points="78 137 70 109 120 144"/><polygon id="81" fill="#62655D" fill-opacity=".502" points="187 118 191 144 183 144"/><polygon id="82" fill="#B99095" fill-opacity=".502" points="245 17 256 21 256 4"/><polygon id="83" fill="#DEE0F9" fill-opacity=".502" points="87 4 71 0 60 5"/><polygon id="84" fill="#2B2F3B" fill-opacity=".502" points="158 32 145 28 174 0"/><polygon id="85" fill="#FCB3B0" fill-opacity=".502" points="69 25 67 35 61 31"/><polygon id="86" fill="#0E173E" fill-opacity=".502" points="89 9 86 0 84 0"/><polygon id="87" fill="#9C9B74" fill-opacity=".502" points="140 13 124 23 142 27"/><polygon id="88" fill="#1C2317" fill-opacity=".502" points="191 76 175 100 185 55"/><polygon id="89" fill="#000902" fill-opacity=".502" points="168 51 175 57 156 55"/><polygon id="90" fill="#0F1817" fill-opacity=".502" points="193 48 213 17 207 19"/><polygon id="91" fill="#858B80" fill-opacity=".502" points="185 88 204 89 196 76"/><polygon id="92" fill="#897460" fill-opacity=".502" points="199 37 192 24 246 63"/><polygon id="93" fill="#AB7D6E" fill-opacity=".502" points="189 24 199 26 163 48"/><polygon id="94" fill="#303720" fill-opacity=".502" points="225 38 256 102 247 58"/><polygon id="95" fill="#373123" fill-opacity=".502" points="215 56 182 16 184 26"/><polygon id="96" fill="#37261C" fill-opacity=".502" points="79 31 33 20 69 25"/><polygon id="97" fill="#070817" fill-opacity=".502" points="17 24 11 13 9 35"/><polygon id="98" fill="#040300" fill-opacity=".502" points="180 144 159 144 155 110"/><polygon id="99" fill="#4A3F5E" fill-opacity=".502" points="51 5 67 0 22 0"/><polygon id="100" fill="#A2A8B8" fill-opacity=".502" points="239 0 238 8 226 0"/><polygon id="101" fill="#060406" fill-opacity=".502" points="61 115 87 144 51 144"/><polygon id="102" fill="#51564E" fill-opacity=".502" points="190 131 170 90 174 66"/><polygon id="103" fill="#626667" fill-opacity=".502" points="201 138 215 155 202 125"/><polygon id="104" fill="#91B4FF" fill-opacity=".502" points="181 0 206 6 203 -7"/><polygon id="105" fill="#C1817B" fill-opacity=".502" points="130 38 129 22 115 36"/><polygon id="106" fill="#FFA5AB" fill-opacity=".502" points="10 49 17 45 18 51"/><polygon id="107" fill="#FFF" fill-opacity=".502" points="20 0 18 19 18 0"/><polygon id="108" fill="#1A1D0E" fill-opacity=".502" points="31 113 41 103 36 67"/><polygon id="109" fill="#6B7455" fill-opacity=".502" points="229 87 244 68 240 37"/><polygon id="110" fill="#191A16" fill-opacity=".502" points="139 113 256 119 242 91"/><polygon id="111" fill="#21230A" fill-opacity=".502" points="25 68 11 65 -1 39"/><polygon id="112" fill="#2B130D" fill-opacity=".502" points="126 24 148 35 117 26"/><polygon id="113" fill="#767E64" fill-opacity=".502" points="71 88 64 100 84 101"/><polygon id="114" fill="#5A5F6D" fill-opacity=".502" points="109 141 114 144 76 73"/><polygon id="115" fill="#362715" fill-opacity=".502" points="221 57 213 32 207 47"/><polygon id="116" fill="#846D61" fill-opacity=".502" points="91 68 157 34 110 50"/><polygon id="117" fill="#D2D2E4" fill-opacity=".502" points="141 15 187 5 168 11"/><polygon id="118" fill="#2A333C" fill-opacity=".502" points="214 0 223 44 207 0"/><polygon id="119" fill="#7D7159" fill-opacity=".502" points="31 52 0 71 0 61"/><polygon id="120" fill="#898666" fill-opacity=".502" points="184 52 230 38 191 60"/><polygon id="121" fill="#0D0700" fill-opacity=".502" points="0 44 7 39 22 39"/><polygon id="122" fill="#7D8165" fill-opacity=".502" points="256 84 236 89 249 91"/><polygon id="123" fill="#ABAD8A" fill-opacity=".502" points="105 19 110 32 96 26"/><polygon id="124" fill="#1E2124" fill-opacity=".502" points="83 71 103 144 88 128"/><polygon id="125" fill="#070907" fill-opacity=".502" points="121 43 151 29 127 43"/><polygon id="126" fill="#9D8972" fill-opacity=".502" points="249 51 244 52 219 28"/><polygon id="127" fill="#294B97" fill-opacity=".502" points="199 10 198 19 187 5"/><polygon id="128" fill="#BB8865" fill-opacity=".502" points="81 38 65 40 65 43"/><polygon id="129" fill="#080A0A" fill-opacity=".502" points="71 8 51 9 66 12"/><polygon id="130" fill="#312114" fill-opacity=".502" points="256 52 225 33 257 44"/><polygon id="131" fill="#9BAC90" fill-opacity=".502" points="26 41 35 30 19 26"/><polygon id="132" fill="#6C7963" fill-opacity=".502" points="129 104 124 79 114 117"/><polygon id="133" fill="#CC6066" fill-opacity=".502" points="229 13 217 7 220 0"/><polygon id="134" fill="#5B5C5A" fill-opacity=".502" points="241 124 249 142 247 111"/><polygon id="135" fill="#869FE5" fill-opacity=".502" points="53 15 38 24 61 4"/><polygon id="136" fill="#1B242F" fill-opacity=".502" points="138 96 126 81 121 52"/><polygon id="137" fill="#8D8778" fill-opacity=".502" points="181 58 164 0 172 1"/><polygon id="138" fill="#5C5E56" fill-opacity=".502" points="232 144 224 85 236 144"/><polygon id="139" fill="#27261D" fill-opacity=".502" points="70 89 66 105 110 39"/><polygon id="140" fill="#202018" fill-opacity=".502" points="154 94 147 63 153 60"/><polygon id="141" fill="#0E1824" fill-opacity=".502" points="92 0 91 0 95 42"/><polygon id="142" fill="#1D1C17" fill-opacity=".502" points="226 122 243 83 175 132"/><polygon id="143" fill="#84A1F1" fill-opacity=".502" points="55 26 57 3 58 17"/><polygon id="144" fill="#737B5E" fill-opacity=".502" points="133 103 99 125 106 126"/><polygon id="145" fill="#757F6F" fill-opacity=".502" points="60 53 44 50 46 37"/><polygon id="146" fill="#C3D0EC" fill-opacity=".502" points="74 21 91 4 88 18"/><polygon id="147" fill="#697354" fill-opacity=".502" points="205 84 224 77 225 36"/><polygon id="148" fill="#B59FA3" fill-opacity=".502" points="144 0 147 17 149 -3"/><polygon id="149" fill="#070000" fill-opacity=".502" points="17 50 10 66 19 54"/><polygon id="150" fill="#616556" fill-opacity=".502" points="45 97 46 65 52 96"/><polygon id="151" fill="#575D6F" fill-opacity=".502" points="11 85 28 119 0 72"/><polygon id="152" fill="#161610" fill-opacity=".502" points="227 133 214 87 209 144"/><polygon id="153" fill="#CBD7B8" fill-opacity=".502" points="117 46 112 46 116 54"/><polygon id="154" fill="#CFDDF9" fill-opacity=".502" points="16 17 21 0 24 17"/><polygon id="155" fill="#545F43" fill-opacity=".502" points="110 119 73 60 111 90"/><polygon id="156" fill="#0F0E09" fill-opacity=".502" points="162 93 168 89 182 144"/><polygon id="157" fill="#6C7B72" fill-opacity=".502" points="102 33 96 39 124 75"/><polygon id="158" fill="#221D21" fill-opacity=".502" points="102 54 64 68 117 54"/><polygon id="159" fill="#10100F" fill-opacity=".502" points="235 85 256 108 256 144"/><polygon id="160" fill="#747660" fill-opacity=".502" points="163 73 153 35 154 96"/><polygon id="161" fill="#F3F6F9" fill-opacity=".502" points="227 15 221 26 223 32"/><polygon id="162" fill="#141B33" fill-opacity=".502" points="142 8 132 2 142 0"/><polygon id="163" fill="#110400" fill-opacity=".502" points="234 33 238 36 220 33"/><polygon id="164" fill="#0A0C15" fill-opacity=".502" points="28 51 56 55 37 46"/><polygon id="165" fill="#281E0F" fill-opacity=".502" points="183 29 160 32 192 30"/><polygon id="166" fill="#C07968" fill-opacity=".502" points="93 57 86 56 97 42"/><polygon id="167" fill="#2E2C22" fill-opacity=".502" points="218 90 200 88 152 98"/><polygon id="168" fill="#332934" fill-opacity=".502" points="24 14 24 0 38 16"/><polygon id="169" fill="#E6F3FF" fill-opacity=".502" points="186 8 168 -24 191 -9"/><polygon id="170" fill="#210D0A" fill-opacity=".502" points="72 33 81 34 52 42"/><polygon id="171" fill="#85746A" fill-opacity=".502" points="251 31 252 6 256 37"/><polygon id="172" fill="#CCD2EA" fill-opacity=".502" points="39 7 0 9 46 9"/><polygon id="173" fill="#080400" fill-opacity=".502" points="67 45 104 49 90 46"/><polygon id="174" fill="#69674E" fill-opacity=".502" points="82 113 72 125 75 111"/><polygon id="175" fill="#8B9192" fill-opacity=".502" points="0 20 26 18 -7 18"/><polygon id="176" fill="#4E3E45" fill-opacity=".502" points="181 5 176 0 189 -22"/><polygon id="177" fill="#0E0E09" fill-opacity=".502" points="241 38 207 50 230 43"/><polygon id="178" fill="#494E5C" fill-opacity=".502" points="217 86 237 111 236 114"/><polygon id="179" fill="#BED2B8" fill-opacity=".502" points="179 46 189 54 182 45"/><polygon id="180" fill="#2C212A" fill-opacity=".502" points="256 0 238 15 240 0"/><polygon id="181" fill="#090000" fill-opacity=".502" points="157 28 154 37 150 46"/><polygon id="182" fill="#43444D" fill-opacity=".502" points="36 31 37 39 72 95"/><polygon id="183" fill="#090806" fill-opacity=".502" points="231 121 241 113 238 141"/><polygon id="184" fill="#202533" fill-opacity=".502" points="156 68 164 70 176 93"/><polygon id="185" fill="#849677" fill-opacity=".502" points="218 25 225 33 205 31"/><polygon id="186" fill="#CFD6E4" fill-opacity=".502" points="247 15 225 18 243 20"/><polygon id="187" fill="#848D6B" fill-opacity=".502" points="41 108 40 113 25 119"/><polygon id="188" fill="#E0E1F7" fill-opacity=".502" points="86 14 69 14 82 0"/><polygon id="189" fill="#171B25" fill-opacity=".502" points="85 28 91 20 90 47"/><polygon id="190" fill="#000" fill-opacity=".502" points="149 132 153 127 151 106"/><polygon id="191" fill="#D5D3E0" fill-opacity=".502" points="143 20 137 15 161 8"/><polygon id="192" fill="#9B8979" fill-opacity=".502" points="247 39 237 35 236 21"/><polygon id="193" fill="#55613B" fill-opacity=".502" points="36 102 32 58 15 76"/><polygon id="194" fill="#0B0B07" fill-opacity=".502" points="194 119 202 144 191 144"/><polygon id="195" fill="#000" fill-opacity=".502" points="0 51 6 44 -14 46"/><polygon id="196" fill="#767D8F" fill-opacity=".502" points="185 118 166 80 189 124"/><polygon id="197" fill="#0F1110" fill-opacity=".502" points="249 61 248 83 240 84"/><polygon id="198" fill="#1D1B0F" fill-opacity=".502" points="0 123 0 140 45 125"/><polygon id="199" fill="#E5E1CC" fill-opacity=".502" points="118 70 115 68 123 68"/><polygon id="200" fill="#424546" fill-opacity=".502" points="207 107 197 93 207 136"/><polygon id="201" fill="#3C3F2F" fill-opacity=".502" points="144 113 90 138 125 115"/><polygon id="202" fill="#5D6E43" fill-opacity=".502" points="43 60 27 72 31 52"/><polygon id="203" fill="#472822" fill-opacity=".502" points="210 45 225 45 161 33"/><polygon id="204" fill="#322C19" fill-opacity=".502" points="48 26 43 17 48 41"/><polygon id="205" fill="#343328" fill-opacity=".502" points="203 30 212 31 137 63"/><polygon id="206" fill="#907768" fill-opacity=".502" points="219 51 235 22 234 35"/><polygon id="207" fill="#91A782" fill-opacity=".502" points="184 25 201 28 199 33"/><polygon id="208" fill="#938C65" fill-opacity=".502" points="34 16 61 30 53 37"/><polygon id="209" fill="#ECE8F1" fill-opacity=".502" points="103 15 94 0 111 17"/><polygon id="210" fill="#393B46" fill-opacity=".502" points="32 119 33 144 43 144"/><polygon id="211" fill="#050600" fill-opacity=".502" points="0 96 13 102 -10 107"/><polygon id="212" fill="#B48374" fill-opacity=".502" points="149 39 140 29 163 40"/><polygon id="213" fill="#0F140A" fill-opacity=".502" points="119 60 137 29 125 48"/><polygon id="214" fill="#A1BEFF" fill-opacity=".502" points="179 8 167 -15 162 -5"/><polygon id="215" fill="#151519" fill-opacity=".502" points="155 38 157 18 153 43"/><polygon id="216" fill="#777256" fill-opacity=".502" points="140 29 185 30 178 32"/><polygon id="217" fill="#BABEC4" fill-opacity=".502" points="204 18 188 14 199 28"/><polygon id="218" fill="#16141B" fill-opacity=".502" points="36 78 63 83 62 94"/><polygon id="219" fill="#060702" fill-opacity=".502" points="183 81 182 56 188 84"/><polygon id="220" fill="#090B14" fill-opacity=".502" points="70 74 86 96 64 76"/><polygon id="221" fill="#000618" fill-opacity=".502" points="109 19 106 20 110 26"/><polygon id="222" fill="#3D3F51" fill-opacity=".502" points="180 15 188 17 241 0"/><polygon id="223" fill="#9FA4B6" fill-opacity=".502" points="246 21 246 0 241 29"/><polygon id="224" fill="#25292D" fill-opacity=".502" points="153 14 150 34 144 22"/><polygon id="225" fill="#78747E" fill-opacity=".502" points="150 8 107 0 125 5"/><polygon id="226" fill="#928A77" fill-opacity=".502" points="184 30 214 63 211 55"/><polygon id="227" fill="#DA9D90" fill-opacity=".502" points="44 42 47 32 43 37"/><polygon id="228" fill="#000002" fill-opacity=".502" points="122 17 126 9 132 11"/><polygon id="229" fill="#090D13" fill-opacity=".502" points="129 77 126 74 110 70"/><polygon id="230" fill="#F4E6F0" fill-opacity=".502" points="148 0 150 7 143 -2"/><polygon id="231" fill="#6E6359" fill-opacity=".502" points="18 0 0 13 0 14"/><polygon id="232" fill="#5A0D14" fill-opacity=".502" points="224 8 212 12 229 15"/><polygon id="233" fill="#374025" fill-opacity=".502" points="206 68 207 58 179 38"/><polygon id="234" fill="#0E100B" fill-opacity=".502" points="90 72 113 58 98 73"/><polygon id="235" fill="#DEE2EE" fill-opacity=".502" points="177 20 177 0 180 15"/><polygon id="236" fill="#2F2C42" fill-opacity=".502" points="160 5 163 0 168 14"/><polygon id="237" fill="#63686D" fill-opacity=".502" points="256 107 243 86 231 74"/><polygon id="238" fill="#3B3A35" fill-opacity=".502" points="56 59 60 0 56 33"/><polygon id="239" fill="#404632" fill-opacity=".502" points="205 18 230 103 223 58"/><polygon id="240" fill="#2C2535" fill-opacity=".502" points="50 14 57 0 49 7"/><polygon id="241" fill="#0A0B09" fill-opacity=".502" points="83 115 34 127 42 117"/><polygon id="242" fill="#9F858F" fill-opacity=".502" points="197 11 173 -10 179 -26"/><polygon id="243" fill="#100" fill-opacity=".502" points="0 33 -18 26 6 29"/><polygon id="244" fill="#778572" fill-opacity=".502" points="74 20 53 24 96 25"/><polygon id="245" fill="#0F0908" fill-opacity=".502" points="52 36 52 38 30 25"/><polygon id="246" fill="#637453" fill-opacity=".502" points="191 51 198 78 201 48"/><polygon id="247" fill="#0E0F0B" fill-opacity=".502" points="116 31 120 31 129 16"/><polygon id="248" fill="#60624E" fill-opacity=".502" points="17 27 48 43 0 36"/><polygon id="249" fill="#636A60" fill-opacity=".502" points="146 130 161 144 143 116"/><polygon id="250" fill="#0C0D1E" fill-opacity=".502" points="239 24 233 20 256 39"/><polygon id="251" fill="#252F43" fill-opacity=".502" points="122 19 123 0 121 7"/><polygon id="252" fill="#1A1A0D" fill-opacity=".502" points="231 72 221 97 229 65"/><polygon id="253" fill="#737A5E" fill-opacity=".502" points="30 76 22 70 0 67"/><polygon id="254" fill="#0E0F09" fill-opacity=".502" points="149 125 123 147 124 125"/><polygon id="255" fill="#747F66" fill-opacity=".502" points="73 45 80 43 121 46"/><polygon id="256" fill="#413C4A" fill-opacity=".502" points="199 26 202 27 195 19"/><polygon id="257" fill="#7E766F" fill-opacity=".502" points="0 27 0 1 8 15"/><polygon id="258" fill="#5D6F45" fill-opacity=".502" points="120 62 105 86 98 72"/><polygon id="259" fill="#EEA29C" fill-opacity=".502" points="188 30 185 37 188 35"/><polygon id="260" fill="#4558B2" fill-opacity=".502" points="35 9 33 0 43 0"/></svg>