<?xml version="1.0" standalone="no"?>
<svg xmlns="http://www.w3.org/2000/svg" version="1.2" baseProfile="tiny" width="256" height="144" viewBox="0 0 256 144">
<rect x="0" y="0" width="256" height="144" id="0" fill="rgb(140,126,119)" fill-opacity="1" />
<polygon points="22,69 256,0 0,0" id="1" fill="rgb(255,255,255)" fill-opacity="0.501961" />
<polygon points="256,55 256,144 1,144" id="2" fill="rgb(66,14,0)" fill-opacity="0.501961" />
<polygon points="131,132 0,144 0,72" id="3" fill="rgb(41,18,5)" fill-opacity="0.501961" />
<polygon points="0,0 109,85 256,6" id="4" fill="rgb(204,210,215)" fill-opacity="0.501961" />
<polygon points="150,0 256,0 135,140" id="5" fill="rgb(149,152,156)" fill-opacity="0.501961" />
<polygon points="224,120 236,136 190,129" id="6" fill="rgb(255,255,244)" fill-opacity="0.501961" />
<polygon points="256,127 189,93 256,42" id="7" fill="rgb(14,25,8)" fill-opacity="0.501961" />
<polygon points="141,0 100,48 36,0" id="8" fill="rgb(255,255,253)" fill-opacity="0.501961" />
<polygon points="7,142 30,123 113,111" id="9" fill="rgb(193,164,141)" fill-opacity="0.501961" />
<polygon points="46,144 198,139 210,104" id="10" fill="rgb(175,63,21)" fill-opacity="0.501961" />
<polygon points="0,48 123,125 166,75" id="11" fill="rgb(128,126,117)" fill-opacity="0.501961" />
<polygon points="43,106 1,144 0,90" id="12" fill="rgb(8,4,0)" fill-opacity="0.501961" />
<polygon points="0,56 0,0 97,74" id="13" fill="rgb(177,174,174)" fill-opacity="0.501961" />
<polygon points="233,74 149,33 256,10" id="14" fill="rgb(134,148,161)" fill-opacity="0.501961" />
<polygon points="256,129 256,144 202,138" id="15" fill="rgb(1,0,0)" fill-opacity="0.501961" />
<polygon points="41,134 0,142 77,144" id="16" fill="rgb(0,0,0)" fill-opacity="0.501961" />
<polygon points="196,100 229,98 233,91" id="17" fill="rgb(240,208,179)" fill-opacity="0.501961" />
<polygon points="26,56 94,114 0,84" id="18" fill="rgb(114,92,88)" fill-opacity="0.501961" />
<polygon points="162,112 78,114 181,99" id="19" fill="rgb(169,170,166)" fill-opacity="0.501961" />
<polygon points="236,44 256,39 254,74" id="20" fill="rgb(21,35,26)" fill-opacity="0.501961" />
<polygon points="192,101 236,76 192,72" id="21" fill="rgb(0,20,6)" fill-opacity="0.501961" />
<polygon points="19,117 68,129 19,137" id="22" fill="rgb(157,126,106)" fill-opacity="0.501961" />
<polygon points="178,125 152,144 221,134" id="23" fill="rgb(144,133,124)" fill-opacity="0.501961" />
<polygon points="63,134 66,122 151,111" id="24" fill="rgb(9,1,1)" fill-opacity="0.501961" />
<polygon points="175,129 141,144 98,144" id="25" fill="rgb(64,0,0)" fill-opacity="0.501961" />
<polygon points="208,124 256,115 207,106" id="26" fill="rgb(174,40,0)" fill-opacity="0.501961" />
<polygon points="56,0 109,39 170,20" id="27" fill="rgb(247,241,236)" fill-opacity="0.501961" />
<polygon points="116,95 76,115 124,106" id="28" fill="rgb(57,57,31)" fill-opacity="0.501961" />
<polygon points="92,51 249,70 147,23" id="29" fill="rgb(154,155,159)" fill-opacity="0.501961" />
<polygon points="33,99 67,55 0,55" id="30" fill="rgb(127,129,131)" fill-opacity="0.501961" />
<polygon points="217,135 198,125 245,118" id="31" fill="rgb(239,205,169)" fill-opacity="0.501961" />
<polygon points="108,144 200,104 80,144" id="32" fill="rgb(208,83,31)" fill-opacity="0.501961" />
<polygon points="157,119 161,98 170,116" id="33" fill="rgb(0,57,161)" fill-opacity="0.501961" />
<polygon points="29,95 37,111 0,124" id="34" fill="rgb(0,0,0)" fill-opacity="0.501961" />
<polygon points="185,103 256,98 256,112" id="35" fill="rgb(0,0,0)" fill-opacity="0.501961" />
<polygon points="133,71 152,81 130,86" id="36" fill="rgb(52,56,31)" fill-opacity="0.501961" />
<polygon points="172,0 256,0 256,48" id="37" fill="rgb(142,149,157)" fill-opacity="0.501961" />
<polygon points="28,91 65,144 57,117" id="38" fill="rgb(151,128,108)" fill-opacity="0.501961" />
<polygon points="170,81 105,96 198,101" id="39" fill="rgb(154,137,122)" fill-opacity="0.501961" />
<polygon points="174,127 239,144 195,144" id="40" fill="rgb(105,30,2)" fill-opacity="0.501961" />
<polygon points="44,112 0,124 98,105" id="41" fill="rgb(158,121,101)" fill-opacity="0.501961" />
<polygon points="155,20 255,0 256,19" id="42" fill="rgb(181,179,179)" fill-opacity="0.501961" />
<polygon points="0,143 54,133 60,144" id="43" fill="rgb(0,0,0)" fill-opacity="0.501961" />
<polygon points="156,98 147,126 157,117" id="44" fill="rgb(240,202,168)" fill-opacity="0.501961" />
<polygon points="228,102 222,66 256,74" id="45" fill="rgb(75,84,45)" fill-opacity="0.501961" />
<polygon points="0,101 74,96 57,82" id="46" fill="rgb(113,68,49)" fill-opacity="0.501961" />
<polygon points="170,130 166,107 185,124" id="47" fill="rgb(186,134,105)" fill-opacity="0.501961" />
<polygon points="174,111 174,126 109,144" id="48" fill="rgb(136,39,7)" fill-opacity="0.501961" />
<polygon points="207,134 198,128 219,135" id="49" fill="rgb(255,239,210)" fill-opacity="0.501961" />
<polygon points="0,56 39,49 0,0" id="50" fill="rgb(185,180,173)" fill-opacity="0.501961" />
<polygon points="256,125 180,119 256,118" id="51" fill="rgb(138,74,43)" fill-opacity="0.501961" />
<polygon points="109,41 59,54 38,0" id="52" fill="rgb(231,218,209)" fill-opacity="0.501961" />
<polygon points="23,95 34,114 1,121" id="53" fill="rgb(0,0,0)" fill-opacity="0.501961" />
<polygon points="171,92 169,70 198,62" id="54" fill="rgb(187,170,154)" fill-opacity="0.501961" />
<polygon points="0,76 42,77 0,78" id="55" fill="rgb(11,16,26)" fill-opacity="0.501961" />
<polygon points="2,127 0,117 17,130" id="56" fill="rgb(136,109,97)" fill-opacity="0.501961" />
<polygon points="66,122 49,113 92,116" id="57" fill="rgb(177,140,122)" fill-opacity="0.501961" />
<polygon points="86,130 111,129 56,144" id="58" fill="rgb(167,69,31)" fill-opacity="0.501961" />
<polygon points="256,17 162,27 256,40" id="59" fill="rgb(117,131,142)" fill-opacity="0.501961" />
<polygon points="63,102 72,114 40,100" id="60" fill="rgb(32,17,14)" fill-opacity="0.501961" />
<polygon points="0,83 -18,126 28,91" id="61" fill="rgb(106,78,59)" fill-opacity="0.501961" />
<polygon points="117,115 148,109 116,114" id="62" fill="rgb(255,228,202)" fill-opacity="0.501961" />
<polygon points="10,121 4,126 39,120" id="63" fill="rgb(8,14,27)" fill-opacity="0.501961" />
<polygon points="140,109 175,59 113,112" id="64" fill="rgb(127,107,92)" fill-opacity="0.501961" />
<polygon points="71,72 5,80 0,85" id="65" fill="rgb(111,118,126)" fill-opacity="0.501961" />
<polygon points="148,117 129,123 146,108" id="66" fill="rgb(74,29,11)" fill-opacity="0.501961" />
<polygon points="183,81 256,69 194,71" id="67" fill="rgb(61,74,39)" fill-opacity="0.501961" />
<polygon points="73,120 78,130 60,144" id="68" fill="rgb(0,0,0)" fill-opacity="0.501961" />
<polygon points="108,93 99,82 104,132" id="69" fill="rgb(63,60,43)" fill-opacity="0.501961" />
<polygon points="246,63 256,87 255,114" id="70" fill="rgb(0,0,0)" fill-opacity="0.501961" />
<polygon points="0,56 0,75 80,70" id="71" fill="rgb(134,138,141)" fill-opacity="0.501961" />
<polygon points="215,90 182,101 233,91" id="72" fill="rgb(13,17,13)" fill-opacity="0.501961" />
<polygon points="89,57 135,109 120,62" id="73" fill="rgb(170,156,151)" fill-opacity="0.501961" />
<polygon points="140,26 134,0 190,21" id="74" fill="rgb(196,194,191)" fill-opacity="0.501961" />
<polygon points="149,141 148,143 152,144" id="75" fill="rgb(255,255,255)" fill-opacity="0.501961" />
<polygon points="74,108 54,112 131,86" id="76" fill="rgb(169,149,131)" fill-opacity="0.501961" />
<polygon points="149,112 157,102 132,104" id="77" fill="rgb(200,175,155)" fill-opacity="0.501961" />
<polygon points="187,83 147,96 177,61" id="78" fill="rgb(163,151,142)" fill-opacity="0.501961" />
<polygon points="256,124 226,136 233,144" id="79" fill="rgb(46,13,0)" fill-opacity="0.501961" />
<polygon points="65,99 59,144 63,134" id="80" fill="rgb(157,129,110)" fill-opacity="0.501961" />
<polygon points="241,141 251,138 256,142" id="81" fill="rgb(134,126,121)" fill-opacity="0.501961" />
<polygon points="44,115 80,102 80,97" id="82" fill="rgb(57,55,48)" fill-opacity="0.501961" />
<polygon points="228,19 240,0 129,0" id="83" fill="rgb(153,153,158)" fill-opacity="0.501961" />
<polygon points="155,51 95,75 247,53" id="84" fill="rgb(146,142,142)" fill-opacity="0.501961" />
<polygon points="87,84 171,102 158,102" id="85" fill="rgb(112,91,76)" fill-opacity="0.501961" />
<polygon points="88,120 103,109 87,63" id="86" fill="rgb(145,136,127)" fill-opacity="0.501961" />
<polygon points="228,47 255,47 256,55" id="87" fill="rgb(28,30,20)" fill-opacity="0.501961" />
<polygon points="65,103 51,100 77,90" id="88" fill="rgb(186,112,91)" fill-opacity="0.501961" />
<polygon points="72,50 -3,-27 0,27" id="89" fill="rgb(196,187,183)" fill-opacity="0.501961" />
<polygon points="17,134 0,142 0,138" id="90" fill="rgb(0,0,0)" fill-opacity="0.501961" />
<polygon points="83,113 45,109 99,111" id="91" fill="rgb(27,22,19)" fill-opacity="0.501961" />
<polygon points="35,83 69,74 128,77" id="92" fill="rgb(148,144,140)" fill-opacity="0.501961" />
<polygon points="86,144 156,119 156,125" id="93" fill="rgb(214,103,53)" fill-opacity="0.501961" />
<polygon points="169,116 201,106 185,107" id="94" fill="rgb(226,118,63)" fill-opacity="0.501961" />
<polygon points="167,30 242,66 216,19" id="95" fill="rgb(145,147,156)" fill-opacity="0.501961" />
<polygon points="206,88 101,103 142,100" id="96" fill="rgb(74,64,52)" fill-opacity="0.501961" />
<polygon points="91,114 58,120 19,124" id="97" fill="rgb(88,58,44)" fill-opacity="0.501961" />
<polygon points="70,127 117,127 109,116" id="98" fill="rgb(26,10,8)" fill-opacity="0.501961" />
<polygon points="67,69 180,43 134,31" id="99" fill="rgb(168,170,175)" fill-opacity="0.501961" />
<polygon points="191,109 158,122 239,107" id="100" fill="rgb(142,46,11)" fill-opacity="0.501961" />
<polygon points="127,110 98,110 142,108" id="101" fill="rgb(50,33,22)" fill-opacity="0.501961" />
<polygon points="86,18 135,26 113,0" id="102" fill="rgb(252,251,248)" fill-opacity="0.501961" />
<polygon points="63,115 61,132 10,138" id="103" fill="rgb(150,119,101)" fill-opacity="0.501961" />
<polygon points="165,128 182,121 174,131" id="104" fill="rgb(154,145,153)" fill-opacity="0.501961" />
<polygon points="62,79 76,90 77,81" id="105" fill="rgb(54,82,114)" fill-opacity="0.501961" />
<polygon points="44,79 62,91 16,75" id="106" fill="rgb(95,78,72)" fill-opacity="0.501961" />
<polygon points="60,81 36,82 73,74" id="107" fill="rgb(199,169,150)" fill-opacity="0.501961" />
<polygon points="145,144 130,139 145,131" id="108" fill="rgb(47,0,0)" fill-opacity="0.501961" />
<polygon points="167,135 188,144 169,133" id="109" fill="rgb(174,163,157)" fill-opacity="0.501961" />
<polygon points="256,139 206,138 256,131" id="110" fill="rgb(23,8,3)" fill-opacity="0.501961" />
<polygon points="231,68 191,92 214,94" id="111" fill="rgb(10,11,9)" fill-opacity="0.501961" />
<polygon points="236,138 256,116 241,119" id="112" fill="rgb(140,92,65)" fill-opacity="0.501961" />
<polygon points="149,102 155,108 149,125" id="113" fill="rgb(209,188,172)" fill-opacity="0.501961" />
<polygon points="77,138 53,144 111,144" id="114" fill="rgb(178,64,21)" fill-opacity="0.501961" />
<polygon points="234,99 225,97 193,100" id="115" fill="rgb(194,162,145)" fill-opacity="0.501961" />
<polygon points="0,143 52,144 63,139" id="116" fill="rgb(0,0,0)" fill-opacity="0.501961" />
<polygon points="206,77 196,64 239,51" id="117" fill="rgb(134,133,123)" fill-opacity="0.501961" />
<polygon points="193,115 187,116 194,108" id="118" fill="rgb(7,0,0)" fill-opacity="0.501961" />
<polygon points="112,112 115,115 133,111" id="119" fill="rgb(255,233,203)" fill-opacity="0.501961" />
<polygon points="14,82 0,80 0,84" id="120" fill="rgb(131,158,180)" fill-opacity="0.501961" />
<polygon points="187,24 158,25 110,42" id="121" fill="rgb(135,142,149)" fill-opacity="0.501961" />
<polygon points="116,90 78,93 119,91" id="122" fill="rgb(78,68,63)" fill-opacity="0.501961" />
<polygon points="21,76 31,67 36,103" id="123" fill="rgb(137,127,116)" fill-opacity="0.501961" />
<polygon points="27,73 0,73 4,75" id="124" fill="rgb(203,183,164)" fill-opacity="0.501961" />
<polygon points="167,86 169,86 152,103" id="125" fill="rgb(63,40,37)" fill-opacity="0.501961" />
<polygon points="85,52 0,60 30,63" id="126" fill="rgb(125,128,134)" fill-opacity="0.501961" />
<polygon points="252,57 256,68 256,78" id="127" fill="rgb(121,144,100)" fill-opacity="0.501961" />
<polygon points="197,131 180,144 152,144" id="128" fill="rgb(99,78,67)" fill-opacity="0.501961" />
</svg>