<svg xmlns="http://www.w3.org/2000/svg" width="256" height="144" baseProfile="tiny" version="1.2" viewBox="0 0 256 144"><rect id="0" width="256" height="144" x="0" y="0" fill="#46703A" fill-opacity="1"/><rect id="1" width="54" height="70" x="110" y="6" fill="#FF8175" fill-opacity=".502"/><rect id="2" width="89" height="13" x="35" y="123" fill="#FFDC28" fill-opacity=".502"/><rect id="3" width="36" height="31" x="47" y="19" fill="#FFBE68" fill-opacity=".502"/><rect id="4" width="75" height="10" x="133" y="113" fill="#FF3022" fill-opacity=".502"/><rect id="5" width="18" height="143" x="237" y="0" fill="#008B38" fill-opacity=".502"/><rect id="6" width="75" height="9" x="22" y="66" fill="#F92400" fill-opacity=".502"/><circle id="7" cx="0" cy="67" r="52" fill="#00793B" fill-opacity=".502"/><rect id="8" width="18" height="13" x="18" y="6" fill="#FFFF26" fill-opacity=".502"/><rect id="9" width="75" height="15" x="28" y="108" fill="#070008" fill-opacity=".502"/><circle id="10" cx="132" cy="143" r="29" fill="#006834" fill-opacity=".502"/><rect id="11" width="46" height="6" x="191" y="124" fill="#000" fill-opacity=".502"/><circle id="12" cx="94" cy="11" r="6" fill="#FFFF24" fill-opacity=".502"/><rect id="13" width="27" height="61" x="120" y="18" fill="#BEA1A3" fill-opacity=".502"/><rect id="14" width="73" height="8" x="87" y="77" fill="#9B0007" fill-opacity=".502"/><rect id="15" width="30" height="15" x="180" y="27" fill="#E06B85" fill-opacity=".502"/><circle id="16" cx="232" cy="102" r="7" fill="#FFFF25" fill-opacity=".502"/><circle id="17" cx="180" cy="10" r="6" fill="#FFFF23" fill-opacity=".502"/><rect id="18" width="27" height="15" x="50" y="36" fill="#FFED0E" fill-opacity=".502"/><rect id="19" width="24" height="17" x="14" y="111" fill="#A8CC47" fill-opacity=".502"/><rect id="20" width="4" height="65" x="155" y="19" fill="#E50000" fill-opacity=".502"/><rect id="21" width="40" height="8" x="197" y="80" fill="#700000" fill-opacity=".502"/></svg>