<?xml version="1.0" standalone="no"?>
<svg xmlns="http://www.w3.org/2000/svg" version="1.2" baseProfile="tiny" width="256" height="144" viewBox="0 0 256 144">
<rect x="0" y="0" width="256" height="144" id="0" fill="rgb(150,158,165)" fill-opacity="1" />
<line x1="255" y1="77" x2="255" y2="143" id="1" stroke="rgb(0,0,0)" stroke-width="1" fill="none" stroke-opacity="0.501961" />
<line x1="254" y1="78" x2="253" y2="143" id="2" stroke="rgb(0,0,0)" stroke-width="1" fill="none" stroke-opacity="0.501961" />
<line x1="252" y1="79" x2="252" y2="143" id="3" stroke="rgb(0,0,0)" stroke-width="1" fill="none" stroke-opacity="0.501961" />
<line x1="250" y1="143" x2="251" y2="75" id="4" stroke="rgb(0,0,0)" stroke-width="1" fill="none" stroke-opacity="0.501961" />
<line x1="50" y1="104" x2="147" y2="94" id="5" stroke="rgb(0,0,17)" stroke-width="1" fill="none" stroke-opacity="0.501961" />
<line x1="255" y1="143" x2="252" y2="77" id="6" stroke="rgb(0,0,0)" stroke-width="1" fill="none" stroke-opacity="0.501961" />
<line x1="104" y1="115" x2="122" y2="50" id="7" stroke="rgb(153,0,0)" stroke-width="1" fill="none" stroke-opacity="0.501961" />
<line x1="117" y1="102" x2="124" y2="45" id="8" stroke="rgb(255,0,0)" stroke-width="1" fill="none" stroke-opacity="0.501961" />
<line x1="36" y1="129" x2="159" y2="109" id="9" stroke="rgb(0,0,0)" stroke-width="1" fill="none" stroke-opacity="0.501961" />
<line x1="255" y1="87" x2="210" y2="72" id="10" stroke="rgb(0,0,0)" stroke-width="1" fill="none" stroke-opacity="0.501961" />
<line x1="71" y1="16" x2="180" y2="28" id="11" stroke="rgb(0,0,0)" stroke-width="1" fill="none" stroke-opacity="0.501961" />
<line x1="117" y1="53" x2="103" y2="117" id="12" stroke="rgb(134,0,0)" stroke-width="1" fill="none" stroke-opacity="0.501961" />
<line x1="149" y1="96" x2="57" y2="104" id="13" stroke="rgb(0,0,16)" stroke-width="1" fill="none" stroke-opacity="0.501961" />
<line x1="152" y1="78" x2="50" y2="124" id="14" stroke="rgb(0,0,32)" stroke-width="1" fill="none" stroke-opacity="0.501961" />
<line x1="117" y1="93" x2="123" y2="44" id="15" stroke="rgb(255,0,0)" stroke-width="1" fill="none" stroke-opacity="0.501961" />
<line x1="34" y1="20" x2="35" y2="104" id="16" stroke="rgb(0,0,0)" stroke-width="1" fill="none" stroke-opacity="0.501961" />
<line x1="170" y1="103" x2="40" y2="97" id="17" stroke="rgb(0,0,46)" stroke-width="1" fill="none" stroke-opacity="0.501961" />
<line x1="250" y1="89" x2="247" y2="138" id="18" stroke="rgb(0,0,0)" stroke-width="1" fill="none" stroke-opacity="0.501961" />
<line x1="56" y1="114" x2="144" y2="96" id="19" stroke="rgb(0,0,25)" stroke-width="1" fill="none" stroke-opacity="0.501961" />
<line x1="213" y1="74" x2="255" y2="89" id="20" stroke="rgb(0,0,0)" stroke-width="1" fill="none" stroke-opacity="0.501961" />
<line x1="65" y1="123" x2="148" y2="68" id="21" stroke="rgb(0,0,8)" stroke-width="1" fill="none" stroke-opacity="0.501961" />
<line x1="255" y1="86" x2="209" y2="70" id="22" stroke="rgb(0,0,0)" stroke-width="1" fill="none" stroke-opacity="0.501961" />
<line x1="143" y1="94" x2="35" y2="96" id="23" stroke="rgb(0,0,36)" stroke-width="1" fill="none" stroke-opacity="0.501961" />
<line x1="118" y1="47" x2="116" y2="90" id="24" stroke="rgb(255,0,0)" stroke-width="1" fill="none" stroke-opacity="0.501961" />
<line x1="141" y1="92" x2="35" y2="95" id="25" stroke="rgb(0,8,65)" stroke-width="1" fill="none" stroke-opacity="0.501961" />
<line x1="210" y1="69" x2="255" y2="85" id="26" stroke="rgb(0,0,0)" stroke-width="1" fill="none" stroke-opacity="0.501961" />
<line x1="144" y1="96" x2="36" y2="101" id="27" stroke="rgb(0,6,47)" stroke-width="1" fill="none" stroke-opacity="0.501961" />
<line x1="250" y1="75" x2="249" y2="143" id="28" stroke="rgb(0,0,0)" stroke-width="1" fill="none" stroke-opacity="0.501961" />
<line x1="173" y1="100" x2="61" y2="105" id="29" stroke="rgb(0,0,52)" stroke-width="1" fill="none" stroke-opacity="0.501961" />
<line x1="206" y1="66" x2="255" y2="84" id="30" stroke="rgb(0,0,0)" stroke-width="1" fill="none" stroke-opacity="0.501961" />
<line x1="36" y1="121" x2="146" y2="97" id="31" stroke="rgb(0,4,49)" stroke-width="1" fill="none" stroke-opacity="0.501961" />
<line x1="112" y1="52" x2="116" y2="93" id="32" stroke="rgb(255,0,0)" stroke-width="1" fill="none" stroke-opacity="0.501961" />
<line x1="214" y1="76" x2="255" y2="90" id="33" stroke="rgb(0,0,0)" stroke-width="1" fill="none" stroke-opacity="0.501961" />
<line x1="117" y1="88" x2="115" y2="51" id="34" stroke="rgb(255,0,0)" stroke-width="1" fill="none" stroke-opacity="0.501961" />
<line x1="141" y1="59" x2="121" y2="105" id="35" stroke="rgb(0,0,0)" stroke-width="1" fill="none" stroke-opacity="0.501961" />
<line x1="172" y1="106" x2="47" y2="106" id="36" stroke="rgb(0,38,97)" stroke-width="1" fill="none" stroke-opacity="0.501961" />
<line x1="255" y1="91" x2="213" y2="77" id="37" stroke="rgb(0,0,0)" stroke-width="1" fill="none" stroke-opacity="0.501961" />
<line x1="150" y1="77" x2="42" y2="126" id="38" stroke="rgb(0,2,54)" stroke-width="1" fill="none" stroke-opacity="0.501961" />
<line x1="101" y1="44" x2="99" y2="77" id="39" stroke="rgb(255,0,0)" stroke-width="1" fill="none" stroke-opacity="0.501961" />
<line x1="68" y1="44" x2="108" y2="122" id="40" stroke="rgb(0,0,17)" stroke-width="1" fill="none" stroke-opacity="0.501961" />
<line x1="192" y1="117" x2="196" y2="143" id="41" stroke="rgb(0,0,0)" stroke-width="1" fill="none" stroke-opacity="0.501961" />
<line x1="97" y1="72" x2="147" y2="85" id="42" stroke="rgb(93,0,0)" stroke-width="1" fill="none" stroke-opacity="0.501961" />
<line x1="65" y1="42" x2="91" y2="119" id="43" stroke="rgb(0,0,38)" stroke-width="1" fill="none" stroke-opacity="0.501961" />
<line x1="110" y1="42" x2="114" y2="92" id="44" stroke="rgb(255,0,0)" stroke-width="1" fill="none" stroke-opacity="0.501961" />
<line x1="103" y1="79" x2="100" y2="47" id="45" stroke="rgb(255,0,0)" stroke-width="1" fill="none" stroke-opacity="0.501961" />
<line x1="248" y1="140" x2="247" y2="109" id="46" stroke="rgb(0,0,0)" stroke-width="1" fill="none" stroke-opacity="0.501961" />
<line x1="76" y1="123" x2="146" y2="63" id="47" stroke="rgb(0,0,18)" stroke-width="1" fill="none" stroke-opacity="0.501961" />
<line x1="117" y1="46" x2="119" y2="93" id="48" stroke="rgb(255,0,0)" stroke-width="1" fill="none" stroke-opacity="0.501961" />
<line x1="37" y1="119" x2="34" y2="74" id="49" stroke="rgb(0,0,0)" stroke-width="1" fill="none" stroke-opacity="0.501961" />
<line x1="162" y1="84" x2="156" y2="108" id="50" stroke="rgb(0,0,0)" stroke-width="1" fill="none" stroke-opacity="0.501961" />
<line x1="145" y1="26" x2="77" y2="19" id="51" stroke="rgb(0,0,57)" stroke-width="1" fill="none" stroke-opacity="0.501961" />
<line x1="54" y1="123" x2="155" y2="79" id="52" stroke="rgb(0,20,73)" stroke-width="1" fill="none" stroke-opacity="0.501961" />
<line x1="198" y1="117" x2="197" y2="143" id="53" stroke="rgb(0,0,0)" stroke-width="1" fill="none" stroke-opacity="0.501961" />
<line x1="253" y1="75" x2="250" y2="143" id="54" stroke="rgb(0,0,0)" stroke-width="1" fill="none" stroke-opacity="0.501961" />
<line x1="81" y1="61" x2="96" y2="127" id="55" stroke="rgb(0,13,81)" stroke-width="1" fill="none" stroke-opacity="0.501961" />
<line x1="109" y1="87" x2="113" y2="54" id="56" stroke="rgb(255,0,0)" stroke-width="1" fill="none" stroke-opacity="0.501961" />
<line x1="35" y1="113" x2="147" y2="97" id="57" stroke="rgb(0,20,56)" stroke-width="1" fill="none" stroke-opacity="0.501961" />
<line x1="199" y1="121" x2="199" y2="143" id="58" stroke="rgb(0,0,0)" stroke-width="1" fill="none" stroke-opacity="0.501961" />
<line x1="255" y1="82" x2="210" y2="67" id="59" stroke="rgb(0,0,0)" stroke-width="1" fill="none" stroke-opacity="0.501961" />
<line x1="119" y1="107" x2="125" y2="38" id="60" stroke="rgb(129,0,0)" stroke-width="1" fill="none" stroke-opacity="0.501961" />
<line x1="201" y1="143" x2="200" y2="122" id="61" stroke="rgb(0,0,0)" stroke-width="1" fill="none" stroke-opacity="0.501961" />
<line x1="255" y1="88" x2="210" y2="73" id="62" stroke="rgb(0,0,0)" stroke-width="1" fill="none" stroke-opacity="0.501961" />
<line x1="201" y1="121" x2="200" y2="143" id="63" stroke="rgb(0,0,0)" stroke-width="1" fill="none" stroke-opacity="0.501961" />
<line x1="113" y1="122" x2="145" y2="60" id="64" stroke="rgb(0,0,5)" stroke-width="1" fill="none" stroke-opacity="0.501961" />
<line x1="195" y1="143" x2="189" y2="117" id="65" stroke="rgb(0,0,0)" stroke-width="1" fill="none" stroke-opacity="0.501961" />
<line x1="101" y1="79" x2="102" y2="45" id="66" stroke="rgb(255,0,0)" stroke-width="1" fill="none" stroke-opacity="0.501961" />
<line x1="76" y1="17" x2="37" y2="12" id="67" stroke="rgb(0,0,0)" stroke-width="1" fill="none" stroke-opacity="0.501961" />
<line x1="76" y1="55" x2="92" y2="120" id="68" stroke="rgb(0,0,51)" stroke-width="1" fill="none" stroke-opacity="0.501961" />
<line x1="66" y1="55" x2="109" y2="119" id="69" stroke="rgb(0,0,37)" stroke-width="1" fill="none" stroke-opacity="0.501961" />
<line x1="43" y1="123" x2="139" y2="102" id="70" stroke="rgb(0,41,104)" stroke-width="1" fill="none" stroke-opacity="0.501961" />
<line x1="116" y1="52" x2="114" y2="87" id="71" stroke="rgb(255,0,0)" stroke-width="1" fill="none" stroke-opacity="0.501961" />
<line x1="234" y1="98" x2="118" y2="123" id="72" stroke="rgb(255,255,255)" stroke-width="1" fill="none" stroke-opacity="0.501961" />
<line x1="73" y1="96" x2="168" y2="95" id="73" stroke="rgb(0,0,35)" stroke-width="1" fill="none" stroke-opacity="0.501961" />
<line x1="98" y1="24" x2="171" y2="29" id="74" stroke="rgb(0,19,73)" stroke-width="1" fill="none" stroke-opacity="0.501961" />
<line x1="196" y1="122" x2="196" y2="143" id="75" stroke="rgb(0,0,0)" stroke-width="1" fill="none" stroke-opacity="0.501961" />
<line x1="244" y1="133" x2="250" y2="99" id="76" stroke="rgb(0,0,0)" stroke-width="1" fill="none" stroke-opacity="0.501961" />
<line x1="255" y1="74" x2="254" y2="0" id="77" stroke="rgb(255,255,255)" stroke-width="1" fill="none" stroke-opacity="0.501961" />
<line x1="111" y1="113" x2="40" y2="97" id="78" stroke="rgb(0,35,110)" stroke-width="1" fill="none" stroke-opacity="0.501961" />
<line x1="254" y1="143" x2="255" y2="78" id="79" stroke="rgb(0,0,0)" stroke-width="1" fill="none" stroke-opacity="0.501961" />
<line x1="255" y1="87" x2="209" y2="71" id="80" stroke="rgb(0,0,0)" stroke-width="1" fill="none" stroke-opacity="0.501961" />
<line x1="34" y1="62" x2="36" y2="124" id="81" stroke="rgb(0,0,0)" stroke-width="1" fill="none" stroke-opacity="0.501961" />
<line x1="36" y1="68" x2="33" y2="12" id="82" stroke="rgb(0,0,0)" stroke-width="1" fill="none" stroke-opacity="0.501961" />
<line x1="174" y1="106" x2="36" y2="128" id="83" stroke="rgb(0,35,85)" stroke-width="1" fill="none" stroke-opacity="0.501961" />
<line x1="118" y1="100" x2="120" y2="49" id="84" stroke="rgb(255,0,0)" stroke-width="1" fill="none" stroke-opacity="0.501961" />
<line x1="110" y1="92" x2="146" y2="93" id="85" stroke="rgb(0,0,0)" stroke-width="1" fill="none" stroke-opacity="0.501961" />
<line x1="118" y1="130" x2="249" y2="98" id="86" stroke="rgb(255,255,255)" stroke-width="1" fill="none" stroke-opacity="0.501961" />
<line x1="171" y1="104" x2="64" y2="101" id="87" stroke="rgb(0,35,93)" stroke-width="1" fill="none" stroke-opacity="0.501961" />
<line x1="111" y1="92" x2="115" y2="49" id="88" stroke="rgb(255,0,0)" stroke-width="1" fill="none" stroke-opacity="0.501961" />
<line x1="104" y1="79" x2="102" y2="39" id="89" stroke="rgb(255,0,0)" stroke-width="1" fill="none" stroke-opacity="0.501961" />
<line x1="62" y1="109" x2="173" y2="105" id="90" stroke="rgb(0,54,102)" stroke-width="1" fill="none" stroke-opacity="0.501961" />
<line x1="141" y1="60" x2="131" y2="103" id="91" stroke="rgb(0,0,0)" stroke-width="1" fill="none" stroke-opacity="0.501961" />
<line x1="213" y1="75" x2="255" y2="89" id="92" stroke="rgb(0,0,0)" stroke-width="1" fill="none" stroke-opacity="0.501961" />
<line x1="168" y1="108" x2="161" y2="84" id="93" stroke="rgb(0,0,0)" stroke-width="1" fill="none" stroke-opacity="0.501961" />
<line x1="59" y1="21" x2="138" y2="24" id="94" stroke="rgb(0,38,93)" stroke-width="1" fill="none" stroke-opacity="0.501961" />
<line x1="195" y1="142" x2="191" y2="117" id="95" stroke="rgb(0,0,0)" stroke-width="1" fill="none" stroke-opacity="0.501961" />
<line x1="74" y1="58" x2="108" y2="116" id="96" stroke="rgb(0,0,32)" stroke-width="1" fill="none" stroke-opacity="0.501961" />
<line x1="87" y1="114" x2="67" y2="50" id="97" stroke="rgb(0,25,69)" stroke-width="1" fill="none" stroke-opacity="0.501961" />
<line x1="118" y1="116" x2="146" y2="60" id="98" stroke="rgb(0,0,4)" stroke-width="1" fill="none" stroke-opacity="0.501961" />
<line x1="197" y1="116" x2="198" y2="143" id="99" stroke="rgb(0,0,0)" stroke-width="1" fill="none" stroke-opacity="0.501961" />
<line x1="150" y1="65" x2="90" y2="115" id="100" stroke="rgb(0,0,25)" stroke-width="1" fill="none" stroke-opacity="0.501961" />
<line x1="95" y1="126" x2="144" y2="60" id="101" stroke="rgb(0,2,33)" stroke-width="1" fill="none" stroke-opacity="0.501961" />
<line x1="153" y1="26" x2="48" y2="14" id="102" stroke="rgb(0,21,57)" stroke-width="1" fill="none" stroke-opacity="0.501961" />
<line x1="193" y1="117" x2="197" y2="143" id="103" stroke="rgb(0,0,0)" stroke-width="1" fill="none" stroke-opacity="0.501961" />
<line x1="232" y1="107" x2="128" y2="123" id="104" stroke="rgb(255,255,255)" stroke-width="1" fill="none" stroke-opacity="0.501961" />
<line x1="151" y1="101" x2="45" y2="94" id="105" stroke="rgb(0,55,115)" stroke-width="1" fill="none" stroke-opacity="0.501961" />
<line x1="55" y1="125" x2="164" y2="99" id="106" stroke="rgb(0,76,143)" stroke-width="1" fill="none" stroke-opacity="0.501961" />
<line x1="230" y1="94" x2="118" y2="129" id="107" stroke="rgb(255,255,255)" stroke-width="1" fill="none" stroke-opacity="0.501961" />
<line x1="53" y1="25" x2="105" y2="118" id="108" stroke="rgb(0,21,55)" stroke-width="1" fill="none" stroke-opacity="0.501961" />
<line x1="255" y1="91" x2="227" y2="83" id="109" stroke="rgb(0,0,0)" stroke-width="1" fill="none" stroke-opacity="0.501961" />
<line x1="189" y1="64" x2="189" y2="0" id="110" stroke="rgb(255,255,255)" stroke-width="1" fill="none" stroke-opacity="0.501961" />
<line x1="103" y1="46" x2="108" y2="86" id="111" stroke="rgb(255,0,0)" stroke-width="1" fill="none" stroke-opacity="0.501961" />
<line x1="126" y1="76" x2="173" y2="87" id="112" stroke="rgb(0,0,34)" stroke-width="1" fill="none" stroke-opacity="0.501961" />
<line x1="110" y1="50" x2="112" y2="95" id="113" stroke="rgb(255,0,0)" stroke-width="1" fill="none" stroke-opacity="0.501961" />
<line x1="120" y1="102" x2="126" y2="74" id="114" stroke="rgb(0,0,0)" stroke-width="1" fill="none" stroke-opacity="0.501961" />
<line x1="255" y1="77" x2="246" y2="133" id="115" stroke="rgb(0,0,0)" stroke-width="1" fill="none" stroke-opacity="0.501961" />
<line x1="135" y1="117" x2="248" y2="98" id="116" stroke="rgb(254,255,255)" stroke-width="1" fill="none" stroke-opacity="0.501961" />
<line x1="193" y1="143" x2="189" y2="116" id="117" stroke="rgb(0,0,0)" stroke-width="1" fill="none" stroke-opacity="0.501961" />
<line x1="118" y1="117" x2="223" y2="104" id="118" stroke="rgb(255,255,255)" stroke-width="1" fill="none" stroke-opacity="0.501961" />
<line x1="80" y1="119" x2="84" y2="42" id="119" stroke="rgb(0,64,120)" stroke-width="1" fill="none" stroke-opacity="0.501961" />
<line x1="144" y1="81" x2="58" y2="128" id="120" stroke="rgb(0,30,64)" stroke-width="1" fill="none" stroke-opacity="0.501961" />
<line x1="121" y1="100" x2="148" y2="61" id="121" stroke="rgb(0,0,0)" stroke-width="1" fill="none" stroke-opacity="0.501961" />
<line x1="255" y1="15" x2="254" y2="75" id="122" stroke="rgb(255,255,255)" stroke-width="1" fill="none" stroke-opacity="0.501961" />
<line x1="88" y1="97" x2="45" y2="11" id="123" stroke="rgb(0,39,49)" stroke-width="1" fill="none" stroke-opacity="0.501961" />
<line x1="34" y1="130" x2="124" y2="115" id="124" stroke="rgb(0,0,0)" stroke-width="1" fill="none" stroke-opacity="0.501961" />
<line x1="54" y1="29" x2="90" y2="112" id="125" stroke="rgb(0,29,57)" stroke-width="1" fill="none" stroke-opacity="0.501961" />
<line x1="0" y1="137" x2="72" y2="140" id="126" stroke="rgb(255,255,255)" stroke-width="1" fill="none" stroke-opacity="0.501961" />
<line x1="146" y1="67" x2="91" y2="121" id="127" stroke="rgb(0,6,30)" stroke-width="1" fill="none" stroke-opacity="0.501961" />
<line x1="111" y1="94" x2="103" y2="42" id="128" stroke="rgb(255,0,5)" stroke-width="1" fill="none" stroke-opacity="0.501961" />
<line x1="179" y1="125" x2="121" y2="136" id="129" stroke="rgb(255,255,255)" stroke-width="1" fill="none" stroke-opacity="0.501961" />
<line x1="69" y1="139" x2="0" y2="121" id="130" stroke="rgb(255,255,255)" stroke-width="1" fill="none" stroke-opacity="0.501961" />
<line x1="170" y1="105" x2="142" y2="59" id="131" stroke="rgb(0,0,17)" stroke-width="1" fill="none" stroke-opacity="0.501961" />
<line x1="101" y1="42" x2="100" y2="79" id="132" stroke="rgb(255,0,0)" stroke-width="1" fill="none" stroke-opacity="0.501961" />
<line x1="121" y1="83" x2="119" y2="49" id="133" stroke="rgb(246,0,0)" stroke-width="1" fill="none" stroke-opacity="0.501961" />
<line x1="89" y1="86" x2="54" y2="25" id="134" stroke="rgb(0,12,25)" stroke-width="1" fill="none" stroke-opacity="0.501961" />
<line x1="211" y1="70" x2="255" y2="82" id="135" stroke="rgb(0,0,0)" stroke-width="1" fill="none" stroke-opacity="0.501961" />
<line x1="77" y1="52" x2="92" y2="115" id="136" stroke="rgb(0,55,116)" stroke-width="1" fill="none" stroke-opacity="0.501961" />
<line x1="126" y1="113" x2="46" y2="121" id="137" stroke="rgb(0,77,152)" stroke-width="1" fill="none" stroke-opacity="0.501961" />
<line x1="165" y1="111" x2="166" y2="86" id="138" stroke="rgb(0,0,0)" stroke-width="1" fill="none" stroke-opacity="0.501961" />
<line x1="163" y1="83" x2="157" y2="110" id="139" stroke="rgb(0,0,0)" stroke-width="1" fill="none" stroke-opacity="0.501961" />
<line x1="55" y1="97" x2="76" y2="114" id="140" stroke="rgb(0,0,0)" stroke-width="1" fill="none" stroke-opacity="0.501961" />
<line x1="251" y1="143" x2="255" y2="89" id="141" stroke="rgb(0,0,0)" stroke-width="1" fill="none" stroke-opacity="0.501961" />
<line x1="46" y1="93" x2="94" y2="118" id="142" stroke="rgb(0,7,68)" stroke-width="1" fill="none" stroke-opacity="0.501961" />
<line x1="88" y1="124" x2="0" y2="136" id="143" stroke="rgb(255,255,255)" stroke-width="1" fill="none" stroke-opacity="0.501961" />
<line x1="144" y1="80" x2="63" y2="121" id="144" stroke="rgb(0,36,78)" stroke-width="1" fill="none" stroke-opacity="0.501961" />
<line x1="0" y1="130" x2="69" y2="143" id="145" stroke="rgb(255,255,255)" stroke-width="1" fill="none" stroke-opacity="0.501961" />
<line x1="124" y1="73" x2="119" y2="104" id="146" stroke="rgb(0,0,0)" stroke-width="1" fill="none" stroke-opacity="0.501961" />
<line x1="34" y1="16" x2="127" y2="21" id="147" stroke="rgb(0,39,67)" stroke-width="1" fill="none" stroke-opacity="0.501961" />
<line x1="246" y1="133" x2="245" y2="117" id="148" stroke="rgb(0,0,0)" stroke-width="1" fill="none" stroke-opacity="0.501961" />
<line x1="255" y1="83" x2="210" y2="71" id="149" stroke="rgb(0,0,0)" stroke-width="1" fill="none" stroke-opacity="0.501961" />
<line x1="180" y1="120" x2="117" y2="131" id="150" stroke="rgb(255,255,255)" stroke-width="1" fill="none" stroke-opacity="0.501961" />
<line x1="180" y1="135" x2="120" y2="143" id="151" stroke="rgb(255,255,255)" stroke-width="1" fill="none" stroke-opacity="0.501961" />
<line x1="120" y1="130" x2="176" y2="119" id="152" stroke="rgb(255,255,255)" stroke-width="1" fill="none" stroke-opacity="0.501961" />
<line x1="0" y1="125" x2="71" y2="143" id="153" stroke="rgb(255,255,255)" stroke-width="1" fill="none" stroke-opacity="0.501961" />
<line x1="100" y1="47" x2="98" y2="78" id="154" stroke="rgb(255,0,0)" stroke-width="1" fill="none" stroke-opacity="0.501961" />
<line x1="28" y1="134" x2="19" y2="0" id="155" stroke="rgb(231,245,245)" stroke-width="1" fill="none" stroke-opacity="0.501961" />
<line x1="96" y1="112" x2="52" y2="31" id="156" stroke="rgb(0,55,82)" stroke-width="1" fill="none" stroke-opacity="0.501961" />
<line x1="211" y1="67" x2="255" y2="81" id="157" stroke="rgb(0,0,0)" stroke-width="1" fill="none" stroke-opacity="0.501961" />
<line x1="138" y1="57" x2="171" y2="103" id="158" stroke="rgb(0,10,34)" stroke-width="1" fill="none" stroke-opacity="0.501961" />
<line x1="215" y1="98" x2="126" y2="120" id="159" stroke="rgb(255,255,255)" stroke-width="1" fill="none" stroke-opacity="0.501961" />
<line x1="116" y1="110" x2="60" y2="110" id="160" stroke="rgb(0,47,117)" stroke-width="1" fill="none" stroke-opacity="0.501961" />
<line x1="169" y1="108" x2="163" y2="86" id="161" stroke="rgb(0,0,0)" stroke-width="1" fill="none" stroke-opacity="0.501961" />
<line x1="35" y1="143" x2="27" y2="0" id="162" stroke="rgb(236,249,249)" stroke-width="1" fill="none" stroke-opacity="0.501961" />
<line x1="59" y1="143" x2="0" y2="135" id="163" stroke="rgb(255,255,255)" stroke-width="1" fill="none" stroke-opacity="0.501961" />
<line x1="125" y1="135" x2="212" y2="96" id="164" stroke="rgb(255,255,255)" stroke-width="1" fill="none" stroke-opacity="0.501961" />
<line x1="169" y1="86" x2="120" y2="82" id="165" stroke="rgb(0,0,34)" stroke-width="1" fill="none" stroke-opacity="0.501961" />
<line x1="13" y1="141" x2="29" y2="143" id="166" stroke="rgb(0,0,0)" stroke-width="1" fill="none" stroke-opacity="0.501961" />
<line x1="44" y1="125" x2="115" y2="115" id="167" stroke="rgb(0,57,132)" stroke-width="1" fill="none" stroke-opacity="0.501961" />
<line x1="60" y1="112" x2="148" y2="98" id="168" stroke="rgb(0,39,82)" stroke-width="1" fill="none" stroke-opacity="0.501961" />
<line x1="173" y1="31" x2="173" y2="109" id="169" stroke="rgb(25,14,14)" stroke-width="1" fill="none" stroke-opacity="0.501961" />
<line x1="0" y1="133" x2="66" y2="143" id="170" stroke="rgb(255,255,255)" stroke-width="1" fill="none" stroke-opacity="0.501961" />
<line x1="120" y1="80" x2="125" y2="42" id="171" stroke="rgb(255,0,0)" stroke-width="1" fill="none" stroke-opacity="0.501961" />
<line x1="171" y1="124" x2="120" y2="133" id="172" stroke="rgb(255,255,255)" stroke-width="1" fill="none" stroke-opacity="0.501961" />
<line x1="192" y1="143" x2="186" y2="102" id="173" stroke="rgb(0,31,39)" stroke-width="1" fill="none" stroke-opacity="0.501961" />
<line x1="118" y1="132" x2="180" y2="122" id="174" stroke="rgb(255,255,255)" stroke-width="1" fill="none" stroke-opacity="0.501961" />
<line x1="123" y1="103" x2="38" y2="118" id="175" stroke="rgb(0,64,112)" stroke-width="1" fill="none" stroke-opacity="0.501961" />
<line x1="225" y1="97" x2="128" y2="124" id="176" stroke="rgb(250,254,254)" stroke-width="1" fill="none" stroke-opacity="0.501961" />
<line x1="124" y1="78" x2="173" y2="90" id="177" stroke="rgb(0,23,75)" stroke-width="1" fill="none" stroke-opacity="0.501961" />
<line x1="53" y1="95" x2="74" y2="110" id="178" stroke="rgb(0,0,0)" stroke-width="1" fill="none" stroke-opacity="0.501961" />
<line x1="113" y1="89" x2="105" y2="44" id="179" stroke="rgb(255,0,7)" stroke-width="1" fill="none" stroke-opacity="0.501961" />
<line x1="21" y1="0" x2="34" y2="139" id="180" stroke="rgb(233,246,246)" stroke-width="1" fill="none" stroke-opacity="0.501961" />
<line x1="74" y1="140" x2="211" y2="106" id="181" stroke="rgb(243,247,247)" stroke-width="1" fill="none" stroke-opacity="0.501961" />
<line x1="126" y1="20" x2="36" y2="0" id="182" stroke="rgb(255,252,239)" stroke-width="1" fill="none" stroke-opacity="0.501961" />
<line x1="178" y1="143" x2="119" y2="143" id="183" stroke="rgb(255,255,255)" stroke-width="1" fill="none" stroke-opacity="0.501961" />
<line x1="149" y1="29" x2="87" y2="22" id="184" stroke="rgb(0,41,90)" stroke-width="1" fill="none" stroke-opacity="0.501961" />
<line x1="255" y1="84" x2="248" y2="143" id="185" stroke="rgb(0,0,0)" stroke-width="1" fill="none" stroke-opacity="0.501961" />
<line x1="197" y1="32" x2="52" y2="0" id="186" stroke="rgb(238,234,220)" stroke-width="1" fill="none" stroke-opacity="0.501961" />
<line x1="48" y1="19" x2="90" y2="109" id="187" stroke="rgb(12,58,72)" stroke-width="1" fill="none" stroke-opacity="0.501961" />
<line x1="108" y1="87" x2="96" y2="24" id="188" stroke="rgb(231,8,18)" stroke-width="1" fill="none" stroke-opacity="0.501961" />
<line x1="0" y1="123" x2="65" y2="139" id="189" stroke="rgb(255,255,255)" stroke-width="1" fill="none" stroke-opacity="0.501961" />
<line x1="103" y1="117" x2="75" y2="55" id="190" stroke="rgb(0,35,89)" stroke-width="1" fill="none" stroke-opacity="0.501961" />
<line x1="117" y1="125" x2="232" y2="97" id="191" stroke="rgb(244,250,252)" stroke-width="1" fill="none" stroke-opacity="0.501961" />
<line x1="64" y1="116" x2="169" y2="108" id="192" stroke="rgb(0,73,125)" stroke-width="1" fill="none" stroke-opacity="0.501961" />
<line x1="158" y1="104" x2="147" y2="59" id="193" stroke="rgb(0,62,138)" stroke-width="1" fill="none" stroke-opacity="0.501961" />
<line x1="247" y1="96" x2="187" y2="96" id="194" stroke="rgb(255,255,255)" stroke-width="1" fill="none" stroke-opacity="0.501961" />
<line x1="120" y1="46" x2="115" y2="92" id="195" stroke="rgb(255,0,0)" stroke-width="1" fill="none" stroke-opacity="0.501961" />
<line x1="60" y1="29" x2="91" y2="101" id="196" stroke="rgb(13,46,71)" stroke-width="1" fill="none" stroke-opacity="0.501961" />
<line x1="169" y1="87" x2="117" y2="75" id="197" stroke="rgb(0,0,43)" stroke-width="1" fill="none" stroke-opacity="0.501961" />
<line x1="42" y1="126" x2="42" y2="63" id="198" stroke="rgb(14,19,0)" stroke-width="1" fill="none" stroke-opacity="0.501961" />
<line x1="169" y1="108" x2="134" y2="54" id="199" stroke="rgb(0,26,64)" stroke-width="1" fill="none" stroke-opacity="0.501961" />
<line x1="123" y1="66" x2="125" y2="93" id="200" stroke="rgb(25,0,0)" stroke-width="1" fill="none" stroke-opacity="0.501961" />
<line x1="118" y1="119" x2="177" y2="107" id="201" stroke="rgb(255,255,255)" stroke-width="1" fill="none" stroke-opacity="0.501961" />
<line x1="255" y1="143" x2="250" y2="101" id="202" stroke="rgb(0,0,0)" stroke-width="1" fill="none" stroke-opacity="0.501961" />
<line x1="236" y1="116" x2="177" y2="108" id="203" stroke="rgb(240,244,244)" stroke-width="1" fill="none" stroke-opacity="0.501961" />
<line x1="114" y1="53" x2="113" y2="94" id="204" stroke="rgb(255,0,0)" stroke-width="1" fill="none" stroke-opacity="0.501961" />
<line x1="38" y1="128" x2="37" y2="100" id="205" stroke="rgb(24,19,0)" stroke-width="1" fill="none" stroke-opacity="0.501961" />
<line x1="42" y1="96" x2="106" y2="101" id="206" stroke="rgb(0,58,133)" stroke-width="1" fill="none" stroke-opacity="0.501961" />
<line x1="51" y1="8" x2="139" y2="0" id="207" stroke="rgb(254,244,228)" stroke-width="1" fill="none" stroke-opacity="0.501961" />
<line x1="110" y1="38" x2="108" y2="89" id="208" stroke="rgb(255,86,116)" stroke-width="1" fill="none" stroke-opacity="0.501961" />
<line x1="82" y1="44" x2="77" y2="121" id="209" stroke="rgb(0,76,124)" stroke-width="1" fill="none" stroke-opacity="0.501961" />
<line x1="26" y1="0" x2="102" y2="0" id="210" stroke="rgb(255,248,231)" stroke-width="1" fill="none" stroke-opacity="0.501961" />
<line x1="179" y1="33" x2="91" y2="19" id="211" stroke="rgb(0,64,100)" stroke-width="1" fill="none" stroke-opacity="0.501961" />
<line x1="82" y1="102" x2="141" y2="90" id="212" stroke="rgb(0,23,52)" stroke-width="1" fill="none" stroke-opacity="0.501961" />
<line x1="106" y1="41" x2="101" y2="85" id="213" stroke="rgb(255,31,45)" stroke-width="1" fill="none" stroke-opacity="0.501961" />
<line x1="134" y1="99" x2="125" y2="75" id="214" stroke="rgb(0,0,0)" stroke-width="1" fill="none" stroke-opacity="0.501961" />
<line x1="195" y1="143" x2="195" y2="122" id="215" stroke="rgb(0,0,0)" stroke-width="1" fill="none" stroke-opacity="0.501961" />
<line x1="32" y1="0" x2="30" y2="137" id="216" stroke="rgb(225,238,238)" stroke-width="1" fill="none" stroke-opacity="0.501961" />
<line x1="114" y1="27" x2="169" y2="37" id="217" stroke="rgb(240,255,255)" stroke-width="1" fill="none" stroke-opacity="0.501961" />
<line x1="33" y1="17" x2="35" y2="62" id="218" stroke="rgb(0,0,0)" stroke-width="1" fill="none" stroke-opacity="0.501961" />
<line x1="18" y1="16" x2="26" y2="139" id="219" stroke="rgb(228,244,246)" stroke-width="1" fill="none" stroke-opacity="0.501961" />
<line x1="255" y1="94" x2="255" y2="143" id="220" stroke="rgb(0,0,0)" stroke-width="1" fill="none" stroke-opacity="0.501961" />
<line x1="117" y1="143" x2="180" y2="132" id="221" stroke="rgb(253,255,255)" stroke-width="1" fill="none" stroke-opacity="0.501961" />
<line x1="180" y1="61" x2="180" y2="143" id="222" stroke="rgb(255,255,255)" stroke-width="1" fill="none" stroke-opacity="0.501961" />
<line x1="244" y1="128" x2="250" y2="93" id="223" stroke="rgb(0,8,35)" stroke-width="1" fill="none" stroke-opacity="0.501961" />
<line x1="124" y1="0" x2="51" y2="5" id="224" stroke="rgb(255,247,231)" stroke-width="1" fill="none" stroke-opacity="0.501961" />
<line x1="76" y1="51" x2="88" y2="117" id="225" stroke="rgb(0,49,85)" stroke-width="1" fill="none" stroke-opacity="0.501961" />
<line x1="124" y1="46" x2="113" y2="89" id="226" stroke="rgb(255,0,0)" stroke-width="1" fill="none" stroke-opacity="0.501961" />
<line x1="12" y1="143" x2="28" y2="143" id="227" stroke="rgb(0,0,0)" stroke-width="1" fill="none" stroke-opacity="0.501961" />
<line x1="63" y1="57" x2="63" y2="23" id="228" stroke="rgb(222,255,255)" stroke-width="1" fill="none" stroke-opacity="0.501961" />
<line x1="45" y1="123" x2="146" y2="102" id="229" stroke="rgb(0,76,125)" stroke-width="1" fill="none" stroke-opacity="0.501961" />
<line x1="120" y1="77" x2="148" y2="71" id="230" stroke="rgb(0,0,8)" stroke-width="1" fill="none" stroke-opacity="0.501961" />
<line x1="172" y1="125" x2="118" y2="134" id="231" stroke="rgb(255,255,255)" stroke-width="1" fill="none" stroke-opacity="0.501961" />
<rect x="0" y="0" width="32" height="141" id="232" fill="rgb(219,232,233)" fill-opacity="0.501961" />
<rect x="202" y="95" width="40" height="48" id="233" fill="rgb(225,235,237)" fill-opacity="0.501961" />
<rect x="117" y="117" width="63" height="26" id="234" fill="rgb(235,248,250)" fill-opacity="0.501961" />
<rect x="57" y="0" width="168" height="16" id="235" fill="rgb(223,218,203)" fill-opacity="0.501961" />
<rect x="126" y="30" width="66" height="29" id="236" fill="rgb(200,221,230)" fill-opacity="0.501961" />
<rect x="39" y="82" width="52" height="40" id="237" fill="rgb(11,99,156)" fill-opacity="0.501961" />
<rect x="99" y="52" width="24" height="30" id="238" fill="rgb(255,0,0)" fill-opacity="0.501961" />
<rect x="121" y="75" width="16" height="30" id="239" fill="rgb(0,0,5)" fill-opacity="0.501961" />
<rect x="85" y="35" width="15" height="17" id="240" fill="rgb(19,35,56)" fill-opacity="0.501961" />
</svg>