<?xml version="1.0" standalone="no"?>
<svg xmlns="http://www.w3.org/2000/svg" version="1.2" baseProfile="tiny" width="256" height="144" viewBox="0 0 256 144">
<rect x="0" y="0" width="256" height="144" id="0" fill="rgb(196,104,106)" fill-opacity="1" />
<line x1="119" y1="0" x2="119" y2="138" id="1" stroke="rgb(0,0,0)" stroke-width="1" fill="none" stroke-opacity="0.501961" />
<line x1="136" y1="0" x2="135" y2="143" id="2" stroke="rgb(0,0,0)" stroke-width="1" fill="none" stroke-opacity="0.501961" />
<line x1="123" y1="143" x2="126" y2="6" id="3" stroke="rgb(0,0,0)" stroke-width="1" fill="none" stroke-opacity="0.501961" />
<line x1="126" y1="143" x2="128" y2="0" id="4" stroke="rgb(0,0,0)" stroke-width="1" fill="none" stroke-opacity="0.501961" />
<line x1="16" y1="49" x2="142" y2="81" id="5" stroke="rgb(0,0,0)" stroke-width="1" fill="none" stroke-opacity="0.501961" />
<line x1="121" y1="143" x2="122" y2="0" id="6" stroke="rgb(0,0,0)" stroke-width="1" fill="none" stroke-opacity="0.501961" />
<line x1="137" y1="115" x2="139" y2="0" id="7" stroke="rgb(0,0,0)" stroke-width="1" fill="none" stroke-opacity="0.501961" />
<line x1="176" y1="132" x2="171" y2="87" id="8" stroke="rgb(0,0,0)" stroke-width="1" fill="none" stroke-opacity="0.501961" />
<line x1="133" y1="143" x2="135" y2="29" id="9" stroke="rgb(0,0,0)" stroke-width="1" fill="none" stroke-opacity="0.501961" />
<line x1="96" y1="86" x2="96" y2="48" id="10" stroke="rgb(0,0,0)" stroke-width="1" fill="none" stroke-opacity="0.501961" />
<line x1="123" y1="109" x2="123" y2="3" id="11" stroke="rgb(0,0,0)" stroke-width="1" fill="none" stroke-opacity="0.501961" />
<line x1="232" y1="98" x2="125" y2="111" id="12" stroke="rgb(0,0,0)" stroke-width="1" fill="none" stroke-opacity="0.501961" />
<line x1="13" y1="47" x2="127" y2="74" id="13" stroke="rgb(0,0,0)" stroke-width="1" fill="none" stroke-opacity="0.501961" />
<line x1="130" y1="143" x2="134" y2="0" id="14" stroke="rgb(0,0,0)" stroke-width="1" fill="none" stroke-opacity="0.501961" />
<line x1="129" y1="0" x2="128" y2="117" id="15" stroke="rgb(0,0,0)" stroke-width="1" fill="none" stroke-opacity="0.501961" />
<line x1="96" y1="35" x2="97" y2="87" id="16" stroke="rgb(0,0,0)" stroke-width="1" fill="none" stroke-opacity="0.501961" />
<line x1="138" y1="107" x2="230" y2="96" id="17" stroke="rgb(0,0,0)" stroke-width="1" fill="none" stroke-opacity="0.501961" />
<line x1="123" y1="115" x2="203" y2="102" id="18" stroke="rgb(0,0,0)" stroke-width="1" fill="none" stroke-opacity="0.501961" />
<line x1="120" y1="98" x2="121" y2="0" id="19" stroke="rgb(0,0,0)" stroke-width="1" fill="none" stroke-opacity="0.501961" />
<line x1="171" y1="84" x2="178" y2="135" id="20" stroke="rgb(0,0,0)" stroke-width="1" fill="none" stroke-opacity="0.501961" />
<line x1="174" y1="130" x2="171" y2="93" id="21" stroke="rgb(0,0,0)" stroke-width="1" fill="none" stroke-opacity="0.501961" />
<line x1="131" y1="12" x2="128" y2="143" id="22" stroke="rgb(0,0,0)" stroke-width="1" fill="none" stroke-opacity="0.501961" />
<line x1="213" y1="102" x2="118" y2="118" id="23" stroke="rgb(0,0,0)" stroke-width="1" fill="none" stroke-opacity="0.501961" />
<line x1="104" y1="64" x2="47" y2="54" id="24" stroke="rgb(0,0,0)" stroke-width="1" fill="none" stroke-opacity="0.501961" />
<line x1="139" y1="78" x2="62" y2="60" id="25" stroke="rgb(0,0,0)" stroke-width="1" fill="none" stroke-opacity="0.501961" />
<line x1="95" y1="44" x2="95" y2="93" id="26" stroke="rgb(0,0,0)" stroke-width="1" fill="none" stroke-opacity="0.501961" />
<line x1="135" y1="0" x2="132" y2="125" id="27" stroke="rgb(0,0,1)" stroke-width="1" fill="none" stroke-opacity="0.501961" />
<line x1="178" y1="98" x2="190" y2="136" id="28" stroke="rgb(0,0,0)" stroke-width="1" fill="none" stroke-opacity="0.501961" />
<line x1="87" y1="56" x2="84" y2="88" id="29" stroke="rgb(0,0,0)" stroke-width="1" fill="none" stroke-opacity="0.501961" />
<line x1="124" y1="73" x2="124" y2="0" id="30" stroke="rgb(0,0,0)" stroke-width="1" fill="none" stroke-opacity="0.501961" />
<line x1="140" y1="0" x2="138" y2="132" id="31" stroke="rgb(0,0,2)" stroke-width="1" fill="none" stroke-opacity="0.501961" />
<line x1="45" y1="59" x2="105" y2="60" id="32" stroke="rgb(0,0,0)" stroke-width="1" fill="none" stroke-opacity="0.501961" />
<line x1="175" y1="91" x2="186" y2="128" id="33" stroke="rgb(0,0,0)" stroke-width="1" fill="none" stroke-opacity="0.501961" />
<line x1="117" y1="104" x2="118" y2="23" id="34" stroke="rgb(0,0,0)" stroke-width="1" fill="none" stroke-opacity="0.501961" />
<line x1="19" y1="51" x2="114" y2="75" id="35" stroke="rgb(0,0,0)" stroke-width="1" fill="none" stroke-opacity="0.501961" />
<line x1="118" y1="143" x2="118" y2="49" id="36" stroke="rgb(0,0,3)" stroke-width="1" fill="none" stroke-opacity="0.501961" />
<line x1="124" y1="140" x2="126" y2="51" id="37" stroke="rgb(0,0,0)" stroke-width="1" fill="none" stroke-opacity="0.501961" />
<line x1="162" y1="100" x2="214" y2="107" id="38" stroke="rgb(0,0,0)" stroke-width="1" fill="none" stroke-opacity="0.501961" />
<line x1="172" y1="82" x2="177" y2="133" id="39" stroke="rgb(0,0,0)" stroke-width="1" fill="none" stroke-opacity="0.501961" />
<line x1="244" y1="34" x2="212" y2="105" id="40" stroke="rgb(0,0,0)" stroke-width="1" fill="none" stroke-opacity="0.501961" />
<line x1="136" y1="116" x2="198" y2="106" id="41" stroke="rgb(0,0,0)" stroke-width="1" fill="none" stroke-opacity="0.501961" />
<line x1="127" y1="0" x2="128" y2="74" id="42" stroke="rgb(0,4,9)" stroke-width="1" fill="none" stroke-opacity="0.501961" />
<line x1="217" y1="96" x2="141" y2="111" id="43" stroke="rgb(0,2,5)" stroke-width="1" fill="none" stroke-opacity="0.501961" />
<line x1="35" y1="59" x2="117" y2="67" id="44" stroke="rgb(0,1,3)" stroke-width="1" fill="none" stroke-opacity="0.501961" />
<line x1="117" y1="108" x2="217" y2="97" id="45" stroke="rgb(0,10,12)" stroke-width="1" fill="none" stroke-opacity="0.501961" />
<line x1="8" y1="45" x2="118" y2="70" id="46" stroke="rgb(0,0,2)" stroke-width="1" fill="none" stroke-opacity="0.501961" />
<line x1="241" y1="42" x2="216" y2="103" id="47" stroke="rgb(0,0,0)" stroke-width="1" fill="none" stroke-opacity="0.501961" />
<line x1="138" y1="108" x2="214" y2="99" id="48" stroke="rgb(0,0,0)" stroke-width="1" fill="none" stroke-opacity="0.501961" />
<line x1="176" y1="96" x2="175" y2="132" id="49" stroke="rgb(0,0,0)" stroke-width="1" fill="none" stroke-opacity="0.501961" />
<line x1="20" y1="15" x2="39" y2="60" id="50" stroke="rgb(0,0,0)" stroke-width="1" fill="none" stroke-opacity="0.501961" />
<line x1="38" y1="60" x2="137" y2="79" id="51" stroke="rgb(0,11,15)" stroke-width="1" fill="none" stroke-opacity="0.501961" />
<line x1="127" y1="139" x2="126" y2="76" id="52" stroke="rgb(0,0,0)" stroke-width="1" fill="none" stroke-opacity="0.501961" />
<line x1="163" y1="98" x2="206" y2="104" id="53" stroke="rgb(0,0,0)" stroke-width="1" fill="none" stroke-opacity="0.501961" />
<line x1="57" y1="57" x2="135" y2="70" id="54" stroke="rgb(0,18,20)" stroke-width="1" fill="none" stroke-opacity="0.501961" />
<line x1="137" y1="63" x2="140" y2="143" id="55" stroke="rgb(0,7,12)" stroke-width="1" fill="none" stroke-opacity="0.501961" />
<line x1="85" y1="83" x2="79" y2="56" id="56" stroke="rgb(0,0,0)" stroke-width="1" fill="none" stroke-opacity="0.501961" />
<line x1="53" y1="61" x2="0" y2="33" id="57" stroke="rgb(0,3,7)" stroke-width="1" fill="none" stroke-opacity="0.501961" />
<line x1="103" y1="57" x2="84" y2="59" id="58" stroke="rgb(0,0,0)" stroke-width="1" fill="none" stroke-opacity="0.501961" />
<line x1="175" y1="113" x2="255" y2="79" id="59" stroke="rgb(0,2,5)" stroke-width="1" fill="none" stroke-opacity="0.501961" />
<line x1="130" y1="87" x2="133" y2="1" id="60" stroke="rgb(0,0,3)" stroke-width="1" fill="none" stroke-opacity="0.501961" />
<line x1="91" y1="55" x2="96" y2="90" id="61" stroke="rgb(0,0,0)" stroke-width="1" fill="none" stroke-opacity="0.501961" />
<line x1="99" y1="85" x2="96" y2="52" id="62" stroke="rgb(0,0,0)" stroke-width="1" fill="none" stroke-opacity="0.501961" />
<line x1="137" y1="13" x2="137" y2="78" id="63" stroke="rgb(0,5,9)" stroke-width="1" fill="none" stroke-opacity="0.501961" />
<line x1="120" y1="0" x2="120" y2="35" id="64" stroke="rgb(0,0,0)" stroke-width="1" fill="none" stroke-opacity="0.501961" />
<line x1="112" y1="48" x2="85" y2="30" id="65" stroke="rgb(255,255,255)" stroke-width="1" fill="none" stroke-opacity="0.501961" />
<line x1="14" y1="0" x2="34" y2="42" id="66" stroke="rgb(0,0,0)" stroke-width="1" fill="none" stroke-opacity="0.501961" />
<line x1="163" y1="69" x2="160" y2="113" id="67" stroke="rgb(250,255,255)" stroke-width="1" fill="none" stroke-opacity="0.501961" />
<line x1="184" y1="127" x2="186" y2="103" id="68" stroke="rgb(0,0,0)" stroke-width="1" fill="none" stroke-opacity="0.501961" />
<line x1="128" y1="66" x2="139" y2="143" id="69" stroke="rgb(0,16,21)" stroke-width="1" fill="none" stroke-opacity="0.501961" />
<line x1="121" y1="48" x2="120" y2="143" id="70" stroke="rgb(0,0,4)" stroke-width="1" fill="none" stroke-opacity="0.501961" />
<line x1="122" y1="127" x2="122" y2="71" id="71" stroke="rgb(0,0,0)" stroke-width="1" fill="none" stroke-opacity="0.501961" />
<line x1="8" y1="1" x2="9" y2="41" id="72" stroke="rgb(0,0,0)" stroke-width="1" fill="none" stroke-opacity="0.501961" />
<line x1="89" y1="54" x2="83" y2="89" id="73" stroke="rgb(0,0,0)" stroke-width="1" fill="none" stroke-opacity="0.501961" />
<line x1="212" y1="99" x2="252" y2="84" id="74" stroke="rgb(0,0,0)" stroke-width="1" fill="none" stroke-opacity="0.501961" />
<line x1="175" y1="125" x2="167" y2="95" id="75" stroke="rgb(0,0,0)" stroke-width="1" fill="none" stroke-opacity="0.501961" />
<line x1="136" y1="143" x2="135" y2="9" id="76" stroke="rgb(0,12,18)" stroke-width="1" fill="none" stroke-opacity="0.501961" />
<line x1="132" y1="143" x2="128" y2="35" id="77" stroke="rgb(5,17,21)" stroke-width="1" fill="none" stroke-opacity="0.501961" />
<line x1="181" y1="100" x2="187" y2="131" id="78" stroke="rgb(0,0,0)" stroke-width="1" fill="none" stroke-opacity="0.501961" />
<line x1="125" y1="23" x2="133" y2="108" id="79" stroke="rgb(26,27,31)" stroke-width="1" fill="none" stroke-opacity="0.501961" />
<line x1="162" y1="101" x2="191" y2="108" id="80" stroke="rgb(0,0,0)" stroke-width="1" fill="none" stroke-opacity="0.501961" />
<line x1="255" y1="54" x2="228" y2="71" id="81" stroke="rgb(0,0,0)" stroke-width="1" fill="none" stroke-opacity="0.501961" />
<line x1="179" y1="98" x2="176" y2="126" id="82" stroke="rgb(0,0,0)" stroke-width="1" fill="none" stroke-opacity="0.501961" />
<line x1="167" y1="95" x2="172" y2="72" id="83" stroke="rgb(255,255,255)" stroke-width="1" fill="none" stroke-opacity="0.501961" />
<line x1="64" y1="56" x2="117" y2="65" id="84" stroke="rgb(0,8,8)" stroke-width="1" fill="none" stroke-opacity="0.501961" />
<line x1="112" y1="58" x2="102" y2="32" id="85" stroke="rgb(255,255,255)" stroke-width="1" fill="none" stroke-opacity="0.501961" />
<line x1="86" y1="85" x2="85" y2="61" id="86" stroke="rgb(0,0,0)" stroke-width="1" fill="none" stroke-opacity="0.501961" />
<line x1="174" y1="131" x2="169" y2="98" id="87" stroke="rgb(0,0,0)" stroke-width="1" fill="none" stroke-opacity="0.501961" />
<line x1="2" y1="38" x2="99" y2="75" id="88" stroke="rgb(9,21,24)" stroke-width="1" fill="none" stroke-opacity="0.501961" />
<line x1="185" y1="131" x2="187" y2="104" id="89" stroke="rgb(0,0,0)" stroke-width="1" fill="none" stroke-opacity="0.501961" />
<line x1="130" y1="101" x2="131" y2="143" id="90" stroke="rgb(0,0,5)" stroke-width="1" fill="none" stroke-opacity="0.501961" />
<line x1="162" y1="94" x2="174" y2="73" id="91" stroke="rgb(255,255,255)" stroke-width="1" fill="none" stroke-opacity="0.501961" />
<line x1="33" y1="42" x2="12" y2="0" id="92" stroke="rgb(0,2,5)" stroke-width="1" fill="none" stroke-opacity="0.501961" />
<line x1="194" y1="106" x2="255" y2="80" id="93" stroke="rgb(0,10,15)" stroke-width="1" fill="none" stroke-opacity="0.501961" />
<line x1="150" y1="73" x2="183" y2="82" id="94" stroke="rgb(255,255,255)" stroke-width="1" fill="none" stroke-opacity="0.501961" />
<line x1="104" y1="59" x2="80" y2="59" id="95" stroke="rgb(0,0,0)" stroke-width="1" fill="none" stroke-opacity="0.501961" />
<line x1="138" y1="1" x2="141" y2="104" id="96" stroke="rgb(32,27,31)" stroke-width="1" fill="none" stroke-opacity="0.501961" />
<line x1="185" y1="102" x2="172" y2="72" id="97" stroke="rgb(255,255,255)" stroke-width="1" fill="none" stroke-opacity="0.501961" />
<line x1="176" y1="114" x2="255" y2="77" id="98" stroke="rgb(20,22,25)" stroke-width="1" fill="none" stroke-opacity="0.501961" />
<line x1="64" y1="77" x2="72" y2="56" id="99" stroke="rgb(235,255,255)" stroke-width="1" fill="none" stroke-opacity="0.501961" />
<line x1="99" y1="26" x2="89" y2="54" id="100" stroke="rgb(255,255,255)" stroke-width="1" fill="none" stroke-opacity="0.501961" />
<line x1="9" y1="0" x2="8" y2="39" id="101" stroke="rgb(0,0,0)" stroke-width="1" fill="none" stroke-opacity="0.501961" />
<line x1="243" y1="48" x2="213" y2="102" id="102" stroke="rgb(0,6,10)" stroke-width="1" fill="none" stroke-opacity="0.501961" />
<line x1="189" y1="109" x2="255" y2="84" id="103" stroke="rgb(12,19,24)" stroke-width="1" fill="none" stroke-opacity="0.501961" />
<line x1="99" y1="23" x2="102" y2="52" id="104" stroke="rgb(255,255,255)" stroke-width="1" fill="none" stroke-opacity="0.501961" />
<line x1="133" y1="70" x2="129" y2="6" id="105" stroke="rgb(0,12,17)" stroke-width="1" fill="none" stroke-opacity="0.501961" />
<line x1="34" y1="57" x2="0" y2="27" id="106" stroke="rgb(0,0,2)" stroke-width="1" fill="none" stroke-opacity="0.501961" />
<line x1="113" y1="51" x2="86" y2="34" id="107" stroke="rgb(242,255,255)" stroke-width="1" fill="none" stroke-opacity="0.501961" />
<line x1="108" y1="40" x2="108" y2="67" id="108" stroke="rgb(255,255,255)" stroke-width="1" fill="none" stroke-opacity="0.501961" />
<line x1="101" y1="61" x2="83" y2="63" id="109" stroke="rgb(0,0,0)" stroke-width="1" fill="none" stroke-opacity="0.501961" />
<line x1="181" y1="82" x2="147" y2="77" id="110" stroke="rgb(237,255,255)" stroke-width="1" fill="none" stroke-opacity="0.501961" />
<line x1="139" y1="73" x2="22" y2="55" id="111" stroke="rgb(30,31,34)" stroke-width="1" fill="none" stroke-opacity="0.501961" />
<line x1="213" y1="103" x2="245" y2="29" id="112" stroke="rgb(25,28,32)" stroke-width="1" fill="none" stroke-opacity="0.501961" />
<line x1="171" y1="88" x2="175" y2="135" id="113" stroke="rgb(0,0,0)" stroke-width="1" fill="none" stroke-opacity="0.501961" />
<line x1="40" y1="0" x2="25" y2="50" id="114" stroke="rgb(29,23,26)" stroke-width="1" fill="none" stroke-opacity="0.501961" />
<line x1="134" y1="41" x2="174" y2="26" id="115" stroke="rgb(0,2,5)" stroke-width="1" fill="none" stroke-opacity="0.501961" />
<line x1="133" y1="47" x2="134" y2="143" id="116" stroke="rgb(23,27,32)" stroke-width="1" fill="none" stroke-opacity="0.501961" />
<line x1="90" y1="70" x2="9" y2="43" id="117" stroke="rgb(17,27,30)" stroke-width="1" fill="none" stroke-opacity="0.501961" />
<line x1="103" y1="53" x2="101" y2="30" id="118" stroke="rgb(252,255,255)" stroke-width="1" fill="none" stroke-opacity="0.501961" />
<line x1="176" y1="74" x2="151" y2="76" id="119" stroke="rgb(255,255,255)" stroke-width="1" fill="none" stroke-opacity="0.501961" />
<line x1="201" y1="99" x2="240" y2="123" id="120" stroke="rgb(0,2,6)" stroke-width="1" fill="none" stroke-opacity="0.501961" />
<line x1="169" y1="94" x2="167" y2="74" id="121" stroke="rgb(255,255,255)" stroke-width="1" fill="none" stroke-opacity="0.501961" />
<line x1="112" y1="52" x2="80" y2="31" id="122" stroke="rgb(255,255,255)" stroke-width="1" fill="none" stroke-opacity="0.501961" />
<line x1="98" y1="56" x2="98" y2="33" id="123" stroke="rgb(255,255,255)" stroke-width="1" fill="none" stroke-opacity="0.501961" />
<line x1="151" y1="111" x2="191" y2="105" id="124" stroke="rgb(0,0,0)" stroke-width="1" fill="none" stroke-opacity="0.501961" />
<line x1="240" y1="50" x2="223" y2="84" id="125" stroke="rgb(0,7,10)" stroke-width="1" fill="none" stroke-opacity="0.501961" />
<line x1="169" y1="54" x2="185" y2="103" id="126" stroke="rgb(255,243,229)" stroke-width="1" fill="none" stroke-opacity="0.501961" />
<line x1="134" y1="77" x2="13" y2="51" id="127" stroke="rgb(28,30,33)" stroke-width="1" fill="none" stroke-opacity="0.501961" />
<line x1="99" y1="34" x2="101" y2="53" id="128" stroke="rgb(255,255,255)" stroke-width="1" fill="none" stroke-opacity="0.501961" />
<line x1="161" y1="99" x2="181" y2="101" id="129" stroke="rgb(0,0,0)" stroke-width="1" fill="none" stroke-opacity="0.501961" />
<line x1="118" y1="0" x2="118" y2="78" id="130" stroke="rgb(30,32,36)" stroke-width="1" fill="none" stroke-opacity="0.501961" />
<line x1="102" y1="61" x2="50" y2="62" id="131" stroke="rgb(0,11,13)" stroke-width="1" fill="none" stroke-opacity="0.501961" />
<line x1="83" y1="69" x2="85" y2="85" id="132" stroke="rgb(0,0,0)" stroke-width="1" fill="none" stroke-opacity="0.501961" />
<line x1="137" y1="4" x2="140" y2="58" id="133" stroke="rgb(14,22,26)" stroke-width="1" fill="none" stroke-opacity="0.501961" />
<line x1="253" y1="15" x2="223" y2="83" id="134" stroke="rgb(4,19,22)" stroke-width="1" fill="none" stroke-opacity="0.501961" />
<line x1="117" y1="143" x2="117" y2="115" id="135" stroke="rgb(0,5,9)" stroke-width="1" fill="none" stroke-opacity="0.501961" />
<line x1="138" y1="54" x2="137" y2="143" id="136" stroke="rgb(31,31,36)" stroke-width="1" fill="none" stroke-opacity="0.501961" />
<line x1="174" y1="96" x2="178" y2="134" id="137" stroke="rgb(0,0,0)" stroke-width="1" fill="none" stroke-opacity="0.501961" />
<line x1="74" y1="56" x2="29" y2="143" id="138" stroke="rgb(255,162,164)" stroke-width="1" fill="none" stroke-opacity="0.501961" />
<line x1="218" y1="106" x2="142" y2="103" id="139" stroke="rgb(2,20,23)" stroke-width="1" fill="none" stroke-opacity="0.501961" />
<line x1="0" y1="58" x2="35" y2="46" id="140" stroke="rgb(0,0,2)" stroke-width="1" fill="none" stroke-opacity="0.501961" />
<line x1="101" y1="26" x2="112" y2="57" id="141" stroke="rgb(255,255,255)" stroke-width="1" fill="none" stroke-opacity="0.501961" />
<line x1="99" y1="31" x2="79" y2="34" id="142" stroke="rgb(255,255,255)" stroke-width="1" fill="none" stroke-opacity="0.501961" />
<line x1="134" y1="80" x2="31" y2="57" id="143" stroke="rgb(17,25,28)" stroke-width="1" fill="none" stroke-opacity="0.501961" />
<line x1="170" y1="96" x2="169" y2="74" id="144" stroke="rgb(255,255,255)" stroke-width="1" fill="none" stroke-opacity="0.501961" />
<line x1="157" y1="104" x2="177" y2="143" id="145" stroke="rgb(245,197,199)" stroke-width="1" fill="none" stroke-opacity="0.501961" />
<line x1="122" y1="143" x2="123" y2="109" id="146" stroke="rgb(0,3,8)" stroke-width="1" fill="none" stroke-opacity="0.501961" />
<line x1="193" y1="18" x2="151" y2="13" id="147" stroke="rgb(255,255,242)" stroke-width="1" fill="none" stroke-opacity="0.501961" />
<line x1="125" y1="0" x2="125" y2="50" id="148" stroke="rgb(0,7,11)" stroke-width="1" fill="none" stroke-opacity="0.501961" />
<line x1="98" y1="86" x2="94" y2="54" id="149" stroke="rgb(0,0,0)" stroke-width="1" fill="none" stroke-opacity="0.501961" />
<line x1="255" y1="78" x2="209" y2="105" id="150" stroke="rgb(7,19,23)" stroke-width="1" fill="none" stroke-opacity="0.501961" />
<line x1="101" y1="58" x2="89" y2="57" id="151" stroke="rgb(0,0,0)" stroke-width="1" fill="none" stroke-opacity="0.501961" />
<line x1="189" y1="130" x2="174" y2="96" id="152" stroke="rgb(0,0,0)" stroke-width="1" fill="none" stroke-opacity="0.501961" />
<line x1="93" y1="76" x2="96" y2="38" id="153" stroke="rgb(0,0,0)" stroke-width="1" fill="none" stroke-opacity="0.501961" />
<line x1="133" y1="0" x2="112" y2="76" id="154" stroke="rgb(29,28,32)" stroke-width="1" fill="none" stroke-opacity="0.501961" />
</svg>