<?xml version="1.0" standalone="no"?>
<svg xmlns="http://www.w3.org/2000/svg" version="1.2" baseProfile="tiny" width="256" height="144" viewBox="0 0 256 144">
<rect x="0" y="0" width="256" height="144" id="0" fill="rgb(158,160,164)" fill-opacity="1" />
<path d="M234 55 Q 0 66 232 55" id="1" stroke="rgb(0,0,0)" stroke-width="1" fill="none" stroke-opacity="0.501961" />
<path d="M158 69 Q 24 74 255 44" id="2" stroke="rgb(0,0,0)" stroke-width="1" fill="none" stroke-opacity="0.501961" />
<path d="M231 58 Q 16 94 194 45" id="3" stroke="rgb(0,0,0)" stroke-width="1" fill="none" stroke-opacity="0.501961" />
<path d="M146 68 Q 36 62 232 69" id="4" stroke="rgb(0,0,0)" stroke-width="1" fill="none" stroke-opacity="0.501961" />
<path d="M230 82 Q 67 45 200 75" id="5" stroke="rgb(0,0,0)" stroke-width="1" fill="none" stroke-opacity="0.501961" />
<path d="M232 75 Q 1 42 236 75" id="6" stroke="rgb(0,0,0)" stroke-width="1" fill="none" stroke-opacity="0.501961" />
<path d="M165 56 Q 63 41 240 58" id="7" stroke="rgb(0,0,0)" stroke-width="1" fill="none" stroke-opacity="0.501961" />
<path d="M227 69 Q 39 20 230 77" id="8" stroke="rgb(0,0,0)" stroke-width="1" fill="none" stroke-opacity="0.501961" />
<path d="M101 74 Q 233 14 213 94" id="9" stroke="rgb(0,0,0)" stroke-width="1" fill="none" stroke-opacity="0.501961" />
<path d="M234 63 Q 42 29 224 89" id="10" stroke="rgb(0,0,0)" stroke-width="1" fill="none" stroke-opacity="0.501961" />
<path d="M228 54 Q 32 88 183 61" id="11" stroke="rgb(0,0,0)" stroke-width="1" fill="none" stroke-opacity="0.501961" />
<path d="M209 55 Q 3 41 227 85" id="12" stroke="rgb(0,0,0)" stroke-width="1" fill="none" stroke-opacity="0.501961" />
<path d="M201 93 Q 6 62 218 51" id="13" stroke="rgb(0,0,0)" stroke-width="1" fill="none" stroke-opacity="0.501961" />
<path d="M146 73 Q 21 51 205 71" id="14" stroke="rgb(0,0,0)" stroke-width="1" fill="none" stroke-opacity="0.501961" />
<path d="M183 98 Q 18 35 233 63" id="15" stroke="rgb(0,0,0)" stroke-width="1" fill="none" stroke-opacity="0.501961" />
<path d="M232 63 Q 10 72 197 64" id="16" stroke="rgb(0,0,0)" stroke-width="1" fill="none" stroke-opacity="0.501961" />
<path d="M148 28 Q 255 143 182 45" id="17" stroke="rgb(0,0,0)" stroke-width="1" fill="none" stroke-opacity="0.501961" />
<path d="M11 48 Q 158 61 229 81" id="18" stroke="rgb(0,15,62)" stroke-width="1" fill="none" stroke-opacity="0.501961" />
<path d="M153 31 Q 20 74 243 85" id="19" stroke="rgb(0,0,0)" stroke-width="1" fill="none" stroke-opacity="0.501961" />
<path d="M29 143 Q 255 143 29 143" id="20" stroke="rgb(255,255,255)" stroke-width="1" fill="none" stroke-opacity="0.501961" />
<path d="M227 76 Q 12 16 162 71" id="21" stroke="rgb(0,0,0)" stroke-width="1" fill="none" stroke-opacity="0.501961" />
<path d="M192 92 Q 36 24 185 97" id="22" stroke="rgb(0,0,0)" stroke-width="1" fill="none" stroke-opacity="0.501961" />
<path d="M174 56 Q 32 65 218 48" id="23" stroke="rgb(0,0,0)" stroke-width="1" fill="none" stroke-opacity="0.501961" />
<path d="M220 134 Q 32 61 189 122" id="24" stroke="rgb(255,160,0)" stroke-width="1" fill="none" stroke-opacity="0.501961" />
<path d="M63 140 Q 10 0 66 143" id="25" stroke="rgb(255,255,255)" stroke-width="1" fill="none" stroke-opacity="0.501961" />
<path d="M68 143 Q 11 0 66 140" id="26" stroke="rgb(255,255,255)" stroke-width="1" fill="none" stroke-opacity="0.501961" />
<path d="M92 35 Q 247 11 218 106" id="27" stroke="rgb(0,0,5)" stroke-width="1" fill="none" stroke-opacity="0.501961" />
<path d="M102 48 Q 242 67 233 76" id="28" stroke="rgb(0,0,0)" stroke-width="1" fill="none" stroke-opacity="0.501961" />
<path d="M217 101 Q 18 38 226 84" id="29" stroke="rgb(0,0,3)" stroke-width="1" fill="none" stroke-opacity="0.501961" />
<path d="M56 66 Q 196 97 231 76" id="30" stroke="rgb(0,15,52)" stroke-width="1" fill="none" stroke-opacity="0.501961" />
<path d="M43 68 Q 255 29 212 73" id="31" stroke="rgb(0,5,52)" stroke-width="1" fill="none" stroke-opacity="0.501961" />
<path d="M62 86 Q 107 0 88 133" id="32" stroke="rgb(0,0,153)" stroke-width="1" fill="none" stroke-opacity="0.501961" />
<path d="M118 45 Q 125 116 231 69" id="33" stroke="rgb(0,0,0)" stroke-width="1" fill="none" stroke-opacity="0.501961" />
<path d="M7 137 Q 232 142 184 143" id="34" stroke="rgb(255,255,255)" stroke-width="1" fill="none" stroke-opacity="0.501961" />
<path d="M45 139 Q 19 0 68 138" id="35" stroke="rgb(255,255,255)" stroke-width="1" fill="none" stroke-opacity="0.501961" />
<path d="M16 140 Q 139 143 189 143" id="36" stroke="rgb(255,255,255)" stroke-width="1" fill="none" stroke-opacity="0.501961" />
<path d="M188 139 Q 1 139 184 138" id="37" stroke="rgb(255,255,255)" stroke-width="1" fill="none" stroke-opacity="0.501961" />
<path d="M177 55 Q 249 58 117 29" id="38" stroke="rgb(0,0,0)" stroke-width="1" fill="none" stroke-opacity="0.501961" />
<path d="M126 76 Q 74 58 212 101" id="39" stroke="rgb(0,0,0)" stroke-width="1" fill="none" stroke-opacity="0.501961" />
<path d="M68 52 Q 248 28 211 75" id="40" stroke="rgb(0,11,53)" stroke-width="1" fill="none" stroke-opacity="0.501961" />
<path d="M15 89 Q 125 134 16 75" id="41" stroke="rgb(255,255,255)" stroke-width="1" fill="none" stroke-opacity="0.501961" />
<path d="M230 56 Q 72 129 230 55" id="42" stroke="rgb(0,0,0)" stroke-width="1" fill="none" stroke-opacity="0.501961" />
<path d="M161 137 Q 11 138 183 137" id="43" stroke="rgb(255,255,255)" stroke-width="1" fill="none" stroke-opacity="0.501961" />
<path d="M182 139 Q 0 143 44 134" id="44" stroke="rgb(255,255,255)" stroke-width="1" fill="none" stroke-opacity="0.501961" />
<path d="M165 123 Q 45 52 212 60" id="45" stroke="rgb(16,0,0)" stroke-width="1" fill="none" stroke-opacity="0.501961" />
<path d="M152 37 Q 74 2 90 135" id="46" stroke="rgb(0,17,140)" stroke-width="1" fill="none" stroke-opacity="0.501961" />
<path d="M35 46 Q 30 88 64 143" id="47" stroke="rgb(255,255,255)" stroke-width="1" fill="none" stroke-opacity="0.501961" />
<path d="M242 78 Q 124 96 212 92" id="48" stroke="rgb(0,0,0)" stroke-width="1" fill="none" stroke-opacity="0.501961" />
<path d="M165 136 Q 15 142 248 112" id="49" stroke="rgb(255,255,255)" stroke-width="1" fill="none" stroke-opacity="0.501961" />
<path d="M112 32 Q 2 143 112 32" id="50" stroke="rgb(0,16,175)" stroke-width="1" fill="none" stroke-opacity="0.501961" />
<path d="M255 120 Q 77 88 249 119" id="51" stroke="rgb(255,255,255)" stroke-width="1" fill="none" stroke-opacity="0.501961" />
<path d="M79 44 Q 111 143 57 62" id="52" stroke="rgb(0,25,192)" stroke-width="1" fill="none" stroke-opacity="0.501961" />
<path d="M58 133 Q 12 39 60 13" id="53" stroke="rgb(255,255,255)" stroke-width="1" fill="none" stroke-opacity="0.501961" />
<path d="M74 141 Q 12 0 40 73" id="54" stroke="rgb(255,255,255)" stroke-width="1" fill="none" stroke-opacity="0.501961" />
<path d="M54 143 Q 11 0 42 136" id="55" stroke="rgb(255,255,255)" stroke-width="1" fill="none" stroke-opacity="0.501961" />
<path d="M254 127 Q 81 84 255 126" id="56" stroke="rgb(255,255,255)" stroke-width="1" fill="none" stroke-opacity="0.501961" />
<path d="M233 59 Q 190 60 154 37" id="57" stroke="rgb(0,0,0)" stroke-width="1" fill="none" stroke-opacity="0.501961" />
<path d="M229 85 Q 31 122 214 77" id="58" stroke="rgb(66,18,0)" stroke-width="1" fill="none" stroke-opacity="0.501961" />
<path d="M34 143 Q 8 0 71 136" id="59" stroke="rgb(255,255,255)" stroke-width="1" fill="none" stroke-opacity="0.501961" />
<path d="M215 140 Q 45 56 161 33" id="60" stroke="rgb(44,0,0)" stroke-width="1" fill="none" stroke-opacity="0.501961" />
<path d="M76 143 Q 19 125 33 8" id="61" stroke="rgb(255,255,255)" stroke-width="1" fill="none" stroke-opacity="0.501961" />
<path d="M240 64 Q 1 88 108 75" id="62" stroke="rgb(0,28,75)" stroke-width="1" fill="none" stroke-opacity="0.501961" />
<path d="M81 136 Q 95 123 92 36" id="63" stroke="rgb(0,11,158)" stroke-width="1" fill="none" stroke-opacity="0.501961" />
<path d="M49 48 Q 130 46 226 45" id="64" stroke="rgb(0,17,65)" stroke-width="1" fill="none" stroke-opacity="0.501961" />
<path d="M95 95 Q 86 15 85 131" id="65" stroke="rgb(0,34,199)" stroke-width="1" fill="none" stroke-opacity="0.501961" />
<path d="M248 127 Q 13 142 154 122" id="66" stroke="rgb(255,255,243)" stroke-width="1" fill="none" stroke-opacity="0.501961" />
<path d="M179 85 Q 78 14 192 37" id="67" stroke="rgb(0,0,0)" stroke-width="1" fill="none" stroke-opacity="0.501961" />
<path d="M43 124 Q 47 32 63 131" id="68" stroke="rgb(255,255,255)" stroke-width="1" fill="none" stroke-opacity="0.501961" />
<path d="M239 43 Q 211 112 51 69" id="69" stroke="rgb(0,28,61)" stroke-width="1" fill="none" stroke-opacity="0.501961" />
<path d="M191 87 Q 19 69 254 78" id="70" stroke="rgb(29,29,31)" stroke-width="1" fill="none" stroke-opacity="0.501961" />
<path d="M41 143 Q 8 23 60 143" id="71" stroke="rgb(255,255,255)" stroke-width="1" fill="none" stroke-opacity="0.501961" />
<path d="M22 76 Q 124 125 13 105" id="72" stroke="rgb(255,255,255)" stroke-width="1" fill="none" stroke-opacity="0.501961" />
<path d="M234 49 Q 39 31 87 133" id="73" stroke="rgb(0,29,96)" stroke-width="1" fill="none" stroke-opacity="0.501961" />
<path d="M255 107 Q 138 129 255 107" id="74" stroke="rgb(255,255,255)" stroke-width="1" fill="none" stroke-opacity="0.501961" />
<path d="M22 139 Q 82 19 26 130" id="75" stroke="rgb(255,255,255)" stroke-width="1" fill="none" stroke-opacity="0.501961" />
<path d="M21 129 Q 43 0 60 139" id="76" stroke="rgb(255,255,255)" stroke-width="1" fill="none" stroke-opacity="0.501961" />
<path d="M60 133 Q 45 5 34 142" id="77" stroke="rgb(255,255,255)" stroke-width="1" fill="none" stroke-opacity="0.501961" />
<path d="M235 59 Q 43 103 235 59" id="78" stroke="rgb(9,13,23)" stroke-width="1" fill="none" stroke-opacity="0.501961" />
<path d="M248 126 Q 60 129 168 136" id="79" stroke="rgb(255,255,236)" stroke-width="1" fill="none" stroke-opacity="0.501961" />
<path d="M130 79 Q 253 20 118 30" id="80" stroke="rgb(0,0,7)" stroke-width="1" fill="none" stroke-opacity="0.501961" />
<path d="M189 129 Q 64 60 181 125" id="81" stroke="rgb(255,129,0)" stroke-width="1" fill="none" stroke-opacity="0.501961" />
<path d="M87 122 Q 30 8 92 96" id="82" stroke="rgb(0,41,188)" stroke-width="1" fill="none" stroke-opacity="0.501961" />
<path d="M94 80 Q 54 24 78 128" id="83" stroke="rgb(0,30,178)" stroke-width="1" fill="none" stroke-opacity="0.501961" />
<path d="M82 134 Q 83 116 84 41" id="84" stroke="rgb(0,54,222)" stroke-width="1" fill="none" stroke-opacity="0.501961" />
<path d="M154 37 Q 255 83 197 88" id="85" stroke="rgb(0,0,0)" stroke-width="1" fill="none" stroke-opacity="0.501961" />
<path d="M255 80 Q 6 121 205 45" id="86" stroke="rgb(34,22,17)" stroke-width="1" fill="none" stroke-opacity="0.501961" />
<path d="M22 120 Q 21 17 39 137" id="87" stroke="rgb(255,255,255)" stroke-width="1" fill="none" stroke-opacity="0.501961" />
<path d="M223 57 Q 40 82 174 62" id="88" stroke="rgb(0,0,14)" stroke-width="1" fill="none" stroke-opacity="0.501961" />
<path d="M36 142 Q 9 20 44 143" id="89" stroke="rgb(255,255,255)" stroke-width="1" fill="none" stroke-opacity="0.501961" />
<path d="M94 126 Q 255 139 100 135" id="90" stroke="rgb(255,255,255)" stroke-width="1" fill="none" stroke-opacity="0.501961" />
<path d="M255 103 Q 135 121 255 124" id="91" stroke="rgb(255,255,255)" stroke-width="1" fill="none" stroke-opacity="0.501961" />
<path d="M204 41 Q 27 1 230 69" id="92" stroke="rgb(0,0,11)" stroke-width="1" fill="none" stroke-opacity="0.501961" />
<path d="M209 143 Q 94 85 214 143" id="93" stroke="rgb(255,255,0)" stroke-width="1" fill="none" stroke-opacity="0.501961" />
<path d="M114 134 Q 255 137 92 131" id="94" stroke="rgb(255,255,255)" stroke-width="1" fill="none" stroke-opacity="0.501961" />
</svg>