<svg xmlns="http://www.w3.org/2000/svg" width="256" height="144" baseProfile="tiny" version="1.2" viewBox="0 0 256 144"><rect id="0" width="256" height="144" x="0" y="0" fill="#D8DAD5" fill-opacity="1"/><rect id="1" width="179" height="37" x="58" y="27" fill="#424230" fill-opacity=".502"/><rect id="2" width="90" height="91" x="165" y="52" fill="#FFF" fill-opacity=".502"/><rect id="3" width="32" height="15" x="16" y="64" fill="#000201" fill-opacity=".502"/><rect id="4" width="103" height="36" x="0" y="0" fill="#FFF" fill-opacity=".502"/><rect id="5" width="40" height="20" x="94" y="57" fill="#163400" fill-opacity=".502"/><rect id="6" width="91" height="26" x="153" y="19" fill="#686530" fill-opacity=".502"/><rect id="7" width="60" height="63" x="0" y="80" fill="#FFF" fill-opacity=".502"/><rect id="8" width="29" height="77" x="190" y="45" fill="#FFF" fill-opacity=".502"/><rect id="9" width="39" height="20" x="147" y="40" fill="#09152C" fill-opacity=".502"/><rect id="10" width="65" height="60" x="74" y="83" fill="#FFF" fill-opacity=".502"/><rect id="11" width="20" height="12" x="105" y="30" fill="#000100" fill-opacity=".502"/><rect id="12" width="48" height="31" x="46" y="53" fill="#90A09A" fill-opacity=".502"/><rect id="13" width="7" height="42" x="62" y="87" fill="#18742C" fill-opacity=".502"/><rect id="14" width="54" height="29" x="200" y="0" fill="#FFFFF7" fill-opacity=".502"/><rect id="15" width="191" height="17" x="0" y="0" fill="#FFF" fill-opacity=".502"/><rect id="16" width="12" height="39" x="115" y="67" fill="#FFF" fill-opacity=".502"/><rect id="17" width="5" height="23" x="141" y="79" fill="#224E00" fill-opacity=".502"/><rect id="18" width="48" height="26" x="125" y="18" fill="#8597B8" fill-opacity=".502"/><rect id="19" width="73" height="41" x="149" y="61" fill="#FFF" fill-opacity=".502"/><rect id="20" width="37" height="56" x="14" y="1" fill="#FFF" fill-opacity=".502"/><rect id="21" width="13" height="45" x="220" y="20" fill="#755C23" fill-opacity=".502"/><rect id="22" width="20" height="19" x="170" y="32" fill="#000836" fill-opacity=".502"/><rect id="23" width="60" height="62" x="0" y="81" fill="#FFF" fill-opacity=".502"/><rect id="24" width="4" height="19" x="182" y="48" fill="#000" fill-opacity=".502"/><rect id="25" width="153" height="7" x="45" y="125" fill="#B2B0B4" fill-opacity=".502"/><polyline id="26" fill="none" stroke="#FFF" stroke-opacity=".502" stroke-width="1" points="0 143 255 143 0 143 255 143"/><rect id="27" width="18" height="7" x="151" y="105" fill="#466500" fill-opacity=".502"/><rect id="28" width="80" height="73" x="175" y="70" fill="#FFF" fill-opacity=".502"/><rect id="29" width="19" height="8" x="75" y="75" fill="#027215" fill-opacity=".502"/><rect id="30" width="46" height="42" x="91" y="80" fill="#FFF" fill-opacity=".502"/><rect id="31" width="33" height="27" x="187" y="48" fill="#FFF" fill-opacity=".502"/><rect id="32" width="212" height="10" x="43" y="133" fill="#FFF" fill-opacity=".502"/><rect id="33" width="5" height="12" x="9" y="52" fill="#150500" fill-opacity=".502"/><rect id="34" width="32" height="5" x="185" y="15" fill="#7C7827" fill-opacity=".502"/><rect id="35" width="16" height="17" x="96" y="59" fill="#062C00" fill-opacity=".502"/><rect id="36" width="12" height="9" x="47" y="54" fill="#191F2B" fill-opacity=".502"/><rect id="37" width="75" height="39" x="0" y="0" fill="#FFF" fill-opacity=".502"/><rect id="38" width="255" height="16" x="0" y="0" fill="#FFF" fill-opacity=".502"/><rect id="39" width="8" height="13" x="131" y="70" fill="#466C0F" fill-opacity=".502"/><rect id="40" width="11" height="48" x="163" y="56" fill="#FFF" fill-opacity=".502"/><rect id="41" width="11" height="13" x="64" y="39" fill="#01164C" fill-opacity=".502"/><rect id="42" width="17" height="10" x="79" y="63" fill="#FFF" fill-opacity=".502"/><rect id="43" width="20" height="98" x="235" y="45" fill="#FFF" fill-opacity=".502"/><rect id="44" width="9" height="32" x="152" y="24" fill="#DC7042" fill-opacity=".502"/><rect id="45" width="73" height="16" x="68" y="97" fill="#FFF" fill-opacity=".502"/><rect id="46" width="22" height="18" x="213" y="19" fill="#A8AF38" fill-opacity=".502"/><rect id="47" width="16" height="67" x="0" y="70" fill="#FFF" fill-opacity=".502"/><rect id="48" width="44" height="4" x="102" y="58" fill="#0C0000" fill-opacity=".502"/><rect id="49" width="16" height="31" x="56" y="58" fill="#D9E2E4" fill-opacity=".502"/><rect id="50" width="9" height="7" x="146" y="98" fill="#4A6F00" fill-opacity=".502"/><polyline id="51" fill="none" stroke="#FFF" stroke-opacity=".502" stroke-width="1" points="248 143 227 56 241 105 225 47"/><rect id="52" width="4" height="5" x="69" y="83" fill="#003200" fill-opacity=".502"/><rect id="53" width="12" height="15" x="139" y="23" fill="#2390DC" fill-opacity=".502"/><rect id="54" width="46" height="10" x="201" y="31" fill="#7B8425" fill-opacity=".502"/><rect id="55" width="25" height="6" x="103" y="18" fill="#568ABA" fill-opacity=".502"/><rect id="56" width="30" height="14" x="101" y="44" fill="#D7C2B3" fill-opacity=".502"/><rect id="57" width="11" height="15" x="108" y="29" fill="#183600" fill-opacity=".502"/><rect id="58" width="8" height="31" x="191" y="13" fill="#5D663A" fill-opacity=".502"/><polyline id="59" fill="none" stroke="#006101" stroke-opacity=".502" stroke-width="1" points="71 88 65 107 73 79 101 69"/><rect id="60" width="10" height="8" x="136" y="47" fill="#FFF" fill-opacity=".502"/><rect id="61" width="46" height="43" x="90" y="79" fill="#FFF" fill-opacity=".502"/><rect id="62" width="16" height="8" x="65" y="69" fill="#FFF" fill-opacity=".502"/></svg>