<svg xmlns="http://www.w3.org/2000/svg" width="256" height="144" baseProfile="tiny" version="1.2" viewBox="0 0 256 144"><rect id="0" width="256" height="144" x="0" y="0" fill="#969EA5" fill-opacity="1"/><line id="1" x1="255" x2="255" y1="77" y2="143" fill="none" stroke="#000" stroke-opacity=".502" stroke-width="1"/><line id="2" x1="254" x2="253" y1="78" y2="143" fill="none" stroke="#000" stroke-opacity=".502" stroke-width="1"/><line id="3" x1="252" x2="252" y1="79" y2="143" fill="none" stroke="#000" stroke-opacity=".502" stroke-width="1"/><line id="4" x1="250" x2="251" y1="143" y2="75" fill="none" stroke="#000" stroke-opacity=".502" stroke-width="1"/><line id="5" x1="50" x2="147" y1="104" y2="94" fill="none" stroke="#001" stroke-opacity=".502" stroke-width="1"/><line id="6" x1="255" x2="252" y1="143" y2="77" fill="none" stroke="#000" stroke-opacity=".502" stroke-width="1"/><line id="7" x1="104" x2="122" y1="115" y2="50" fill="none" stroke="#900" stroke-opacity=".502" stroke-width="1"/><line id="8" x1="117" x2="124" y1="102" y2="45" fill="none" stroke="red" stroke-opacity=".502" stroke-width="1"/><line id="9" x1="36" x2="159" y1="129" y2="109" fill="none" stroke="#000" stroke-opacity=".502" stroke-width="1"/><line id="10" x1="255" x2="210" y1="87" y2="72" fill="none" stroke="#000" stroke-opacity=".502" stroke-width="1"/><line id="11" x1="71" x2="180" y1="16" y2="28" fill="none" stroke="#000" stroke-opacity=".502" stroke-width="1"/><line id="12" x1="117" x2="103" y1="53" y2="117" fill="none" stroke="#860000" stroke-opacity=".502" stroke-width="1"/><line id="13" x1="149" x2="57" y1="96" y2="104" fill="none" stroke="#000010" stroke-opacity=".502" stroke-width="1"/><line id="14" x1="152" x2="50" y1="78" y2="124" fill="none" stroke="#000020" stroke-opacity=".502" stroke-width="1"/><line id="15" x1="117" x2="123" y1="93" y2="44" fill="none" stroke="red" stroke-opacity=".502" stroke-width="1"/><line id="16" x1="34" x2="35" y1="20" y2="104" fill="none" stroke="#000" stroke-opacity=".502" stroke-width="1"/><line id="17" x1="170" x2="40" y1="103" y2="97" fill="none" stroke="#00002E" stroke-opacity=".502" stroke-width="1"/><line id="18" x1="250" x2="247" y1="89" y2="138" fill="none" stroke="#000" stroke-opacity=".502" stroke-width="1"/><line id="19" x1="56" x2="144" y1="114" y2="96" fill="none" stroke="#000019" stroke-opacity=".502" stroke-width="1"/><line id="20" x1="213" x2="255" y1="74" y2="89" fill="none" stroke="#000" stroke-opacity=".502" stroke-width="1"/><line id="21" x1="65" x2="148" y1="123" y2="68" fill="none" stroke="#000008" stroke-opacity=".502" stroke-width="1"/><line id="22" x1="255" x2="209" y1="86" y2="70" fill="none" stroke="#000" stroke-opacity=".502" stroke-width="1"/><line id="23" x1="143" x2="35" y1="94" y2="96" fill="none" stroke="#000024" stroke-opacity=".502" stroke-width="1"/><line id="24" x1="118" x2="116" y1="47" y2="90" fill="none" stroke="red" stroke-opacity=".502" stroke-width="1"/><line id="25" x1="141" x2="35" y1="92" y2="95" fill="none" stroke="#000841" stroke-opacity=".502" stroke-width="1"/><line id="26" x1="210" x2="255" y1="69" y2="85" fill="none" stroke="#000" stroke-opacity=".502" stroke-width="1"/><line id="27" x1="144" x2="36" y1="96" y2="101" fill="none" stroke="#00062F" stroke-opacity=".502" stroke-width="1"/><line id="28" x1="250" x2="249" y1="75" y2="143" fill="none" stroke="#000" stroke-opacity=".502" stroke-width="1"/><line id="29" x1="173" x2="61" y1="100" y2="105" fill="none" stroke="#000034" stroke-opacity=".502" stroke-width="1"/><line id="30" x1="206" x2="255" y1="66" y2="84" fill="none" stroke="#000" stroke-opacity=".502" stroke-width="1"/><line id="31" x1="36" x2="146" y1="121" y2="97" fill="none" stroke="#000431" stroke-opacity=".502" stroke-width="1"/><line id="32" x1="112" x2="116" y1="52" y2="93" fill="none" stroke="red" stroke-opacity=".502" stroke-width="1"/><line id="33" x1="214" x2="255" y1="76" y2="90" fill="none" stroke="#000" stroke-opacity=".502" stroke-width="1"/><line id="34" x1="117" x2="115" y1="88" y2="51" fill="none" stroke="red" stroke-opacity=".502" stroke-width="1"/><line id="35" x1="141" x2="121" y1="59" y2="105" fill="none" stroke="#000" stroke-opacity=".502" stroke-width="1"/><line id="36" x1="172" x2="47" y1="106" y2="106" fill="none" stroke="#002661" stroke-opacity=".502" stroke-width="1"/><line id="37" x1="255" x2="213" y1="91" y2="77" fill="none" stroke="#000" stroke-opacity=".502" stroke-width="1"/><line id="38" x1="150" x2="42" y1="77" y2="126" fill="none" stroke="#000236" stroke-opacity=".502" stroke-width="1"/><line id="39" x1="101" x2="99" y1="44" y2="77" fill="none" stroke="red" stroke-opacity=".502" stroke-width="1"/><line id="40" x1="68" x2="108" y1="44" y2="122" fill="none" stroke="#001" stroke-opacity=".502" stroke-width="1"/><line id="41" x1="192" x2="196" y1="117" y2="143" fill="none" stroke="#000" stroke-opacity=".502" stroke-width="1"/><line id="42" x1="97" x2="147" y1="72" y2="85" fill="none" stroke="#5D0000" stroke-opacity=".502" stroke-width="1"/><line id="43" x1="65" x2="91" y1="42" y2="119" fill="none" stroke="#000026" stroke-opacity=".502" stroke-width="1"/><line id="44" x1="110" x2="114" y1="42" y2="92" fill="none" stroke="red" stroke-opacity=".502" stroke-width="1"/><line id="45" x1="103" x2="100" y1="79" y2="47" fill="none" stroke="red" stroke-opacity=".502" stroke-width="1"/><line id="46" x1="248" x2="247" y1="140" y2="109" fill="none" stroke="#000" stroke-opacity=".502" stroke-width="1"/><line id="47" x1="76" x2="146" y1="123" y2="63" fill="none" stroke="#000012" stroke-opacity=".502" stroke-width="1"/><line id="48" x1="117" x2="119" y1="46" y2="93" fill="none" stroke="red" stroke-opacity=".502" stroke-width="1"/><line id="49" x1="37" x2="34" y1="119" y2="74" fill="none" stroke="#000" stroke-opacity=".502" stroke-width="1"/><line id="50" x1="162" x2="156" y1="84" y2="108" fill="none" stroke="#000" stroke-opacity=".502" stroke-width="1"/><line id="51" x1="145" x2="77" y1="26" y2="19" fill="none" stroke="#000039" stroke-opacity=".502" stroke-width="1"/><line id="52" x1="54" x2="155" y1="123" y2="79" fill="none" stroke="#001449" stroke-opacity=".502" stroke-width="1"/><line id="53" x1="198" x2="197" y1="117" y2="143" fill="none" stroke="#000" stroke-opacity=".502" stroke-width="1"/><line id="54" x1="253" x2="250" y1="75" y2="143" fill="none" stroke="#000" stroke-opacity=".502" stroke-width="1"/><line id="55" x1="81" x2="96" y1="61" y2="127" fill="none" stroke="#000D51" stroke-opacity=".502" stroke-width="1"/><line id="56" x1="109" x2="113" y1="87" y2="54" fill="none" stroke="red" stroke-opacity=".502" stroke-width="1"/><line id="57" x1="35" x2="147" y1="113" y2="97" fill="none" stroke="#001438" stroke-opacity=".502" stroke-width="1"/><line id="58" x1="199" x2="199" y1="121" y2="143" fill="none" stroke="#000" stroke-opacity=".502" stroke-width="1"/><line id="59" x1="255" x2="210" y1="82" y2="67" fill="none" stroke="#000" stroke-opacity=".502" stroke-width="1"/><line id="60" x1="119" x2="125" y1="107" y2="38" fill="none" stroke="#810000" stroke-opacity=".502" stroke-width="1"/><line id="61" x1="201" x2="200" y1="143" y2="122" fill="none" stroke="#000" stroke-opacity=".502" stroke-width="1"/><line id="62" x1="255" x2="210" y1="88" y2="73" fill="none" stroke="#000" stroke-opacity=".502" stroke-width="1"/><line id="63" x1="201" x2="200" y1="121" y2="143" fill="none" stroke="#000" stroke-opacity=".502" stroke-width="1"/><line id="64" x1="113" x2="145" y1="122" y2="60" fill="none" stroke="#000005" stroke-opacity=".502" stroke-width="1"/><line id="65" x1="195" x2="189" y1="143" y2="117" fill="none" stroke="#000" stroke-opacity=".502" stroke-width="1"/><line id="66" x1="101" x2="102" y1="79" y2="45" fill="none" stroke="red" stroke-opacity=".502" stroke-width="1"/><line id="67" x1="76" x2="37" y1="17" y2="12" fill="none" stroke="#000" stroke-opacity=".502" stroke-width="1"/><line id="68" x1="76" x2="92" y1="55" y2="120" fill="none" stroke="#003" stroke-opacity=".502" stroke-width="1"/><line id="69" x1="66" x2="109" y1="55" y2="119" fill="none" stroke="#000025" stroke-opacity=".502" stroke-width="1"/><line id="70" x1="43" x2="139" y1="123" y2="102" fill="none" stroke="#002968" stroke-opacity=".502" stroke-width="1"/><line id="71" x1="116" x2="114" y1="52" y2="87" fill="none" stroke="red" stroke-opacity=".502" stroke-width="1"/><line id="72" x1="234" x2="118" y1="98" y2="123" fill="none" stroke="#FFF" stroke-opacity=".502" stroke-width="1"/><line id="73" x1="73" x2="168" y1="96" y2="95" fill="none" stroke="#000023" stroke-opacity=".502" stroke-width="1"/><line id="74" x1="98" x2="171" y1="24" y2="29" fill="none" stroke="#001349" stroke-opacity=".502" stroke-width="1"/><line id="75" x1="196" x2="196" y1="122" y2="143" fill="none" stroke="#000" stroke-opacity=".502" stroke-width="1"/><line id="76" x1="244" x2="250" y1="133" y2="99" fill="none" stroke="#000" stroke-opacity=".502" stroke-width="1"/><line id="77" x1="255" x2="254" y1="74" y2="0" fill="none" stroke="#FFF" stroke-opacity=".502" stroke-width="1"/><line id="78" x1="111" x2="40" y1="113" y2="97" fill="none" stroke="#00236E" stroke-opacity=".502" stroke-width="1"/><line id="79" x1="254" x2="255" y1="143" y2="78" fill="none" stroke="#000" stroke-opacity=".502" stroke-width="1"/><line id="80" x1="255" x2="209" y1="87" y2="71" fill="none" stroke="#000" stroke-opacity=".502" stroke-width="1"/><line id="81" x1="34" x2="36" y1="62" y2="124" fill="none" stroke="#000" stroke-opacity=".502" stroke-width="1"/><line id="82" x1="36" x2="33" y1="68" y2="12" fill="none" stroke="#000" stroke-opacity=".502" stroke-width="1"/><line id="83" x1="174" x2="36" y1="106" y2="128" fill="none" stroke="#002355" stroke-opacity=".502" stroke-width="1"/><line id="84" x1="118" x2="120" y1="100" y2="49" fill="none" stroke="red" stroke-opacity=".502" stroke-width="1"/><line id="85" x1="110" x2="146" y1="92" y2="93" fill="none" stroke="#000" stroke-opacity=".502" stroke-width="1"/><line id="86" x1="118" x2="249" y1="130" y2="98" fill="none" stroke="#FFF" stroke-opacity=".502" stroke-width="1"/><line id="87" x1="171" x2="64" y1="104" y2="101" fill="none" stroke="#00235D" stroke-opacity=".502" stroke-width="1"/><line id="88" x1="111" x2="115" y1="92" y2="49" fill="none" stroke="red" stroke-opacity=".502" stroke-width="1"/><line id="89" x1="104" x2="102" y1="79" y2="39" fill="none" stroke="red" stroke-opacity=".502" stroke-width="1"/><line id="90" x1="62" x2="173" y1="109" y2="105" fill="none" stroke="#003666" stroke-opacity=".502" stroke-width="1"/><line id="91" x1="141" x2="131" y1="60" y2="103" fill="none" stroke="#000" stroke-opacity=".502" stroke-width="1"/><line id="92" x1="213" x2="255" y1="75" y2="89" fill="none" stroke="#000" stroke-opacity=".502" stroke-width="1"/><line id="93" x1="168" x2="161" y1="108" y2="84" fill="none" stroke="#000" stroke-opacity=".502" stroke-width="1"/><line id="94" x1="59" x2="138" y1="21" y2="24" fill="none" stroke="#00265D" stroke-opacity=".502" stroke-width="1"/><line id="95" x1="195" x2="191" y1="142" y2="117" fill="none" stroke="#000" stroke-opacity=".502" stroke-width="1"/><line id="96" x1="74" x2="108" y1="58" y2="116" fill="none" stroke="#000020" stroke-opacity=".502" stroke-width="1"/><line id="97" x1="87" x2="67" y1="114" y2="50" fill="none" stroke="#001945" stroke-opacity=".502" stroke-width="1"/><line id="98" x1="118" x2="146" y1="116" y2="60" fill="none" stroke="#000004" stroke-opacity=".502" stroke-width="1"/><line id="99" x1="197" x2="198" y1="116" y2="143" fill="none" stroke="#000" stroke-opacity=".502" stroke-width="1"/><line id="100" x1="150" x2="90" y1="65" y2="115" fill="none" stroke="#000019" stroke-opacity=".502" stroke-width="1"/><line id="101" x1="95" x2="144" y1="126" y2="60" fill="none" stroke="#000221" stroke-opacity=".502" stroke-width="1"/><line id="102" x1="153" x2="48" y1="26" y2="14" fill="none" stroke="#001539" stroke-opacity=".502" stroke-width="1"/><line id="103" x1="193" x2="197" y1="117" y2="143" fill="none" stroke="#000" stroke-opacity=".502" stroke-width="1"/><line id="104" x1="232" x2="128" y1="107" y2="123" fill="none" stroke="#FFF" stroke-opacity=".502" stroke-width="1"/><line id="105" x1="151" x2="45" y1="101" y2="94" fill="none" stroke="#003773" stroke-opacity=".502" stroke-width="1"/><line id="106" x1="55" x2="164" y1="125" y2="99" fill="none" stroke="#004C8F" stroke-opacity=".502" stroke-width="1"/><line id="107" x1="230" x2="118" y1="94" y2="129" fill="none" stroke="#FFF" stroke-opacity=".502" stroke-width="1"/><line id="108" x1="53" x2="105" y1="25" y2="118" fill="none" stroke="#001537" stroke-opacity=".502" stroke-width="1"/><line id="109" x1="255" x2="227" y1="91" y2="83" fill="none" stroke="#000" stroke-opacity=".502" stroke-width="1"/><line id="110" x1="189" x2="189" y1="64" y2="0" fill="none" stroke="#FFF" stroke-opacity=".502" stroke-width="1"/><line id="111" x1="103" x2="108" y1="46" y2="86" fill="none" stroke="red" stroke-opacity=".502" stroke-width="1"/><line id="112" x1="126" x2="173" y1="76" y2="87" fill="none" stroke="#002" stroke-opacity=".502" stroke-width="1"/><line id="113" x1="110" x2="112" y1="50" y2="95" fill="none" stroke="red" stroke-opacity=".502" stroke-width="1"/><line id="114" x1="120" x2="126" y1="102" y2="74" fill="none" stroke="#000" stroke-opacity=".502" stroke-width="1"/><line id="115" x1="255" x2="246" y1="77" y2="133" fill="none" stroke="#000" stroke-opacity=".502" stroke-width="1"/><line id="116" x1="135" x2="248" y1="117" y2="98" fill="none" stroke="#FEFFFF" stroke-opacity=".502" stroke-width="1"/><line id="117" x1="193" x2="189" y1="143" y2="116" fill="none" stroke="#000" stroke-opacity=".502" stroke-width="1"/><line id="118" x1="118" x2="223" y1="117" y2="104" fill="none" stroke="#FFF" stroke-opacity=".502" stroke-width="1"/><line id="119" x1="80" x2="84" y1="119" y2="42" fill="none" stroke="#004078" stroke-opacity=".502" stroke-width="1"/><line id="120" x1="144" x2="58" y1="81" y2="128" fill="none" stroke="#001E40" stroke-opacity=".502" stroke-width="1"/><line id="121" x1="121" x2="148" y1="100" y2="61" fill="none" stroke="#000" stroke-opacity=".502" stroke-width="1"/><line id="122" x1="255" x2="254" y1="15" y2="75" fill="none" stroke="#FFF" stroke-opacity=".502" stroke-width="1"/><line id="123" x1="88" x2="45" y1="97" y2="11" fill="none" stroke="#002731" stroke-opacity=".502" stroke-width="1"/><line id="124" x1="34" x2="124" y1="130" y2="115" fill="none" stroke="#000" stroke-opacity=".502" stroke-width="1"/><line id="125" x1="54" x2="90" y1="29" y2="112" fill="none" stroke="#001D39" stroke-opacity=".502" stroke-width="1"/><line id="126" x1="0" x2="72" y1="137" y2="140" fill="none" stroke="#FFF" stroke-opacity=".502" stroke-width="1"/><line id="127" x1="146" x2="91" y1="67" y2="121" fill="none" stroke="#00061E" stroke-opacity=".502" stroke-width="1"/><line id="128" x1="111" x2="103" y1="94" y2="42" fill="none" stroke="#FF0005" stroke-opacity=".502" stroke-width="1"/><line id="129" x1="179" x2="121" y1="125" y2="136" fill="none" stroke="#FFF" stroke-opacity=".502" stroke-width="1"/><line id="130" x1="69" x2="0" y1="139" y2="121" fill="none" stroke="#FFF" stroke-opacity=".502" stroke-width="1"/><line id="131" x1="170" x2="142" y1="105" y2="59" fill="none" stroke="#001" stroke-opacity=".502" stroke-width="1"/><line id="132" x1="101" x2="100" y1="42" y2="79" fill="none" stroke="red" stroke-opacity=".502" stroke-width="1"/><line id="133" x1="121" x2="119" y1="83" y2="49" fill="none" stroke="#F60000" stroke-opacity=".502" stroke-width="1"/><line id="134" x1="89" x2="54" y1="86" y2="25" fill="none" stroke="#000C19" stroke-opacity=".502" stroke-width="1"/><line id="135" x1="211" x2="255" y1="70" y2="82" fill="none" stroke="#000" stroke-opacity=".502" stroke-width="1"/><line id="136" x1="77" x2="92" y1="52" y2="115" fill="none" stroke="#003774" stroke-opacity=".502" stroke-width="1"/><line id="137" x1="126" x2="46" y1="113" y2="121" fill="none" stroke="#004D98" stroke-opacity=".502" stroke-width="1"/><line id="138" x1="165" x2="166" y1="111" y2="86" fill="none" stroke="#000" stroke-opacity=".502" stroke-width="1"/><line id="139" x1="163" x2="157" y1="83" y2="110" fill="none" stroke="#000" stroke-opacity=".502" stroke-width="1"/><line id="140" x1="55" x2="76" y1="97" y2="114" fill="none" stroke="#000" stroke-opacity=".502" stroke-width="1"/><line id="141" x1="251" x2="255" y1="143" y2="89" fill="none" stroke="#000" stroke-opacity=".502" stroke-width="1"/><line id="142" x1="46" x2="94" y1="93" y2="118" fill="none" stroke="#000744" stroke-opacity=".502" stroke-width="1"/><line id="143" x1="88" x2="0" y1="124" y2="136" fill="none" stroke="#FFF" stroke-opacity=".502" stroke-width="1"/><line id="144" x1="144" x2="63" y1="80" y2="121" fill="none" stroke="#00244E" stroke-opacity=".502" stroke-width="1"/><line id="145" x1="0" x2="69" y1="130" y2="143" fill="none" stroke="#FFF" stroke-opacity=".502" stroke-width="1"/><line id="146" x1="124" x2="119" y1="73" y2="104" fill="none" stroke="#000" stroke-opacity=".502" stroke-width="1"/><line id="147" x1="34" x2="127" y1="16" y2="21" fill="none" stroke="#002743" stroke-opacity=".502" stroke-width="1"/><line id="148" x1="246" x2="245" y1="133" y2="117" fill="none" stroke="#000" stroke-opacity=".502" stroke-width="1"/><line id="149" x1="255" x2="210" y1="83" y2="71" fill="none" stroke="#000" stroke-opacity=".502" stroke-width="1"/><line id="150" x1="180" x2="117" y1="120" y2="131" fill="none" stroke="#FFF" stroke-opacity=".502" stroke-width="1"/><line id="151" x1="180" x2="120" y1="135" y2="143" fill="none" stroke="#FFF" stroke-opacity=".502" stroke-width="1"/><line id="152" x1="120" x2="176" y1="130" y2="119" fill="none" stroke="#FFF" stroke-opacity=".502" stroke-width="1"/><line id="153" x1="0" x2="71" y1="125" y2="143" fill="none" stroke="#FFF" stroke-opacity=".502" stroke-width="1"/><line id="154" x1="100" x2="98" y1="47" y2="78" fill="none" stroke="red" stroke-opacity=".502" stroke-width="1"/><line id="155" x1="28" x2="19" y1="134" y2="0" fill="none" stroke="#E7F5F5" stroke-opacity=".502" stroke-width="1"/><line id="156" x1="96" x2="52" y1="112" y2="31" fill="none" stroke="#003752" stroke-opacity=".502" stroke-width="1"/><line id="157" x1="211" x2="255" y1="67" y2="81" fill="none" stroke="#000" stroke-opacity=".502" stroke-width="1"/><line id="158" x1="138" x2="171" y1="57" y2="103" fill="none" stroke="#000A22" stroke-opacity=".502" stroke-width="1"/><line id="159" x1="215" x2="126" y1="98" y2="120" fill="none" stroke="#FFF" stroke-opacity=".502" stroke-width="1"/><line id="160" x1="116" x2="60" y1="110" y2="110" fill="none" stroke="#002F75" stroke-opacity=".502" stroke-width="1"/><line id="161" x1="169" x2="163" y1="108" y2="86" fill="none" stroke="#000" stroke-opacity=".502" stroke-width="1"/><line id="162" x1="35" x2="27" y1="143" y2="0" fill="none" stroke="#ECF9F9" stroke-opacity=".502" stroke-width="1"/><line id="163" x1="59" x2="0" y1="143" y2="135" fill="none" stroke="#FFF" stroke-opacity=".502" stroke-width="1"/><line id="164" x1="125" x2="212" y1="135" y2="96" fill="none" stroke="#FFF" stroke-opacity=".502" stroke-width="1"/><line id="165" x1="169" x2="120" y1="86" y2="82" fill="none" stroke="#002" stroke-opacity=".502" stroke-width="1"/><line id="166" x1="13" x2="29" y1="141" y2="143" fill="none" stroke="#000" stroke-opacity=".502" stroke-width="1"/><line id="167" x1="44" x2="115" y1="125" y2="115" fill="none" stroke="#003984" stroke-opacity=".502" stroke-width="1"/><line id="168" x1="60" x2="148" y1="112" y2="98" fill="none" stroke="#002752" stroke-opacity=".502" stroke-width="1"/><line id="169" x1="173" x2="173" y1="31" y2="109" fill="none" stroke="#190E0E" stroke-opacity=".502" stroke-width="1"/><line id="170" x1="0" x2="66" y1="133" y2="143" fill="none" stroke="#FFF" stroke-opacity=".502" stroke-width="1"/><line id="171" x1="120" x2="125" y1="80" y2="42" fill="none" stroke="red" stroke-opacity=".502" stroke-width="1"/><line id="172" x1="171" x2="120" y1="124" y2="133" fill="none" stroke="#FFF" stroke-opacity=".502" stroke-width="1"/><line id="173" x1="192" x2="186" y1="143" y2="102" fill="none" stroke="#001F27" stroke-opacity=".502" stroke-width="1"/><line id="174" x1="118" x2="180" y1="132" y2="122" fill="none" stroke="#FFF" stroke-opacity=".502" stroke-width="1"/><line id="175" x1="123" x2="38" y1="103" y2="118" fill="none" stroke="#004070" stroke-opacity=".502" stroke-width="1"/><line id="176" x1="225" x2="128" y1="97" y2="124" fill="none" stroke="#FAFEFE" stroke-opacity=".502" stroke-width="1"/><line id="177" x1="124" x2="173" y1="78" y2="90" fill="none" stroke="#00174B" stroke-opacity=".502" stroke-width="1"/><line id="178" x1="53" x2="74" y1="95" y2="110" fill="none" stroke="#000" stroke-opacity=".502" stroke-width="1"/><line id="179" x1="113" x2="105" y1="89" y2="44" fill="none" stroke="#FF0007" stroke-opacity=".502" stroke-width="1"/><line id="180" x1="21" x2="34" y1="0" y2="139" fill="none" stroke="#E9F6F6" stroke-opacity=".502" stroke-width="1"/><line id="181" x1="74" x2="211" y1="140" y2="106" fill="none" stroke="#F3F7F7" stroke-opacity=".502" stroke-width="1"/><line id="182" x1="126" x2="36" y1="20" y2="0" fill="none" stroke="#FFFCEF" stroke-opacity=".502" stroke-width="1"/><line id="183" x1="178" x2="119" y1="143" y2="143" fill="none" stroke="#FFF" stroke-opacity=".502" stroke-width="1"/><line id="184" x1="149" x2="87" y1="29" y2="22" fill="none" stroke="#00295A" stroke-opacity=".502" stroke-width="1"/><line id="185" x1="255" x2="248" y1="84" y2="143" fill="none" stroke="#000" stroke-opacity=".502" stroke-width="1"/><line id="186" x1="197" x2="52" y1="32" y2="0" fill="none" stroke="#EEEADC" stroke-opacity=".502" stroke-width="1"/><line id="187" x1="48" x2="90" y1="19" y2="109" fill="none" stroke="#0C3A48" stroke-opacity=".502" stroke-width="1"/><line id="188" x1="108" x2="96" y1="87" y2="24" fill="none" stroke="#E70812" stroke-opacity=".502" stroke-width="1"/><line id="189" x1="0" x2="65" y1="123" y2="139" fill="none" stroke="#FFF" stroke-opacity=".502" stroke-width="1"/><line id="190" x1="103" x2="75" y1="117" y2="55" fill="none" stroke="#002359" stroke-opacity=".502" stroke-width="1"/><line id="191" x1="117" x2="232" y1="125" y2="97" fill="none" stroke="#F4FAFC" stroke-opacity=".502" stroke-width="1"/><line id="192" x1="64" x2="169" y1="116" y2="108" fill="none" stroke="#00497D" stroke-opacity=".502" stroke-width="1"/><line id="193" x1="158" x2="147" y1="104" y2="59" fill="none" stroke="#003E8A" stroke-opacity=".502" stroke-width="1"/><line id="194" x1="247" x2="187" y1="96" y2="96" fill="none" stroke="#FFF" stroke-opacity=".502" stroke-width="1"/><line id="195" x1="120" x2="115" y1="46" y2="92" fill="none" stroke="red" stroke-opacity=".502" stroke-width="1"/><line id="196" x1="60" x2="91" y1="29" y2="101" fill="none" stroke="#0D2E47" stroke-opacity=".502" stroke-width="1"/><line id="197" x1="169" x2="117" y1="87" y2="75" fill="none" stroke="#00002B" stroke-opacity=".502" stroke-width="1"/><line id="198" x1="42" x2="42" y1="126" y2="63" fill="none" stroke="#0E1300" stroke-opacity=".502" stroke-width="1"/><line id="199" x1="169" x2="134" y1="108" y2="54" fill="none" stroke="#001A40" stroke-opacity=".502" stroke-width="1"/><line id="200" x1="123" x2="125" y1="66" y2="93" fill="none" stroke="#190000" stroke-opacity=".502" stroke-width="1"/><line id="201" x1="118" x2="177" y1="119" y2="107" fill="none" stroke="#FFF" stroke-opacity=".502" stroke-width="1"/><line id="202" x1="255" x2="250" y1="143" y2="101" fill="none" stroke="#000" stroke-opacity=".502" stroke-width="1"/><line id="203" x1="236" x2="177" y1="116" y2="108" fill="none" stroke="#F0F4F4" stroke-opacity=".502" stroke-width="1"/><line id="204" x1="114" x2="113" y1="53" y2="94" fill="none" stroke="red" stroke-opacity=".502" stroke-width="1"/><line id="205" x1="38" x2="37" y1="128" y2="100" fill="none" stroke="#181300" stroke-opacity=".502" stroke-width="1"/><line id="206" x1="42" x2="106" y1="96" y2="101" fill="none" stroke="#003A85" stroke-opacity=".502" stroke-width="1"/><line id="207" x1="51" x2="139" y1="8" y2="0" fill="none" stroke="#FEF4E4" stroke-opacity=".502" stroke-width="1"/><line id="208" x1="110" x2="108" y1="38" y2="89" fill="none" stroke="#FF5674" stroke-opacity=".502" stroke-width="1"/><line id="209" x1="82" x2="77" y1="44" y2="121" fill="none" stroke="#004C7C" stroke-opacity=".502" stroke-width="1"/><line id="210" x1="26" x2="102" y1="0" y2="0" fill="none" stroke="#FFF8E7" stroke-opacity=".502" stroke-width="1"/><line id="211" x1="179" x2="91" y1="33" y2="19" fill="none" stroke="#004064" stroke-opacity=".502" stroke-width="1"/><line id="212" x1="82" x2="141" y1="102" y2="90" fill="none" stroke="#001734" stroke-opacity=".502" stroke-width="1"/><line id="213" x1="106" x2="101" y1="41" y2="85" fill="none" stroke="#FF1F2D" stroke-opacity=".502" stroke-width="1"/><line id="214" x1="134" x2="125" y1="99" y2="75" fill="none" stroke="#000" stroke-opacity=".502" stroke-width="1"/><line id="215" x1="195" x2="195" y1="143" y2="122" fill="none" stroke="#000" stroke-opacity=".502" stroke-width="1"/><line id="216" x1="32" x2="30" y1="0" y2="137" fill="none" stroke="#E1EEEE" stroke-opacity=".502" stroke-width="1"/><line id="217" x1="114" x2="169" y1="27" y2="37" fill="none" stroke="azure" stroke-opacity=".502" stroke-width="1"/><line id="218" x1="33" x2="35" y1="17" y2="62" fill="none" stroke="#000" stroke-opacity=".502" stroke-width="1"/><line id="219" x1="18" x2="26" y1="16" y2="139" fill="none" stroke="#E4F4F6" stroke-opacity=".502" stroke-width="1"/><line id="220" x1="255" x2="255" y1="94" y2="143" fill="none" stroke="#000" stroke-opacity=".502" stroke-width="1"/><line id="221" x1="117" x2="180" y1="143" y2="132" fill="none" stroke="#FDFFFF" stroke-opacity=".502" stroke-width="1"/><line id="222" x1="180" x2="180" y1="61" y2="143" fill="none" stroke="#FFF" stroke-opacity=".502" stroke-width="1"/><line id="223" x1="244" x2="250" y1="128" y2="93" fill="none" stroke="#000823" stroke-opacity=".502" stroke-width="1"/><line id="224" x1="124" x2="51" y1="0" y2="5" fill="none" stroke="#FFF7E7" stroke-opacity=".502" stroke-width="1"/><line id="225" x1="76" x2="88" y1="51" y2="117" fill="none" stroke="#003155" stroke-opacity=".502" stroke-width="1"/><line id="226" x1="124" x2="113" y1="46" y2="89" fill="none" stroke="red" stroke-opacity=".502" stroke-width="1"/><line id="227" x1="12" x2="28" y1="143" y2="143" fill="none" stroke="#000" stroke-opacity=".502" stroke-width="1"/><line id="228" x1="63" x2="63" y1="57" y2="23" fill="none" stroke="#DEFFFF" stroke-opacity=".502" stroke-width="1"/><line id="229" x1="45" x2="146" y1="123" y2="102" fill="none" stroke="#004C7D" stroke-opacity=".502" stroke-width="1"/><line id="230" x1="120" x2="148" y1="77" y2="71" fill="none" stroke="#000008" stroke-opacity=".502" stroke-width="1"/><line id="231" x1="172" x2="118" y1="125" y2="134" fill="none" stroke="#FFF" stroke-opacity=".502" stroke-width="1"/><rect id="232" width="32" height="141" x="0" y="0" fill="#DBE8E9" fill-opacity=".502"/><rect id="233" width="40" height="48" x="202" y="95" fill="#E1EBED" fill-opacity=".502"/><rect id="234" width="63" height="26" x="117" y="117" fill="#EBF8FA" fill-opacity=".502"/><rect id="235" width="168" height="16" x="57" y="0" fill="#DFDACB" fill-opacity=".502"/><rect id="236" width="66" height="29" x="126" y="30" fill="#C8DDE6" fill-opacity=".502"/><rect id="237" width="52" height="40" x="39" y="82" fill="#0B639C" fill-opacity=".502"/><rect id="238" width="24" height="30" x="99" y="52" fill="red" fill-opacity=".502"/><rect id="239" width="16" height="30" x="121" y="75" fill="#000005" fill-opacity=".502"/><rect id="240" width="15" height="17" x="85" y="35" fill="#132338" fill-opacity=".502"/></svg>