<svg xmlns="http://www.w3.org/2000/svg" width="256" height="144" baseProfile="tiny" version="1.2" viewBox="0 0 256 144"><rect id="0" width="256" height="144" x="0" y="0" fill="#F2D70F" fill-opacity="1"/><path id="1" fill="none" stroke="#8E0084" stroke-opacity=".502" stroke-width="1" d="M166 15 Q 83 83 154 53"/><path id="2" fill="none" stroke="#4C0765" stroke-opacity=".502" stroke-width="1" d="M113 115 Q 99 133 147 25"/><path id="3" fill="none" stroke="#9A0082" stroke-opacity=".502" stroke-width="1" d="M142 35 Q 121 111 150 20"/><path id="4" fill="none" stroke="#000054" stroke-opacity=".502" stroke-width="1" d="M106 121 Q 85 139 65 132"/><path id="5" fill="none" stroke="#000575" stroke-opacity=".502" stroke-width="1" d="M93 134 Q 142 79 104 113"/><path id="6" fill="none" stroke="#1D1348" stroke-opacity=".502" stroke-width="1" d="M50 132 Q 141 143 127 35"/><path id="7" fill="none" stroke="#6C006C" stroke-opacity=".502" stroke-width="1" d="M177 13 Q 94 50 141 70"/><path id="8" fill="none" stroke="#003974" stroke-opacity=".502" stroke-width="1" d="M93 130 Q 148 92 104 99"/><path id="9" fill="none" stroke="#000028" stroke-opacity=".502" stroke-width="1" d="M56 133 Q 93 130 129 136"/><path id="10" fill="none" stroke="#422043" stroke-opacity=".502" stroke-width="1" d="M1 133 Q 152 143 146 16"/><path id="11" fill="none" stroke="#B0006C" stroke-opacity=".502" stroke-width="1" d="M148 69 Q 71 55 169 50"/><path id="12" fill="none" stroke="#AD006B" stroke-opacity=".502" stroke-width="1" d="M149 10 Q 147 136 139 21"/><path id="13" fill="none" stroke="#001071" stroke-opacity=".502" stroke-width="1" d="M109 89 Q 100 133 109 111"/><path id="14" fill="none" stroke="#73006F" stroke-opacity=".502" stroke-width="1" d="M117 68 Q 116 42 153 67"/><path id="15" fill="none" stroke="#004E52" stroke-opacity=".502" stroke-width="1" d="M81 139 Q 137 106 102 98"/><path id="16" fill="none" stroke="#67006C" stroke-opacity=".502" stroke-width="1" d="M143 53 Q 93 35 154 57"/><path id="17" fill="none" stroke="#970072" stroke-opacity=".502" stroke-width="1" d="M166 13 Q 78 75 152 34"/><path id="18" fill="none" stroke="#653649" stroke-opacity=".502" stroke-width="1" d="M96 136 Q 130 56 156 34"/><path id="19" fill="none" stroke="#C40072" stroke-opacity=".502" stroke-width="1" d="M163 9 Q 90 103 157 58"/><path id="20" fill="none" stroke="#00163A" stroke-opacity=".502" stroke-width="1" d="M14 132 Q 152 143 106 89"/><path id="21" fill="none" stroke="#CF454A" stroke-opacity=".502" stroke-width="1" d="M247 1 Q 62 113 147 40"/><path id="22" fill="none" stroke="#08003B" stroke-opacity=".502" stroke-width="1" d="M119 54 Q 109 52 146 67"/><path id="23" fill="none" stroke="#7E0062" stroke-opacity=".502" stroke-width="1" d="M151 22 Q 152 81 122 39"/><path id="24" fill="none" stroke="#A80070" stroke-opacity=".502" stroke-width="1" d="M154 35 Q 72 76 154 51"/><path id="25" fill="none" stroke="#D4364E" stroke-opacity=".502" stroke-width="1" d="M117 101 Q 138 0 124 64"/><path id="26" fill="none" stroke="#8F0054" stroke-opacity=".502" stroke-width="1" d="M222 26 Q 100 0 153 68"/><path id="27" fill="none" stroke="#BE2E62" stroke-opacity=".502" stroke-width="1" d="M109 63 Q 188 91 84 51"/><path id="28" fill="none" stroke="#BE0070" stroke-opacity=".502" stroke-width="1" d="M137 71 Q 143 5 129 62"/><path id="29" fill="none" stroke="#9E006E" stroke-opacity=".502" stroke-width="1" d="M144 70 Q 78 77 159 19"/><path id="30" fill="none" stroke="#000F65" stroke-opacity=".502" stroke-width="1" d="M68 115 Q 14 142 41 128"/><path id="31" fill="none" stroke="#951F67" stroke-opacity=".502" stroke-width="1" d="M153 10 Q 93 128 129 37"/><path id="32" fill="none" stroke="#7F0054" stroke-opacity=".502" stroke-width="1" d="M149 68 Q 84 47 148 70"/><path id="33" fill="none" stroke="#BF2D4B" stroke-opacity=".502" stroke-width="1" d="M245 31 Q 104 9 218 21"/><path id="34" fill="none" stroke="#004A78" stroke-opacity=".502" stroke-width="1" d="M110 93 Q 102 131 122 96"/><path id="35" fill="none" stroke="#B21058" stroke-opacity=".502" stroke-width="1" d="M112 43 Q 166 119 126 26"/><path id="36" fill="none" stroke="#003B65" stroke-opacity=".502" stroke-width="1" d="M109 121 Q 94 83 126 100"/><path id="37" fill="none" stroke="#E0295A" stroke-opacity=".502" stroke-width="1" d="M120 5 Q 251 34 199 25"/><path id="38" fill="none" stroke="#941885" stroke-opacity=".502" stroke-width="1" d="M140 39 Q 86 105 144 50"/><path id="39" fill="none" stroke="#910078" stroke-opacity=".502" stroke-width="1" d="M151 38 Q 115 104 152 64"/><path id="40" fill="none" stroke="#DF006B" stroke-opacity=".502" stroke-width="1" d="M152 31 Q 95 76 150 26"/><path id="41" fill="none" stroke="#B6006B" stroke-opacity=".502" stroke-width="1" d="M138 36 Q 177 73 116 56"/><path id="42" fill="none" stroke="#A2214C" stroke-opacity=".502" stroke-width="1" d="M182 15 Q 90 37 146 89"/><path id="43" fill="none" stroke="#FF0" stroke-opacity=".502" stroke-width="1" d="M79 1 Q 202 12 119 30"/><path id="44" fill="none" stroke="#000027" stroke-opacity=".502" stroke-width="1" d="M119 133 Q 68 134 26 131"/><path id="45" fill="none" stroke="#2F8042" stroke-opacity=".502" stroke-width="1" d="M92 122 Q 15 120 85 119"/><path id="46" fill="none" stroke="#7A006C" stroke-opacity=".502" stroke-width="1" d="M182 14 Q 163 14 215 26"/><path id="47" fill="none" stroke="#754830" stroke-opacity=".502" stroke-width="1" d="M101 123 Q 137 111 161 5"/><path id="48" fill="none" stroke="#922479" stroke-opacity=".502" stroke-width="1" d="M133 37 Q 111 102 122 40"/><path id="49" fill="none" stroke="#00005B" stroke-opacity=".502" stroke-width="1" d="M83 130 Q 31 104 82 130"/><path id="50" fill="none" stroke="#FF0" stroke-opacity=".502" stroke-width="1" d="M130 143 Q 120 33 127 101"/><path id="51" fill="none" stroke="#814969" stroke-opacity=".502" stroke-width="1" d="M116 108 Q 162 52 131 53"/><path id="52" fill="none" stroke="#2C8942" stroke-opacity=".502" stroke-width="1" d="M118 125 Q 92 52 120 127"/><path id="53" fill="none" stroke="#EBAE1D" stroke-opacity=".502" stroke-width="1" d="M117 3 Q 172 19 239 22"/><path id="54" fill="none" stroke="#9A005E" stroke-opacity=".502" stroke-width="1" d="M132 55 Q 152 11 164 16"/><path id="55" fill="none" stroke="#000169" stroke-opacity=".502" stroke-width="1" d="M53 121 Q 39 140 10 121"/><path id="56" fill="none" stroke="#FF0" stroke-opacity=".502" stroke-width="1" d="M100 89 Q 215 105 20 77"/><path id="57" fill="none" stroke="#006D69" stroke-opacity=".502" stroke-width="1" d="M115 119 Q 120 77 108 113"/><path id="58" fill="none" stroke="#FFFA02" stroke-opacity=".502" stroke-width="1" d="M135 1 Q 58 126 222 117"/><path id="59" fill="none" stroke="#FFFC03" stroke-opacity=".502" stroke-width="1" d="M167 141 Q 189 31 110 124"/><path id="60" fill="none" stroke="#983668" stroke-opacity=".502" stroke-width="1" d="M123 51 Q 190 29 103 113"/><path id="61" fill="none" stroke="#C7005C" stroke-opacity=".502" stroke-width="1" d="M124 38 Q 159 115 143 28"/><path id="62" fill="none" stroke="#720070" stroke-opacity=".502" stroke-width="1" d="M238 1 Q 213 33 199 27"/><path id="63" fill="none" stroke="#B3005A" stroke-opacity=".502" stroke-width="1" d="M150 42 Q 88 68 137 41"/><path id="64" fill="none" stroke="#FFFE03" stroke-opacity=".502" stroke-width="1" d="M229 71 Q 61 119 137 140"/><path id="65" fill="none" stroke="#4E003B" stroke-opacity=".502" stroke-width="1" d="M199 25 Q 168 1 160 25"/><path id="66" fill="none" stroke="#FFF903" stroke-opacity=".502" stroke-width="1" d="M211 78 Q 16 104 224 68"/><path id="67" fill="none" stroke="#AA3374" stroke-opacity=".502" stroke-width="1" d="M154 24 Q 73 128 155 22"/><path id="68" fill="none" stroke="#FA0074" stroke-opacity=".502" stroke-width="1" d="M121 44 Q 153 62 149 58"/><path id="69" fill="none" stroke="#FFF304" stroke-opacity=".502" stroke-width="1" d="M11 105 Q 174 143 198 138"/><path id="70" fill="none" stroke="#BB0058" stroke-opacity=".502" stroke-width="1" d="M150 60 Q 106 104 160 12"/><path id="71" fill="none" stroke="#FCF701" stroke-opacity=".502" stroke-width="1" d="M159 14 Q 49 86 105 109"/><path id="72" fill="none" stroke="#77AD34" stroke-opacity=".502" stroke-width="1" d="M73 128 Q 101 138 15 103"/><path id="73" fill="none" stroke="#C60A59" stroke-opacity=".502" stroke-width="1" d="M146 42 Q 113 118 157 19"/><path id="74" fill="none" stroke="#BE5537" stroke-opacity=".502" stroke-width="1" d="M226 5 Q 255 42 102 3"/><path id="75" fill="none" stroke="#B4134C" stroke-opacity=".502" stroke-width="1" d="M151 35 Q 102 72 154 17"/><path id="76" fill="none" stroke="#9D0066" stroke-opacity=".502" stroke-width="1" d="M168 8 Q 206 47 238 5"/><path id="77" fill="none" stroke="#47003E" stroke-opacity=".502" stroke-width="1" d="M235 11 Q 211 46 170 9"/><path id="78" fill="none" stroke="#FFFC02" stroke-opacity=".502" stroke-width="1" d="M252 55 Q 29 118 166 79"/><path id="79" fill="none" stroke="#00001B" stroke-opacity=".502" stroke-width="1" d="M120 132 Q 68 135 114 132"/><path id="80" fill="none" stroke="#00064E" stroke-opacity=".502" stroke-width="1" d="M75 125 Q 57 106 39 136"/><path id="81" fill="none" stroke="#00305F" stroke-opacity=".502" stroke-width="1" d="M54 134 Q 13 132 17 120"/><path id="82" fill="none" stroke="#EB1661" stroke-opacity=".502" stroke-width="1" d="M159 17 Q 85 98 138 34"/></svg>