<?xml version="1.0" standalone="no"?>
<svg xmlns="http://www.w3.org/2000/svg" version="1.2" baseProfile="tiny" width="256" height="144" viewBox="0 0 256 144">
<rect x="0" y="0" width="256" height="144" id="0" fill="rgb(73,73,65)" fill-opacity="1" />
<polygon points="45,33 256,0 0,0" id="1" fill="rgb(166,167,197)" fill-opacity="0.501961" />
<polygon points="256,77 256,144 0,142" id="2" fill="rgb(7,9,5)" fill-opacity="0.501961" />
<polygon points="121,4 256,14 232,39" id="3" fill="rgb(164,160,173)" fill-opacity="0.501961" />
<polygon points="0,144 89,144 53,59" id="4" fill="rgb(16,19,12)" fill-opacity="0.501961" />
<polygon points="65,0 82,25 99,0" id="5" fill="rgb(230,239,255)" fill-opacity="0.501961" />
<polygon points="123,22 98,-1 134,6" id="6" fill="rgb(0,0,0)" fill-opacity="0.501961" />
<polygon points="84,4 254,36 121,90" id="7" fill="rgb(107,99,77)" fill-opacity="0.501961" />
<polygon points="25,11 0,10 -17,-31" id="8" fill="rgb(229,223,229)" fill-opacity="0.501961" />
<polygon points="24,13 0,54 98,25" id="9" fill="rgb(108,96,74)" fill-opacity="0.501961" />
<polygon points="170,25 198,0 169,2" id="10" fill="rgb(207,208,221)" fill-opacity="0.501961" />
<polygon points="0,73 37,144 0,144" id="11" fill="rgb(17,18,15)" fill-opacity="0.501961" />
<polygon points="218,0 179,65 236,2" id="12" fill="rgb(73,52,57)" fill-opacity="0.501961" />
<polygon points="224,7 240,25 245,15" id="13" fill="rgb(244,228,252)" fill-opacity="0.501961" />
<polygon points="101,134 96,116 166,85" id="14" fill="rgb(104,109,89)" fill-opacity="0.501961" />
<polygon points="147,1 159,10 125,34" id="15" fill="rgb(215,199,194)" fill-opacity="0.501961" />
<polygon points="112,13 91,0 106,21" id="16" fill="rgb(222,226,251)" fill-opacity="0.501961" />
<polygon points="25,0 23,136 54,99" id="17" fill="rgb(82,88,63)" fill-opacity="0.501961" />
<polygon points="63,8 76,32 55,18" id="18" fill="rgb(11,17,20)" fill-opacity="0.501961" />
<polygon points="52,20 43,0 40,15" id="19" fill="rgb(215,234,255)" fill-opacity="0.501961" />
<polygon points="104,74 88,31 92,0" id="20" fill="rgb(44,44,40)" fill-opacity="0.501961" />
<polygon points="144,25 84,60 95,35" id="21" fill="rgb(147,117,102)" fill-opacity="0.501961" />
<polygon points="24,144 91,107 56,100" id="22" fill="rgb(12,12,8)" fill-opacity="0.501961" />
<polygon points="17,17 21,0 23,18" id="23" fill="rgb(255,255,255)" fill-opacity="0.501961" />
<polygon points="90,12 88,24 64,0" id="24" fill="rgb(243,247,255)" fill-opacity="0.501961" />
<polygon points="170,14 150,17 147,25" id="25" fill="rgb(0,0,0)" fill-opacity="0.501961" />
<polygon points="139,0 137,33 106,18" id="26" fill="rgb(60,60,58)" fill-opacity="0.501961" />
<polygon points="27,45 60,55 130,144" id="27" fill="rgb(32,38,43)" fill-opacity="0.501961" />
<polygon points="186,14 251,93 125,80" id="28" fill="rgb(83,86,63)" fill-opacity="0.501961" />
<polygon points="22,25 39,33 8,53" id="29" fill="rgb(154,141,126)" fill-opacity="0.501961" />
<polygon points="192,17 256,19 256,11" id="30" fill="rgb(181,171,191)" fill-opacity="0.501961" />
<polygon points="126,52 96,29 154,57" id="31" fill="rgb(28,31,12)" fill-opacity="0.501961" />
<polygon points="150,102 163,144 191,67" id="32" fill="rgb(22,24,17)" fill-opacity="0.501961" />
<polygon points="201,92 185,31 160,13" id="33" fill="rgb(133,123,103)" fill-opacity="0.501961" />
<polygon points="37,13 0,51 29,6" id="34" fill="rgb(31,37,44)" fill-opacity="0.501961" />
<polygon points="212,20 254,0 206,0" id="35" fill="rgb(79,55,75)" fill-opacity="0.501961" />
<polygon points="256,142 227,142 230,132" id="36" fill="rgb(117,117,110)" fill-opacity="0.501961" />
<polygon points="256,45 169,100 181,103" id="37" fill="rgb(100,105,85)" fill-opacity="0.501961" />
<polygon points="210,52 241,6 228,34" id="38" fill="rgb(34,28,25)" fill-opacity="0.501961" />
<polygon points="217,28 241,-6 224,31" id="39" fill="rgb(200,194,197)" fill-opacity="0.501961" />
<polygon points="155,98 150,33 166,88" id="40" fill="rgb(132,134,110)" fill-opacity="0.501961" />
<polygon points="210,17 198,-11 199,24" id="41" fill="rgb(164,181,238)" fill-opacity="0.501961" />
<polygon points="109,53 119,50 96,31" id="42" fill="rgb(151,173,153)" fill-opacity="0.501961" />
<polygon points="108,82 28,23 105,65" id="43" fill="rgb(53,48,23)" fill-opacity="0.501961" />
<polygon points="144,97 147,72 159,70" id="44" fill="rgb(0,8,0)" fill-opacity="0.501961" />
<polygon points="57,28 49,18 70,6" id="45" fill="rgb(16,34,84)" fill-opacity="0.501961" />
<polygon points="36,53 20,38 20,52" id="46" fill="rgb(19,0,0)" fill-opacity="0.501961" />
<polygon points="40,67 49,61 33,57" id="47" fill="rgb(186,192,152)" fill-opacity="0.501961" />
<polygon points="163,54 200,34 147,43" id="48" fill="rgb(61,36,32)" fill-opacity="0.501961" />
<polygon points="200,29 218,81 210,81" id="49" fill="rgb(139,136,118)" fill-opacity="0.501961" />
<polygon points="44,0 50,0 60,26" id="50" fill="rgb(7,41,137)" fill-opacity="0.501961" />
<polygon points="9,6 17,0 11,0" id="51" fill="rgb(11,2,0)" fill-opacity="0.501961" />
<polygon points="178,30 182,13 189,13" id="52" fill="rgb(0,0,16)" fill-opacity="0.501961" />
<polygon points="140,118 157,144 154,108" id="53" fill="rgb(84,88,78)" fill-opacity="0.501961" />
<polygon points="245,33 248,0 256,0" id="54" fill="rgb(29,25,40)" fill-opacity="0.501961" />
<polygon points="29,6 51,9 58,16" id="55" fill="rgb(181,211,255)" fill-opacity="0.501961" />
<polygon points="71,12 35,64 79,18" id="56" fill="rgb(141,123,104)" fill-opacity="0.501961" />
<polygon points="4,61 0,130 47,144" id="57" fill="rgb(41,44,45)" fill-opacity="0.501961" />
<polygon points="194,94 206,53 206,79" id="58" fill="rgb(16,20,19)" fill-opacity="0.501961" />
<polygon points="228,24 199,8 244,26" id="59" fill="rgb(64,68,82)" fill-opacity="0.501961" />
<polygon points="133,98 140,144 114,144" id="60" fill="rgb(15,16,9)" fill-opacity="0.501961" />
<polygon points="113,107 133,98 166,94" id="61" fill="rgb(139,141,119)" fill-opacity="0.501961" />
<polygon points="155,0 169,7 147,3" id="62" fill="rgb(49,35,50)" fill-opacity="0.501961" />
<polygon points="101,12 96,62 93,0" id="63" fill="rgb(63,73,71)" fill-opacity="0.501961" />
<polygon points="165,40 164,34 102,35" id="64" fill="rgb(177,111,109)" fill-opacity="0.501961" />
<polygon points="140,43 111,59 142,53" id="65" fill="rgb(20,26,14)" fill-opacity="0.501961" />
<polygon points="110,41 159,30 114,44" id="66" fill="rgb(43,30,27)" fill-opacity="0.501961" />
<polygon points="145,28 140,30 146,0" id="67" fill="rgb(196,193,186)" fill-opacity="0.501961" />
<polygon points="143,13 111,-4 130,0" id="68" fill="rgb(176,175,187)" fill-opacity="0.501961" />
<polygon points="82,81 160,57 148,48" id="69" fill="rgb(104,122,86)" fill-opacity="0.501961" />
<polygon points="74,46 5,69 72,41" id="70" fill="rgb(27,31,17)" fill-opacity="0.501961" />
<polygon points="229,81 208,98 228,54" id="71" fill="rgb(33,38,30)" fill-opacity="0.501961" />
<polygon points="55,65 76,70 86,36" id="72" fill="rgb(98,113,76)" fill-opacity="0.501961" />
<polygon points="0,23 2,0 9,34" id="73" fill="rgb(144,140,125)" fill-opacity="0.501961" />
<polygon points="98,0 133,10 108,10" id="74" fill="rgb(1,9,29)" fill-opacity="0.501961" />
<polygon points="137,13 144,0 141,0" id="75" fill="rgb(0,9,42)" fill-opacity="0.501961" />
<polygon points="115,72 109,116 120,99" id="76" fill="rgb(29,39,17)" fill-opacity="0.501961" />
<polygon points="134,65 105,62 78,36" id="77" fill="rgb(49,47,46)" fill-opacity="0.501961" />
<polygon points="46,108 33,119 50,90" id="78" fill="rgb(126,135,107)" fill-opacity="0.501961" />
<polygon points="118,30 110,30 117,2" id="79" fill="rgb(25,28,38)" fill-opacity="0.501961" />
<polygon points="78,137 70,109 120,144" id="80" fill="rgb(62,66,55)" fill-opacity="0.501961" />
<polygon points="187,118 191,144 183,144" id="81" fill="rgb(98,101,93)" fill-opacity="0.501961" />
<polygon points="245,17 256,21 256,4" id="82" fill="rgb(185,144,149)" fill-opacity="0.501961" />
<polygon points="87,4 71,0 60,5" id="83" fill="rgb(222,224,249)" fill-opacity="0.501961" />
<polygon points="158,32 145,28 174,0" id="84" fill="rgb(43,47,59)" fill-opacity="0.501961" />
<polygon points="69,25 67,35 61,31" id="85" fill="rgb(252,179,176)" fill-opacity="0.501961" />
<polygon points="89,9 86,0 84,0" id="86" fill="rgb(14,23,62)" fill-opacity="0.501961" />
<polygon points="140,13 124,23 142,27" id="87" fill="rgb(156,155,116)" fill-opacity="0.501961" />
<polygon points="191,76 175,100 185,55" id="88" fill="rgb(28,35,23)" fill-opacity="0.501961" />
<polygon points="168,51 175,57 156,55" id="89" fill="rgb(0,9,2)" fill-opacity="0.501961" />
<polygon points="193,48 213,17 207,19" id="90" fill="rgb(15,24,23)" fill-opacity="0.501961" />
<polygon points="185,88 204,89 196,76" id="91" fill="rgb(133,139,128)" fill-opacity="0.501961" />
<polygon points="199,37 192,24 246,63" id="92" fill="rgb(137,116,96)" fill-opacity="0.501961" />
<polygon points="189,24 199,26 163,48" id="93" fill="rgb(171,125,110)" fill-opacity="0.501961" />
<polygon points="225,38 256,102 247,58" id="94" fill="rgb(48,55,32)" fill-opacity="0.501961" />
<polygon points="215,56 182,16 184,26" id="95" fill="rgb(55,49,35)" fill-opacity="0.501961" />
<polygon points="79,31 33,20 69,25" id="96" fill="rgb(55,38,28)" fill-opacity="0.501961" />
<polygon points="17,24 11,13 9,35" id="97" fill="rgb(7,8,23)" fill-opacity="0.501961" />
<polygon points="180,144 159,144 155,110" id="98" fill="rgb(4,3,0)" fill-opacity="0.501961" />
<polygon points="51,5 67,0 22,0" id="99" fill="rgb(74,63,94)" fill-opacity="0.501961" />
<polygon points="239,0 238,8 226,0" id="100" fill="rgb(162,168,184)" fill-opacity="0.501961" />
<polygon points="61,115 87,144 51,144" id="101" fill="rgb(6,4,6)" fill-opacity="0.501961" />
<polygon points="190,131 170,90 174,66" id="102" fill="rgb(81,86,78)" fill-opacity="0.501961" />
<polygon points="201,138 215,155 202,125" id="103" fill="rgb(98,102,103)" fill-opacity="0.501961" />
<polygon points="181,0 206,6 203,-7" id="104" fill="rgb(145,180,255)" fill-opacity="0.501961" />
<polygon points="130,38 129,22 115,36" id="105" fill="rgb(193,129,123)" fill-opacity="0.501961" />
<polygon points="10,49 17,45 18,51" id="106" fill="rgb(255,165,171)" fill-opacity="0.501961" />
<polygon points="20,0 18,19 18,0" id="107" fill="rgb(255,255,255)" fill-opacity="0.501961" />
<polygon points="31,113 41,103 36,67" id="108" fill="rgb(26,29,14)" fill-opacity="0.501961" />
<polygon points="229,87 244,68 240,37" id="109" fill="rgb(107,116,85)" fill-opacity="0.501961" />
<polygon points="139,113 256,119 242,91" id="110" fill="rgb(25,26,22)" fill-opacity="0.501961" />
<polygon points="25,68 11,65 -1,39" id="111" fill="rgb(33,35,10)" fill-opacity="0.501961" />
<polygon points="126,24 148,35 117,26" id="112" fill="rgb(43,19,13)" fill-opacity="0.501961" />
<polygon points="71,88 64,100 84,101" id="113" fill="rgb(118,126,100)" fill-opacity="0.501961" />
<polygon points="109,141 114,144 76,73" id="114" fill="rgb(90,95,109)" fill-opacity="0.501961" />
<polygon points="221,57 213,32 207,47" id="115" fill="rgb(54,39,21)" fill-opacity="0.501961" />
<polygon points="91,68 157,34 110,50" id="116" fill="rgb(132,109,97)" fill-opacity="0.501961" />
<polygon points="141,15 187,5 168,11" id="117" fill="rgb(210,210,228)" fill-opacity="0.501961" />
<polygon points="214,0 223,44 207,0" id="118" fill="rgb(42,51,60)" fill-opacity="0.501961" />
<polygon points="31,52 0,71 0,61" id="119" fill="rgb(125,113,89)" fill-opacity="0.501961" />
<polygon points="184,52 230,38 191,60" id="120" fill="rgb(137,134,102)" fill-opacity="0.501961" />
<polygon points="0,44 7,39 22,39" id="121" fill="rgb(13,7,0)" fill-opacity="0.501961" />
<polygon points="256,84 236,89 249,91" id="122" fill="rgb(125,129,101)" fill-opacity="0.501961" />
<polygon points="105,19 110,32 96,26" id="123" fill="rgb(171,173,138)" fill-opacity="0.501961" />
<polygon points="83,71 103,144 88,128" id="124" fill="rgb(30,33,36)" fill-opacity="0.501961" />
<polygon points="121,43 151,29 127,43" id="125" fill="rgb(7,9,7)" fill-opacity="0.501961" />
<polygon points="249,51 244,52 219,28" id="126" fill="rgb(157,137,114)" fill-opacity="0.501961" />
<polygon points="199,10 198,19 187,5" id="127" fill="rgb(41,75,151)" fill-opacity="0.501961" />
<polygon points="81,38 65,40 65,43" id="128" fill="rgb(187,136,101)" fill-opacity="0.501961" />
<polygon points="71,8 51,9 66,12" id="129" fill="rgb(8,10,10)" fill-opacity="0.501961" />
<polygon points="256,52 225,33 257,44" id="130" fill="rgb(49,33,20)" fill-opacity="0.501961" />
<polygon points="26,41 35,30 19,26" id="131" fill="rgb(155,172,144)" fill-opacity="0.501961" />
<polygon points="129,104 124,79 114,117" id="132" fill="rgb(108,121,99)" fill-opacity="0.501961" />
<polygon points="229,13 217,7 220,0" id="133" fill="rgb(204,96,102)" fill-opacity="0.501961" />
<polygon points="241,124 249,142 247,111" id="134" fill="rgb(91,92,90)" fill-opacity="0.501961" />
<polygon points="53,15 38,24 61,4" id="135" fill="rgb(134,159,229)" fill-opacity="0.501961" />
<polygon points="138,96 126,81 121,52" id="136" fill="rgb(27,36,47)" fill-opacity="0.501961" />
<polygon points="181,58 164,0 172,1" id="137" fill="rgb(141,135,120)" fill-opacity="0.501961" />
<polygon points="232,144 224,85 236,144" id="138" fill="rgb(92,94,86)" fill-opacity="0.501961" />
<polygon points="70,89 66,105 110,39" id="139" fill="rgb(39,38,29)" fill-opacity="0.501961" />
<polygon points="154,94 147,63 153,60" id="140" fill="rgb(32,32,24)" fill-opacity="0.501961" />
<polygon points="92,0 91,0 95,42" id="141" fill="rgb(14,24,36)" fill-opacity="0.501961" />
<polygon points="226,122 243,83 175,132" id="142" fill="rgb(29,28,23)" fill-opacity="0.501961" />
<polygon points="55,26 57,3 58,17" id="143" fill="rgb(132,161,241)" fill-opacity="0.501961" />
<polygon points="133,103 99,125 106,126" id="144" fill="rgb(115,123,94)" fill-opacity="0.501961" />
<polygon points="60,53 44,50 46,37" id="145" fill="rgb(117,127,111)" fill-opacity="0.501961" />
<polygon points="74,21 91,4 88,18" id="146" fill="rgb(195,208,236)" fill-opacity="0.501961" />
<polygon points="205,84 224,77 225,36" id="147" fill="rgb(105,115,84)" fill-opacity="0.501961" />
<polygon points="144,0 147,17 149,-3" id="148" fill="rgb(181,159,163)" fill-opacity="0.501961" />
<polygon points="17,50 10,66 19,54" id="149" fill="rgb(7,0,0)" fill-opacity="0.501961" />
<polygon points="45,97 46,65 52,96" id="150" fill="rgb(97,101,86)" fill-opacity="0.501961" />
<polygon points="11,85 28,119 0,72" id="151" fill="rgb(87,93,111)" fill-opacity="0.501961" />
<polygon points="227,133 214,87 209,144" id="152" fill="rgb(22,22,16)" fill-opacity="0.501961" />
<polygon points="117,46 112,46 116,54" id="153" fill="rgb(203,215,184)" fill-opacity="0.501961" />
<polygon points="16,17 21,0 24,17" id="154" fill="rgb(207,221,249)" fill-opacity="0.501961" />
<polygon points="110,119 73,60 111,90" id="155" fill="rgb(84,95,67)" fill-opacity="0.501961" />
<polygon points="162,93 168,89 182,144" id="156" fill="rgb(15,14,9)" fill-opacity="0.501961" />
<polygon points="102,33 96,39 124,75" id="157" fill="rgb(108,123,114)" fill-opacity="0.501961" />
<polygon points="102,54 64,68 117,54" id="158" fill="rgb(34,29,33)" fill-opacity="0.501961" />
<polygon points="235,85 256,108 256,144" id="159" fill="rgb(16,16,15)" fill-opacity="0.501961" />
<polygon points="163,73 153,35 154,96" id="160" fill="rgb(116,118,96)" fill-opacity="0.501961" />
<polygon points="227,15 221,26 223,32" id="161" fill="rgb(243,246,249)" fill-opacity="0.501961" />
<polygon points="142,8 132,2 142,0" id="162" fill="rgb(20,27,51)" fill-opacity="0.501961" />
<polygon points="234,33 238,36 220,33" id="163" fill="rgb(17,4,0)" fill-opacity="0.501961" />
<polygon points="28,51 56,55 37,46" id="164" fill="rgb(10,12,21)" fill-opacity="0.501961" />
<polygon points="183,29 160,32 192,30" id="165" fill="rgb(40,30,15)" fill-opacity="0.501961" />
<polygon points="93,57 86,56 97,42" id="166" fill="rgb(192,121,104)" fill-opacity="0.501961" />
<polygon points="218,90 200,88 152,98" id="167" fill="rgb(46,44,34)" fill-opacity="0.501961" />
<polygon points="24,14 24,0 38,16" id="168" fill="rgb(51,41,52)" fill-opacity="0.501961" />
<polygon points="186,8 168,-24 191,-9" id="169" fill="rgb(230,243,255)" fill-opacity="0.501961" />
<polygon points="72,33 81,34 52,42" id="170" fill="rgb(33,13,10)" fill-opacity="0.501961" />
<polygon points="251,31 252,6 256,37" id="171" fill="rgb(133,116,106)" fill-opacity="0.501961" />
<polygon points="39,7 0,9 46,9" id="172" fill="rgb(204,210,234)" fill-opacity="0.501961" />
<polygon points="67,45 104,49 90,46" id="173" fill="rgb(8,4,0)" fill-opacity="0.501961" />
<polygon points="82,113 72,125 75,111" id="174" fill="rgb(105,103,78)" fill-opacity="0.501961" />
<polygon points="0,20 26,18 -7,18" id="175" fill="rgb(139,145,146)" fill-opacity="0.501961" />
<polygon points="181,5 176,0 189,-22" id="176" fill="rgb(78,62,69)" fill-opacity="0.501961" />
<polygon points="241,38 207,50 230,43" id="177" fill="rgb(14,14,9)" fill-opacity="0.501961" />
<polygon points="217,86 237,111 236,114" id="178" fill="rgb(73,78,92)" fill-opacity="0.501961" />
<polygon points="179,46 189,54 182,45" id="179" fill="rgb(190,210,184)" fill-opacity="0.501961" />
<polygon points="256,0 238,15 240,0" id="180" fill="rgb(44,33,42)" fill-opacity="0.501961" />
<polygon points="157,28 154,37 150,46" id="181" fill="rgb(9,0,0)" fill-opacity="0.501961" />
<polygon points="36,31 37,39 72,95" id="182" fill="rgb(67,68,77)" fill-opacity="0.501961" />
<polygon points="231,121 241,113 238,141" id="183" fill="rgb(9,8,6)" fill-opacity="0.501961" />
<polygon points="156,68 164,70 176,93" id="184" fill="rgb(32,37,51)" fill-opacity="0.501961" />
<polygon points="218,25 225,33 205,31" id="185" fill="rgb(132,150,119)" fill-opacity="0.501961" />
<polygon points="247,15 225,18 243,20" id="186" fill="rgb(207,214,228)" fill-opacity="0.501961" />
<polygon points="41,108 40,113 25,119" id="187" fill="rgb(132,141,107)" fill-opacity="0.501961" />
<polygon points="86,14 69,14 82,0" id="188" fill="rgb(224,225,247)" fill-opacity="0.501961" />
<polygon points="85,28 91,20 90,47" id="189" fill="rgb(23,27,37)" fill-opacity="0.501961" />
<polygon points="149,132 153,127 151,106" id="190" fill="rgb(0,0,0)" fill-opacity="0.501961" />
<polygon points="143,20 137,15 161,8" id="191" fill="rgb(213,211,224)" fill-opacity="0.501961" />
<polygon points="247,39 237,35 236,21" id="192" fill="rgb(155,137,121)" fill-opacity="0.501961" />
<polygon points="36,102 32,58 15,76" id="193" fill="rgb(85,97,59)" fill-opacity="0.501961" />
<polygon points="194,119 202,144 191,144" id="194" fill="rgb(11,11,7)" fill-opacity="0.501961" />
<polygon points="0,51 6,44 -14,46" id="195" fill="rgb(0,0,0)" fill-opacity="0.501961" />
<polygon points="185,118 166,80 189,124" id="196" fill="rgb(118,125,143)" fill-opacity="0.501961" />
<polygon points="249,61 248,83 240,84" id="197" fill="rgb(15,17,16)" fill-opacity="0.501961" />
<polygon points="0,123 0,140 45,125" id="198" fill="rgb(29,27,15)" fill-opacity="0.501961" />
<polygon points="118,70 115,68 123,68" id="199" fill="rgb(229,225,204)" fill-opacity="0.501961" />
<polygon points="207,107 197,93 207,136" id="200" fill="rgb(66,69,70)" fill-opacity="0.501961" />
<polygon points="144,113 90,138 125,115" id="201" fill="rgb(60,63,47)" fill-opacity="0.501961" />
<polygon points="43,60 27,72 31,52" id="202" fill="rgb(93,110,67)" fill-opacity="0.501961" />
<polygon points="210,45 225,45 161,33" id="203" fill="rgb(71,40,34)" fill-opacity="0.501961" />
<polygon points="48,26 43,17 48,41" id="204" fill="rgb(50,44,25)" fill-opacity="0.501961" />
<polygon points="203,30 212,31 137,63" id="205" fill="rgb(52,51,40)" fill-opacity="0.501961" />
<polygon points="219,51 235,22 234,35" id="206" fill="rgb(144,119,104)" fill-opacity="0.501961" />
<polygon points="184,25 201,28 199,33" id="207" fill="rgb(145,167,130)" fill-opacity="0.501961" />
<polygon points="34,16 61,30 53,37" id="208" fill="rgb(147,140,101)" fill-opacity="0.501961" />
<polygon points="103,15 94,0 111,17" id="209" fill="rgb(236,232,241)" fill-opacity="0.501961" />
<polygon points="32,119 33,144 43,144" id="210" fill="rgb(57,59,70)" fill-opacity="0.501961" />
<polygon points="0,96 13,102 -10,107" id="211" fill="rgb(5,6,0)" fill-opacity="0.501961" />
<polygon points="149,39 140,29 163,40" id="212" fill="rgb(180,131,116)" fill-opacity="0.501961" />
<polygon points="119,60 137,29 125,48" id="213" fill="rgb(15,20,10)" fill-opacity="0.501961" />
<polygon points="179,8 167,-15 162,-5" id="214" fill="rgb(161,190,255)" fill-opacity="0.501961" />
<polygon points="155,38 157,18 153,43" id="215" fill="rgb(21,21,25)" fill-opacity="0.501961" />
<polygon points="140,29 185,30 178,32" id="216" fill="rgb(119,114,86)" fill-opacity="0.501961" />
<polygon points="204,18 188,14 199,28" id="217" fill="rgb(186,190,196)" fill-opacity="0.501961" />
<polygon points="36,78 63,83 62,94" id="218" fill="rgb(22,20,27)" fill-opacity="0.501961" />
<polygon points="183,81 182,56 188,84" id="219" fill="rgb(6,7,2)" fill-opacity="0.501961" />
<polygon points="70,74 86,96 64,76" id="220" fill="rgb(9,11,20)" fill-opacity="0.501961" />
<polygon points="109,19 106,20 110,26" id="221" fill="rgb(0,6,24)" fill-opacity="0.501961" />
<polygon points="180,15 188,17 241,0" id="222" fill="rgb(61,63,81)" fill-opacity="0.501961" />
<polygon points="246,21 246,0 241,29" id="223" fill="rgb(159,164,182)" fill-opacity="0.501961" />
<polygon points="153,14 150,34 144,22" id="224" fill="rgb(37,41,45)" fill-opacity="0.501961" />
<polygon points="150,8 107,0 125,5" id="225" fill="rgb(120,116,126)" fill-opacity="0.501961" />
<polygon points="184,30 214,63 211,55" id="226" fill="rgb(146,138,119)" fill-opacity="0.501961" />
<polygon points="44,42 47,32 43,37" id="227" fill="rgb(218,157,144)" fill-opacity="0.501961" />
<polygon points="122,17 126,9 132,11" id="228" fill="rgb(0,0,2)" fill-opacity="0.501961" />
<polygon points="129,77 126,74 110,70" id="229" fill="rgb(9,13,19)" fill-opacity="0.501961" />
<polygon points="148,0 150,7 143,-2" id="230" fill="rgb(244,230,240)" fill-opacity="0.501961" />
<polygon points="18,0 0,13 0,14" id="231" fill="rgb(110,99,89)" fill-opacity="0.501961" />
<polygon points="224,8 212,12 229,15" id="232" fill="rgb(90,13,20)" fill-opacity="0.501961" />
<polygon points="206,68 207,58 179,38" id="233" fill="rgb(55,64,37)" fill-opacity="0.501961" />
<polygon points="90,72 113,58 98,73" id="234" fill="rgb(14,16,11)" fill-opacity="0.501961" />
<polygon points="177,20 177,0 180,15" id="235" fill="rgb(222,226,238)" fill-opacity="0.501961" />
<polygon points="160,5 163,0 168,14" id="236" fill="rgb(47,44,66)" fill-opacity="0.501961" />
<polygon points="256,107 243,86 231,74" id="237" fill="rgb(99,104,109)" fill-opacity="0.501961" />
<polygon points="56,59 60,0 56,33" id="238" fill="rgb(59,58,53)" fill-opacity="0.501961" />
<polygon points="205,18 230,103 223,58" id="239" fill="rgb(64,70,50)" fill-opacity="0.501961" />
<polygon points="50,14 57,0 49,7" id="240" fill="rgb(44,37,53)" fill-opacity="0.501961" />
<polygon points="83,115 34,127 42,117" id="241" fill="rgb(10,11,9)" fill-opacity="0.501961" />
<polygon points="197,11 173,-10 179,-26" id="242" fill="rgb(159,133,143)" fill-opacity="0.501961" />
<polygon points="0,33 -18,26 6,29" id="243" fill="rgb(17,0,0)" fill-opacity="0.501961" />
<polygon points="74,20 53,24 96,25" id="244" fill="rgb(119,133,114)" fill-opacity="0.501961" />
<polygon points="52,36 52,38 30,25" id="245" fill="rgb(15,9,8)" fill-opacity="0.501961" />
<polygon points="191,51 198,78 201,48" id="246" fill="rgb(99,116,83)" fill-opacity="0.501961" />
<polygon points="116,31 120,31 129,16" id="247" fill="rgb(14,15,11)" fill-opacity="0.501961" />
<polygon points="17,27 48,43 0,36" id="248" fill="rgb(96,98,78)" fill-opacity="0.501961" />
<polygon points="146,130 161,144 143,116" id="249" fill="rgb(99,106,96)" fill-opacity="0.501961" />
<polygon points="239,24 233,20 256,39" id="250" fill="rgb(12,13,30)" fill-opacity="0.501961" />
<polygon points="122,19 123,0 121,7" id="251" fill="rgb(37,47,67)" fill-opacity="0.501961" />
<polygon points="231,72 221,97 229,65" id="252" fill="rgb(26,26,13)" fill-opacity="0.501961" />
<polygon points="30,76 22,70 0,67" id="253" fill="rgb(115,122,94)" fill-opacity="0.501961" />
<polygon points="149,125 123,147 124,125" id="254" fill="rgb(14,15,9)" fill-opacity="0.501961" />
<polygon points="73,45 80,43 121,46" id="255" fill="rgb(116,127,102)" fill-opacity="0.501961" />
<polygon points="199,26 202,27 195,19" id="256" fill="rgb(65,60,74)" fill-opacity="0.501961" />
<polygon points="0,27 0,1 8,15" id="257" fill="rgb(126,118,111)" fill-opacity="0.501961" />
<polygon points="120,62 105,86 98,72" id="258" fill="rgb(93,111,69)" fill-opacity="0.501961" />
<polygon points="188,30 185,37 188,35" id="259" fill="rgb(238,162,156)" fill-opacity="0.501961" />
<polygon points="35,9 33,0 43,0" id="260" fill="rgb(69,88,178)" fill-opacity="0.501961" />
</svg>