<?xml version="1.0" standalone="no"?>
<svg xmlns="http://www.w3.org/2000/svg" version="1.2" baseProfile="tiny" width="256" height="144" viewBox="0 0 256 144">
<rect x="0" y="0" width="256" height="144" id="0" fill="rgb(216,218,213)" fill-opacity="1" />
<rect x="58" y="27" width="179" height="37" id="1" fill="rgb(66,66,48)" fill-opacity="0.501961" />
<rect x="165" y="52" width="90" height="91" id="2" fill="rgb(255,255,255)" fill-opacity="0.501961" />
<rect x="16" y="64" width="32" height="15" id="3" fill="rgb(0,2,1)" fill-opacity="0.501961" />
<rect x="0" y="0" width="103" height="36" id="4" fill="rgb(255,255,255)" fill-opacity="0.501961" />
<rect x="94" y="57" width="40" height="20" id="5" fill="rgb(22,52,0)" fill-opacity="0.501961" />
<rect x="153" y="19" width="91" height="26" id="6" fill="rgb(104,101,48)" fill-opacity="0.501961" />
<rect x="0" y="80" width="60" height="63" id="7" fill="rgb(255,255,255)" fill-opacity="0.501961" />
<rect x="190" y="45" width="29" height="77" id="8" fill="rgb(255,255,255)" fill-opacity="0.501961" />
<rect x="147" y="40" width="39" height="20" id="9" fill="rgb(9,21,44)" fill-opacity="0.501961" />
<rect x="74" y="83" width="65" height="60" id="10" fill="rgb(255,255,255)" fill-opacity="0.501961" />
<rect x="105" y="30" width="20" height="12" id="11" fill="rgb(0,1,0)" fill-opacity="0.501961" />
<rect x="46" y="53" width="48" height="31" id="12" fill="rgb(144,160,154)" fill-opacity="0.501961" />
<rect x="62" y="87" width="7" height="42" id="13" fill="rgb(24,116,44)" fill-opacity="0.501961" />
<rect x="200" y="0" width="54" height="29" id="14" fill="rgb(255,255,247)" fill-opacity="0.501961" />
<rect x="0" y="0" width="191" height="17" id="15" fill="rgb(255,255,255)" fill-opacity="0.501961" />
<rect x="115" y="67" width="12" height="39" id="16" fill="rgb(255,255,255)" fill-opacity="0.501961" />
<rect x="141" y="79" width="5" height="23" id="17" fill="rgb(34,78,0)" fill-opacity="0.501961" />
<rect x="125" y="18" width="48" height="26" id="18" fill="rgb(133,151,184)" fill-opacity="0.501961" />
<rect x="149" y="61" width="73" height="41" id="19" fill="rgb(255,255,255)" fill-opacity="0.501961" />
<rect x="14" y="1" width="37" height="56" id="20" fill="rgb(255,255,255)" fill-opacity="0.501961" />
<rect x="220" y="20" width="13" height="45" id="21" fill="rgb(117,92,35)" fill-opacity="0.501961" />
<rect x="170" y="32" width="20" height="19" id="22" fill="rgb(0,8,54)" fill-opacity="0.501961" />
<rect x="0" y="81" width="60" height="62" id="23" fill="rgb(255,255,255)" fill-opacity="0.501961" />
<rect x="182" y="48" width="4" height="19" id="24" fill="rgb(0,0,0)" fill-opacity="0.501961" />
<rect x="45" y="125" width="153" height="7" id="25" fill="rgb(178,176,180)" fill-opacity="0.501961" />
<polyline points="0,143 255,143 0,143 255,143" id="26" stroke="rgb(255,255,255)" stroke-width="1" fill="none" stroke-opacity="0.501961" />
<rect x="151" y="105" width="18" height="7" id="27" fill="rgb(70,101,0)" fill-opacity="0.501961" />
<rect x="175" y="70" width="80" height="73" id="28" fill="rgb(255,255,255)" fill-opacity="0.501961" />
<rect x="75" y="75" width="19" height="8" id="29" fill="rgb(2,114,21)" fill-opacity="0.501961" />
<rect x="91" y="80" width="46" height="42" id="30" fill="rgb(255,255,255)" fill-opacity="0.501961" />
<rect x="187" y="48" width="33" height="27" id="31" fill="rgb(255,255,255)" fill-opacity="0.501961" />
<rect x="43" y="133" width="212" height="10" id="32" fill="rgb(255,255,255)" fill-opacity="0.501961" />
<rect x="9" y="52" width="5" height="12" id="33" fill="rgb(21,5,0)" fill-opacity="0.501961" />
<rect x="185" y="15" width="32" height="5" id="34" fill="rgb(124,120,39)" fill-opacity="0.501961" />
<rect x="96" y="59" width="16" height="17" id="35" fill="rgb(6,44,0)" fill-opacity="0.501961" />
<rect x="47" y="54" width="12" height="9" id="36" fill="rgb(25,31,43)" fill-opacity="0.501961" />
<rect x="0" y="0" width="75" height="39" id="37" fill="rgb(255,255,255)" fill-opacity="0.501961" />
<rect x="0" y="0" width="255" height="16" id="38" fill="rgb(255,255,255)" fill-opacity="0.501961" />
<rect x="131" y="70" width="8" height="13" id="39" fill="rgb(70,108,15)" fill-opacity="0.501961" />
<rect x="163" y="56" width="11" height="48" id="40" fill="rgb(255,255,255)" fill-opacity="0.501961" />
<rect x="64" y="39" width="11" height="13" id="41" fill="rgb(1,22,76)" fill-opacity="0.501961" />
<rect x="79" y="63" width="17" height="10" id="42" fill="rgb(255,255,255)" fill-opacity="0.501961" />
<rect x="235" y="45" width="20" height="98" id="43" fill="rgb(255,255,255)" fill-opacity="0.501961" />
<rect x="152" y="24" width="9" height="32" id="44" fill="rgb(220,112,66)" fill-opacity="0.501961" />
<rect x="68" y="97" width="73" height="16" id="45" fill="rgb(255,255,255)" fill-opacity="0.501961" />
<rect x="213" y="19" width="22" height="18" id="46" fill="rgb(168,175,56)" fill-opacity="0.501961" />
<rect x="0" y="70" width="16" height="67" id="47" fill="rgb(255,255,255)" fill-opacity="0.501961" />
<rect x="102" y="58" width="44" height="4" id="48" fill="rgb(12,0,0)" fill-opacity="0.501961" />
<rect x="56" y="58" width="16" height="31" id="49" fill="rgb(217,226,228)" fill-opacity="0.501961" />
<rect x="146" y="98" width="9" height="7" id="50" fill="rgb(74,111,0)" fill-opacity="0.501961" />
<polyline points="248,143 227,56 241,105 225,47" id="51" stroke="rgb(255,255,255)" stroke-width="1" fill="none" stroke-opacity="0.501961" />
<rect x="69" y="83" width="4" height="5" id="52" fill="rgb(0,50,0)" fill-opacity="0.501961" />
<rect x="139" y="23" width="12" height="15" id="53" fill="rgb(35,144,220)" fill-opacity="0.501961" />
<rect x="201" y="31" width="46" height="10" id="54" fill="rgb(123,132,37)" fill-opacity="0.501961" />
<rect x="103" y="18" width="25" height="6" id="55" fill="rgb(86,138,186)" fill-opacity="0.501961" />
<rect x="101" y="44" width="30" height="14" id="56" fill="rgb(215,194,179)" fill-opacity="0.501961" />
<rect x="108" y="29" width="11" height="15" id="57" fill="rgb(24,54,0)" fill-opacity="0.501961" />
<rect x="191" y="13" width="8" height="31" id="58" fill="rgb(93,102,58)" fill-opacity="0.501961" />
<polyline points="71,88 65,107 73,79 101,69" id="59" stroke="rgb(0,97,1)" stroke-width="1" fill="none" stroke-opacity="0.501961" />
<rect x="136" y="47" width="10" height="8" id="60" fill="rgb(255,255,255)" fill-opacity="0.501961" />
<rect x="90" y="79" width="46" height="43" id="61" fill="rgb(255,255,255)" fill-opacity="0.501961" />
<rect x="65" y="69" width="16" height="8" id="62" fill="rgb(255,255,255)" fill-opacity="0.501961" />
</svg>