<?xml version="1.0" standalone="no"?>
<svg xmlns="http://www.w3.org/2000/svg" version="1.2" baseProfile="tiny" width="256" height="144" viewBox="0 0 256 144">
<rect x="0" y="0" width="256" height="144" id="0" fill="rgb(242,215,15)" fill-opacity="1" />
<path d="M166 15 Q 83 83 154 53" id="1" stroke="rgb(142,0,132)" stroke-width="1" fill="none" stroke-opacity="0.501961" />
<path d="M113 115 Q 99 133 147 25" id="2" stroke="rgb(76,7,101)" stroke-width="1" fill="none" stroke-opacity="0.501961" />
<path d="M142 35 Q 121 111 150 20" id="3" stroke="rgb(154,0,130)" stroke-width="1" fill="none" stroke-opacity="0.501961" />
<path d="M106 121 Q 85 139 65 132" id="4" stroke="rgb(0,0,84)" stroke-width="1" fill="none" stroke-opacity="0.501961" />
<path d="M93 134 Q 142 79 104 113" id="5" stroke="rgb(0,5,117)" stroke-width="1" fill="none" stroke-opacity="0.501961" />
<path d="M50 132 Q 141 143 127 35" id="6" stroke="rgb(29,19,72)" stroke-width="1" fill="none" stroke-opacity="0.501961" />
<path d="M177 13 Q 94 50 141 70" id="7" stroke="rgb(108,0,108)" stroke-width="1" fill="none" stroke-opacity="0.501961" />
<path d="M93 130 Q 148 92 104 99" id="8" stroke="rgb(0,57,116)" stroke-width="1" fill="none" stroke-opacity="0.501961" />
<path d="M56 133 Q 93 130 129 136" id="9" stroke="rgb(0,0,40)" stroke-width="1" fill="none" stroke-opacity="0.501961" />
<path d="M1 133 Q 152 143 146 16" id="10" stroke="rgb(66,32,67)" stroke-width="1" fill="none" stroke-opacity="0.501961" />
<path d="M148 69 Q 71 55 169 50" id="11" stroke="rgb(176,0,108)" stroke-width="1" fill="none" stroke-opacity="0.501961" />
<path d="M149 10 Q 147 136 139 21" id="12" stroke="rgb(173,0,107)" stroke-width="1" fill="none" stroke-opacity="0.501961" />
<path d="M109 89 Q 100 133 109 111" id="13" stroke="rgb(0,16,113)" stroke-width="1" fill="none" stroke-opacity="0.501961" />
<path d="M117 68 Q 116 42 153 67" id="14" stroke="rgb(115,0,111)" stroke-width="1" fill="none" stroke-opacity="0.501961" />
<path d="M81 139 Q 137 106 102 98" id="15" stroke="rgb(0,78,82)" stroke-width="1" fill="none" stroke-opacity="0.501961" />
<path d="M143 53 Q 93 35 154 57" id="16" stroke="rgb(103,0,108)" stroke-width="1" fill="none" stroke-opacity="0.501961" />
<path d="M166 13 Q 78 75 152 34" id="17" stroke="rgb(151,0,114)" stroke-width="1" fill="none" stroke-opacity="0.501961" />
<path d="M96 136 Q 130 56 156 34" id="18" stroke="rgb(101,54,73)" stroke-width="1" fill="none" stroke-opacity="0.501961" />
<path d="M163 9 Q 90 103 157 58" id="19" stroke="rgb(196,0,114)" stroke-width="1" fill="none" stroke-opacity="0.501961" />
<path d="M14 132 Q 152 143 106 89" id="20" stroke="rgb(0,22,58)" stroke-width="1" fill="none" stroke-opacity="0.501961" />
<path d="M247 1 Q 62 113 147 40" id="21" stroke="rgb(207,69,74)" stroke-width="1" fill="none" stroke-opacity="0.501961" />
<path d="M119 54 Q 109 52 146 67" id="22" stroke="rgb(8,0,59)" stroke-width="1" fill="none" stroke-opacity="0.501961" />
<path d="M151 22 Q 152 81 122 39" id="23" stroke="rgb(126,0,98)" stroke-width="1" fill="none" stroke-opacity="0.501961" />
<path d="M154 35 Q 72 76 154 51" id="24" stroke="rgb(168,0,112)" stroke-width="1" fill="none" stroke-opacity="0.501961" />
<path d="M117 101 Q 138 0 124 64" id="25" stroke="rgb(212,54,78)" stroke-width="1" fill="none" stroke-opacity="0.501961" />
<path d="M222 26 Q 100 0 153 68" id="26" stroke="rgb(143,0,84)" stroke-width="1" fill="none" stroke-opacity="0.501961" />
<path d="M109 63 Q 188 91 84 51" id="27" stroke="rgb(190,46,98)" stroke-width="1" fill="none" stroke-opacity="0.501961" />
<path d="M137 71 Q 143 5 129 62" id="28" stroke="rgb(190,0,112)" stroke-width="1" fill="none" stroke-opacity="0.501961" />
<path d="M144 70 Q 78 77 159 19" id="29" stroke="rgb(158,0,110)" stroke-width="1" fill="none" stroke-opacity="0.501961" />
<path d="M68 115 Q 14 142 41 128" id="30" stroke="rgb(0,15,101)" stroke-width="1" fill="none" stroke-opacity="0.501961" />
<path d="M153 10 Q 93 128 129 37" id="31" stroke="rgb(149,31,103)" stroke-width="1" fill="none" stroke-opacity="0.501961" />
<path d="M149 68 Q 84 47 148 70" id="32" stroke="rgb(127,0,84)" stroke-width="1" fill="none" stroke-opacity="0.501961" />
<path d="M245 31 Q 104 9 218 21" id="33" stroke="rgb(191,45,75)" stroke-width="1" fill="none" stroke-opacity="0.501961" />
<path d="M110 93 Q 102 131 122 96" id="34" stroke="rgb(0,74,120)" stroke-width="1" fill="none" stroke-opacity="0.501961" />
<path d="M112 43 Q 166 119 126 26" id="35" stroke="rgb(178,16,88)" stroke-width="1" fill="none" stroke-opacity="0.501961" />
<path d="M109 121 Q 94 83 126 100" id="36" stroke="rgb(0,59,101)" stroke-width="1" fill="none" stroke-opacity="0.501961" />
<path d="M120 5 Q 251 34 199 25" id="37" stroke="rgb(224,41,90)" stroke-width="1" fill="none" stroke-opacity="0.501961" />
<path d="M140 39 Q 86 105 144 50" id="38" stroke="rgb(148,24,133)" stroke-width="1" fill="none" stroke-opacity="0.501961" />
<path d="M151 38 Q 115 104 152 64" id="39" stroke="rgb(145,0,120)" stroke-width="1" fill="none" stroke-opacity="0.501961" />
<path d="M152 31 Q 95 76 150 26" id="40" stroke="rgb(223,0,107)" stroke-width="1" fill="none" stroke-opacity="0.501961" />
<path d="M138 36 Q 177 73 116 56" id="41" stroke="rgb(182,0,107)" stroke-width="1" fill="none" stroke-opacity="0.501961" />
<path d="M182 15 Q 90 37 146 89" id="42" stroke="rgb(162,33,76)" stroke-width="1" fill="none" stroke-opacity="0.501961" />
<path d="M79 1 Q 202 12 119 30" id="43" stroke="rgb(255,255,0)" stroke-width="1" fill="none" stroke-opacity="0.501961" />
<path d="M119 133 Q 68 134 26 131" id="44" stroke="rgb(0,0,39)" stroke-width="1" fill="none" stroke-opacity="0.501961" />
<path d="M92 122 Q 15 120 85 119" id="45" stroke="rgb(47,128,66)" stroke-width="1" fill="none" stroke-opacity="0.501961" />
<path d="M182 14 Q 163 14 215 26" id="46" stroke="rgb(122,0,108)" stroke-width="1" fill="none" stroke-opacity="0.501961" />
<path d="M101 123 Q 137 111 161 5" id="47" stroke="rgb(117,72,48)" stroke-width="1" fill="none" stroke-opacity="0.501961" />
<path d="M133 37 Q 111 102 122 40" id="48" stroke="rgb(146,36,121)" stroke-width="1" fill="none" stroke-opacity="0.501961" />
<path d="M83 130 Q 31 104 82 130" id="49" stroke="rgb(0,0,91)" stroke-width="1" fill="none" stroke-opacity="0.501961" />
<path d="M130 143 Q 120 33 127 101" id="50" stroke="rgb(255,255,0)" stroke-width="1" fill="none" stroke-opacity="0.501961" />
<path d="M116 108 Q 162 52 131 53" id="51" stroke="rgb(129,73,105)" stroke-width="1" fill="none" stroke-opacity="0.501961" />
<path d="M118 125 Q 92 52 120 127" id="52" stroke="rgb(44,137,66)" stroke-width="1" fill="none" stroke-opacity="0.501961" />
<path d="M117 3 Q 172 19 239 22" id="53" stroke="rgb(235,174,29)" stroke-width="1" fill="none" stroke-opacity="0.501961" />
<path d="M132 55 Q 152 11 164 16" id="54" stroke="rgb(154,0,94)" stroke-width="1" fill="none" stroke-opacity="0.501961" />
<path d="M53 121 Q 39 140 10 121" id="55" stroke="rgb(0,1,105)" stroke-width="1" fill="none" stroke-opacity="0.501961" />
<path d="M100 89 Q 215 105 20 77" id="56" stroke="rgb(255,255,0)" stroke-width="1" fill="none" stroke-opacity="0.501961" />
<path d="M115 119 Q 120 77 108 113" id="57" stroke="rgb(0,109,105)" stroke-width="1" fill="none" stroke-opacity="0.501961" />
<path d="M135 1 Q 58 126 222 117" id="58" stroke="rgb(255,250,2)" stroke-width="1" fill="none" stroke-opacity="0.501961" />
<path d="M167 141 Q 189 31 110 124" id="59" stroke="rgb(255,252,3)" stroke-width="1" fill="none" stroke-opacity="0.501961" />
<path d="M123 51 Q 190 29 103 113" id="60" stroke="rgb(152,54,104)" stroke-width="1" fill="none" stroke-opacity="0.501961" />
<path d="M124 38 Q 159 115 143 28" id="61" stroke="rgb(199,0,92)" stroke-width="1" fill="none" stroke-opacity="0.501961" />
<path d="M238 1 Q 213 33 199 27" id="62" stroke="rgb(114,0,112)" stroke-width="1" fill="none" stroke-opacity="0.501961" />
<path d="M150 42 Q 88 68 137 41" id="63" stroke="rgb(179,0,90)" stroke-width="1" fill="none" stroke-opacity="0.501961" />
<path d="M229 71 Q 61 119 137 140" id="64" stroke="rgb(255,254,3)" stroke-width="1" fill="none" stroke-opacity="0.501961" />
<path d="M199 25 Q 168 1 160 25" id="65" stroke="rgb(78,0,59)" stroke-width="1" fill="none" stroke-opacity="0.501961" />
<path d="M211 78 Q 16 104 224 68" id="66" stroke="rgb(255,249,3)" stroke-width="1" fill="none" stroke-opacity="0.501961" />
<path d="M154 24 Q 73 128 155 22" id="67" stroke="rgb(170,51,116)" stroke-width="1" fill="none" stroke-opacity="0.501961" />
<path d="M121 44 Q 153 62 149 58" id="68" stroke="rgb(250,0,116)" stroke-width="1" fill="none" stroke-opacity="0.501961" />
<path d="M11 105 Q 174 143 198 138" id="69" stroke="rgb(255,243,4)" stroke-width="1" fill="none" stroke-opacity="0.501961" />
<path d="M150 60 Q 106 104 160 12" id="70" stroke="rgb(187,0,88)" stroke-width="1" fill="none" stroke-opacity="0.501961" />
<path d="M159 14 Q 49 86 105 109" id="71" stroke="rgb(252,247,1)" stroke-width="1" fill="none" stroke-opacity="0.501961" />
<path d="M73 128 Q 101 138 15 103" id="72" stroke="rgb(119,173,52)" stroke-width="1" fill="none" stroke-opacity="0.501961" />
<path d="M146 42 Q 113 118 157 19" id="73" stroke="rgb(198,10,89)" stroke-width="1" fill="none" stroke-opacity="0.501961" />
<path d="M226 5 Q 255 42 102 3" id="74" stroke="rgb(190,85,55)" stroke-width="1" fill="none" stroke-opacity="0.501961" />
<path d="M151 35 Q 102 72 154 17" id="75" stroke="rgb(180,19,76)" stroke-width="1" fill="none" stroke-opacity="0.501961" />
<path d="M168 8 Q 206 47 238 5" id="76" stroke="rgb(157,0,102)" stroke-width="1" fill="none" stroke-opacity="0.501961" />
<path d="M235 11 Q 211 46 170 9" id="77" stroke="rgb(71,0,62)" stroke-width="1" fill="none" stroke-opacity="0.501961" />
<path d="M252 55 Q 29 118 166 79" id="78" stroke="rgb(255,252,2)" stroke-width="1" fill="none" stroke-opacity="0.501961" />
<path d="M120 132 Q 68 135 114 132" id="79" stroke="rgb(0,0,27)" stroke-width="1" fill="none" stroke-opacity="0.501961" />
<path d="M75 125 Q 57 106 39 136" id="80" stroke="rgb(0,6,78)" stroke-width="1" fill="none" stroke-opacity="0.501961" />
<path d="M54 134 Q 13 132 17 120" id="81" stroke="rgb(0,48,95)" stroke-width="1" fill="none" stroke-opacity="0.501961" />
<path d="M159 17 Q 85 98 138 34" id="82" stroke="rgb(235,22,97)" stroke-width="1" fill="none" stroke-opacity="0.501961" />
</svg>