<?xml version="1.0" standalone="no"?>
<svg xmlns="http://www.w3.org/2000/svg" version="1.2" baseProfile="tiny" width="256" height="144" viewBox="0 0 256 144">
<rect x="0" y="0" width="256" height="144" id="0" fill="rgb(70,112,58)" fill-opacity="1" />
<rect x="110" y="6" width="54" height="70" id="1" fill="rgb(255,129,117)" fill-opacity="0.501961" />
<rect x="35" y="123" width="89" height="13" id="2" fill="rgb(255,220,40)" fill-opacity="0.501961" />
<rect x="47" y="19" width="36" height="31" id="3" fill="rgb(255,190,104)" fill-opacity="0.501961" />
<rect x="133" y="113" width="75" height="10" id="4" fill="rgb(255,48,34)" fill-opacity="0.501961" />
<rect x="237" y="0" width="18" height="143" id="5" fill="rgb(0,139,56)" fill-opacity="0.501961" />
<rect x="22" y="66" width="75" height="9" id="6" fill="rgb(249,36,0)" fill-opacity="0.501961" />
<circle cx="0" cy="67" r="52" id="7" fill="rgb(0,121,59)" fill-opacity="0.501961" />
<rect x="18" y="6" width="18" height="13" id="8" fill="rgb(255,255,38)" fill-opacity="0.501961" />
<rect x="28" y="108" width="75" height="15" id="9" fill="rgb(7,0,8)" fill-opacity="0.501961" />
<circle cx="132" cy="143" r="29" id="10" fill="rgb(0,104,52)" fill-opacity="0.501961" />
<rect x="191" y="124" width="46" height="6" id="11" fill="rgb(0,0,0)" fill-opacity="0.501961" />
<circle cx="94" cy="11" r="6" id="12" fill="rgb(255,255,36)" fill-opacity="0.501961" />
<rect x="120" y="18" width="27" height="61" id="13" fill="rgb(190,161,163)" fill-opacity="0.501961" />
<rect x="87" y="77" width="73" height="8" id="14" fill="rgb(155,0,7)" fill-opacity="0.501961" />
<rect x="180" y="27" width="30" height="15" id="15" fill="rgb(224,107,133)" fill-opacity="0.501961" />
<circle cx="232" cy="102" r="7" id="16" fill="rgb(255,255,37)" fill-opacity="0.501961" />
<circle cx="180" cy="10" r="6" id="17" fill="rgb(255,255,35)" fill-opacity="0.501961" />
<rect x="50" y="36" width="27" height="15" id="18" fill="rgb(255,237,14)" fill-opacity="0.501961" />
<rect x="14" y="111" width="24" height="17" id="19" fill="rgb(168,204,71)" fill-opacity="0.501961" />
<rect x="155" y="19" width="4" height="65" id="20" fill="rgb(229,0,0)" fill-opacity="0.501961" />
<rect x="197" y="80" width="40" height="8" id="21" fill="rgb(112,0,0)" fill-opacity="0.501961" />
</svg>