<svg xmlns="http://www.w3.org/2000/svg" width="256" height="144" baseProfile="tiny" version="1.2" viewBox="0 0 256 144"><rect id="0" width="256" height="144" x="0" y="0" fill="#9EA0A4" fill-opacity="1"/><path id="1" fill="none" stroke="#000" stroke-opacity=".502" stroke-width="1" d="M234 55 Q 0 66 232 55"/><path id="2" fill="none" stroke="#000" stroke-opacity=".502" stroke-width="1" d="M158 69 Q 24 74 255 44"/><path id="3" fill="none" stroke="#000" stroke-opacity=".502" stroke-width="1" d="M231 58 Q 16 94 194 45"/><path id="4" fill="none" stroke="#000" stroke-opacity=".502" stroke-width="1" d="M146 68 Q 36 62 232 69"/><path id="5" fill="none" stroke="#000" stroke-opacity=".502" stroke-width="1" d="M230 82 Q 67 45 200 75"/><path id="6" fill="none" stroke="#000" stroke-opacity=".502" stroke-width="1" d="M232 75 Q 1 42 236 75"/><path id="7" fill="none" stroke="#000" stroke-opacity=".502" stroke-width="1" d="M165 56 Q 63 41 240 58"/><path id="8" fill="none" stroke="#000" stroke-opacity=".502" stroke-width="1" d="M227 69 Q 39 20 230 77"/><path id="9" fill="none" stroke="#000" stroke-opacity=".502" stroke-width="1" d="M101 74 Q 233 14 213 94"/><path id="10" fill="none" stroke="#000" stroke-opacity=".502" stroke-width="1" d="M234 63 Q 42 29 224 89"/><path id="11" fill="none" stroke="#000" stroke-opacity=".502" stroke-width="1" d="M228 54 Q 32 88 183 61"/><path id="12" fill="none" stroke="#000" stroke-opacity=".502" stroke-width="1" d="M209 55 Q 3 41 227 85"/><path id="13" fill="none" stroke="#000" stroke-opacity=".502" stroke-width="1" d="M201 93 Q 6 62 218 51"/><path id="14" fill="none" stroke="#000" stroke-opacity=".502" stroke-width="1" d="M146 73 Q 21 51 205 71"/><path id="15" fill="none" stroke="#000" stroke-opacity=".502" stroke-width="1" d="M183 98 Q 18 35 233 63"/><path id="16" fill="none" stroke="#000" stroke-opacity=".502" stroke-width="1" d="M232 63 Q 10 72 197 64"/><path id="17" fill="none" stroke="#000" stroke-opacity=".502" stroke-width="1" d="M148 28 Q 255 143 182 45"/><path id="18" fill="none" stroke="#000F3E" stroke-opacity=".502" stroke-width="1" d="M11 48 Q 158 61 229 81"/><path id="19" fill="none" stroke="#000" stroke-opacity=".502" stroke-width="1" d="M153 31 Q 20 74 243 85"/><path id="20" fill="none" stroke="#FFF" stroke-opacity=".502" stroke-width="1" d="M29 143 Q 255 143 29 143"/><path id="21" fill="none" stroke="#000" stroke-opacity=".502" stroke-width="1" d="M227 76 Q 12 16 162 71"/><path id="22" fill="none" stroke="#000" stroke-opacity=".502" stroke-width="1" d="M192 92 Q 36 24 185 97"/><path id="23" fill="none" stroke="#000" stroke-opacity=".502" stroke-width="1" d="M174 56 Q 32 65 218 48"/><path id="24" fill="none" stroke="#FFA000" stroke-opacity=".502" stroke-width="1" d="M220 134 Q 32 61 189 122"/><path id="25" fill="none" stroke="#FFF" stroke-opacity=".502" stroke-width="1" d="M63 140 Q 10 0 66 143"/><path id="26" fill="none" stroke="#FFF" stroke-opacity=".502" stroke-width="1" d="M68 143 Q 11 0 66 140"/><path id="27" fill="none" stroke="#000005" stroke-opacity=".502" stroke-width="1" d="M92 35 Q 247 11 218 106"/><path id="28" fill="none" stroke="#000" stroke-opacity=".502" stroke-width="1" d="M102 48 Q 242 67 233 76"/><path id="29" fill="none" stroke="#000003" stroke-opacity=".502" stroke-width="1" d="M217 101 Q 18 38 226 84"/><path id="30" fill="none" stroke="#000F34" stroke-opacity=".502" stroke-width="1" d="M56 66 Q 196 97 231 76"/><path id="31" fill="none" stroke="#000534" stroke-opacity=".502" stroke-width="1" d="M43 68 Q 255 29 212 73"/><path id="32" fill="none" stroke="#009" stroke-opacity=".502" stroke-width="1" d="M62 86 Q 107 0 88 133"/><path id="33" fill="none" stroke="#000" stroke-opacity=".502" stroke-width="1" d="M118 45 Q 125 116 231 69"/><path id="34" fill="none" stroke="#FFF" stroke-opacity=".502" stroke-width="1" d="M7 137 Q 232 142 184 143"/><path id="35" fill="none" stroke="#FFF" stroke-opacity=".502" stroke-width="1" d="M45 139 Q 19 0 68 138"/><path id="36" fill="none" stroke="#FFF" stroke-opacity=".502" stroke-width="1" d="M16 140 Q 139 143 189 143"/><path id="37" fill="none" stroke="#FFF" stroke-opacity=".502" stroke-width="1" d="M188 139 Q 1 139 184 138"/><path id="38" fill="none" stroke="#000" stroke-opacity=".502" stroke-width="1" d="M177 55 Q 249 58 117 29"/><path id="39" fill="none" stroke="#000" stroke-opacity=".502" stroke-width="1" d="M126 76 Q 74 58 212 101"/><path id="40" fill="none" stroke="#000B35" stroke-opacity=".502" stroke-width="1" d="M68 52 Q 248 28 211 75"/><path id="41" fill="none" stroke="#FFF" stroke-opacity=".502" stroke-width="1" d="M15 89 Q 125 134 16 75"/><path id="42" fill="none" stroke="#000" stroke-opacity=".502" stroke-width="1" d="M230 56 Q 72 129 230 55"/><path id="43" fill="none" stroke="#FFF" stroke-opacity=".502" stroke-width="1" d="M161 137 Q 11 138 183 137"/><path id="44" fill="none" stroke="#FFF" stroke-opacity=".502" stroke-width="1" d="M182 139 Q 0 143 44 134"/><path id="45" fill="none" stroke="#100000" stroke-opacity=".502" stroke-width="1" d="M165 123 Q 45 52 212 60"/><path id="46" fill="none" stroke="#00118C" stroke-opacity=".502" stroke-width="1" d="M152 37 Q 74 2 90 135"/><path id="47" fill="none" stroke="#FFF" stroke-opacity=".502" stroke-width="1" d="M35 46 Q 30 88 64 143"/><path id="48" fill="none" stroke="#000" stroke-opacity=".502" stroke-width="1" d="M242 78 Q 124 96 212 92"/><path id="49" fill="none" stroke="#FFF" stroke-opacity=".502" stroke-width="1" d="M165 136 Q 15 142 248 112"/><path id="50" fill="none" stroke="#0010AF" stroke-opacity=".502" stroke-width="1" d="M112 32 Q 2 143 112 32"/><path id="51" fill="none" stroke="#FFF" stroke-opacity=".502" stroke-width="1" d="M255 120 Q 77 88 249 119"/><path id="52" fill="none" stroke="#0019C0" stroke-opacity=".502" stroke-width="1" d="M79 44 Q 111 143 57 62"/><path id="53" fill="none" stroke="#FFF" stroke-opacity=".502" stroke-width="1" d="M58 133 Q 12 39 60 13"/><path id="54" fill="none" stroke="#FFF" stroke-opacity=".502" stroke-width="1" d="M74 141 Q 12 0 40 73"/><path id="55" fill="none" stroke="#FFF" stroke-opacity=".502" stroke-width="1" d="M54 143 Q 11 0 42 136"/><path id="56" fill="none" stroke="#FFF" stroke-opacity=".502" stroke-width="1" d="M254 127 Q 81 84 255 126"/><path id="57" fill="none" stroke="#000" stroke-opacity=".502" stroke-width="1" d="M233 59 Q 190 60 154 37"/><path id="58" fill="none" stroke="#421200" stroke-opacity=".502" stroke-width="1" d="M229 85 Q 31 122 214 77"/><path id="59" fill="none" stroke="#FFF" stroke-opacity=".502" stroke-width="1" d="M34 143 Q 8 0 71 136"/><path id="60" fill="none" stroke="#2C0000" stroke-opacity=".502" stroke-width="1" d="M215 140 Q 45 56 161 33"/><path id="61" fill="none" stroke="#FFF" stroke-opacity=".502" stroke-width="1" d="M76 143 Q 19 125 33 8"/><path id="62" fill="none" stroke="#001C4B" stroke-opacity=".502" stroke-width="1" d="M240 64 Q 1 88 108 75"/><path id="63" fill="none" stroke="#000B9E" stroke-opacity=".502" stroke-width="1" d="M81 136 Q 95 123 92 36"/><path id="64" fill="none" stroke="#001141" stroke-opacity=".502" stroke-width="1" d="M49 48 Q 130 46 226 45"/><path id="65" fill="none" stroke="#0022C7" stroke-opacity=".502" stroke-width="1" d="M95 95 Q 86 15 85 131"/><path id="66" fill="none" stroke="#FFFFF3" stroke-opacity=".502" stroke-width="1" d="M248 127 Q 13 142 154 122"/><path id="67" fill="none" stroke="#000" stroke-opacity=".502" stroke-width="1" d="M179 85 Q 78 14 192 37"/><path id="68" fill="none" stroke="#FFF" stroke-opacity=".502" stroke-width="1" d="M43 124 Q 47 32 63 131"/><path id="69" fill="none" stroke="#001C3D" stroke-opacity=".502" stroke-width="1" d="M239 43 Q 211 112 51 69"/><path id="70" fill="none" stroke="#1D1D1F" stroke-opacity=".502" stroke-width="1" d="M191 87 Q 19 69 254 78"/><path id="71" fill="none" stroke="#FFF" stroke-opacity=".502" stroke-width="1" d="M41 143 Q 8 23 60 143"/><path id="72" fill="none" stroke="#FFF" stroke-opacity=".502" stroke-width="1" d="M22 76 Q 124 125 13 105"/><path id="73" fill="none" stroke="#001D60" stroke-opacity=".502" stroke-width="1" d="M234 49 Q 39 31 87 133"/><path id="74" fill="none" stroke="#FFF" stroke-opacity=".502" stroke-width="1" d="M255 107 Q 138 129 255 107"/><path id="75" fill="none" stroke="#FFF" stroke-opacity=".502" stroke-width="1" d="M22 139 Q 82 19 26 130"/><path id="76" fill="none" stroke="#FFF" stroke-opacity=".502" stroke-width="1" d="M21 129 Q 43 0 60 139"/><path id="77" fill="none" stroke="#FFF" stroke-opacity=".502" stroke-width="1" d="M60 133 Q 45 5 34 142"/><path id="78" fill="none" stroke="#090D17" stroke-opacity=".502" stroke-width="1" d="M235 59 Q 43 103 235 59"/><path id="79" fill="none" stroke="#FFFFEC" stroke-opacity=".502" stroke-width="1" d="M248 126 Q 60 129 168 136"/><path id="80" fill="none" stroke="#000007" stroke-opacity=".502" stroke-width="1" d="M130 79 Q 253 20 118 30"/><path id="81" fill="none" stroke="#FF8100" stroke-opacity=".502" stroke-width="1" d="M189 129 Q 64 60 181 125"/><path id="82" fill="none" stroke="#0029BC" stroke-opacity=".502" stroke-width="1" d="M87 122 Q 30 8 92 96"/><path id="83" fill="none" stroke="#001EB2" stroke-opacity=".502" stroke-width="1" d="M94 80 Q 54 24 78 128"/><path id="84" fill="none" stroke="#0036DE" stroke-opacity=".502" stroke-width="1" d="M82 134 Q 83 116 84 41"/><path id="85" fill="none" stroke="#000" stroke-opacity=".502" stroke-width="1" d="M154 37 Q 255 83 197 88"/><path id="86" fill="none" stroke="#221611" stroke-opacity=".502" stroke-width="1" d="M255 80 Q 6 121 205 45"/><path id="87" fill="none" stroke="#FFF" stroke-opacity=".502" stroke-width="1" d="M22 120 Q 21 17 39 137"/><path id="88" fill="none" stroke="#00000E" stroke-opacity=".502" stroke-width="1" d="M223 57 Q 40 82 174 62"/><path id="89" fill="none" stroke="#FFF" stroke-opacity=".502" stroke-width="1" d="M36 142 Q 9 20 44 143"/><path id="90" fill="none" stroke="#FFF" stroke-opacity=".502" stroke-width="1" d="M94 126 Q 255 139 100 135"/><path id="91" fill="none" stroke="#FFF" stroke-opacity=".502" stroke-width="1" d="M255 103 Q 135 121 255 124"/><path id="92" fill="none" stroke="#00000B" stroke-opacity=".502" stroke-width="1" d="M204 41 Q 27 1 230 69"/><path id="93" fill="none" stroke="#FF0" stroke-opacity=".502" stroke-width="1" d="M209 143 Q 94 85 214 143"/><path id="94" fill="none" stroke="#FFF" stroke-opacity=".502" stroke-width="1" d="M114 134 Q 255 137 92 131"/></svg>