<svg xmlns="http://www.w3.org/2000/svg" width="256" height="170" baseProfile="tiny" version="1.2" viewBox="0 0 256 170"><rect id="0" width="256" height="170" x="0" y="0" fill="#6E737C" fill-opacity="1"/><polygon id="1" fill="#000" fill-opacity=".502" points="256 169 25 170 114 64"/><polygon id="2" fill="#BCD4F7" fill-opacity=".502" points="0 0 256 0 16 114"/><polygon id="3" fill="#0F0701" fill-opacity=".502" points="256 100 256 170 66 144"/><polygon id="4" fill="#C0CFE4" fill-opacity=".502" points="128 11 256 4 252 103"/><polygon id="5" fill="#FFE" fill-opacity=".502" points="176 117 148 93 183 57"/><polygon id="6" fill="#FFFBD5" fill-opacity=".502" points="32 131 38 170 0 170"/><polygon id="7" fill="#170D0A" fill-opacity=".502" points="112 170 101 66 148 46"/><polygon id="8" fill="#1D1410" fill-opacity=".502" points="116 157 0 118 132 95"/><polygon id="9" fill="#000" fill-opacity=".502" points="184 82 209 80 181 148"/><polygon id="10" fill="#E4DDC0" fill-opacity=".502" points="77 30 89 95 28 110"/><polygon id="11" fill="#BBD5FB" fill-opacity=".502" points="147 98 128 122 144 137"/><polygon id="12" fill="#361900" fill-opacity=".502" points="26 116 0 96 0 170"/><polygon id="13" fill="#BDCBD1" fill-opacity=".502" points="204 103 240 111 219 49"/><polygon id="14" fill="#A6B6C7" fill-opacity=".502" points="0 24 0 98 100 88"/><polygon id="15" fill="#D2C9CA" fill-opacity=".502" points="58 167 77 151 54 147"/><polygon id="16" fill="#0D0C09" fill-opacity=".502" points="185 170 256 98 256 170"/><polygon id="17" fill="#6285BE" fill-opacity=".502" points="0 0 0 49 167 0"/><polygon id="18" fill="#E8ECF7" fill-opacity=".502" points="168 148 181 161 181 147"/><polygon id="19" fill="#94A3BB" fill-opacity=".502" points="256 0 200 86 168 0"/><polygon id="20" fill="#77593C" fill-opacity=".502" points="208 62 100 71 185 45"/><polygon id="21" fill="#FFFFE4" fill-opacity=".502" points="169 116 171 57 182 115"/><polygon id="22" fill="#D3B476" fill-opacity=".502" points="103 66 115 0 124 59"/><polygon id="23" fill="#111115" fill-opacity=".502" points="141 67 76 129 146 110"/><polygon id="24" fill="#4F341D" fill-opacity=".502" points="50 94 84 126 36 170"/><polygon id="25" fill="#362A2A" fill-opacity=".502" points="180 142 183 64 219 170"/><polygon id="26" fill="#CAC8D6" fill-opacity=".502" points="155 100 147 104 146 40"/><polygon id="27" fill="#9BB6E0" fill-opacity=".502" points="140 124 155 127 145 102"/><polygon id="28" fill="#0E0000" fill-opacity=".502" points="170 29 168 59 173 33"/><polygon id="29" fill="#FFFCD2" fill-opacity=".502" points="75 25 74 79 54 105"/><polygon id="30" fill="#181A26" fill-opacity=".502" points="124 155 166 101 173 170"/><polygon id="31" fill="#BABFBD" fill-opacity=".502" points="103 152 99 167 86 158"/><polygon id="32" fill="#B28F71" fill-opacity=".502" points="10 131 71 139 0 142"/><polygon id="33" fill="#874121" fill-opacity=".502" points="0 114 22 92 38 96"/><polygon id="34" fill="#959A8C" fill-opacity=".502" points="60 103 84 108 80 55"/><polygon id="35" fill="#9AB" fill-opacity=".502" points="256 96 199 100 256 5"/><polygon id="36" fill="#120000" fill-opacity=".502" points="118 101 100 50 108 62"/><polygon id="37" fill="#B3C9E2" fill-opacity=".502" points="196 72 223 16 186 74"/><polygon id="38" fill="#0F1416" fill-opacity=".502" points="3 170 0 160 20 132"/><polygon id="39" fill="#300F00" fill-opacity=".502" points="138 83 144 25 145 45"/><polygon id="40" fill="#D8D6E0" fill-opacity=".502" points="171 15 165 54 133 9"/><polygon id="41" fill="#819ECC" fill-opacity=".502" points="129 0 140 9 139 71"/><polygon id="42" fill="#DDC3C7" fill-opacity=".502" points="43 99 46 114 19 105"/><polygon id="43" fill="#E0C7B6" fill-opacity=".502" points="9 159 41 173 22 138"/><polygon id="44" fill="#605830" fill-opacity=".502" points="188 138 230 98 256 99"/><polygon id="45" fill="#736266" fill-opacity=".502" points="167 91 115 56 165 84"/><polygon id="46" fill="#11152C" fill-opacity=".502" points="41 159 41 170 192 170"/><polygon id="47" fill="#546379" fill-opacity=".502" points="36 137 32 119 2 128"/><polygon id="48" fill="#282F38" fill-opacity=".502" points="97 153 112 122 184 147"/><polygon id="49" fill="#0F090E" fill-opacity=".502" points="138 100 166 103 167 123"/><polygon id="50" fill="#B0C2D6" fill-opacity=".502" points="81 89 102 80 87 43"/><polygon id="51" fill="#4C3220" fill-opacity=".502" points="205 80 211 76 202 54"/><polygon id="52" fill="#0E1217" fill-opacity=".502" points="201 102 183 152 181 83"/><polygon id="53" fill="#1D1A0F" fill-opacity=".502" points="34 134 60 150 42 170"/><polygon id="54" fill="#9A695A" fill-opacity=".502" points="194 170 200 120 206 108"/><polygon id="55" fill="#91A7C7" fill-opacity=".502" points="0 99 93 15 0 38"/><polygon id="56" fill="#120E09" fill-opacity=".502" points="0 170 4 170 0 101"/><polygon id="57" fill="#241610" fill-opacity=".502" points="138 103 141 61 149 99"/><polygon id="58" fill="#00132C" fill-opacity=".502" points="153 64 153 50 165 70"/><polygon id="59" fill="#CCC5B6" fill-opacity=".502" points="158 73 163 83 178 56"/><polygon id="60" fill="#ACB9C8" fill-opacity=".502" points="176 35 208 63 256 2"/><polygon id="61" fill="#12161C" fill-opacity=".502" points="88 93 149 170 109 71"/><polygon id="62" fill="#A6B8C0" fill-opacity=".502" points="137 125 144 143 143 112"/><polygon id="63" fill="#C5D3DD" fill-opacity=".502" points="77 151 75 158 56 152"/><polygon id="64" fill="#87BDFE" fill-opacity=".502" points="128 116 135 130 152 115"/><polygon id="65" fill="#8096BB" fill-opacity=".502" points="255 0 171 0 169 31"/><polygon id="66" fill="#503E2D" fill-opacity=".502" points="17 138 100 112 60 104"/><polygon id="67" fill="#705044" fill-opacity=".502" points="116 72 119 30 122 74"/><polygon id="68" fill="#CEC0B1" fill-opacity=".502" points="14 161 38 188 40 159"/><polygon id="69" fill="#898F86" fill-opacity=".502" points="226 105 254 76 236 115"/><polygon id="70" fill="#B6BEC2" fill-opacity=".502" points="204 109 244 94 200 94"/><polygon id="71" fill="#CF997B" fill-opacity=".502" points="142 72 128 58 132 73"/><polygon id="72" fill="#C0C8C5" fill-opacity=".502" points="119 34 86 57 119 2"/><polygon id="73" fill="#3B2318" fill-opacity=".502" points="160 83 172 51 172 29"/><polygon id="74" fill="#8F5641" fill-opacity=".502" points="31 107 26 94 5 100"/><polygon id="75" fill="#372C2D" fill-opacity=".502" points="185 144 244 145 175 116"/><polygon id="76" fill="#0D1320" fill-opacity=".502" points="87 170 90 127 62 125"/><polygon id="77" fill="#A4AEB6" fill-opacity=".502" points="0 55 0 100 62 81"/><polygon id="78" fill="#875B39" fill-opacity=".502" points="13 170 6 111 0 105"/><polygon id="79" fill="#90654A" fill-opacity=".502" points="36 125 64 109 61 124"/><polygon id="80" fill="#F7F3D7" fill-opacity=".502" points="168 63 177 63 180 107"/><polygon id="81" fill="#241713" fill-opacity=".502" points="139 62 95 103 132 53"/><polygon id="82" fill="#121419" fill-opacity=".502" points="96 145 133 133 104 57"/><polygon id="83" fill="#302F35" fill-opacity=".502" points="207 155 180 81 196 73"/><polygon id="84" fill="#E1DCDE" fill-opacity=".502" points="143 8 148 43 170 11"/><polygon id="85" fill="#8FADD3" fill-opacity=".502" points="145 46 168 35 165 54"/><polygon id="86" fill="#5B483F" fill-opacity=".502" points="128 88 90 34 123 94"/><polygon id="87" fill="#FFFFEC" fill-opacity=".502" points="80 34 76 26 76 50"/><polygon id="88" fill="#ADAF93" fill-opacity=".502" points="110 64 118 74 114 18"/><polygon id="89" fill="#6A86B5" fill-opacity=".502" points="150 0 0 0 0 23"/><polygon id="90" fill="#91A7CB" fill-opacity=".502" points="123 46 144 -6 137 56"/><polygon id="91" fill="#484D1D" fill-opacity=".502" points="246 98 256 135 256 101"/><polygon id="92" fill="#251C13" fill-opacity=".502" points="23 119 4 101 -25 104"/><polygon id="93" fill="#A5B0BA" fill-opacity=".502" points="97 83 55 105 96 37"/><polygon id="94" fill="#605E4A" fill-opacity=".502" points="74 69 77 62 73 103"/><polygon id="95" fill="#0F0601" fill-opacity=".502" points="211 80 206 68 205 91"/><polygon id="96" fill="#707578" fill-opacity=".502" points="167 98 159 80 166 69"/><polygon id="97" fill="#DBDCDC" fill-opacity=".502" points="13 107 39 112 48 108"/><polygon id="98" fill="#111214" fill-opacity=".502" points="146 126 183 138 135 130"/><polygon id="99" fill="#4E3A2E" fill-opacity=".502" points="0 111 96 119 40 112"/><polygon id="100" fill="#93A3BB" fill-opacity=".502" points="252 22 211 85 207 25"/><polygon id="101" fill="#D0C0AE" fill-opacity=".502" points="24 135 38 170 10 151"/><polygon id="102" fill="#ADC1DE" fill-opacity=".502" points="152 46 149 13 145 70"/><polygon id="103" fill="#A8B0A4" fill-opacity=".502" points="98 68 83 106 73 107"/><polygon id="104" fill="#DCDBDB" fill-opacity=".502" points="188 37 172 40 201 50"/><polygon id="105" fill="#82503D" fill-opacity=".502" points="205 111 192 128 185 162"/><polygon id="106" fill="#957C61" fill-opacity=".502" points="36 154 48 98 47 112"/><polygon id="107" fill="#0D0D12" fill-opacity=".502" points="65 118 46 136 73 134"/><polygon id="108" fill="#ECE8E2" fill-opacity=".502" points="149 101 166 101 174 91"/><polygon id="109" fill="#C8A797" fill-opacity=".502" points="205 115 200 123 205 128"/><polygon id="110" fill="#FFFFEF" fill-opacity=".502" points="140 24 171 30 159 35"/><polygon id="111" fill="#3F6A95" fill-opacity=".502" points="37 120 26 119 12 143"/><polygon id="112" fill="#CC9C83" fill-opacity=".502" points="64 149 56 170 55 157"/><polygon id="113" fill="#967956" fill-opacity=".502" points="172 50 188 47 187 86"/><polygon id="114" fill="#454954" fill-opacity=".502" points="112 170 114 110 109 135"/><polygon id="115" fill="#9A7E78" fill-opacity=".502" points="81 120 67 121 73 113"/><polygon id="116" fill="#98A9C2" fill-opacity=".502" points="73 10 56 93 29 105"/><polygon id="117" fill="#7490C3" fill-opacity=".502" points="118 36 142 11 119 3"/><polygon id="118" fill="#D7C8B9" fill-opacity=".502" points="10 147 12 128 14 135"/><polygon id="119" fill="#60555A" fill-opacity=".502" points="141 32 147 36 140 18"/><polygon id="120" fill="#364254" fill-opacity=".502" points="63 170 96 150 97 133"/><polygon id="121" fill="#1F2025" fill-opacity=".502" points="120 66 126 110 146 114"/><polygon id="122" fill="#27281F" fill-opacity=".502" points="206 110 256 155 230 108"/><polygon id="123" fill="#A5B8CF" fill-opacity=".502" points="185 71 205 76 203 51"/><polygon id="124" fill="#101722" fill-opacity=".502" points="221 135 183 118 227 170"/><polygon id="125" fill="#000E2E" fill-opacity=".502" points="56 168 242 170 32 170"/><polygon id="126" fill="#A2B7D4" fill-opacity=".502" points="139 41 139 73 137 8"/><polygon id="127" fill="#D8CED5" fill-opacity=".502" points="25 86 48 112 38 109"/><polygon id="128" fill="#28231E" fill-opacity=".502" points="57 122 65 103 45 116"/><polygon id="129" fill="#90A9CF" fill-opacity=".502" points="81 82 104 25 80 15"/><polygon id="130" fill="#000" fill-opacity=".502" points="256 156 256 133 242 125"/><polygon id="131" fill="#1D201E" fill-opacity=".502" points="127 65 83 103 68 150"/><polygon id="132" fill="#2B2224" fill-opacity=".502" points="155 81 160 52 149 52"/><polygon id="133" fill="#C0B8C0" fill-opacity=".502" points="168 74 136 70 156 69"/><polygon id="134" fill="#030100" fill-opacity=".502" points="183 112 181 84 184 71"/><polygon id="135" fill="#9D7568" fill-opacity=".502" points="216 122 221 115 218 136"/><polygon id="136" fill="#D6D0B9" fill-opacity=".502" points="170 110 174 100 181 118"/><polygon id="137" fill="#4B3939" fill-opacity=".502" points="207 170 154 150 185 166"/><polygon id="138" fill="#150F18" fill-opacity=".502" points="143 162 177 127 163 169"/><polygon id="139" fill="#FFF6D4" fill-opacity=".502" points="62 98 66 53 65 100"/><polygon id="140" fill="#454626" fill-opacity=".502" points="91 102 47 99 51 101"/><polygon id="141" fill="#080604" fill-opacity=".502" points="51 140 53 170 39 170"/><polygon id="142" fill="#382A1C" fill-opacity=".502" points="11 148 5 157 2 122"/><polygon id="143" fill="#FFF" fill-opacity=".502" points="253 124 256 125 276 117"/><polygon id="144" fill="#ECDBC9" fill-opacity=".502" points="36 147 36 170 31 145"/><polygon id="145" fill="#FDF6D7" fill-opacity=".502" points="105 50 113 12 107 62"/><polygon id="146" fill="#A5673F" fill-opacity=".502" points="151 98 143 112 144 93"/><polygon id="147" fill="#7C94BC" fill-opacity=".502" points="142 11 125 0 141 43"/><polygon id="148" fill="#879EBF" fill-opacity=".502" points="150 54 166 37 147 32"/><polygon id="149" fill="#0C0F12" fill-opacity=".502" points="66 106 66 111 107 121"/><polygon id="150" fill="#373A48" fill-opacity=".502" points="129 170 147 170 133 131"/><polygon id="151" fill="#8199C0" fill-opacity=".502" points="125 0 0 19 0 69"/><polygon id="152" fill="#070B12" fill-opacity=".502" points="151 116 156 102 167 124"/><polygon id="153" fill="#B4B9BF" fill-opacity=".502" points="256 30 256 1 222 11"/><polygon id="154" fill="#423C3A" fill-opacity=".502" points="118 40 118 39 119 89"/><polygon id="155" fill="#94A0A7" fill-opacity=".502" points="238 119 240 107 233 102"/><polygon id="156" fill="#0D1016" fill-opacity=".502" points="244 146 256 168 182 170"/><polygon id="157" fill="#CED3D4" fill-opacity=".502" points="201 83 195 89 203 76"/><polygon id="158" fill="#8D8573" fill-opacity=".502" points="139 133 140 126 146 154"/><polygon id="159" fill="#CBD6E5" fill-opacity=".502" points="125 44 124 62 128 44"/><polygon id="160" fill="#6D4932" fill-opacity=".502" points="52 127 56 113 45 102"/><polygon id="161" fill="#96A3B5" fill-opacity=".502" points="256 24 256 96 200 97"/><polygon id="162" fill="#A9ADAA" fill-opacity=".502" points="89 164 92 158 108 157"/><polygon id="163" fill="#8F91BA" fill-opacity=".502" points="164 19 183 18 131 15"/><polygon id="164" fill="#9CB0CB" fill-opacity=".502" points="162 62 162 33 170 34"/><polygon id="165" fill="#686757" fill-opacity=".502" points="218 113 252 118 228 117"/><polygon id="166" fill="#1D2937" fill-opacity=".502" points="119 136 99 163 116 170"/><polygon id="167" fill="#D9DCEA" fill-opacity=".502" points="158 68 162 79 164 76"/><polygon id="168" fill="#585D62" fill-opacity=".502" points="156 127 153 125 157 157"/><polygon id="169" fill="#1E1A1C" fill-opacity=".502" points="119 82 98 66 107 65"/><polygon id="170" fill="#8A583E" fill-opacity=".502" points="135 63 130 57 126 95"/><polygon id="171" fill="#16181B" fill-opacity=".502" points="143 68 104 116 144 101"/><polygon id="172" fill="#161515" fill-opacity=".502" points="138 91 149 98 82 96"/><polygon id="173" fill="#111E3B" fill-opacity=".502" points="75 170 100 170 80 151"/><polygon id="174" fill="#97A9C5" fill-opacity=".502" points="173 50 174 19 196 20"/><polygon id="175" fill="#0C0500" fill-opacity=".502" points="37 115 34 131 42 125"/><polygon id="176" fill="#3F2525" fill-opacity=".502" points="158 81 151 63 149 67"/><polygon id="177" fill="#4D4E4B" fill-opacity=".502" points="90 111 93 88 109 69"/><polygon id="178" fill="#AB9077" fill-opacity=".502" points="48 141 39 145 40 132"/><polygon id="179" fill="#2B1808" fill-opacity=".502" points="142 29 141 54 145 34"/><polygon id="180" fill="#92592D" fill-opacity=".502" points="9 106 6 135 0 126"/><polygon id="181" fill="#151212" fill-opacity=".502" points="230 112 228 131 244 120"/><polygon id="182" fill="#978C7A" fill-opacity=".502" points="0 139 -15 145 17 141"/><polygon id="183" fill="#666449" fill-opacity=".502" points="239 97 265 97 226 105"/><polygon id="184" fill="#0C0B0E" fill-opacity=".502" points="110 135 111 72 91 125"/><polygon id="185" fill="#17171A" fill-opacity=".502" points="64 114 121 170 62 119"/><polygon id="186" fill="#444250" fill-opacity=".502" points="199 142 208 164 206 120"/><polygon id="187" fill="#CBD3DB" fill-opacity=".502" points="138 70 139 62 132 75"/><polygon id="188" fill="#2E2825" fill-opacity=".502" points="77 143 46 140 42 154"/><polygon id="189" fill="#1B1D27" fill-opacity=".502" points="169 50 167 64 159 67"/><polygon id="190" fill="#F6EBE6" fill-opacity=".502" points="17 91 45 93 50 95"/><polygon id="191" fill="#6C6B6F" fill-opacity=".502" points="127 151 125 170 121 155"/><polygon id="192" fill="#0F080D" fill-opacity=".502" points="153 144 150 170 142 149"/><polygon id="193" fill="#43433F" fill-opacity=".502" points="256 168 253 170 247 142"/><polygon id="194" fill="#BAB696" fill-opacity=".502" points="174 108 182 104 181 116"/><polygon id="195" fill="#0E1015" fill-opacity=".502" points="166 144 185 149 153 103"/><polygon id="196" fill="#67452E" fill-opacity=".502" points="220 146 230 139 246 144"/><polygon id="197" fill="#F8EBCD" fill-opacity=".502" points="52 105 55 102 63 102"/><polygon id="198" fill="#EEDECE" fill-opacity=".502" points="24 148 33 137 20 141"/><polygon id="199" fill="#94A0C0" fill-opacity=".502" points="210 25 223 33 142 23"/><polygon id="200" fill="#F6F2E4" fill-opacity=".502" points="172 27 147 33 143 26"/><polygon id="201" fill="#12171D" fill-opacity=".502" points="204 88 182 132 183 90"/><polygon id="202" fill="#A5B1BC" fill-opacity=".502" points="228 99 214 108 207 44"/><polygon id="203" fill="#A8B8CE" fill-opacity=".502" points="93 34 100 80 84 81"/><polygon id="204" fill="#E6E4D4" fill-opacity=".502" points="113 70 116 30 116 48"/><polygon id="205" fill="#BCB0A3" fill-opacity=".502" points="8 158 32 164 19 139"/><polygon id="206" fill="#CD9576" fill-opacity=".502" points="62 138 69 136 41 141"/><polygon id="207" fill="#1E1F1A" fill-opacity=".502" points="3 170 -7 132 8 157"/><polygon id="208" fill="#846941" fill-opacity=".502" points="186 70 195 51 169 58"/><polygon id="209" fill="#ABBACD" fill-opacity=".502" points="199 61 185 80 189 72"/><polygon id="210" fill="#6C5938" fill-opacity=".502" points="45 142 43 162 41 120"/><polygon id="211" fill="#C5C1C9" fill-opacity=".502" points="144 65 146 82 152 71"/><polygon id="212" fill="#6B5456" fill-opacity=".502" points="166 156 173 147 171 162"/><polygon id="213" fill="#F6EFD8" fill-opacity=".502" points="66 49 79 23 57 95"/><polygon id="214" fill="#424A35" fill-opacity=".502" points="89 121 78 111 87 101"/><polygon id="215" fill="#0C0F10" fill-opacity=".502" points="225 137 211 170 209 128"/><polygon id="216" fill="#78A1D7" fill-opacity=".502" points="129 113 151 114 148 124"/><polygon id="217" fill="#7B8172" fill-opacity=".502" points="240 111 213 120 240 113"/><polygon id="218" fill="#B69271" fill-opacity=".502" points="57 125 60 123 72 91"/><polygon id="219" fill="#101218" fill-opacity=".502" points="108 100 132 170 129 125"/><polygon id="220" fill="#7B94BF" fill-opacity=".502" points="107 32 115 0 41 15"/><polygon id="221" fill="#583A24" fill-opacity=".502" points="2 110 26 111 57 121"/><polygon id="222" fill="#242C03" fill-opacity=".502" points="253 118 256 103 240 104"/><polygon id="223" fill="#A55D32" fill-opacity=".502" points="30 138 16 130 31 131"/><polygon id="224" fill="#1F2223" fill-opacity=".502" points="13 146 0 147 0 170"/><polygon id="225" fill="#788FBC" fill-opacity=".502" points="172 9 80 0 193 0"/><polygon id="226" fill="#4F514D" fill-opacity=".502" points="91 135 92 123 103 139"/><polygon id="227" fill="#402A19" fill-opacity=".502" points="139 60 119 64 135 55"/><polygon id="228" fill="#142020" fill-opacity=".502" points="58 105 53 114 71 106"/><polygon id="229" fill="#6D4A3C" fill-opacity=".502" points="203 122 256 127 198 127"/><polygon id="230" fill="#909FB2" fill-opacity=".502" points="213 18 254 99 256 27"/><polygon id="231" fill="#8BA3C7" fill-opacity=".502" points="81 14 0 54 62 57"/><polygon id="232" fill="#8C8FA0" fill-opacity=".502" points="164 91 150 76 136 70"/><polygon id="233" fill="#0E1319" fill-opacity=".502" points="93 156 135 106 91 156"/><polygon id="234" fill="#0E151C" fill-opacity=".502" points="131 76 140 89 116 75"/><polygon id="235" fill="#1C1F29" fill-opacity=".502" points="174 130 162 102 150 115"/><polygon id="236" fill="#C37D57" fill-opacity=".502" points="62 143 59 139 71 137"/><polygon id="237" fill="#8F5E56" fill-opacity=".502" points="32 100 30 92 27 116"/><polygon id="238" fill="#6581AE" fill-opacity=".502" points="0 16 52 0 0 0"/><polygon id="239" fill="#192328" fill-opacity=".502" points="17 123 13 101 10 125"/><polygon id="240" fill="#4A5B62" fill-opacity=".502" points="108 156 112 143 93 170"/><polygon id="241" fill="#19181A" fill-opacity=".502" points="98 128 97 111 76 129"/><polygon id="242" fill="#A9BBD0" fill-opacity=".502" points="65 159 63 149 56 153"/><polygon id="243" fill="#0D121A" fill-opacity=".502" points="150 110 149 102 164 159"/><polygon id="244" fill="#23242A" fill-opacity=".502" points="200 94 199 134 181 118"/><polygon id="245" fill="#272117" fill-opacity=".502" points="195 75 189 87 200 81"/><polygon id="246" fill="#848D8D" fill-opacity=".502" points="196 83 198 91 189 86"/><polygon id="247" fill="#191518" fill-opacity=".502" points="82 111 63 104 88 127"/><polygon id="248" fill="#464148" fill-opacity=".502" points="155 76 165 85 165 91"/><polygon id="249" fill="#21231F" fill-opacity=".502" points="169 108 152 108 195 108"/><polygon id="250" fill="#7E8688" fill-opacity=".502" points="76 97 83 49 80 63"/><polygon id="251" fill="#99B5D7" fill-opacity=".502" points="131 120 138 131 132 128"/><polygon id="252" fill="#D6CBBE" fill-opacity=".502" points="37 158 12 158 37 153"/><polygon id="253" fill="#838A87" fill-opacity=".502" points="180 106 180 78 180 83"/><polygon id="254" fill="#101115" fill-opacity=".502" points="46 170 64 140 46 156"/><polygon id="255" fill="#0C172C" fill-opacity=".502" points="64 161 95 155 66 160"/><polygon id="256" fill="#D1CFD3" fill-opacity=".502" points="36 110 12 110 40 106"/><polygon id="257" fill="#DABEB5" fill-opacity=".502" points="32 94 56 105 29 93"/><polygon id="258" fill="#68666A" fill-opacity=".502" points="126 91 113 86 126 87"/><polygon id="259" fill="#2F4250" fill-opacity=".502" points="24 126 15 146 13 141"/><polygon id="260" fill="#A2ACB6" fill-opacity=".502" points="29 53 17 98 0 91"/><polygon id="261" fill="#2D2420" fill-opacity=".502" points="132 79 148 100 142 73"/><polygon id="262" fill="#AEC8E7" fill-opacity=".502" points="187 65 191 65 187 81"/><polygon id="263" fill="#B6BCC7" fill-opacity=".502" points="224 40 206 47 169 34"/><polygon id="264" fill="#6E5B53" fill-opacity=".502" points="196 163 197 170 201 170"/><polygon id="265" fill="#171115" fill-opacity=".502" points="155 147 137 153 172 163"/><polygon id="266" fill="#1A1C24" fill-opacity=".502" points="102 129 140 109 145 99"/><polygon id="267" fill="#ACB8BF" fill-opacity=".502" points="58 155 79 153 77 157"/><polygon id="268" fill="#14131C" fill-opacity=".502" points="146 141 150 170 154 115"/><polygon id="269" fill="#A2B5D1" fill-opacity=".502" points="122 51 140 54 126 29"/><polygon id="270" fill="#151416" fill-opacity=".502" points="107 156 98 85 93 106"/><polygon id="271" fill="#4F454B" fill-opacity=".502" points="181 163 182 159 184 130"/><polygon id="272" fill="#0B0D12" fill-opacity=".502" points="243 142 256 125 228 140"/><polygon id="273" fill="#F5EED6" fill-opacity=".502" points="71 77 70 42 79 27"/><polygon id="274" fill="#876946" fill-opacity=".502" points="196 50 177 57 186 45"/><polygon id="275" fill="#727A8D" fill-opacity=".502" points="76 164 69 163 67 165"/><polygon id="276" fill="#756A67" fill-opacity=".502" points="242 132 241 123 236 125"/><polygon id="277" fill="#5D6B77" fill-opacity=".502" points="245 84 240 88 250 90"/><polygon id="278" fill="#FBFCEB" fill-opacity=".502" points="147 8 143 7 143 25"/><polygon id="279" fill="#41362F" fill-opacity=".502" points="183 116 166 119 179 130"/><polygon id="280" fill="#0E0E0E" fill-opacity=".502" points="38 157 39 147 47 170"/><polygon id="281" fill="#A9714B" fill-opacity=".502" points="122 55 122 50 114 50"/><polygon id="282" fill="#FAF3C9" fill-opacity=".502" points="109 39 108 60 113 20"/><polygon id="283" fill="#C8C7D2" fill-opacity=".502" points="160 97 166 75 152 97"/><polygon id="284" fill="#241914" fill-opacity=".502" points="204 126 247 125 237 124"/><polygon id="285" fill="#A9B6C6" fill-opacity=".502" points="197 60 212 46 192 34"/><polygon id="286" fill="#453229" fill-opacity=".502" points="23 132 98 115 77 126"/><polygon id="287" fill="#211B14" fill-opacity=".502" points="26 119 1 101 11 109"/><polygon id="288" fill="#A2592D" fill-opacity=".502" points="60 160 52 161 58 170"/><polygon id="289" fill="#5B5662" fill-opacity=".502" points="114 128 112 144 112 113"/><polygon id="290" fill="#0F0F11" fill-opacity=".502" points="212 160 210 137 256 160"/><polygon id="291" fill="#A4C0E5" fill-opacity=".502" points="163 59 166 53 168 41"/><polygon id="292" fill="#F7F2D5" fill-opacity=".502" points="170 59 171 58 170 92"/><polygon id="293" fill="#5A7D99" fill-opacity=".502" points="156 59 162 59 161 68"/><polygon id="294" fill="#959267" fill-opacity=".502" points="109 49 115 20 113 57"/><polygon id="295" fill="#616D7A" fill-opacity=".502" points="32 127 9 132 10 124"/><polygon id="296" fill="#9BAECB" fill-opacity=".502" points="160 45 146 56 147 31"/><polygon id="297" fill="#ADBACC" fill-opacity=".502" points="92 87 82 86 75 100"/><polygon id="298" fill="#ADB6BD" fill-opacity=".502" points="220 107 211 85 201 105"/><polygon id="299" fill="#302E28" fill-opacity=".502" points="229 158 200 109 216 130"/><polygon id="300" fill="#623516" fill-opacity=".502" points="96 46 108 61 111 73"/><polygon id="301" fill="#72614D" fill-opacity=".502" points="212 68 187 52 194 58"/><polygon id="302" fill="#A2ADB7" fill-opacity=".502" points="60 65 17 82 55 98"/><polygon id="303" fill="#4B6781" fill-opacity=".502" points="211 128 229 126 225 131"/><polygon id="304" fill="#232830" fill-opacity=".502" points="240 138 207 109 236 143"/><polygon id="305" fill="#D0C4B6" fill-opacity=".502" points="34 161 27 170 32 133"/><polygon id="306" fill="#101112" fill-opacity=".502" points="103 148 101 134 122 125"/><polygon id="307" fill="#928C6B" fill-opacity=".502" points="233 103 223 91 234 112"/><polygon id="308" fill="#7A8FB0" fill-opacity=".502" points="180 69 180 92 178 72"/><polygon id="309" fill="#93A6BF" fill-opacity=".502" points="178 82 183 71 178 59"/><polygon id="310" fill="#886F65" fill-opacity=".502" points="126 32 116 42 116 39"/><polygon id="311" fill="#18161A" fill-opacity=".502" points="66 113 85 170 71 135"/><polygon id="312" fill="#2F353E" fill-opacity=".502" points="128 166 135 130 140 134"/><polygon id="313" fill="#94A4BB" fill-opacity=".502" points="256 45 209 77 208 36"/><polygon id="314" fill="#010102" fill-opacity=".502" points="146 154 145 135 149 124"/><polygon id="315" fill="#A8B4C4" fill-opacity=".502" points="204 27 216 46 195 62"/><polygon id="316" fill="#A6B1BC" fill-opacity=".502" points="201 94 241 64 202 109"/><polygon id="317" fill="#201F23" fill-opacity=".502" points="101 146 82 141 30 143"/><polygon id="318" fill="#24201F" fill-opacity=".502" points="149 99 127 88 136 72"/><polygon id="319" fill="#2F2118" fill-opacity=".502" points="15 104 0 101 0 112"/><polygon id="320" fill="#362F26" fill-opacity=".502" points="9 155 1 175 2 155"/><polygon id="321" fill="#0E172B" fill-opacity=".502" points="184 170 190 170 174 156"/><polygon id="322" fill="#C4CEDA" fill-opacity=".502" points="173 48 195 38 173 45"/><polygon id="323" fill="#5F3616" fill-opacity=".502" points="168 64 172 38 171 55"/><polygon id="324" fill="#F0E9D1" fill-opacity=".502" points="61 97 56 98 80 28"/><polygon id="325" fill="#0F1216" fill-opacity=".502" points="139 90 140 95 102 76"/><polygon id="326" fill="#BC805D" fill-opacity=".502" points="142 114 145 101 148 105"/><polygon id="327" fill="#AABACD" fill-opacity=".502" points="193 37 202 82 204 77"/><polygon id="328" fill="#151719" fill-opacity=".502" points="102 160 117 160 117 170"/><polygon id="329" fill="#9AA798" fill-opacity=".502" points="86 110 65 101 83 109"/><polygon id="330" fill="#9CC3F5" fill-opacity=".502" points="151 120 132 129 141 127"/><polygon id="331" fill="#1B1D23" fill-opacity=".502" points="199 89 185 95 180 120"/><polygon id="332" fill="#14151B" fill-opacity=".502" points="117 104 122 104 138 144"/><polygon id="333" fill="#3D3941" fill-opacity=".502" points="24 131 9 129 19 127"/><polygon id="334" fill="#A0B1C7" fill-opacity=".502" points="102 56 79 43 87 91"/><polygon id="335" fill="#0E0F11" fill-opacity=".502" points="141 57 141 43 142 65"/><polygon id="336" fill="#0D1B35" fill-opacity=".502" points="74 167 38 170 166 170"/><polygon id="337" fill="#B0BCD0" fill-opacity=".502" points="109 33 103 51 97 24"/><polygon id="338" fill="#89A0C4" fill-opacity=".502" points="120 35 136 0 142 37"/><polygon id="339" fill="#543824" fill-opacity=".502" points="0 106 0 114 20 99"/><polygon id="340" fill="#825A42" fill-opacity=".502" points="148 96 145 91 140 81"/><polygon id="341" fill="#4B87BF" fill-opacity=".502" points="25 120 35 121 29 131"/><polygon id="342" fill="#4B5259" fill-opacity=".502" points="154 122 154 158 156 120"/><polygon id="343" fill="#16171A" fill-opacity=".502" points="54 137 137 92 100 126"/><polygon id="344" fill="#3B4126" fill-opacity=".502" points="232 104 256 100 256 104"/><polygon id="345" fill="#1C1E22" fill-opacity=".502" points="131 89 143 113 121 104"/><polygon id="346" fill="#24292F" fill-opacity=".502" points="204 162 208 138 195 170"/><polygon id="347" fill="#9BAEC5" fill-opacity=".502" points="0 60 59 80 65 50"/><polygon id="348" fill="#A58D73" fill-opacity=".502" points="213 124 199 126 204 120"/><polygon id="349" fill="#DED0D1" fill-opacity=".502" points="28 88 16 98 17 95"/><polygon id="350" fill="#A56D4F" fill-opacity=".502" points="199 147 192 129 191 131"/><polygon id="351" fill="#292929" fill-opacity=".502" points="138 130 128 130 141 141"/><polygon id="352" fill="#F3DDD2" fill-opacity=".502" points="14 162 17 172 22 170"/><polygon id="353" fill="#C67B4E" fill-opacity=".502" points="128 57 135 72 128 55"/><polygon id="354" fill="#332217" fill-opacity=".502" points="201 142 180 140 182 129"/><polygon id="355" fill="#7F4623" fill-opacity=".502" points="197 146 196 145 194 165"/><polygon id="356" fill="#4E3716" fill-opacity=".502" points="207 129 218 126 208 119"/><polygon id="357" fill="#4E4F4D" fill-opacity=".502" points="95 104 90 89 96 86"/><polygon id="358" fill="#92A4C1" fill-opacity=".502" points="229 31 167 0 173 32"/><polygon id="359" fill="#8D6A5A" fill-opacity=".502" points="68 120 81 121 75 116"/><polygon id="360" fill="#10151C" fill-opacity=".502" points="172 146 167 118 151 131"/><polygon id="361" fill="#AEA6A6" fill-opacity=".502" points="252 123 269 140 256 122"/><polygon id="362" fill="#7A92BB" fill-opacity=".502" points="119 0 141 27 143 0"/><polygon id="363" fill="#C9B7AD" fill-opacity=".502" points="10 133 11 128 16 135"/><polygon id="364" fill="#424555" fill-opacity=".502" points="142 154 150 170 137 166"/><polygon id="365" fill="#BEC1CA" fill-opacity=".502" points="17 107 19 65 16 110"/><polygon id="366" fill="#E9E2E1" fill-opacity=".502" points="169 10 170 32 160 9"/><polygon id="367" fill="#A99574" fill-opacity=".502" points="38 135 47 113 40 129"/><polygon id="368" fill="#AC9A89" fill-opacity=".502" points="17 165 22 170 12 153"/><polygon id="369" fill="#98A7C0" fill-opacity=".502" points="179 30 165 24 256 2"/><polygon id="370" fill="#A5AEB8" fill-opacity=".502" points="219 92 223 107 235 68"/><polygon id="371" fill="#223241" fill-opacity=".502" points="35 121 38 142 31 130"/><polygon id="372" fill="#30241F" fill-opacity=".502" points="42 119 9 118 58 113"/><polygon id="373" fill="#9BA7B4" fill-opacity=".502" points="42 91 0 89 0 57"/><polygon id="374" fill="#4A3D39" fill-opacity=".502" points="166 94 149 63 166 91"/><polygon id="375" fill="#56683E" fill-opacity=".502" points="80 106 85 111 98 110"/><polygon id="376" fill="#181719" fill-opacity=".502" points="67 111 61 135 71 130"/><polygon id="377" fill="#100400" fill-opacity=".502" points="206 73 206 64 205 64"/><polygon id="378" fill="#1E1B1C" fill-opacity=".502" points="64 153 91 125 76 143"/><polygon id="379" fill="#04080F" fill-opacity=".502" points="208 86 206 81 198 87"/><polygon id="380" fill="#17181D" fill-opacity=".502" points="189 136 190 75 183 131"/><polygon id="381" fill="#313848" fill-opacity=".502" points="108 153 120 143 124 154"/><polygon id="382" fill="#7D828D" fill-opacity=".502" points="166 73 157 87 162 88"/><polygon id="383" fill="#676880" fill-opacity=".502" points="114 62 118 73 111 67"/><polygon id="384" fill="#AFAD8B" fill-opacity=".502" points="167 77 166 71 167 102"/><polygon id="385" fill="#A17F57" fill-opacity=".502" points="171 57 182 67 177 48"/><polygon id="386" fill="#E2DDC1" fill-opacity=".502" points="170 115 168 100 169 114"/><polygon id="387" fill="#0F1729" fill-opacity=".502" points="79 155 79 165 92 161"/><polygon id="388" fill="#95A7C3" fill-opacity=".502" points="162 34 144 40 166 54"/><polygon id="389" fill="#543F27" fill-opacity=".502" points="46 134 44 158 44 121"/><polygon id="390" fill="#90A0B1" fill-opacity=".502" points="248 98 240 47 256 98"/><polygon id="391" fill="#879BBA" fill-opacity=".502" points="151 34 162 34 151 43"/><polygon id="392" fill="#8C6D3E" fill-opacity=".502" points="182 69 195 59 192 49"/><polygon id="393" fill="#121115" fill-opacity=".502" points="200 154 203 166 197 128"/><polygon id="394" fill="#1B202E" fill-opacity=".502" points="168 160 191 160 155 165"/><polygon id="395" fill="#B9C1CD" fill-opacity=".502" points="97 39 106 56 105 38"/><polygon id="396" fill="#121212" fill-opacity=".502" points="0 170 2 170 0 135"/><polygon id="397" fill="#4F4C45" fill-opacity=".502" points="249 153 246 142 256 159"/><polygon id="398" fill="#171C26" fill-opacity=".502" points="168 108 170 153 161 155"/><polygon id="399" fill="#545D6F" fill-opacity=".502" points="66 163 74 158 73 166"/><polygon id="400" fill="#46453E" fill-opacity=".502" points="9 155 15 141 0 159"/><polygon id="401" fill="#9BA1C4" fill-opacity=".502" points="191 34 148 7 142 4"/><polygon id="402" fill="#04080C" fill-opacity=".502" points="2 155 2 144 8 150"/><polygon id="403" fill="#9CAEC9" fill-opacity=".502" points="120 45 136 25 139 55"/><polygon id="404" fill="#231C26" fill-opacity=".502" points="150 170 151 131 156 152"/><polygon id="405" fill="#1E1D1C" fill-opacity=".502" points="236 168 256 155 250 170"/><polygon id="406" fill="#A28A74" fill-opacity=".502" points="42 137 47 140 37 146"/><polygon id="407" fill="#111215" fill-opacity=".502" points="213 126 206 147 225 170"/><polygon id="408" fill="#B7774F" fill-opacity=".502" points="30 131 26 139 20 133"/><polygon id="409" fill="#0F1012" fill-opacity=".502" points="246 155 213 161 239 144"/><polygon id="410" fill="#0C1117" fill-opacity=".502" points="16 124 11 118 29 113"/><polygon id="411" fill="#434555" fill-opacity=".502" points="172 149 185 180 173 170"/><polygon id="412" fill="#101115" fill-opacity=".502" points="164 127 159 145 188 139"/><polygon id="413" fill="#201E21" fill-opacity=".502" points="66 151 67 151 94 120"/><polygon id="414" fill="#7F4E2E" fill-opacity=".502" points="242 142 235 146 225 147"/><polygon id="415" fill="#91684A" fill-opacity=".502" points="41 112 55 125 48 128"/><polygon id="416" fill="#E5E2CA" fill-opacity=".502" points="117 0 117 35 117 36"/><polygon id="417" fill="#B1BCCA" fill-opacity=".502" points="88 89 101 79 92 72"/><polygon id="418" fill="#DACBB8" fill-opacity=".502" points="32 140 21 139 37 152"/><polygon id="419" fill="#D1C6B8" fill-opacity=".502" points="20 138 20 155 14 151"/><polygon id="420" fill="#B9BCB6" fill-opacity=".502" points="235 109 241 109 231 106"/><polygon id="421" fill="#748EB9" fill-opacity=".502" points="0 28 140 0 0 9"/><polygon id="422" fill="#9696AC" fill-opacity=".502" points="162 80 164 91 158 70"/><polygon id="423" fill="#986650" fill-opacity=".502" points="55 105 44 102 43 107"/><polygon id="424" fill="#131215" fill-opacity=".502" points="129 55 87 129 114 86"/><polygon id="425" fill="#AEB2B4" fill-opacity=".502" points="80 108 81 108 81 87"/><polygon id="426" fill="#FFF" fill-opacity=".502" points="179 149 183 151 179 155"/><polygon id="427" fill="#331E10" fill-opacity=".502" points="7 141 0 123 0 133"/><polygon id="428" fill="#140F12" fill-opacity=".502" points="185 129 183 153 185 102"/><polygon id="429" fill="#16171A" fill-opacity=".502" points="85 115 72 130 93 149"/><polygon id="430" fill="#080B0C" fill-opacity=".502" points="147 154 140 150 131 153"/><polygon id="431" fill="#262930" fill-opacity=".502" points="202 109 198 91 187 105"/><polygon id="432" fill="#22252D" fill-opacity=".502" points="174 116 196 126 211 138"/><polygon id="433" fill="#9CA9BF" fill-opacity=".502" points="80 91 106 71 106 70"/><polygon id="434" fill="#12141A" fill-opacity=".502" points="58 137 50 135 68 122"/><polygon id="435" fill="#C7BEC2" fill-opacity=".502" points="47 96 28 93 43 105"/><polygon id="436" fill="#93A9CB" fill-opacity=".502" points="118 37 119 21 126 35"/><polygon id="437" fill="#0E141D" fill-opacity=".502" points="141 81 142 69 138 90"/><polygon id="438" fill="#36302F" fill-opacity=".502" points="24 132 12 122 26 130"/><polygon id="439" fill="#141613" fill-opacity=".502" points="235 130 227 107 234 143"/><polygon id="440" fill="#343941" fill-opacity=".502" points="131 170 131 140 138 131"/><polygon id="441" fill="#C6CBD1" fill-opacity=".502" points="201 55 186 39 187 44"/><polygon id="442" fill="#A4B2C4" fill-opacity=".502" points="99 69 88 37 87 96"/><polygon id="443" fill="#ADAB8F" fill-opacity=".502" points="78 50 74 71 70 96"/><polygon id="444" fill="#222735" fill-opacity=".502" points="103 82 107 65 100 65"/><polygon id="445" fill="#B47343" fill-opacity=".502" points="53 130 50 101 52 117"/><polygon id="446" fill="#84ABDB" fill-opacity=".502" points="152 122 139 126 146 109"/><polygon id="447" fill="#A6B5C7" fill-opacity=".502" points="78 76 104 62 88 66"/><polygon id="448" fill="#4F3D33" fill-opacity=".502" points="126 60 118 62 109 73"/><polygon id="449" fill="#12140F" fill-opacity=".502" points="78 102 106 108 93 107"/><polygon id="450" fill="#A8B2C4" fill-opacity=".502" points="50 162 65 151 61 151"/><polygon id="451" fill="#A8BFDD" fill-opacity=".502" points="146 117 130 115 139 120"/><polygon id="452" fill="#090B0E" fill-opacity=".502" points="242 122 256 135 256 163"/><polygon id="453" fill="#262F40" fill-opacity=".502" points="242 164 211 132 205 127"/><polygon id="454" fill="#606059" fill-opacity=".502" points="94 128 94 134 90 130"/><polygon id="455" fill="#644435" fill-opacity=".502" points="129 56 129 64 120 66"/><polygon id="456" fill="#969788" fill-opacity=".502" points="233 115 240 100 240 96"/><polygon id="457" fill="#7A503C" fill-opacity=".502" points="140 115 148 91 142 112"/><polygon id="458" fill="#101D39" fill-opacity=".502" points="144 170 157 164 176 170"/><polygon id="459" fill="#849BC2" fill-opacity=".502" points="112 13 37 23 107 28"/><polygon id="460" fill="#9BAECA" fill-opacity=".502" points="103 31 79 39 87 64"/><polygon id="461" fill="#050607" fill-opacity=".502" points="53 162 43 169 51 154"/><polygon id="462" fill="#96905C" fill-opacity=".502" points="87 100 86 93 78 97"/><polygon id="463" fill="#16171C" fill-opacity=".502" points="127 146 133 169 127 170"/><polygon id="464" fill="#723F1E" fill-opacity=".502" points="194 140 183 158 186 158"/><polygon id="465" fill="#A09FC3" fill-opacity=".502" points="196 31 151 21 147 23"/><polygon id="466" fill="#261F1D" fill-opacity=".502" points="184 89 184 61 190 141"/><polygon id="467" fill="#0F0F14" fill-opacity=".502" points="83 107 129 111 113 103"/><polygon id="468" fill="#FFF" fill-opacity=".502" points="124 54 124 61 125 57"/><polygon id="469" fill="#875B3C" fill-opacity=".502" points="11 135 5 133 12 127"/><polygon id="470" fill="#858991" fill-opacity=".502" points="71 118 66 117 76 115"/><polygon id="471" fill="#1B202A" fill-opacity=".502" points="121 170 100 161 122 161"/><polygon id="472" fill="#97A9C3" fill-opacity=".502" points="177 18 237 22 174 38"/><polygon id="473" fill="#221B1B" fill-opacity=".502" points="76 109 67 118 63 116"/><polygon id="474" fill="#8BA2C5" fill-opacity=".502" points="109 22 79 48 82 20"/><polygon id="475" fill="#D2D1BD" fill-opacity=".502" points="76 40 70 97 66 97"/><polygon id="476" fill="#785A47" fill-opacity=".502" points="216 137 228 144 233 147"/><polygon id="477" fill="#A9BAD1" fill-opacity=".502" points="146 78 151 49 147 38"/><polygon id="478" fill="#A2673B" fill-opacity=".502" points="144 28 145 62 144 40"/><polygon id="479" fill="#E8E2C7" fill-opacity=".502" points="71 76 78 43 57 94"/><polygon id="480" fill="#A59283" fill-opacity=".502" points="26 150 10 150 17 148"/><polygon id="481" fill="#090C11" fill-opacity=".502" points="131 86 123 65 121 74"/><polygon id="482" fill="#9FABB7" fill-opacity=".502" points="235 61 242 90 207 103"/><polygon id="483" fill="#41413F" fill-opacity=".502" points="244 166 248 170 239 170"/><polygon id="484" fill="#2E3442" fill-opacity=".502" points="196 128 184 118 188 129"/><polygon id="485" fill="#3F3330" fill-opacity=".502" points="186 145 179 119 181 146"/><polygon id="486" fill="#6D5136" fill-opacity=".502" points="0 118 12 112 14 101"/><polygon id="487" fill="#181B1F" fill-opacity=".502" points="134 81 128 117 114 120"/><polygon id="488" fill="#A19FA7" fill-opacity=".502" points="150 97 155 95 146 71"/><polygon id="489" fill="#B8B6C0" fill-opacity=".502" points="149 77 154 99 150 68"/><polygon id="490" fill="#869BBE" fill-opacity=".502" points="192 0 169 10 171 23"/><polygon id="491" fill="#2F2125" fill-opacity=".502" points="201 130 210 122 196 130"/><polygon id="492" fill="#A1AFC2" fill-opacity=".502" points="209 46 211 21 190 75"/><polygon id="493" fill="#7991BA" fill-opacity=".502" points="150 6 187 0 83 0"/><polygon id="494" fill="#9CAEC1" fill-opacity=".502" points="188 66 204 81 204 64"/><polygon id="495" fill="#0D0F14" fill-opacity=".502" points="154 107 165 146 163 102"/><polygon id="496" fill="#19120F" fill-opacity=".502" points="190 170 197 134 193 149"/><polygon id="497" fill="#242B3E" fill-opacity=".502" points="170 131 167 106 164 105"/><polygon id="498" fill="#2A2625" fill-opacity=".502" points="66 149 41 143 55 141"/><polygon id="499" fill="#72614B" fill-opacity=".502" points="183 57 190 52 182 69"/><polygon id="500" fill="#A4AFB5" fill-opacity=".502" points="0 89 19 98 4 92"/><polygon id="501" fill="#73717A" fill-opacity=".502" points="99 167 89 162 100 162"/><polygon id="502" fill="#AEB6C4" fill-opacity=".502" points="29 82 48 113 16 60"/><polygon id="503" fill="#0F1014" fill-opacity=".502" points="212 170 222 141 202 170"/><polygon id="504" fill="#AFB6B3" fill-opacity=".502" points="55 100 44 82 58 104"/><polygon id="505" fill="#9DA8B0" fill-opacity=".502" points="0 84 -1 101 27 80"/><polygon id="506" fill="#2C292A" fill-opacity=".502" points="98 145 45 143 41 147"/><polygon id="507" fill="#BAB697" fill-opacity=".502" points="165 73 168 64 170 110"/><polygon id="508" fill="#28303D" fill-opacity=".502" points="126 115 133 113 129 99"/><polygon id="509" fill="#6A5E53" fill-opacity=".502" points="10 146 10 150 5 143"/><polygon id="510" fill="#171619" fill-opacity=".502" points="186 109 191 76 182 168"/><polygon id="511" fill="#BA714B" fill-opacity=".502" points="77 122 71 113 80 120"/><polygon id="512" fill="#1F1811" fill-opacity=".502" points="127 54 144 62 135 59"/><polygon id="513" fill="#4B3527" fill-opacity=".502" points="3 110 0 130 0 129"/><polygon id="514" fill="#27314A" fill-opacity=".502" points="102 170 105 164 77 165"/><polygon id="515" fill="#4A5362" fill-opacity=".502" points="67 19 64 18 67 16"/><polygon id="516" fill="#3C2B1F" fill-opacity=".502" points="49 110 50 127 48 134"/><polygon id="517" fill="#222832" fill-opacity=".502" points="229 167 259 196 206 148"/><polygon id="518" fill="#0F1116" fill-opacity=".502" points="103 74 121 75 104 98"/><polygon id="519" fill="#574031" fill-opacity=".502" points="39 112 22 112 34 120"/><polygon id="520" fill="#A5746C" fill-opacity=".502" points="204 113 193 138 205 112"/><polygon id="521" fill="#8F9FB4" fill-opacity=".502" points="220 52 256 45 250 90"/><polygon id="522" fill="#3D3E46" fill-opacity=".502" points="206 162 197 129 208 153"/><polygon id="523" fill="#1C1E1F" fill-opacity=".502" points="242 122 256 122 232 116"/><polygon id="524" fill="#7F5843" fill-opacity=".502" points="184 163 188 162 194 168"/><polygon id="525" fill="#130E12" fill-opacity=".502" points="202 130 195 126 197 131"/><polygon id="526" fill="#A6B8D2" fill-opacity=".502" points="161 51 147 46 165 50"/><polygon id="527" fill="#0A1015" fill-opacity=".502" points="230 143 251 138 229 141"/><polygon id="528" fill="#BAB096" fill-opacity=".502" points="210 127 202 118 203 121"/><polygon id="529" fill="#766E47" fill-opacity=".502" points="226 96 236 100 228 105"/><polygon id="530" fill="#9C9B82" fill-opacity=".502" points="228 99 242 94 218 108"/><polygon id="531" fill="#0A121C" fill-opacity=".502" points="191 149 191 189 193 170"/><polygon id="532" fill="#2A2D26" fill-opacity=".502" points="215 118 205 116 218 109"/><polygon id="533" fill="#12100F" fill-opacity=".502" points="40 170 55 170 47 153"/><polygon id="534" fill="#A2B3C9" fill-opacity=".502" points="97 52 81 79 104 62"/><polygon id="535" fill="#151619" fill-opacity=".502" points="114 104 114 125 143 78"/><polygon id="536" fill="#8B7F63" fill-opacity=".502" points="39 165 39 170 30 180"/><polygon id="537" fill="#6B452A" fill-opacity=".502" points="53 129 46 137 44 129"/><polygon id="538" fill="#A0ACB9" fill-opacity=".502" points="226 62 238 98 204 92"/><polygon id="539" fill="#40480F" fill-opacity=".502" points="251 100 256 112 249 108"/><polygon id="540" fill="#4E504A" fill-opacity=".502" points="195 112 199 112 199 120"/><polygon id="541" fill="#838C96" fill-opacity=".502" points="188 88 187 84 190 84"/><polygon id="542" fill="#FAF7EA" fill-opacity=".502" points="168 34 143 32 169 29"/><polygon id="543" fill="#A38554" fill-opacity=".502" points="194 59 184 65 183 59"/><polygon id="544" fill="#92A6C5" fill-opacity=".502" points="141 44 125 28 141 25"/><polygon id="545" fill="#90A2BC" fill-opacity=".502" points="152 49 154 34 170 35"/><polygon id="546" fill="#DACCC0" fill-opacity=".502" points="14 170 31 164 24 188"/><polygon id="547" fill="#0B0A0F" fill-opacity=".502" points="101 145 110 114 108 148"/><polygon id="548" fill="#0E0E10" fill-opacity=".502" points="246 147 239 170 220 161"/><polygon id="549" fill="#051431" fill-opacity=".502" points="174 169 0 170 226 170"/><polygon id="550" fill="#B68B76" fill-opacity=".502" points="253 117 256 119 256 119"/><polygon id="551" fill="#BAC2B9" fill-opacity=".502" points="107 57 114 65 113 67"/><polygon id="552" fill="#231F20" fill-opacity=".502" points="185 159 208 123 204 130"/><polygon id="553" fill="#0F1A30" fill-opacity=".502" points="70 170 84 160 96 152"/><polygon id="554" fill="#29303B" fill-opacity=".502" points="200 160 201 155 217 164"/><polygon id="555" fill="#7C6442" fill-opacity=".502" points="41 160 42 127 42 156"/><polygon id="556" fill="#B6BFD0" fill-opacity=".502" points="182 155 181 158 177 155"/><polygon id="557" fill="#191918" fill-opacity=".502" points="3 145 0 157 9 147"/><polygon id="558" fill="#EBAB88" fill-opacity=".502" points="129 75 129 74 138 71"/><polygon id="559" fill="#E6E1CB" fill-opacity=".502" points="179 117 181 107 176 98"/><polygon id="560" fill="#08090E" fill-opacity=".502" points="256 145 233 134 250 132"/><polygon id="561" fill="#96A7BC" fill-opacity=".502" points="7 99 29 52 0 50"/><polygon id="562" fill="#94AACA" fill-opacity=".502" points="128 29 133 44 120 43"/><polygon id="563" fill="#A3ACB4" fill-opacity=".502" points="16 76 59 88 1 91"/><polygon id="564" fill="#878590" fill-opacity=".502" points="158 83 145 78 149 86"/><polygon id="565" fill="#191815" fill-opacity=".502" points="58 151 40 144 53 155"/><polygon id="566" fill="#161F28" fill-opacity=".502" points="62 120 76 123 74 120"/><polygon id="567" fill="#D1C6C7" fill-opacity=".502" points="16 110 40 99 19 110"/><polygon id="568" fill="#1E1E21" fill-opacity=".502" points="241 115 222 133 232 143"/><polygon id="569" fill="#212415" fill-opacity=".502" points="244 108 240 111 256 121"/><polygon id="570" fill="#4D3A2E" fill-opacity=".502" points="21 122 3 127 -4 130"/><polygon id="571" fill="#8D8279" fill-opacity=".502" points="16 170 10 170 13 165"/><polygon id="572" fill="#F3F5E7" fill-opacity=".502" points="141 19 144 21 162 21"/><polygon id="573" fill="#3C6CAD" fill-opacity=".502" points="23 120 33 122 23 124"/><polygon id="574" fill="#3E281B" fill-opacity=".502" points="185 155 192 134 189 130"/><polygon id="575" fill="#141518" fill-opacity=".502" points="65 114 71 105 59 132"/><polygon id="576" fill="#B7BEBF" fill-opacity=".502" points="219 107 209 104 212 107"/><polygon id="577" fill="#373D47" fill-opacity=".502" points="105 149 65 160 94 155"/><polygon id="578" fill="#302D2E" fill-opacity=".502" points="215 139 239 123 228 130"/></svg>