<svg xmlns="http://www.w3.org/2000/svg" width="256" height="170" baseProfile="tiny" version="1.2" viewBox="0 0 256 170"><rect id="0" width="256" height="170" x="0" y="0" fill="#5C5661" fill-opacity="1"/><polygon id="1" fill="#DBDDF2" fill-opacity=".502" points="143 170 248 126 0 141"/><polygon id="2" fill="#000" fill-opacity=".502" points="0 159 65 71 0 0"/><polygon id="3" fill="#000" fill-opacity=".502" points="170 0 170 144 219 9"/><polygon id="4" fill="#FFD1BB" fill-opacity=".502" points="203 39 241 25 207 123"/><polygon id="5" fill="#9D9BAE" fill-opacity=".502" points="98 0 11 170 105 170"/><polygon id="6" fill="#0C0500" fill-opacity=".502" points="8 151 47 0 0 0"/><polygon id="7" fill="#000" fill-opacity=".502" points="256 109 164 111 256 131"/><polygon id="8" fill="#000013" fill-opacity=".502" points="256 170 129 170 256 153"/><polygon id="9" fill="#FFD5CD" fill-opacity=".502" points="233 80 234 114 196 100"/><polygon id="10" fill="#9D9DB9" fill-opacity=".502" points="71 70 41 0 96 0"/><polygon id="11" fill="#000" fill-opacity=".502" points="171 8 256 7 172 59"/><polygon id="12" fill="#000004" fill-opacity=".502" points="145 0 127 0 128 115"/><polygon id="13" fill="#000" fill-opacity=".502" points="101 0 112 124 115 0"/><polygon id="14" fill="#01000D" fill-opacity=".502" points="202 0 160 99 202 118"/><polygon id="15" fill="#A3A4C5" fill-opacity=".502" points="138 81 153 0 169 75"/><polygon id="16" fill="#9D9BAE" fill-opacity=".502" points="125 170 256 149 172 125"/><polygon id="17" fill="#2D1C20" fill-opacity=".502" points="82 122 73 143 236 110"/><polygon id="18" fill="#FFD9CA" fill-opacity=".502" points="233 22 236 69 208 37"/><polygon id="19" fill="#FFB09C" fill-opacity=".502" points="224 32 203 88 209 32"/><polygon id="20" fill="#B8B8C6" fill-opacity=".502" points="46 140 62 170 110 144"/><polygon id="21" fill="#542B2F" fill-opacity=".502" points="256 89 198 75 256 44"/><polygon id="22" fill="#8887A1" fill-opacity=".502" points="166 0 168 95 139 0"/><polygon id="23" fill="#000039" fill-opacity=".502" points="256 170 256 149 150 170"/><polygon id="24" fill="#4B4143" fill-opacity=".502" points="42 134 62 54 0 143"/><polygon id="25" fill="#9191AC" fill-opacity=".502" points="45 51 48 16 103 61"/><polygon id="26" fill="#8C8DA3" fill-opacity=".502" points="51 143 13 161 12 134"/><polygon id="27" fill="#000B1A" fill-opacity=".502" points="129 125 140 33 141 125"/><polygon id="28" fill="#311E0D" fill-opacity=".502" points="32 54 46 170 22 102"/><polygon id="29" fill="#211D0C" fill-opacity=".502" points="43 70 0 0 44 0"/><polygon id="30" fill="#231C2A" fill-opacity=".502" points="256 38 256 0 183 8"/><polygon id="31" fill="#9F9CB6" fill-opacity=".502" points="125 0 124 124 115 32"/><polygon id="32" fill="#A7B2CD" fill-opacity=".502" points="181 76 185 100 191 79"/><polygon id="33" fill="#B5B6C6" fill-opacity=".502" points="84 135 226 126 91 159"/><polygon id="34" fill="#292C39" fill-opacity=".502" points="66 65 0 66 0 23"/><polygon id="35" fill="#FFE6DA" fill-opacity=".502" points="235 108 203 85 207 106"/><polygon id="36" fill="#54505D" fill-opacity=".502" points="116 125 210 119 78 143"/><polygon id="37" fill="#81798D" fill-opacity=".502" points="206 156 256 136 205 115"/><polygon id="38" fill="#878295" fill-opacity=".502" points="102 0 37 10 101 108"/><polygon id="39" fill="#202139" fill-opacity=".502" points="205 122 183 92 218 113"/><polygon id="40" fill="#030000" fill-opacity=".502" points="0 135 0 61 21 89"/><polygon id="41" fill="#8B8698" fill-opacity=".502" points="59 103 83 163 102 80"/><polygon id="42" fill="#4E4B5D" fill-opacity=".502" points="0 140 13 110 67 133"/><polygon id="43" fill="#180000" fill-opacity=".502" points="106 128 179 116 92 123"/><polygon id="44" fill="#7D2D21" fill-opacity=".502" points="205 81 222 54 238 66"/><polygon id="45" fill="#000" fill-opacity=".502" points="83 125 81 145 77 138"/><polygon id="46" fill="#8A88A5" fill-opacity=".502" points="140 98 173 104 143 117"/><polygon id="47" fill="#292237" fill-opacity=".502" points="256 135 256 71 229 119"/><polygon id="48" fill="#58515B" fill-opacity=".502" points="69 62 44 118 34 85"/><polygon id="49" fill="#504860" fill-opacity=".502" points="203 48 221 0 205 0"/><polygon id="50" fill="#433E4D" fill-opacity=".502" points="256 74 230 18 254 27"/><polygon id="51" fill="#FFC7C1" fill-opacity=".502" points="209 45 235 72 236 28"/><polygon id="52" fill="#050005" fill-opacity=".502" points="171 14 200 99 202 0"/><polygon id="53" fill="#813525" fill-opacity=".502" points="245 58 219 57 231 84"/><polygon id="54" fill="#020A1D" fill-opacity=".502" points="137 94 201 105 137 88"/><polygon id="55" fill="#000001" fill-opacity=".502" points="111 156 115 170 108 170"/><polygon id="56" fill="#873139" fill-opacity=".502" points="215 99 246 89 216 91"/><polygon id="57" fill="#58505C" fill-opacity=".502" points="83 0 83 82 76 0"/><polygon id="58" fill="#4F5165" fill-opacity=".502" points="246 0 256 95 236 107"/><polygon id="59" fill="#8785A0" fill-opacity=".502" points="165 2 141 11 141 55"/><polygon id="60" fill="#00003D" fill-opacity=".502" points="256 151 135 170 254 170"/><polygon id="61" fill="#E26C45" fill-opacity=".502" points="240 26 206 35 222 25"/><polygon id="62" fill="#AEAEBD" fill-opacity=".502" points="112 170 90 170 96 155"/><polygon id="63" fill="#7C7B96" fill-opacity=".502" points="0 164 0 134 6 138"/><polygon id="64" fill="#272332" fill-opacity=".502" points="158 82 176 127 235 120"/><polygon id="65" fill="#0A0707" fill-opacity=".502" points="242 30 236 0 229 16"/><polygon id="66" fill="#9596A8" fill-opacity=".502" points="15 145 39 131 37 170"/><polygon id="67" fill="#040000" fill-opacity=".502" points="11 12 44 0 0 0"/><polygon id="68" fill="#0E0C28" fill-opacity=".502" points="27 128 0 108 0 132"/><polygon id="69" fill="#1F2729" fill-opacity=".502" points="104 24 116 127 104 133"/><polygon id="70" fill="#0E0900" fill-opacity=".502" points="124 0 138 32 140 0"/><polygon id="71" fill="#040209" fill-opacity=".502" points="204 41 170 95 170 37"/><polygon id="72" fill="#FFE9DB" fill-opacity=".502" points="224 109 202 104 204 90"/></svg>