<?xml version="1.0" standalone="no"?>
<svg xmlns="http://www.w3.org/2000/svg" version="1.2" baseProfile="tiny" width="256" height="170" viewBox="0 0 256 170">
<rect x="0" y="0" width="256" height="170" id="0" fill="rgb(92,86,97)" fill-opacity="1" />
<polygon points="143,170 248,126 0,141" id="1" fill="rgb(219,221,242)" fill-opacity="0.501961" />
<polygon points="0,159 65,71 0,0" id="2" fill="rgb(0,0,0)" fill-opacity="0.501961" />
<polygon points="170,0 170,144 219,9" id="3" fill="rgb(0,0,0)" fill-opacity="0.501961" />
<polygon points="203,39 241,25 207,123" id="4" fill="rgb(255,209,187)" fill-opacity="0.501961" />
<polygon points="98,0 11,170 105,170" id="5" fill="rgb(157,155,174)" fill-opacity="0.501961" />
<polygon points="8,151 47,0 0,0" id="6" fill="rgb(12,5,0)" fill-opacity="0.501961" />
<polygon points="256,109 164,111 256,131" id="7" fill="rgb(0,0,0)" fill-opacity="0.501961" />
<polygon points="256,170 129,170 256,153" id="8" fill="rgb(0,0,19)" fill-opacity="0.501961" />
<polygon points="233,80 234,114 196,100" id="9" fill="rgb(255,213,205)" fill-opacity="0.501961" />
<polygon points="71,70 41,0 96,0" id="10" fill="rgb(157,157,185)" fill-opacity="0.501961" />
<polygon points="171,8 256,7 172,59" id="11" fill="rgb(0,0,0)" fill-opacity="0.501961" />
<polygon points="145,0 127,0 128,115" id="12" fill="rgb(0,0,4)" fill-opacity="0.501961" />
<polygon points="101,0 112,124 115,0" id="13" fill="rgb(0,0,0)" fill-opacity="0.501961" />
<polygon points="202,0 160,99 202,118" id="14" fill="rgb(1,0,13)" fill-opacity="0.501961" />
<polygon points="138,81 153,0 169,75" id="15" fill="rgb(163,164,197)" fill-opacity="0.501961" />
<polygon points="125,170 256,149 172,125" id="16" fill="rgb(157,155,174)" fill-opacity="0.501961" />
<polygon points="82,122 73,143 236,110" id="17" fill="rgb(45,28,32)" fill-opacity="0.501961" />
<polygon points="233,22 236,69 208,37" id="18" fill="rgb(255,217,202)" fill-opacity="0.501961" />
<polygon points="224,32 203,88 209,32" id="19" fill="rgb(255,176,156)" fill-opacity="0.501961" />
<polygon points="46,140 62,170 110,144" id="20" fill="rgb(184,184,198)" fill-opacity="0.501961" />
<polygon points="256,89 198,75 256,44" id="21" fill="rgb(84,43,47)" fill-opacity="0.501961" />
<polygon points="166,0 168,95 139,0" id="22" fill="rgb(136,135,161)" fill-opacity="0.501961" />
<polygon points="256,170 256,149 150,170" id="23" fill="rgb(0,0,57)" fill-opacity="0.501961" />
<polygon points="42,134 62,54 0,143" id="24" fill="rgb(75,65,67)" fill-opacity="0.501961" />
<polygon points="45,51 48,16 103,61" id="25" fill="rgb(145,145,172)" fill-opacity="0.501961" />
<polygon points="51,143 13,161 12,134" id="26" fill="rgb(140,141,163)" fill-opacity="0.501961" />
<polygon points="129,125 140,33 141,125" id="27" fill="rgb(0,11,26)" fill-opacity="0.501961" />
<polygon points="32,54 46,170 22,102" id="28" fill="rgb(49,30,13)" fill-opacity="0.501961" />
<polygon points="43,70 0,0 44,0" id="29" fill="rgb(33,29,12)" fill-opacity="0.501961" />
<polygon points="256,38 256,0 183,8" id="30" fill="rgb(35,28,42)" fill-opacity="0.501961" />
<polygon points="125,0 124,124 115,32" id="31" fill="rgb(159,156,182)" fill-opacity="0.501961" />
<polygon points="181,76 185,100 191,79" id="32" fill="rgb(167,178,205)" fill-opacity="0.501961" />
<polygon points="84,135 226,126 91,159" id="33" fill="rgb(181,182,198)" fill-opacity="0.501961" />
<polygon points="66,65 0,66 0,23" id="34" fill="rgb(41,44,57)" fill-opacity="0.501961" />
<polygon points="235,108 203,85 207,106" id="35" fill="rgb(255,230,218)" fill-opacity="0.501961" />
<polygon points="116,125 210,119 78,143" id="36" fill="rgb(84,80,93)" fill-opacity="0.501961" />
<polygon points="206,156 256,136 205,115" id="37" fill="rgb(129,121,141)" fill-opacity="0.501961" />
<polygon points="102,0 37,10 101,108" id="38" fill="rgb(135,130,149)" fill-opacity="0.501961" />
<polygon points="205,122 183,92 218,113" id="39" fill="rgb(32,33,57)" fill-opacity="0.501961" />
<polygon points="0,135 0,61 21,89" id="40" fill="rgb(3,0,0)" fill-opacity="0.501961" />
<polygon points="59,103 83,163 102,80" id="41" fill="rgb(139,134,152)" fill-opacity="0.501961" />
<polygon points="0,140 13,110 67,133" id="42" fill="rgb(78,75,93)" fill-opacity="0.501961" />
<polygon points="106,128 179,116 92,123" id="43" fill="rgb(24,0,0)" fill-opacity="0.501961" />
<polygon points="205,81 222,54 238,66" id="44" fill="rgb(125,45,33)" fill-opacity="0.501961" />
<polygon points="83,125 81,145 77,138" id="45" fill="rgb(0,0,0)" fill-opacity="0.501961" />
<polygon points="140,98 173,104 143,117" id="46" fill="rgb(138,136,165)" fill-opacity="0.501961" />
<polygon points="256,135 256,71 229,119" id="47" fill="rgb(41,34,55)" fill-opacity="0.501961" />
<polygon points="69,62 44,118 34,85" id="48" fill="rgb(88,81,91)" fill-opacity="0.501961" />
<polygon points="203,48 221,0 205,0" id="49" fill="rgb(80,72,96)" fill-opacity="0.501961" />
<polygon points="256,74 230,18 254,27" id="50" fill="rgb(67,62,77)" fill-opacity="0.501961" />
<polygon points="209,45 235,72 236,28" id="51" fill="rgb(255,199,193)" fill-opacity="0.501961" />
<polygon points="171,14 200,99 202,0" id="52" fill="rgb(5,0,5)" fill-opacity="0.501961" />
<polygon points="245,58 219,57 231,84" id="53" fill="rgb(129,53,37)" fill-opacity="0.501961" />
<polygon points="137,94 201,105 137,88" id="54" fill="rgb(2,10,29)" fill-opacity="0.501961" />
<polygon points="111,156 115,170 108,170" id="55" fill="rgb(0,0,1)" fill-opacity="0.501961" />
<polygon points="215,99 246,89 216,91" id="56" fill="rgb(135,49,57)" fill-opacity="0.501961" />
<polygon points="83,0 83,82 76,0" id="57" fill="rgb(88,80,92)" fill-opacity="0.501961" />
<polygon points="246,0 256,95 236,107" id="58" fill="rgb(79,81,101)" fill-opacity="0.501961" />
<polygon points="165,2 141,11 141,55" id="59" fill="rgb(135,133,160)" fill-opacity="0.501961" />
<polygon points="256,151 135,170 254,170" id="60" fill="rgb(0,0,61)" fill-opacity="0.501961" />
<polygon points="240,26 206,35 222,25" id="61" fill="rgb(226,108,69)" fill-opacity="0.501961" />
<polygon points="112,170 90,170 96,155" id="62" fill="rgb(174,174,189)" fill-opacity="0.501961" />
<polygon points="0,164 0,134 6,138" id="63" fill="rgb(124,123,150)" fill-opacity="0.501961" />
<polygon points="158,82 176,127 235,120" id="64" fill="rgb(39,35,50)" fill-opacity="0.501961" />
<polygon points="242,30 236,0 229,16" id="65" fill="rgb(10,7,7)" fill-opacity="0.501961" />
<polygon points="15,145 39,131 37,170" id="66" fill="rgb(149,150,168)" fill-opacity="0.501961" />
<polygon points="11,12 44,0 0,0" id="67" fill="rgb(4,0,0)" fill-opacity="0.501961" />
<polygon points="27,128 0,108 0,132" id="68" fill="rgb(14,12,40)" fill-opacity="0.501961" />
<polygon points="104,24 116,127 104,133" id="69" fill="rgb(31,39,41)" fill-opacity="0.501961" />
<polygon points="124,0 138,32 140,0" id="70" fill="rgb(14,9,0)" fill-opacity="0.501961" />
<polygon points="204,41 170,95 170,37" id="71" fill="rgb(4,2,9)" fill-opacity="0.501961" />
<polygon points="224,109 202,104 204,90" id="72" fill="rgb(255,233,219)" fill-opacity="0.501961" />
</svg>