<svg xmlns="http://www.w3.org/2000/svg" width="256" height="170" baseProfile="tiny" version="1.2" viewBox="0 0 256 170"><rect id="0" width="256" height="170" x="0" y="0" fill="#52504F" fill-opacity="1"/><line id="1" x1="0" x2="255" y1="0" y2="0" fill="none" stroke="#000" stroke-opacity=".502" stroke-width="1"/><line id="2" x1="0" x2="255" y1="9" y2="9" fill="none" stroke="#000" stroke-opacity=".502" stroke-width="1"/><line id="3" x1="255" x2="0" y1="15" y2="19" fill="none" stroke="#000" stroke-opacity=".502" stroke-width="1"/><line id="4" x1="255" x2="175" y1="108" y2="103" fill="none" stroke="#FFFFF8" stroke-opacity=".502" stroke-width="1"/><line id="5" x1="255" x2="4" y1="32" y2="32" fill="none" stroke="#000" stroke-opacity=".502" stroke-width="1"/><line id="6" x1="165" x2="29" y1="94" y2="108" fill="none" stroke="#FFF5FF" stroke-opacity=".502" stroke-width="1"/><line id="7" x1="255" x2="0" y1="22" y2="22" fill="none" stroke="#000" stroke-opacity=".502" stroke-width="1"/><line id="8" x1="38" x2="252" y1="29" y2="26" fill="none" stroke="#000" stroke-opacity=".502" stroke-width="1"/><line id="9" x1="177" x2="21" y1="100" y2="96" fill="none" stroke="#FFF2FF" stroke-opacity=".502" stroke-width="1"/><line id="10" x1="240" x2="0" y1="15" y2="16" fill="none" stroke="#000" stroke-opacity=".502" stroke-width="1"/><line id="11" x1="134" x2="253" y1="75" y2="103" fill="none" stroke="#FFFDF6" stroke-opacity=".502" stroke-width="1"/><line id="12" x1="138" x2="24" y1="96" y2="95" fill="none" stroke="#FFF2FE" stroke-opacity=".502" stroke-width="1"/><line id="13" x1="255" x2="0" y1="8" y2="8" fill="none" stroke="#000" stroke-opacity=".502" stroke-width="1"/><line id="14" x1="184" x2="5" y1="95" y2="100" fill="none" stroke="#F3E7F4" stroke-opacity=".502" stroke-width="1"/><line id="15" x1="0" x2="146" y1="30" y2="31" fill="none" stroke="#000" stroke-opacity=".502" stroke-width="1"/><line id="16" x1="255" x2="142" y1="101" y2="119" fill="none" stroke="#FFFFF1" stroke-opacity=".502" stroke-width="1"/><line id="17" x1="3" x2="225" y1="1" y2="1" fill="none" stroke="#000" stroke-opacity=".502" stroke-width="1"/><line id="18" x1="84" x2="241" y1="85" y2="86" fill="none" stroke="#F6E6EC" stroke-opacity=".502" stroke-width="1"/><line id="19" x1="57" x2="255" y1="11" y2="10" fill="none" stroke="#000" stroke-opacity=".502" stroke-width="1"/><line id="20" x1="240" x2="113" y1="104" y2="87" fill="none" stroke="#F2E6E2" stroke-opacity=".502" stroke-width="1"/><line id="21" x1="80" x2="255" y1="18" y2="17" fill="none" stroke="#000" stroke-opacity=".502" stroke-width="1"/><line id="22" x1="255" x2="109" y1="85" y2="83" fill="none" stroke="#F9ECF1" stroke-opacity=".502" stroke-width="1"/><line id="23" x1="208" x2="0" y1="23" y2="23" fill="none" stroke="#000" stroke-opacity=".502" stroke-width="1"/><line id="24" x1="255" x2="143" y1="93" y2="107" fill="none" stroke="#FFF5EA" stroke-opacity=".502" stroke-width="1"/><line id="25" x1="0" x2="101" y1="90" y2="77" fill="none" stroke="#E6DCE1" stroke-opacity=".502" stroke-width="1"/><line id="26" x1="140" x2="26" y1="81" y2="82" fill="none" stroke="#F0E2E2" stroke-opacity=".502" stroke-width="1"/><line id="27" x1="82" x2="255" y1="7" y2="7" fill="none" stroke="#000" stroke-opacity=".502" stroke-width="1"/><line id="28" x1="159" x2="255" y1="108" y2="105" fill="none" stroke="ivory" stroke-opacity=".502" stroke-width="1"/><line id="29" x1="132" x2="255" y1="47" y2="43" fill="none" stroke="#000" stroke-opacity=".502" stroke-width="1"/><line id="30" x1="183" x2="0" y1="35" y2="0" fill="none" stroke="#000" stroke-opacity=".502" stroke-width="1"/><line id="31" x1="179" x2="0" y1="26" y2="28" fill="none" stroke="#000" stroke-opacity=".502" stroke-width="1"/><line id="32" x1="117" x2="0" y1="94" y2="106" fill="none" stroke="#E7DFF2" stroke-opacity=".502" stroke-width="1"/><line id="33" x1="112" x2="255" y1="21" y2="21" fill="none" stroke="#000" stroke-opacity=".502" stroke-width="1"/><line id="34" x1="131" x2="255" y1="118" y2="100" fill="none" stroke="#F4F1D6" stroke-opacity=".502" stroke-width="1"/><line id="35" x1="200" x2="77" y1="157" y2="128" fill="none" stroke="#000" stroke-opacity=".502" stroke-width="1"/><line id="36" x1="211" x2="98" y1="169" y2="125" fill="none" stroke="#000" stroke-opacity=".502" stroke-width="1"/><line id="37" x1="244" x2="85" y1="33" y2="33" fill="none" stroke="#000" stroke-opacity=".502" stroke-width="1"/><line id="38" x1="83" x2="0" y1="101" y2="109" fill="none" stroke="#F5F0FC" stroke-opacity=".502" stroke-width="1"/><line id="39" x1="0" x2="180" y1="15" y2="14" fill="none" stroke="#000" stroke-opacity=".502" stroke-width="1"/><line id="40" x1="75" x2="195" y1="132" y2="143" fill="none" stroke="#000" stroke-opacity=".502" stroke-width="1"/><line id="41" x1="252" x2="137" y1="105" y2="87" fill="none" stroke="#FBE9E2" stroke-opacity=".502" stroke-width="1"/><line id="42" x1="78" x2="238" y1="86" y2="80" fill="none" stroke="#E9DCE0" stroke-opacity=".502" stroke-width="1"/><line id="43" x1="1" x2="255" y1="10" y2="11" fill="none" stroke="#000" stroke-opacity=".502" stroke-width="1"/><line id="44" x1="115" x2="255" y1="95" y2="97" fill="none" stroke="#F1E0E3" stroke-opacity=".502" stroke-width="1"/><line id="45" x1="77" x2="208" y1="121" y2="169" fill="none" stroke="#000" stroke-opacity=".502" stroke-width="1"/><line id="46" x1="0" x2="153" y1="24" y2="24" fill="none" stroke="#000" stroke-opacity=".502" stroke-width="1"/><line id="47" x1="105" x2="255" y1="30" y2="31" fill="none" stroke="#000" stroke-opacity=".502" stroke-width="1"/><line id="48" x1="55" x2="1" y1="109" y2="107" fill="none" stroke="#FFF" stroke-opacity=".502" stroke-width="1"/><line id="49" x1="142" x2="252" y1="109" y2="95" fill="none" stroke="#FFF2E5" stroke-opacity=".502" stroke-width="1"/><line id="50" x1="168" x2="0" y1="17" y2="12" fill="none" stroke="#000" stroke-opacity=".502" stroke-width="1"/><line id="51" x1="0" x2="175" y1="2" y2="2" fill="none" stroke="#000" stroke-opacity=".502" stroke-width="1"/><line id="52" x1="123" x2="21" y1="85" y2="76" fill="none" stroke="#E0D6D9" stroke-opacity=".502" stroke-width="1"/><line id="53" x1="34" x2="140" y1="106" y2="63" fill="none" stroke="#EDDFD6" stroke-opacity=".502" stroke-width="1"/><line id="54" x1="0" x2="143" y1="7" y2="6" fill="none" stroke="#000" stroke-opacity=".502" stroke-width="1"/><line id="55" x1="126" x2="213" y1="122" y2="112" fill="none" stroke="#E4E4D8" stroke-opacity=".502" stroke-width="1"/><line id="56" x1="255" x2="110" y1="5" y2="7" fill="none" stroke="#000" stroke-opacity=".502" stroke-width="1"/><line id="57" x1="130" x2="244" y1="98" y2="100" fill="none" stroke="#FAE7E9" stroke-opacity=".502" stroke-width="1"/><line id="58" x1="51" x2="167" y1="80" y2="108" fill="none" stroke="#F1E2DD" stroke-opacity=".502" stroke-width="1"/><line id="59" x1="72" x2="191" y1="135" y2="144" fill="none" stroke="#000" stroke-opacity=".502" stroke-width="1"/><line id="60" x1="101" x2="255" y1="19" y2="18" fill="none" stroke="#000" stroke-opacity=".502" stroke-width="1"/><line id="61" x1="255" x2="156" y1="28" y2="28" fill="none" stroke="#000" stroke-opacity=".502" stroke-width="1"/><line id="62" x1="107" x2="10" y1="86" y2="107" fill="none" stroke="#E7DEE4" stroke-opacity=".502" stroke-width="1"/><line id="63" x1="135" x2="0" y1="13" y2="14" fill="none" stroke="#000" stroke-opacity=".502" stroke-width="1"/><line id="64" x1="79" x2="2" y1="99" y2="101" fill="none" stroke="#F2E8F3" stroke-opacity=".502" stroke-width="1"/><line id="65" x1="30" x2="154" y1="99" y2="91" fill="none" stroke="#EADEE0" stroke-opacity=".502" stroke-width="1"/><line id="66" x1="141" x2="255" y1="100" y2="104" fill="none" stroke="#F4E2DD" stroke-opacity=".502" stroke-width="1"/></svg>