<?xml version="1.0" standalone="no"?>
<svg xmlns="http://www.w3.org/2000/svg" version="1.2" baseProfile="tiny" width="256" height="170" viewBox="0 0 256 170">
<rect x="0" y="0" width="256" height="170" id="0" fill="rgb(82,80,79)" fill-opacity="1" />
<line x1="0" y1="0" x2="255" y2="0" id="1" stroke="rgb(0,0,0)" stroke-width="1" fill="none" stroke-opacity="0.501961" />
<line x1="0" y1="9" x2="255" y2="9" id="2" stroke="rgb(0,0,0)" stroke-width="1" fill="none" stroke-opacity="0.501961" />
<line x1="255" y1="15" x2="0" y2="19" id="3" stroke="rgb(0,0,0)" stroke-width="1" fill="none" stroke-opacity="0.501961" />
<line x1="255" y1="108" x2="175" y2="103" id="4" stroke="rgb(255,255,248)" stroke-width="1" fill="none" stroke-opacity="0.501961" />
<line x1="255" y1="32" x2="4" y2="32" id="5" stroke="rgb(0,0,0)" stroke-width="1" fill="none" stroke-opacity="0.501961" />
<line x1="165" y1="94" x2="29" y2="108" id="6" stroke="rgb(255,245,255)" stroke-width="1" fill="none" stroke-opacity="0.501961" />
<line x1="255" y1="22" x2="0" y2="22" id="7" stroke="rgb(0,0,0)" stroke-width="1" fill="none" stroke-opacity="0.501961" />
<line x1="38" y1="29" x2="252" y2="26" id="8" stroke="rgb(0,0,0)" stroke-width="1" fill="none" stroke-opacity="0.501961" />
<line x1="177" y1="100" x2="21" y2="96" id="9" stroke="rgb(255,242,255)" stroke-width="1" fill="none" stroke-opacity="0.501961" />
<line x1="240" y1="15" x2="0" y2="16" id="10" stroke="rgb(0,0,0)" stroke-width="1" fill="none" stroke-opacity="0.501961" />
<line x1="134" y1="75" x2="253" y2="103" id="11" stroke="rgb(255,253,246)" stroke-width="1" fill="none" stroke-opacity="0.501961" />
<line x1="138" y1="96" x2="24" y2="95" id="12" stroke="rgb(255,242,254)" stroke-width="1" fill="none" stroke-opacity="0.501961" />
<line x1="255" y1="8" x2="0" y2="8" id="13" stroke="rgb(0,0,0)" stroke-width="1" fill="none" stroke-opacity="0.501961" />
<line x1="184" y1="95" x2="5" y2="100" id="14" stroke="rgb(243,231,244)" stroke-width="1" fill="none" stroke-opacity="0.501961" />
<line x1="0" y1="30" x2="146" y2="31" id="15" stroke="rgb(0,0,0)" stroke-width="1" fill="none" stroke-opacity="0.501961" />
<line x1="255" y1="101" x2="142" y2="119" id="16" stroke="rgb(255,255,241)" stroke-width="1" fill="none" stroke-opacity="0.501961" />
<line x1="3" y1="1" x2="225" y2="1" id="17" stroke="rgb(0,0,0)" stroke-width="1" fill="none" stroke-opacity="0.501961" />
<line x1="84" y1="85" x2="241" y2="86" id="18" stroke="rgb(246,230,236)" stroke-width="1" fill="none" stroke-opacity="0.501961" />
<line x1="57" y1="11" x2="255" y2="10" id="19" stroke="rgb(0,0,0)" stroke-width="1" fill="none" stroke-opacity="0.501961" />
<line x1="240" y1="104" x2="113" y2="87" id="20" stroke="rgb(242,230,226)" stroke-width="1" fill="none" stroke-opacity="0.501961" />
<line x1="80" y1="18" x2="255" y2="17" id="21" stroke="rgb(0,0,0)" stroke-width="1" fill="none" stroke-opacity="0.501961" />
<line x1="255" y1="85" x2="109" y2="83" id="22" stroke="rgb(249,236,241)" stroke-width="1" fill="none" stroke-opacity="0.501961" />
<line x1="208" y1="23" x2="0" y2="23" id="23" stroke="rgb(0,0,0)" stroke-width="1" fill="none" stroke-opacity="0.501961" />
<line x1="255" y1="93" x2="143" y2="107" id="24" stroke="rgb(255,245,234)" stroke-width="1" fill="none" stroke-opacity="0.501961" />
<line x1="0" y1="90" x2="101" y2="77" id="25" stroke="rgb(230,220,225)" stroke-width="1" fill="none" stroke-opacity="0.501961" />
<line x1="140" y1="81" x2="26" y2="82" id="26" stroke="rgb(240,226,226)" stroke-width="1" fill="none" stroke-opacity="0.501961" />
<line x1="82" y1="7" x2="255" y2="7" id="27" stroke="rgb(0,0,0)" stroke-width="1" fill="none" stroke-opacity="0.501961" />
<line x1="159" y1="108" x2="255" y2="105" id="28" stroke="rgb(255,255,240)" stroke-width="1" fill="none" stroke-opacity="0.501961" />
<line x1="132" y1="47" x2="255" y2="43" id="29" stroke="rgb(0,0,0)" stroke-width="1" fill="none" stroke-opacity="0.501961" />
<line x1="183" y1="35" x2="0" y2="0" id="30" stroke="rgb(0,0,0)" stroke-width="1" fill="none" stroke-opacity="0.501961" />
<line x1="179" y1="26" x2="0" y2="28" id="31" stroke="rgb(0,0,0)" stroke-width="1" fill="none" stroke-opacity="0.501961" />
<line x1="117" y1="94" x2="0" y2="106" id="32" stroke="rgb(231,223,242)" stroke-width="1" fill="none" stroke-opacity="0.501961" />
<line x1="112" y1="21" x2="255" y2="21" id="33" stroke="rgb(0,0,0)" stroke-width="1" fill="none" stroke-opacity="0.501961" />
<line x1="131" y1="118" x2="255" y2="100" id="34" stroke="rgb(244,241,214)" stroke-width="1" fill="none" stroke-opacity="0.501961" />
<line x1="200" y1="157" x2="77" y2="128" id="35" stroke="rgb(0,0,0)" stroke-width="1" fill="none" stroke-opacity="0.501961" />
<line x1="211" y1="169" x2="98" y2="125" id="36" stroke="rgb(0,0,0)" stroke-width="1" fill="none" stroke-opacity="0.501961" />
<line x1="244" y1="33" x2="85" y2="33" id="37" stroke="rgb(0,0,0)" stroke-width="1" fill="none" stroke-opacity="0.501961" />
<line x1="83" y1="101" x2="0" y2="109" id="38" stroke="rgb(245,240,252)" stroke-width="1" fill="none" stroke-opacity="0.501961" />
<line x1="0" y1="15" x2="180" y2="14" id="39" stroke="rgb(0,0,0)" stroke-width="1" fill="none" stroke-opacity="0.501961" />
<line x1="75" y1="132" x2="195" y2="143" id="40" stroke="rgb(0,0,0)" stroke-width="1" fill="none" stroke-opacity="0.501961" />
<line x1="252" y1="105" x2="137" y2="87" id="41" stroke="rgb(251,233,226)" stroke-width="1" fill="none" stroke-opacity="0.501961" />
<line x1="78" y1="86" x2="238" y2="80" id="42" stroke="rgb(233,220,224)" stroke-width="1" fill="none" stroke-opacity="0.501961" />
<line x1="1" y1="10" x2="255" y2="11" id="43" stroke="rgb(0,0,0)" stroke-width="1" fill="none" stroke-opacity="0.501961" />
<line x1="115" y1="95" x2="255" y2="97" id="44" stroke="rgb(241,224,227)" stroke-width="1" fill="none" stroke-opacity="0.501961" />
<line x1="77" y1="121" x2="208" y2="169" id="45" stroke="rgb(0,0,0)" stroke-width="1" fill="none" stroke-opacity="0.501961" />
<line x1="0" y1="24" x2="153" y2="24" id="46" stroke="rgb(0,0,0)" stroke-width="1" fill="none" stroke-opacity="0.501961" />
<line x1="105" y1="30" x2="255" y2="31" id="47" stroke="rgb(0,0,0)" stroke-width="1" fill="none" stroke-opacity="0.501961" />
<line x1="55" y1="109" x2="1" y2="107" id="48" stroke="rgb(255,255,255)" stroke-width="1" fill="none" stroke-opacity="0.501961" />
<line x1="142" y1="109" x2="252" y2="95" id="49" stroke="rgb(255,242,229)" stroke-width="1" fill="none" stroke-opacity="0.501961" />
<line x1="168" y1="17" x2="0" y2="12" id="50" stroke="rgb(0,0,0)" stroke-width="1" fill="none" stroke-opacity="0.501961" />
<line x1="0" y1="2" x2="175" y2="2" id="51" stroke="rgb(0,0,0)" stroke-width="1" fill="none" stroke-opacity="0.501961" />
<line x1="123" y1="85" x2="21" y2="76" id="52" stroke="rgb(224,214,217)" stroke-width="1" fill="none" stroke-opacity="0.501961" />
<line x1="34" y1="106" x2="140" y2="63" id="53" stroke="rgb(237,223,214)" stroke-width="1" fill="none" stroke-opacity="0.501961" />
<line x1="0" y1="7" x2="143" y2="6" id="54" stroke="rgb(0,0,0)" stroke-width="1" fill="none" stroke-opacity="0.501961" />
<line x1="126" y1="122" x2="213" y2="112" id="55" stroke="rgb(228,228,216)" stroke-width="1" fill="none" stroke-opacity="0.501961" />
<line x1="255" y1="5" x2="110" y2="7" id="56" stroke="rgb(0,0,0)" stroke-width="1" fill="none" stroke-opacity="0.501961" />
<line x1="130" y1="98" x2="244" y2="100" id="57" stroke="rgb(250,231,233)" stroke-width="1" fill="none" stroke-opacity="0.501961" />
<line x1="51" y1="80" x2="167" y2="108" id="58" stroke="rgb(241,226,221)" stroke-width="1" fill="none" stroke-opacity="0.501961" />
<line x1="72" y1="135" x2="191" y2="144" id="59" stroke="rgb(0,0,0)" stroke-width="1" fill="none" stroke-opacity="0.501961" />
<line x1="101" y1="19" x2="255" y2="18" id="60" stroke="rgb(0,0,0)" stroke-width="1" fill="none" stroke-opacity="0.501961" />
<line x1="255" y1="28" x2="156" y2="28" id="61" stroke="rgb(0,0,0)" stroke-width="1" fill="none" stroke-opacity="0.501961" />
<line x1="107" y1="86" x2="10" y2="107" id="62" stroke="rgb(231,222,228)" stroke-width="1" fill="none" stroke-opacity="0.501961" />
<line x1="135" y1="13" x2="0" y2="14" id="63" stroke="rgb(0,0,0)" stroke-width="1" fill="none" stroke-opacity="0.501961" />
<line x1="79" y1="99" x2="2" y2="101" id="64" stroke="rgb(242,232,243)" stroke-width="1" fill="none" stroke-opacity="0.501961" />
<line x1="30" y1="99" x2="154" y2="91" id="65" stroke="rgb(234,222,224)" stroke-width="1" fill="none" stroke-opacity="0.501961" />
<line x1="141" y1="100" x2="255" y2="104" id="66" stroke="rgb(244,226,221)" stroke-width="1" fill="none" stroke-opacity="0.501961" />
</svg>