<?xml version="1.0" standalone="no"?>
<svg xmlns="http://www.w3.org/2000/svg" version="1.2" baseProfile="tiny" width="113" height="256" viewBox="0 0 113 256">
<rect x="0" y="0" width="113" height="256" id="0" fill="rgb(243,236,234)" fill-opacity="1" />
<path d="M87 190 Q 69 234 86 130" id="1" stroke="rgb(250,81,50)" stroke-width="1" fill="none" stroke-opacity="0.501961" />
<path d="M86 177 Q 72 216 94 200" id="2" stroke="rgb(248,0,0)" stroke-width="1" fill="none" stroke-opacity="0.501961" />
<path d="M58 191 Q 87 170 94 211" id="3" stroke="rgb(250,2,0)" stroke-width="1" fill="none" stroke-opacity="0.501961" />
<path d="M88 128 Q 77 169 72 225" id="4" stroke="rgb(247,161,143)" stroke-width="1" fill="none" stroke-opacity="0.501961" />
<path d="M79 218 Q 61 111 89 212" id="5" stroke="rgb(246,46,5)" stroke-width="1" fill="none" stroke-opacity="0.501961" />
<path d="M74 215 Q 101 125 52 234" id="6" stroke="rgb(245,65,22)" stroke-width="1" fill="none" stroke-opacity="0.501961" />
<path d="M55 240 Q 89 101 63 211" id="7" stroke="rgb(245,142,112)" stroke-width="1" fill="none" stroke-opacity="0.501961" />
<path d="M82 218 Q 69 137 81 195" id="8" stroke="rgb(246,27,0)" stroke-width="1" fill="none" stroke-opacity="0.501961" />
<path d="M77 221 Q 99 162 82 207" id="9" stroke="rgb(249,16,0)" stroke-width="1" fill="none" stroke-opacity="0.501961" />
<path d="M51 201 Q 89 131 95 230" id="10" stroke="rgb(244,65,25)" stroke-width="1" fill="none" stroke-opacity="0.501961" />
<path d="M71 155 Q 86 253 75 189" id="11" stroke="rgb(242,61,23)" stroke-width="1" fill="none" stroke-opacity="0.501961" />
<path d="M91 213 Q 97 136 48 220" id="12" stroke="rgb(247,57,13)" stroke-width="1" fill="none" stroke-opacity="0.501961" />
<path d="M83 214 Q 89 165 88 208" id="13" stroke="rgb(247,51,7)" stroke-width="1" fill="none" stroke-opacity="0.501961" />
<path d="M89 203 Q 94 143 1 226" id="14" stroke="rgb(242,116,83)" stroke-width="1" fill="none" stroke-opacity="0.501961" />
<path d="M96 222 Q 75 158 88 193" id="15" stroke="rgb(246,68,32)" stroke-width="1" fill="none" stroke-opacity="0.501961" />
<path d="M84 174 Q 79 248 87 177" id="16" stroke="rgb(247,49,7)" stroke-width="1" fill="none" stroke-opacity="0.501961" />
<path d="M74 211 Q 69 101 74 214" id="17" stroke="rgb(249,129,104)" stroke-width="1" fill="none" stroke-opacity="0.501961" />
<path d="M72 224 Q 96 125 67 211" id="18" stroke="rgb(244,79,45)" stroke-width="1" fill="none" stroke-opacity="0.501961" />
<path d="M85 204 Q 82 150 90 212" id="19" stroke="rgb(246,64,29)" stroke-width="1" fill="none" stroke-opacity="0.501961" />
<path d="M55 223 Q 90 111 58 203" id="20" stroke="rgb(247,150,121)" stroke-width="1" fill="none" stroke-opacity="0.501961" />
<path d="M80 165 Q 100 51 80 166" id="21" stroke="rgb(224,255,255)" stroke-width="1" fill="none" stroke-opacity="0.501961" />
<path d="M100 199 Q 67 161 72 185" id="22" stroke="rgb(247,56,22)" stroke-width="1" fill="none" stroke-opacity="0.501961" />
<path d="M70 211 Q 79 124 100 231" id="23" stroke="rgb(249,99,68)" stroke-width="1" fill="none" stroke-opacity="0.501961" />
<path d="M75 165 Q 84 238 84 182" id="24" stroke="rgb(246,77,41)" stroke-width="1" fill="none" stroke-opacity="0.501961" />
<path d="M64 158 Q 109 172 10 210" id="25" stroke="rgb(243,137,107)" stroke-width="1" fill="none" stroke-opacity="0.501961" />
<path d="M60 181 Q 0 193 103 194" id="26" stroke="rgb(238,96,60)" stroke-width="1" fill="none" stroke-opacity="0.501961" />
<path d="M79 210 Q 94 140 94 224" id="27" stroke="rgb(247,90,58)" stroke-width="1" fill="none" stroke-opacity="0.501961" />
<path d="M55 228 Q 98 84 50 244" id="28" stroke="rgb(243,175,153)" stroke-width="1" fill="none" stroke-opacity="0.501961" />
<path d="M40 197 Q 68 171 73 210" id="29" stroke="rgb(253,89,45)" stroke-width="1" fill="none" stroke-opacity="0.501961" />
<path d="M71 155 Q 72 233 60 188" id="30" stroke="rgb(250,137,110)" stroke-width="1" fill="none" stroke-opacity="0.501961" />
<path d="M89 223 Q 24 142 72 206" id="31" stroke="rgb(252,120,85)" stroke-width="1" fill="none" stroke-opacity="0.501961" />
<path d="M45 241 Q 98 94 53 217" id="32" stroke="rgb(233,168,146)" stroke-width="1" fill="none" stroke-opacity="0.501961" />
<path d="M76 162 Q 60 205 106 43" id="33" stroke="rgb(234,255,255)" stroke-width="1" fill="none" stroke-opacity="0.501961" />
<path d="M61 237 Q 30 125 88 174" id="34" stroke="rgb(246,154,128)" stroke-width="1" fill="none" stroke-opacity="0.501961" />
<path d="M39 75 Q 2 75 18 78" id="35" stroke="rgb(18,25,27)" stroke-width="1" fill="none" stroke-opacity="0.501961" />
<path d="M68 187 Q 37 164 68 204" id="36" stroke="rgb(254,98,59)" stroke-width="1" fill="none" stroke-opacity="0.501961" />
<path d="M68 183 Q 47 192 58 219" id="37" stroke="rgb(252,125,82)" stroke-width="1" fill="none" stroke-opacity="0.501961" />
<path d="M83 185 Q 16 199 89 177" id="38" stroke="rgb(249,90,54)" stroke-width="1" fill="none" stroke-opacity="0.501961" />
<path d="M76 75 Q 12 85 36 40" id="39" stroke="rgb(132,142,144)" stroke-width="1" fill="none" stroke-opacity="0.501961" />
<path d="M86 208 Q 92 199 76 166" id="40" stroke="rgb(246,67,33)" stroke-width="1" fill="none" stroke-opacity="0.501961" />
<path d="M66 195 Q 87 216 98 192" id="41" stroke="rgb(248,100,66)" stroke-width="1" fill="none" stroke-opacity="0.501961" />
<path d="M73 176 Q 64 164 78 216" id="42" stroke="rgb(250,64,26)" stroke-width="1" fill="none" stroke-opacity="0.501961" />
<path d="M64 206 Q 91 223 91 184" id="43" stroke="rgb(250,89,52)" stroke-width="1" fill="none" stroke-opacity="0.501961" />
<path d="M66 75 Q 0 78 17 75" id="44" stroke="rgb(39,44,46)" stroke-width="1" fill="none" stroke-opacity="0.501961" />
<path d="M67 199 Q 49 162 53 193" id="45" stroke="rgb(251,113,77)" stroke-width="1" fill="none" stroke-opacity="0.501961" />
<path d="M73 149 Q 66 207 81 82" id="46" stroke="rgb(246,255,255)" stroke-width="1" fill="none" stroke-opacity="0.501961" />
<path d="M56 224 Q 60 153 37 196" id="47" stroke="rgb(245,149,114)" stroke-width="1" fill="none" stroke-opacity="0.501961" />
<path d="M23 209 Q 43 161 60 235" id="48" stroke="rgb(226,185,157)" stroke-width="1" fill="none" stroke-opacity="0.501961" />
<path d="M90 220 Q 26 187 33 188" id="49" stroke="rgb(227,158,132)" stroke-width="1" fill="none" stroke-opacity="0.501961" />
<path d="M65 195 Q 106 161 48 187" id="50" stroke="rgb(247,84,52)" stroke-width="1" fill="none" stroke-opacity="0.501961" />
<path d="M88 210 Q 86 199 30 190" id="51" stroke="rgb(246,118,84)" stroke-width="1" fill="none" stroke-opacity="0.501961" />
<path d="M92 209 Q 110 172 57 216" id="52" stroke="rgb(247,94,60)" stroke-width="1" fill="none" stroke-opacity="0.501961" />
<path d="M8 157 Q 78 158 52 235" id="53" stroke="rgb(213,183,171)" stroke-width="1" fill="none" stroke-opacity="0.501961" />
<path d="M92 176 Q 72 255 69 177" id="54" stroke="rgb(249,123,92)" stroke-width="1" fill="none" stroke-opacity="0.501961" />
<path d="M81 173 Q 8 213 94 180" id="55" stroke="rgb(250,118,87)" stroke-width="1" fill="none" stroke-opacity="0.501961" />
<path d="M96 171 Q 13 64 83 1" id="56" stroke="rgb(255,255,255)" stroke-width="1" fill="none" stroke-opacity="0.501961" />
<path d="M60 219 Q 72 191 39 186" id="57" stroke="rgb(240,164,133)" stroke-width="1" fill="none" stroke-opacity="0.501961" />
<path d="M77 167 Q 18 214 100 213" id="58" stroke="rgb(249,169,145)" stroke-width="1" fill="none" stroke-opacity="0.501961" />
<path d="M95 234 Q 110 51 102 175" id="59" stroke="rgb(255,255,255)" stroke-width="1" fill="none" stroke-opacity="0.501961" />
<path d="M60 208 Q 1 165 92 212" id="60" stroke="rgb(238,137,107)" stroke-width="1" fill="none" stroke-opacity="0.501961" />
<path d="M91 90 Q 3 79 40 36" id="61" stroke="rgb(255,255,255)" stroke-width="1" fill="none" stroke-opacity="0.501961" />
<path d="M5 159 Q 71 219 58 244" id="62" stroke="rgb(232,228,223)" stroke-width="1" fill="none" stroke-opacity="0.501961" />
<path d="M42 192 Q 84 163 94 212" id="63" stroke="rgb(245,103,71)" stroke-width="1" fill="none" stroke-opacity="0.501961" />
<path d="M98 219 Q 102 255 107 190" id="64" stroke="rgb(255,255,255)" stroke-width="1" fill="none" stroke-opacity="0.501961" />
<path d="M54 189 Q 100 171 95 213" id="65" stroke="rgb(247,93,63)" stroke-width="1" fill="none" stroke-opacity="0.501961" />
<path d="M61 159 Q 27 161 92 211" id="66" stroke="rgb(249,120,93)" stroke-width="1" fill="none" stroke-opacity="0.501961" />
<path d="M79 186 Q 87 173 25 195" id="67" stroke="rgb(240,122,92)" stroke-width="1" fill="none" stroke-opacity="0.501961" />
<path d="M9 220 Q 29 200 6 223" id="68" stroke="rgb(255,255,255)" stroke-width="1" fill="none" stroke-opacity="0.501961" />
<path d="M46 198 Q 61 164 78 221" id="69" stroke="rgb(251,139,107)" stroke-width="1" fill="none" stroke-opacity="0.501961" />
<path d="M58 216 Q 104 139 1 151" id="70" stroke="rgb(183,145,135)" stroke-width="1" fill="none" stroke-opacity="0.501961" />
<path d="M63 86 Q 30 232 98 63" id="71" stroke="rgb(255,255,255)" stroke-width="1" fill="none" stroke-opacity="0.501961" />
<path d="M68 172 Q 103 187 87 182" id="72" stroke="rgb(248,85,55)" stroke-width="1" fill="none" stroke-opacity="0.501961" />
<path d="M52 183 Q 56 126 51 205" id="73" stroke="rgb(247,164,144)" stroke-width="1" fill="none" stroke-opacity="0.501961" />
<path d="M72 87 Q 96 165 75 88" id="74" stroke="rgb(153,233,240)" stroke-width="1" fill="none" stroke-opacity="0.501961" />
<path d="M24 71 Q 71 88 104 63" id="75" stroke="rgb(151,157,159)" stroke-width="1" fill="none" stroke-opacity="0.501961" />
<path d="M86 170 Q 46 173 81 209" id="76" stroke="rgb(251,116,88)" stroke-width="1" fill="none" stroke-opacity="0.501961" />
<path d="M32 221 Q 94 251 103 188" id="77" stroke="rgb(192,227,233)" stroke-width="1" fill="none" stroke-opacity="0.501961" />
<path d="M87 209 Q 84 166 79 168" id="78" stroke="rgb(245,83,54)" stroke-width="1" fill="none" stroke-opacity="0.501961" />
<path d="M52 238 Q 73 242 2 139" id="79" stroke="rgb(222,240,240)" stroke-width="1" fill="none" stroke-opacity="0.501961" />
<path d="M25 160 Q 104 246 63 201" id="80" stroke="rgb(249,168,142)" stroke-width="1" fill="none" stroke-opacity="0.501961" />
<path d="M10 19 Q 44 141 57 47" id="81" stroke="rgb(255,255,255)" stroke-width="1" fill="none" stroke-opacity="0.501961" />
<path d="M88 70 Q 63 188 99 62" id="82" stroke="rgb(255,255,255)" stroke-width="1" fill="none" stroke-opacity="0.501961" />
<path d="M27 215 Q 105 249 93 212" id="83" stroke="rgb(168,211,215)" stroke-width="1" fill="none" stroke-opacity="0.501961" />
<path d="M12 77 Q 80 89 72 133" id="84" stroke="rgb(255,255,255)" stroke-width="1" fill="none" stroke-opacity="0.501961" />
<path d="M88 54 Q 72 198 92 29" id="85" stroke="rgb(255,255,255)" stroke-width="1" fill="none" stroke-opacity="0.501961" />
<path d="M95 156 Q 7 147 25 153" id="86" stroke="rgb(211,218,221)" stroke-width="1" fill="none" stroke-opacity="0.501961" />
<path d="M67 158 Q 34 178 53 166" id="87" stroke="rgb(252,106,70)" stroke-width="1" fill="none" stroke-opacity="0.501961" />
<path d="M46 142 Q 56 162 46 137" id="88" stroke="rgb(168,174,176)" stroke-width="1" fill="none" stroke-opacity="0.501961" />
<path d="M36 190 Q 96 226 39 185" id="89" stroke="rgb(245,159,128)" stroke-width="1" fill="none" stroke-opacity="0.501961" />
<path d="M94 214 Q 7 246 83 248" id="90" stroke="rgb(212,228,231)" stroke-width="1" fill="none" stroke-opacity="0.501961" />
<path d="M21 179 Q 94 166 70 166" id="91" stroke="rgb(225,240,246)" stroke-width="1" fill="none" stroke-opacity="0.501961" />
<path d="M39 124 Q 66 195 96 118" id="92" stroke="rgb(255,255,255)" stroke-width="1" fill="none" stroke-opacity="0.501961" />
<path d="M7 158 Q 82 146 8 222" id="93" stroke="rgb(203,189,180)" stroke-width="1" fill="none" stroke-opacity="0.501961" />
<path d="M78 216 Q 103 159 75 185" id="94" stroke="rgb(246,103,75)" stroke-width="1" fill="none" stroke-opacity="0.501961" />
<path d="M70 201 Q 33 139 51 193" id="95" stroke="rgb(251,171,150)" stroke-width="1" fill="none" stroke-opacity="0.501961" />
<path d="M109 252 Q 107 0 19 142" id="96" stroke="rgb(255,255,255)" stroke-width="1" fill="none" stroke-opacity="0.501961" />
<path d="M96 201 Q 98 193 74 183" id="97" stroke="rgb(246,86,57)" stroke-width="1" fill="none" stroke-opacity="0.501961" />
<path d="M53 255 Q 79 108 13 166" id="98" stroke="rgb(210,197,191)" stroke-width="1" fill="none" stroke-opacity="0.501961" />
</svg>