<svg xmlns="http://www.w3.org/2000/svg" width="113" height="256" baseProfile="tiny" version="1.2" viewBox="0 0 113 256"><rect id="0" width="113" height="256" x="0" y="0" fill="#F3ECEA" fill-opacity="1"/><path id="1" fill="none" stroke="#FA5132" stroke-opacity=".502" stroke-width="1" d="M87 190 Q 69 234 86 130"/><path id="2" fill="none" stroke="#F80000" stroke-opacity=".502" stroke-width="1" d="M86 177 Q 72 216 94 200"/><path id="3" fill="none" stroke="#FA0200" stroke-opacity=".502" stroke-width="1" d="M58 191 Q 87 170 94 211"/><path id="4" fill="none" stroke="#F7A18F" stroke-opacity=".502" stroke-width="1" d="M88 128 Q 77 169 72 225"/><path id="5" fill="none" stroke="#F62E05" stroke-opacity=".502" stroke-width="1" d="M79 218 Q 61 111 89 212"/><path id="6" fill="none" stroke="#F54116" stroke-opacity=".502" stroke-width="1" d="M74 215 Q 101 125 52 234"/><path id="7" fill="none" stroke="#F58E70" stroke-opacity=".502" stroke-width="1" d="M55 240 Q 89 101 63 211"/><path id="8" fill="none" stroke="#F61B00" stroke-opacity=".502" stroke-width="1" d="M82 218 Q 69 137 81 195"/><path id="9" fill="none" stroke="#F91000" stroke-opacity=".502" stroke-width="1" d="M77 221 Q 99 162 82 207"/><path id="10" fill="none" stroke="#F44119" stroke-opacity=".502" stroke-width="1" d="M51 201 Q 89 131 95 230"/><path id="11" fill="none" stroke="#F23D17" stroke-opacity=".502" stroke-width="1" d="M71 155 Q 86 253 75 189"/><path id="12" fill="none" stroke="#F7390D" stroke-opacity=".502" stroke-width="1" d="M91 213 Q 97 136 48 220"/><path id="13" fill="none" stroke="#F73307" stroke-opacity=".502" stroke-width="1" d="M83 214 Q 89 165 88 208"/><path id="14" fill="none" stroke="#F27453" stroke-opacity=".502" stroke-width="1" d="M89 203 Q 94 143 1 226"/><path id="15" fill="none" stroke="#F64420" stroke-opacity=".502" stroke-width="1" d="M96 222 Q 75 158 88 193"/><path id="16" fill="none" stroke="#F73107" stroke-opacity=".502" stroke-width="1" d="M84 174 Q 79 248 87 177"/><path id="17" fill="none" stroke="#F98168" stroke-opacity=".502" stroke-width="1" d="M74 211 Q 69 101 74 214"/><path id="18" fill="none" stroke="#F44F2D" stroke-opacity=".502" stroke-width="1" d="M72 224 Q 96 125 67 211"/><path id="19" fill="none" stroke="#F6401D" stroke-opacity=".502" stroke-width="1" d="M85 204 Q 82 150 90 212"/><path id="20" fill="none" stroke="#F79679" stroke-opacity=".502" stroke-width="1" d="M55 223 Q 90 111 58 203"/><path id="21" fill="none" stroke="#E0FFFF" stroke-opacity=".502" stroke-width="1" d="M80 165 Q 100 51 80 166"/><path id="22" fill="none" stroke="#F73816" stroke-opacity=".502" stroke-width="1" d="M100 199 Q 67 161 72 185"/><path id="23" fill="none" stroke="#F96344" stroke-opacity=".502" stroke-width="1" d="M70 211 Q 79 124 100 231"/><path id="24" fill="none" stroke="#F64D29" stroke-opacity=".502" stroke-width="1" d="M75 165 Q 84 238 84 182"/><path id="25" fill="none" stroke="#F3896B" stroke-opacity=".502" stroke-width="1" d="M64 158 Q 109 172 10 210"/><path id="26" fill="none" stroke="#EE603C" stroke-opacity=".502" stroke-width="1" d="M60 181 Q 0 193 103 194"/><path id="27" fill="none" stroke="#F75A3A" stroke-opacity=".502" stroke-width="1" d="M79 210 Q 94 140 94 224"/><path id="28" fill="none" stroke="#F3AF99" stroke-opacity=".502" stroke-width="1" d="M55 228 Q 98 84 50 244"/><path id="29" fill="none" stroke="#FD592D" stroke-opacity=".502" stroke-width="1" d="M40 197 Q 68 171 73 210"/><path id="30" fill="none" stroke="#FA896E" stroke-opacity=".502" stroke-width="1" d="M71 155 Q 72 233 60 188"/><path id="31" fill="none" stroke="#FC7855" stroke-opacity=".502" stroke-width="1" d="M89 223 Q 24 142 72 206"/><path id="32" fill="none" stroke="#E9A892" stroke-opacity=".502" stroke-width="1" d="M45 241 Q 98 94 53 217"/><path id="33" fill="none" stroke="#EAFFFF" stroke-opacity=".502" stroke-width="1" d="M76 162 Q 60 205 106 43"/><path id="34" fill="none" stroke="#F69A80" stroke-opacity=".502" stroke-width="1" d="M61 237 Q 30 125 88 174"/><path id="35" fill="none" stroke="#12191B" stroke-opacity=".502" stroke-width="1" d="M39 75 Q 2 75 18 78"/><path id="36" fill="none" stroke="#FE623B" stroke-opacity=".502" stroke-width="1" d="M68 187 Q 37 164 68 204"/><path id="37" fill="none" stroke="#FC7D52" stroke-opacity=".502" stroke-width="1" d="M68 183 Q 47 192 58 219"/><path id="38" fill="none" stroke="#F95A36" stroke-opacity=".502" stroke-width="1" d="M83 185 Q 16 199 89 177"/><path id="39" fill="none" stroke="#848E90" stroke-opacity=".502" stroke-width="1" d="M76 75 Q 12 85 36 40"/><path id="40" fill="none" stroke="#F64321" stroke-opacity=".502" stroke-width="1" d="M86 208 Q 92 199 76 166"/><path id="41" fill="none" stroke="#F86442" stroke-opacity=".502" stroke-width="1" d="M66 195 Q 87 216 98 192"/><path id="42" fill="none" stroke="#FA401A" stroke-opacity=".502" stroke-width="1" d="M73 176 Q 64 164 78 216"/><path id="43" fill="none" stroke="#FA5934" stroke-opacity=".502" stroke-width="1" d="M64 206 Q 91 223 91 184"/><path id="44" fill="none" stroke="#272C2E" stroke-opacity=".502" stroke-width="1" d="M66 75 Q 0 78 17 75"/><path id="45" fill="none" stroke="#FB714D" stroke-opacity=".502" stroke-width="1" d="M67 199 Q 49 162 53 193"/><path id="46" fill="none" stroke="#F6FFFF" stroke-opacity=".502" stroke-width="1" d="M73 149 Q 66 207 81 82"/><path id="47" fill="none" stroke="#F59572" stroke-opacity=".502" stroke-width="1" d="M56 224 Q 60 153 37 196"/><path id="48" fill="none" stroke="#E2B99D" stroke-opacity=".502" stroke-width="1" d="M23 209 Q 43 161 60 235"/><path id="49" fill="none" stroke="#E39E84" stroke-opacity=".502" stroke-width="1" d="M90 220 Q 26 187 33 188"/><path id="50" fill="none" stroke="#F75434" stroke-opacity=".502" stroke-width="1" d="M65 195 Q 106 161 48 187"/><path id="51" fill="none" stroke="#F67654" stroke-opacity=".502" stroke-width="1" d="M88 210 Q 86 199 30 190"/><path id="52" fill="none" stroke="#F75E3C" stroke-opacity=".502" stroke-width="1" d="M92 209 Q 110 172 57 216"/><path id="53" fill="none" stroke="#D5B7AB" stroke-opacity=".502" stroke-width="1" d="M8 157 Q 78 158 52 235"/><path id="54" fill="none" stroke="#F97B5C" stroke-opacity=".502" stroke-width="1" d="M92 176 Q 72 255 69 177"/><path id="55" fill="none" stroke="#FA7657" stroke-opacity=".502" stroke-width="1" d="M81 173 Q 8 213 94 180"/><path id="56" fill="none" stroke="#FFF" stroke-opacity=".502" stroke-width="1" d="M96 171 Q 13 64 83 1"/><path id="57" fill="none" stroke="#F0A485" stroke-opacity=".502" stroke-width="1" d="M60 219 Q 72 191 39 186"/><path id="58" fill="none" stroke="#F9A991" stroke-opacity=".502" stroke-width="1" d="M77 167 Q 18 214 100 213"/><path id="59" fill="none" stroke="#FFF" stroke-opacity=".502" stroke-width="1" d="M95 234 Q 110 51 102 175"/><path id="60" fill="none" stroke="#EE896B" stroke-opacity=".502" stroke-width="1" d="M60 208 Q 1 165 92 212"/><path id="61" fill="none" stroke="#FFF" stroke-opacity=".502" stroke-width="1" d="M91 90 Q 3 79 40 36"/><path id="62" fill="none" stroke="#E8E4DF" stroke-opacity=".502" stroke-width="1" d="M5 159 Q 71 219 58 244"/><path id="63" fill="none" stroke="#F56747" stroke-opacity=".502" stroke-width="1" d="M42 192 Q 84 163 94 212"/><path id="64" fill="none" stroke="#FFF" stroke-opacity=".502" stroke-width="1" d="M98 219 Q 102 255 107 190"/><path id="65" fill="none" stroke="#F75D3F" stroke-opacity=".502" stroke-width="1" d="M54 189 Q 100 171 95 213"/><path id="66" fill="none" stroke="#F9785D" stroke-opacity=".502" stroke-width="1" d="M61 159 Q 27 161 92 211"/><path id="67" fill="none" stroke="#F07A5C" stroke-opacity=".502" stroke-width="1" d="M79 186 Q 87 173 25 195"/><path id="68" fill="none" stroke="#FFF" stroke-opacity=".502" stroke-width="1" d="M9 220 Q 29 200 6 223"/><path id="69" fill="none" stroke="#FB8B6B" stroke-opacity=".502" stroke-width="1" d="M46 198 Q 61 164 78 221"/><path id="70" fill="none" stroke="#B79187" stroke-opacity=".502" stroke-width="1" d="M58 216 Q 104 139 1 151"/><path id="71" fill="none" stroke="#FFF" stroke-opacity=".502" stroke-width="1" d="M63 86 Q 30 232 98 63"/><path id="72" fill="none" stroke="#F85537" stroke-opacity=".502" stroke-width="1" d="M68 172 Q 103 187 87 182"/><path id="73" fill="none" stroke="#F7A490" stroke-opacity=".502" stroke-width="1" d="M52 183 Q 56 126 51 205"/><path id="74" fill="none" stroke="#99E9F0" stroke-opacity=".502" stroke-width="1" d="M72 87 Q 96 165 75 88"/><path id="75" fill="none" stroke="#979D9F" stroke-opacity=".502" stroke-width="1" d="M24 71 Q 71 88 104 63"/><path id="76" fill="none" stroke="#FB7458" stroke-opacity=".502" stroke-width="1" d="M86 170 Q 46 173 81 209"/><path id="77" fill="none" stroke="#C0E3E9" stroke-opacity=".502" stroke-width="1" d="M32 221 Q 94 251 103 188"/><path id="78" fill="none" stroke="#F55336" stroke-opacity=".502" stroke-width="1" d="M87 209 Q 84 166 79 168"/><path id="79" fill="none" stroke="#DEF0F0" stroke-opacity=".502" stroke-width="1" d="M52 238 Q 73 242 2 139"/><path id="80" fill="none" stroke="#F9A88E" stroke-opacity=".502" stroke-width="1" d="M25 160 Q 104 246 63 201"/><path id="81" fill="none" stroke="#FFF" stroke-opacity=".502" stroke-width="1" d="M10 19 Q 44 141 57 47"/><path id="82" fill="none" stroke="#FFF" stroke-opacity=".502" stroke-width="1" d="M88 70 Q 63 188 99 62"/><path id="83" fill="none" stroke="#A8D3D7" stroke-opacity=".502" stroke-width="1" d="M27 215 Q 105 249 93 212"/><path id="84" fill="none" stroke="#FFF" stroke-opacity=".502" stroke-width="1" d="M12 77 Q 80 89 72 133"/><path id="85" fill="none" stroke="#FFF" stroke-opacity=".502" stroke-width="1" d="M88 54 Q 72 198 92 29"/><path id="86" fill="none" stroke="#D3DADD" stroke-opacity=".502" stroke-width="1" d="M95 156 Q 7 147 25 153"/><path id="87" fill="none" stroke="#FC6A46" stroke-opacity=".502" stroke-width="1" d="M67 158 Q 34 178 53 166"/><path id="88" fill="none" stroke="#A8AEB0" stroke-opacity=".502" stroke-width="1" d="M46 142 Q 56 162 46 137"/><path id="89" fill="none" stroke="#F59F80" stroke-opacity=".502" stroke-width="1" d="M36 190 Q 96 226 39 185"/><path id="90" fill="none" stroke="#D4E4E7" stroke-opacity=".502" stroke-width="1" d="M94 214 Q 7 246 83 248"/><path id="91" fill="none" stroke="#E1F0F6" stroke-opacity=".502" stroke-width="1" d="M21 179 Q 94 166 70 166"/><path id="92" fill="none" stroke="#FFF" stroke-opacity=".502" stroke-width="1" d="M39 124 Q 66 195 96 118"/><path id="93" fill="none" stroke="#CBBDB4" stroke-opacity=".502" stroke-width="1" d="M7 158 Q 82 146 8 222"/><path id="94" fill="none" stroke="#F6674B" stroke-opacity=".502" stroke-width="1" d="M78 216 Q 103 159 75 185"/><path id="95" fill="none" stroke="#FBAB96" stroke-opacity=".502" stroke-width="1" d="M70 201 Q 33 139 51 193"/><path id="96" fill="none" stroke="#FFF" stroke-opacity=".502" stroke-width="1" d="M109 252 Q 107 0 19 142"/><path id="97" fill="none" stroke="#F65639" stroke-opacity=".502" stroke-width="1" d="M96 201 Q 98 193 74 183"/><path id="98" fill="none" stroke="#D2C5BF" stroke-opacity=".502" stroke-width="1" d="M53 255 Q 79 108 13 166"/></svg>