<svg xmlns="http://www.w3.org/2000/svg" width="256" height="170" baseProfile="tiny" version="1.2" viewBox="0 0 256 170"><rect id="0" width="256" height="170" x="0" y="0" fill="#655456" fill-opacity="1"/><polygon id="1" fill="#EA0000" fill-opacity=".502" points="142 0 169 169 85 0"/><polygon id="2" fill="#250000" fill-opacity=".502" points="134 26 97 170 164 170"/><polygon id="3" fill="#FFF" fill-opacity=".502" points="91 0 97 0 94 121"/><polygon id="4" fill="red" fill-opacity=".502" points="151 0 107 75 98 0"/><polygon id="5" fill="#E00000" fill-opacity=".502" points="172 170 146 51 146 167"/><polygon id="6" fill="#5D777D" fill-opacity=".502" points="56 0 0 170 99 170"/><polygon id="7" fill="#B8C16F" fill-opacity=".502" points="100 127 137 75 122 127"/><polygon id="8" fill="#00130B" fill-opacity=".502" points="143 170 102 85 98 170"/><polygon id="9" fill="#516A72" fill-opacity=".502" points="256 0 135 33 215 170"/><polygon id="10" fill="#FFF" fill-opacity=".502" points="91 148 101 152 95 170"/><polygon id="11" fill="#F5EBD7" fill-opacity=".502" points="74 130 135 125 118 119"/><polygon id="12" fill="#586C72" fill-opacity=".502" points="0 0 0 164 92 0"/><polygon id="13" fill="#111B0B" fill-opacity=".502" points="98 63 160 124 98 92"/><polygon id="14" fill="#E2FFFF" fill-opacity=".502" points="94 50 99 -6 87 0"/><polygon id="15" fill="#75837E" fill-opacity=".502" points="147 0 256 0 143 31"/><polygon id="16" fill="#240000" fill-opacity=".502" points="159 108 135 82 130 170"/><polygon id="17" fill="#FFF" fill-opacity=".502" points="91 95 105 100 93 112"/><polygon id="18" fill="#A80000" fill-opacity=".502" points="138 12 102 66 149 69"/><polygon id="19" fill="#FF9" fill-opacity=".502" points="127 94 129 84 143 71"/><polygon id="20" fill="#00130C" fill-opacity=".502" points="81 115 93 128 89 69"/><polygon id="21" fill="#5B6970" fill-opacity=".502" points="256 170 152 18 170 170"/><polygon id="22" fill="#F2FBF2" fill-opacity=".502" points="96 98 96 139 93 107"/><polygon id="23" fill="#BF0000" fill-opacity=".502" points="159 99 160 170 134 121"/><polygon id="24" fill="#061910" fill-opacity=".502" points="138 125 71 144 141 155"/><polygon id="25" fill="#5B636C" fill-opacity=".502" points="0 66 80 170 90 0"/><polygon id="26" fill="#0E2012" fill-opacity=".502" points="144 78 141 125 117 120"/><polygon id="27" fill="#000" fill-opacity=".502" points="101 119 88 107 128 122"/><polygon id="28" fill="#525C64" fill-opacity=".502" points="256 15 256 170 147 22"/></svg>