<svg xmlns="http://www.w3.org/2000/svg" width="256" height="202" baseProfile="tiny" version="1.2" viewBox="0 0 256 202"><rect id="0" width="256" height="202" x="0" y="0" fill="#242B30" fill-opacity="1"/><polygon id="1" fill="#C6F4FF" fill-opacity=".502" points="88 0 167 202 175 0"/><polygon id="2" fill="#9E97B0" fill-opacity=".502" points="99 23 158 184 89 177"/><polygon id="3" fill="#000" fill-opacity=".502" points="0 202 164 110 0 0"/><polygon id="4" fill="#000" fill-opacity=".502" points="253 0 154 202 256 202"/><polygon id="5" fill="azure" fill-opacity=".502" points="173 63 140 -6 96 47"/><polygon id="6" fill="#000" fill-opacity=".502" points="115 0 0 202 0 0"/><polygon id="7" fill="#BBADD1" fill-opacity=".502" points="89 172 117 181 97 31"/><polygon id="8" fill="#000" fill-opacity=".502" points="254 202 160 0 256 0"/><polygon id="9" fill="#000" fill-opacity=".502" points="139 78 118 49 117 202"/><polygon id="10" fill="#FFD7E1" fill-opacity=".502" points="175 171 128 146 127 183"/><polygon id="11" fill="#000" fill-opacity=".502" points="0 43 0 202 109 202"/><polygon id="12" fill="#78ADD8" fill-opacity=".502" points="98 8 94 119 125 49"/><polygon id="13" fill="#081B2E" fill-opacity=".502" points="113 101 93 142 188 152"/><polygon id="14" fill="#000" fill-opacity=".502" points="256 200 196 0 166 202"/><polygon id="15" fill="#708CB4" fill-opacity=".502" points="171 19 171 188 137 104"/><polygon id="16" fill="#E5FFFF" fill-opacity=".502" points="108 25 171 38 149 0"/><polygon id="17" fill="#000" fill-opacity=".502" points="0 66 133 0 0 0"/><polygon id="18" fill="#A5C8E4" fill-opacity=".502" points="111 21 136 80 172 67"/><polygon id="19" fill="#000300" fill-opacity=".502" points="105 98 128 59 123 166"/><polygon id="20" fill="#000" fill-opacity=".502" points="255 202 184 0 256 0"/><polygon id="21" fill="#CCB0B7" fill-opacity=".502" points="141 141 173 183 129 176"/><polygon id="22" fill="#3F5474" fill-opacity=".502" points="168 99 166 153 125 149"/><polygon id="23" fill="#7796AF" fill-opacity=".502" points="172 107 173 26 138 127"/><polygon id="24" fill="#FFFFAB" fill-opacity=".502" points="162 189 170 184 173 191"/><polygon id="25" fill="#E894AF" fill-opacity=".502" points="94 134 117 167 90 178"/><polygon id="26" fill="#4B6A6D" fill-opacity=".502" points="61 79 41 80 90 95"/><polygon id="27" fill="#070400" fill-opacity=".502" points="9 202 11 179 163 182"/><polygon id="28" fill="#002F30" fill-opacity=".502" points="68 137 90 168 95 20"/><polygon id="29" fill="#82ABC0" fill-opacity=".502" points="175 9 122 78 169 83"/><polygon id="30" fill="#FFF" fill-opacity=".502" points="136 0 142 43 151 0"/><polygon id="31" fill="#28549B" fill-opacity=".502" points="98 2 96 31 133 0"/><polygon id="32" fill="#001116" fill-opacity=".502" points="145 92 119 63 118 100"/><polygon id="33" fill="#000D11" fill-opacity=".502" points="220 114 176 51 172 186"/><polygon id="34" fill="#BE7A52" fill-opacity=".502" points="89 180 84 184 50 182"/><polygon id="35" fill="#81A5C6" fill-opacity=".502" points="125 9 97 23 103 98"/><polygon id="36" fill="#C1A0A8" fill-opacity=".502" points="146 181 165 156 171 183"/><polygon id="37" fill="#000" fill-opacity=".502" points="179 202 237 0 256 202"/><polygon id="38" fill="#351107" fill-opacity=".502" points="177 0 174 73 217 30"/><polygon id="39" fill="#000" fill-opacity=".502" points="98 0 0 0 0 144"/><polygon id="40" fill="#000D0A" fill-opacity=".502" points="138 102 105 117 125 163"/><polygon id="41" fill="#C9B9C5" fill-opacity=".502" points="128 157 123 179 151 181"/><polygon id="42" fill="#000300" fill-opacity=".502" points="172 198 225 196 86 184"/><polygon id="43" fill="#000809" fill-opacity=".502" points="81 95 76 192 0 67"/><polygon id="44" fill="#3E8A9F" fill-opacity=".502" points="174 56 156 0 174 8"/><polygon id="45" fill="#C6E4F0" fill-opacity=".502" points="158 40 113 59 153 0"/><polygon id="46" fill="#6B7F6C" fill-opacity=".502" points="48 25 59 57 65 69"/><polygon id="47" fill="#E0A4C5" fill-opacity=".502" points="92 173 115 141 115 164"/><polygon id="48" fill="#FDFABF" fill-opacity=".502" points="84 142 79 149 81 140"/><polygon id="49" fill="#000" fill-opacity=".502" points="125 200 39 227 0 180"/><polygon id="50" fill="#576277" fill-opacity=".502" points="132 103 142 150 164 160"/><polygon id="51" fill="#536078" fill-opacity=".502" points="108 100 91 132 102 149"/><polygon id="52" fill="#FFFFF9" fill-opacity=".502" points="108 190 107 191 93 194"/><polygon id="53" fill="#000404" fill-opacity=".502" points="162 182 236 177 132 190"/><polygon id="54" fill="#D6DA9B" fill-opacity=".502" points="125 196 127 201 141 192"/><polygon id="55" fill="#B091A4" fill-opacity=".502" points="171 161 165 180 138 146"/><polygon id="56" fill="#040000" fill-opacity=".502" points="256 0 256 80 170 0"/><polygon id="57" fill="#000" fill-opacity=".502" points="139 118 133 94 139 102"/><polygon id="58" fill="#00425F" fill-opacity=".502" points="177 13 153 0 173 0"/><polygon id="59" fill="#A4C3D3" fill-opacity=".502" points="159 7 128 78 157 71"/><polygon id="60" fill="#FDFFFF" fill-opacity=".502" points="126 9 147 0 152 26"/><polygon id="61" fill="#060D05" fill-opacity=".502" points="179 199 88 202 181 191"/><polygon id="62" fill="#002046" fill-opacity=".502" points="106 7 98 0 137 0"/><polygon id="63" fill="#7299AC" fill-opacity=".502" points="120 75 98 40 98 92"/><polygon id="64" fill="#DB94B2" fill-opacity=".502" points="115 164 118 177 92 175"/><polygon id="65" fill="#83A2B9" fill-opacity=".502" points="141 82 170 30 141 119"/><line id="66" x1="48" x2="88" y1="77" y2="92" fill="none" stroke="#89A4B5" stroke-opacity=".502" stroke-width="1"/><polygon id="67" fill="#00090D" fill-opacity=".502" points="117 59 120 89 128 56"/><polygon id="68" fill="#ACCEE0" fill-opacity=".502" points="118 15 114 67 135 33"/><polygon id="69" fill="#001B1E" fill-opacity=".502" points="171 167 191 106 175 43"/><polygon id="70" fill="#032629" fill-opacity=".502" points="66 119 97 20 90 117"/><polygon id="71" fill="#000805" fill-opacity=".502" points="89 166 61 202 86 145"/><polygon id="72" fill="#000D0E" fill-opacity=".502" points="39 80 97 2 83 81"/><line id="73" x1="150" x2="132" y1="152" y2="99" fill="none" stroke="#466275" stroke-opacity=".502" stroke-width="1"/><polygon id="74" fill="#041713" fill-opacity=".502" points="90 178 120 192 165 185"/><polygon id="75" fill="#001418" fill-opacity=".502" points="107 84 141 86 109 137"/><polygon id="76" fill="#3E5E81" fill-opacity=".502" points="171 121 142 120 164 158"/><polygon id="77" fill="#000" fill-opacity=".502" points="0 58 63 87 74 89"/><polygon id="78" fill="#000" fill-opacity=".502" points="1 15 0 202 48 202"/><polygon id="79" fill="#4C536D" fill-opacity=".502" points="114 141 96 101 99 150"/><polygon id="80" fill="#2C4537" fill-opacity=".502" points="83 94 85 32 79 148"/><polygon id="81" fill="#7F6974" fill-opacity=".502" points="131 137 128 153 156 153"/><polygon id="82" fill="#5C7E92" fill-opacity=".502" points="107 118 90 102 106 75"/><polygon id="83" fill="#AF8197" fill-opacity=".502" points="112 179 90 177 93 125"/><polygon id="84" fill="#69839D" fill-opacity=".502" points="146 97 173 68 171 132"/><polygon id="85" fill="#040801" fill-opacity=".502" points="120 202 114 190 122 155"/><polygon id="86" fill="#000405" fill-opacity=".502" points="126 120 114 109 104 129"/><polygon id="87" fill="#501408" fill-opacity=".502" points="208 19 208 83 210 15"/><polygon id="88" fill="#274D6E" fill-opacity=".502" points="146 129 144 150 161 150"/><polygon id="89" fill="#D0C0C9" fill-opacity=".502" points="154 173 128 166 148 154"/><polygon id="90" fill="#7F9BB2" fill-opacity=".502" points="173 71 139 102 173 48"/><line id="91" x1="170" x2="170" y1="144" y2="168" fill="none" stroke="#D3BED3" stroke-opacity=".502" stroke-width="1"/><polygon id="92" fill="#7DBDC8" fill-opacity=".502" points="163 15 151 0 167 44"/><line id="93" x1="171" x2="171" y1="180" y2="145" fill="none" stroke="#0A0F0C" stroke-opacity=".502" stroke-width="1"/><line id="94" x1="76" x2="70" y1="87" y2="85" fill="none" stroke="#FFF" stroke-opacity=".502" stroke-width="1"/><polygon id="95" fill="#000" fill-opacity=".502" points="254 13 184 41 256 68"/><polygon id="96" fill="#000502" fill-opacity=".502" points="119 177 126 161 114 108"/><polygon id="97" fill="#A2BED2" fill-opacity=".502" points="110 38 163 57 132 61"/><polygon id="98" fill="#8CCEDE" fill-opacity=".502" points="122 8 109 36 137 0"/><polygon id="99" fill="#87A1B8" fill-opacity=".502" points="161 91 127 74 157 58"/><polygon id="100" fill="#80864E" fill-opacity=".502" points="48 180 62 184 73 182"/><polygon id="101" fill="#38221B" fill-opacity=".502" points="175 72 191 59 175 0"/><polygon id="102" fill="#030E0E" fill-opacity=".502" points="34 83 77 202 75 88"/><polygon id="103" fill="#CCADBB" fill-opacity=".502" points="167 151 162 164 169 171"/><polygon id="104" fill="#142725" fill-opacity=".502" points="242 121 256 119 256 141"/><polygon id="105" fill="#1F0703" fill-opacity=".502" points="214 0 176 0 176 25"/><polygon id="106" fill="#031417" fill-opacity=".502" points="123 172 134 79 108 83"/><polygon id="107" fill="#EEFAFF" fill-opacity=".502" points="126 39 155 13 142 -6"/><polygon id="108" fill="#3B4C63" fill-opacity=".502" points="117 133 86 122 110 142"/><polygon id="109" fill="#486482" fill-opacity=".502" points="156 113 171 156 172 107"/><polygon id="110" fill="#E5BBBA" fill-opacity=".502" points="143 174 142 148 139 151"/><polygon id="111" fill="#83A5BD" fill-opacity=".502" points="111 81 103 48 119 77"/><polygon id="112" fill="#C1DFE9" fill-opacity=".502" points="113 30 151 25 150 52"/><line id="113" x1="173" x2="159" y1="189" y2="189" fill="none" stroke="#F3EC9D" stroke-opacity=".502" stroke-width="1"/><polygon id="114" fill="#010000" fill-opacity=".502" points="6 0 95 0 97 27"/><polygon id="115" fill="#062A2F" fill-opacity=".502" points="91 120 72 107 96 33"/><polygon id="116" fill="#002C32" fill-opacity=".502" points="85 41 96 51 87 116"/><polygon id="117" fill="#4B4339" fill-opacity=".502" points="122 179 107 192 126 186"/><polygon id="118" fill="#4C532D" fill-opacity=".502" points="79 202 74 202 95 192"/><polygon id="119" fill="#99A6B4" fill-opacity=".502" points="138 127 134 107 133 100"/><polygon id="120" fill="#050B09" fill-opacity=".502" points="111 123 124 161 135 120"/><polygon id="121" fill="#BBAAB2" fill-opacity=".502" points="165 182 135 154 121 178"/><polygon id="122" fill="#000705" fill-opacity=".502" points="108 181 116 180 122 202"/><line id="123" x1="113" x2="115" y1="109" y2="92" fill="none" stroke="#748191" stroke-opacity=".502" stroke-width="1"/><polygon id="124" fill="#061819" fill-opacity=".502" points="118 65 126 84 129 62"/><line id="125" x1="127" x2="155" y1="76" y2="85" fill="none" stroke="#8DAAC2" stroke-opacity=".502" stroke-width="1"/><polygon id="126" fill="#041110" fill-opacity=".502" points="88 171 63 113 42 182"/><line id="127" x1="136" x2="149" y1="201" y2="201" fill="none" stroke="#768E61" stroke-opacity=".502" stroke-width="1"/><line id="128" x1="96" x2="96" y1="70" y2="32" fill="none" stroke="#667E80" stroke-opacity=".502" stroke-width="1"/><polygon id="129" fill="#091412" fill-opacity=".502" points="83 56 63 154 79 133"/><polygon id="130" fill="#A1B7CB" fill-opacity=".502" points="132 106 133 106 134 101"/><line id="131" x1="51" x2="73" y1="79" y2="85" fill="none" stroke="#8DA9BB" stroke-opacity=".502" stroke-width="1"/><line id="132" x1="125" x2="109" y1="56" y2="115" fill="none" stroke="#000C0E" stroke-opacity=".502" stroke-width="1"/><polygon id="133" fill="#66879D" fill-opacity=".502" points="94 69 97 115 107 84"/></svg>