<?xml version="1.0" standalone="no"?>
<svg xmlns="http://www.w3.org/2000/svg" version="1.2" baseProfile="tiny" width="256" height="202" viewBox="0 0 256 202">
<rect x="0" y="0" width="256" height="202" id="0" fill="rgb(36,43,48)" fill-opacity="1" />
<polygon points="88,0 167,202 175,0" id="1" fill="rgb(198,244,255)" fill-opacity="0.501961" />
<polygon points="99,23 158,184 89,177" id="2" fill="rgb(158,151,176)" fill-opacity="0.501961" />
<polygon points="0,202 164,110 0,0" id="3" fill="rgb(0,0,0)" fill-opacity="0.501961" />
<polygon points="253,0 154,202 256,202" id="4" fill="rgb(0,0,0)" fill-opacity="0.501961" />
<polygon points="173,63 140,-6 96,47" id="5" fill="rgb(240,255,255)" fill-opacity="0.501961" />
<polygon points="115,0 0,202 0,0" id="6" fill="rgb(0,0,0)" fill-opacity="0.501961" />
<polygon points="89,172 117,181 97,31" id="7" fill="rgb(187,173,209)" fill-opacity="0.501961" />
<polygon points="254,202 160,0 256,0" id="8" fill="rgb(0,0,0)" fill-opacity="0.501961" />
<polygon points="139,78 118,49 117,202" id="9" fill="rgb(0,0,0)" fill-opacity="0.501961" />
<polygon points="175,171 128,146 127,183" id="10" fill="rgb(255,215,225)" fill-opacity="0.501961" />
<polygon points="0,43 0,202 109,202" id="11" fill="rgb(0,0,0)" fill-opacity="0.501961" />
<polygon points="98,8 94,119 125,49" id="12" fill="rgb(120,173,216)" fill-opacity="0.501961" />
<polygon points="113,101 93,142 188,152" id="13" fill="rgb(8,27,46)" fill-opacity="0.501961" />
<polygon points="256,200 196,0 166,202" id="14" fill="rgb(0,0,0)" fill-opacity="0.501961" />
<polygon points="171,19 171,188 137,104" id="15" fill="rgb(112,140,180)" fill-opacity="0.501961" />
<polygon points="108,25 171,38 149,0" id="16" fill="rgb(229,255,255)" fill-opacity="0.501961" />
<polygon points="0,66 133,0 0,0" id="17" fill="rgb(0,0,0)" fill-opacity="0.501961" />
<polygon points="111,21 136,80 172,67" id="18" fill="rgb(165,200,228)" fill-opacity="0.501961" />
<polygon points="105,98 128,59 123,166" id="19" fill="rgb(0,3,0)" fill-opacity="0.501961" />
<polygon points="255,202 184,0 256,0" id="20" fill="rgb(0,0,0)" fill-opacity="0.501961" />
<polygon points="141,141 173,183 129,176" id="21" fill="rgb(204,176,183)" fill-opacity="0.501961" />
<polygon points="168,99 166,153 125,149" id="22" fill="rgb(63,84,116)" fill-opacity="0.501961" />
<polygon points="172,107 173,26 138,127" id="23" fill="rgb(119,150,175)" fill-opacity="0.501961" />
<polygon points="162,189 170,184 173,191" id="24" fill="rgb(255,255,171)" fill-opacity="0.501961" />
<polygon points="94,134 117,167 90,178" id="25" fill="rgb(232,148,175)" fill-opacity="0.501961" />
<polygon points="61,79 41,80 90,95" id="26" fill="rgb(75,106,109)" fill-opacity="0.501961" />
<polygon points="9,202 11,179 163,182" id="27" fill="rgb(7,4,0)" fill-opacity="0.501961" />
<polygon points="68,137 90,168 95,20" id="28" fill="rgb(0,47,48)" fill-opacity="0.501961" />
<polygon points="175,9 122,78 169,83" id="29" fill="rgb(130,171,192)" fill-opacity="0.501961" />
<polygon points="136,0 142,43 151,0" id="30" fill="rgb(255,255,255)" fill-opacity="0.501961" />
<polygon points="98,2 96,31 133,0" id="31" fill="rgb(40,84,155)" fill-opacity="0.501961" />
<polygon points="145,92 119,63 118,100" id="32" fill="rgb(0,17,22)" fill-opacity="0.501961" />
<polygon points="220,114 176,51 172,186" id="33" fill="rgb(0,13,17)" fill-opacity="0.501961" />
<polygon points="89,180 84,184 50,182" id="34" fill="rgb(190,122,82)" fill-opacity="0.501961" />
<polygon points="125,9 97,23 103,98" id="35" fill="rgb(129,165,198)" fill-opacity="0.501961" />
<polygon points="146,181 165,156 171,183" id="36" fill="rgb(193,160,168)" fill-opacity="0.501961" />
<polygon points="179,202 237,0 256,202" id="37" fill="rgb(0,0,0)" fill-opacity="0.501961" />
<polygon points="177,0 174,73 217,30" id="38" fill="rgb(53,17,7)" fill-opacity="0.501961" />
<polygon points="98,0 0,0 0,144" id="39" fill="rgb(0,0,0)" fill-opacity="0.501961" />
<polygon points="138,102 105,117 125,163" id="40" fill="rgb(0,13,10)" fill-opacity="0.501961" />
<polygon points="128,157 123,179 151,181" id="41" fill="rgb(201,185,197)" fill-opacity="0.501961" />
<polygon points="172,198 225,196 86,184" id="42" fill="rgb(0,3,0)" fill-opacity="0.501961" />
<polygon points="81,95 76,192 0,67" id="43" fill="rgb(0,8,9)" fill-opacity="0.501961" />
<polygon points="174,56 156,0 174,8" id="44" fill="rgb(62,138,159)" fill-opacity="0.501961" />
<polygon points="158,40 113,59 153,0" id="45" fill="rgb(198,228,240)" fill-opacity="0.501961" />
<polygon points="48,25 59,57 65,69" id="46" fill="rgb(107,127,108)" fill-opacity="0.501961" />
<polygon points="92,173 115,141 115,164" id="47" fill="rgb(224,164,197)" fill-opacity="0.501961" />
<polygon points="84,142 79,149 81,140" id="48" fill="rgb(253,250,191)" fill-opacity="0.501961" />
<polygon points="125,200 39,227 0,180" id="49" fill="rgb(0,0,0)" fill-opacity="0.501961" />
<polygon points="132,103 142,150 164,160" id="50" fill="rgb(87,98,119)" fill-opacity="0.501961" />
<polygon points="108,100 91,132 102,149" id="51" fill="rgb(83,96,120)" fill-opacity="0.501961" />
<polygon points="108,190 107,191 93,194" id="52" fill="rgb(255,255,249)" fill-opacity="0.501961" />
<polygon points="162,182 236,177 132,190" id="53" fill="rgb(0,4,4)" fill-opacity="0.501961" />
<polygon points="125,196 127,201 141,192" id="54" fill="rgb(214,218,155)" fill-opacity="0.501961" />
<polygon points="171,161 165,180 138,146" id="55" fill="rgb(176,145,164)" fill-opacity="0.501961" />
<polygon points="256,0 256,80 170,0" id="56" fill="rgb(4,0,0)" fill-opacity="0.501961" />
<polygon points="139,118 133,94 139,102" id="57" fill="rgb(0,0,0)" fill-opacity="0.501961" />
<polygon points="177,13 153,0 173,0" id="58" fill="rgb(0,66,95)" fill-opacity="0.501961" />
<polygon points="159,7 128,78 157,71" id="59" fill="rgb(164,195,211)" fill-opacity="0.501961" />
<polygon points="126,9 147,0 152,26" id="60" fill="rgb(253,255,255)" fill-opacity="0.501961" />
<polygon points="179,199 88,202 181,191" id="61" fill="rgb(6,13,5)" fill-opacity="0.501961" />
<polygon points="106,7 98,0 137,0" id="62" fill="rgb(0,32,70)" fill-opacity="0.501961" />
<polygon points="120,75 98,40 98,92" id="63" fill="rgb(114,153,172)" fill-opacity="0.501961" />
<polygon points="115,164 118,177 92,175" id="64" fill="rgb(219,148,178)" fill-opacity="0.501961" />
<polygon points="141,82 170,30 141,119" id="65" fill="rgb(131,162,185)" fill-opacity="0.501961" />
<line x1="48" y1="77" x2="88" y2="92" id="66" stroke="rgb(137,164,181)" stroke-width="1" fill="none" stroke-opacity="0.501961" />
<polygon points="117,59 120,89 128,56" id="67" fill="rgb(0,9,13)" fill-opacity="0.501961" />
<polygon points="118,15 114,67 135,33" id="68" fill="rgb(172,206,224)" fill-opacity="0.501961" />
<polygon points="171,167 191,106 175,43" id="69" fill="rgb(0,27,30)" fill-opacity="0.501961" />
<polygon points="66,119 97,20 90,117" id="70" fill="rgb(3,38,41)" fill-opacity="0.501961" />
<polygon points="89,166 61,202 86,145" id="71" fill="rgb(0,8,5)" fill-opacity="0.501961" />
<polygon points="39,80 97,2 83,81" id="72" fill="rgb(0,13,14)" fill-opacity="0.501961" />
<line x1="150" y1="152" x2="132" y2="99" id="73" stroke="rgb(70,98,117)" stroke-width="1" fill="none" stroke-opacity="0.501961" />
<polygon points="90,178 120,192 165,185" id="74" fill="rgb(4,23,19)" fill-opacity="0.501961" />
<polygon points="107,84 141,86 109,137" id="75" fill="rgb(0,20,24)" fill-opacity="0.501961" />
<polygon points="171,121 142,120 164,158" id="76" fill="rgb(62,94,129)" fill-opacity="0.501961" />
<polygon points="0,58 63,87 74,89" id="77" fill="rgb(0,0,0)" fill-opacity="0.501961" />
<polygon points="1,15 0,202 48,202" id="78" fill="rgb(0,0,0)" fill-opacity="0.501961" />
<polygon points="114,141 96,101 99,150" id="79" fill="rgb(76,83,109)" fill-opacity="0.501961" />
<polygon points="83,94 85,32 79,148" id="80" fill="rgb(44,69,55)" fill-opacity="0.501961" />
<polygon points="131,137 128,153 156,153" id="81" fill="rgb(127,105,116)" fill-opacity="0.501961" />
<polygon points="107,118 90,102 106,75" id="82" fill="rgb(92,126,146)" fill-opacity="0.501961" />
<polygon points="112,179 90,177 93,125" id="83" fill="rgb(175,129,151)" fill-opacity="0.501961" />
<polygon points="146,97 173,68 171,132" id="84" fill="rgb(105,131,157)" fill-opacity="0.501961" />
<polygon points="120,202 114,190 122,155" id="85" fill="rgb(4,8,1)" fill-opacity="0.501961" />
<polygon points="126,120 114,109 104,129" id="86" fill="rgb(0,4,5)" fill-opacity="0.501961" />
<polygon points="208,19 208,83 210,15" id="87" fill="rgb(80,20,8)" fill-opacity="0.501961" />
<polygon points="146,129 144,150 161,150" id="88" fill="rgb(39,77,110)" fill-opacity="0.501961" />
<polygon points="154,173 128,166 148,154" id="89" fill="rgb(208,192,201)" fill-opacity="0.501961" />
<polygon points="173,71 139,102 173,48" id="90" fill="rgb(127,155,178)" fill-opacity="0.501961" />
<line x1="170" y1="144" x2="170" y2="168" id="91" stroke="rgb(211,190,211)" stroke-width="1" fill="none" stroke-opacity="0.501961" />
<polygon points="163,15 151,0 167,44" id="92" fill="rgb(125,189,200)" fill-opacity="0.501961" />
<line x1="171" y1="180" x2="171" y2="145" id="93" stroke="rgb(10,15,12)" stroke-width="1" fill="none" stroke-opacity="0.501961" />
<line x1="76" y1="87" x2="70" y2="85" id="94" stroke="rgb(255,255,255)" stroke-width="1" fill="none" stroke-opacity="0.501961" />
<polygon points="254,13 184,41 256,68" id="95" fill="rgb(0,0,0)" fill-opacity="0.501961" />
<polygon points="119,177 126,161 114,108" id="96" fill="rgb(0,5,2)" fill-opacity="0.501961" />
<polygon points="110,38 163,57 132,61" id="97" fill="rgb(162,190,210)" fill-opacity="0.501961" />
<polygon points="122,8 109,36 137,0" id="98" fill="rgb(140,206,222)" fill-opacity="0.501961" />
<polygon points="161,91 127,74 157,58" id="99" fill="rgb(135,161,184)" fill-opacity="0.501961" />
<polygon points="48,180 62,184 73,182" id="100" fill="rgb(128,134,78)" fill-opacity="0.501961" />
<polygon points="175,72 191,59 175,0" id="101" fill="rgb(56,34,27)" fill-opacity="0.501961" />
<polygon points="34,83 77,202 75,88" id="102" fill="rgb(3,14,14)" fill-opacity="0.501961" />
<polygon points="167,151 162,164 169,171" id="103" fill="rgb(204,173,187)" fill-opacity="0.501961" />
<polygon points="242,121 256,119 256,141" id="104" fill="rgb(20,39,37)" fill-opacity="0.501961" />
<polygon points="214,0 176,0 176,25" id="105" fill="rgb(31,7,3)" fill-opacity="0.501961" />
<polygon points="123,172 134,79 108,83" id="106" fill="rgb(3,20,23)" fill-opacity="0.501961" />
<polygon points="126,39 155,13 142,-6" id="107" fill="rgb(238,250,255)" fill-opacity="0.501961" />
<polygon points="117,133 86,122 110,142" id="108" fill="rgb(59,76,99)" fill-opacity="0.501961" />
<polygon points="156,113 171,156 172,107" id="109" fill="rgb(72,100,130)" fill-opacity="0.501961" />
<polygon points="143,174 142,148 139,151" id="110" fill="rgb(229,187,186)" fill-opacity="0.501961" />
<polygon points="111,81 103,48 119,77" id="111" fill="rgb(131,165,189)" fill-opacity="0.501961" />
<polygon points="113,30 151,25 150,52" id="112" fill="rgb(193,223,233)" fill-opacity="0.501961" />
<line x1="173" y1="189" x2="159" y2="189" id="113" stroke="rgb(243,236,157)" stroke-width="1" fill="none" stroke-opacity="0.501961" />
<polygon points="6,0 95,0 97,27" id="114" fill="rgb(1,0,0)" fill-opacity="0.501961" />
<polygon points="91,120 72,107 96,33" id="115" fill="rgb(6,42,47)" fill-opacity="0.501961" />
<polygon points="85,41 96,51 87,116" id="116" fill="rgb(0,44,50)" fill-opacity="0.501961" />
<polygon points="122,179 107,192 126,186" id="117" fill="rgb(75,67,57)" fill-opacity="0.501961" />
<polygon points="79,202 74,202 95,192" id="118" fill="rgb(76,83,45)" fill-opacity="0.501961" />
<polygon points="138,127 134,107 133,100" id="119" fill="rgb(153,166,180)" fill-opacity="0.501961" />
<polygon points="111,123 124,161 135,120" id="120" fill="rgb(5,11,9)" fill-opacity="0.501961" />
<polygon points="165,182 135,154 121,178" id="121" fill="rgb(187,170,178)" fill-opacity="0.501961" />
<polygon points="108,181 116,180 122,202" id="122" fill="rgb(0,7,5)" fill-opacity="0.501961" />
<line x1="113" y1="109" x2="115" y2="92" id="123" stroke="rgb(116,129,145)" stroke-width="1" fill="none" stroke-opacity="0.501961" />
<polygon points="118,65 126,84 129,62" id="124" fill="rgb(6,24,25)" fill-opacity="0.501961" />
<line x1="127" y1="76" x2="155" y2="85" id="125" stroke="rgb(141,170,194)" stroke-width="1" fill="none" stroke-opacity="0.501961" />
<polygon points="88,171 63,113 42,182" id="126" fill="rgb(4,17,16)" fill-opacity="0.501961" />
<line x1="136" y1="201" x2="149" y2="201" id="127" stroke="rgb(118,142,97)" stroke-width="1" fill="none" stroke-opacity="0.501961" />
<line x1="96" y1="70" x2="96" y2="32" id="128" stroke="rgb(102,126,128)" stroke-width="1" fill="none" stroke-opacity="0.501961" />
<polygon points="83,56 63,154 79,133" id="129" fill="rgb(9,20,18)" fill-opacity="0.501961" />
<polygon points="132,106 133,106 134,101" id="130" fill="rgb(161,183,203)" fill-opacity="0.501961" />
<line x1="51" y1="79" x2="73" y2="85" id="131" stroke="rgb(141,169,187)" stroke-width="1" fill="none" stroke-opacity="0.501961" />
<line x1="125" y1="56" x2="109" y2="115" id="132" stroke="rgb(0,12,14)" stroke-width="1" fill="none" stroke-opacity="0.501961" />
<polygon points="94,69 97,115 107,84" id="133" fill="rgb(102,135,157)" fill-opacity="0.501961" />
</svg>