<?xml version="1.0" standalone="no"?>
<svg xmlns="http://www.w3.org/2000/svg" version="1.2" baseProfile="tiny" width="256" height="165" viewBox="0 0 256 165">
<rect x="0" y="0" width="256" height="165" id="0" fill="rgb(42,46,55)" fill-opacity="1" />
<g transform="translate(104 21) rotate(180) scale(255 28)"><ellipse cx="0" cy="0" rx="1" ry="1" id="1" fill="rgb(184,203,235)" fill-opacity="0.501961" /></g>
<g transform="translate(114 134) rotate(261) scale(89 159)"><ellipse cx="0" cy="0" rx="1" ry="1" id="2" fill="rgb(0,0,0)" fill-opacity="0.501961" /></g>
<g transform="translate(13 13) rotate(294) scale(30 30)"><ellipse cx="0" cy="0" rx="1" ry="1" id="3" fill="rgb(255,255,255)" fill-opacity="0.501961" /></g>
<g transform="translate(57 120) rotate(223) scale(59 57)"><ellipse cx="0" cy="0" rx="1" ry="1" id="4" fill="rgb(0,0,0)" fill-opacity="0.501961" /></g>
<g transform="translate(145 53) rotate(349) scale(11 26)"><ellipse cx="0" cy="0" rx="1" ry="1" id="5" fill="rgb(0,0,0)" fill-opacity="0.501961" /></g>
<g transform="translate(151 113) rotate(84) scale(83 23)"><ellipse cx="0" cy="0" rx="1" ry="1" id="6" fill="rgb(0,0,0)" fill-opacity="0.501961" /></g>
<g transform="translate(180 42) rotate(341) scale(20 32)"><ellipse cx="0" cy="0" rx="1" ry="1" id="7" fill="rgb(91,99,117)" fill-opacity="0.501961" /></g>
<g transform="translate(222 127) rotate(177) scale(28 66)"><ellipse cx="0" cy="0" rx="1" ry="1" id="8" fill="rgb(0,0,0)" fill-opacity="0.501961" /></g>
<g transform="translate(28 49) rotate(276) scale(12 32)"><ellipse cx="0" cy="0" rx="1" ry="1" id="9" fill="rgb(106,130,181)" fill-opacity="0.501961" /></g>
<g transform="translate(241 26) rotate(119) scale(40 22)"><ellipse cx="0" cy="0" rx="1" ry="1" id="10" fill="rgb(113,124,154)" fill-opacity="0.501961" /></g>
<g transform="translate(68 47) rotate(88) scale(8 8)"><ellipse cx="0" cy="0" rx="1" ry="1" id="11" fill="rgb(0,0,0)" fill-opacity="0.501961" /></g>
<g transform="translate(116 75) rotate(264) scale(62 4)"><ellipse cx="0" cy="0" rx="1" ry="1" id="12" fill="rgb(105,120,148)" fill-opacity="0.501961" /></g>
<g transform="translate(90 16) rotate(126) scale(32 52)"><ellipse cx="0" cy="0" rx="1" ry="1" id="13" fill="rgb(97,110,130)" fill-opacity="0.501961" /></g>
<g transform="translate(12 13) rotate(349) scale(24 28)"><ellipse cx="0" cy="0" rx="1" ry="1" id="14" fill="rgb(228,235,248)" fill-opacity="0.501961" /></g>
<g transform="translate(51 122) rotate(12) scale(36 70)"><ellipse cx="0" cy="0" rx="1" ry="1" id="15" fill="rgb(0,0,0)" fill-opacity="0.501961" /></g>
<g transform="translate(155 110) rotate(130) scale(39 22)"><ellipse cx="0" cy="0" rx="1" ry="1" id="16" fill="rgb(0,0,0)" fill-opacity="0.501961" /></g>
<g transform="translate(136 19) rotate(91) scale(4 78)"><ellipse cx="0" cy="0" rx="1" ry="1" id="17" fill="rgb(47,57,72)" fill-opacity="0.501961" /></g>
<g transform="translate(0 119) rotate(263) scale(14 10)"><ellipse cx="0" cy="0" rx="1" ry="1" id="18" fill="rgb(95,110,137)" fill-opacity="0.501961" /></g>
<g transform="translate(120 163) rotate(358) scale(255 17)"><ellipse cx="0" cy="0" rx="1" ry="1" id="19" fill="rgb(0,0,0)" fill-opacity="0.501961" /></g>
<g transform="translate(41 37) rotate(7) scale(5 36)"><ellipse cx="0" cy="0" rx="1" ry="1" id="20" fill="rgb(84,111,161)" fill-opacity="0.501961" /></g>
<g transform="translate(113 89) rotate(358) scale(90 10)"><ellipse cx="0" cy="0" rx="1" ry="1" id="21" fill="rgb(0,0,0)" fill-opacity="0.501961" /></g>
<g transform="translate(177 128) rotate(168) scale(6 11)"><ellipse cx="0" cy="0" rx="1" ry="1" id="22" fill="rgb(78,90,114)" fill-opacity="0.501961" /></g>
<g transform="translate(187 31) rotate(350) scale(37 22)"><ellipse cx="0" cy="0" rx="1" ry="1" id="23" fill="rgb(106,115,136)" fill-opacity="0.501961" /></g>
<g transform="translate(2 71) rotate(277) scale(7 15)"><ellipse cx="0" cy="0" rx="1" ry="1" id="24" fill="rgb(114,134,152)" fill-opacity="0.501961" /></g>
<g transform="translate(235 86) rotate(112) scale(19 46)"><ellipse cx="0" cy="0" rx="1" ry="1" id="25" fill="rgb(0,0,0)" fill-opacity="0.501961" /></g>
<g transform="translate(90 46) rotate(45) scale(7 19)"><ellipse cx="0" cy="0" rx="1" ry="1" id="26" fill="rgb(124,136,154)" fill-opacity="0.501961" /></g>
<g transform="translate(237 40) rotate(266) scale(13 26)"><ellipse cx="0" cy="0" rx="1" ry="1" id="27" fill="rgb(97,106,122)" fill-opacity="0.501961" /></g>
<g transform="translate(183 76) rotate(238) scale(26 6)"><ellipse cx="0" cy="0" rx="1" ry="1" id="28" fill="rgb(55,60,65)" fill-opacity="0.501961" /></g>
<g transform="translate(46 15) rotate(360) scale(3 52)"><ellipse cx="0" cy="0" rx="1" ry="1" id="29" fill="rgb(18,31,51)" fill-opacity="0.501961" /></g>
<g transform="translate(218 8) rotate(85) scale(39 2)"><ellipse cx="0" cy="0" rx="1" ry="1" id="30" fill="rgb(6,20,46)" fill-opacity="0.501961" /></g>
<g transform="translate(133 1) rotate(360) scale(83 10)"><ellipse cx="0" cy="0" rx="1" ry="1" id="31" fill="rgb(128,147,175)" fill-opacity="0.501961" /></g>
<g transform="translate(192 132) rotate(272) scale(12 3)"><ellipse cx="0" cy="0" rx="1" ry="1" id="32" fill="rgb(76,89,113)" fill-opacity="0.501961" /></g>
<g transform="translate(25 65) rotate(58) scale(5 8)"><ellipse cx="0" cy="0" rx="1" ry="1" id="33" fill="rgb(0,0,0)" fill-opacity="0.501961" /></g>
<g transform="translate(149 76) rotate(356) scale(24 31)"><ellipse cx="0" cy="0" rx="1" ry="1" id="34" fill="rgb(0,0,0)" fill-opacity="0.501961" /></g>
<g transform="translate(106 127) rotate(95) scale(78 6)"><ellipse cx="0" cy="0" rx="1" ry="1" id="35" fill="rgb(0,0,0)" fill-opacity="0.501961" /></g>
<g transform="translate(247 18) rotate(54) scale(8 6)"><ellipse cx="0" cy="0" rx="1" ry="1" id="36" fill="rgb(154,174,240)" fill-opacity="0.501961" /></g>
<g transform="translate(67 52) rotate(102) scale(12 7)"><ellipse cx="0" cy="0" rx="1" ry="1" id="37" fill="rgb(0,0,0)" fill-opacity="0.501961" /></g>
<g transform="translate(255 119) rotate(123) scale(8 7)"><ellipse cx="0" cy="0" rx="1" ry="1" id="38" fill="rgb(107,124,158)" fill-opacity="0.501961" /></g>
<g transform="translate(229 101) rotate(91) scale(39 22)"><ellipse cx="0" cy="0" rx="1" ry="1" id="39" fill="rgb(0,0,0)" fill-opacity="0.501961" /></g>
<g transform="translate(241 56) rotate(76) scale(13 5)"><ellipse cx="0" cy="0" rx="1" ry="1" id="40" fill="rgb(96,108,121)" fill-opacity="0.501961" /></g>
<g transform="translate(189 70) rotate(10) scale(3 16)"><ellipse cx="0" cy="0" rx="1" ry="1" id="41" fill="rgb(104,122,158)" fill-opacity="0.501961" /></g>
<g transform="translate(118 71) rotate(334) scale(7 9)"><ellipse cx="0" cy="0" rx="1" ry="1" id="42" fill="rgb(95,108,135)" fill-opacity="0.501961" /></g>
<g transform="translate(140 44) rotate(4) scale(7 16)"><ellipse cx="0" cy="0" rx="1" ry="1" id="43" fill="rgb(0,0,0)" fill-opacity="0.501961" /></g>
<g transform="translate(53 20) rotate(360) scale(5 34)"><ellipse cx="0" cy="0" rx="1" ry="1" id="44" fill="rgb(123,145,182)" fill-opacity="0.501961" /></g>
<g transform="translate(95 72) rotate(188) scale(5 9)"><ellipse cx="0" cy="0" rx="1" ry="1" id="45" fill="rgb(81,96,122)" fill-opacity="0.501961" /></g>
<g transform="translate(246 39) rotate(183) scale(1 25)"><ellipse cx="0" cy="0" rx="1" ry="1" id="46" fill="rgb(165,177,208)" fill-opacity="0.501961" /></g>
<g transform="translate(174 60) rotate(94) scale(7 14)"><ellipse cx="0" cy="0" rx="1" ry="1" id="47" fill="rgb(4,7,10)" fill-opacity="0.501961" /></g>
<g transform="translate(223 38) rotate(87) scale(24 1)"><ellipse cx="0" cy="0" rx="1" ry="1" id="48" fill="rgb(184,225,255)" fill-opacity="0.501961" /></g>
<g transform="translate(88 111) rotate(320) scale(7 3)"><ellipse cx="0" cy="0" rx="1" ry="1" id="49" fill="rgb(97,111,136)" fill-opacity="0.501961" /></g>
<g transform="translate(204 63) rotate(37) scale(7 17)"><ellipse cx="0" cy="0" rx="1" ry="1" id="50" fill="rgb(0,0,0)" fill-opacity="0.501961" /></g>
<g transform="translate(117 119) rotate(94) scale(17 1)"><ellipse cx="0" cy="0" rx="1" ry="1" id="51" fill="rgb(120,144,188)" fill-opacity="0.501961" /></g>
<g transform="translate(72 19) rotate(209) scale(11 8)"><ellipse cx="0" cy="0" rx="1" ry="1" id="52" fill="rgb(48,61,79)" fill-opacity="0.501961" /></g>
<g transform="translate(187 86) rotate(0) scale(21 6)"><ellipse cx="0" cy="0" rx="1" ry="1" id="53" fill="rgb(0,0,0)" fill-opacity="0.501961" /></g>
<g transform="translate(47 126) rotate(137) scale(38 38)"><ellipse cx="0" cy="0" rx="1" ry="1" id="54" fill="rgb(0,0,0)" fill-opacity="0.501961" /></g>
<g transform="translate(42 14) rotate(273) scale(55 1)"><ellipse cx="0" cy="0" rx="1" ry="1" id="55" fill="rgb(171,206,255)" fill-opacity="0.501961" /></g>
<g transform="translate(106 43) rotate(146) scale(10 6)"><ellipse cx="0" cy="0" rx="1" ry="1" id="56" fill="rgb(149,157,173)" fill-opacity="0.501961" /></g>
<g transform="translate(120 111) rotate(104) scale(13 4)"><ellipse cx="0" cy="0" rx="1" ry="1" id="57" fill="rgb(98,116,154)" fill-opacity="0.501961" /></g>
<g transform="translate(33 32) rotate(221) scale(34 1)"><ellipse cx="0" cy="0" rx="1" ry="1" id="58" fill="rgb(118,131,159)" fill-opacity="0.501961" /></g>
<g transform="translate(1 97) rotate(131) scale(46 6)"><ellipse cx="0" cy="0" rx="1" ry="1" id="59" fill="rgb(0,0,0)" fill-opacity="0.501961" /></g>
<g transform="translate(0 112) rotate(352) scale(10 3)"><ellipse cx="0" cy="0" rx="1" ry="1" id="60" fill="rgb(135,153,183)" fill-opacity="0.501961" /></g>
<g transform="translate(114 42) rotate(194) scale(21 9)"><ellipse cx="0" cy="0" rx="1" ry="1" id="61" fill="rgb(122,127,141)" fill-opacity="0.501961" /></g>
<g transform="translate(181 42) rotate(204) scale(25 7)"><ellipse cx="0" cy="0" rx="1" ry="1" id="62" fill="rgb(106,112,125)" fill-opacity="0.501961" /></g>
<g transform="translate(36 21) rotate(274) scale(19 2)"><ellipse cx="0" cy="0" rx="1" ry="1" id="63" fill="rgb(194,209,232)" fill-opacity="0.501961" /></g>
<g transform="translate(189 21) rotate(277) scale(3 16)"><ellipse cx="0" cy="0" rx="1" ry="1" id="64" fill="rgb(44,55,71)" fill-opacity="0.501961" /></g>
<g transform="translate(86 26) rotate(86) scale(1 43)"><ellipse cx="0" cy="0" rx="1" ry="1" id="65" fill="rgb(147,163,188)" fill-opacity="0.501961" /></g>
<g transform="translate(203 116) rotate(191) scale(6 57)"><ellipse cx="0" cy="0" rx="1" ry="1" id="66" fill="rgb(0,0,0)" fill-opacity="0.501961" /></g>
<g transform="translate(255 69) rotate(0) scale(9 20)"><ellipse cx="0" cy="0" rx="1" ry="1" id="67" fill="rgb(30,15,19)" fill-opacity="0.501961" /></g>
<g transform="translate(180 136) rotate(328) scale(8 10)"><ellipse cx="0" cy="0" rx="1" ry="1" id="68" fill="rgb(36,43,58)" fill-opacity="0.501961" /></g>
<g transform="translate(23 51) rotate(258) scale(8 10)"><ellipse cx="0" cy="0" rx="1" ry="1" id="69" fill="rgb(56,67,103)" fill-opacity="0.501961" /></g>
<g transform="translate(13 24) rotate(41) scale(24 1)"><ellipse cx="0" cy="0" rx="1" ry="1" id="70" fill="rgb(132,144,171)" fill-opacity="0.501961" /></g>
<g transform="translate(190 104) rotate(68) scale(1 7)"><ellipse cx="0" cy="0" rx="1" ry="1" id="71" fill="rgb(158,122,76)" fill-opacity="0.501961" /></g>
<g transform="translate(50 23) rotate(272) scale(29 1)"><ellipse cx="0" cy="0" rx="1" ry="1" id="72" fill="rgb(146,169,207)" fill-opacity="0.501961" /></g>
<g transform="translate(0 13) rotate(171) scale(5 10)"><ellipse cx="0" cy="0" rx="1" ry="1" id="73" fill="rgb(255,255,255)" fill-opacity="0.501961" /></g>
<g transform="translate(49 0) rotate(32) scale(4 8)"><ellipse cx="0" cy="0" rx="1" ry="1" id="74" fill="rgb(15,19,33)" fill-opacity="0.501961" /></g>
<g transform="translate(150 114) rotate(85) scale(79 18)"><ellipse cx="0" cy="0" rx="1" ry="1" id="75" fill="rgb(0,0,0)" fill-opacity="0.501961" /></g>
<g transform="translate(6 40) rotate(265) scale(13 1)"><ellipse cx="0" cy="0" rx="1" ry="1" id="76" fill="rgb(110,138,194)" fill-opacity="0.501961" /></g>
<g transform="translate(195 43) rotate(316) scale(8 3)"><ellipse cx="0" cy="0" rx="1" ry="1" id="77" fill="rgb(155,171,201)" fill-opacity="0.501961" /></g>
<g transform="translate(12 40) rotate(128) scale(2 6)"><ellipse cx="0" cy="0" rx="1" ry="1" id="78" fill="rgb(255,255,255)" fill-opacity="0.501961" /></g>
<g transform="translate(171 16) rotate(102) scale(4 8)"><ellipse cx="0" cy="0" rx="1" ry="1" id="79" fill="rgb(48,59,74)" fill-opacity="0.501961" /></g>
<g transform="translate(68 65) rotate(89) scale(25 9)"><ellipse cx="0" cy="0" rx="1" ry="1" id="80" fill="rgb(0,0,0)" fill-opacity="0.501961" /></g>
<g transform="translate(191 57) rotate(183) scale(1 21)"><ellipse cx="0" cy="0" rx="1" ry="1" id="81" fill="rgb(125,144,186)" fill-opacity="0.501961" /></g>
<g transform="translate(255 2) rotate(140) scale(5 18)"><ellipse cx="0" cy="0" rx="1" ry="1" id="82" fill="rgb(73,60,66)" fill-opacity="0.501961" /></g>
<g transform="translate(145 25) rotate(184) scale(57 2)"><ellipse cx="0" cy="0" rx="1" ry="1" id="83" fill="rgb(131,142,164)" fill-opacity="0.501961" /></g>
<g transform="translate(210 135) rotate(0) scale(3 8)"><ellipse cx="0" cy="0" rx="1" ry="1" id="84" fill="rgb(54,64,86)" fill-opacity="0.501961" /></g>
<g transform="translate(132 27) rotate(3) scale(4 17)"><ellipse cx="0" cy="0" rx="1" ry="1" id="85" fill="rgb(73,78,87)" fill-opacity="0.501961" /></g>
<g transform="translate(104 94) rotate(95) scale(26 10)"><ellipse cx="0" cy="0" rx="1" ry="1" id="86" fill="rgb(0,0,0)" fill-opacity="0.501961" /></g>
<g transform="translate(21 31) rotate(303) scale(1 18)"><ellipse cx="0" cy="0" rx="1" ry="1" id="87" fill="rgb(79,92,122)" fill-opacity="0.501961" /></g>
<g transform="translate(128 74) rotate(19) scale(10 3)"><ellipse cx="0" cy="0" rx="1" ry="1" id="88" fill="rgb(0,0,0)" fill-opacity="0.501961" /></g>
<g transform="translate(245 11) rotate(252) scale(20 7)"><ellipse cx="0" cy="0" rx="1" ry="1" id="89" fill="rgb(139,153,187)" fill-opacity="0.501961" /></g>
<g transform="translate(236 38) rotate(102) scale(24 5)"><ellipse cx="0" cy="0" rx="1" ry="1" id="90" fill="rgb(82,94,105)" fill-opacity="0.501961" /></g>
<g transform="translate(198 13) rotate(5) scale(27 3)"><ellipse cx="0" cy="0" rx="1" ry="1" id="91" fill="rgb(130,147,176)" fill-opacity="0.501961" /></g>
<g transform="translate(57 21) rotate(258) scale(22 7)"><ellipse cx="0" cy="0" rx="1" ry="1" id="92" fill="rgb(110,128,154)" fill-opacity="0.501961" /></g>
<g transform="translate(108 39) rotate(181) scale(26 2)"><ellipse cx="0" cy="0" rx="1" ry="1" id="93" fill="rgb(158,171,194)" fill-opacity="0.501961" /></g>
<g transform="translate(118 114) rotate(269) scale(24 3)"><ellipse cx="0" cy="0" rx="1" ry="1" id="94" fill="rgb(69,81,103)" fill-opacity="0.501961" /></g>
<g transform="translate(160 132) rotate(357) scale(65 2)"><ellipse cx="0" cy="0" rx="1" ry="1" id="95" fill="rgb(3,4,2)" fill-opacity="0.501961" /></g>
<g transform="translate(21 92) rotate(71) scale(10 69)"><ellipse cx="0" cy="0" rx="1" ry="1" id="96" fill="rgb(0,0,0)" fill-opacity="0.501961" /></g>
<g transform="translate(125 69) rotate(95) scale(24 1)"><ellipse cx="0" cy="0" rx="1" ry="1" id="97" fill="rgb(66,71,78)" fill-opacity="0.501961" /></g>
<g transform="translate(109 34) rotate(268) scale(2 26)"><ellipse cx="0" cy="0" rx="1" ry="1" id="98" fill="rgb(83,89,90)" fill-opacity="0.501961" /></g>
<g transform="translate(163 39) rotate(358) scale(12 8)"><ellipse cx="0" cy="0" rx="1" ry="1" id="99" fill="rgb(99,104,118)" fill-opacity="0.501961" /></g>
<g transform="translate(3 138) rotate(44) scale(9 8)"><ellipse cx="0" cy="0" rx="1" ry="1" id="100" fill="rgb(27,35,52)" fill-opacity="0.501961" /></g>
<g transform="translate(83 75) rotate(172) scale(21 3)"><ellipse cx="0" cy="0" rx="1" ry="1" id="101" fill="rgb(0,0,0)" fill-opacity="0.501961" /></g>
<g transform="translate(0 66) rotate(193) scale(19 1)"><ellipse cx="0" cy="0" rx="1" ry="1" id="102" fill="rgb(167,196,255)" fill-opacity="0.501961" /></g>
<g transform="translate(26 86) rotate(271) scale(27 10)"><ellipse cx="0" cy="0" rx="1" ry="1" id="103" fill="rgb(0,0,0)" fill-opacity="0.501961" /></g>
<g transform="translate(238 133) rotate(251) scale(91 9)"><ellipse cx="0" cy="0" rx="1" ry="1" id="104" fill="rgb(0,0,0)" fill-opacity="0.501961" /></g>
<g transform="translate(26 50) rotate(18) scale(14 2)"><ellipse cx="0" cy="0" rx="1" ry="1" id="105" fill="rgb(106,125,170)" fill-opacity="0.501961" /></g>
<g transform="translate(243 30) rotate(352) scale(1 22)"><ellipse cx="0" cy="0" rx="1" ry="1" id="106" fill="rgb(174,187,193)" fill-opacity="0.501961" /></g>
<g transform="translate(30 8) rotate(193) scale(7 14)"><ellipse cx="0" cy="0" rx="1" ry="1" id="107" fill="rgb(237,238,244)" fill-opacity="0.501961" /></g>
</svg>