<svg xmlns="http://www.w3.org/2000/svg" width="256" height="165" baseProfile="tiny" version="1.2" viewBox="0 0 256 165"><rect id="0" width="256" height="165" x="0" y="0" fill="#2A2E37" fill-opacity="1"/><g transform="translate(104 21) rotate(180) scale(255 28)"><ellipse id="1" cx="0" cy="0" fill="#B8CBEB" fill-opacity=".502" rx="1" ry="1"/></g><g transform="translate(114 134) rotate(261) scale(89 159)"><ellipse id="2" cx="0" cy="0" fill="#000" fill-opacity=".502" rx="1" ry="1"/></g><g transform="translate(13 13) rotate(294) scale(30 30)"><ellipse id="3" cx="0" cy="0" fill="#FFF" fill-opacity=".502" rx="1" ry="1"/></g><g transform="translate(57 120) rotate(223) scale(59 57)"><ellipse id="4" cx="0" cy="0" fill="#000" fill-opacity=".502" rx="1" ry="1"/></g><g transform="translate(145 53) rotate(349) scale(11 26)"><ellipse id="5" cx="0" cy="0" fill="#000" fill-opacity=".502" rx="1" ry="1"/></g><g transform="translate(151 113) rotate(84) scale(83 23)"><ellipse id="6" cx="0" cy="0" fill="#000" fill-opacity=".502" rx="1" ry="1"/></g><g transform="translate(180 42) rotate(341) scale(20 32)"><ellipse id="7" cx="0" cy="0" fill="#5B6375" fill-opacity=".502" rx="1" ry="1"/></g><g transform="translate(222 127) rotate(177) scale(28 66)"><ellipse id="8" cx="0" cy="0" fill="#000" fill-opacity=".502" rx="1" ry="1"/></g><g transform="translate(28 49) rotate(276) scale(12 32)"><ellipse id="9" cx="0" cy="0" fill="#6A82B5" fill-opacity=".502" rx="1" ry="1"/></g><g transform="translate(241 26) rotate(119) scale(40 22)"><ellipse id="10" cx="0" cy="0" fill="#717C9A" fill-opacity=".502" rx="1" ry="1"/></g><g transform="translate(68 47) rotate(88) scale(8 8)"><ellipse id="11" cx="0" cy="0" fill="#000" fill-opacity=".502" rx="1" ry="1"/></g><g transform="translate(116 75) rotate(264) scale(62 4)"><ellipse id="12" cx="0" cy="0" fill="#697894" fill-opacity=".502" rx="1" ry="1"/></g><g transform="translate(90 16) rotate(126) scale(32 52)"><ellipse id="13" cx="0" cy="0" fill="#616E82" fill-opacity=".502" rx="1" ry="1"/></g><g transform="translate(12 13) rotate(349) scale(24 28)"><ellipse id="14" cx="0" cy="0" fill="#E4EBF8" fill-opacity=".502" rx="1" ry="1"/></g><g transform="translate(51 122) rotate(12) scale(36 70)"><ellipse id="15" cx="0" cy="0" fill="#000" fill-opacity=".502" rx="1" ry="1"/></g><g transform="translate(155 110) rotate(130) scale(39 22)"><ellipse id="16" cx="0" cy="0" fill="#000" fill-opacity=".502" rx="1" ry="1"/></g><g transform="translate(136 19) rotate(91) scale(4 78)"><ellipse id="17" cx="0" cy="0" fill="#2F3948" fill-opacity=".502" rx="1" ry="1"/></g><g transform="translate(0 119) rotate(263) scale(14 10)"><ellipse id="18" cx="0" cy="0" fill="#5F6E89" fill-opacity=".502" rx="1" ry="1"/></g><g transform="translate(120 163) rotate(358) scale(255 17)"><ellipse id="19" cx="0" cy="0" fill="#000" fill-opacity=".502" rx="1" ry="1"/></g><g transform="translate(41 37) rotate(7) scale(5 36)"><ellipse id="20" cx="0" cy="0" fill="#546FA1" fill-opacity=".502" rx="1" ry="1"/></g><g transform="translate(113 89) rotate(358) scale(90 10)"><ellipse id="21" cx="0" cy="0" fill="#000" fill-opacity=".502" rx="1" ry="1"/></g><g transform="translate(177 128) rotate(168) scale(6 11)"><ellipse id="22" cx="0" cy="0" fill="#4E5A72" fill-opacity=".502" rx="1" ry="1"/></g><g transform="translate(187 31) rotate(350) scale(37 22)"><ellipse id="23" cx="0" cy="0" fill="#6A7388" fill-opacity=".502" rx="1" ry="1"/></g><g transform="translate(2 71) rotate(277) scale(7 15)"><ellipse id="24" cx="0" cy="0" fill="#728698" fill-opacity=".502" rx="1" ry="1"/></g><g transform="translate(235 86) rotate(112) scale(19 46)"><ellipse id="25" cx="0" cy="0" fill="#000" fill-opacity=".502" rx="1" ry="1"/></g><g transform="translate(90 46) rotate(45) scale(7 19)"><ellipse id="26" cx="0" cy="0" fill="#7C889A" fill-opacity=".502" rx="1" ry="1"/></g><g transform="translate(237 40) rotate(266) scale(13 26)"><ellipse id="27" cx="0" cy="0" fill="#616A7A" fill-opacity=".502" rx="1" ry="1"/></g><g transform="translate(183 76) rotate(238) scale(26 6)"><ellipse id="28" cx="0" cy="0" fill="#373C41" fill-opacity=".502" rx="1" ry="1"/></g><g transform="translate(46 15) rotate(360) scale(3 52)"><ellipse id="29" cx="0" cy="0" fill="#121F33" fill-opacity=".502" rx="1" ry="1"/></g><g transform="translate(218 8) rotate(85) scale(39 2)"><ellipse id="30" cx="0" cy="0" fill="#06142E" fill-opacity=".502" rx="1" ry="1"/></g><g transform="translate(133 1) rotate(360) scale(83 10)"><ellipse id="31" cx="0" cy="0" fill="#8093AF" fill-opacity=".502" rx="1" ry="1"/></g><g transform="translate(192 132) rotate(272) scale(12 3)"><ellipse id="32" cx="0" cy="0" fill="#4C5971" fill-opacity=".502" rx="1" ry="1"/></g><g transform="translate(25 65) rotate(58) scale(5 8)"><ellipse id="33" cx="0" cy="0" fill="#000" fill-opacity=".502" rx="1" ry="1"/></g><g transform="translate(149 76) rotate(356) scale(24 31)"><ellipse id="34" cx="0" cy="0" fill="#000" fill-opacity=".502" rx="1" ry="1"/></g><g transform="translate(106 127) rotate(95) scale(78 6)"><ellipse id="35" cx="0" cy="0" fill="#000" fill-opacity=".502" rx="1" ry="1"/></g><g transform="translate(247 18) rotate(54) scale(8 6)"><ellipse id="36" cx="0" cy="0" fill="#9AAEF0" fill-opacity=".502" rx="1" ry="1"/></g><g transform="translate(67 52) rotate(102) scale(12 7)"><ellipse id="37" cx="0" cy="0" fill="#000" fill-opacity=".502" rx="1" ry="1"/></g><g transform="translate(255 119) rotate(123) scale(8 7)"><ellipse id="38" cx="0" cy="0" fill="#6B7C9E" fill-opacity=".502" rx="1" ry="1"/></g><g transform="translate(229 101) rotate(91) scale(39 22)"><ellipse id="39" cx="0" cy="0" fill="#000" fill-opacity=".502" rx="1" ry="1"/></g><g transform="translate(241 56) rotate(76) scale(13 5)"><ellipse id="40" cx="0" cy="0" fill="#606C79" fill-opacity=".502" rx="1" ry="1"/></g><g transform="translate(189 70) rotate(10) scale(3 16)"><ellipse id="41" cx="0" cy="0" fill="#687A9E" fill-opacity=".502" rx="1" ry="1"/></g><g transform="translate(118 71) rotate(334) scale(7 9)"><ellipse id="42" cx="0" cy="0" fill="#5F6C87" fill-opacity=".502" rx="1" ry="1"/></g><g transform="translate(140 44) rotate(4) scale(7 16)"><ellipse id="43" cx="0" cy="0" fill="#000" fill-opacity=".502" rx="1" ry="1"/></g><g transform="translate(53 20) rotate(360) scale(5 34)"><ellipse id="44" cx="0" cy="0" fill="#7B91B6" fill-opacity=".502" rx="1" ry="1"/></g><g transform="translate(95 72) rotate(188) scale(5 9)"><ellipse id="45" cx="0" cy="0" fill="#51607A" fill-opacity=".502" rx="1" ry="1"/></g><g transform="translate(246 39) rotate(183) scale(1 25)"><ellipse id="46" cx="0" cy="0" fill="#A5B1D0" fill-opacity=".502" rx="1" ry="1"/></g><g transform="translate(174 60) rotate(94) scale(7 14)"><ellipse id="47" cx="0" cy="0" fill="#04070A" fill-opacity=".502" rx="1" ry="1"/></g><g transform="translate(223 38) rotate(87) scale(24 1)"><ellipse id="48" cx="0" cy="0" fill="#B8E1FF" fill-opacity=".502" rx="1" ry="1"/></g><g transform="translate(88 111) rotate(320) scale(7 3)"><ellipse id="49" cx="0" cy="0" fill="#616F88" fill-opacity=".502" rx="1" ry="1"/></g><g transform="translate(204 63) rotate(37) scale(7 17)"><ellipse id="50" cx="0" cy="0" fill="#000" fill-opacity=".502" rx="1" ry="1"/></g><g transform="translate(117 119) rotate(94) scale(17 1)"><ellipse id="51" cx="0" cy="0" fill="#7890BC" fill-opacity=".502" rx="1" ry="1"/></g><g transform="translate(72 19) rotate(209) scale(11 8)"><ellipse id="52" cx="0" cy="0" fill="#303D4F" fill-opacity=".502" rx="1" ry="1"/></g><g transform="translate(187 86) rotate(0) scale(21 6)"><ellipse id="53" cx="0" cy="0" fill="#000" fill-opacity=".502" rx="1" ry="1"/></g><g transform="translate(47 126) rotate(137) scale(38 38)"><ellipse id="54" cx="0" cy="0" fill="#000" fill-opacity=".502" rx="1" ry="1"/></g><g transform="translate(42 14) rotate(273) scale(55 1)"><ellipse id="55" cx="0" cy="0" fill="#ABCEFF" fill-opacity=".502" rx="1" ry="1"/></g><g transform="translate(106 43) rotate(146) scale(10 6)"><ellipse id="56" cx="0" cy="0" fill="#959DAD" fill-opacity=".502" rx="1" ry="1"/></g><g transform="translate(120 111) rotate(104) scale(13 4)"><ellipse id="57" cx="0" cy="0" fill="#62749A" fill-opacity=".502" rx="1" ry="1"/></g><g transform="translate(33 32) rotate(221) scale(34 1)"><ellipse id="58" cx="0" cy="0" fill="#76839F" fill-opacity=".502" rx="1" ry="1"/></g><g transform="translate(1 97) rotate(131) scale(46 6)"><ellipse id="59" cx="0" cy="0" fill="#000" fill-opacity=".502" rx="1" ry="1"/></g><g transform="translate(0 112) rotate(352) scale(10 3)"><ellipse id="60" cx="0" cy="0" fill="#8799B7" fill-opacity=".502" rx="1" ry="1"/></g><g transform="translate(114 42) rotate(194) scale(21 9)"><ellipse id="61" cx="0" cy="0" fill="#7A7F8D" fill-opacity=".502" rx="1" ry="1"/></g><g transform="translate(181 42) rotate(204) scale(25 7)"><ellipse id="62" cx="0" cy="0" fill="#6A707D" fill-opacity=".502" rx="1" ry="1"/></g><g transform="translate(36 21) rotate(274) scale(19 2)"><ellipse id="63" cx="0" cy="0" fill="#C2D1E8" fill-opacity=".502" rx="1" ry="1"/></g><g transform="translate(189 21) rotate(277) scale(3 16)"><ellipse id="64" cx="0" cy="0" fill="#2C3747" fill-opacity=".502" rx="1" ry="1"/></g><g transform="translate(86 26) rotate(86) scale(1 43)"><ellipse id="65" cx="0" cy="0" fill="#93A3BC" fill-opacity=".502" rx="1" ry="1"/></g><g transform="translate(203 116) rotate(191) scale(6 57)"><ellipse id="66" cx="0" cy="0" fill="#000" fill-opacity=".502" rx="1" ry="1"/></g><g transform="translate(255 69) rotate(0) scale(9 20)"><ellipse id="67" cx="0" cy="0" fill="#1E0F13" fill-opacity=".502" rx="1" ry="1"/></g><g transform="translate(180 136) rotate(328) scale(8 10)"><ellipse id="68" cx="0" cy="0" fill="#242B3A" fill-opacity=".502" rx="1" ry="1"/></g><g transform="translate(23 51) rotate(258) scale(8 10)"><ellipse id="69" cx="0" cy="0" fill="#384367" fill-opacity=".502" rx="1" ry="1"/></g><g transform="translate(13 24) rotate(41) scale(24 1)"><ellipse id="70" cx="0" cy="0" fill="#8490AB" fill-opacity=".502" rx="1" ry="1"/></g><g transform="translate(190 104) rotate(68) scale(1 7)"><ellipse id="71" cx="0" cy="0" fill="#9E7A4C" fill-opacity=".502" rx="1" ry="1"/></g><g transform="translate(50 23) rotate(272) scale(29 1)"><ellipse id="72" cx="0" cy="0" fill="#92A9CF" fill-opacity=".502" rx="1" ry="1"/></g><g transform="translate(0 13) rotate(171) scale(5 10)"><ellipse id="73" cx="0" cy="0" fill="#FFF" fill-opacity=".502" rx="1" ry="1"/></g><g transform="translate(49 0) rotate(32) scale(4 8)"><ellipse id="74" cx="0" cy="0" fill="#0F1321" fill-opacity=".502" rx="1" ry="1"/></g><g transform="translate(150 114) rotate(85) scale(79 18)"><ellipse id="75" cx="0" cy="0" fill="#000" fill-opacity=".502" rx="1" ry="1"/></g><g transform="translate(6 40) rotate(265) scale(13 1)"><ellipse id="76" cx="0" cy="0" fill="#6E8AC2" fill-opacity=".502" rx="1" ry="1"/></g><g transform="translate(195 43) rotate(316) scale(8 3)"><ellipse id="77" cx="0" cy="0" fill="#9BABC9" fill-opacity=".502" rx="1" ry="1"/></g><g transform="translate(12 40) rotate(128) scale(2 6)"><ellipse id="78" cx="0" cy="0" fill="#FFF" fill-opacity=".502" rx="1" ry="1"/></g><g transform="translate(171 16) rotate(102) scale(4 8)"><ellipse id="79" cx="0" cy="0" fill="#303B4A" fill-opacity=".502" rx="1" ry="1"/></g><g transform="translate(68 65) rotate(89) scale(25 9)"><ellipse id="80" cx="0" cy="0" fill="#000" fill-opacity=".502" rx="1" ry="1"/></g><g transform="translate(191 57) rotate(183) scale(1 21)"><ellipse id="81" cx="0" cy="0" fill="#7D90BA" fill-opacity=".502" rx="1" ry="1"/></g><g transform="translate(255 2) rotate(140) scale(5 18)"><ellipse id="82" cx="0" cy="0" fill="#493C42" fill-opacity=".502" rx="1" ry="1"/></g><g transform="translate(145 25) rotate(184) scale(57 2)"><ellipse id="83" cx="0" cy="0" fill="#838EA4" fill-opacity=".502" rx="1" ry="1"/></g><g transform="translate(210 135) rotate(0) scale(3 8)"><ellipse id="84" cx="0" cy="0" fill="#364056" fill-opacity=".502" rx="1" ry="1"/></g><g transform="translate(132 27) rotate(3) scale(4 17)"><ellipse id="85" cx="0" cy="0" fill="#494E57" fill-opacity=".502" rx="1" ry="1"/></g><g transform="translate(104 94) rotate(95) scale(26 10)"><ellipse id="86" cx="0" cy="0" fill="#000" fill-opacity=".502" rx="1" ry="1"/></g><g transform="translate(21 31) rotate(303) scale(1 18)"><ellipse id="87" cx="0" cy="0" fill="#4F5C7A" fill-opacity=".502" rx="1" ry="1"/></g><g transform="translate(128 74) rotate(19) scale(10 3)"><ellipse id="88" cx="0" cy="0" fill="#000" fill-opacity=".502" rx="1" ry="1"/></g><g transform="translate(245 11) rotate(252) scale(20 7)"><ellipse id="89" cx="0" cy="0" fill="#8B99BB" fill-opacity=".502" rx="1" ry="1"/></g><g transform="translate(236 38) rotate(102) scale(24 5)"><ellipse id="90" cx="0" cy="0" fill="#525E69" fill-opacity=".502" rx="1" ry="1"/></g><g transform="translate(198 13) rotate(5) scale(27 3)"><ellipse id="91" cx="0" cy="0" fill="#8293B0" fill-opacity=".502" rx="1" ry="1"/></g><g transform="translate(57 21) rotate(258) scale(22 7)"><ellipse id="92" cx="0" cy="0" fill="#6E809A" fill-opacity=".502" rx="1" ry="1"/></g><g transform="translate(108 39) rotate(181) scale(26 2)"><ellipse id="93" cx="0" cy="0" fill="#9EABC2" fill-opacity=".502" rx="1" ry="1"/></g><g transform="translate(118 114) rotate(269) scale(24 3)"><ellipse id="94" cx="0" cy="0" fill="#455167" fill-opacity=".502" rx="1" ry="1"/></g><g transform="translate(160 132) rotate(357) scale(65 2)"><ellipse id="95" cx="0" cy="0" fill="#030402" fill-opacity=".502" rx="1" ry="1"/></g><g transform="translate(21 92) rotate(71) scale(10 69)"><ellipse id="96" cx="0" cy="0" fill="#000" fill-opacity=".502" rx="1" ry="1"/></g><g transform="translate(125 69) rotate(95) scale(24 1)"><ellipse id="97" cx="0" cy="0" fill="#42474E" fill-opacity=".502" rx="1" ry="1"/></g><g transform="translate(109 34) rotate(268) scale(2 26)"><ellipse id="98" cx="0" cy="0" fill="#53595A" fill-opacity=".502" rx="1" ry="1"/></g><g transform="translate(163 39) rotate(358) scale(12 8)"><ellipse id="99" cx="0" cy="0" fill="#636876" fill-opacity=".502" rx="1" ry="1"/></g><g transform="translate(3 138) rotate(44) scale(9 8)"><ellipse id="100" cx="0" cy="0" fill="#1B2334" fill-opacity=".502" rx="1" ry="1"/></g><g transform="translate(83 75) rotate(172) scale(21 3)"><ellipse id="101" cx="0" cy="0" fill="#000" fill-opacity=".502" rx="1" ry="1"/></g><g transform="translate(0 66) rotate(193) scale(19 1)"><ellipse id="102" cx="0" cy="0" fill="#A7C4FF" fill-opacity=".502" rx="1" ry="1"/></g><g transform="translate(26 86) rotate(271) scale(27 10)"><ellipse id="103" cx="0" cy="0" fill="#000" fill-opacity=".502" rx="1" ry="1"/></g><g transform="translate(238 133) rotate(251) scale(91 9)"><ellipse id="104" cx="0" cy="0" fill="#000" fill-opacity=".502" rx="1" ry="1"/></g><g transform="translate(26 50) rotate(18) scale(14 2)"><ellipse id="105" cx="0" cy="0" fill="#6A7DAA" fill-opacity=".502" rx="1" ry="1"/></g><g transform="translate(243 30) rotate(352) scale(1 22)"><ellipse id="106" cx="0" cy="0" fill="#AEBBC1" fill-opacity=".502" rx="1" ry="1"/></g><g transform="translate(30 8) rotate(193) scale(7 14)"><ellipse id="107" cx="0" cy="0" fill="#EDEEF4" fill-opacity=".502" rx="1" ry="1"/></g></svg>