<?xml version="1.0" standalone="no"?>
<svg xmlns="http://www.w3.org/2000/svg" version="1.2" baseProfile="tiny" width="170" height="256" viewBox="0 0 170 256">
<rect x="0" y="0" width="170" height="256" id="0" fill="rgb(84,81,85)" fill-opacity="1" />
<polyline points="16,255 14,34 17,163 13,22" id="1" stroke="rgb(255,255,255)" stroke-width="1" fill="none" stroke-opacity="0.501961" />
<polyline points="113,8 108,252 112,0 107,188" id="2" stroke="rgb(255,255,255)" stroke-width="1" fill="none" stroke-opacity="0.501961" />
<polyline points="55,0 53,255 55,0 53,244" id="3" stroke="rgb(0,0,0)" stroke-width="1" fill="none" stroke-opacity="0.501961" />
<polyline points="108,0 106,240 109,3 104,153" id="4" stroke="rgb(255,255,255)" stroke-width="1" fill="none" stroke-opacity="0.501961" />
<polyline points="105,179 106,0 113,195 113,10" id="5" stroke="rgb(255,255,255)" stroke-width="1" fill="none" stroke-opacity="0.501961" />
<polyline points="39,0 38,255 39,3 39,255" id="6" stroke="rgb(0,0,0)" stroke-width="1" fill="none" stroke-opacity="0.501961" />
<polyline points="56,0 54,255 56,2 54,253" id="7" stroke="rgb(0,0,0)" stroke-width="1" fill="none" stroke-opacity="0.501961" />
<polyline points="104,0 104,186 101,0 112,159" id="8" stroke="rgb(255,255,255)" stroke-width="1" fill="none" stroke-opacity="0.501961" />
<polyline points="46,255 83,0 40,255 40,38" id="9" stroke="rgb(0,0,0)" stroke-width="1" fill="none" stroke-opacity="0.501961" />
<polyline points="109,148 110,0 106,234 105,3" id="10" stroke="rgb(228,237,254)" stroke-width="1" fill="none" stroke-opacity="0.501961" />
<polyline points="57,0 55,255 87,0 54,255" id="11" stroke="rgb(0,0,0)" stroke-width="1" fill="none" stroke-opacity="0.501961" />
<polyline points="15,202 12,86 13,42 14,142" id="12" stroke="rgb(255,255,255)" stroke-width="1" fill="none" stroke-opacity="0.501961" />
<polyline points="12,196 16,59 18,209 17,80" id="13" stroke="rgb(255,255,255)" stroke-width="1" fill="none" stroke-opacity="0.501961" />
<polyline points="44,255 76,0 39,255 79,0" id="14" stroke="rgb(0,0,0)" stroke-width="1" fill="none" stroke-opacity="0.501961" />
<polyline points="56,0 44,254 54,21 43,255" id="15" stroke="rgb(0,0,0)" stroke-width="1" fill="none" stroke-opacity="0.501961" />
<polyline points="93,255 59,23 96,255 58,24" id="16" stroke="rgb(0,0,0)" stroke-width="1" fill="none" stroke-opacity="0.501961" />
<polyline points="109,160 114,46 105,244 102,0" id="17" stroke="rgb(216,222,235)" stroke-width="1" fill="none" stroke-opacity="0.501961" />
<polyline points="56,255 89,0 48,249 93,0" id="18" stroke="rgb(0,0,0)" stroke-width="1" fill="none" stroke-opacity="0.501961" />
<polyline points="53,0 34,255 39,0 87,255" id="19" stroke="rgb(0,0,0)" stroke-width="1" fill="none" stroke-opacity="0.501961" />
<polyline points="17,52 16,183 16,23 14,113" id="20" stroke="rgb(253,255,255)" stroke-width="1" fill="none" stroke-opacity="0.501961" />
<polyline points="36,0 37,255 72,0 33,255" id="21" stroke="rgb(0,0,0)" stroke-width="1" fill="none" stroke-opacity="0.501961" />
<polyline points="54,0 42,255 53,4 92,255" id="22" stroke="rgb(0,0,0)" stroke-width="1" fill="none" stroke-opacity="0.501961" />
<polyline points="99,211 88,0 44,255 85,0" id="23" stroke="rgb(0,0,0)" stroke-width="1" fill="none" stroke-opacity="0.501961" />
<polyline points="69,255 37,11 100,241 35,0" id="24" stroke="rgb(0,0,0)" stroke-width="1" fill="none" stroke-opacity="0.501961" />
<polyline points="115,114 103,251 133,37 146,143" id="25" stroke="rgb(185,188,194)" stroke-width="1" fill="none" stroke-opacity="0.501961" />
<polyline points="52,0 41,255 51,9 39,255" id="26" stroke="rgb(0,0,0)" stroke-width="1" fill="none" stroke-opacity="0.501961" />
<polyline points="55,193 98,0 101,215 96,0" id="27" stroke="rgb(0,0,0)" stroke-width="1" fill="none" stroke-opacity="0.501961" />
<polyline points="40,0 89,255 95,0 100,229" id="28" stroke="rgb(0,0,0)" stroke-width="1" fill="none" stroke-opacity="0.501961" />
<polyline points="63,18 45,255 77,2 56,218" id="29" stroke="rgb(0,0,0)" stroke-width="1" fill="none" stroke-opacity="0.501961" />
<polyline points="15,99 17,216 11,32 16,239" id="30" stroke="rgb(211,217,227)" stroke-width="1" fill="none" stroke-opacity="0.501961" />
<polyline points="56,255 58,0 58,255 75,115" id="31" stroke="rgb(0,0,0)" stroke-width="1" fill="none" stroke-opacity="0.501961" />
<polyline points="96,225 45,12 40,247 42,0" id="32" stroke="rgb(0,0,0)" stroke-width="1" fill="none" stroke-opacity="0.501961" />
<polyline points="0,132 4,0 16,214 6,67" id="33" stroke="rgb(193,208,214)" stroke-width="1" fill="none" stroke-opacity="0.501961" />
<polyline points="33,22 61,253 67,7 67,178" id="34" stroke="rgb(0,0,0)" stroke-width="1" fill="none" stroke-opacity="0.501961" />
<polyline points="144,134 135,7 143,210 133,57" id="35" stroke="rgb(187,199,207)" stroke-width="1" fill="none" stroke-opacity="0.501961" />
<polyline points="132,86 134,58 114,18 114,213" id="36" stroke="rgb(229,239,250)" stroke-width="1" fill="none" stroke-opacity="0.501961" />
<polyline points="97,255 94,0 98,238 59,255" id="37" stroke="rgb(0,0,0)" stroke-width="1" fill="none" stroke-opacity="0.501961" />
<polyline points="102,142 108,255 127,0 138,255" id="38" stroke="rgb(163,164,169)" stroke-width="1" fill="none" stroke-opacity="0.501961" />
<polyline points="106,223 152,18 109,255 113,94" id="39" stroke="rgb(184,189,195)" stroke-width="1" fill="none" stroke-opacity="0.501961" />
<polyline points="16,175 0,42 15,214 0,128" id="40" stroke="rgb(189,206,208)" stroke-width="1" fill="none" stroke-opacity="0.501961" />
<polyline points="94,75 61,0 79,255 63,2" id="41" stroke="rgb(0,0,0)" stroke-width="1" fill="none" stroke-opacity="0.501961" />
<polyline points="57,0 97,255 86,155 84,255" id="42" stroke="rgb(0,0,0)" stroke-width="1" fill="none" stroke-opacity="0.501961" />
<polyline points="99,3 94,255 92,10 76,113" id="43" stroke="rgb(0,0,0)" stroke-width="1" fill="none" stroke-opacity="0.501961" />
<polyline points="101,255 158,12 135,166 135,57" id="44" stroke="rgb(168,176,184)" stroke-width="1" fill="none" stroke-opacity="0.501961" />
<polyline points="48,0 87,241 19,0 0,31" id="45" stroke="rgb(0,0,0)" stroke-width="1" fill="none" stroke-opacity="0.501961" />
<polyline points="9,27 0,162 0,54 0,41" id="46" stroke="rgb(201,224,228)" stroke-width="1" fill="none" stroke-opacity="0.501961" />
<polyline points="6,37 16,181 2,0 7,90" id="47" stroke="rgb(189,200,209)" stroke-width="1" fill="none" stroke-opacity="0.501961" />
<polyline points="115,255 115,32 115,255 161,59" id="48" stroke="rgb(189,194,203)" stroke-width="1" fill="none" stroke-opacity="0.501961" />
<polyline points="142,65 103,255 141,1 132,124" id="49" stroke="rgb(164,167,171)" stroke-width="1" fill="none" stroke-opacity="0.501961" />
<polyline points="42,60 68,255 36,22 68,255" id="50" stroke="rgb(0,0,0)" stroke-width="1" fill="none" stroke-opacity="0.501961" />
<polyline points="58,138 82,0 48,183 69,39" id="51" stroke="rgb(0,0,0)" stroke-width="1" fill="none" stroke-opacity="0.501961" />
<polyline points="168,0 104,255 100,7 154,8" id="52" stroke="rgb(163,165,172)" stroke-width="1" fill="none" stroke-opacity="0.501961" />
<polyline points="50,255 91,255 65,108 78,255" id="53" stroke="rgb(0,0,0)" stroke-width="1" fill="none" stroke-opacity="0.501961" />
<polyline points="151,255 126,34 105,236 169,60" id="54" stroke="rgb(150,156,164)" stroke-width="1" fill="none" stroke-opacity="0.501961" />
<polyline points="26,253 21,13 69,255 99,171" id="55" stroke="rgb(2,0,0)" stroke-width="1" fill="none" stroke-opacity="0.501961" />
<polyline points="169,103 169,30 101,255 150,0" id="56" stroke="rgb(150,156,162)" stroke-width="1" fill="none" stroke-opacity="0.501961" />
<polyline points="161,0 107,255 138,111 130,0" id="57" stroke="rgb(151,155,160)" stroke-width="1" fill="none" stroke-opacity="0.501961" />
<polyline points="0,0 19,143 0,0 9,50" id="58" stroke="rgb(171,176,186)" stroke-width="1" fill="none" stroke-opacity="0.501961" />
<polyline points="81,0 35,237 41,0 35,255" id="59" stroke="rgb(0,0,0)" stroke-width="1" fill="none" stroke-opacity="0.501961" />
<polyline points="5,173 0,38 0,199 3,0" id="60" stroke="rgb(157,172,174)" stroke-width="1" fill="none" stroke-opacity="0.501961" />
<polyline points="8,143 0,64 15,154 10,80" id="61" stroke="rgb(192,211,216)" stroke-width="1" fill="none" stroke-opacity="0.501961" />
<polyline points="146,255 141,2 131,182 133,49" id="62" stroke="rgb(161,171,177)" stroke-width="1" fill="none" stroke-opacity="0.501961" />
<polyline points="86,0 66,127 86,0 51,232" id="63" stroke="rgb(0,0,0)" stroke-width="1" fill="none" stroke-opacity="0.501961" />
<polyline points="109,98 114,0 111,156 111,0" id="64" stroke="rgb(218,230,250)" stroke-width="1" fill="none" stroke-opacity="0.501961" />
<polyline points="169,25 101,255 140,0 143,196" id="65" stroke="rgb(147,151,155)" stroke-width="1" fill="none" stroke-opacity="0.501961" />
<polyline points="17,229 17,38 18,158 12,25" id="66" stroke="rgb(218,225,238)" stroke-width="1" fill="none" stroke-opacity="0.501961" />
<polyline points="49,255 36,24 83,251 44,48" id="67" stroke="rgb(3,0,0)" stroke-width="1" fill="none" stroke-opacity="0.501961" />
<polyline points="61,0 24,67 23,244 26,0" id="68" stroke="rgb(2,0,0)" stroke-width="1" fill="none" stroke-opacity="0.501961" />
<polyline points="98,118 88,0 93,254 18,0" id="69" stroke="rgb(11,0,0)" stroke-width="1" fill="none" stroke-opacity="0.501961" />
<polyline points="84,0 61,144 73,0 50,255" id="70" stroke="rgb(0,0,0)" stroke-width="1" fill="none" stroke-opacity="0.501961" />
<polyline points="66,107 99,0 74,120 88,17" id="71" stroke="rgb(0,0,0)" stroke-width="1" fill="none" stroke-opacity="0.501961" />
<polyline points="71,255 32,18 46,11 41,249" id="72" stroke="rgb(2,0,0)" stroke-width="1" fill="none" stroke-opacity="0.501961" />
<polyline points="158,145 131,15 129,255 159,52" id="73" stroke="rgb(153,163,172)" stroke-width="1" fill="none" stroke-opacity="0.501961" />
<polyline points="107,192 164,0 126,230 169,38" id="74" stroke="rgb(144,152,160)" stroke-width="1" fill="none" stroke-opacity="0.501961" />
<polyline points="49,0 47,84 47,14 91,245" id="75" stroke="rgb(2,0,0)" stroke-width="1" fill="none" stroke-opacity="0.501961" />
<polyline points="41,114 32,22 63,243 43,15" id="76" stroke="rgb(2,0,0)" stroke-width="1" fill="none" stroke-opacity="0.501961" />
<polyline points="119,116 138,0 169,183 121,88" id="77" stroke="rgb(155,165,172)" stroke-width="1" fill="none" stroke-opacity="0.501961" />
<polyline points="90,0 84,171 68,7 45,123" id="78" stroke="rgb(16,0,0)" stroke-width="1" fill="none" stroke-opacity="0.501961" />
<polyline points="14,25 0,57 17,24 0,140" id="79" stroke="rgb(224,238,248)" stroke-width="1" fill="none" stroke-opacity="0.501961" />
<polyline points="169,146 139,3 169,150 148,0" id="80" stroke="rgb(148,157,165)" stroke-width="1" fill="none" stroke-opacity="0.501961" />
<polyline points="0,82 17,255 0,94 20,225" id="81" stroke="rgb(165,176,172)" stroke-width="1" fill="none" stroke-opacity="0.501961" />
<polyline points="148,18 148,112 149,0 148,255" id="82" stroke="rgb(158,171,184)" stroke-width="1" fill="none" stroke-opacity="0.501961" />
<polyline points="109,145 103,255 169,6 166,218" id="83" stroke="rgb(137,141,148)" stroke-width="1" fill="none" stroke-opacity="0.501961" />
<polyline points="107,0 104,114 103,0 102,45" id="84" stroke="rgb(235,250,255)" stroke-width="1" fill="none" stroke-opacity="0.501961" />
<polyline points="130,78 113,255 139,0 112,255" id="85" stroke="rgb(141,143,147)" stroke-width="1" fill="none" stroke-opacity="0.501961" />
<polyline points="129,25 107,255 132,0 166,205" id="86" stroke="rgb(145,148,153)" stroke-width="1" fill="none" stroke-opacity="0.501961" />
<polyline points="99,255 31,57 75,255 39,125" id="87" stroke="rgb(9,0,0)" stroke-width="1" fill="none" stroke-opacity="0.501961" />
<polyline points="18,97 17,18 0,83 6,10" id="88" stroke="rgb(179,181,187)" stroke-width="1" fill="none" stroke-opacity="0.501961" />
<polyline points="0,200 4,69 17,239 0,0" id="89" stroke="rgb(164,175,175)" stroke-width="1" fill="none" stroke-opacity="0.501961" />
<polyline points="62,111 70,18 81,255 57,0" id="90" stroke="rgb(10,0,2)" stroke-width="1" fill="none" stroke-opacity="0.501961" />
<polyline points="82,255 38,166 36,255 43,39" id="91" stroke="rgb(0,0,0)" stroke-width="1" fill="none" stroke-opacity="0.501961" />
<polyline points="84,189 94,255 83,151 97,241" id="92" stroke="rgb(0,0,0)" stroke-width="1" fill="none" stroke-opacity="0.501961" />
<polyline points="42,39 103,255 87,0 101,255" id="93" stroke="rgb(16,5,8)" stroke-width="1" fill="none" stroke-opacity="0.501961" />
<polyline points="128,20 111,255 141,0 122,201" id="94" stroke="rgb(138,141,146)" stroke-width="1" fill="none" stroke-opacity="0.501961" />
</svg>