<svg xmlns="http://www.w3.org/2000/svg" width="170" height="256" baseProfile="tiny" version="1.2" viewBox="0 0 170 256"><rect id="0" width="170" height="256" x="0" y="0" fill="#545155" fill-opacity="1"/><polyline id="1" fill="none" stroke="#FFF" stroke-opacity=".502" stroke-width="1" points="16 255 14 34 17 163 13 22"/><polyline id="2" fill="none" stroke="#FFF" stroke-opacity=".502" stroke-width="1" points="113 8 108 252 112 0 107 188"/><polyline id="3" fill="none" stroke="#000" stroke-opacity=".502" stroke-width="1" points="55 0 53 255 55 0 53 244"/><polyline id="4" fill="none" stroke="#FFF" stroke-opacity=".502" stroke-width="1" points="108 0 106 240 109 3 104 153"/><polyline id="5" fill="none" stroke="#FFF" stroke-opacity=".502" stroke-width="1" points="105 179 106 0 113 195 113 10"/><polyline id="6" fill="none" stroke="#000" stroke-opacity=".502" stroke-width="1" points="39 0 38 255 39 3 39 255"/><polyline id="7" fill="none" stroke="#000" stroke-opacity=".502" stroke-width="1" points="56 0 54 255 56 2 54 253"/><polyline id="8" fill="none" stroke="#FFF" stroke-opacity=".502" stroke-width="1" points="104 0 104 186 101 0 112 159"/><polyline id="9" fill="none" stroke="#000" stroke-opacity=".502" stroke-width="1" points="46 255 83 0 40 255 40 38"/><polyline id="10" fill="none" stroke="#E4EDFE" stroke-opacity=".502" stroke-width="1" points="109 148 110 0 106 234 105 3"/><polyline id="11" fill="none" stroke="#000" stroke-opacity=".502" stroke-width="1" points="57 0 55 255 87 0 54 255"/><polyline id="12" fill="none" stroke="#FFF" stroke-opacity=".502" stroke-width="1" points="15 202 12 86 13 42 14 142"/><polyline id="13" fill="none" stroke="#FFF" stroke-opacity=".502" stroke-width="1" points="12 196 16 59 18 209 17 80"/><polyline id="14" fill="none" stroke="#000" stroke-opacity=".502" stroke-width="1" points="44 255 76 0 39 255 79 0"/><polyline id="15" fill="none" stroke="#000" stroke-opacity=".502" stroke-width="1" points="56 0 44 254 54 21 43 255"/><polyline id="16" fill="none" stroke="#000" stroke-opacity=".502" stroke-width="1" points="93 255 59 23 96 255 58 24"/><polyline id="17" fill="none" stroke="#D8DEEB" stroke-opacity=".502" stroke-width="1" points="109 160 114 46 105 244 102 0"/><polyline id="18" fill="none" stroke="#000" stroke-opacity=".502" stroke-width="1" points="56 255 89 0 48 249 93 0"/><polyline id="19" fill="none" stroke="#000" stroke-opacity=".502" stroke-width="1" points="53 0 34 255 39 0 87 255"/><polyline id="20" fill="none" stroke="#FDFFFF" stroke-opacity=".502" stroke-width="1" points="17 52 16 183 16 23 14 113"/><polyline id="21" fill="none" stroke="#000" stroke-opacity=".502" stroke-width="1" points="36 0 37 255 72 0 33 255"/><polyline id="22" fill="none" stroke="#000" stroke-opacity=".502" stroke-width="1" points="54 0 42 255 53 4 92 255"/><polyline id="23" fill="none" stroke="#000" stroke-opacity=".502" stroke-width="1" points="99 211 88 0 44 255 85 0"/><polyline id="24" fill="none" stroke="#000" stroke-opacity=".502" stroke-width="1" points="69 255 37 11 100 241 35 0"/><polyline id="25" fill="none" stroke="#B9BCC2" stroke-opacity=".502" stroke-width="1" points="115 114 103 251 133 37 146 143"/><polyline id="26" fill="none" stroke="#000" stroke-opacity=".502" stroke-width="1" points="52 0 41 255 51 9 39 255"/><polyline id="27" fill="none" stroke="#000" stroke-opacity=".502" stroke-width="1" points="55 193 98 0 101 215 96 0"/><polyline id="28" fill="none" stroke="#000" stroke-opacity=".502" stroke-width="1" points="40 0 89 255 95 0 100 229"/><polyline id="29" fill="none" stroke="#000" stroke-opacity=".502" stroke-width="1" points="63 18 45 255 77 2 56 218"/><polyline id="30" fill="none" stroke="#D3D9E3" stroke-opacity=".502" stroke-width="1" points="15 99 17 216 11 32 16 239"/><polyline id="31" fill="none" stroke="#000" stroke-opacity=".502" stroke-width="1" points="56 255 58 0 58 255 75 115"/><polyline id="32" fill="none" stroke="#000" stroke-opacity=".502" stroke-width="1" points="96 225 45 12 40 247 42 0"/><polyline id="33" fill="none" stroke="#C1D0D6" stroke-opacity=".502" stroke-width="1" points="0 132 4 0 16 214 6 67"/><polyline id="34" fill="none" stroke="#000" stroke-opacity=".502" stroke-width="1" points="33 22 61 253 67 7 67 178"/><polyline id="35" fill="none" stroke="#BBC7CF" stroke-opacity=".502" stroke-width="1" points="144 134 135 7 143 210 133 57"/><polyline id="36" fill="none" stroke="#E5EFFA" stroke-opacity=".502" stroke-width="1" points="132 86 134 58 114 18 114 213"/><polyline id="37" fill="none" stroke="#000" stroke-opacity=".502" stroke-width="1" points="97 255 94 0 98 238 59 255"/><polyline id="38" fill="none" stroke="#A3A4A9" stroke-opacity=".502" stroke-width="1" points="102 142 108 255 127 0 138 255"/><polyline id="39" fill="none" stroke="#B8BDC3" stroke-opacity=".502" stroke-width="1" points="106 223 152 18 109 255 113 94"/><polyline id="40" fill="none" stroke="#BDCED0" stroke-opacity=".502" stroke-width="1" points="16 175 0 42 15 214 0 128"/><polyline id="41" fill="none" stroke="#000" stroke-opacity=".502" stroke-width="1" points="94 75 61 0 79 255 63 2"/><polyline id="42" fill="none" stroke="#000" stroke-opacity=".502" stroke-width="1" points="57 0 97 255 86 155 84 255"/><polyline id="43" fill="none" stroke="#000" stroke-opacity=".502" stroke-width="1" points="99 3 94 255 92 10 76 113"/><polyline id="44" fill="none" stroke="#A8B0B8" stroke-opacity=".502" stroke-width="1" points="101 255 158 12 135 166 135 57"/><polyline id="45" fill="none" stroke="#000" stroke-opacity=".502" stroke-width="1" points="48 0 87 241 19 0 0 31"/><polyline id="46" fill="none" stroke="#C9E0E4" stroke-opacity=".502" stroke-width="1" points="9 27 0 162 0 54 0 41"/><polyline id="47" fill="none" stroke="#BDC8D1" stroke-opacity=".502" stroke-width="1" points="6 37 16 181 2 0 7 90"/><polyline id="48" fill="none" stroke="#BDC2CB" stroke-opacity=".502" stroke-width="1" points="115 255 115 32 115 255 161 59"/><polyline id="49" fill="none" stroke="#A4A7AB" stroke-opacity=".502" stroke-width="1" points="142 65 103 255 141 1 132 124"/><polyline id="50" fill="none" stroke="#000" stroke-opacity=".502" stroke-width="1" points="42 60 68 255 36 22 68 255"/><polyline id="51" fill="none" stroke="#000" stroke-opacity=".502" stroke-width="1" points="58 138 82 0 48 183 69 39"/><polyline id="52" fill="none" stroke="#A3A5AC" stroke-opacity=".502" stroke-width="1" points="168 0 104 255 100 7 154 8"/><polyline id="53" fill="none" stroke="#000" stroke-opacity=".502" stroke-width="1" points="50 255 91 255 65 108 78 255"/><polyline id="54" fill="none" stroke="#969CA4" stroke-opacity=".502" stroke-width="1" points="151 255 126 34 105 236 169 60"/><polyline id="55" fill="none" stroke="#020000" stroke-opacity=".502" stroke-width="1" points="26 253 21 13 69 255 99 171"/><polyline id="56" fill="none" stroke="#969CA2" stroke-opacity=".502" stroke-width="1" points="169 103 169 30 101 255 150 0"/><polyline id="57" fill="none" stroke="#979BA0" stroke-opacity=".502" stroke-width="1" points="161 0 107 255 138 111 130 0"/><polyline id="58" fill="none" stroke="#ABB0BA" stroke-opacity=".502" stroke-width="1" points="0 0 19 143 0 0 9 50"/><polyline id="59" fill="none" stroke="#000" stroke-opacity=".502" stroke-width="1" points="81 0 35 237 41 0 35 255"/><polyline id="60" fill="none" stroke="#9DACAE" stroke-opacity=".502" stroke-width="1" points="5 173 0 38 0 199 3 0"/><polyline id="61" fill="none" stroke="#C0D3D8" stroke-opacity=".502" stroke-width="1" points="8 143 0 64 15 154 10 80"/><polyline id="62" fill="none" stroke="#A1ABB1" stroke-opacity=".502" stroke-width="1" points="146 255 141 2 131 182 133 49"/><polyline id="63" fill="none" stroke="#000" stroke-opacity=".502" stroke-width="1" points="86 0 66 127 86 0 51 232"/><polyline id="64" fill="none" stroke="#DAE6FA" stroke-opacity=".502" stroke-width="1" points="109 98 114 0 111 156 111 0"/><polyline id="65" fill="none" stroke="#93979B" stroke-opacity=".502" stroke-width="1" points="169 25 101 255 140 0 143 196"/><polyline id="66" fill="none" stroke="#DAE1EE" stroke-opacity=".502" stroke-width="1" points="17 229 17 38 18 158 12 25"/><polyline id="67" fill="none" stroke="#030000" stroke-opacity=".502" stroke-width="1" points="49 255 36 24 83 251 44 48"/><polyline id="68" fill="none" stroke="#020000" stroke-opacity=".502" stroke-width="1" points="61 0 24 67 23 244 26 0"/><polyline id="69" fill="none" stroke="#0B0000" stroke-opacity=".502" stroke-width="1" points="98 118 88 0 93 254 18 0"/><polyline id="70" fill="none" stroke="#000" stroke-opacity=".502" stroke-width="1" points="84 0 61 144 73 0 50 255"/><polyline id="71" fill="none" stroke="#000" stroke-opacity=".502" stroke-width="1" points="66 107 99 0 74 120 88 17"/><polyline id="72" fill="none" stroke="#020000" stroke-opacity=".502" stroke-width="1" points="71 255 32 18 46 11 41 249"/><polyline id="73" fill="none" stroke="#99A3AC" stroke-opacity=".502" stroke-width="1" points="158 145 131 15 129 255 159 52"/><polyline id="74" fill="none" stroke="#9098A0" stroke-opacity=".502" stroke-width="1" points="107 192 164 0 126 230 169 38"/><polyline id="75" fill="none" stroke="#020000" stroke-opacity=".502" stroke-width="1" points="49 0 47 84 47 14 91 245"/><polyline id="76" fill="none" stroke="#020000" stroke-opacity=".502" stroke-width="1" points="41 114 32 22 63 243 43 15"/><polyline id="77" fill="none" stroke="#9BA5AC" stroke-opacity=".502" stroke-width="1" points="119 116 138 0 169 183 121 88"/><polyline id="78" fill="none" stroke="#100000" stroke-opacity=".502" stroke-width="1" points="90 0 84 171 68 7 45 123"/><polyline id="79" fill="none" stroke="#E0EEF8" stroke-opacity=".502" stroke-width="1" points="14 25 0 57 17 24 0 140"/><polyline id="80" fill="none" stroke="#949DA5" stroke-opacity=".502" stroke-width="1" points="169 146 139 3 169 150 148 0"/><polyline id="81" fill="none" stroke="#A5B0AC" stroke-opacity=".502" stroke-width="1" points="0 82 17 255 0 94 20 225"/><polyline id="82" fill="none" stroke="#9EABB8" stroke-opacity=".502" stroke-width="1" points="148 18 148 112 149 0 148 255"/><polyline id="83" fill="none" stroke="#898D94" stroke-opacity=".502" stroke-width="1" points="109 145 103 255 169 6 166 218"/><polyline id="84" fill="none" stroke="#EBFAFF" stroke-opacity=".502" stroke-width="1" points="107 0 104 114 103 0 102 45"/><polyline id="85" fill="none" stroke="#8D8F93" stroke-opacity=".502" stroke-width="1" points="130 78 113 255 139 0 112 255"/><polyline id="86" fill="none" stroke="#919499" stroke-opacity=".502" stroke-width="1" points="129 25 107 255 132 0 166 205"/><polyline id="87" fill="none" stroke="#090000" stroke-opacity=".502" stroke-width="1" points="99 255 31 57 75 255 39 125"/><polyline id="88" fill="none" stroke="#B3B5BB" stroke-opacity=".502" stroke-width="1" points="18 97 17 18 0 83 6 10"/><polyline id="89" fill="none" stroke="#A4AFAF" stroke-opacity=".502" stroke-width="1" points="0 200 4 69 17 239 0 0"/><polyline id="90" fill="none" stroke="#0A0002" stroke-opacity=".502" stroke-width="1" points="62 111 70 18 81 255 57 0"/><polyline id="91" fill="none" stroke="#000" stroke-opacity=".502" stroke-width="1" points="82 255 38 166 36 255 43 39"/><polyline id="92" fill="none" stroke="#000" stroke-opacity=".502" stroke-width="1" points="84 189 94 255 83 151 97 241"/><polyline id="93" fill="none" stroke="#100508" stroke-opacity=".502" stroke-width="1" points="42 39 103 255 87 0 101 255"/><polyline id="94" fill="none" stroke="#8A8D92" stroke-opacity=".502" stroke-width="1" points="128 20 111 255 141 0 122 201"/></svg>