<?xml version="1.0" standalone="no"?>
<svg xmlns="http://www.w3.org/2000/svg" version="1.2" baseProfile="tiny" width="194" height="256" viewBox="0 0 194 256">
<rect x="0" y="0" width="194" height="256" id="0" fill="rgb(164,133,132)" fill-opacity="1" />
<rect x="140" y="156" width="53" height="99" id="1" fill="rgb(0,0,0)" fill-opacity="0.501961" />
<rect x="58" y="86" width="93" height="132" id="2" fill="rgb(233,234,227)" fill-opacity="0.501961" />
<rect x="119" y="221" width="73" height="34" id="3" fill="rgb(0,0,0)" fill-opacity="0.501961" />
<rect x="111" y="11" width="66" height="45" id="4" fill="rgb(243,0,7)" fill-opacity="0.501961" />
<rect x="19" y="136" width="36" height="67" id="5" fill="rgb(3,26,35)" fill-opacity="0.501961" />
<rect x="14" y="11" width="49" height="44" id="6" fill="rgb(235,0,0)" fill-opacity="0.501961" />
<rect x="0" y="56" width="193" height="63" id="7" fill="rgb(208,210,206)" fill-opacity="0.501961" />
<rect x="157" y="116" width="22" height="36" id="8" fill="rgb(2,0,0)" fill-opacity="0.501961" />
<rect x="0" y="163" width="64" height="74" id="9" fill="rgb(75,82,82)" fill-opacity="0.501961" />
<rect x="53" y="75" width="84" height="11" id="10" fill="rgb(64,63,59)" fill-opacity="0.501961" />
<rect x="11" y="197" width="25" height="58" id="11" fill="rgb(176,210,225)" fill-opacity="0.501961" />
<rect x="0" y="0" width="193" height="11" id="12" fill="rgb(247,250,240)" fill-opacity="0.501961" />
<rect x="69" y="11" width="25" height="44" id="13" fill="rgb(235,6,28)" fill-opacity="0.501961" />
<rect x="121" y="31" width="50" height="16" id="14" fill="rgb(239,200,212)" fill-opacity="0.501961" />
<rect x="70" y="229" width="47" height="20" id="15" fill="rgb(241,247,242)" fill-opacity="0.501961" />
<rect x="32" y="237" width="27" height="18" id="16" fill="rgb(55,19,0)" fill-opacity="0.501961" />
<rect x="115" y="11" width="58" height="21" id="17" fill="rgb(185,0,0)" fill-opacity="0.501961" />
<rect x="109" y="187" width="56" height="36" id="18" fill="rgb(157,123,103)" fill-opacity="0.501961" />
<rect x="168" y="165" width="25" height="90" id="19" fill="rgb(4,11,0)" fill-opacity="0.501961" />
<rect x="6" y="113" width="128" height="24" id="20" fill="rgb(226,222,229)" fill-opacity="0.501961" />
<rect x="178" y="11" width="15" height="46" id="21" fill="rgb(245,248,236)" fill-opacity="0.501961" />
<rect x="122" y="224" width="36" height="31" id="22" fill="rgb(0,0,0)" fill-opacity="0.501961" />
<rect x="0" y="11" width="12" height="45" id="23" fill="rgb(244,250,241)" fill-opacity="0.501961" />
<rect x="14" y="49" width="132" height="6" id="24" fill="rgb(182,0,0)" fill-opacity="0.501961" />
<rect x="0" y="246" width="31" height="9" id="25" fill="rgb(255,255,255)" fill-opacity="0.501961" />
<rect x="6" y="138" width="18" height="16" id="26" fill="rgb(250,251,255)" fill-opacity="0.501961" />
<rect x="59" y="26" width="14" height="21" id="27" fill="rgb(250,238,237)" fill-opacity="0.501961" />
<rect x="40" y="202" width="35" height="21" id="28" fill="rgb(89,63,49)" fill-opacity="0.501961" />
<rect x="145" y="156" width="13" height="17" id="29" fill="rgb(0,0,5)" fill-opacity="0.501961" />
<rect x="40" y="252" width="127" height="3" id="30" fill="rgb(6,6,0)" fill-opacity="0.501961" />
<rect x="0" y="172" width="49" height="24" id="31" fill="rgb(49,37,29)" fill-opacity="0.501961" />
<rect x="84" y="16" width="26" height="33" id="32" fill="rgb(249,172,175)" fill-opacity="0.501961" />
<rect x="150" y="117" width="21" height="12" id="33" fill="rgb(0,0,0)" fill-opacity="0.501961" />
<rect x="48" y="149" width="61" height="15" id="34" fill="rgb(227,223,232)" fill-opacity="0.501961" />
<rect x="74" y="158" width="5" height="33" id="35" fill="rgb(51,45,46)" fill-opacity="0.501961" />
<rect x="113" y="200" width="7" height="22" id="36" fill="rgb(22,29,33)" fill-opacity="0.501961" />
<rect x="179" y="116" width="14" height="37" id="37" fill="rgb(218,215,202)" fill-opacity="0.501961" />
<rect x="59" y="90" width="69" height="6" id="38" fill="rgb(111,100,99)" fill-opacity="0.501961" />
<rect x="69" y="29" width="50" height="6" id="39" fill="rgb(174,0,7)" fill-opacity="0.501961" />
<rect x="119" y="31" width="23" height="20" id="40" fill="rgb(237,199,203)" fill-opacity="0.501961" />
<rect x="142" y="17" width="8" height="38" id="41" fill="rgb(189,0,3)" fill-opacity="0.501961" />
<rect x="113" y="150" width="16" height="7" id="42" fill="rgb(77,36,12)" fill-opacity="0.501961" />
<rect x="77" y="11" width="41" height="4" id="43" fill="rgb(204,0,0)" fill-opacity="0.501961" />
<rect x="93" y="58" width="22" height="82" id="44" fill="rgb(227,217,212)" fill-opacity="0.501961" />
<rect x="40" y="216" width="24" height="28" id="45" fill="rgb(192,131,97)" fill-opacity="0.501961" />
<rect x="29" y="134" width="16" height="16" id="46" fill="rgb(7,9,19)" fill-opacity="0.501961" />
<rect x="65" y="13" width="3" height="24" id="47" fill="rgb(255,255,255)" fill-opacity="0.501961" />
<rect x="52" y="43" width="36" height="4" id="48" fill="rgb(249,255,255)" fill-opacity="0.501961" />
<rect x="163" y="136" width="5" height="31" id="49" fill="rgb(226,160,132)" fill-opacity="0.501961" />
<rect x="0" y="238" width="5" height="17" id="50" fill="rgb(255,255,255)" fill-opacity="0.501961" />
<rect x="121" y="198" width="25" height="21" id="51" fill="rgb(223,211,217)" fill-opacity="0.501961" />
<rect x="129" y="189" width="44" height="14" id="52" fill="rgb(151,97,67)" fill-opacity="0.501961" />
<rect x="85" y="155" width="31" height="27" id="53" fill="rgb(241,234,234)" fill-opacity="0.501961" />
<rect x="171" y="18" width="6" height="38" id="54" fill="rgb(182,0,0)" fill-opacity="0.501961" />
<rect x="140" y="55" width="42" height="58" id="55" fill="rgb(210,195,189)" fill-opacity="0.501961" />
<rect x="0" y="217" width="7" height="21" id="56" fill="rgb(17,0,0)" fill-opacity="0.501961" />
<rect x="13" y="15" width="6" height="32" id="57" fill="rgb(192,0,0)" fill-opacity="0.501961" />
<rect x="182" y="223" width="11" height="6" id="58" fill="rgb(197,171,157)" fill-opacity="0.501961" />
<rect x="40" y="191" width="12" height="26" id="59" fill="rgb(22,14,1)" fill-opacity="0.501961" />
<rect x="158" y="170" width="35" height="22" id="60" fill="rgb(16,22,28)" fill-opacity="0.501961" />
<rect x="7" y="151" width="27" height="6" id="61" fill="rgb(218,214,220)" fill-opacity="0.501961" />
<rect x="156" y="36" width="5" height="17" id="62" fill="rgb(184,0,0)" fill-opacity="0.501961" />
<rect x="3" y="116" width="2" height="42" id="63" fill="rgb(67,0,0)" fill-opacity="0.501961" />
<rect x="12" y="91" width="13" height="16" id="64" fill="rgb(255,251,255)" fill-opacity="0.501961" />
<rect x="52" y="19" width="7" height="14" id="65" fill="rgb(233,194,207)" fill-opacity="0.501961" />
<rect x="15" y="26" width="40" height="7" id="66" fill="rgb(187,0,5)" fill-opacity="0.501961" />
<rect x="39" y="56" width="115" height="18" id="67" fill="rgb(213,202,197)" fill-opacity="0.501961" />
<rect x="50" y="34" width="9" height="11" id="68" fill="rgb(165,0,0)" fill-opacity="0.501961" />
<rect x="104" y="27" width="66" height="5" id="69" fill="rgb(186,0,4)" fill-opacity="0.501961" />
<rect x="72" y="221" width="57" height="7" id="70" fill="rgb(69,76,79)" fill-opacity="0.501961" />
<rect x="156" y="206" width="6" height="25" id="71" fill="rgb(179,164,154)" fill-opacity="0.501961" />
<rect x="166" y="122" width="13" height="21" id="72" fill="rgb(10,12,0)" fill-opacity="0.501961" />
<rect x="90" y="23" width="3" height="28" id="73" fill="rgb(158,0,0)" fill-opacity="0.501961" />
<rect x="57" y="118" width="88" height="24" id="74" fill="rgb(229,221,220)" fill-opacity="0.501961" />
<rect x="162" y="32" width="7" height="18" id="75" fill="rgb(251,255,255)" fill-opacity="0.501961" />
<rect x="22" y="11" width="66" height="3" id="76" fill="rgb(191,0,0)" fill-opacity="0.501961" />
<rect x="121" y="220" width="61" height="35" id="77" fill="rgb(19,22,0)" fill-opacity="0.501961" />
<rect x="173" y="150" width="7" height="46" id="78" fill="rgb(39,40,56)" fill-opacity="0.501961" />
<rect x="13" y="161" width="9" height="23" id="79" fill="rgb(158,146,148)" fill-opacity="0.501961" />
<rect x="99" y="34" width="13" height="5" id="80" fill="rgb(255,255,255)" fill-opacity="0.501961" />
<rect x="13" y="111" width="7" height="29" id="81" fill="rgb(162,109,125)" fill-opacity="0.501961" />
<rect x="43" y="122" width="3" height="25" id="82" fill="rgb(43,40,46)" fill-opacity="0.501961" />
<rect x="0" y="248" width="30" height="7" id="83" fill="rgb(255,255,255)" fill-opacity="0.501961" />
<rect x="87" y="141" width="22" height="8" id="84" fill="rgb(161,91,57)" fill-opacity="0.501961" />
<rect x="130" y="166" width="11" height="33" id="85" fill="rgb(145,100,79)" fill-opacity="0.501961" />
<rect x="61" y="154" width="13" height="52" id="86" fill="rgb(204,189,188)" fill-opacity="0.501961" />
<rect x="99" y="216" width="48" height="6" id="87" fill="rgb(178,168,167)" fill-opacity="0.501961" />
<rect x="8" y="110" width="2" height="48" id="88" fill="rgb(255,255,255)" fill-opacity="0.501961" />
<rect x="99" y="16" width="1" height="22" id="89" fill="rgb(255,255,255)" fill-opacity="0.501961" />
<rect x="35" y="229" width="20" height="4" id="90" fill="rgb(38,20,0)" fill-opacity="0.501961" />
<rect x="152" y="35" width="2" height="16" id="91" fill="rgb(255,255,255)" fill-opacity="0.501961" />
<rect x="173" y="104" width="20" height="17" id="92" fill="rgb(203,185,175)" fill-opacity="0.501961" />
<rect x="176" y="141" width="3" height="7" id="93" fill="rgb(255,249,241)" fill-opacity="0.501961" />
<rect x="76" y="13" width="4" height="29" id="94" fill="rgb(190,0,0)" fill-opacity="0.501961" />
<rect x="72" y="21" width="25" height="3" id="95" fill="rgb(160,0,0)" fill-opacity="0.501961" />
<rect x="53" y="210" width="7" height="14" id="96" fill="rgb(201,188,187)" fill-opacity="0.501961" />
<rect x="120" y="32" width="35" height="2" id="97" fill="rgb(255,255,255)" fill-opacity="0.501961" />
<rect x="77" y="177" width="50" height="24" id="98" fill="rgb(209,188,175)" fill-opacity="0.501961" />
<rect x="66" y="49" width="70" height="6" id="99" fill="rgb(187,0,8)" fill-opacity="0.501961" />
<rect x="0" y="193" width="54" height="3" id="100" fill="rgb(0,0,0)" fill-opacity="0.501961" />
<rect x="6" y="197" width="14" height="51" id="101" fill="rgb(107,123,136)" fill-opacity="0.501961" />
<rect x="102" y="38" width="3" height="6" id="102" fill="rgb(144,0,0)" fill-opacity="0.501961" />
<rect x="165" y="34" width="1" height="21" id="103" fill="rgb(169,0,0)" fill-opacity="0.501961" />
<rect x="146" y="40" width="16" height="2" id="104" fill="rgb(255,255,255)" fill-opacity="0.501961" />
<rect x="79" y="194" width="7" height="9" id="105" fill="rgb(80,62,44)" fill-opacity="0.501961" />
<rect x="65" y="74" width="8" height="11" id="106" fill="rgb(28,27,25)" fill-opacity="0.501961" />
<rect x="113" y="11" width="64" height="21" id="107" fill="rgb(195,0,28)" fill-opacity="0.501961" />
<rect x="52" y="156" width="6" height="30" id="108" fill="rgb(101,104,134)" fill-opacity="0.501961" />
<rect x="48" y="25" width="4" height="5" id="109" fill="rgb(246,255,255)" fill-opacity="0.501961" />
<rect x="49" y="41" width="14" height="4" id="110" fill="rgb(163,0,0)" fill-opacity="0.501961" />
<rect x="28" y="197" width="11" height="18" id="111" fill="rgb(172,191,204)" fill-opacity="0.501961" />
<rect x="63" y="229" width="49" height="23" id="112" fill="rgb(202,192,186)" fill-opacity="0.501961" />
<rect x="13" y="46" width="35" height="10" id="113" fill="rgb(198,0,15)" fill-opacity="0.501961" />
<rect x="66" y="14" width="3" height="16" id="114" fill="rgb(255,255,255)" fill-opacity="0.501961" />
<rect x="54" y="16" width="3" height="8" id="115" fill="rgb(255,255,255)" fill-opacity="0.501961" />
<rect x="0" y="81" width="6" height="43" id="116" fill="rgb(141,117,121)" fill-opacity="0.501961" />
<rect x="130" y="75" width="10" height="12" id="117" fill="rgb(64,59,54)" fill-opacity="0.501961" />
<rect x="0" y="188" width="8" height="4" id="118" fill="rgb(242,211,188)" fill-opacity="0.501961" />
<rect x="19" y="34" width="29" height="11" id="119" fill="rgb(224,142,118)" fill-opacity="0.501961" />
<rect x="189" y="126" width="4" height="35" id="120" fill="rgb(210,195,187)" fill-opacity="0.501961" />
<rect x="149" y="189" width="12" height="8" id="121" fill="rgb(220,169,133)" fill-opacity="0.501961" />
<rect x="98" y="23" width="13" height="3" id="122" fill="rgb(255,255,255)" fill-opacity="0.501961" />
<rect x="175" y="195" width="18" height="29" id="123" fill="rgb(3,8,0)" fill-opacity="0.501961" />
<rect x="146" y="159" width="17" height="14" id="124" fill="rgb(26,29,40)" fill-opacity="0.501961" />
<rect x="84" y="14" width="6" height="6" id="125" fill="rgb(255,255,255)" fill-opacity="0.501961" />
<rect x="148" y="134" width="19" height="14" id="126" fill="rgb(186,129,107)" fill-opacity="0.501961" />
<rect x="145" y="197" width="29" height="9" id="127" fill="rgb(123,79,54)" fill-opacity="0.501961" />
<rect x="55" y="24" width="5" height="4" id="128" fill="rgb(157,0,0)" fill-opacity="0.501961" />
<rect x="161" y="212" width="6" height="17" id="129" fill="rgb(140,119,112)" fill-opacity="0.501961" />
<rect x="57" y="136" width="23" height="21" id="130" fill="rgb(224,220,227)" fill-opacity="0.501961" />
<rect x="118" y="243" width="51" height="12" id="131" fill="rgb(11,14,0)" fill-opacity="0.501961" />
<rect x="14" y="16" width="40" height="3" id="132" fill="rgb(186,0,0)" fill-opacity="0.501961" />
<rect x="120" y="34" width="18" height="2" id="133" fill="rgb(175,0,0)" fill-opacity="0.501961" />
<rect x="51" y="46" width="14" height="2" id="134" fill="rgb(255,255,255)" fill-opacity="0.501961" />
<rect x="68" y="40" width="6" height="3" id="135" fill="rgb(128,0,0)" fill-opacity="0.501961" />
<rect x="104" y="187" width="7" height="9" id="136" fill="rgb(166,91,42)" fill-opacity="0.501961" />
<rect x="119" y="47" width="17" height="2" id="137" fill="rgb(255,255,255)" fill-opacity="0.501961" />
<rect x="96" y="16" width="14" height="4" id="138" fill="rgb(255,255,255)" fill-opacity="0.501961" />
<rect x="98" y="78" width="1" height="7" id="139" fill="rgb(0,0,0)" fill-opacity="0.501961" />
<rect x="78" y="75" width="8" height="9" id="140" fill="rgb(44,42,39)" fill-opacity="0.501961" />
<rect x="107" y="76" width="2" height="12" id="141" fill="rgb(17,15,11)" fill-opacity="0.501961" />
<rect x="145" y="174" width="7" height="14" id="142" fill="rgb(241,212,198)" fill-opacity="0.501961" />
<rect x="82" y="91" width="46" height="5" id="143" fill="rgb(127,120,116)" fill-opacity="0.501961" />
<rect x="89" y="200" width="30" height="2" id="144" fill="rgb(82,70,68)" fill-opacity="0.501961" />
<rect x="0" y="225" width="9" height="12" id="145" fill="rgb(44,0,0)" fill-opacity="0.501961" />
<rect x="45" y="151" width="61" height="3" id="146" fill="rgb(233,224,226)" fill-opacity="0.501961" />
<rect x="52" y="75" width="1" height="11" id="147" fill="rgb(0,0,0)" fill-opacity="0.501961" />
<rect x="140" y="155" width="22" height="5" id="148" fill="rgb(58,53,57)" fill-opacity="0.501961" />
<rect x="33" y="154" width="17" height="3" id="149" fill="rgb(13,13,19)" fill-opacity="0.501961" />
<rect x="142" y="31" width="3" height="16" id="150" fill="rgb(185,0,0)" fill-opacity="0.501961" />
<rect x="96" y="36" width="2" height="14" id="151" fill="rgb(255,255,255)" fill-opacity="0.501961" />
<rect x="108" y="33" width="3" height="7" id="152" fill="rgb(255,255,255)" fill-opacity="0.501961" />
<rect x="71" y="26" width="6" height="3" id="153" fill="rgb(255,255,255)" fill-opacity="0.501961" />
<rect x="17" y="100" width="4" height="42" id="154" fill="rgb(200,134,152)" fill-opacity="0.501961" />
<rect x="74" y="167" width="8" height="7" id="155" fill="rgb(42,40,47)" fill-opacity="0.501961" />
<rect x="119" y="155" width="3" height="6" id="156" fill="rgb(15,1,0)" fill-opacity="0.501961" />
<rect x="121" y="199" width="19" height="6" id="157" fill="rgb(238,232,232)" fill-opacity="0.501961" />
<rect x="119" y="34" width="2" height="14" id="158" fill="rgb(255,255,255)" fill-opacity="0.501961" />
<rect x="68" y="191" width="3" height="19" id="159" fill="rgb(255,247,245)" fill-opacity="0.501961" />
<rect x="0" y="152" width="7" height="24" id="160" fill="rgb(79,68,71)" fill-opacity="0.501961" />
<rect x="83" y="40" width="5" height="9" id="161" fill="rgb(252,255,255)" fill-opacity="0.501961" />
<rect x="35" y="141" width="20" height="5" id="162" fill="rgb(6,7,7)" fill-opacity="0.501961" />
<rect x="158" y="195" width="13" height="6" id="163" fill="rgb(222,159,121)" fill-opacity="0.501961" />
<rect x="48" y="90" width="14" height="46" id="164" fill="rgb(205,197,203)" fill-opacity="0.501961" />
<rect x="51" y="201" width="14" height="10" id="165" fill="rgb(108,78,70)" fill-opacity="0.501961" />
<rect x="134" y="51" width="37" height="4" id="166" fill="rgb(191,0,5)" fill-opacity="0.501961" />
<rect x="18" y="132" width="3" height="11" id="167" fill="rgb(255,255,255)" fill-opacity="0.501961" />
<rect x="114" y="202" width="5" height="8" id="168" fill="rgb(0,0,0)" fill-opacity="0.501961" />
<rect x="109" y="146" width="5" height="6" id="169" fill="rgb(139,60,17)" fill-opacity="0.501961" />
<rect x="118" y="99" width="26" height="52" id="170" fill="rgb(218,205,199)" fill-opacity="0.501961" />
<rect x="83" y="25" width="18" height="3" id="171" fill="rgb(254,254,255)" fill-opacity="0.501961" />
<rect x="89" y="40" width="5" height="11" id="172" fill="rgb(163,0,0)" fill-opacity="0.501961" />
<rect x="116" y="227" width="5" height="10" id="173" fill="rgb(211,203,174)" fill-opacity="0.501961" />
<rect x="101" y="103" width="19" height="41" id="174" fill="rgb(234,225,221)" fill-opacity="0.501961" />
<rect x="81" y="14" width="1" height="38" id="175" fill="rgb(170,4,14)" fill-opacity="0.501961" />
<rect x="103" y="20" width="42" height="3" id="176" fill="rgb(183,0,17)" fill-opacity="0.501961" />
<rect x="124" y="169" width="4" height="8" id="177" fill="rgb(93,57,52)" fill-opacity="0.501961" />
<rect x="75" y="75" width="1" height="53" id="178" fill="rgb(225,213,215)" fill-opacity="0.501961" />
<rect x="57" y="227" width="21" height="19" id="179" fill="rgb(192,175,154)" fill-opacity="0.501961" />
<rect x="154" y="144" width="20" height="11" id="180" fill="rgb(151,96,64)" fill-opacity="0.501961" />
<rect x="110" y="42" width="8" height="10" id="181" fill="rgb(187,0,0)" fill-opacity="0.501961" />
<rect x="22" y="104" width="3" height="27" id="182" fill="rgb(249,252,255)" fill-opacity="0.501961" />
<rect x="67" y="31" width="20" height="3" id="183" fill="rgb(163,0,0)" fill-opacity="0.501961" />
<rect x="5" y="102" width="2" height="17" id="184" fill="rgb(138,47,41)" fill-opacity="0.501961" />
<rect x="0" y="238" width="4" height="8" id="185" fill="rgb(255,255,255)" fill-opacity="0.501961" />
<rect x="13" y="21" width="37" height="3" id="186" fill="rgb(188,0,0)" fill-opacity="0.501961" />
<rect x="78" y="174" width="57" height="13" id="187" fill="rgb(216,202,199)" fill-opacity="0.501961" />
<rect x="159" y="128" width="19" height="7" id="188" fill="rgb(6,9,0)" fill-opacity="0.501961" />
<rect x="88" y="24" width="5" height="9" id="189" fill="rgb(180,43,52)" fill-opacity="0.501961" />
<rect x="119" y="14" width="20" height="7" id="190" fill="rgb(200,86,91)" fill-opacity="0.501961" />
<rect x="174" y="154" width="9" height="5" id="191" fill="rgb(0,7,13)" fill-opacity="0.501961" />
<rect x="113" y="30" width="6" height="18" id="192" fill="rgb(193,0,19)" fill-opacity="0.501961" />
<rect x="90" y="11" width="26" height="5" id="193" fill="rgb(202,0,5)" fill-opacity="0.501961" />
<rect x="69" y="212" width="6" height="3" id="194" fill="rgb(0,0,0)" fill-opacity="0.501961" />
<rect x="148" y="120" width="7" height="4" id="195" fill="rgb(11,6,0)" fill-opacity="0.501961" />
<rect x="64" y="47" width="19" height="8" id="196" fill="rgb(170,0,4)" fill-opacity="0.501961" />
<rect x="53" y="33" width="10" height="3" id="197" fill="rgb(125,0,0)" fill-opacity="0.501961" />
<rect x="20" y="146" width="0" height="20" id="198" fill="rgb(0,0,0)" fill-opacity="0.501961" />
<rect x="6" y="208" width="31" height="15" id="199" fill="rgb(151,170,187)" fill-opacity="0.501961" />
<rect x="158" y="207" width="5" height="8" id="200" fill="rgb(222,210,211)" fill-opacity="0.501961" />
<rect x="102" y="86" width="9" height="25" id="201" fill="rgb(223,211,206)" fill-opacity="0.501961" />
<rect x="87" y="17" width="4" height="6" id="202" fill="rgb(250,255,255)" fill-opacity="0.501961" />
<rect x="146" y="198" width="8" height="16" id="203" fill="rgb(77,63,52)" fill-opacity="0.501961" />
<rect x="81" y="22" width="18" height="2" id="204" fill="rgb(154,11,14)" fill-opacity="0.501961" />
<rect x="81" y="23" width="4" height="3" id="205" fill="rgb(255,255,255)" fill-opacity="0.501961" />
<rect x="170" y="14" width="6" height="40" id="206" fill="rgb(194,0,18)" fill-opacity="0.501961" />
<rect x="25" y="115" width="11" height="19" id="207" fill="rgb(162,153,160)" fill-opacity="0.501961" />
<rect x="38" y="165" width="20" height="8" id="208" fill="rgb(46,39,43)" fill-opacity="0.501961" />
<rect x="95" y="227" width="27" height="2" id="209" fill="rgb(99,74,37)" fill-opacity="0.501961" />
<rect x="154" y="171" width="11" height="17" id="210" fill="rgb(16,20,19)" fill-opacity="0.501961" />
<rect x="140" y="65" width="12" height="54" id="211" fill="rgb(201,185,182)" fill-opacity="0.501961" />
<rect x="99" y="40" width="2" height="6" id="212" fill="rgb(179,0,0)" fill-opacity="0.501961" />
<rect x="60" y="217" width="7" height="6" id="213" fill="rgb(25,27,26)" fill-opacity="0.501961" />
<rect x="52" y="175" width="22" height="9" id="214" fill="rgb(182,166,170)" fill-opacity="0.501961" />
<rect x="184" y="243" width="9" height="6" id="215" fill="rgb(106,81,75)" fill-opacity="0.501961" />
<rect x="11" y="131" width="5" height="14" id="216" fill="rgb(135,101,112)" fill-opacity="0.501961" />
<rect x="24" y="24" width="33" height="2" id="217" fill="rgb(227,180,151)" fill-opacity="0.501961" />
<rect x="87" y="88" width="5" height="24" id="218" fill="rgb(225,211,211)" fill-opacity="0.501961" />
<rect x="77" y="219" width="7" height="6" id="219" fill="rgb(44,33,45)" fill-opacity="0.501961" />
<rect x="134" y="164" width="9" height="9" id="220" fill="rgb(226,199,178)" fill-opacity="0.501961" />
<rect x="10" y="100" width="3" height="14" id="221" fill="rgb(255,255,255)" fill-opacity="0.501961" />
<rect x="139" y="36" width="2" height="13" id="222" fill="rgb(255,255,255)" fill-opacity="0.501961" />
<rect x="152" y="154" width="4" height="20" id="223" fill="rgb(80,79,102)" fill-opacity="0.501961" />
<rect x="22" y="136" width="8" height="6" id="224" fill="rgb(40,37,57)" fill-opacity="0.501961" />
<rect x="87" y="70" width="2" height="43" id="225" fill="rgb(209,197,195)" fill-opacity="0.501961" />
<rect x="64" y="18" width="3" height="28" id="226" fill="rgb(255,255,255)" fill-opacity="0.501961" />
<rect x="122" y="152" width="7" height="3" id="227" fill="rgb(0,6,13)" fill-opacity="0.501961" />
<rect x="89" y="204" width="15" height="5" id="228" fill="rgb(248,242,240)" fill-opacity="0.501961" />
<rect x="100" y="45" width="9" height="3" id="229" fill="rgb(255,255,255)" fill-opacity="0.501961" />
<rect x="101" y="37" width="5" height="3" id="230" fill="rgb(138,0,0)" fill-opacity="0.501961" />
<rect x="71" y="10" width="8" height="15" id="231" fill="rgb(194,0,9)" fill-opacity="0.501961" />
<rect x="29" y="55" width="25" height="23" id="232" fill="rgb(191,176,177)" fill-opacity="0.501961" />
<rect x="72" y="50" width="104" height="5" id="233" fill="rgb(192,0,26)" fill-opacity="0.501961" />
<rect x="113" y="180" width="3" height="4" id="234" fill="rgb(116,71,39)" fill-opacity="0.501961" />
<rect x="52" y="47" width="4" height="2" id="235" fill="rgb(255,255,255)" fill-opacity="0.501961" />
<rect x="60" y="13" width="3" height="15" id="236" fill="rgb(165,0,0)" fill-opacity="0.501961" />
<rect x="94" y="195" width="33" height="5" id="237" fill="rgb(234,217,204)" fill-opacity="0.501961" />
<rect x="104" y="211" width="10" height="9" id="238" fill="rgb(115,107,110)" fill-opacity="0.501961" />
<rect x="172" y="56" width="21" height="63" id="239" fill="rgb(197,182,173)" fill-opacity="0.501961" />
<rect x="170" y="160" width="20" height="24" id="240" fill="rgb(36,35,42)" fill-opacity="0.501961" />
<rect x="21" y="19" width="24" height="2" id="241" fill="rgb(232,173,136)" fill-opacity="0.501961" />
<rect x="0" y="73" width="10" height="32" id="242" fill="rgb(170,155,155)" fill-opacity="0.501961" />
<rect x="123" y="16" width="0" height="32" id="243" fill="rgb(184,0,0)" fill-opacity="0.501961" />
<rect x="36" y="249" width="23" height="6" id="244" fill="rgb(72,41,15)" fill-opacity="0.501961" />
<rect x="50" y="86" width="116" height="5" id="245" fill="rgb(198,184,181)" fill-opacity="0.501961" />
<rect x="162" y="150" width="8" height="12" id="246" fill="rgb(203,155,139)" fill-opacity="0.501961" />
<rect x="38" y="207" width="1" height="23" id="247" fill="rgb(35,38,33)" fill-opacity="0.501961" />
<rect x="57" y="29" width="9" height="3" id="248" fill="rgb(255,255,255)" fill-opacity="0.501961" />
<rect x="120" y="185" width="32" height="5" id="249" fill="rgb(184,134,111)" fill-opacity="0.501961" />
<rect x="116" y="42" width="33" height="1" id="250" fill="rgb(179,2,19)" fill-opacity="0.501961" />
<rect x="88" y="30" width="2" height="8" id="251" fill="rgb(241,191,202)" fill-opacity="0.501961" />
<rect x="153" y="199" width="2" height="32" id="252" fill="rgb(24,23,13)" fill-opacity="0.501961" />
<rect x="35" y="233" width="2" height="8" id="253" fill="rgb(15,22,21)" fill-opacity="0.501961" />
<rect x="28" y="238" width="3" height="17" id="254" fill="rgb(255,255,255)" fill-opacity="0.501961" />
<rect x="51" y="23" width="3" height="4" id="255" fill="rgb(255,255,255)" fill-opacity="0.501961" />
<rect x="124" y="156" width="12" height="9" id="256" fill="rgb(238,232,229)" fill-opacity="0.501961" />
<rect x="43" y="226" width="16" height="5" id="257" fill="rgb(170,55,47)" fill-opacity="0.501961" />
<rect x="5" y="248" width="25" height="7" id="258" fill="rgb(255,255,255)" fill-opacity="0.501961" />
<rect x="6" y="179" width="11" height="5" id="259" fill="rgb(30,33,29)" fill-opacity="0.501961" />
<rect x="84" y="199" width="5" height="7" id="260" fill="rgb(255,245,232)" fill-opacity="0.501961" />
<rect x="137" y="38" width="1" height="14" id="261" fill="rgb(195,26,37)" fill-opacity="0.501961" />
<rect x="93" y="35" width="20" height="2" id="262" fill="rgb(255,255,255)" fill-opacity="0.501961" />
<rect x="13" y="13" width="6" height="39" id="263" fill="rgb(194,0,25)" fill-opacity="0.501961" />
<rect x="175" y="151" width="5" height="51" id="264" fill="rgb(54,51,63)" fill-opacity="0.501961" />
<rect x="3" y="165" width="13" height="8" id="265" fill="rgb(163,147,141)" fill-opacity="0.501961" />
<rect x="98" y="76" width="2" height="7" id="266" fill="rgb(17,14,11)" fill-opacity="0.501961" />
<rect x="130" y="191" width="11" height="7" id="267" fill="rgb(98,54,33)" fill-opacity="0.501961" />
<rect x="46" y="216" width="14" height="5" id="268" fill="rgb(229,161,149)" fill-opacity="0.501961" />
<rect x="92" y="165" width="30" height="15" id="269" fill="rgb(228,220,218)" fill-opacity="0.501961" />
<rect x="20" y="103" width="1" height="21" id="270" fill="rgb(167,53,87)" fill-opacity="0.501961" />
<rect x="59" y="200" width="7" height="7" id="271" fill="rgb(94,65,62)" fill-opacity="0.501961" />
<rect x="103" y="48" width="6" height="5" id="272" fill="rgb(161,0,0)" fill-opacity="0.501961" />
<rect x="42" y="179" width="10" height="6" id="273" fill="rgb(76,77,80)" fill-opacity="0.501961" />
<rect x="50" y="14" width="12" height="3" id="274" fill="rgb(191,0,0)" fill-opacity="0.501961" />
<rect x="25" y="45" width="25" height="10" id="275" fill="rgb(191,0,18)" fill-opacity="0.501961" />
<rect x="61" y="74" width="2" height="30" id="276" fill="rgb(203,191,192)" fill-opacity="0.501961" />
<rect x="156" y="115" width="13" height="15" id="277" fill="rgb(48,39,26)" fill-opacity="0.501961" />
<rect x="105" y="40" width="3" height="6" id="278" fill="rgb(255,255,255)" fill-opacity="0.501961" />
<rect x="178" y="139" width="10" height="10" id="279" fill="rgb(209,195,187)" fill-opacity="0.501961" />
<rect x="187" y="139" width="6" height="19" id="280" fill="rgb(199,181,175)" fill-opacity="0.501961" />
<rect x="7" y="118" width="1" height="36" id="281" fill="rgb(245,254,254)" fill-opacity="0.501961" />
<rect x="161" y="175" width="11" height="19" id="282" fill="rgb(32,33,31)" fill-opacity="0.501961" />
<rect x="72" y="165" width="11" height="7" id="283" fill="rgb(89,85,91)" fill-opacity="0.501961" />
<rect x="4" y="238" width="24" height="1" id="284" fill="rgb(255,255,255)" fill-opacity="0.501961" />
<rect x="129" y="127" width="23" height="6" id="285" fill="rgb(215,197,191)" fill-opacity="0.501961" />
<rect x="151" y="200" width="15" height="5" id="286" fill="rgb(74,48,36)" fill-opacity="0.501961" />
<rect x="10" y="144" width="6" height="14" id="287" fill="rgb(242,246,249)" fill-opacity="0.501961" />
<rect x="54" y="196" width="6" height="7" id="288" fill="rgb(199,172,153)" fill-opacity="0.501961" />
<rect x="129" y="135" width="25" height="18" id="289" fill="rgb(215,196,193)" fill-opacity="0.501961" />
<rect x="60" y="36" width="13" height="3" id="290" fill="rgb(255,255,255)" fill-opacity="0.501961" />
<rect x="128" y="67" width="1" height="22" id="291" fill="rgb(233,217,209)" fill-opacity="0.501961" />
<rect x="18" y="151" width="1" height="36" id="292" fill="rgb(110,102,104)" fill-opacity="0.501961" />
<rect x="6" y="155" width="2" height="35" id="293" fill="rgb(47,40,35)" fill-opacity="0.501961" />
<rect x="48" y="55" width="123" height="1" id="294" fill="rgb(213,101,110)" fill-opacity="0.501961" />
<rect x="83" y="10" width="97" height="1" id="295" fill="rgb(194,123,129)" fill-opacity="0.501961" />
<rect x="68" y="26" width="7" height="4" id="296" fill="rgb(255,255,255)" fill-opacity="0.501961" />
<rect x="23" y="15" width="24" height="1" id="297" fill="rgb(252,246,189)" fill-opacity="0.501961" />
<rect x="12" y="11" width="62" height="2" id="298" fill="rgb(195,0,9)" fill-opacity="0.501961" />
<rect x="121" y="232" width="67" height="13" id="299" fill="rgb(13,15,0)" fill-opacity="0.501961" />
<rect x="24" y="181" width="5" height="5" id="300" fill="rgb(0,0,0)" fill-opacity="0.501961" />
<rect x="27" y="135" width="1" height="17" id="301" fill="rgb(33,34,46)" fill-opacity="0.501961" />
<rect x="64" y="92" width="8" height="3" id="302" fill="rgb(62,58,58)" fill-opacity="0.501961" />
<rect x="48" y="30" width="6" height="14" id="303" fill="rgb(195,0,17)" fill-opacity="0.501961" />
<rect x="16" y="87" width="7" height="12" id="304" fill="rgb(248,254,254)" fill-opacity="0.501961" />
<rect x="88" y="39" width="1" height="6" id="305" fill="rgb(180,0,0)" fill-opacity="0.501961" />
<rect x="167" y="35" width="2" height="14" id="306" fill="rgb(255,255,255)" fill-opacity="0.501961" />
<rect x="75" y="173" width="1" height="14" id="307" fill="rgb(0,0,0)" fill-opacity="0.501961" />
<rect x="51" y="253" width="67" height="2" id="308" fill="rgb(64,46,11)" fill-opacity="0.501961" />
<rect x="110" y="202" width="7" height="2" id="309" fill="rgb(1,2,0)" fill-opacity="0.501961" />
<rect x="16" y="27" width="28" height="6" id="310" fill="rgb(193,0,16)" fill-opacity="0.501961" />
<rect x="17" y="229" width="18" height="8" id="311" fill="rgb(123,143,162)" fill-opacity="0.501961" />
<rect x="12" y="120" width="2" height="26" id="312" fill="rgb(131,118,126)" fill-opacity="0.501961" />
<rect x="0" y="151" width="5" height="2" id="313" fill="rgb(54,0,5)" fill-opacity="0.501961" />
<rect x="0" y="87" width="14" height="10" id="314" fill="rgb(170,149,146)" fill-opacity="0.501961" />
<rect x="32" y="157" width="25" height="1" id="315" fill="rgb(5,6,17)" fill-opacity="0.501961" />
<rect x="59" y="101" width="14" height="67" id="316" fill="rgb(210,201,206)" fill-opacity="0.501961" />
<rect x="72" y="38" width="5" height="4" id="317" fill="rgb(180,0,0)" fill-opacity="0.501961" />
<rect x="192" y="15" width="1" height="149" id="318" fill="rgb(190,171,164)" fill-opacity="0.501961" />
<rect x="79" y="173" width="16" height="23" id="319" fill="rgb(204,196,198)" fill-opacity="0.501961" />
<rect x="35" y="186" width="20" height="10" id="320" fill="rgb(44,32,23)" fill-opacity="0.501961" />
<rect x="23" y="200" width="15" height="19" id="321" fill="rgb(164,177,188)" fill-opacity="0.501961" />
<rect x="24" y="188" width="7" height="3" id="322" fill="rgb(188,129,98)" fill-opacity="0.501961" />
<rect x="57" y="23" width="7" height="4" id="323" fill="rgb(173,0,0)" fill-opacity="0.501961" />
<rect x="26" y="67" width="22" height="54" id="324" fill="rgb(181,170,174)" fill-opacity="0.501961" />
<rect x="26" y="158" width="3" height="20" id="325" fill="rgb(79,73,140)" fill-opacity="0.501961" />
<rect x="79" y="212" width="22" height="3" id="326" fill="rgb(234,225,238)" fill-opacity="0.501961" />
<rect x="34" y="10" width="50" height="1" id="327" fill="rgb(195,139,143)" fill-opacity="0.501961" />
<rect x="119" y="32" width="3" height="18" id="328" fill="rgb(250,255,255)" fill-opacity="0.501961" />
<rect x="115" y="147" width="5" height="12" id="329" fill="rgb(192,129,95)" fill-opacity="0.501961" />
<rect x="45" y="149" width="26" height="5" id="330" fill="rgb(215,205,210)" fill-opacity="0.501961" />
<rect x="0" y="188" width="11" height="5" id="331" fill="rgb(185,156,138)" fill-opacity="0.501961" />
<rect x="0" y="196" width="17" height="4" id="332" fill="rgb(57,78,89)" fill-opacity="0.501961" />
<rect x="105" y="27" width="5" height="4" id="333" fill="rgb(137,0,0)" fill-opacity="0.501961" />
<rect x="49" y="15" width="3" height="7" id="334" fill="rgb(190,0,0)" fill-opacity="0.501961" />
<rect x="86" y="33" width="1" height="17" id="335" fill="rgb(249,255,255)" fill-opacity="0.501961" />
<rect x="75" y="30" width="11" height="9" id="336" fill="rgb(189,0,19)" fill-opacity="0.501961" />
<rect x="57" y="161" width="1" height="5" id="337" fill="rgb(3,0,53)" fill-opacity="0.501961" />
<rect x="128" y="91" width="35" height="25" id="338" fill="rgb(206,192,188)" fill-opacity="0.501961" />
<rect x="130" y="213" width="16" height="7" id="339" fill="rgb(216,198,205)" fill-opacity="0.501961" />
<rect x="184" y="159" width="5" height="57" id="340" fill="rgb(19,20,10)" fill-opacity="0.501961" />
<rect x="92" y="91" width="34" height="3" id="341" fill="rgb(118,112,109)" fill-opacity="0.501961" />
<rect x="138" y="156" width="15" height="2" id="342" fill="rgb(50,47,51)" fill-opacity="0.501961" />
<rect x="101" y="62" width="5" height="25" id="343" fill="rgb(217,205,198)" fill-opacity="0.501961" />
<rect x="124" y="36" width="13" height="2" id="344" fill="rgb(255,255,255)" fill-opacity="0.501961" />
<rect x="119" y="219" width="9" height="6" id="345" fill="rgb(82,63,56)" fill-opacity="0.501961" />
<rect x="130" y="234" width="1" height="21" id="346" fill="rgb(82,70,61)" fill-opacity="0.501961" />
<rect x="68" y="39" width="8" height="4" id="347" fill="rgb(172,0,0)" fill-opacity="0.501961" />
<rect x="101" y="17" width="1" height="12" id="348" fill="rgb(255,255,255)" fill-opacity="0.501961" />
<rect x="3" y="198" width="15" height="21" id="349" fill="rgb(114,134,149)" fill-opacity="0.501961" />
</svg>