<svg xmlns="http://www.w3.org/2000/svg" width="720" height="946" version="1.1"><polygon fill="transparent" stroke="#a49395" stroke-linejoin="miter" stroke-width="28" points="-60 172 -85 688 -43 358"/><polygon fill="transparent" stroke="#d3c5be" stroke-linejoin="miter" stroke-width="28" points="0 0 -60 172 3 14"/><polygon fill="transparent" stroke="#9c858b" stroke-linejoin="miter" stroke-width="28" points="-43 358 -85 688 28 496"/><polygon fill="transparent" stroke="#c8b5b3" stroke-linejoin="miter" stroke-width="28" points="-60 172 0 344 11 190"/><polygon fill="transparent" stroke="#baa6a5" stroke-linejoin="miter" stroke-width="28" points="-60 172 -43 358 0 344"/><polygon fill="transparent" stroke="#665562" stroke-linejoin="miter" stroke-width="28" points="-13 706 -85 688 0 945"/><polygon fill="transparent" stroke="#47140a" stroke-linejoin="miter" stroke-width="28" points="-13 706 0 945 60 860"/><polygon fill="transparent" stroke="#5f514f" stroke-linejoin="miter" stroke-width="28" points="-85 688 -13 706 58 652"/><polygon fill="transparent" stroke="#9b9498" stroke-linejoin="miter" stroke-width="28" points="61 516 28 496 68 530"/><polygon fill="transparent" stroke="#121206" stroke-linejoin="miter" stroke-width="28" points="58 652 -13 706 69 702"/><polygon fill="transparent" stroke="#8b7776" stroke-linejoin="miter" stroke-width="28" points="28 496 -85 688 58 652"/><polygon fill="transparent" stroke="#a49395" stroke-linejoin="miter" stroke-width="28" points="0 344 -43 358 28 496"/><polygon fill="transparent" stroke="#ebebeb" stroke-linejoin="miter" stroke-width="28" points="28 496 58 652 68 530"/><polygon fill="transparent" stroke="#d2c5bb" stroke-linejoin="miter" stroke-width="28" points="3 14 -60 172 11 190"/><polygon fill="transparent" stroke="#d3c5be" stroke-linejoin="miter" stroke-width="28" points="0 0 3 14 86 0"/><polygon fill="transparent" stroke="#d3c5be" stroke-linejoin="miter" stroke-width="28" points="3 14 11 190 83 136"/><polygon fill="transparent" stroke="#e70117" stroke-linejoin="miter" stroke-width="28" points="11 190 75 152 83 136"/><polygon fill="transparent" stroke="#bb5e5a" stroke-linejoin="miter" stroke-width="28" points="0 344 28 496 71 362"/><polygon fill="transparent" stroke="#e00010" stroke-linejoin="miter" stroke-width="28" points="75 152 11 190 115 186"/><polygon fill="transparent" stroke="#e40014" stroke-linejoin="miter" stroke-width="28" points="3 14 83 136 86 0"/><polygon fill="transparent" stroke="#6e838e" stroke-linejoin="miter" stroke-width="28" points="-13 706 60 860 69 702"/><polygon fill="transparent" stroke="#ff766a" stroke-linejoin="miter" stroke-width="28" points="83 136 75 152 115 186"/><polygon fill="transparent" stroke="#b7a2aa" stroke-linejoin="miter" stroke-width="28" points="71 362 28 496 100 372"/><polygon fill="transparent" stroke="#1d1d12" stroke-linejoin="miter" stroke-width="28" points="58 652 69 702 140 668"/><polygon fill="transparent" stroke="#86a0af" stroke-linejoin="miter" stroke-width="28" points="60 860 132 878 141 840"/><polygon fill="transparent" stroke="#93a5b6" stroke-linejoin="miter" stroke-width="28" points="69 702 60 860 130 738"/><polygon fill="transparent" stroke="#b9a8ab" stroke-linejoin="miter" stroke-width="28" points="71 362 100 372 143 308"/><polygon fill="transparent" stroke="#b5afb5" stroke-linejoin="miter" stroke-width="28" points="61 516 68 530 133 534"/><polygon fill="transparent" stroke="#bda9a8" stroke-linejoin="miter" stroke-width="28" points="11 190 71 362 143 308"/><polygon fill="transparent" stroke="#5d402d" stroke-linejoin="miter" stroke-width="28" points="69 702 130 738 140 668"/><polygon fill="transparent" stroke="#b8a4a3" stroke-linejoin="miter" stroke-width="28" points="11 190 0 344 71 362"/><polygon fill="transparent" stroke="#c6b7b4" stroke-linejoin="miter" stroke-width="28" points="115 186 11 190 143 308"/><polygon fill="transparent" stroke="#9eb3be" stroke-linejoin="miter" stroke-width="28" points="130 738 60 860 141 840"/><polygon fill="transparent" stroke="#ab9b9f" stroke-linejoin="miter" stroke-width="28" points="28 496 61 516 100 372"/><polygon fill="transparent" stroke="#d3c5be" stroke-linejoin="miter" stroke-width="28" points="86 0 147 28 158 18"/><polygon fill="transparent" stroke="#c8b5b3" stroke-linejoin="miter" stroke-width="28" points="115 186 143 308 155 222"/><polygon fill="transparent" stroke="#ff9f8b" stroke-linejoin="miter" stroke-width="28" points="86 0 83 136 147 28"/><polygon fill="transparent" stroke="#baa9ab" stroke-linejoin="miter" stroke-width="28" points="68 530 58 652 133 534"/><polygon fill="transparent" stroke="#fff" stroke-linejoin="miter" stroke-width="28" points="60 860 0 945 132 878"/><polygon fill="transparent" stroke="#b8a6ae" stroke-linejoin="miter" stroke-width="28" points="100 372 61 516 172 474"/><polygon fill="transparent" stroke="#2b2b39" stroke-linejoin="miter" stroke-width="28" points="61 516 133 534 172 474"/><polygon fill="transparent" stroke="#383135" stroke-linejoin="miter" stroke-width="28" points="133 534 58 652 140 668"/><polygon fill="transparent" stroke="#bcabae" stroke-linejoin="miter" stroke-width="28" points="143 308 100 372 187 324"/><polygon fill="transparent" stroke="#201d20" stroke-linejoin="miter" stroke-width="28" points="133 534 140 668 202 626"/><polygon fill="transparent" stroke="#080a00" stroke-linejoin="miter" stroke-width="28" points="140 668 130 738 213 716"/><polygon fill="transparent" stroke="#c6b6b8" stroke-linejoin="miter" stroke-width="28" points="100 372 172 474 215 394"/><polygon fill="transparent" stroke="#c2b2b4" stroke-linejoin="miter" stroke-width="28" points="187 324 100 372 215 394"/><polygon fill="transparent" stroke="#493129" stroke-linejoin="miter" stroke-width="28" points="130 738 141 840 204 824"/><polygon fill="transparent" stroke="#ff685d" stroke-linejoin="miter" stroke-width="28" points="83 136 115 186 219 130"/><polygon fill="transparent" stroke="#de010b" stroke-linejoin="miter" stroke-width="28" points="147 28 83 136 219 130"/><polygon fill="transparent" stroke="#262228" stroke-linejoin="miter" stroke-width="28" points="172 474 133 534 212 544"/><polygon fill="transparent" stroke="#cfc2ca" stroke-linejoin="miter" stroke-width="28" points="205 480 172 474 212 544"/><polygon fill="transparent" stroke="#cdc1c6" stroke-linejoin="miter" stroke-width="28" points="133 534 202 626 212 544"/><polygon fill="transparent" stroke="#fffeff" stroke-linejoin="miter" stroke-width="28" points="147 28 219 130 227 110"/><polygon fill="transparent" stroke="#d3c5be" stroke-linejoin="miter" stroke-width="28" points="86 0 158 18 230 -35"/><polygon fill="transparent" stroke="#e10012" stroke-linejoin="miter" stroke-width="28" points="115 186 155 222 219 130"/><polygon fill="transparent" stroke="#d2c5cb" stroke-linejoin="miter" stroke-width="28" points="172 474 205 480 215 394"/><polygon fill="transparent" stroke="#3f322a" stroke-linejoin="miter" stroke-width="28" points="130 738 204 824 213 716"/><polygon fill="transparent" stroke="#7e8393" stroke-linejoin="miter" stroke-width="28" points="202 626 140 668 213 716"/><polygon fill="transparent" stroke="#d87161" stroke-linejoin="miter" stroke-width="28" points="141 840 132 878 204 824"/><polygon fill="transparent" stroke="#c0b1ae" stroke-linejoin="miter" stroke-width="28" points="155 222 143 308 187 324"/><polygon fill="transparent" stroke="#e30111" stroke-linejoin="miter" stroke-width="28" points="158 18 147 28 227 110"/><polygon fill="transparent" stroke="#b2140f" stroke-linejoin="miter" stroke-width="28" points="219 130 155 222 259 200"/><polygon fill="transparent" stroke="#d4c7cb" stroke-linejoin="miter" stroke-width="28" points="215 394 205 480 244 400"/><polygon fill="transparent" stroke="#372a24" stroke-linejoin="miter" stroke-width="28" points="213 716 204 824 274 757"/><polygon fill="transparent" stroke="#dbced3" stroke-linejoin="miter" stroke-width="28" points="212 544 202 626 277 566"/><polygon fill="transparent" stroke="#daa77e" stroke-linejoin="miter" stroke-width="28" points="204 824 132 878 276 910"/><polygon fill="transparent" stroke="#cbbcb9" stroke-linejoin="miter" stroke-width="28" points="259 200 187 324 287 282"/><polygon fill="transparent" stroke="#a76167" stroke-linejoin="miter" stroke-width="28" points="202 626 213 716 284 646"/><polygon fill="transparent" stroke="#c8b9b6" stroke-linejoin="miter" stroke-width="28" points="155 222 187 324 259 200"/><polygon fill="transparent" stroke="#e3000e" stroke-linejoin="miter" stroke-width="28" points="158 18 227 110 291 56"/><polygon fill="transparent" stroke="#d3c5be" stroke-linejoin="miter" stroke-width="28" points="230 -35 158 18 291 56"/><polygon fill="transparent" stroke="#342d28" stroke-linejoin="miter" stroke-width="28" points="274 757 204 824 285 818"/><polygon fill="transparent" stroke="#ccbec0" stroke-linejoin="miter" stroke-width="28" points="187 324 215 394 244 400"/><polygon fill="transparent" stroke="#cdc1bb" stroke-linejoin="miter" stroke-width="28" points="259 200 287 282 299 241"/><polygon fill="transparent" stroke="#d1c4c5" stroke-linejoin="miter" stroke-width="28" points="277 566 202 626 284 646"/><polygon fill="transparent" stroke="#6a5b5a" stroke-linejoin="miter" stroke-width="28" points="187 324 244 400 287 282"/><polygon fill="transparent" stroke="#e0bc9f" stroke-linejoin="miter" stroke-width="28" points="204 824 276 910 285 818"/><polygon fill="transparent" stroke="#dbcecf" stroke-linejoin="miter" stroke-width="28" points="244 400 205 480 316 441"/><polygon fill="transparent" stroke="#d3c5be" stroke-linejoin="miter" stroke-width="28" points="230 -35 291 56 302 50"/><polygon fill="transparent" stroke="#e6d6d6" stroke-linejoin="miter" stroke-width="28" points="213 716 274 757 284 646"/><polygon fill="transparent" stroke="#dccfd5" stroke-linejoin="miter" stroke-width="28" points="205 480 212 544 277 566"/><polygon fill="transparent" stroke="#dfd2d8" stroke-linejoin="miter" stroke-width="28" points="205 480 277 566 316 441"/><polygon fill="transparent" stroke="#f9fcfb" stroke-linejoin="miter" stroke-width="28" points="227 110 219 130 259 200"/><polygon fill="transparent" stroke="#685453" stroke-linejoin="miter" stroke-width="28" points="277 566 284 646 346 616"/><polygon fill="transparent" stroke="#e2d4d5" stroke-linejoin="miter" stroke-width="28" points="274 757 285 818 348 798"/><polygon fill="transparent" stroke="#cdc1bb" stroke-linejoin="miter" stroke-width="28" points="299 241 287 282 331 302"/><polygon fill="transparent" stroke="#d2bebe" stroke-linejoin="miter" stroke-width="28" points="287 282 244 400 331 302"/><polygon fill="transparent" stroke="#e2d6d9" stroke-linejoin="miter" stroke-width="28" points="277 566 346 616 356 572"/><polygon fill="transparent" stroke="#e4d1d0" stroke-linejoin="miter" stroke-width="28" points="274 757 348 798 357 744"/><polygon fill="transparent" stroke="#fffcff" stroke-linejoin="miter" stroke-width="28" points="302 50 291 56 363 97"/><polygon fill="transparent" stroke="#e50110" stroke-linejoin="miter" stroke-width="28" points="291 56 227 110 363 97"/><polygon fill="transparent" stroke="#e2d6d7" stroke-linejoin="miter" stroke-width="28" points="316 441 349 454 359 413"/><polygon fill="transparent" stroke="#dacdce" stroke-linejoin="miter" stroke-width="28" points="244 400 316 441 359 413"/><polygon fill="transparent" stroke="#e0091d" stroke-linejoin="miter" stroke-width="28" points="227 110 259 200 363 97"/><polygon fill="transparent" stroke="#ccb8b0" stroke-linejoin="miter" stroke-width="28" points="284 646 274 757 357 744"/><polygon fill="transparent" stroke="#d3c5be" stroke-linejoin="miter" stroke-width="28" points="230 -35 302 50 374 -61"/><polygon fill="transparent" stroke="#d7c6c6" stroke-linejoin="miter" stroke-width="28" points="331 302 244 400 359 413"/><polygon fill="transparent" stroke="#c59487" stroke-linejoin="miter" stroke-width="28" points="349 454 277 566 356 572"/><polygon fill="transparent" stroke="#e2d6d9" stroke-linejoin="miter" stroke-width="28" points="316 441 277 566 349 454"/><polygon fill="transparent" stroke="#ab816b" stroke-linejoin="miter" stroke-width="28" points="132 878 0 945 276 910"/><polygon fill="transparent" stroke="#e5dad7" stroke-linejoin="miter" stroke-width="28" points="359 413 349 454 388 436"/><polygon fill="transparent" stroke="#d5c2bf" stroke-linejoin="miter" stroke-width="28" points="299 241 331 302 403 228"/><polygon fill="transparent" stroke="#ba0f0f" stroke-linejoin="miter" stroke-width="28" points="259 200 299 241 363 97"/><polygon fill="transparent" stroke="#dacacb" stroke-linejoin="miter" stroke-width="28" points="346 616 284 646 357 744"/><polygon fill="transparent" stroke="#8f8388" stroke-linejoin="miter" stroke-width="28" points="285 818 276 910 348 798"/><polygon fill="transparent" stroke="#b6120f" stroke-linejoin="miter" stroke-width="28" points="363 97 299 241 371 100"/><polygon fill="transparent" stroke="#e9ddde" stroke-linejoin="miter" stroke-width="28" points="356 572 346 616 421 585"/><polygon fill="transparent" stroke="#e7dbde" stroke-linejoin="miter" stroke-width="28" points="357 744 348 798 418 758"/><polygon fill="transparent" stroke="#b6120f" stroke-linejoin="miter" stroke-width="28" points="371 100 299 241 403 228"/><polygon fill="transparent" stroke="#e6dbd8" stroke-linejoin="miter" stroke-width="28" points="421 585 346 616 428 613"/><polygon fill="transparent" stroke="#614f48" stroke-linejoin="miter" stroke-width="28" points="418 758 348 798 429 785"/><polygon fill="transparent" stroke="#d6c5be" stroke-linejoin="miter" stroke-width="28" points="403 228 331 302 431 272"/><polygon fill="transparent" stroke="#c6b3b1" stroke-linejoin="miter" stroke-width="28" points="348 798 276 910 420 929"/><polygon fill="transparent" stroke="#d3c5be" stroke-linejoin="miter" stroke-width="28" points="403 228 431 272 443 242"/><polygon fill="transparent" stroke="#faffff" stroke-linejoin="miter" stroke-width="28" points="363 97 371 100 446 69"/><polygon fill="transparent" stroke="#ffeeed" stroke-linejoin="miter" stroke-width="28" points="371 100 435 92 446 69"/><polygon fill="transparent" stroke="#d3c5be" stroke-linejoin="miter" stroke-width="28" points="302 50 363 97 374 -61"/><polygon fill="transparent" stroke="#e7d8d4" stroke-linejoin="miter" stroke-width="28" points="359 413 388 436 460 405"/><polygon fill="transparent" stroke="#d4c6bd" stroke-linejoin="miter" stroke-width="28" points="374 -61 363 97 446 69"/><polygon fill="transparent" stroke="#e4d6d5" stroke-linejoin="miter" stroke-width="28" points="346 616 357 744 428 613"/><polygon fill="transparent" stroke="#e9ddde" stroke-linejoin="miter" stroke-width="28" points="349 454 356 572 388 436"/><polygon fill="transparent" stroke="#d3c2bb" stroke-linejoin="miter" stroke-width="28" points="443 242 431 272 475 269"/><polygon fill="transparent" stroke="#e0d1cb" stroke-linejoin="miter" stroke-width="28" points="431 272 359 413 460 405"/><polygon fill="transparent" stroke="#fff" stroke-linejoin="miter" stroke-width="28" points="371 100 403 228 435 92"/><polygon fill="transparent" stroke="#d9cac6" stroke-linejoin="miter" stroke-width="28" points="331 302 359 413 431 272"/><polygon fill="transparent" stroke="#a68c7d" stroke-linejoin="miter" stroke-width="28" points="348 798 420 929 429 785"/><polygon fill="transparent" stroke="#c27451" stroke-linejoin="miter" stroke-width="28" points="357 744 418 758 428 613"/><polygon fill="transparent" stroke="#c07d5d" stroke-linejoin="miter" stroke-width="28" points="388 436 356 572 421 585"/><polygon fill="transparent" stroke="#e2d3cf" stroke-linejoin="miter" stroke-width="28" points="460 405 388 436 493 444"/><polygon fill="transparent" stroke="#cababe" stroke-linejoin="miter" stroke-width="28" points="428 613 490 624 500 608"/><polygon fill="transparent" stroke="#dccdc9" stroke-linejoin="miter" stroke-width="28" points="460 405 493 444 503 414"/><polygon fill="transparent" stroke="#d1c1c1" stroke-linejoin="miter" stroke-width="28" points="421 585 428 613 500 608"/><polygon fill="transparent" stroke="#412b2f" stroke-linejoin="miter" stroke-width="28" points="418 758 429 785 492 788"/><polygon fill="transparent" stroke="#e3d2d2" stroke-linejoin="miter" stroke-width="28" points="418 758 492 788 501 780"/><polygon fill="transparent" stroke="#e30012" stroke-linejoin="miter" stroke-width="28" points="446 69 435 92 515 108"/><polygon fill="transparent" stroke="#e70011" stroke-linejoin="miter" stroke-width="28" points="507 61 446 69 515 108"/><polygon fill="transparent" stroke="#eadbd7" stroke-linejoin="miter" stroke-width="28" points="388 436 421 585 493 444"/><polygon fill="transparent" stroke="#e3cec9" stroke-linejoin="miter" stroke-width="28" points="428 613 418 758 490 624"/><polygon fill="transparent" stroke="#d0c4bc" stroke-linejoin="miter" stroke-width="28" points="431 272 460 405 475 269"/><polygon fill="transparent" stroke="#e50015" stroke-linejoin="miter" stroke-width="28" points="435 92 403 228 443 242"/><polygon fill="transparent" stroke="#d3c5be" stroke-linejoin="miter" stroke-width="28" points="374 -61 446 69 518 -71"/><polygon fill="transparent" stroke="#fb7c7c" stroke-linejoin="miter" stroke-width="28" points="435 92 443 242 515 108"/><polygon fill="transparent" stroke="#997c65" stroke-linejoin="miter" stroke-width="28" points="429 785 420 929 492 788"/><polygon fill="transparent" stroke="#d3c5be" stroke-linejoin="miter" stroke-width="28" points="0 0 86 0 230 -35"/><polygon fill="transparent" stroke="#d8c5c2" stroke-linejoin="miter" stroke-width="28" points="503 414 493 444 532 471"/><polygon fill="transparent" stroke="#e0d1cf" stroke-linejoin="miter" stroke-width="28" points="493 444 421 585 532 471"/><polygon fill="transparent" stroke="#dacbc7" stroke-linejoin="miter" stroke-width="28" points="421 585 500 608 532 471"/><polygon fill="transparent" stroke="#d3c5be" stroke-linejoin="miter" stroke-width="28" points="446 69 507 61 518 -71"/><polygon fill="transparent" stroke="#cb8f89" stroke-linejoin="miter" stroke-width="28" points="490 624 418 758 501 780"/><polygon fill="transparent" stroke="#d6c7c3" stroke-linejoin="miter" stroke-width="28" points="475 269 460 405 503 414"/><polygon fill="transparent" stroke="#80472e" stroke-linejoin="miter" stroke-width="28" points="490 624 501 780 562 741"/><polygon fill="transparent" stroke="#423123" stroke-linejoin="miter" stroke-width="28" points="562 741 501 780 573 749"/><polygon fill="transparent" stroke="#c47c82" stroke-linejoin="miter" stroke-width="28" points="532 471 565 586 572 577"/><polygon fill="transparent" stroke="#dbc8c5" stroke-linejoin="miter" stroke-width="28" points="532 471 500 608 565 586"/><polygon fill="transparent" stroke="#050500" stroke-linejoin="miter" stroke-width="28" points="492 788 420 929 564 930"/><polygon fill="transparent" stroke="#d0beb8" stroke-linejoin="miter" stroke-width="28" points="443 242 475 269 547 264"/><polygon fill="transparent" stroke="#e40011" stroke-linejoin="miter" stroke-width="28" points="507 61 515 108 590 70"/><polygon fill="transparent" stroke="#e40014" stroke-linejoin="miter" stroke-width="28" points="515 108 579 127 590 70"/><polygon fill="transparent" stroke="#de0010" stroke-linejoin="miter" stroke-width="28" points="515 108 547 264 587 225"/><polygon fill="transparent" stroke="#fffdfd" stroke-linejoin="miter" stroke-width="28" points="579 127 515 108 587 225"/><polygon fill="transparent" stroke="#cebbb7" stroke-linejoin="miter" stroke-width="28" points="547 264 575 280 587 225"/><polygon fill="transparent" stroke="#cfbeb7" stroke-linejoin="miter" stroke-width="28" points="547 264 503 414 575 280"/><polygon fill="transparent" stroke="#241814" stroke-linejoin="miter" stroke-width="28" points="475 269 503 414 547 264"/><polygon fill="transparent" stroke="#aa1a22" stroke-linejoin="miter" stroke-width="28" points="515 108 443 242 547 264"/><polygon fill="transparent" stroke="#d0bdb9" stroke-linejoin="miter" stroke-width="28" points="575 280 503 414 604 375"/><polygon fill="transparent" stroke="#d8bbac" stroke-linejoin="miter" stroke-width="28" points="500 608 490 624 565 586"/><polygon fill="transparent" stroke="#cebdb6" stroke-linejoin="miter" stroke-width="28" points="587 225 575 280 619 233"/><polygon fill="transparent" stroke="#d5c2be" stroke-linejoin="miter" stroke-width="28" points="503 414 532 471 604 375"/><polygon fill="transparent" stroke="#d3c5be" stroke-linejoin="miter" stroke-width="28" points="518 -71 507 61 590 70"/><polygon fill="transparent" stroke="#dacbc7" stroke-linejoin="miter" stroke-width="28" points="490 624 562 741 565 586"/><polygon fill="transparent" stroke="#090b00" stroke-linejoin="miter" stroke-width="28" points="501 780 492 788 564 930"/><polygon fill="transparent" stroke="#25140d" stroke-linejoin="miter" stroke-width="28" points="604 375 532 471 637 452"/><polygon fill="transparent" stroke="#271e20" stroke-linejoin="miter" stroke-width="28" points="573 749 501 780 636 796"/><polygon fill="transparent" stroke="#0e0e08" stroke-linejoin="miter" stroke-width="28" points="565 586 562 741 644 643"/><polygon fill="transparent" stroke="#3e3025" stroke-linejoin="miter" stroke-width="28" points="636 796 564 930 645 815"/><polygon fill="transparent" stroke="#060700" stroke-linejoin="miter" stroke-width="28" points="501 780 564 930 636 796"/><polygon fill="transparent" stroke="#ccb8b2" stroke-linejoin="miter" stroke-width="28" points="604 375 637 452 647 397"/><polygon fill="transparent" stroke="#0b0b01" stroke-linejoin="miter" stroke-width="28" points="572 577 565 586 644 643"/><polygon fill="transparent" stroke="#d3c5be" stroke-linejoin="miter" stroke-width="28" points="518 -71 651 31 662 -63"/><polygon fill="transparent" stroke="#d3c5be" stroke-linejoin="miter" stroke-width="28" points="518 -71 590 70 651 31"/><polygon fill="transparent" stroke="#bf967a" stroke-linejoin="miter" stroke-width="28" points="562 741 573 749 644 643"/><polygon fill="transparent" stroke="#cc8c7f" stroke-linejoin="miter" stroke-width="28" points="532 471 572 577 637 452"/><polygon fill="transparent" stroke="#e20011" stroke-linejoin="miter" stroke-width="28" points="579 127 587 225 619 233"/><polygon fill="transparent" stroke="#cab6ae" stroke-linejoin="miter" stroke-width="28" points="604 375 647 397 691 299"/><polygon fill="transparent" stroke="#cab9b0" stroke-linejoin="miter" stroke-width="28" points="575 280 604 375 691 299"/><polygon fill="transparent" stroke="#ccbbb4" stroke-linejoin="miter" stroke-width="28" points="619 233 575 280 691 299"/><polygon fill="transparent" stroke="#1e1a20" stroke-linejoin="miter" stroke-width="28" points="572 577 644 643 709 569"/><polygon fill="transparent" stroke="#060700" stroke-linejoin="miter" stroke-width="28" points="645 815 564 930 708 913"/><polygon fill="transparent" stroke="#794629" stroke-linejoin="miter" stroke-width="28" points="573 749 636 796 717 719"/><polygon fill="transparent" stroke="#0b0b08" stroke-linejoin="miter" stroke-width="28" points="644 643 573 749 717 719"/><polygon fill="transparent" stroke="#101003" stroke-linejoin="miter" stroke-width="28" points="637 452 572 577 716 547"/><polygon fill="transparent" stroke="#221f23" stroke-linejoin="miter" stroke-width="28" points="572 577 709 569 716 547"/><polygon fill="transparent" stroke="#d3c5be" stroke-linejoin="miter" stroke-width="28" points="662 -63 651 31 719 0"/><polygon fill="transparent" stroke="#1a1a10" stroke-linejoin="miter" stroke-width="28" points="708 913 564 930 719 945"/><polygon fill="transparent" stroke="#d3c5be" stroke-linejoin="miter" stroke-width="28" points="719 0 651 31 734 53"/><polygon fill="transparent" stroke="#0f0f0d" stroke-linejoin="miter" stroke-width="28" points="636 796 645 815 717 719"/><polygon fill="transparent" stroke="#e40014" stroke-linejoin="miter" stroke-width="28" points="590 70 579 127 651 31"/><polygon fill="transparent" stroke="#d3c5be" stroke-linejoin="miter" stroke-width="28" points="0 0 230 -35 374 -61"/><polygon fill="transparent" stroke="#b39384" stroke-linejoin="miter" stroke-width="28" points="276 910 0 945 420 929"/><polygon fill="transparent" stroke="#c9b6ac" stroke-linejoin="miter" stroke-width="28" points="691 299 647 397 716 547"/><polygon fill="transparent" stroke="#2e1a10" stroke-linejoin="miter" stroke-width="28" points="647 397 637 452 716 547"/><polygon fill="transparent" stroke="#0b0b01" stroke-linejoin="miter" stroke-width="28" points="645 815 708 913 717 719"/><polygon fill="transparent" stroke="#1a1815" stroke-linejoin="miter" stroke-width="28" points="709 569 644 643 717 719"/><polygon fill="transparent" stroke="#242123" stroke-linejoin="miter" stroke-width="28" points="716 547 709 569 717 719"/><polygon fill="transparent" stroke="#060700" stroke-linejoin="miter" stroke-width="28" points="564 930 420 929 719 945"/><polygon fill="transparent" stroke="#7e552f" stroke-linejoin="miter" stroke-width="28" points="420 929 0 945 719 945"/><polygon fill="transparent" stroke="#070900" stroke-linejoin="miter" stroke-width="28" points="717 719 708 913 719 945"/><polygon fill="transparent" stroke="#e30115" stroke-linejoin="miter" stroke-width="28" points="651 31 579 127 734 53"/><polygon fill="transparent" stroke="#181714" stroke-linejoin="miter" stroke-width="28" points="717 719 719 945 763 203"/><polygon fill="transparent" stroke="#d3c4bd" stroke-linejoin="miter" stroke-width="28" points="734 53 579 127 763 203"/><polygon fill="transparent" stroke="#e50015" stroke-linejoin="miter" stroke-width="28" points="579 127 619 233 763 203"/><polygon fill="transparent" stroke="#ceb5ad" stroke-linejoin="miter" stroke-width="28" points="716 547 717 719 763 203"/><polygon fill="transparent" stroke="#ccbbb4" stroke-linejoin="miter" stroke-width="28" points="619 233 691 299 763 203"/><polygon fill="transparent" stroke="#bfa59e" stroke-linejoin="miter" stroke-width="28" points="691 299 716 547 763 203"/></svg>