<svg xmlns="http://www.w3.org/2000/svg" width="194" height="256" baseProfile="tiny" version="1.2" viewBox="0 0 194 256"><rect id="0" width="194" height="256" x="0" y="0" fill="#A48584" fill-opacity="1"/><rect id="1" width="53" height="99" x="140" y="156" fill="#000" fill-opacity=".502"/><rect id="2" width="93" height="132" x="58" y="86" fill="#E9EAE3" fill-opacity=".502"/><rect id="3" width="73" height="34" x="119" y="221" fill="#000" fill-opacity=".502"/><rect id="4" width="66" height="45" x="111" y="11" fill="#F30007" fill-opacity=".502"/><rect id="5" width="36" height="67" x="19" y="136" fill="#031A23" fill-opacity=".502"/><rect id="6" width="49" height="44" x="14" y="11" fill="#EB0000" fill-opacity=".502"/><rect id="7" width="193" height="63" x="0" y="56" fill="#D0D2CE" fill-opacity=".502"/><rect id="8" width="22" height="36" x="157" y="116" fill="#020000" fill-opacity=".502"/><rect id="9" width="64" height="74" x="0" y="163" fill="#4B5252" fill-opacity=".502"/><rect id="10" width="84" height="11" x="53" y="75" fill="#403F3B" fill-opacity=".502"/><rect id="11" width="25" height="58" x="11" y="197" fill="#B0D2E1" fill-opacity=".502"/><rect id="12" width="193" height="11" x="0" y="0" fill="#F7FAF0" fill-opacity=".502"/><rect id="13" width="25" height="44" x="69" y="11" fill="#EB061C" fill-opacity=".502"/><rect id="14" width="50" height="16" x="121" y="31" fill="#EFC8D4" fill-opacity=".502"/><rect id="15" width="47" height="20" x="70" y="229" fill="#F1F7F2" fill-opacity=".502"/><rect id="16" width="27" height="18" x="32" y="237" fill="#371300" fill-opacity=".502"/><rect id="17" width="58" height="21" x="115" y="11" fill="#B90000" fill-opacity=".502"/><rect id="18" width="56" height="36" x="109" y="187" fill="#9D7B67" fill-opacity=".502"/><rect id="19" width="25" height="90" x="168" y="165" fill="#040B00" fill-opacity=".502"/><rect id="20" width="128" height="24" x="6" y="113" fill="#E2DEE5" fill-opacity=".502"/><rect id="21" width="15" height="46" x="178" y="11" fill="#F5F8EC" fill-opacity=".502"/><rect id="22" width="36" height="31" x="122" y="224" fill="#000" fill-opacity=".502"/><rect id="23" width="12" height="45" x="0" y="11" fill="#F4FAF1" fill-opacity=".502"/><rect id="24" width="132" height="6" x="14" y="49" fill="#B60000" fill-opacity=".502"/><rect id="25" width="31" height="9" x="0" y="246" fill="#FFF" fill-opacity=".502"/><rect id="26" width="18" height="16" x="6" y="138" fill="#FAFBFF" fill-opacity=".502"/><rect id="27" width="14" height="21" x="59" y="26" fill="#FAEEED" fill-opacity=".502"/><rect id="28" width="35" height="21" x="40" y="202" fill="#593F31" fill-opacity=".502"/><rect id="29" width="13" height="17" x="145" y="156" fill="#000005" fill-opacity=".502"/><rect id="30" width="127" height="3" x="40" y="252" fill="#060600" fill-opacity=".502"/><rect id="31" width="49" height="24" x="0" y="172" fill="#31251D" fill-opacity=".502"/><rect id="32" width="26" height="33" x="84" y="16" fill="#F9ACAF" fill-opacity=".502"/><rect id="33" width="21" height="12" x="150" y="117" fill="#000" fill-opacity=".502"/><rect id="34" width="61" height="15" x="48" y="149" fill="#E3DFE8" fill-opacity=".502"/><rect id="35" width="5" height="33" x="74" y="158" fill="#332D2E" fill-opacity=".502"/><rect id="36" width="7" height="22" x="113" y="200" fill="#161D21" fill-opacity=".502"/><rect id="37" width="14" height="37" x="179" y="116" fill="#DAD7CA" fill-opacity=".502"/><rect id="38" width="69" height="6" x="59" y="90" fill="#6F6463" fill-opacity=".502"/><rect id="39" width="50" height="6" x="69" y="29" fill="#AE0007" fill-opacity=".502"/><rect id="40" width="23" height="20" x="119" y="31" fill="#EDC7CB" fill-opacity=".502"/><rect id="41" width="8" height="38" x="142" y="17" fill="#BD0003" fill-opacity=".502"/><rect id="42" width="16" height="7" x="113" y="150" fill="#4D240C" fill-opacity=".502"/><rect id="43" width="41" height="4" x="77" y="11" fill="#C00" fill-opacity=".502"/><rect id="44" width="22" height="82" x="93" y="58" fill="#E3D9D4" fill-opacity=".502"/><rect id="45" width="24" height="28" x="40" y="216" fill="#C08361" fill-opacity=".502"/><rect id="46" width="16" height="16" x="29" y="134" fill="#070913" fill-opacity=".502"/><rect id="47" width="3" height="24" x="65" y="13" fill="#FFF" fill-opacity=".502"/><rect id="48" width="36" height="4" x="52" y="43" fill="#F9FFFF" fill-opacity=".502"/><rect id="49" width="5" height="31" x="163" y="136" fill="#E2A084" fill-opacity=".502"/><rect id="50" width="5" height="17" x="0" y="238" fill="#FFF" fill-opacity=".502"/><rect id="51" width="25" height="21" x="121" y="198" fill="#DFD3D9" fill-opacity=".502"/><rect id="52" width="44" height="14" x="129" y="189" fill="#976143" fill-opacity=".502"/><rect id="53" width="31" height="27" x="85" y="155" fill="#F1EAEA" fill-opacity=".502"/><rect id="54" width="6" height="38" x="171" y="18" fill="#B60000" fill-opacity=".502"/><rect id="55" width="42" height="58" x="140" y="55" fill="#D2C3BD" fill-opacity=".502"/><rect id="56" width="7" height="21" x="0" y="217" fill="#100" fill-opacity=".502"/><rect id="57" width="6" height="32" x="13" y="15" fill="#C00000" fill-opacity=".502"/><rect id="58" width="11" height="6" x="182" y="223" fill="#C5AB9D" fill-opacity=".502"/><rect id="59" width="12" height="26" x="40" y="191" fill="#160E01" fill-opacity=".502"/><rect id="60" width="35" height="22" x="158" y="170" fill="#10161C" fill-opacity=".502"/><rect id="61" width="27" height="6" x="7" y="151" fill="#DAD6DC" fill-opacity=".502"/><rect id="62" width="5" height="17" x="156" y="36" fill="#B80000" fill-opacity=".502"/><rect id="63" width="2" height="42" x="3" y="116" fill="#430000" fill-opacity=".502"/><rect id="64" width="13" height="16" x="12" y="91" fill="#FFFBFF" fill-opacity=".502"/><rect id="65" width="7" height="14" x="52" y="19" fill="#E9C2CF" fill-opacity=".502"/><rect id="66" width="40" height="7" x="15" y="26" fill="#BB0005" fill-opacity=".502"/><rect id="67" width="115" height="18" x="39" y="56" fill="#D5CAC5" fill-opacity=".502"/><rect id="68" width="9" height="11" x="50" y="34" fill="#A50000" fill-opacity=".502"/><rect id="69" width="66" height="5" x="104" y="27" fill="#BA0004" fill-opacity=".502"/><rect id="70" width="57" height="7" x="72" y="221" fill="#454C4F" fill-opacity=".502"/><rect id="71" width="6" height="25" x="156" y="206" fill="#B3A49A" fill-opacity=".502"/><rect id="72" width="13" height="21" x="166" y="122" fill="#0A0C00" fill-opacity=".502"/><rect id="73" width="3" height="28" x="90" y="23" fill="#9E0000" fill-opacity=".502"/><rect id="74" width="88" height="24" x="57" y="118" fill="#E5DDDC" fill-opacity=".502"/><rect id="75" width="7" height="18" x="162" y="32" fill="#FBFFFF" fill-opacity=".502"/><rect id="76" width="66" height="3" x="22" y="11" fill="#BF0000" fill-opacity=".502"/><rect id="77" width="61" height="35" x="121" y="220" fill="#131600" fill-opacity=".502"/><rect id="78" width="7" height="46" x="173" y="150" fill="#272838" fill-opacity=".502"/><rect id="79" width="9" height="23" x="13" y="161" fill="#9E9294" fill-opacity=".502"/><rect id="80" width="13" height="5" x="99" y="34" fill="#FFF" fill-opacity=".502"/><rect id="81" width="7" height="29" x="13" y="111" fill="#A26D7D" fill-opacity=".502"/><rect id="82" width="3" height="25" x="43" y="122" fill="#2B282E" fill-opacity=".502"/><rect id="83" width="30" height="7" x="0" y="248" fill="#FFF" fill-opacity=".502"/><rect id="84" width="22" height="8" x="87" y="141" fill="#A15B39" fill-opacity=".502"/><rect id="85" width="11" height="33" x="130" y="166" fill="#91644F" fill-opacity=".502"/><rect id="86" width="13" height="52" x="61" y="154" fill="#CCBDBC" fill-opacity=".502"/><rect id="87" width="48" height="6" x="99" y="216" fill="#B2A8A7" fill-opacity=".502"/><rect id="88" width="2" height="48" x="8" y="110" fill="#FFF" fill-opacity=".502"/><rect id="89" width="1" height="22" x="99" y="16" fill="#FFF" fill-opacity=".502"/><rect id="90" width="20" height="4" x="35" y="229" fill="#261400" fill-opacity=".502"/><rect id="91" width="2" height="16" x="152" y="35" fill="#FFF" fill-opacity=".502"/><rect id="92" width="20" height="17" x="173" y="104" fill="#CBB9AF" fill-opacity=".502"/><rect id="93" width="3" height="7" x="176" y="141" fill="#FFF9F1" fill-opacity=".502"/><rect id="94" width="4" height="29" x="76" y="13" fill="#BE0000" fill-opacity=".502"/><rect id="95" width="25" height="3" x="72" y="21" fill="#A00000" fill-opacity=".502"/><rect id="96" width="7" height="14" x="53" y="210" fill="#C9BCBB" fill-opacity=".502"/><rect id="97" width="35" height="2" x="120" y="32" fill="#FFF" fill-opacity=".502"/><rect id="98" width="50" height="24" x="77" y="177" fill="#D1BCAF" fill-opacity=".502"/><rect id="99" width="70" height="6" x="66" y="49" fill="#BB0008" fill-opacity=".502"/><rect id="100" width="54" height="3" x="0" y="193" fill="#000" fill-opacity=".502"/><rect id="101" width="14" height="51" x="6" y="197" fill="#6B7B88" fill-opacity=".502"/><rect id="102" width="3" height="6" x="102" y="38" fill="#900000" fill-opacity=".502"/><rect id="103" width="1" height="21" x="165" y="34" fill="#A90000" fill-opacity=".502"/><rect id="104" width="16" height="2" x="146" y="40" fill="#FFF" fill-opacity=".502"/><rect id="105" width="7" height="9" x="79" y="194" fill="#503E2C" fill-opacity=".502"/><rect id="106" width="8" height="11" x="65" y="74" fill="#1C1B19" fill-opacity=".502"/><rect id="107" width="64" height="21" x="113" y="11" fill="#C3001C" fill-opacity=".502"/><rect id="108" width="6" height="30" x="52" y="156" fill="#656886" fill-opacity=".502"/><rect id="109" width="4" height="5" x="48" y="25" fill="#F6FFFF" fill-opacity=".502"/><rect id="110" width="14" height="4" x="49" y="41" fill="#A30000" fill-opacity=".502"/><rect id="111" width="11" height="18" x="28" y="197" fill="#ACBFCC" fill-opacity=".502"/><rect id="112" width="49" height="23" x="63" y="229" fill="#CAC0BA" fill-opacity=".502"/><rect id="113" width="35" height="10" x="13" y="46" fill="#C6000F" fill-opacity=".502"/><rect id="114" width="3" height="16" x="66" y="14" fill="#FFF" fill-opacity=".502"/><rect id="115" width="3" height="8" x="54" y="16" fill="#FFF" fill-opacity=".502"/><rect id="116" width="6" height="43" x="0" y="81" fill="#8D7579" fill-opacity=".502"/><rect id="117" width="10" height="12" x="130" y="75" fill="#403B36" fill-opacity=".502"/><rect id="118" width="8" height="4" x="0" y="188" fill="#F2D3BC" fill-opacity=".502"/><rect id="119" width="29" height="11" x="19" y="34" fill="#E08E76" fill-opacity=".502"/><rect id="120" width="4" height="35" x="189" y="126" fill="#D2C3BB" fill-opacity=".502"/><rect id="121" width="12" height="8" x="149" y="189" fill="#DCA985" fill-opacity=".502"/><rect id="122" width="13" height="3" x="98" y="23" fill="#FFF" fill-opacity=".502"/><rect id="123" width="18" height="29" x="175" y="195" fill="#030800" fill-opacity=".502"/><rect id="124" width="17" height="14" x="146" y="159" fill="#1A1D28" fill-opacity=".502"/><rect id="125" width="6" height="6" x="84" y="14" fill="#FFF" fill-opacity=".502"/><rect id="126" width="19" height="14" x="148" y="134" fill="#BA816B" fill-opacity=".502"/><rect id="127" width="29" height="9" x="145" y="197" fill="#7B4F36" fill-opacity=".502"/><rect id="128" width="5" height="4" x="55" y="24" fill="#9D0000" fill-opacity=".502"/><rect id="129" width="6" height="17" x="161" y="212" fill="#8C7770" fill-opacity=".502"/><rect id="130" width="23" height="21" x="57" y="136" fill="#E0DCE3" fill-opacity=".502"/><rect id="131" width="51" height="12" x="118" y="243" fill="#0B0E00" fill-opacity=".502"/><rect id="132" width="40" height="3" x="14" y="16" fill="#BA0000" fill-opacity=".502"/><rect id="133" width="18" height="2" x="120" y="34" fill="#AF0000" fill-opacity=".502"/><rect id="134" width="14" height="2" x="51" y="46" fill="#FFF" fill-opacity=".502"/><rect id="135" width="6" height="3" x="68" y="40" fill="maroon" fill-opacity=".502"/><rect id="136" width="7" height="9" x="104" y="187" fill="#A65B2A" fill-opacity=".502"/><rect id="137" width="17" height="2" x="119" y="47" fill="#FFF" fill-opacity=".502"/><rect id="138" width="14" height="4" x="96" y="16" fill="#FFF" fill-opacity=".502"/><rect id="139" width="1" height="7" x="98" y="78" fill="#000" fill-opacity=".502"/><rect id="140" width="8" height="9" x="78" y="75" fill="#2C2A27" fill-opacity=".502"/><rect id="141" width="2" height="12" x="107" y="76" fill="#110F0B" fill-opacity=".502"/><rect id="142" width="7" height="14" x="145" y="174" fill="#F1D4C6" fill-opacity=".502"/><rect id="143" width="46" height="5" x="82" y="91" fill="#7F7874" fill-opacity=".502"/><rect id="144" width="30" height="2" x="89" y="200" fill="#524644" fill-opacity=".502"/><rect id="145" width="9" height="12" x="0" y="225" fill="#2C0000" fill-opacity=".502"/><rect id="146" width="61" height="3" x="45" y="151" fill="#E9E0E2" fill-opacity=".502"/><rect id="147" width="1" height="11" x="52" y="75" fill="#000" fill-opacity=".502"/><rect id="148" width="22" height="5" x="140" y="155" fill="#3A3539" fill-opacity=".502"/><rect id="149" width="17" height="3" x="33" y="154" fill="#0D0D13" fill-opacity=".502"/><rect id="150" width="3" height="16" x="142" y="31" fill="#B90000" fill-opacity=".502"/><rect id="151" width="2" height="14" x="96" y="36" fill="#FFF" fill-opacity=".502"/><rect id="152" width="3" height="7" x="108" y="33" fill="#FFF" fill-opacity=".502"/><rect id="153" width="6" height="3" x="71" y="26" fill="#FFF" fill-opacity=".502"/><rect id="154" width="4" height="42" x="17" y="100" fill="#C88698" fill-opacity=".502"/><rect id="155" width="8" height="7" x="74" y="167" fill="#2A282F" fill-opacity=".502"/><rect id="156" width="3" height="6" x="119" y="155" fill="#0F0100" fill-opacity=".502"/><rect id="157" width="19" height="6" x="121" y="199" fill="#EEE8E8" fill-opacity=".502"/><rect id="158" width="2" height="14" x="119" y="34" fill="#FFF" fill-opacity=".502"/><rect id="159" width="3" height="19" x="68" y="191" fill="#FFF7F5" fill-opacity=".502"/><rect id="160" width="7" height="24" x="0" y="152" fill="#4F4447" fill-opacity=".502"/><rect id="161" width="5" height="9" x="83" y="40" fill="#FCFFFF" fill-opacity=".502"/><rect id="162" width="20" height="5" x="35" y="141" fill="#060707" fill-opacity=".502"/><rect id="163" width="13" height="6" x="158" y="195" fill="#DE9F79" fill-opacity=".502"/><rect id="164" width="14" height="46" x="48" y="90" fill="#CDC5CB" fill-opacity=".502"/><rect id="165" width="14" height="10" x="51" y="201" fill="#6C4E46" fill-opacity=".502"/><rect id="166" width="37" height="4" x="134" y="51" fill="#BF0005" fill-opacity=".502"/><rect id="167" width="3" height="11" x="18" y="132" fill="#FFF" fill-opacity=".502"/><rect id="168" width="5" height="8" x="114" y="202" fill="#000" fill-opacity=".502"/><rect id="169" width="5" height="6" x="109" y="146" fill="#8B3C11" fill-opacity=".502"/><rect id="170" width="26" height="52" x="118" y="99" fill="#DACDC7" fill-opacity=".502"/><rect id="171" width="18" height="3" x="83" y="25" fill="#FEFEFF" fill-opacity=".502"/><rect id="172" width="5" height="11" x="89" y="40" fill="#A30000" fill-opacity=".502"/><rect id="173" width="5" height="10" x="116" y="227" fill="#D3CBAE" fill-opacity=".502"/><rect id="174" width="19" height="41" x="101" y="103" fill="#EAE1DD" fill-opacity=".502"/><rect id="175" width="1" height="38" x="81" y="14" fill="#AA040E" fill-opacity=".502"/><rect id="176" width="42" height="3" x="103" y="20" fill="#B70011" fill-opacity=".502"/><rect id="177" width="4" height="8" x="124" y="169" fill="#5D3934" fill-opacity=".502"/><rect id="178" width="1" height="53" x="75" y="75" fill="#E1D5D7" fill-opacity=".502"/><rect id="179" width="21" height="19" x="57" y="227" fill="#C0AF9A" fill-opacity=".502"/><rect id="180" width="20" height="11" x="154" y="144" fill="#976040" fill-opacity=".502"/><rect id="181" width="8" height="10" x="110" y="42" fill="#B00" fill-opacity=".502"/><rect id="182" width="3" height="27" x="22" y="104" fill="#F9FCFF" fill-opacity=".502"/><rect id="183" width="20" height="3" x="67" y="31" fill="#A30000" fill-opacity=".502"/><rect id="184" width="2" height="17" x="5" y="102" fill="#8A2F29" fill-opacity=".502"/><rect id="185" width="4" height="8" x="0" y="238" fill="#FFF" fill-opacity=".502"/><rect id="186" width="37" height="3" x="13" y="21" fill="#BC0000" fill-opacity=".502"/><rect id="187" width="57" height="13" x="78" y="174" fill="#D8CAC7" fill-opacity=".502"/><rect id="188" width="19" height="7" x="159" y="128" fill="#060900" fill-opacity=".502"/><rect id="189" width="5" height="9" x="88" y="24" fill="#B42B34" fill-opacity=".502"/><rect id="190" width="20" height="7" x="119" y="14" fill="#C8565B" fill-opacity=".502"/><rect id="191" width="9" height="5" x="174" y="154" fill="#00070D" fill-opacity=".502"/><rect id="192" width="6" height="18" x="113" y="30" fill="#C10013" fill-opacity=".502"/><rect id="193" width="26" height="5" x="90" y="11" fill="#CA0005" fill-opacity=".502"/><rect id="194" width="6" height="3" x="69" y="212" fill="#000" fill-opacity=".502"/><rect id="195" width="7" height="4" x="148" y="120" fill="#0B0600" fill-opacity=".502"/><rect id="196" width="19" height="8" x="64" y="47" fill="#AA0004" fill-opacity=".502"/><rect id="197" width="10" height="3" x="53" y="33" fill="#7D0000" fill-opacity=".502"/><rect id="198" width="0" height="20" x="20" y="146" fill="#000" fill-opacity=".502"/><rect id="199" width="31" height="15" x="6" y="208" fill="#97AABB" fill-opacity=".502"/><rect id="200" width="5" height="8" x="158" y="207" fill="#DED2D3" fill-opacity=".502"/><rect id="201" width="9" height="25" x="102" y="86" fill="#DFD3CE" fill-opacity=".502"/><rect id="202" width="4" height="6" x="87" y="17" fill="#FAFFFF" fill-opacity=".502"/><rect id="203" width="8" height="16" x="146" y="198" fill="#4D3F34" fill-opacity=".502"/><rect id="204" width="18" height="2" x="81" y="22" fill="#9A0B0E" fill-opacity=".502"/><rect id="205" width="4" height="3" x="81" y="23" fill="#FFF" fill-opacity=".502"/><rect id="206" width="6" height="40" x="170" y="14" fill="#C20012" fill-opacity=".502"/><rect id="207" width="11" height="19" x="25" y="115" fill="#A299A0" fill-opacity=".502"/><rect id="208" width="20" height="8" x="38" y="165" fill="#2E272B" fill-opacity=".502"/><rect id="209" width="27" height="2" x="95" y="227" fill="#634A25" fill-opacity=".502"/><rect id="210" width="11" height="17" x="154" y="171" fill="#101413" fill-opacity=".502"/><rect id="211" width="12" height="54" x="140" y="65" fill="#C9B9B6" fill-opacity=".502"/><rect id="212" width="2" height="6" x="99" y="40" fill="#B30000" fill-opacity=".502"/><rect id="213" width="7" height="6" x="60" y="217" fill="#191B1A" fill-opacity=".502"/><rect id="214" width="22" height="9" x="52" y="175" fill="#B6A6AA" fill-opacity=".502"/><rect id="215" width="9" height="6" x="184" y="243" fill="#6A514B" fill-opacity=".502"/><rect id="216" width="5" height="14" x="11" y="131" fill="#876570" fill-opacity=".502"/><rect id="217" width="33" height="2" x="24" y="24" fill="#E3B497" fill-opacity=".502"/><rect id="218" width="5" height="24" x="87" y="88" fill="#E1D3D3" fill-opacity=".502"/><rect id="219" width="7" height="6" x="77" y="219" fill="#2C212D" fill-opacity=".502"/><rect id="220" width="9" height="9" x="134" y="164" fill="#E2C7B2" fill-opacity=".502"/><rect id="221" width="3" height="14" x="10" y="100" fill="#FFF" fill-opacity=".502"/><rect id="222" width="2" height="13" x="139" y="36" fill="#FFF" fill-opacity=".502"/><rect id="223" width="4" height="20" x="152" y="154" fill="#504F66" fill-opacity=".502"/><rect id="224" width="8" height="6" x="22" y="136" fill="#282539" fill-opacity=".502"/><rect id="225" width="2" height="43" x="87" y="70" fill="#D1C5C3" fill-opacity=".502"/><rect id="226" width="3" height="28" x="64" y="18" fill="#FFF" fill-opacity=".502"/><rect id="227" width="7" height="3" x="122" y="152" fill="#00060D" fill-opacity=".502"/><rect id="228" width="15" height="5" x="89" y="204" fill="#F8F2F0" fill-opacity=".502"/><rect id="229" width="9" height="3" x="100" y="45" fill="#FFF" fill-opacity=".502"/><rect id="230" width="5" height="3" x="101" y="37" fill="#8A0000" fill-opacity=".502"/><rect id="231" width="8" height="15" x="71" y="10" fill="#C20009" fill-opacity=".502"/><rect id="232" width="25" height="23" x="29" y="55" fill="#BFB0B1" fill-opacity=".502"/><rect id="233" width="104" height="5" x="72" y="50" fill="#C0001A" fill-opacity=".502"/><rect id="234" width="3" height="4" x="113" y="180" fill="#744727" fill-opacity=".502"/><rect id="235" width="4" height="2" x="52" y="47" fill="#FFF" fill-opacity=".502"/><rect id="236" width="3" height="15" x="60" y="13" fill="#A50000" fill-opacity=".502"/><rect id="237" width="33" height="5" x="94" y="195" fill="#EAD9CC" fill-opacity=".502"/><rect id="238" width="10" height="9" x="104" y="211" fill="#736B6E" fill-opacity=".502"/><rect id="239" width="21" height="63" x="172" y="56" fill="#C5B6AD" fill-opacity=".502"/><rect id="240" width="20" height="24" x="170" y="160" fill="#24232A" fill-opacity=".502"/><rect id="241" width="24" height="2" x="21" y="19" fill="#E8AD88" fill-opacity=".502"/><rect id="242" width="10" height="32" x="0" y="73" fill="#AA9B9B" fill-opacity=".502"/><rect id="243" width="0" height="32" x="123" y="16" fill="#B80000" fill-opacity=".502"/><rect id="244" width="23" height="6" x="36" y="249" fill="#48290F" fill-opacity=".502"/><rect id="245" width="116" height="5" x="50" y="86" fill="#C6B8B5" fill-opacity=".502"/><rect id="246" width="8" height="12" x="162" y="150" fill="#CB9B8B" fill-opacity=".502"/><rect id="247" width="1" height="23" x="38" y="207" fill="#232621" fill-opacity=".502"/><rect id="248" width="9" height="3" x="57" y="29" fill="#FFF" fill-opacity=".502"/><rect id="249" width="32" height="5" x="120" y="185" fill="#B8866F" fill-opacity=".502"/><rect id="250" width="33" height="1" x="116" y="42" fill="#B30213" fill-opacity=".502"/><rect id="251" width="2" height="8" x="88" y="30" fill="#F1BFCA" fill-opacity=".502"/><rect id="252" width="2" height="32" x="153" y="199" fill="#18170D" fill-opacity=".502"/><rect id="253" width="2" height="8" x="35" y="233" fill="#0F1615" fill-opacity=".502"/><rect id="254" width="3" height="17" x="28" y="238" fill="#FFF" fill-opacity=".502"/><rect id="255" width="3" height="4" x="51" y="23" fill="#FFF" fill-opacity=".502"/><rect id="256" width="12" height="9" x="124" y="156" fill="#EEE8E5" fill-opacity=".502"/><rect id="257" width="16" height="5" x="43" y="226" fill="#AA372F" fill-opacity=".502"/><rect id="258" width="25" height="7" x="5" y="248" fill="#FFF" fill-opacity=".502"/><rect id="259" width="11" height="5" x="6" y="179" fill="#1E211D" fill-opacity=".502"/><rect id="260" width="5" height="7" x="84" y="199" fill="#FFF5E8" fill-opacity=".502"/><rect id="261" width="1" height="14" x="137" y="38" fill="#C31A25" fill-opacity=".502"/><rect id="262" width="20" height="2" x="93" y="35" fill="#FFF" fill-opacity=".502"/><rect id="263" width="6" height="39" x="13" y="13" fill="#C20019" fill-opacity=".502"/><rect id="264" width="5" height="51" x="175" y="151" fill="#36333F" fill-opacity=".502"/><rect id="265" width="13" height="8" x="3" y="165" fill="#A3938D" fill-opacity=".502"/><rect id="266" width="2" height="7" x="98" y="76" fill="#110E0B" fill-opacity=".502"/><rect id="267" width="11" height="7" x="130" y="191" fill="#623621" fill-opacity=".502"/><rect id="268" width="14" height="5" x="46" y="216" fill="#E5A195" fill-opacity=".502"/><rect id="269" width="30" height="15" x="92" y="165" fill="#E4DCDA" fill-opacity=".502"/><rect id="270" width="1" height="21" x="20" y="103" fill="#A73557" fill-opacity=".502"/><rect id="271" width="7" height="7" x="59" y="200" fill="#5E413E" fill-opacity=".502"/><rect id="272" width="6" height="5" x="103" y="48" fill="#A10000" fill-opacity=".502"/><rect id="273" width="10" height="6" x="42" y="179" fill="#4C4D50" fill-opacity=".502"/><rect id="274" width="12" height="3" x="50" y="14" fill="#BF0000" fill-opacity=".502"/><rect id="275" width="25" height="10" x="25" y="45" fill="#BF0012" fill-opacity=".502"/><rect id="276" width="2" height="30" x="61" y="74" fill="#CBBFC0" fill-opacity=".502"/><rect id="277" width="13" height="15" x="156" y="115" fill="#30271A" fill-opacity=".502"/><rect id="278" width="3" height="6" x="105" y="40" fill="#FFF" fill-opacity=".502"/><rect id="279" width="10" height="10" x="178" y="139" fill="#D1C3BB" fill-opacity=".502"/><rect id="280" width="6" height="19" x="187" y="139" fill="#C7B5AF" fill-opacity=".502"/><rect id="281" width="1" height="36" x="7" y="118" fill="#F5FEFE" fill-opacity=".502"/><rect id="282" width="11" height="19" x="161" y="175" fill="#20211F" fill-opacity=".502"/><rect id="283" width="11" height="7" x="72" y="165" fill="#59555B" fill-opacity=".502"/><rect id="284" width="24" height="1" x="4" y="238" fill="#FFF" fill-opacity=".502"/><rect id="285" width="23" height="6" x="129" y="127" fill="#D7C5BF" fill-opacity=".502"/><rect id="286" width="15" height="5" x="151" y="200" fill="#4A3024" fill-opacity=".502"/><rect id="287" width="6" height="14" x="10" y="144" fill="#F2F6F9" fill-opacity=".502"/><rect id="288" width="6" height="7" x="54" y="196" fill="#C7AC99" fill-opacity=".502"/><rect id="289" width="25" height="18" x="129" y="135" fill="#D7C4C1" fill-opacity=".502"/><rect id="290" width="13" height="3" x="60" y="36" fill="#FFF" fill-opacity=".502"/><rect id="291" width="1" height="22" x="128" y="67" fill="#E9D9D1" fill-opacity=".502"/><rect id="292" width="1" height="36" x="18" y="151" fill="#6E6668" fill-opacity=".502"/><rect id="293" width="2" height="35" x="6" y="155" fill="#2F2823" fill-opacity=".502"/><rect id="294" width="123" height="1" x="48" y="55" fill="#D5656E" fill-opacity=".502"/><rect id="295" width="97" height="1" x="83" y="10" fill="#C27B81" fill-opacity=".502"/><rect id="296" width="7" height="4" x="68" y="26" fill="#FFF" fill-opacity=".502"/><rect id="297" width="24" height="1" x="23" y="15" fill="#FCF6BD" fill-opacity=".502"/><rect id="298" width="62" height="2" x="12" y="11" fill="#C30009" fill-opacity=".502"/><rect id="299" width="67" height="13" x="121" y="232" fill="#0D0F00" fill-opacity=".502"/><rect id="300" width="5" height="5" x="24" y="181" fill="#000" fill-opacity=".502"/><rect id="301" width="1" height="17" x="27" y="135" fill="#21222E" fill-opacity=".502"/><rect id="302" width="8" height="3" x="64" y="92" fill="#3E3A3A" fill-opacity=".502"/><rect id="303" width="6" height="14" x="48" y="30" fill="#C30011" fill-opacity=".502"/><rect id="304" width="7" height="12" x="16" y="87" fill="#F8FEFE" fill-opacity=".502"/><rect id="305" width="1" height="6" x="88" y="39" fill="#B40000" fill-opacity=".502"/><rect id="306" width="2" height="14" x="167" y="35" fill="#FFF" fill-opacity=".502"/><rect id="307" width="1" height="14" x="75" y="173" fill="#000" fill-opacity=".502"/><rect id="308" width="67" height="2" x="51" y="253" fill="#402E0B" fill-opacity=".502"/><rect id="309" width="7" height="2" x="110" y="202" fill="#010200" fill-opacity=".502"/><rect id="310" width="28" height="6" x="16" y="27" fill="#C10010" fill-opacity=".502"/><rect id="311" width="18" height="8" x="17" y="229" fill="#7B8FA2" fill-opacity=".502"/><rect id="312" width="2" height="26" x="12" y="120" fill="#83767E" fill-opacity=".502"/><rect id="313" width="5" height="2" x="0" y="151" fill="#360005" fill-opacity=".502"/><rect id="314" width="14" height="10" x="0" y="87" fill="#AA9592" fill-opacity=".502"/><rect id="315" width="25" height="1" x="32" y="157" fill="#050611" fill-opacity=".502"/><rect id="316" width="14" height="67" x="59" y="101" fill="#D2C9CE" fill-opacity=".502"/><rect id="317" width="5" height="4" x="72" y="38" fill="#B40000" fill-opacity=".502"/><rect id="318" width="1" height="149" x="192" y="15" fill="#BEABA4" fill-opacity=".502"/><rect id="319" width="16" height="23" x="79" y="173" fill="#CCC4C6" fill-opacity=".502"/><rect id="320" width="20" height="10" x="35" y="186" fill="#2C2017" fill-opacity=".502"/><rect id="321" width="15" height="19" x="23" y="200" fill="#A4B1BC" fill-opacity=".502"/><rect id="322" width="7" height="3" x="24" y="188" fill="#BC8162" fill-opacity=".502"/><rect id="323" width="7" height="4" x="57" y="23" fill="#AD0000" fill-opacity=".502"/><rect id="324" width="22" height="54" x="26" y="67" fill="#B5AAAE" fill-opacity=".502"/><rect id="325" width="3" height="20" x="26" y="158" fill="#4F498C" fill-opacity=".502"/><rect id="326" width="22" height="3" x="79" y="212" fill="#EAE1EE" fill-opacity=".502"/><rect id="327" width="50" height="1" x="34" y="10" fill="#C38B8F" fill-opacity=".502"/><rect id="328" width="3" height="18" x="119" y="32" fill="#FAFFFF" fill-opacity=".502"/><rect id="329" width="5" height="12" x="115" y="147" fill="#C0815F" fill-opacity=".502"/><rect id="330" width="26" height="5" x="45" y="149" fill="#D7CDD2" fill-opacity=".502"/><rect id="331" width="11" height="5" x="0" y="188" fill="#B99C8A" fill-opacity=".502"/><rect id="332" width="17" height="4" x="0" y="196" fill="#394E59" fill-opacity=".502"/><rect id="333" width="5" height="4" x="105" y="27" fill="#890000" fill-opacity=".502"/><rect id="334" width="3" height="7" x="49" y="15" fill="#BE0000" fill-opacity=".502"/><rect id="335" width="1" height="17" x="86" y="33" fill="#F9FFFF" fill-opacity=".502"/><rect id="336" width="11" height="9" x="75" y="30" fill="#BD0013" fill-opacity=".502"/><rect id="337" width="1" height="5" x="57" y="161" fill="#030035" fill-opacity=".502"/><rect id="338" width="35" height="25" x="128" y="91" fill="#CEC0BC" fill-opacity=".502"/><rect id="339" width="16" height="7" x="130" y="213" fill="#D8C6CD" fill-opacity=".502"/><rect id="340" width="5" height="57" x="184" y="159" fill="#13140A" fill-opacity=".502"/><rect id="341" width="34" height="3" x="92" y="91" fill="#76706D" fill-opacity=".502"/><rect id="342" width="15" height="2" x="138" y="156" fill="#322F33" fill-opacity=".502"/><rect id="343" width="5" height="25" x="101" y="62" fill="#D9CDC6" fill-opacity=".502"/><rect id="344" width="13" height="2" x="124" y="36" fill="#FFF" fill-opacity=".502"/><rect id="345" width="9" height="6" x="119" y="219" fill="#523F38" fill-opacity=".502"/><rect id="346" width="1" height="21" x="130" y="234" fill="#52463D" fill-opacity=".502"/><rect id="347" width="8" height="4" x="68" y="39" fill="#AC0000" fill-opacity=".502"/><rect id="348" width="1" height="12" x="101" y="17" fill="#FFF" fill-opacity=".502"/><rect id="349" width="15" height="21" x="3" y="198" fill="#728695" fill-opacity=".502"/></svg>