<?xml version="1.0" standalone="no"?>
<svg xmlns="http://www.w3.org/2000/svg" version="1.2" baseProfile="tiny" width="256" height="167" viewBox="0 0 256 167">
<rect x="0" y="0" width="256" height="167" id="0" fill="rgb(96,121,133)" fill-opacity="1" />
<polygon points="91,167 155,157 86,108" id="1" fill="rgb(255,255,238)" fill-opacity="0.501961" />
<polygon points="232,82 200,36 167,86" id="2" fill="rgb(255,255,229)" fill-opacity="0.501961" />
<polygon points="36,114 0,62 0,167" id="3" fill="rgb(20,0,0)" fill-opacity="0.501961" />
<polygon points="65,0 166,0 139,125" id="4" fill="rgb(0,125,205)" fill-opacity="0.501961" />
<polygon points="83,0 13,167 71,167" id="5" fill="rgb(219,174,145)" fill-opacity="0.501961" />
<polygon points="256,167 216,16 256,24" id="6" fill="rgb(0,30,63)" fill-opacity="0.501961" />
<polygon points="0,0 102,0 0,94" id="7" fill="rgb(0,119,193)" fill-opacity="0.501961" />
<polygon points="77,43 213,10 19,20" id="8" fill="rgb(165,209,219)" fill-opacity="0.501961" />
<polygon points="212,167 178,167 187,0" id="9" fill="rgb(223,177,145)" fill-opacity="0.501961" />
<polygon points="185,150 162,35 158,167" id="10" fill="rgb(65,36,2)" fill-opacity="0.501961" />
<polygon points="230,61 188,45 232,117" id="11" fill="rgb(255,231,216)" fill-opacity="0.501961" />
<polygon points="100,22 34,86 34,110" id="12" fill="rgb(255,232,216)" fill-opacity="0.501961" />
<polygon points="98,121 56,47 105,100" id="13" fill="rgb(49,20,0)" fill-opacity="0.501961" />
<polygon points="224,47 69,67 218,24" id="14" fill="rgb(9,55,98)" fill-opacity="0.501961" />
<polygon points="137,123 111,174 91,115" id="15" fill="rgb(250,225,221)" fill-opacity="0.501961" />
<polygon points="88,146 0,129 1,149" id="16" fill="rgb(61,38,29)" fill-opacity="0.501961" />
<polygon points="149,86 122,123 162,140" id="17" fill="rgb(0,56,103)" fill-opacity="0.501961" />
<polygon points="65,68 77,11 93,56" id="18" fill="rgb(248,217,199)" fill-opacity="0.501961" />
<polygon points="222,85 224,109 165,110" id="19" fill="rgb(69,45,28)" fill-opacity="0.501961" />
<polygon points="15,167 -13,122 37,75" id="20" fill="rgb(54,20,5)" fill-opacity="0.501961" />
<polygon points="87,167 72,146 83,66" id="21" fill="rgb(70,43,20)" fill-opacity="0.501961" />
<polygon points="234,111 170,143 191,111" id="22" fill="rgb(230,209,194)" fill-opacity="0.501961" />
<polygon points="256,139 247,118 178,144" id="23" fill="rgb(0,60,102)" fill-opacity="0.501961" />
<polygon points="217,0 144,75 157,122" id="24" fill="rgb(150,122,83)" fill-opacity="0.501961" />
<polygon points="23,75 74,49 0,8" id="25" fill="rgb(0,122,189)" fill-opacity="0.501961" />
<polygon points="170,71 194,110 204,35" id="26" fill="rgb(235,215,190)" fill-opacity="0.501961" />
<polygon points="255,0 0,11 0,0" id="27" fill="rgb(44,63,89)" fill-opacity="0.501961" />
<polygon points="196,17 181,0 179,38" id="28" fill="rgb(255,231,213)" fill-opacity="0.501961" />
<polygon points="71,63 44,121 65,104" id="29" fill="rgb(62,56,48)" fill-opacity="0.501961" />
<polygon points="98,34 90,73 184,48" id="30" fill="rgb(0,87,175)" fill-opacity="0.501961" />
<polygon points="72,167 19,123 45,167" id="31" fill="rgb(212,199,190)" fill-opacity="0.501961" />
<polygon points="55,57 63,59 72,13" id="32" fill="rgb(67,32,3)" fill-opacity="0.501961" />
<polygon points="0,106 0,73 54,65" id="33" fill="rgb(56,51,52)" fill-opacity="0.501961" />
<polygon points="167,49 186,59 173,15" id="34" fill="rgb(29,33,20)" fill-opacity="0.501961" />
<polygon points="104,70 93,99 113,87" id="35" fill="rgb(255,220,110)" fill-opacity="0.501961" />
<polygon points="2,36 38,1 77,18" id="36" fill="rgb(71,172,215)" fill-opacity="0.501961" />
<polygon points="166,167 212,131 200,167" id="37" fill="rgb(221,198,179)" fill-opacity="0.501961" />
<polygon points="173,157 200,135 169,145" id="38" fill="rgb(4,0,0)" fill-opacity="0.501961" />
<polygon points="202,51 256,62 206,0" id="39" fill="rgb(35,63,80)" fill-opacity="0.501961" />
<polygon points="159,103 129,149 158,164" id="40" fill="rgb(41,123,176)" fill-opacity="0.501961" />
<polygon points="100,167 146,167 76,128" id="41" fill="rgb(210,180,165)" fill-opacity="0.501961" />
<polygon points="87,149 76,167 88,167" id="42" fill="rgb(0,0,0)" fill-opacity="0.501961" />
<polygon points="109,79 92,100 117,114" id="43" fill="rgb(137,89,24)" fill-opacity="0.501961" />
<polygon points="254,45 172,0 256,0" id="44" fill="rgb(84,97,98)" fill-opacity="0.501961" />
<polygon points="179,88 216,78 173,135" id="45" fill="rgb(137,112,90)" fill-opacity="0.501961" />
<polygon points="0,90 22,158 4,167" id="46" fill="rgb(36,20,20)" fill-opacity="0.501961" />
<polygon points="91,73 161,82 177,70" id="47" fill="rgb(42,53,54)" fill-opacity="0.501961" />
<polygon points="77,132 48,135 26,105" id="48" fill="rgb(217,206,197)" fill-opacity="0.501961" />
<polygon points="51,120 39,96 57,115" id="49" fill="rgb(0,0,1)" fill-opacity="0.501961" />
<polygon points="213,167 230,123 256,167" id="50" fill="rgb(27,119,173)" fill-opacity="0.501961" />
<polygon points="29,117 0,150 46,140" id="51" fill="rgb(114,101,94)" fill-opacity="0.501961" />
<polygon points="227,41 256,45 243,144" id="52" fill="rgb(2,61,92)" fill-opacity="0.501961" />
<polygon points="65,8 58,52 21,83" id="53" fill="rgb(0,113,190)" fill-opacity="0.501961" />
<polygon points="180,73 231,71 218,53" id="54" fill="rgb(255,246,244)" fill-opacity="0.501961" />
<polygon points="236,108 232,98 199,132" id="55" fill="rgb(249,226,211)" fill-opacity="0.501961" />
<polygon points="124,81 176,46 165,22" id="56" fill="rgb(0,93,159)" fill-opacity="0.501961" />
<polygon points="217,115 223,96 197,85" id="57" fill="rgb(20,23,23)" fill-opacity="0.501961" />
<polygon points="122,96 92,54 151,167" id="58" fill="rgb(140,184,201)" fill-opacity="0.501961" />
<polygon points="176,82 185,98 148,113" id="59" fill="rgb(173,126,67)" fill-opacity="0.501961" />
<polygon points="87,107 53,145 75,149" id="60" fill="rgb(86,76,59)" fill-opacity="0.501961" />
<polygon points="67,48 83,48 39,71" id="61" fill="rgb(103,75,57)" fill-opacity="0.501961" />
<polygon points="215,155 215,127 169,132" id="62" fill="rgb(123,99,76)" fill-opacity="0.501961" />
<polygon points="166,25 185,0 136,0" id="63" fill="rgb(104,130,142)" fill-opacity="0.501961" />
<polygon points="141,15 102,-4 63,20" id="64" fill="rgb(32,125,186)" fill-opacity="0.501961" />
<polygon points="53,90 61,64 37,85" id="65" fill="rgb(255,250,248)" fill-opacity="0.501961" />
<polygon points="210,92 192,41 232,82" id="66" fill="rgb(219,204,196)" fill-opacity="0.501961" />
<polygon points="210,119 186,124 157,124" id="67" fill="rgb(64,56,49)" fill-opacity="0.501961" />
<polygon points="140,110 152,116 150,77" id="68" fill="rgb(54,37,13)" fill-opacity="0.501961" />
<polygon points="71,118 57,114 75,86" id="69" fill="rgb(226,213,206)" fill-opacity="0.501961" />
<polygon points="67,16 88,7 37,-17" id="70" fill="rgb(26,45,70)" fill-opacity="0.501961" />
<polygon points="102,116 88,59 69,70" id="71" fill="rgb(61,59,47)" fill-opacity="0.501961" />
<polygon points="174,85 160,132 165,167" id="72" fill="rgb(36,29,20)" fill-opacity="0.501961" />
<polygon points="124,121 166,122 129,97" id="73" fill="rgb(0,78,143)" fill-opacity="0.501961" />
<polygon points="75,23 75,48 94,29" id="74" fill="rgb(255,242,234)" fill-opacity="0.501961" />
<polygon points="18,72 -22,68 0,9" id="75" fill="rgb(0,103,164)" fill-opacity="0.501961" />
<polygon points="30,71 40,76 -4,71" id="76" fill="rgb(6,0,0)" fill-opacity="0.501961" />
<polygon points="15,51 59,50 10,45" id="77" fill="rgb(132,173,200)" fill-opacity="0.501961" />
<polygon points="95,130 91,167 86,128" id="78" fill="rgb(139,114,96)" fill-opacity="0.501961" />
<polygon points="78,79 47,60 79,88" id="79" fill="rgb(193,189,183)" fill-opacity="0.501961" />
<polygon points="203,109 212,110 188,125" id="80" fill="rgb(255,255,255)" fill-opacity="0.501961" />
<polygon points="230,85 236,94 230,25" id="81" fill="rgb(66,80,84)" fill-opacity="0.501961" />
<polygon points="111,38 144,73 87,67" id="82" fill="rgb(0,104,182)" fill-opacity="0.501961" />
<polygon points="125,167 86,103 96,153" id="83" fill="rgb(241,227,216)" fill-opacity="0.501961" />
<polygon points="28,142 76,167 83,153" id="84" fill="rgb(188,171,160)" fill-opacity="0.501961" />
<polygon points="163,92 166,70 159,87" id="85" fill="rgb(0,0,0)" fill-opacity="0.501961" />
<polygon points="156,94 148,83 159,82" id="86" fill="rgb(247,236,230)" fill-opacity="0.501961" />
<polygon points="113,92 105,71 97,68" id="87" fill="rgb(255,255,160)" fill-opacity="0.501961" />
<polygon points="89,27 118,44 104,4" id="88" fill="rgb(88,194,231)" fill-opacity="0.501961" />
<polygon points="179,42 199,17 191,6" id="89" fill="rgb(210,200,194)" fill-opacity="0.501961" />
<polygon points="178,81 178,59 167,87" id="90" fill="rgb(252,213,114)" fill-opacity="0.501961" />
<polygon points="50,136 69,145 41,145" id="91" fill="rgb(34,36,29)" fill-opacity="0.501961" />
<polygon points="0,0 0,21 15,0" id="92" fill="rgb(12,31,60)" fill-opacity="0.501961" />
<polygon points="120,106 153,70 112,82" id="93" fill="rgb(82,151,188)" fill-opacity="0.501961" />
<polygon points="212,106 211,112 235,125" id="94" fill="rgb(73,60,49)" fill-opacity="0.501961" />
<polygon points="25,160 37,147 58,155" id="95" fill="rgb(237,223,212)" fill-opacity="0.501961" />
<polygon points="20,29 7,19 -11,41" id="96" fill="rgb(0,192,224)" fill-opacity="0.501961" />
<polygon points="102,137 117,110 141,138" id="97" fill="rgb(172,175,186)" fill-opacity="0.501961" />
<polygon points="92,98 114,117 78,55" id="98" fill="rgb(135,117,93)" fill-opacity="0.501961" />
<polygon points="216,167 200,167 216,135" id="99" fill="rgb(88,75,62)" fill-opacity="0.501961" />
<polygon points="200,145 179,162 180,144" id="100" fill="rgb(152,138,125)" fill-opacity="0.501961" />
<polygon points="254,138 256,141 220,150" id="101" fill="rgb(164,180,201)" fill-opacity="0.501961" />
<polygon points="232,115 256,111 256,115" id="102" fill="rgb(151,161,174)" fill-opacity="0.501961" />
<polygon points="31,107 0,96 0,140" id="103" fill="rgb(38,12,3)" fill-opacity="0.501961" />
<polygon points="173,0 188,68 177,63" id="104" fill="rgb(89,78,59)" fill-opacity="0.501961" />
<polygon points="78,67 76,74 99,117" id="105" fill="rgb(0,0,0)" fill-opacity="0.501961" />
<polygon points="190,54 195,102 180,89" id="106" fill="rgb(228,219,203)" fill-opacity="0.501961" />
<polygon points="110,167 115,154 85,167" id="107" fill="rgb(140,123,123)" fill-opacity="0.501961" />
<polygon points="39,77 0,89 0,82" id="108" fill="rgb(87,128,168)" fill-opacity="0.501961" />
<polygon points="44,125 47,121 89,135" id="109" fill="rgb(238,227,217)" fill-opacity="0.501961" />
<polygon points="101,102 108,86 114,106" id="110" fill="rgb(51,36,20)" fill-opacity="0.501961" />
<polygon points="69,135 97,136 59,152" id="111" fill="rgb(108,99,79)" fill-opacity="0.501961" />
<polygon points="161,126 217,97 163,130" id="112" fill="rgb(75,71,65)" fill-opacity="0.501961" />
<polygon points="139,114 155,65 147,110" id="113" fill="rgb(56,53,39)" fill-opacity="0.501961" />
<polygon points="199,167 209,138 184,165" id="114" fill="rgb(214,209,207)" fill-opacity="0.501961" />
<polygon points="94,57 86,45 87,23" id="115" fill="rgb(152,141,118)" fill-opacity="0.501961" />
<polygon points="167,132 178,160 180,159" id="116" fill="rgb(0,0,0)" fill-opacity="0.501961" />
<polygon points="42,94 42,112 47,89" id="117" fill="rgb(67,66,65)" fill-opacity="0.501961" />
<polygon points="32,85 32,126 0,90" id="118" fill="rgb(74,51,38)" fill-opacity="0.501961" />
<polygon points="228,72 256,88 256,73" id="119" fill="rgb(21,33,36)" fill-opacity="0.501961" />
<polygon points="106,19 106,29 129,23" id="120" fill="rgb(182,213,228)" fill-opacity="0.501961" />
<polygon points="160,111 140,129 158,150" id="121" fill="rgb(11,104,156)" fill-opacity="0.501961" />
<polygon points="155,70 206,63 157,63" id="122" fill="rgb(169,156,137)" fill-opacity="0.501961" />
<polygon points="179,130 210,124 221,118" id="123" fill="rgb(255,255,247)" fill-opacity="0.501961" />
<polygon points="41,113 36,73 33,115" id="124" fill="rgb(215,193,178)" fill-opacity="0.501961" />
<polygon points="91,50 94,57 68,51" id="125" fill="rgb(254,240,232)" fill-opacity="0.501961" />
<polygon points="178,40 191,36 197,18" id="126" fill="rgb(189,187,191)" fill-opacity="0.501961" />
<polygon points="229,84 236,108 223,105" id="127" fill="rgb(235,216,205)" fill-opacity="0.501961" />
<polygon points="161,104 213,81 156,113" id="128" fill="rgb(162,143,121)" fill-opacity="0.501961" />
<polygon points="32,91 78,133 28,80" id="129" fill="rgb(119,106,93)" fill-opacity="0.501961" />
<polygon points="234,129 243,112 222,119" id="130" fill="rgb(87,73,57)" fill-opacity="0.501961" />
<polygon points="48,40 14,8 74,16" id="131" fill="rgb(76,162,205)" fill-opacity="0.501961" />
<polygon points="114,100 112,82 99,64" id="132" fill="rgb(241,219,136)" fill-opacity="0.501961" />
<polygon points="95,129 88,132 57,124" id="133" fill="rgb(88,71,46)" fill-opacity="0.501961" />
<polygon points="171,74 176,83 177,132" id="134" fill="rgb(77,50,26)" fill-opacity="0.501961" />
<polygon points="110,167 104,105 130,167" id="135" fill="rgb(221,206,196)" fill-opacity="0.501961" />
<polygon points="225,87 201,100 221,107" id="136" fill="rgb(45,47,45)" fill-opacity="0.501961" />
<polygon points="57,106 47,85 47,104" id="137" fill="rgb(208,192,179)" fill-opacity="0.501961" />
<polygon points="198,132 212,134 174,137" id="138" fill="rgb(227,203,173)" fill-opacity="0.501961" />
<polygon points="32,115 30,136 25,149" id="139" fill="rgb(68,52,41)" fill-opacity="0.501961" />
<polygon points="168,29 171,18 185,56" id="140" fill="rgb(51,47,31)" fill-opacity="0.501961" />
<polygon points="87,72 103,50 188,33" id="141" fill="rgb(0,83,150)" fill-opacity="0.501961" />
<polygon points="255,16 185,28 256,38" id="142" fill="rgb(77,93,101)" fill-opacity="0.501961" />
<polygon points="108,113 164,112 121,117" id="143" fill="rgb(15,52,85)" fill-opacity="0.501961" />
<polygon points="92,35 106,31 97,75" id="144" fill="rgb(0,112,179)" fill-opacity="0.501961" />
<polygon points="169,96 167,99 174,68" id="145" fill="rgb(255,246,127)" fill-opacity="0.501961" />
<polygon points="69,140 93,146 101,137" id="146" fill="rgb(170,155,128)" fill-opacity="0.501961" />
<polygon points="188,58 198,48 228,61" id="147" fill="rgb(235,229,229)" fill-opacity="0.501961" />
<polygon points="0,162 40,167 0,167" id="148" fill="rgb(145,97,84)" fill-opacity="0.501961" />
<polygon points="197,76 196,91 217,115" id="149" fill="rgb(80,72,67)" fill-opacity="0.501961" />
<polygon points="37,75 34,98 33,72" id="150" fill="rgb(123,110,91)" fill-opacity="0.501961" />
<polygon points="178,129 180,124 198,126" id="151" fill="rgb(255,251,244)" fill-opacity="0.501961" />
<polygon points="0,61 0,69 35,70" id="152" fill="rgb(2,165,202)" fill-opacity="0.501961" />
<polygon points="152,159 124,178 167,167" id="153" fill="rgb(5,67,107)" fill-opacity="0.501961" />
<polygon points="249,73 256,65 200,36" id="154" fill="rgb(0,70,110)" fill-opacity="0.501961" />
<polygon points="221,160 268,150 224,161" id="155" fill="rgb(149,185,209)" fill-opacity="0.501961" />
<polygon points="251,141 269,190 231,151" id="156" fill="rgb(36,103,132)" fill-opacity="0.501961" />
<polygon points="17,148 -18,158 8,160" id="157" fill="rgb(0,5,29)" fill-opacity="0.501961" />
<polygon points="170,138 219,120 240,121" id="158" fill="rgb(149,125,102)" fill-opacity="0.501961" />
<polygon points="219,115 231,111 230,116" id="159" fill="rgb(252,240,238)" fill-opacity="0.501961" />
<polygon points="56,157 54,163 79,167" id="160" fill="rgb(114,105,105)" fill-opacity="0.501961" />
<polygon points="39,122 39,158 20,167" id="161" fill="rgb(189,180,178)" fill-opacity="0.501961" />
<polygon points="128,147 131,123 151,136" id="162" fill="rgb(127,142,158)" fill-opacity="0.501961" />
<polygon points="80,98 96,115 104,112" id="163" fill="rgb(52,37,14)" fill-opacity="0.501961" />
<polygon points="66,33 82,19 72,18" id="164" fill="rgb(200,149,103)" fill-opacity="0.501961" />
<polygon points="95,36 116,44 168,19" id="165" fill="rgb(42,150,198)" fill-opacity="0.501961" />
<polygon points="53,61 37,65 70,14" id="166" fill="rgb(0,111,182)" fill-opacity="0.501961" />
<polygon points="102,82 100,71 98,85" id="167" fill="rgb(60,143,196)" fill-opacity="0.501961" />
<polygon points="185,0 202,16 229,0" id="168" fill="rgb(62,79,88)" fill-opacity="0.501961" />
<polygon points="191,136 203,137 202,145" id="169" fill="rgb(9,7,5)" fill-opacity="0.501961" />
<polygon points="253,17 174,22 202,22" id="170" fill="rgb(81,89,92)" fill-opacity="0.501961" />
<polygon points="186,57 196,82 199,40" id="171" fill="rgb(236,230,230)" fill-opacity="0.501961" />
<polygon points="89,113 86,125 115,131" id="172" fill="rgb(255,250,247)" fill-opacity="0.501961" />
<polygon points="151,77 152,68 137,80" id="173" fill="rgb(152,157,148)" fill-opacity="0.501961" />
<polygon points="254,139 238,122 213,136" id="174" fill="rgb(3,84,143)" fill-opacity="0.501961" />
<polygon points="117,79 148,80 137,83" id="175" fill="rgb(0,81,131)" fill-opacity="0.501961" />
<polygon points="151,151 149,160 109,157" id="176" fill="rgb(189,184,191)" fill-opacity="0.501961" />
<polygon points="86,47 76,66 51,68" id="177" fill="rgb(189,176,165)" fill-opacity="0.501961" />
<polygon points="98,130 66,124 75,130" id="178" fill="rgb(77,66,49)" fill-opacity="0.501961" />
<polygon points="226,126 256,136 256,121" id="179" fill="rgb(0,53,81)" fill-opacity="0.501961" />
<polygon points="218,91 227,82 213,91" id="180" fill="rgb(236,213,188)" fill-opacity="0.501961" />
<polygon points="143,0 122,0 120,17" id="181" fill="rgb(19,70,112)" fill-opacity="0.501961" />
<polygon points="159,59 140,72 87,65" id="182" fill="rgb(0,120,184)" fill-opacity="0.501961" />
<polygon points="179,54 183,55 202,33" id="183" fill="rgb(57,49,44)" fill-opacity="0.501961" />
<polygon points="84,102 56,85 76,74" id="184" fill="rgb(156,145,131)" fill-opacity="0.501961" />
<polygon points="256,86 256,107 241,107" id="185" fill="rgb(0,33,79)" fill-opacity="0.501961" />
<polygon points="175,160 183,167 165,167" id="186" fill="rgb(244,213,174)" fill-opacity="0.501961" />
<polygon points="171,15 195,22 190,11" id="187" fill="rgb(241,227,217)" fill-opacity="0.501961" />
<polygon points="54,109 64,91 67,95" id="188" fill="rgb(43,44,41)" fill-opacity="0.501961" />
<polygon points="122,76 135,72 110,74" id="189" fill="rgb(0,11,32)" fill-opacity="0.501961" />
<polygon points="168,164 176,110 157,185" id="190" fill="rgb(96,82,65)" fill-opacity="0.501961" />
<polygon points="70,36 71,45 93,46" id="191" fill="rgb(240,231,226)" fill-opacity="0.501961" />
</svg>