<svg xmlns="http://www.w3.org/2000/svg" width="256" height="170" baseProfile="tiny" version="1.2" viewBox="0 0 256 170"><rect id="0" width="256" height="170" x="0" y="0" fill="#637173" fill-opacity="1"/><polygon id="1" fill="#000" fill-opacity=".502" points="0 170 256 102 256 170"/><polygon id="2" fill="#F0D8BE" fill-opacity=".502" points="0 136 213 0 256 108"/><polygon id="3" fill="#001094" fill-opacity=".502" points="0 111 0 0 124 0"/><polygon id="4" fill="#B7B2AB" fill-opacity=".502" points="56 49 71 144 151 3"/><polygon id="5" fill="#011600" fill-opacity=".502" points="256 146 0 170 0 142"/><polygon id="6" fill="#BABFC0" fill-opacity=".502" points="249 78 256 0 65 51"/><polygon id="7" fill="#071804" fill-opacity=".502" points="250 74 113 170 256 170"/><polygon id="8" fill="#003782" fill-opacity=".502" points="0 0 134 0 0 94"/><polygon id="9" fill="#0089CF" fill-opacity=".502" points="40 38 0 87 49 101"/><polygon id="10" fill="#AE9E87" fill-opacity=".502" points="92 21 183 130 0 145"/><polygon id="11" fill="#717F7E" fill-opacity=".502" points="256 41 256 111 148 130"/><polygon id="12" fill="#00107F" fill-opacity=".502" points="175 26 117 0 177 0"/><polygon id="13" fill="#FFE1C7" fill-opacity=".502" points="136 49 199 38 140 115"/><polygon id="14" fill="#000" fill-opacity=".502" points="150 162 255 116 255 170"/><polygon id="15" fill="#001D5F" fill-opacity=".502" points="0 0 0 38 161 0"/><polygon id="16" fill="#2D4400" fill-opacity=".502" points="224 170 95 134 0 169"/><polygon id="17" fill="#595231" fill-opacity=".502" points="81 106 0 152 138 61"/><polygon id="18" fill="#A3ACAD" fill-opacity=".502" points="216 92 174 0 256 0"/><polygon id="19" fill="#001000" fill-opacity=".502" points="38 105 -3 109 0 91"/><polygon id="20" fill="#6F90B2" fill-opacity=".502" points="123 0 180 32 106 56"/><polygon id="21" fill="#004B96" fill-opacity=".502" points="113 9 0 28 0 95"/><polygon id="22" fill="#102700" fill-opacity=".502" points="90 147 0 147 0 170"/><polygon id="23" fill="#002771" fill-opacity=".502" points="162 22 134 0 180 0"/><polygon id="24" fill="#B4A88C" fill-opacity=".502" points="90 101 28 147 146 128"/><polygon id="25" fill="#0075B2" fill-opacity=".502" points="0 55 10 97 56 83"/><polygon id="26" fill="#53422E" fill-opacity=".502" points="84 68 73 57 49 87"/><polygon id="27" fill="#A79E9B" fill-opacity=".502" points="16 107 5 150 83 80"/><polygon id="28" fill="#545842" fill-opacity=".502" points="229 125 195 109 124 139"/><polygon id="29" fill="#7F96A4" fill-opacity=".502" points="213 29 159 32 186 0"/><polygon id="30" fill="#B8B09F" fill-opacity=".502" points="224 0 263 48 119 130"/><polygon id="31" fill="#00296F" fill-opacity=".502" points="139 0 0 0 60 41"/><polygon id="32" fill="#252A10" fill-opacity=".502" points="10 146 3 164 51 123"/><polygon id="33" fill="#9CA7B5" fill-opacity=".502" points="133 6 151 28 72 43"/><polygon id="34" fill="#06394C" fill-opacity=".502" points="229 107 255 111 201 137"/><polygon id="35" fill="#060600" fill-opacity=".502" points="256 163 256 138 70 141"/><polygon id="36" fill="#E6C8AE" fill-opacity=".502" points="128 61 158 106 193 62"/><polygon id="37" fill="#FFF" fill-opacity=".502" points="132 66 148 51 169 44"/><polygon id="38" fill="#678494" fill-opacity=".502" points="200 101 256 112 251 77"/><polygon id="39" fill="#2E4D07" fill-opacity=".502" points="32 170 10 143 161 163"/><polygon id="40" fill="#ADAEAE" fill-opacity=".502" points="117 69 46 122 41 90"/><polygon id="41" fill="#627D93" fill-opacity=".502" points="109 62 166 22 107 41"/><polygon id="42" fill="#9A907A" fill-opacity=".502" points="241 92 228 54 148 130"/><polygon id="43" fill="#303D00" fill-opacity=".502" points="149 155 137 132 88 141"/><polygon id="44" fill="#004082" fill-opacity=".502" points="141 0 178 11 157 30"/><polygon id="45" fill="#ADA08E" fill-opacity=".502" points="0 145 47 133 0 129"/><polygon id="46" fill="#9CA7AA" fill-opacity=".502" points="176 0 256 0 224 85"/><polygon id="47" fill="#A7967A" fill-opacity=".502" points="44 134 62 146 199 108"/><polygon id="48" fill="#C1B2A1" fill-opacity=".502" points="114 86 138 127 145 60"/><polygon id="49" fill="#6F5E4B" fill-opacity=".502" points="12 131 0 127 38 111"/><polygon id="50" fill="#506B22" fill-opacity=".502" points="120 157 193 170 151 170"/><polygon id="51" fill="#7D98A8" fill-opacity=".502" points="106 19 62 73 52 54"/><polygon id="52" fill="#003E8C" fill-opacity=".502" points="0 51 72 48 57 9"/><polygon id="53" fill="#655D3D" fill-opacity=".502" points="33 139 69 112 60 110"/><polygon id="54" fill="#8E99A4" fill-opacity=".502" points="239 0 207 0 95 73"/><polygon id="55" fill="#000300" fill-opacity=".502" points="0 109 31 99 0 95"/><polygon id="56" fill="#00468C" fill-opacity=".502" points="123 0 88 27 116 18"/><polygon id="57" fill="#005FA6" fill-opacity=".502" points="0 91 53 64 0 49"/><polygon id="58" fill="#060700" fill-opacity=".502" points="244 124 161 166 256 170"/><polygon id="59" fill="#00164D" fill-opacity=".502" points="0 21 54 0 0 0"/><polygon id="60" fill="#7A9DAD" fill-opacity=".502" points="46 95 8 97 0 90"/><polygon id="61" fill="#B2A188" fill-opacity=".502" points="143 132 101 119 221 77"/><polygon id="62" fill="#090F04" fill-opacity=".502" points="54 152 113 140 136 150"/><polygon id="63" fill="#B2B1B3" fill-opacity=".502" points="74 41 93 63 104 25"/><polygon id="64" fill="#000007" fill-opacity=".502" points="9 147 92 155 13 142"/><polygon id="65" fill="#A1958A" fill-opacity=".502" points="51 120 0 116 16 105"/><polygon id="66" fill="#FFF2DB" fill-opacity=".502" points="168 74 167 59 151 74"/><polygon id="67" fill="#877861" fill-opacity=".502" points="103 76 103 60 77 66"/><polygon id="68" fill="#9CA6AF" fill-opacity=".502" points="62 78 42 73 55 63"/><polygon id="69" fill="#70746B" fill-opacity=".502" points="243 92 161 113 220 115"/><polygon id="70" fill="#ABABB3" fill-opacity=".502" points="160 40 156 21 112 77"/><polygon id="71" fill="#466C12" fill-opacity=".502" points="55 170 38 150 74 155"/><polygon id="72" fill="#315F79" fill-opacity=".502" points="242 98 256 63 256 97"/><polygon id="73" fill="#002E75" fill-opacity=".502" points="141 0 0 45 0 12"/><polygon id="74" fill="#B7B4AA" fill-opacity=".502" points="84 101 36 144 155 68"/><polygon id="75" fill="#A5A99D" fill-opacity=".502" points="256 0 256 39 188 94"/><polygon id="76" fill="#006CAF" fill-opacity=".502" points="36 58 50 90 23 91"/><polygon id="77" fill="#00549E" fill-opacity=".502" points="0 48 54 51 57 68"/><polygon id="78" fill="#0F2F00" fill-opacity=".502" points="42 170 6 148 -9 175"/><polygon id="79" fill="#151B08" fill-opacity=".502" points="191 170 166 142 246 168"/><polygon id="80" fill="#253C3B" fill-opacity=".502" points="201 135 163 132 256 109"/><polygon id="81" fill="#00296A" fill-opacity=".502" points="131 0 162 16 174 0"/><polygon id="82" fill="#57524A" fill-opacity=".502" points="41 86 82 63 56 87"/><polygon id="83" fill="#32464C" fill-opacity=".502" points="42 115 18 104 29 98"/><polygon id="84" fill="#B6B5AF" fill-opacity=".502" points="182 80 256 -7 172 43"/><polygon id="85" fill="#000F00" fill-opacity=".502" points="0 94 7 94 11 101"/><polygon id="86" fill="#4E4336" fill-opacity=".502" points="0 119 0 127 23 125"/><polygon id="87" fill="#92766D" fill-opacity=".502" points="34 142 82 144 88 146"/><polygon id="88" fill="#756A47" fill-opacity=".502" points="154 138 182 117 126 136"/><polygon id="89" fill="#B2AD9F" fill-opacity=".502" points="64 137 97 105 33 139"/><polygon id="90" fill="#A8A39F" fill-opacity=".502" points="11 106 21 103 37 127"/><polygon id="91" fill="#023024" fill-opacity=".502" points="256 139 256 111 235 114"/><polygon id="92" fill="#76837B" fill-opacity=".502" points="256 40 226 97 249 79"/><polygon id="93" fill="#7E724A" fill-opacity=".502" points="71 143 66 140 181 124"/><polygon id="94" fill="#004693" fill-opacity=".502" points="0 75 90 28 0 42"/><polygon id="95" fill="#5986AB" fill-opacity=".502" points="256 91 231 109 256 109"/><polygon id="96" fill="#988F84" fill-opacity=".502" points="29 108 0 138 80 92"/><polygon id="97" fill="#427093" fill-opacity=".502" points="125 50 108 42 123 41"/><polygon id="98" fill="#151200" fill-opacity=".502" points="47 144 27 148 63 146"/><polygon id="99" fill="#0077B3" fill-opacity=".502" points="43 72 47 86 0 89"/><polygon id="100" fill="#5D8195" fill-opacity=".502" points="190 25 180 11 162 23"/><polygon id="101" fill="#142101" fill-opacity=".502" points="109 170 71 160 61 170"/><polygon id="102" fill="#003376" fill-opacity=".502" points="161 28 177 0 151 0"/><polygon id="103" fill="#405F13" fill-opacity=".502" points="107 157 50 157 124 153"/><polygon id="104" fill="#B6B4B1" fill-opacity=".502" points="69 102 66 76 116 73"/><polygon id="105" fill="#5980A6" fill-opacity=".502" points="134 38 152 18 156 33"/><polygon id="106" fill="#425B12" fill-opacity=".502" points="148 151 136 153 122 139"/><polygon id="107" fill="#A3A39A" fill-opacity=".502" points="199 25 202 92 237 61"/><polygon id="108" fill="#909891" fill-opacity=".502" points="256 40 217 64 229 90"/><polygon id="109" fill="#FFF" fill-opacity=".502" points="134 60 172 40 137 64"/><polygon id="110" fill="#909492" fill-opacity=".502" points="149 35 102 79 101 51"/><polygon id="111" fill="#B6B4AD" fill-opacity=".502" points="21 140 12 129 57 111"/><polygon id="112" fill="#85939E" fill-opacity=".502" points="185 23 106 40 84 36"/><line id="113" x1="175" x2="171" y1="38" y2="40" fill="none" stroke="#040809" stroke-opacity=".502" stroke-width="1"/><polygon id="114" fill="#0D1406" fill-opacity=".502" points="122 150 122 155 239 170"/><polygon id="115" fill="#3B4A44" fill-opacity=".502" points="227 126 185 125 184 111"/><polygon id="116" fill="#828F96" fill-opacity=".502" points="184 31 221 0 168 43"/><polygon id="117" fill="#A6A18F" fill-opacity=".502" points="129 76 113 126 67 133"/><polygon id="118" fill="#748DA3" fill-opacity=".502" points="236 0 179 9 199 0"/><polygon id="119" fill="#938768" fill-opacity=".502" points="157 127 50 144 98 133"/><polygon id="120" fill="#495E67" fill-opacity=".502" points="203 110 242 107 207 122"/><polygon id="121" fill="#726A4B" fill-opacity=".502" points="31 139 104 88 82 99"/><polygon id="122" fill="#9BA3A8" fill-opacity=".502" points="146 10 138 7 94 50"/><polygon id="123" fill="#001600" fill-opacity=".502" points="13 102 0 94 -17 122"/><polygon id="124" fill="#AEB4AF" fill-opacity=".502" points="209 0 232 49 253 40"/><polygon id="125" fill="#465625" fill-opacity=".502" points="66 152 0 150 37 155"/><polygon id="126" fill="#000101" fill-opacity=".502" points="171 143 256 137 256 168"/><polygon id="127" fill="#C5B099" fill-opacity=".502" points="188 91 191 62 135 113"/><polygon id="128" fill="#C4A790" fill-opacity=".502" points="134 59 130 76 145 73"/><polygon id="129" fill="#7F6A46" fill-opacity=".502" points="139 65 80 102 131 68"/><polygon id="130" fill="#002B69" fill-opacity=".502" points="46 0 151 6 172 0"/><polygon id="131" fill="#9C8A70" fill-opacity=".502" points="158 124 214 100 170 104"/><polygon id="132" fill="#D4C0B0" fill-opacity=".502" points="158 52 177 73 184 33"/><polygon id="133" fill="#A4A19D" fill-opacity=".502" points="85 73 41 123 34 97"/><polygon id="134" fill="#43510D" fill-opacity=".502" points="108 136 96 147 85 138"/><polygon id="135" fill="#A3988D" fill-opacity=".502" points="52 72 68 88 56 64"/><polygon id="136" fill="#1B4500" fill-opacity=".502" points="0 155 50 151 21 149"/><polygon id="137" fill="#111803" fill-opacity=".502" points="171 168 128 138 171 144"/><polygon id="138" fill="#475E1C" fill-opacity=".502" points="151 160 196 170 94 154"/><line id="139" x1="12" x2="5" y1="142" y2="158" fill="none" stroke="#464E44" stroke-opacity=".502" stroke-width="1"/><polygon id="140" fill="#CFB9A3" fill-opacity=".502" points="135 112 135 64 153 67"/><polygon id="141" fill="#0071AE" fill-opacity=".502" points="30 74 0 72 -21 104"/><polygon id="142" fill="#BBB9B4" fill-opacity=".502" points="200 39 166 26 195 51"/><polygon id="143" fill="#9FABB2" fill-opacity=".502" points="209 5 256 0 202 26"/><polygon id="144" fill="#090E08" fill-opacity=".502" points="178 162 163 169 163 160"/><polygon id="145" fill="#BCB5B2" fill-opacity=".502" points="142 43 168 38 101 83"/><polygon id="146" fill="#1C2F09" fill-opacity=".502" points="230 125 256 136 256 122"/><polygon id="147" fill="#5D5D51" fill-opacity=".502" points="45 67 91 70 79 72"/><polygon id="148" fill="#989F98" fill-opacity=".502" points="246 48 271 47 249 0"/><polygon id="149" fill="#003A84" fill-opacity=".502" points="99 8 87 32 23 39"/><polygon id="150" fill="#0058A2" fill-opacity=".502" points="0 80 50 42 53 66"/><polygon id="151" fill="#B2AFAB" fill-opacity=".502" points="112 48 82 35 79 64"/><polygon id="152" fill="#958F7E" fill-opacity=".502" points="118 55 122 67 91 62"/><line id="153" x1="227" x2="255" y1="115" y2="110" fill="none" stroke="#003253" stroke-opacity=".502" stroke-width="1"/><polygon id="154" fill="#B8B1A5" fill-opacity=".502" points="146 81 140 65 75 111"/><polygon id="155" fill="#0E1E1A" fill-opacity=".502" points="230 127 203 130 195 146"/><polygon id="156" fill="#5B7077" fill-opacity=".502" points="238 108 256 62 225 108"/><polygon id="157" fill="#FFF" fill-opacity=".502" points="140 64 139 59 166 42"/><polygon id="158" fill="#A89981" fill-opacity=".502" points="189 95 151 127 112 137"/><polygon id="159" fill="#7D97B5" fill-opacity=".502" points="33 98 21 93 10 95"/><polygon id="160" fill="#48640C" fill-opacity=".502" points="111 166 127 170 106 170"/><polygon id="161" fill="#847666" fill-opacity=".502" points="0 115 26 128 17 115"/><line id="162" x1="74" x2="121" y1="142" y2="142" fill="none" stroke="#253700" stroke-opacity=".502" stroke-width="1"/><polygon id="163" fill="#9A9684" fill-opacity=".502" points="94 90 36 129 26 131"/><polygon id="164" fill="#88949C" fill-opacity=".502" points="120 17 110 24 132 56"/><polygon id="165" fill="#414330" fill-opacity=".502" points="155 133 195 121 177 137"/><polygon id="166" fill="#EACEB3" fill-opacity=".502" points="174 67 143 77 143 98"/><polygon id="167" fill="#3D5611" fill-opacity=".502" points="80 161 84 170 92 157"/><polygon id="168" fill="#002E77" fill-opacity=".502" points="106 20 114 18 91 0"/><polygon id="169" fill="#8A7E69" fill-opacity=".502" points="186 116 137 133 198 101"/><polygon id="170" fill="#212B23" fill-opacity=".502" points="205 134 182 140 193 119"/><polygon id="171" fill="#484C61" fill-opacity=".502" points="24 148 1 153 2 151"/><polygon id="172" fill="#010000" fill-opacity=".502" points="216 170 207 170 193 155"/><polygon id="173" fill="#867970" fill-opacity=".502" points="0 129 6 149 0 144"/><line id="174" x1="159" x2="171" y1="32" y2="16" fill="none" stroke="#6F8FAA" stroke-opacity=".502" stroke-width="1"/><polygon id="175" fill="#143305" fill-opacity=".502" points="57 153 15 170 23 159"/><polygon id="176" fill="#204704" fill-opacity=".502" points="59 158 39 170 31 157"/><line id="177" x1="83" x2="119" y1="167" y2="157" fill="none" stroke="#0F160B" stroke-opacity=".502" stroke-width="1"/><polygon id="178" fill="#0688BE" fill-opacity=".502" points="36 94 9 90 44 85"/><polygon id="179" fill="#0D1304" fill-opacity=".502" points="108 140 91 149 96 158"/><polygon id="180" fill="#858779" fill-opacity=".502" points="217 83 219 112 199 101"/><polygon id="181" fill="#476711" fill-opacity=".502" points="102 152 97 157 112 148"/><polygon id="182" fill="#3F6706" fill-opacity=".502" points="66 159 68 165 29 173"/><polygon id="183" fill="#939DA6" fill-opacity=".502" points="104 23 108 42 80 36"/><line id="184" x1="157" x2="144" y1="83" y2="90" fill="none" stroke="#FFFBEF" stroke-opacity=".502" stroke-width="1"/></svg>