<?xml version="1.0" standalone="no"?>
<svg xmlns="http://www.w3.org/2000/svg" version="1.2" baseProfile="tiny" width="256" height="170" viewBox="0 0 256 170">
<rect x="0" y="0" width="256" height="170" id="0" fill="rgb(99,113,115)" fill-opacity="1" />
<polygon points="0,170 256,102 256,170" id="1" fill="rgb(0,0,0)" fill-opacity="0.501961" />
<polygon points="0,136 213,0 256,108" id="2" fill="rgb(240,216,190)" fill-opacity="0.501961" />
<polygon points="0,111 0,0 124,0" id="3" fill="rgb(0,16,148)" fill-opacity="0.501961" />
<polygon points="56,49 71,144 151,3" id="4" fill="rgb(183,178,171)" fill-opacity="0.501961" />
<polygon points="256,146 0,170 0,142" id="5" fill="rgb(1,22,0)" fill-opacity="0.501961" />
<polygon points="249,78 256,0 65,51" id="6" fill="rgb(186,191,192)" fill-opacity="0.501961" />
<polygon points="250,74 113,170 256,170" id="7" fill="rgb(7,24,4)" fill-opacity="0.501961" />
<polygon points="0,0 134,0 0,94" id="8" fill="rgb(0,55,130)" fill-opacity="0.501961" />
<polygon points="40,38 0,87 49,101" id="9" fill="rgb(0,137,207)" fill-opacity="0.501961" />
<polygon points="92,21 183,130 0,145" id="10" fill="rgb(174,158,135)" fill-opacity="0.501961" />
<polygon points="256,41 256,111 148,130" id="11" fill="rgb(113,127,126)" fill-opacity="0.501961" />
<polygon points="175,26 117,0 177,0" id="12" fill="rgb(0,16,127)" fill-opacity="0.501961" />
<polygon points="136,49 199,38 140,115" id="13" fill="rgb(255,225,199)" fill-opacity="0.501961" />
<polygon points="150,162 255,116 255,170" id="14" fill="rgb(0,0,0)" fill-opacity="0.501961" />
<polygon points="0,0 0,38 161,0" id="15" fill="rgb(0,29,95)" fill-opacity="0.501961" />
<polygon points="224,170 95,134 0,169" id="16" fill="rgb(45,68,0)" fill-opacity="0.501961" />
<polygon points="81,106 0,152 138,61" id="17" fill="rgb(89,82,49)" fill-opacity="0.501961" />
<polygon points="216,92 174,0 256,0" id="18" fill="rgb(163,172,173)" fill-opacity="0.501961" />
<polygon points="38,105 -3,109 0,91" id="19" fill="rgb(0,16,0)" fill-opacity="0.501961" />
<polygon points="123,0 180,32 106,56" id="20" fill="rgb(111,144,178)" fill-opacity="0.501961" />
<polygon points="113,9 0,28 0,95" id="21" fill="rgb(0,75,150)" fill-opacity="0.501961" />
<polygon points="90,147 0,147 0,170" id="22" fill="rgb(16,39,0)" fill-opacity="0.501961" />
<polygon points="162,22 134,0 180,0" id="23" fill="rgb(0,39,113)" fill-opacity="0.501961" />
<polygon points="90,101 28,147 146,128" id="24" fill="rgb(180,168,140)" fill-opacity="0.501961" />
<polygon points="0,55 10,97 56,83" id="25" fill="rgb(0,117,178)" fill-opacity="0.501961" />
<polygon points="84,68 73,57 49,87" id="26" fill="rgb(83,66,46)" fill-opacity="0.501961" />
<polygon points="16,107 5,150 83,80" id="27" fill="rgb(167,158,155)" fill-opacity="0.501961" />
<polygon points="229,125 195,109 124,139" id="28" fill="rgb(84,88,66)" fill-opacity="0.501961" />
<polygon points="213,29 159,32 186,0" id="29" fill="rgb(127,150,164)" fill-opacity="0.501961" />
<polygon points="224,0 263,48 119,130" id="30" fill="rgb(184,176,159)" fill-opacity="0.501961" />
<polygon points="139,0 0,0 60,41" id="31" fill="rgb(0,41,111)" fill-opacity="0.501961" />
<polygon points="10,146 3,164 51,123" id="32" fill="rgb(37,42,16)" fill-opacity="0.501961" />
<polygon points="133,6 151,28 72,43" id="33" fill="rgb(156,167,181)" fill-opacity="0.501961" />
<polygon points="229,107 255,111 201,137" id="34" fill="rgb(6,57,76)" fill-opacity="0.501961" />
<polygon points="256,163 256,138 70,141" id="35" fill="rgb(6,6,0)" fill-opacity="0.501961" />
<polygon points="128,61 158,106 193,62" id="36" fill="rgb(230,200,174)" fill-opacity="0.501961" />
<polygon points="132,66 148,51 169,44" id="37" fill="rgb(255,255,255)" fill-opacity="0.501961" />
<polygon points="200,101 256,112 251,77" id="38" fill="rgb(103,132,148)" fill-opacity="0.501961" />
<polygon points="32,170 10,143 161,163" id="39" fill="rgb(46,77,7)" fill-opacity="0.501961" />
<polygon points="117,69 46,122 41,90" id="40" fill="rgb(173,174,174)" fill-opacity="0.501961" />
<polygon points="109,62 166,22 107,41" id="41" fill="rgb(98,125,147)" fill-opacity="0.501961" />
<polygon points="241,92 228,54 148,130" id="42" fill="rgb(154,144,122)" fill-opacity="0.501961" />
<polygon points="149,155 137,132 88,141" id="43" fill="rgb(48,61,0)" fill-opacity="0.501961" />
<polygon points="141,0 178,11 157,30" id="44" fill="rgb(0,64,130)" fill-opacity="0.501961" />
<polygon points="0,145 47,133 0,129" id="45" fill="rgb(173,160,142)" fill-opacity="0.501961" />
<polygon points="176,0 256,0 224,85" id="46" fill="rgb(156,167,170)" fill-opacity="0.501961" />
<polygon points="44,134 62,146 199,108" id="47" fill="rgb(167,150,122)" fill-opacity="0.501961" />
<polygon points="114,86 138,127 145,60" id="48" fill="rgb(193,178,161)" fill-opacity="0.501961" />
<polygon points="12,131 0,127 38,111" id="49" fill="rgb(111,94,75)" fill-opacity="0.501961" />
<polygon points="120,157 193,170 151,170" id="50" fill="rgb(80,107,34)" fill-opacity="0.501961" />
<polygon points="106,19 62,73 52,54" id="51" fill="rgb(125,152,168)" fill-opacity="0.501961" />
<polygon points="0,51 72,48 57,9" id="52" fill="rgb(0,62,140)" fill-opacity="0.501961" />
<polygon points="33,139 69,112 60,110" id="53" fill="rgb(101,93,61)" fill-opacity="0.501961" />
<polygon points="239,0 207,0 95,73" id="54" fill="rgb(142,153,164)" fill-opacity="0.501961" />
<polygon points="0,109 31,99 0,95" id="55" fill="rgb(0,3,0)" fill-opacity="0.501961" />
<polygon points="123,0 88,27 116,18" id="56" fill="rgb(0,70,140)" fill-opacity="0.501961" />
<polygon points="0,91 53,64 0,49" id="57" fill="rgb(0,95,166)" fill-opacity="0.501961" />
<polygon points="244,124 161,166 256,170" id="58" fill="rgb(6,7,0)" fill-opacity="0.501961" />
<polygon points="0,21 54,0 0,0" id="59" fill="rgb(0,22,77)" fill-opacity="0.501961" />
<polygon points="46,95 8,97 0,90" id="60" fill="rgb(122,157,173)" fill-opacity="0.501961" />
<polygon points="143,132 101,119 221,77" id="61" fill="rgb(178,161,136)" fill-opacity="0.501961" />
<polygon points="54,152 113,140 136,150" id="62" fill="rgb(9,15,4)" fill-opacity="0.501961" />
<polygon points="74,41 93,63 104,25" id="63" fill="rgb(178,177,179)" fill-opacity="0.501961" />
<polygon points="9,147 92,155 13,142" id="64" fill="rgb(0,0,7)" fill-opacity="0.501961" />
<polygon points="51,120 0,116 16,105" id="65" fill="rgb(161,149,138)" fill-opacity="0.501961" />
<polygon points="168,74 167,59 151,74" id="66" fill="rgb(255,242,219)" fill-opacity="0.501961" />
<polygon points="103,76 103,60 77,66" id="67" fill="rgb(135,120,97)" fill-opacity="0.501961" />
<polygon points="62,78 42,73 55,63" id="68" fill="rgb(156,166,175)" fill-opacity="0.501961" />
<polygon points="243,92 161,113 220,115" id="69" fill="rgb(112,116,107)" fill-opacity="0.501961" />
<polygon points="160,40 156,21 112,77" id="70" fill="rgb(171,171,179)" fill-opacity="0.501961" />
<polygon points="55,170 38,150 74,155" id="71" fill="rgb(70,108,18)" fill-opacity="0.501961" />
<polygon points="242,98 256,63 256,97" id="72" fill="rgb(49,95,121)" fill-opacity="0.501961" />
<polygon points="141,0 0,45 0,12" id="73" fill="rgb(0,46,117)" fill-opacity="0.501961" />
<polygon points="84,101 36,144 155,68" id="74" fill="rgb(183,180,170)" fill-opacity="0.501961" />
<polygon points="256,0 256,39 188,94" id="75" fill="rgb(165,169,157)" fill-opacity="0.501961" />
<polygon points="36,58 50,90 23,91" id="76" fill="rgb(0,108,175)" fill-opacity="0.501961" />
<polygon points="0,48 54,51 57,68" id="77" fill="rgb(0,84,158)" fill-opacity="0.501961" />
<polygon points="42,170 6,148 -9,175" id="78" fill="rgb(15,47,0)" fill-opacity="0.501961" />
<polygon points="191,170 166,142 246,168" id="79" fill="rgb(21,27,8)" fill-opacity="0.501961" />
<polygon points="201,135 163,132 256,109" id="80" fill="rgb(37,60,59)" fill-opacity="0.501961" />
<polygon points="131,0 162,16 174,0" id="81" fill="rgb(0,41,106)" fill-opacity="0.501961" />
<polygon points="41,86 82,63 56,87" id="82" fill="rgb(87,82,74)" fill-opacity="0.501961" />
<polygon points="42,115 18,104 29,98" id="83" fill="rgb(50,70,76)" fill-opacity="0.501961" />
<polygon points="182,80 256,-7 172,43" id="84" fill="rgb(182,181,175)" fill-opacity="0.501961" />
<polygon points="0,94 7,94 11,101" id="85" fill="rgb(0,15,0)" fill-opacity="0.501961" />
<polygon points="0,119 0,127 23,125" id="86" fill="rgb(78,67,54)" fill-opacity="0.501961" />
<polygon points="34,142 82,144 88,146" id="87" fill="rgb(146,118,109)" fill-opacity="0.501961" />
<polygon points="154,138 182,117 126,136" id="88" fill="rgb(117,106,71)" fill-opacity="0.501961" />
<polygon points="64,137 97,105 33,139" id="89" fill="rgb(178,173,159)" fill-opacity="0.501961" />
<polygon points="11,106 21,103 37,127" id="90" fill="rgb(168,163,159)" fill-opacity="0.501961" />
<polygon points="256,139 256,111 235,114" id="91" fill="rgb(2,48,36)" fill-opacity="0.501961" />
<polygon points="256,40 226,97 249,79" id="92" fill="rgb(118,131,123)" fill-opacity="0.501961" />
<polygon points="71,143 66,140 181,124" id="93" fill="rgb(126,114,74)" fill-opacity="0.501961" />
<polygon points="0,75 90,28 0,42" id="94" fill="rgb(0,70,147)" fill-opacity="0.501961" />
<polygon points="256,91 231,109 256,109" id="95" fill="rgb(89,134,171)" fill-opacity="0.501961" />
<polygon points="29,108 0,138 80,92" id="96" fill="rgb(152,143,132)" fill-opacity="0.501961" />
<polygon points="125,50 108,42 123,41" id="97" fill="rgb(66,112,147)" fill-opacity="0.501961" />
<polygon points="47,144 27,148 63,146" id="98" fill="rgb(21,18,0)" fill-opacity="0.501961" />
<polygon points="43,72 47,86 0,89" id="99" fill="rgb(0,119,179)" fill-opacity="0.501961" />
<polygon points="190,25 180,11 162,23" id="100" fill="rgb(93,129,149)" fill-opacity="0.501961" />
<polygon points="109,170 71,160 61,170" id="101" fill="rgb(20,33,1)" fill-opacity="0.501961" />
<polygon points="161,28 177,0 151,0" id="102" fill="rgb(0,51,118)" fill-opacity="0.501961" />
<polygon points="107,157 50,157 124,153" id="103" fill="rgb(64,95,19)" fill-opacity="0.501961" />
<polygon points="69,102 66,76 116,73" id="104" fill="rgb(182,180,177)" fill-opacity="0.501961" />
<polygon points="134,38 152,18 156,33" id="105" fill="rgb(89,128,166)" fill-opacity="0.501961" />
<polygon points="148,151 136,153 122,139" id="106" fill="rgb(66,91,18)" fill-opacity="0.501961" />
<polygon points="199,25 202,92 237,61" id="107" fill="rgb(163,163,154)" fill-opacity="0.501961" />
<polygon points="256,40 217,64 229,90" id="108" fill="rgb(144,152,145)" fill-opacity="0.501961" />
<polygon points="134,60 172,40 137,64" id="109" fill="rgb(255,255,255)" fill-opacity="0.501961" />
<polygon points="149,35 102,79 101,51" id="110" fill="rgb(144,148,146)" fill-opacity="0.501961" />
<polygon points="21,140 12,129 57,111" id="111" fill="rgb(182,180,173)" fill-opacity="0.501961" />
<polygon points="185,23 106,40 84,36" id="112" fill="rgb(133,147,158)" fill-opacity="0.501961" />
<line x1="175" y1="38" x2="171" y2="40" id="113" stroke="rgb(4,8,9)" stroke-width="1" fill="none" stroke-opacity="0.501961" />
<polygon points="122,150 122,155 239,170" id="114" fill="rgb(13,20,6)" fill-opacity="0.501961" />
<polygon points="227,126 185,125 184,111" id="115" fill="rgb(59,74,68)" fill-opacity="0.501961" />
<polygon points="184,31 221,0 168,43" id="116" fill="rgb(130,143,150)" fill-opacity="0.501961" />
<polygon points="129,76 113,126 67,133" id="117" fill="rgb(166,161,143)" fill-opacity="0.501961" />
<polygon points="236,0 179,9 199,0" id="118" fill="rgb(116,141,163)" fill-opacity="0.501961" />
<polygon points="157,127 50,144 98,133" id="119" fill="rgb(147,135,104)" fill-opacity="0.501961" />
<polygon points="203,110 242,107 207,122" id="120" fill="rgb(73,94,103)" fill-opacity="0.501961" />
<polygon points="31,139 104,88 82,99" id="121" fill="rgb(114,106,75)" fill-opacity="0.501961" />
<polygon points="146,10 138,7 94,50" id="122" fill="rgb(155,163,168)" fill-opacity="0.501961" />
<polygon points="13,102 0,94 -17,122" id="123" fill="rgb(0,22,0)" fill-opacity="0.501961" />
<polygon points="209,0 232,49 253,40" id="124" fill="rgb(174,180,175)" fill-opacity="0.501961" />
<polygon points="66,152 0,150 37,155" id="125" fill="rgb(70,86,37)" fill-opacity="0.501961" />
<polygon points="171,143 256,137 256,168" id="126" fill="rgb(0,1,1)" fill-opacity="0.501961" />
<polygon points="188,91 191,62 135,113" id="127" fill="rgb(197,176,153)" fill-opacity="0.501961" />
<polygon points="134,59 130,76 145,73" id="128" fill="rgb(196,167,144)" fill-opacity="0.501961" />
<polygon points="139,65 80,102 131,68" id="129" fill="rgb(127,106,70)" fill-opacity="0.501961" />
<polygon points="46,0 151,6 172,0" id="130" fill="rgb(0,43,105)" fill-opacity="0.501961" />
<polygon points="158,124 214,100 170,104" id="131" fill="rgb(156,138,112)" fill-opacity="0.501961" />
<polygon points="158,52 177,73 184,33" id="132" fill="rgb(212,192,176)" fill-opacity="0.501961" />
<polygon points="85,73 41,123 34,97" id="133" fill="rgb(164,161,157)" fill-opacity="0.501961" />
<polygon points="108,136 96,147 85,138" id="134" fill="rgb(67,81,13)" fill-opacity="0.501961" />
<polygon points="52,72 68,88 56,64" id="135" fill="rgb(163,152,141)" fill-opacity="0.501961" />
<polygon points="0,155 50,151 21,149" id="136" fill="rgb(27,69,0)" fill-opacity="0.501961" />
<polygon points="171,168 128,138 171,144" id="137" fill="rgb(17,24,3)" fill-opacity="0.501961" />
<polygon points="151,160 196,170 94,154" id="138" fill="rgb(71,94,28)" fill-opacity="0.501961" />
<line x1="12" y1="142" x2="5" y2="158" id="139" stroke="rgb(70,78,68)" stroke-width="1" fill="none" stroke-opacity="0.501961" />
<polygon points="135,112 135,64 153,67" id="140" fill="rgb(207,185,163)" fill-opacity="0.501961" />
<polygon points="30,74 0,72 -21,104" id="141" fill="rgb(0,113,174)" fill-opacity="0.501961" />
<polygon points="200,39 166,26 195,51" id="142" fill="rgb(187,185,180)" fill-opacity="0.501961" />
<polygon points="209,5 256,0 202,26" id="143" fill="rgb(159,171,178)" fill-opacity="0.501961" />
<polygon points="178,162 163,169 163,160" id="144" fill="rgb(9,14,8)" fill-opacity="0.501961" />
<polygon points="142,43 168,38 101,83" id="145" fill="rgb(188,181,178)" fill-opacity="0.501961" />
<polygon points="230,125 256,136 256,122" id="146" fill="rgb(28,47,9)" fill-opacity="0.501961" />
<polygon points="45,67 91,70 79,72" id="147" fill="rgb(93,93,81)" fill-opacity="0.501961" />
<polygon points="246,48 271,47 249,0" id="148" fill="rgb(152,159,152)" fill-opacity="0.501961" />
<polygon points="99,8 87,32 23,39" id="149" fill="rgb(0,58,132)" fill-opacity="0.501961" />
<polygon points="0,80 50,42 53,66" id="150" fill="rgb(0,88,162)" fill-opacity="0.501961" />
<polygon points="112,48 82,35 79,64" id="151" fill="rgb(178,175,171)" fill-opacity="0.501961" />
<polygon points="118,55 122,67 91,62" id="152" fill="rgb(149,143,126)" fill-opacity="0.501961" />
<line x1="227" y1="115" x2="255" y2="110" id="153" stroke="rgb(0,50,83)" stroke-width="1" fill="none" stroke-opacity="0.501961" />
<polygon points="146,81 140,65 75,111" id="154" fill="rgb(184,177,165)" fill-opacity="0.501961" />
<polygon points="230,127 203,130 195,146" id="155" fill="rgb(14,30,26)" fill-opacity="0.501961" />
<polygon points="238,108 256,62 225,108" id="156" fill="rgb(91,112,119)" fill-opacity="0.501961" />
<polygon points="140,64 139,59 166,42" id="157" fill="rgb(255,255,255)" fill-opacity="0.501961" />
<polygon points="189,95 151,127 112,137" id="158" fill="rgb(168,153,129)" fill-opacity="0.501961" />
<polygon points="33,98 21,93 10,95" id="159" fill="rgb(125,151,181)" fill-opacity="0.501961" />
<polygon points="111,166 127,170 106,170" id="160" fill="rgb(72,100,12)" fill-opacity="0.501961" />
<polygon points="0,115 26,128 17,115" id="161" fill="rgb(132,118,102)" fill-opacity="0.501961" />
<line x1="74" y1="142" x2="121" y2="142" id="162" stroke="rgb(37,55,0)" stroke-width="1" fill="none" stroke-opacity="0.501961" />
<polygon points="94,90 36,129 26,131" id="163" fill="rgb(154,150,132)" fill-opacity="0.501961" />
<polygon points="120,17 110,24 132,56" id="164" fill="rgb(136,148,156)" fill-opacity="0.501961" />
<polygon points="155,133 195,121 177,137" id="165" fill="rgb(65,67,48)" fill-opacity="0.501961" />
<polygon points="174,67 143,77 143,98" id="166" fill="rgb(234,206,179)" fill-opacity="0.501961" />
<polygon points="80,161 84,170 92,157" id="167" fill="rgb(61,86,17)" fill-opacity="0.501961" />
<polygon points="106,20 114,18 91,0" id="168" fill="rgb(0,46,119)" fill-opacity="0.501961" />
<polygon points="186,116 137,133 198,101" id="169" fill="rgb(138,126,105)" fill-opacity="0.501961" />
<polygon points="205,134 182,140 193,119" id="170" fill="rgb(33,43,35)" fill-opacity="0.501961" />
<polygon points="24,148 1,153 2,151" id="171" fill="rgb(72,76,97)" fill-opacity="0.501961" />
<polygon points="216,170 207,170 193,155" id="172" fill="rgb(1,0,0)" fill-opacity="0.501961" />
<polygon points="0,129 6,149 0,144" id="173" fill="rgb(134,121,112)" fill-opacity="0.501961" />
<line x1="159" y1="32" x2="171" y2="16" id="174" stroke="rgb(111,143,170)" stroke-width="1" fill="none" stroke-opacity="0.501961" />
<polygon points="57,153 15,170 23,159" id="175" fill="rgb(20,51,5)" fill-opacity="0.501961" />
<polygon points="59,158 39,170 31,157" id="176" fill="rgb(32,71,4)" fill-opacity="0.501961" />
<line x1="83" y1="167" x2="119" y2="157" id="177" stroke="rgb(15,22,11)" stroke-width="1" fill="none" stroke-opacity="0.501961" />
<polygon points="36,94 9,90 44,85" id="178" fill="rgb(6,136,190)" fill-opacity="0.501961" />
<polygon points="108,140 91,149 96,158" id="179" fill="rgb(13,19,4)" fill-opacity="0.501961" />
<polygon points="217,83 219,112 199,101" id="180" fill="rgb(133,135,121)" fill-opacity="0.501961" />
<polygon points="102,152 97,157 112,148" id="181" fill="rgb(71,103,17)" fill-opacity="0.501961" />
<polygon points="66,159 68,165 29,173" id="182" fill="rgb(63,103,6)" fill-opacity="0.501961" />
<polygon points="104,23 108,42 80,36" id="183" fill="rgb(147,157,166)" fill-opacity="0.501961" />
<line x1="157" y1="83" x2="144" y2="90" id="184" stroke="rgb(255,251,239)" stroke-width="1" fill="none" stroke-opacity="0.501961" />
</svg>