<svg id="svg" version="1.1" width="320" height="414" xmlns="http://www.w3.org/2000/svg"><path d="M319.491 208.000 C 319.491 321.575,319.607 368.037,319.750 311.250 C 319.893 254.462,319.893 161.537,319.750 104.750 C 319.607 47.962,319.491 94.425,319.491 208.000 M22.573 16.951 C 20.879 17.566,20.845 17.727,22.291 18.281 C 23.196 18.629,24.220 18.452,24.568 17.890 C 25.461 16.446,24.809 16.139,22.573 16.951 M26.639 16.694 C 25.548 17.785,25.933 18.667,27.500 18.667 C 28.325 18.667,29.000 18.318,29.000 17.892 C 29.000 16.766,27.387 15.947,26.639 16.694 M30.639 16.694 C 29.548 17.785,29.933 18.667,31.500 18.667 C 32.325 18.667,33.000 18.318,33.000 17.892 C 33.000 16.766,31.387 15.947,30.639 16.694 M37.395 17.701 C 35.684 18.952,35.800 19.047,38.762 18.821 C 40.543 18.686,42.000 18.070,42.000 17.454 C 42.000 15.920,39.658 16.046,37.395 17.701 M43.079 17.583 C 43.127 18.748,43.364 18.985,43.683 18.188 C 43.972 17.466,43.936 16.603,43.604 16.271 C 43.272 15.939,43.036 16.529,43.079 17.583 M46.015 17.818 C 46.027 19.111,46.225 19.194,46.870 18.176 C 47.551 17.102,48.008 17.151,49.291 18.434 C 50.344 19.487,51.094 19.656,51.536 18.941 C 52.430 17.496,51.506 16.724,48.502 16.403 C 46.714 16.213,46.004 16.617,46.015 17.818 M54.079 17.270 C 54.019 18.621,54.587 18.933,56.484 18.589 C 57.849 18.341,59.386 17.879,59.898 17.563 C 60.410 17.246,61.010 17.530,61.231 18.193 C 61.486 18.957,61.870 18.781,62.280 17.712 C 62.805 16.344,62.405 16.082,60.169 16.327 C 58.651 16.493,56.906 16.940,56.290 17.321 C 55.675 17.701,54.943 17.447,54.664 16.756 C 54.362 16.006,54.126 16.212,54.079 17.270 M68.459 17.067 C 68.096 17.653,68.070 18.403,68.400 18.733 C 68.730 19.063,69.000 18.782,69.000 18.108 C 69.000 17.434,69.520 17.203,70.155 17.595 C 70.870 18.038,71.038 17.870,70.595 17.155 C 69.711 15.724,69.299 15.707,68.459 17.067 M198.564 24.293 C 198.940 25.279,199.499 25.834,199.807 25.526 C 200.115 25.219,199.808 24.412,199.124 23.733 C 198.136 22.753,198.022 22.868,198.564 24.293 M206.333 24.457 C 206.333 25.258,206.944 26.148,207.690 26.434 C 208.754 26.843,208.818 26.529,207.988 24.977 C 206.727 22.622,206.333 22.498,206.333 24.457 M212.015 24.972 C 211.090 26.701,211.230 27.000,212.965 27.000 C 214.084 27.000,215.000 26.352,215.000 25.559 C 215.000 23.168,213.173 22.809,212.015 24.972 M13.000 61.000 L 13.000 98.000 27.336 98.000 L 41.673 98.000 44.238 92.055 L 46.803 86.109 43.229 85.805 C 40.003 85.530,39.517 85.086,38.244 81.250 C 37.468 78.912,36.497 77.000,36.086 77.000 C 35.675 77.000,33.885 79.025,32.107 81.500 C 29.109 85.675,28.554 86.000,24.426 86.000 L 19.977 86.000 24.489 79.800 L 29.000 73.600 29.000 57.300 L 29.000 41.000 33.564 41.000 L 38.129 41.000 37.814 58.501 L 37.500 76.003 40.750 76.001 C 42.538 76.001,44.000 76.395,44.000 76.878 C 44.000 77.361,44.717 79.472,45.594 81.570 L 47.188 85.385 52.948 73.359 C 56.116 66.745,59.547 59.431,60.573 57.107 C 61.962 53.957,62.891 53.000,64.219 53.347 C 65.779 53.755,66.000 53.079,66.000 47.906 L 66.000 42.000 57.443 42.000 L 48.885 42.000 49.193 37.750 L 49.500 33.500 57.750 33.210 C 65.178 32.948,66.000 32.724,66.000 30.960 C 66.000 29.304,66.698 29.000,70.500 29.000 C 74.633 29.000,75.000 29.204,75.000 31.500 C 75.000 33.056,75.567 34.000,76.500 34.000 C 77.583 34.000,78.000 35.111,78.000 38.000 C 78.000 41.333,77.667 42.000,76.000 42.000 C 74.381 42.000,74.000 42.667,74.000 45.500 C 74.000 47.425,73.598 49.000,73.107 49.000 C 71.263 49.000,70.992 52.273,72.730 53.544 C 74.084 54.534,74.831 54.563,75.939 53.667 C 77.095 52.733,77.213 52.784,76.528 53.920 C 75.865 55.019,76.098 55.177,77.555 54.617 C 78.591 54.220,79.119 54.214,78.728 54.605 C 78.337 54.996,78.576 55.998,79.259 56.833 C 80.235 58.026,79.950 57.991,77.920 56.671 C 76.501 55.748,75.039 55.295,74.670 55.663 C 74.302 56.032,74.000 63.008,74.000 71.167 L 74.000 86.000 66.000 86.000 C 61.600 86.000,58.000 85.784,58.000 85.520 C 58.000 85.256,58.724 83.231,59.609 81.020 C 60.859 77.896,61.750 77.000,63.609 77.000 C 65.931 77.000,65.998 76.775,65.932 69.250 C 65.885 63.794,65.598 62.092,64.964 63.500 C 63.269 67.263,50.818 95.498,50.302 96.750 C 49.893 97.740,59.599 98.000,96.893 98.000 C 131.993 98.000,144.000 98.296,144.000 99.161 C 144.000 100.032,151.719 100.158,174.869 99.662 C 206.059 98.995,242.286 99.727,241.495 101.009 C 241.258 101.392,232.843 102.029,222.796 102.426 C 210.595 102.908,204.279 103.538,203.779 104.324 C 203.367 104.971,203.024 106.752,203.015 108.281 C 203.007 109.869,202.330 111.320,201.438 111.662 C 200.406 112.058,199.980 113.247,200.182 115.171 C 200.367 116.940,199.902 118.451,198.994 119.025 C 197.670 119.862,197.671 119.985,199.000 120.103 C 199.825 120.177,200.950 120.151,201.500 120.047 C 202.050 119.943,201.926 120.441,201.225 121.154 C 200.210 122.186,199.550 122.200,197.989 121.225 C 196.910 120.551,195.362 120.000,194.548 120.000 C 193.735 120.000,191.580 118.692,189.760 117.094 C 184.953 112.873,177.389 110.667,170.056 111.347 C 166.752 111.653,163.168 112.375,162.090 112.952 C 161.013 113.528,159.202 114.000,158.066 114.000 C 156.930 114.000,155.986 114.338,155.969 114.750 C 155.951 115.162,154.777 116.346,153.358 117.380 C 151.218 118.940,150.620 119.025,149.848 117.880 C 149.132 116.820,148.984 116.940,149.208 118.396 C 149.444 119.930,148.396 120.598,143.718 121.896 C 139.853 122.968,136.337 124.885,133.115 127.679 L 128.294 131.857 125.290 130.030 C 123.638 129.026,120.309 125.806,117.893 122.876 C 107.348 110.089,100.379 105.625,93.241 107.084 C 91.119 107.519,89.995 107.360,89.985 106.624 C 89.974 105.859,89.725 105.884,89.205 106.703 C 88.784 107.365,86.429 108.214,83.970 108.590 C 81.512 108.966,78.713 109.678,77.750 110.172 C 76.453 110.838,76.000 110.673,76.000 109.535 C 76.000 108.691,75.662 107.966,75.250 107.923 C 74.838 107.881,73.600 107.630,72.500 107.365 C 71.400 107.100,64.200 106.971,56.500 107.078 C 48.800 107.185,40.925 107.289,39.000 107.310 C 37.075 107.331,31.450 107.240,26.500 107.108 C 21.550 106.976,16.488 106.898,15.250 106.934 L 13.000 107.000 13.000 233.000 L 13.000 359.000 21.480 359.000 L 29.959 359.000 30.230 379.750 L 30.500 400.500 125.500 400.467 C 177.750 400.449,226.575 400.368,234.000 400.288 C 241.425 400.207,260.775 400.222,277.000 400.321 L 306.500 400.500 306.755 360.500 C 306.896 338.500,306.671 315.775,306.255 310.000 C 305.590 300.752,305.290 299.535,303.737 299.797 C 302.767 299.960,301.706 299.398,301.380 298.547 C 301.053 297.696,300.180 297.000,299.438 297.000 C 297.455 297.000,296.645 290.916,297.293 280.902 C 297.775 273.469,297.562 271.470,295.932 268.095 C 293.540 263.144,293.535 262.465,295.880 260.120 C 297.170 258.830,298.153 255.460,299.015 249.370 C 300.454 239.213,302.094 233.967,304.979 230.300 C 307.058 227.657,307.789 221.000,306.000 221.000 C 301.816 221.000,292.950 239.969,291.510 252.000 C 291.148 255.025,290.548 260.200,290.176 263.500 C 289.654 268.134,289.158 269.413,288.000 269.117 C 287.175 268.906,284.890 268.418,282.923 268.032 C 276.341 266.743,275.923 265.634,278.450 256.142 C 279.845 250.901,279.823 250.732,277.438 248.347 C 276.097 247.006,275.000 245.438,275.000 244.862 C 275.000 243.076,287.465 224.780,292.440 219.262 C 295.748 215.594,298.637 213.501,302.082 212.277 L 307.000 210.531 307.000 166.703 L 307.000 122.876 304.476 117.540 C 303.087 114.606,301.400 111.803,300.726 111.311 C 297.846 109.211,291.726 107.870,287.942 108.510 C 284.356 109.116,283.682 108.871,280.986 105.985 C 279.344 104.227,278.000 102.161,278.000 101.394 C 278.000 99.919,278.138 99.901,292.000 99.602 C 296.675 99.501,301.677 98.830,303.115 98.111 C 305.422 96.956,305.803 96.021,306.358 90.151 C 307.141 81.862,307.179 72.631,306.439 70.702 C 305.954 69.438,298.339 69.285,250.189 69.577 C 219.560 69.762,183.250 70.046,169.500 70.207 L 144.500 70.500 144.232 47.250 L 143.963 24.000 78.482 24.000 L 13.000 24.000 13.000 61.000 M47.770 51.250 L 48.039 73.000 44.020 73.000 L 40.000 73.000 40.000 55.500 L 40.000 38.000 33.500 38.000 L 27.000 38.000 27.000 55.500 L 27.000 73.000 23.500 73.000 L 20.000 73.000 20.000 51.667 C 20.000 39.933,20.327 30.006,20.727 29.607 C 21.126 29.207,27.314 29.020,34.477 29.190 L 47.500 29.500 47.770 51.250 M133.000 33.216 C 133.000 36.897,132.402 38.038,128.288 42.216 C 124.459 46.102,123.951 47.000,125.579 47.000 C 127.015 47.000,128.349 48.560,130.281 52.500 L 132.978 58.000 128.110 58.000 C 123.637 58.000,123.141 57.755,121.991 54.979 C 120.125 50.472,119.189 50.410,114.991 54.509 C 111.630 57.791,110.530 58.263,105.989 58.378 C 103.143 58.451,100.647 58.238,100.443 57.907 C 100.238 57.576,104.555 52.900,110.035 47.515 C 115.516 42.130,120.000 37.562,120.000 37.362 C 120.000 37.163,115.275 37.000,109.500 37.000 L 99.000 37.000 99.000 33.000 L 99.000 29.000 116.000 29.000 L 133.000 29.000 133.000 33.216 M196.000 31.601 C 196.000 32.904,196.774 33.969,197.942 34.275 C 200.362 34.907,201.000 34.296,201.000 31.345 C 201.000 29.479,200.508 29.063,198.500 29.229 C 196.667 29.381,196.000 30.014,196.000 31.601 M203.354 29.816 C 202.112 30.624,201.961 34.000,203.167 34.000 C 203.625 34.000,204.045 32.987,204.100 31.750 C 204.195 29.591,204.232 29.602,205.000 32.000 C 205.745 34.327,205.808 34.349,205.900 32.309 C 206.012 29.849,204.930 28.790,203.354 29.816 M208.522 30.329 C 208.327 30.973,208.205 32.245,208.251 33.156 C 208.368 35.498,212.500 33.869,212.500 31.481 C 212.500 29.484,209.078 28.493,208.522 30.329 M214.000 31.383 C 214.000 33.132,214.666 33.894,216.500 34.245 C 218.696 34.664,219.000 34.374,219.000 31.861 C 219.000 29.476,218.584 29.000,216.500 29.000 C 214.533 29.000,214.000 29.508,214.000 31.383 M221.250 29.662 C 220.563 29.940,220.000 30.831,220.000 31.642 C 220.000 32.454,220.419 32.859,220.931 32.543 C 221.443 32.226,222.149 32.432,222.500 33.000 C 223.427 34.499,225.000 33.204,225.000 30.941 C 225.000 29.050,223.790 28.637,221.250 29.662 M228.639 29.694 C 228.288 30.046,228.007 31.271,228.015 32.417 C 228.027 33.974,228.249 34.156,228.894 33.137 C 229.623 31.986,229.842 31.986,230.300 33.137 C 230.619 33.938,230.875 33.597,230.921 32.309 C 231.003 30.028,229.746 28.587,228.639 29.694 M232.667 29.667 C 232.300 30.033,232.000 31.158,232.000 32.167 C 232.000 33.456,232.742 34.000,234.500 34.000 C 236.500 34.000,237.000 33.500,237.000 31.500 C 237.000 29.742,236.456 29.000,235.167 29.000 C 234.158 29.000,233.033 29.300,232.667 29.667 M239.250 29.662 C 238.563 29.940,238.000 30.982,238.000 31.978 C 238.000 33.281,238.701 33.748,240.499 33.644 C 243.147 33.491,244.054 32.000,241.500 32.000 C 240.675 32.000,240.000 31.502,240.000 30.893 C 240.000 30.284,240.698 30.054,241.552 30.382 C 242.442 30.723,242.843 30.555,242.493 29.989 C 241.838 28.929,241.221 28.867,239.250 29.662 M295.079 32.583 C 295.127 33.748,295.364 33.985,295.683 33.188 C 295.972 32.466,295.936 31.603,295.604 31.271 C 295.272 30.939,295.036 31.529,295.079 32.583 M297.638 32.500 C 297.322 33.325,297.499 34.000,298.031 34.000 C 298.564 34.000,299.000 33.325,299.000 32.500 C 299.000 31.675,298.823 31.000,298.607 31.000 C 298.391 31.000,297.955 31.675,297.638 32.500 M198.000 40.000 C 198.000 41.100,198.408 42.000,198.906 42.000 C 199.405 42.000,199.577 41.100,199.290 40.000 C 199.002 38.900,198.594 38.000,198.383 38.000 C 198.173 38.000,198.000 38.900,198.000 40.000 M217.241 38.498 C 217.649 38.948,217.481 39.920,216.869 40.658 C 216.169 41.502,216.132 42.000,216.771 42.000 C 218.332 42.000,219.067 39.152,217.706 38.372 C 217.043 37.991,216.834 38.048,217.241 38.498 M224.600 38.765 C 225.205 39.169,225.957 40.175,226.271 41.000 C 226.653 42.002,226.868 41.753,226.921 40.250 C 226.974 38.738,226.426 38.005,225.250 38.015 C 224.171 38.025,223.922 38.312,224.600 38.765 M234.337 39.435 C 234.640 40.225,234.350 41.089,233.694 41.356 C 233.037 41.624,233.417 41.878,234.537 41.921 C 235.888 41.973,236.625 41.326,236.725 40.000 C 236.816 38.798,236.259 38.000,235.331 38.000 C 234.399 38.000,234.005 38.570,234.337 39.435 M207.211 40.538 C 206.130 41.763,206.246 42.000,207.929 42.000 C 209.303 42.000,209.756 41.526,209.362 40.500 C 208.678 38.718,208.818 38.716,207.211 40.538 M201.500 41.000 C 201.840 41.550,202.316 42.000,202.559 42.000 C 202.802 42.000,203.000 41.550,203.000 41.000 C 203.000 40.450,202.523 40.000,201.941 40.000 C 201.359 40.000,201.160 40.450,201.500 41.000 M211.500 41.000 C 211.840 41.550,212.541 42.000,213.059 42.000 C 213.577 42.000,214.000 41.550,214.000 41.000 C 214.000 40.450,213.298 40.000,212.441 40.000 C 211.584 40.000,211.160 40.450,211.500 41.000 M229.000 41.000 C 229.000 41.550,229.450 42.000,230.000 42.000 C 230.550 42.000,231.000 41.550,231.000 41.000 C 231.000 40.450,230.550 40.000,230.000 40.000 C 229.450 40.000,229.000 40.450,229.000 41.000 M197.122 46.904 C 196.364 47.384,196.053 48.277,196.431 48.888 C 197.542 50.685,198.888 50.164,198.725 48.000 C 198.642 46.900,198.558 46.007,198.537 46.015 C 198.517 46.024,197.880 46.423,197.122 46.904 M202.295 47.513 C 201.345 48.543,201.428 48.950,202.688 49.434 C 204.751 50.225,205.403 49.534,204.342 47.678 C 203.651 46.471,203.283 46.441,202.295 47.513 M207.207 47.960 C 208.090 49.374,208.645 49.583,209.200 48.710 C 209.623 48.045,209.969 47.050,209.969 46.500 C 209.969 45.950,209.533 46.175,209.000 47.000 C 208.354 48.000,208.026 48.083,208.015 47.250 C 208.007 46.563,207.546 46.000,206.992 46.000 C 206.387 46.000,206.473 46.785,207.207 47.960 M216.500 47.000 C 215.663 48.354,216.792 50.000,218.559 50.000 C 219.352 50.000,220.000 49.100,220.000 48.000 C 220.000 45.930,217.587 45.240,216.500 47.000 M221.688 46.646 C 220.333 48.000,221.037 49.577,223.062 49.730 C 224.465 49.835,225.025 49.370,224.812 48.275 C 224.465 46.484,222.746 45.587,221.688 46.646 M294.500 47.000 C 294.840 47.550,295.316 48.000,295.559 48.000 C 295.802 48.000,296.000 47.550,296.000 47.000 C 296.000 46.450,295.523 46.000,294.941 46.000 C 294.359 46.000,294.160 46.450,294.500 47.000 M211.079 48.583 C 211.127 49.748,211.364 49.985,211.683 49.188 C 211.972 48.466,211.936 47.603,211.604 47.271 C 211.272 46.939,211.036 47.529,211.079 48.583 M213.459 48.067 C 213.096 48.653,213.014 49.348,213.276 49.610 C 213.538 49.872,214.019 49.392,214.345 48.543 C 215.021 46.781,214.445 46.471,213.459 48.067 M95.000 52.028 C 95.000 52.593,93.425 56.242,91.500 60.137 C 89.575 64.033,88.000 67.620,88.000 68.110 C 88.000 68.599,90.054 69.000,92.563 69.000 C 97.109 69.000,97.126 69.012,96.813 72.250 L 96.500 75.500 86.250 75.785 C 79.738 75.966,76.000 75.697,76.000 75.046 C 76.000 74.483,78.578 68.842,81.730 62.511 L 87.460 51.000 91.230 51.000 C 93.303 51.000,95.000 51.462,95.000 52.028 M201.710 56.000 C 201.998 57.100,202.631 58.000,203.117 58.000 C 203.602 58.000,204.000 57.100,204.000 56.000 C 204.000 54.900,203.367 54.000,202.594 54.000 C 201.680 54.000,201.370 54.700,201.710 56.000 M206.000 55.607 C 206.000 57.557,208.763 58.014,209.252 56.145 C 209.557 54.980,209.106 54.429,207.850 54.429 C 206.833 54.429,206.000 54.959,206.000 55.607 M211.015 55.583 C 211.007 56.748,211.642 57.667,212.457 57.667 C 214.203 57.667,215.309 55.309,213.956 54.473 C 213.430 54.148,212.993 54.471,212.985 55.191 C 212.974 56.142,212.704 56.090,212.000 55.000 C 211.204 53.768,211.028 53.872,211.015 55.583 M217.079 54.750 C 217.036 55.438,216.887 56.286,216.750 56.636 C 216.613 56.985,217.963 57.432,219.750 57.627 C 222.582 57.937,222.985 57.695,222.884 55.742 C 222.796 54.049,222.656 53.928,222.311 55.250 C 222.059 56.212,221.388 57.000,220.820 57.000 C 220.251 57.000,220.069 56.261,220.416 55.359 C 220.926 54.030,220.774 53.943,219.620 54.900 C 218.514 55.818,218.078 55.794,217.676 54.792 C 217.280 53.803,217.139 53.793,217.079 54.750 M224.158 56.000 C 224.158 57.375,224.385 57.938,224.662 57.250 C 224.940 56.563,224.940 55.438,224.662 54.750 C 224.385 54.063,224.158 54.625,224.158 56.000 M226.638 55.500 C 226.322 56.325,226.499 57.000,227.031 57.000 C 227.564 57.000,228.000 56.325,228.000 55.500 C 228.000 54.675,227.823 54.000,227.607 54.000 C 227.391 54.000,226.955 54.675,226.638 55.500 M232.710 56.000 C 232.998 57.100,233.406 58.000,233.617 58.000 C 233.827 58.000,234.000 57.100,234.000 56.000 C 234.000 54.900,233.592 54.000,233.094 54.000 C 232.595 54.000,232.423 54.900,232.710 56.000 M240.079 55.583 C 240.127 56.748,240.364 56.985,240.683 56.188 C 240.972 55.466,240.936 54.603,240.604 54.271 C 240.272 53.939,240.036 54.529,240.079 55.583 M242.079 55.583 C 242.127 56.748,242.364 56.985,242.683 56.188 C 242.972 55.466,242.936 54.603,242.604 54.271 C 242.272 53.939,242.036 54.529,242.079 55.583 M245.333 55.552 C 245.333 56.300,245.670 56.704,246.081 56.450 C 246.493 56.196,247.010 56.531,247.232 57.195 C 247.481 57.944,247.868 58.023,248.252 57.401 C 248.592 56.851,248.075 55.903,247.102 55.296 C 245.736 54.443,245.333 54.501,245.333 55.552 M250.730 55.925 C 250.377 57.276,250.640 57.692,251.613 57.318 C 252.376 57.025,253.000 56.159,253.000 55.393 C 253.000 53.315,251.309 53.711,250.730 55.925 M295.158 56.000 C 295.158 57.375,295.385 57.938,295.662 57.250 C 295.940 56.563,295.940 55.438,295.662 54.750 C 295.385 54.063,295.158 54.625,295.158 56.000 M297.638 55.500 C 297.322 56.325,297.499 57.000,298.031 57.000 C 298.564 57.000,299.000 56.325,299.000 55.500 C 299.000 54.675,298.823 54.000,298.607 54.000 C 298.391 54.000,297.955 54.675,297.638 55.500 M133.000 64.000 L 133.000 68.000 127.000 68.000 L 121.000 68.000 121.000 73.000 L 121.000 78.000 127.500 78.000 L 134.000 78.000 134.000 82.000 L 134.000 86.000 116.500 86.000 L 99.000 86.000 99.000 82.000 L 99.000 78.000 105.000 78.000 L 111.000 78.000 111.000 73.000 L 111.000 68.000 105.000 68.000 L 99.000 68.000 99.000 64.000 L 99.000 60.000 116.000 60.000 L 133.000 60.000 133.000 64.000 M207.176 61.870 C 206.107 62.548,206.169 63.026,207.498 64.355 C 208.402 65.260,209.426 66.000,209.771 66.000 C 210.117 66.000,209.895 65.495,209.278 64.878 C 208.661 64.261,208.394 63.136,208.685 62.378 C 209.294 60.793,209.021 60.701,207.176 61.870 M237.144 63.750 C 236.053 66.300,236.078 66.359,237.484 64.559 C 238.318 63.491,239.000 62.254,239.000 61.809 C 239.000 60.289,238.322 60.999,237.144 63.750 M247.329 62.584 C 246.840 63.859,246.557 63.908,245.876 62.834 C 245.229 61.812,245.027 61.910,245.015 63.250 C 245.007 64.213,245.188 65.000,245.418 65.000 C 245.648 65.000,246.458 65.239,247.218 65.530 C 248.170 65.895,248.600 65.272,248.600 63.530 C 248.600 60.622,248.197 60.322,247.329 62.584 M255.079 62.662 C 254.991 65.058,258.054 65.337,258.832 63.003 C 259.120 62.140,258.727 61.891,257.701 62.284 C 256.837 62.616,255.911 62.350,255.644 61.694 C 255.376 61.037,255.122 61.473,255.079 62.662 M261.250 61.662 C 260.563 61.940,260.036 63.142,260.079 64.333 C 260.122 65.525,260.376 65.963,260.644 65.306 C 260.911 64.650,261.742 64.348,262.492 64.635 C 263.462 65.007,263.698 64.559,263.310 63.079 C 263.011 61.936,262.707 61.036,262.633 61.079 C 262.560 61.122,261.938 61.385,261.250 61.662 M276.872 61.050 C 276.802 61.297,276.637 62.549,276.505 63.832 C 276.287 65.953,276.407 66.022,277.840 64.589 C 279.070 63.359,279.150 62.750,278.207 61.807 C 277.543 61.143,276.943 60.803,276.872 61.050 M280.633 62.513 C 280.039 64.062,280.828 65.000,282.726 65.000 C 283.491 65.000,283.864 64.588,283.553 64.085 C 283.242 63.582,283.541 62.986,284.218 62.761 C 284.895 62.535,284.477 62.096,283.289 61.786 C 281.996 61.448,280.930 61.739,280.633 62.513 M196.500 63.000 C 195.800 64.133,196.698 66.000,197.942 66.000 C 198.396 66.000,199.002 65.100,199.290 64.000 C 199.837 61.906,197.659 61.125,196.500 63.000 M202.731 63.920 C 202.296 65.583,202.426 65.974,203.168 65.232 C 203.750 64.650,204.028 63.585,203.788 62.863 C 203.538 62.114,203.085 62.568,202.731 63.920 M212.079 63.143 C 212.036 64.047,212.675 65.045,213.500 65.362 C 214.558 65.767,214.995 65.283,214.985 63.719 C 214.973 62.085,214.742 61.859,214.106 62.863 C 213.377 64.014,213.158 64.014,212.700 62.863 C 212.303 61.866,212.137 61.941,212.079 63.143 M217.079 63.583 C 217.127 64.748,217.364 64.985,217.683 64.188 C 217.972 63.466,217.936 62.603,217.604 62.271 C 217.272 61.939,217.036 62.529,217.079 63.583 M226.000 63.713 C 226.000 65.389,226.801 65.342,228.581 63.561 C 229.833 62.310,229.759 62.142,228.010 62.274 C 226.905 62.357,226.000 63.005,226.000 63.713 M231.000 63.404 C 231.000 64.347,231.412 64.864,231.915 64.553 C 232.418 64.242,233.031 64.553,233.278 65.244 C 233.524 65.935,234.016 66.235,234.369 65.911 C 234.723 65.586,234.110 64.504,233.006 63.506 C 231.151 61.827,231.000 61.819,231.000 63.404 M240.397 63.167 C 239.649 64.378,240.887 66.000,242.559 66.000 C 243.352 66.000,244.000 65.175,244.000 64.167 C 244.000 62.330,241.366 61.599,240.397 63.167 M250.000 62.878 C 250.000 63.495,250.563 64.007,251.250 64.015 C 252.087 64.026,252.008 64.341,251.013 64.971 C 249.820 65.725,249.936 65.881,251.596 65.755 C 252.735 65.670,253.667 65.015,253.667 64.300 C 253.667 63.585,253.446 63.221,253.175 63.491 C 252.905 63.762,252.080 63.481,251.342 62.869 C 250.355 62.050,250.000 62.052,250.000 62.878 M265.079 63.583 C 265.127 64.748,265.364 64.985,265.683 64.188 C 265.972 63.466,265.936 62.603,265.604 62.271 C 265.272 61.939,265.036 62.529,265.079 63.583 M267.000 63.500 C 267.000 64.325,267.450 65.000,268.000 65.000 C 268.550 65.000,269.000 64.325,269.000 63.500 C 269.000 62.675,268.550 62.000,268.000 62.000 C 267.450 62.000,267.000 62.675,267.000 63.500 M270.000 63.667 C 270.000 64.583,270.296 65.037,270.658 64.675 C 271.020 64.313,271.992 64.576,272.819 65.259 C 274.145 66.354,274.157 66.236,272.920 64.250 C 271.264 61.590,270.000 61.338,270.000 63.667 M295.079 63.583 C 295.127 64.748,295.364 64.985,295.683 64.188 C 295.972 63.466,295.936 62.603,295.604 62.271 C 295.272 61.939,295.036 62.529,295.079 63.583 M222.000 64.000 C 222.000 64.550,222.477 65.000,223.059 65.000 C 223.641 65.000,223.840 64.550,223.500 64.000 C 223.160 63.450,222.684 63.000,222.441 63.000 C 222.198 63.000,222.000 63.450,222.000 64.000 M97.000 82.000 L 97.000 86.000 86.000 86.000 L 75.000 86.000 75.000 82.000 L 75.000 78.000 86.000 78.000 L 97.000 78.000 97.000 82.000 M69.000 93.559 C 69.000 94.352,68.550 95.000,68.000 95.000 C 67.450 95.000,67.000 94.073,67.000 92.941 C 67.000 91.809,67.450 91.160,68.000 91.500 C 68.550 91.840,69.000 92.766,69.000 93.559 M75.588 94.745 C 74.496 95.837,73.747 94.100,74.531 92.293 C 75.275 90.580,75.329 90.581,75.743 92.328 C 75.982 93.334,75.912 94.421,75.588 94.745 M82.000 94.241 C 82.000 95.382,80.554 95.154,79.200 93.800 C 77.288 91.888,77.810 90.865,80.000 92.232 C 81.100 92.919,82.000 93.823,82.000 94.241 M96.636 94.697 C 96.226 95.107,95.473 94.780,94.961 93.971 C 94.183 92.741,94.028 92.732,94.015 93.917 C 94.007 94.696,93.719 95.053,93.376 94.710 C 93.034 94.367,93.050 93.312,93.413 92.366 C 94.027 90.765,94.189 90.760,95.727 92.299 C 96.637 93.208,97.046 94.288,96.636 94.697 M98.662 94.250 C 98.385 94.938,98.158 94.375,98.158 93.000 C 98.158 91.625,98.385 91.063,98.662 91.750 C 98.940 92.438,98.940 93.563,98.662 94.250 M122.571 92.803 C 122.571 93.805,121.792 94.665,120.818 94.739 C 119.328 94.851,119.246 94.579,120.272 92.935 C 121.783 90.516,122.571 90.471,122.571 92.803 M125.588 94.745 C 124.496 95.837,123.747 94.100,124.531 92.293 C 125.275 90.580,125.329 90.581,125.743 92.328 C 125.982 93.334,125.912 94.421,125.588 94.745 M132.000 94.241 C 132.000 95.382,130.554 95.154,129.200 93.800 C 127.288 91.888,127.810 90.865,130.000 92.232 C 131.100 92.919,132.000 93.823,132.000 94.241 M138.000 94.508 C 138.000 94.543,137.100 94.571,136.000 94.571 C 134.751 94.571,134.000 93.905,134.000 92.796 C 134.000 91.115,134.108 91.112,136.000 92.732 C 137.100 93.674,138.000 94.473,138.000 94.508 M56.362 93.500 C 56.678 94.325,56.501 95.000,55.969 95.000 C 55.436 95.000,55.000 94.325,55.000 93.500 C 55.000 92.675,55.177 92.000,55.393 92.000 C 55.609 92.000,56.045 92.675,56.362 93.500 M64.699 93.598 C 64.878 94.133,64.170 94.571,63.126 94.571 C 61.958 94.571,61.423 94.060,61.737 93.243 C 62.290 91.802,64.176 92.028,64.699 93.598 M72.823 93.667 C 72.645 94.584,71.973 95.510,71.329 95.724 C 70.584 95.972,70.353 95.366,70.695 94.057 C 71.334 91.613,73.291 91.254,72.823 93.667 M85.000 93.500 C 85.000 94.325,84.550 95.000,84.000 95.000 C 83.450 95.000,83.000 94.325,83.000 93.500 C 83.000 92.675,83.450 92.000,84.000 92.000 C 84.550 92.000,85.000 92.675,85.000 93.500 M88.000 93.500 C 88.000 94.325,87.564 95.000,87.031 95.000 C 86.499 95.000,86.322 94.325,86.638 93.500 C 86.955 92.675,87.391 92.000,87.607 92.000 C 87.823 92.000,88.000 92.675,88.000 93.500 M104.541 93.067 C 105.617 94.808,104.392 95.177,103.020 93.524 C 102.231 92.574,102.155 92.000,102.819 92.000 C 103.403 92.000,104.179 92.480,104.541 93.067 M108.000 93.559 C 108.000 94.416,107.543 94.835,106.984 94.490 C 106.425 94.144,106.226 93.443,106.543 92.931 C 107.400 91.544,108.000 91.802,108.000 93.559 M117.000 93.845 C 117.000 94.244,116.125 94.571,115.055 94.571 C 113.593 94.571,113.373 94.255,114.169 93.297 C 115.202 92.051,117.000 92.399,117.000 93.845 M111.500 94.000 C 111.840 94.550,111.641 95.000,111.059 95.000 C 110.477 95.000,110.000 94.550,110.000 94.000 C 110.000 93.450,110.198 93.000,110.441 93.000 C 110.684 93.000,111.160 93.450,111.500 94.000 M276.190 100.653 C 277.035 101.132,274.310 107.995,272.547 109.830 C 271.511 110.908,270.499 110.930,267.225 109.949 C 262.110 108.417,258.740 109.250,257.014 112.473 C 255.130 115.993,254.403 115.656,253.149 110.679 C 252.551 108.303,250.944 105.153,249.578 103.679 C 248.213 102.206,247.187 100.945,247.298 100.877 C 247.409 100.810,252.225 100.437,258.000 100.049 C 267.560 99.406,274.387 99.633,276.190 100.653 M0.272 104.000 C 0.272 106.475,0.467 107.487,0.706 106.250 C 0.944 105.013,0.944 102.987,0.706 101.750 C 0.467 100.513,0.272 101.525,0.272 104.000 M152.083 105.404 C 152.549 105.856,169.733 107.151,180.500 107.546 C 188.883 107.854,195.000 107.164,195.000 105.912 C 195.000 105.391,185.719 105.000,173.333 105.000 C 161.417 105.000,151.854 105.182,152.083 105.404 M204.729 113.604 C 204.397 113.936,203.534 113.972,202.813 113.683 C 202.015 113.364,202.252 113.127,203.417 113.079 C 204.471 113.036,205.061 113.272,204.729 113.604 M206.500 116.765 C 207.725 117.665,208.285 120.027,207.250 119.930 C 206.838 119.891,205.600 119.473,204.500 119.000 C 203.153 118.421,202.990 118.113,204.000 118.055 C 205.333 117.979,205.333 117.862,204.000 117.000 C 202.667 116.138,202.667 116.031,204.000 116.031 C 204.825 116.031,205.950 116.361,206.500 116.765 M266.380 124.076 C 270.846 124.048,275.512 124.039,276.750 124.057 C 277.988 124.075,280.124 124.013,281.497 123.920 C 284.323 123.728,287.513 125.887,286.258 127.142 C 285.231 128.169,279.194 128.963,267.500 129.609 C 255.754 130.258,255.908 130.191,257.048 134.168 C 258.553 139.414,256.744 140.377,243.716 141.263 C 228.497 142.298,229.016 142.324,226.888 140.399 C 224.591 138.320,224.444 134.699,226.572 132.571 C 227.861 131.282,229.632 131.114,236.418 131.635 C 246.679 132.424,250.794 130.941,243.465 129.095 C 237.762 127.660,238.601 125.813,245.009 125.695 C 248.546 125.630,249.590 125.093,251.787 122.213 L 254.384 118.807 256.322 121.468 C 258.152 123.980,258.713 124.125,266.380 124.076 M207.500 121.000 C 209.286 121.767,209.212 121.867,206.809 121.930 C 205.329 121.968,203.840 121.550,203.500 121.000 C 202.762 119.806,204.722 119.806,207.500 121.000 M206.985 124.750 C 206.976 125.749,206.649 126.071,206.223 125.500 C 205.813 124.950,205.069 124.162,204.572 123.750 C 204.074 123.338,204.417 123.000,205.333 123.000 C 206.260 123.000,206.993 123.777,206.985 124.750 M207.500 128.000 C 207.840 128.550,207.668 129.000,207.118 129.000 C 206.568 129.000,205.840 128.550,205.500 128.000 C 205.160 127.450,205.332 127.000,205.882 127.000 C 206.432 127.000,207.160 127.450,207.500 128.000 M66.000 139.000 C 66.000 139.593,62.333 140.000,57.000 140.000 C 51.667 140.000,48.000 139.593,48.000 139.000 C 48.000 138.407,51.667 138.000,57.000 138.000 C 62.333 138.000,66.000 138.407,66.000 139.000 M184.426 151.820 C 184.668 156.927,184.529 158.394,184.011 156.199 C 183.097 152.329,182.000 150.869,182.000 153.524 C 182.000 155.297,181.933 155.293,180.532 153.441 C 179.100 151.549,179.063 151.556,179.032 153.750 C 178.999 156.055,177.500 156.604,175.209 155.150 C 174.195 154.507,174.149 153.274,174.995 149.415 C 176.990 140.320,177.037 140.265,179.084 144.592 C 180.100 146.741,180.947 149.137,180.966 149.917 C 180.985 150.696,181.240 151.093,181.534 150.799 C 181.828 150.506,181.607 148.207,181.043 145.691 C 180.479 143.176,180.324 140.318,180.699 139.342 C 181.894 136.228,184.026 143.367,184.426 151.820 M194.107 149.060 C 197.556 156.179,197.581 156.385,194.939 155.694 C 192.474 155.050,191.005 157.760,193.104 159.080 C 193.872 159.562,196.785 159.909,199.577 159.851 C 205.786 159.721,208.782 161.196,209.591 164.779 C 209.929 166.275,211.059 170.474,212.102 174.108 C 213.146 177.742,214.000 181.680,214.000 182.858 C 214.000 184.047,214.635 185.000,215.428 185.000 C 216.558 185.000,216.739 186.129,216.297 190.415 C 215.745 195.758,215.795 195.885,219.990 199.876 L 224.242 203.921 223.546 211.710 C 223.162 215.995,221.533 224.976,219.924 231.668 C 215.181 251.407,216.196 259.401,224.907 270.917 C 227.390 274.199,227.403 274.286,225.246 273.132 C 223.732 272.321,223.000 272.279,223.000 273.000 C 223.000 274.448,226.147 279.309,227.726 280.300 C 228.427 280.740,229.000 281.984,229.000 283.065 C 229.000 284.146,230.362 287.444,232.027 290.394 C 235.769 297.025,238.197 308.704,236.848 313.590 C 236.326 315.480,236.128 317.398,236.409 317.853 C 236.930 318.696,240.377 345.251,241.493 357.032 C 242.220 364.702,242.472 365.194,246.794 367.409 C 251.996 370.074,256.420 379.000,252.540 379.000 C 251.686 379.000,250.560 380.764,249.826 383.250 C 247.996 389.451,246.447 390.532,239.824 390.226 C 237.383 390.114,235.298 389.207,233.619 387.528 C 231.878 385.787,231.548 385.000,232.559 385.000 C 234.160 385.000,237.495 383.307,240.250 381.095 C 242.907 378.962,242.435 375.371,239.250 373.481 C 236.741 371.993,230.000 362.110,230.000 359.920 C 230.000 359.414,229.467 359.000,228.814 359.000 C 227.088 359.000,223.000 354.901,223.000 353.170 C 223.000 352.355,221.972 350.296,220.716 348.594 C 219.460 346.892,217.953 344.375,217.368 343.000 C 216.231 340.329,216.618 337.646,218.016 338.510 C 218.481 338.797,219.151 338.564,219.505 337.992 C 219.859 337.419,219.778 337.015,219.324 337.094 C 218.871 337.172,217.214 337.184,215.643 337.118 C 213.379 337.025,212.913 336.637,213.395 335.250 C 213.976 333.583,213.940 333.583,212.642 335.250 C 210.832 337.575,210.475 337.464,210.230 334.504 C 210.116 333.131,210.355 332.059,210.762 332.122 C 211.168 332.185,213.278 332.184,215.450 332.118 C 220.872 331.956,218.816 330.193,212.751 329.805 C 208.504 329.532,208.002 329.249,208.001 327.125 C 208.000 325.035,208.350 324.820,210.913 325.333 C 212.748 325.700,214.234 325.423,214.929 324.586 C 215.795 323.542,215.386 323.127,213.027 322.655 C 211.374 322.325,209.360 322.308,208.551 322.619 C 207.463 323.036,207.191 322.602,207.508 320.956 C 207.997 318.421,209.000 317.041,209.000 318.905 C 209.000 319.772,209.449 319.694,210.500 318.643 C 211.325 317.818,212.000 316.729,212.000 316.224 C 212.000 315.719,213.012 314.817,214.250 314.220 C 216.100 313.329,215.212 313.123,209.261 313.068 C 202.024 313.000,202.022 313.001,202.242 315.654 C 202.368 317.181,203.183 318.497,204.161 318.752 C 205.645 319.141,206.470 322.942,205.042 322.812 C 201.992 322.536,200.135 323.189,200.592 324.379 C 200.883 325.137,201.833 325.700,202.703 325.629 C 203.634 325.553,204.693 326.735,205.277 328.500 C 205.822 330.150,206.750 332.106,207.338 332.848 C 207.926 333.589,208.541 335.075,208.705 336.151 C 208.869 337.226,209.670 339.395,210.484 340.969 C 211.854 343.618,211.773 344.267,209.395 349.666 C 205.958 357.472,202.113 362.513,200.685 361.085 C 198.703 359.103,197.658 359.965,199.532 362.035 C 201.326 364.018,201.318 364.127,199.205 366.240 L 197.036 368.409 194.070 365.567 C 191.684 363.281,191.218 362.160,191.685 359.826 C 192.196 357.272,191.891 356.785,189.132 355.744 C 187.410 355.094,186.000 354.221,186.000 353.806 C 186.000 353.390,184.654 353.319,183.008 353.648 C 180.526 354.145,179.326 353.624,175.967 350.589 C 173.741 348.578,171.510 347.185,171.010 347.494 C 169.463 348.450,167.754 343.904,168.329 340.363 C 168.736 337.853,168.510 337.000,167.437 337.000 C 166.647 337.000,165.964 336.438,165.921 335.750 C 165.861 334.793,165.720 334.803,165.324 335.792 C 164.900 336.847,164.514 336.847,163.211 335.792 C 162.004 334.815,161.799 334.804,162.367 335.750 C 162.780 336.438,162.641 337.000,162.059 337.000 C 161.477 337.000,160.964 336.438,160.921 335.750 C 160.858 334.750,160.741 334.750,160.338 335.750 C 160.060 336.438,158.971 337.000,157.917 337.000 C 155.786 337.000,155.334 334.114,156.982 331.034 C 157.716 329.661,157.578 329.052,156.430 328.611 C 155.554 328.275,155.158 328.447,155.507 329.011 C 156.391 330.442,149.647 330.247,148.200 328.800 C 146.609 327.209,146.667 325.658,148.295 326.283 C 150.044 326.954,150.231 323.436,148.522 322.018 C 147.595 321.249,146.977 321.228,146.530 321.951 C 146.174 322.528,145.234 323.000,144.441 323.000 C 143.402 323.000,143.000 321.756,143.000 318.535 C 143.000 315.094,143.458 313.825,145.000 313.000 C 146.100 312.411,147.000 311.205,147.000 310.319 C 147.000 309.119,146.374 309.383,144.548 311.354 C 142.589 313.468,141.181 314.000,137.548 314.000 C 133.363 314.000,133.000 313.800,133.000 311.500 C 133.000 309.389,133.467 309.000,136.000 309.000 C 137.650 309.000,139.000 308.550,139.000 308.000 C 139.000 307.450,138.599 307.000,138.108 307.000 C 137.239 307.000,135.509 302.244,135.836 300.750 C 135.926 300.337,135.550 300.000,135.000 300.000 C 134.450 300.000,134.000 300.693,134.000 301.540 C 134.000 304.298,130.179 310.653,127.442 312.446 C 125.030 314.027,124.618 314.047,123.222 312.650 C 121.825 311.254,122.032 310.708,125.337 307.049 C 127.494 304.661,129.000 301.968,129.000 300.497 C 129.000 298.310,128.566 298.000,125.500 298.000 C 121.756 298.000,121.647 297.767,122.624 291.863 C 123.213 288.297,123.263 288.263,125.113 290.113 C 127.375 292.375,130.000 292.583,130.000 290.500 C 130.000 289.567,130.944 289.000,132.500 289.000 C 134.333 289.000,135.000 289.533,135.000 291.000 C 135.000 292.755,135.667 293.000,140.443 293.000 L 145.885 293.000 146.204 297.250 L 146.522 301.500 148.403 297.841 C 149.437 295.828,150.038 293.541,149.737 292.757 C 149.108 291.117,134.516 286.696,130.912 287.053 C 129.585 287.185,127.375 286.830,126.000 286.264 C 123.162 285.096,122.000 285.472,122.000 287.559 C 122.000 288.352,121.498 289.000,120.883 289.000 C 120.236 289.000,120.001 288.104,120.324 286.869 C 120.880 284.744,118.794 281.540,117.619 282.714 C 117.279 283.055,117.000 282.508,117.000 281.500 C 117.000 280.492,116.706 279.961,116.347 280.320 C 115.577 281.090,111.000 275.165,111.000 273.399 C 111.000 272.680,110.188 272.400,109.000 272.710 C 107.900 272.998,107.000 273.818,107.000 274.533 C 107.000 275.248,106.663 275.983,106.250 276.167 C 105.838 276.350,104.600 278.270,103.500 280.433 C 101.146 285.062,98.993 286.214,99.015 282.833 C 99.026 281.225,99.286 280.903,99.854 281.797 C 101.133 283.814,103.126 280.803,103.149 276.819 C 103.181 271.058,105.785 263.577,108.713 260.832 C 112.254 257.514,118.543 254.351,123.022 253.638 C 127.675 252.897,138.477 255.484,142.326 258.262 C 144.033 259.493,148.449 262.075,152.141 264.000 C 155.833 265.925,160.416 268.932,162.327 270.683 C 164.237 272.434,165.996 273.670,166.237 273.430 C 166.477 273.190,167.473 275.583,168.450 278.747 C 171.294 287.952,173.043 291.000,175.484 291.000 C 179.014 291.000,177.646 285.275,173.144 281.204 L 169.500 277.909 172.750 279.480 C 174.537 280.344,176.000 280.767,176.000 280.420 C 176.000 278.992,170.597 273.462,168.730 272.981 C 167.624 272.695,166.009 271.345,165.143 269.981 L 163.568 267.500 165.784 269.405 C 167.003 270.453,168.000 270.871,168.000 270.335 C 168.000 269.353,163.458 265.000,162.433 265.000 C 162.130 265.000,162.203 265.520,162.595 266.155 C 163.041 266.876,162.869 267.037,162.138 266.585 C 161.494 266.187,161.269 265.373,161.638 264.776 C 162.043 264.122,161.843 263.979,161.134 264.417 C 160.476 264.824,158.629 264.024,156.938 262.602 C 153.026 259.309,137.063 250.604,136.313 251.353 C 135.996 251.670,134.796 251.270,133.646 250.465 C 131.253 248.788,125.425 248.503,124.490 250.016 C 124.144 250.575,123.452 250.779,122.952 250.470 C 122.098 249.943,118.105 251.572,117.000 252.900 C 116.725 253.230,115.150 254.245,113.500 255.155 L 110.500 256.809 110.257 249.712 C 109.978 241.551,108.112 238.000,107.808 245.050 C 107.505 252.062,107.572 253.358,108.351 255.668 C 108.905 257.311,108.314 258.712,105.910 261.450 L 102.737 265.063 100.601 258.859 C 96.694 247.514,94.854 250.707,95.619 267.500 C 95.870 273.000,96.167 281.662,96.280 286.750 C 96.393 291.837,96.745 296.000,97.063 296.000 C 97.380 296.000,99.608 294.316,102.013 292.257 C 106.732 288.217,109.306 287.924,112.279 291.086 C 113.257 292.127,115.507 293.716,117.279 294.616 C 121.482 296.754,121.330 296.515,120.039 298.927 C 119.127 300.631,118.548 300.829,116.958 299.978 C 115.616 299.260,115.000 299.256,115.000 299.965 C 115.000 300.534,114.127 301.000,113.059 301.000 C 111.991 301.000,110.840 301.450,110.500 302.000 C 110.127 302.604,111.490 303.000,113.941 303.000 C 117.333 303.000,118.000 303.328,118.000 305.000 C 118.000 306.667,117.333 307.000,114.000 307.000 C 111.800 307.000,110.000 307.450,110.000 308.000 C 110.000 308.550,112.250 309.000,115.000 309.000 C 119.333 309.000,120.000 309.267,120.000 311.000 C 120.000 312.889,119.333 313.000,108.000 313.000 C 96.667 313.000,96.000 312.889,96.000 311.000 C 96.000 309.267,96.667 309.000,101.000 309.000 C 103.750 309.000,106.000 308.550,106.000 308.000 C 106.000 307.450,104.200 307.000,102.000 307.000 C 98.667 307.000,98.000 306.667,98.000 305.000 C 98.000 303.333,98.667 303.000,102.000 303.000 C 104.200 303.000,106.000 302.550,106.000 302.000 C 106.000 301.450,104.875 301.000,103.500 301.000 C 102.125 301.000,101.000 300.495,101.000 299.878 C 101.000 299.120,100.593 299.076,99.750 299.741 C 98.409 300.799,95.070 301.049,95.174 300.083 C 95.209 299.762,95.127 299.163,94.993 298.750 C 94.860 298.337,94.655 297.663,94.539 297.250 C 94.422 296.837,94.050 295.825,93.712 295.000 C 93.373 294.175,92.126 290.221,90.940 286.213 C 89.753 282.205,88.192 278.335,87.470 277.613 C 85.784 275.926,84.344 270.208,83.531 261.968 C 82.589 252.405,81.601 251.845,79.534 259.702 C 77.882 265.980,74.056 274.039,74.017 271.321 C 74.008 270.673,73.433 269.548,72.741 268.821 C 72.048 268.095,70.898 265.262,70.185 262.528 C 69.472 259.793,68.703 257.370,68.476 257.142 C 68.248 256.915,66.939 257.465,65.566 258.365 C 62.685 260.252,60.000 260.503,60.000 258.883 C 60.000 258.259,59.118 257.997,58.000 258.290 C 56.126 258.780,56.000 258.320,56.000 250.988 C 56.000 241.855,55.474 240.000,52.885 240.000 C 51.609 240.000,50.471 241.281,49.425 243.896 C 48.178 247.012,47.255 247.882,44.817 248.240 C 42.161 248.630,41.598 248.282,40.452 245.538 C 39.728 243.806,38.818 241.064,38.430 239.445 C 37.148 234.095,34.645 232.392,33.476 236.075 C 32.334 239.673,31.546 237.138,31.349 229.233 C 31.125 220.204,31.641 219.007,40.624 207.719 C 46.101 200.837,48.061 199.128,52.673 197.214 C 55.702 195.957,59.152 194.309,60.340 193.553 C 61.528 192.796,66.775 191.672,72.000 191.054 C 86.395 189.351,95.308 187.866,97.252 186.846 C 99.129 185.862,102.000 179.899,102.000 176.985 C 102.000 175.239,103.874 174.000,106.514 174.000 C 108.712 174.000,109.135 177.366,107.514 181.959 C 105.218 188.468,105.540 190.831,108.992 192.797 L 111.983 194.500 111.878 205.001 C 111.780 214.715,112.015 216.082,115.017 223.233 C 116.801 227.484,119.833 232.581,121.754 234.558 C 125.098 238.002,125.454 238.125,130.190 237.474 C 134.517 236.879,135.195 237.030,135.627 238.683 C 135.899 239.722,138.457 242.127,141.311 244.027 C 151.072 250.526,153.556 253.764,148.250 253.075 C 146.371 252.831,146.747 254.689,148.731 255.450 C 149.683 255.816,150.627 255.620,150.828 255.015 C 151.089 254.233,151.599 254.252,152.597 255.081 C 153.369 255.721,154.000 255.862,154.000 255.395 C 154.000 254.927,157.883 258.359,162.629 263.022 L 171.259 271.500 168.379 266.060 C 166.570 262.640,163.587 259.136,160.351 256.627 C 157.520 254.432,155.413 252.087,155.671 251.416 C 156.447 249.393,158.814 250.407,163.270 254.670 C 167.938 259.136,170.986 260.640,172.010 258.984 C 172.378 258.388,173.652 257.827,174.840 257.737 C 176.028 257.648,177.032 256.883,177.070 256.037 C 177.120 254.949,177.406 255.084,178.050 256.500 C 178.746 258.031,178.914 257.506,178.768 254.262 C 178.663 251.930,179.122 249.478,179.788 248.812 C 180.455 248.145,181.000 247.029,181.000 246.331 C 181.000 245.615,181.652 245.313,182.500 245.638 C 183.325 245.955,184.004 247.403,184.008 248.857 C 184.013 250.688,184.775 251.852,186.488 252.646 C 188.778 253.709,188.882 253.647,187.899 251.811 C 187.315 250.721,187.099 249.567,187.419 249.248 C 187.739 248.928,188.000 249.267,188.000 250.000 C 188.000 250.733,188.297 251.036,188.660 250.673 C 189.023 250.310,189.949 250.910,190.717 252.006 C 192.585 254.673,193.852 254.518,195.007 251.482 C 195.533 250.097,197.166 248.507,198.635 247.949 L 201.305 246.933 200.667 234.345 C 200.073 222.629,199.854 221.581,197.494 219.222 C 196.100 217.827,194.695 215.632,194.371 214.343 C 194.048 213.055,193.457 212.000,193.058 212.000 C 191.283 212.000,191.269 213.458,193.010 216.849 C 195.547 221.791,196.221 225.200,195.016 227.000 C 194.178 228.252,193.586 227.963,191.434 225.250 C 187.585 220.399,184.000 221.223,184.000 226.959 C 184.000 227.947,183.413 229.242,182.696 229.837 C 181.637 230.716,181.448 229.099,181.685 221.209 C 181.846 215.869,181.708 210.198,181.378 208.606 L 180.778 205.713 177.440 209.356 C 175.604 211.360,173.624 213.000,173.039 213.000 C 171.933 213.000,172.401 218.390,174.080 224.981 C 174.746 227.597,174.611 228.818,173.534 229.894 C 172.291 231.138,172.178 231.034,172.681 229.111 C 173.221 227.047,172.956 226.910,168.855 227.122 C 166.431 227.248,163.584 226.867,162.527 226.275 C 161.305 225.591,159.746 225.526,158.245 226.097 C 156.710 226.680,156.101 226.646,156.502 225.997 C 156.841 225.449,156.485 225.000,155.712 225.000 C 153.585 225.000,150.805 222.162,146.098 215.184 C 143.625 211.520,142.082 208.229,142.422 207.344 C 142.744 206.505,142.025 204.397,140.826 202.659 L 138.645 199.500 141.248 201.855 C 142.680 203.150,144.367 203.891,144.997 203.502 C 147.247 202.112,143.252 186.261,139.604 182.102 L 137.500 179.704 139.750 180.258 C 141.503 180.690,142.000 180.383,142.000 178.863 C 142.000 176.501,149.878 165.806,151.073 166.545 C 151.540 166.834,153.139 165.704,154.626 164.035 C 156.114 162.366,158.210 161.000,159.286 161.000 C 160.862 161.000,160.436 161.782,157.083 165.035 C 152.774 169.217,152.547 170.977,156.309 171.032 C 157.514 171.049,159.374 171.724,160.441 172.532 C 162.625 174.184,169.478 174.582,168.500 173.000 C 168.160 172.450,166.671 171.953,165.191 171.897 C 162.897 171.809,163.064 171.644,166.326 170.779 C 168.431 170.221,170.399 169.123,170.701 168.338 C 171.131 167.215,171.555 167.347,172.681 168.955 C 174.607 171.704,175.784 171.535,175.457 168.557 C 175.087 165.192,174.226 164.036,171.240 162.901 C 167.574 161.507,169.722 159.918,174.274 160.657 C 177.749 161.221,178.008 161.506,178.115 164.881 C 178.310 171.003,178.452 171.500,180.000 171.500 C 181.099 171.500,181.580 170.134,181.797 166.394 C 182.038 162.257,182.532 161.053,184.397 160.055 C 186.412 158.977,186.611 158.343,185.997 154.982 C 185.278 151.054,186.241 147.454,187.292 150.137 C 187.586 150.887,187.578 148.350,187.275 144.500 L 186.724 137.500 188.969 140.294 C 190.204 141.831,192.516 145.775,194.107 149.060 M37.877 147.553 C 38.652 148.308,39.173 156.173,38.599 158.462 C 37.725 161.944,32.833 162.801,29.372 160.078 C 26.152 157.545,24.679 157.488,20.830 159.750 C 17.976 161.427,17.795 161.423,16.494 159.653 C 14.853 157.419,15.457 155.405,18.877 151.705 C 21.293 149.091,21.545 149.025,22.757 150.683 C 24.393 152.920,27.338 151.391,27.833 148.047 C 28.141 145.964,28.511 145.849,32.833 146.492 C 35.400 146.874,37.669 147.352,37.877 147.553 M279.006 149.012 C 280.342 151.508,278.053 157.087,272.092 165.865 C 269.490 169.696,268.000 173.013,268.000 174.974 C 268.000 178.600,261.636 192.542,259.630 193.312 C 257.201 194.244,249.610 192.814,246.250 190.792 C 243.020 188.849,241.977 185.750,244.110 184.432 C 244.773 184.022,244.991 182.330,244.650 180.232 C 243.935 175.822,245.091 173.619,248.962 172.016 C 250.633 171.324,252.000 170.047,252.000 169.179 C 252.000 167.951,251.733 167.867,250.800 168.800 C 250.140 169.460,247.720 170.000,245.422 170.000 C 242.868 170.000,240.745 170.603,239.958 171.551 C 237.753 174.207,233.802 172.915,231.662 168.837 C 228.084 162.019,231.985 155.937,241.530 153.449 L 247.500 151.893 249.538 154.447 C 252.081 157.634,253.081 157.642,255.813 154.500 C 258.944 150.899,261.604 151.262,263.136 155.500 C 263.832 157.425,264.874 158.986,265.451 158.969 C 266.028 158.952,268.075 156.848,270.000 154.293 C 276.063 146.245,277.176 145.592,279.006 149.012 M200.643 153.500 C 201.468 154.325,201.716 155.000,201.194 155.000 C 200.672 155.000,199.685 154.325,199.000 153.500 C 198.315 152.675,198.067 152.000,198.449 152.000 C 198.831 152.000,199.818 152.675,200.643 153.500 M195.944 164.844 C 192.698 167.473,193.951 170.000,198.500 170.000 C 200.717 170.000,202.276 169.443,202.629 168.526 C 203.127 167.227,203.369 167.227,204.669 168.526 C 206.366 170.223,209.000 170.490,209.000 168.965 C 209.000 168.395,208.273 166.820,207.385 165.465 C 205.367 162.384,199.383 162.060,195.944 164.844 M257.657 169.707 C 256.274 170.064,255.990 170.721,256.520 172.341 C 256.908 173.529,257.536 176.750,257.916 179.500 L 258.606 184.500 259.810 180.366 C 260.472 178.093,261.686 175.675,262.507 174.994 C 264.466 173.369,264.416 170.374,262.418 169.607 C 260.738 168.962,260.530 168.966,257.657 169.707 M45.580 175.957 C 47.547 178.134,50.021 180.189,51.078 180.525 C 53.146 181.181,53.493 182.673,52.092 184.885 C 50.848 186.850,46.613 185.562,45.150 182.774 C 44.494 181.523,42.842 178.971,41.479 177.102 C 40.115 175.233,39.000 173.321,39.000 172.852 C 39.000 170.771,42.303 172.330,45.580 175.957 M220.683 180.188 C 220.364 180.985,220.127 180.748,220.079 179.583 C 220.036 178.529,220.272 177.939,220.604 178.271 C 220.936 178.603,220.972 179.466,220.683 180.188 M204.961 202.500 C 204.866 205.250,204.721 208.400,204.640 209.500 C 204.558 210.600,204.886 212.359,205.367 213.410 C 206.162 215.146,206.326 215.169,207.170 213.660 C 207.681 212.747,208.762 212.000,209.573 212.000 C 210.812 212.000,210.775 211.587,209.343 209.401 C 208.407 207.972,207.077 204.710,206.388 202.151 L 205.135 197.500 204.961 202.500 M179.583 202.866 C 179.152 203.563,179.070 204.403,179.400 204.733 C 180.295 205.628,181.271 204.312,180.787 202.862 C 180.449 201.846,180.213 201.846,179.583 202.866 M189.141 204.500 C 189.141 206.150,189.527 208.400,190.000 209.500 C 190.733 211.205,190.859 211.058,190.859 208.500 C 190.859 206.850,190.473 204.600,190.000 203.500 C 189.267 201.795,189.141 201.942,189.141 204.500 M213.924 206.791 C 213.691 209.702,213.806 212.852,214.180 213.791 C 214.598 214.844,214.886 213.945,214.930 211.450 C 214.968 209.222,215.540 206.860,216.200 206.200 C 217.047 205.353,217.068 205.000,216.273 205.000 C 215.654 205.000,214.967 204.213,214.747 203.250 C 214.527 202.287,214.157 203.881,213.924 206.791 M164.000 206.000 C 164.825 206.533,166.175 206.945,167.000 206.914 C 167.989 206.878,167.819 206.567,166.500 206.000 C 163.751 204.819,162.172 204.819,164.000 206.000 M197.768 208.435 C 197.512 209.775,197.677 211.462,198.136 212.185 C 198.667 213.023,198.975 212.140,198.985 209.750 C 199.002 205.463,198.450 204.866,197.768 208.435 M170.000 221.755 C 170.000 222.305,170.675 223.315,171.500 224.000 C 172.337 224.694,173.000 224.803,173.000 224.245 C 173.000 223.695,172.325 222.685,171.500 222.000 C 170.663 221.306,170.000 221.197,170.000 221.755 M117.667 233.667 C 116.608 234.725,116.894 241.000,118.000 241.000 C 118.550 241.000,119.000 239.200,119.000 237.000 C 119.000 232.913,118.834 232.499,117.667 233.667 M144.000 237.118 C 144.000 237.668,143.550 237.840,143.000 237.500 C 142.450 237.160,142.000 236.432,142.000 235.882 C 142.000 235.332,142.450 235.160,143.000 235.500 C 143.550 235.840,144.000 236.568,144.000 237.118 M116.000 243.500 C 115.293 244.352,114.940 245.273,115.215 245.548 C 115.490 245.823,116.293 245.352,117.000 244.500 C 117.707 243.648,118.060 242.727,117.785 242.452 C 117.510 242.177,116.707 242.648,116.000 243.500 M130.000 250.383 C 130.000 250.594,129.100 251.002,128.000 251.290 C 126.900 251.577,126.000 251.405,126.000 250.906 C 126.000 250.408,126.900 250.000,128.000 250.000 C 129.100 250.000,130.000 250.173,130.000 250.383 M155.000 251.000 C 155.000 251.550,154.802 252.000,154.559 252.000 C 154.316 252.000,153.840 251.550,153.500 251.000 C 153.160 250.450,153.359 250.000,153.941 250.000 C 154.523 250.000,155.000 250.450,155.000 251.000 M184.000 253.566 C 184.000 253.877,184.524 255.114,185.164 256.316 C 186.216 258.290,186.168 258.368,184.664 257.128 C 182.318 255.193,182.595 257.215,185.114 260.418 C 187.194 263.063,189.009 263.386,187.350 260.817 C 186.883 260.092,186.454 258.825,186.398 258.000 C 186.103 253.661,185.918 253.000,185.000 253.000 C 184.450 253.000,184.000 253.255,184.000 253.566 M272.000 265.383 C 272.000 266.079,273.575 268.863,275.500 271.571 C 277.425 274.278,279.000 277.522,279.000 278.778 C 279.000 280.035,279.634 281.306,280.409 281.604 C 281.502 282.023,281.606 282.860,280.871 285.322 C 279.248 290.765,279.510 300.462,281.351 303.090 C 282.258 304.385,283.000 305.765,283.000 306.155 C 283.000 307.554,279.035 308.089,276.947 306.972 C 275.777 306.345,273.172 305.621,271.160 305.362 C 264.687 304.528,264.054 304.387,263.272 303.605 C 262.849 303.182,263.328 302.233,264.336 301.496 C 266.591 299.847,267.633 293.052,266.077 290.144 C 265.249 288.596,263.983 288.000,261.524 288.000 C 257.736 288.000,255.866 286.300,258.687 285.420 C 259.684 285.109,261.281 284.437,262.236 283.927 C 263.191 283.417,265.131 283.000,266.545 283.000 C 267.960 283.000,268.866 282.592,268.558 282.094 C 268.250 281.596,267.149 281.410,266.112 281.681 C 265.074 281.952,263.985 281.785,263.691 281.308 C 262.599 279.542,265.810 267.831,268.036 265.462 C 270.298 263.054,272.000 263.020,272.000 265.383 M128.031 268.750 C 128.109 270.647,136.890 276.000,139.925 276.000 L 143.153 276.000 140.318 273.614 C 136.113 270.075,127.952 266.845,128.031 268.750 M98.000 269.441 C 98.000 269.684,97.550 270.160,97.000 270.500 C 96.450 270.840,96.000 270.641,96.000 270.059 C 96.000 269.477,96.450 269.000,97.000 269.000 C 97.550 269.000,98.000 269.198,98.000 269.441 M217.000 270.097 C 215.075 270.588,211.995 270.739,210.156 270.432 C 207.893 270.054,206.439 270.340,205.656 271.317 C 204.176 273.164,199.313 274.315,198.506 273.009 C 198.166 272.460,197.087 271.582,196.107 271.057 C 194.563 270.231,194.341 270.530,194.442 273.302 C 194.506 275.061,194.888 277.027,195.290 277.672 C 196.083 278.942,200.670 300.599,201.185 305.500 C 201.457 308.093,201.905 308.500,204.486 308.500 C 206.465 308.500,207.580 307.944,207.790 306.852 C 207.991 305.809,207.489 305.259,206.423 305.352 C 204.146 305.552,200.337 295.039,202.247 293.826 C 204.556 292.360,205.703 292.978,206.753 296.250 C 207.519 298.637,207.823 298.938,207.898 297.385 C 207.954 296.222,207.047 294.058,205.882 292.577 C 203.235 289.212,200.038 280.946,200.408 278.424 C 200.719 276.307,206.786 273.769,216.250 271.798 C 219.412 271.139,222.000 270.240,222.000 269.800 C 222.000 268.877,221.718 268.894,217.000 270.097 M139.079 281.583 C 139.127 282.748,139.364 282.985,139.683 282.188 C 139.972 281.466,139.936 280.603,139.604 280.271 C 139.272 279.939,139.036 280.529,139.079 281.583 M146.528 281.928 C 148.615 283.969,158.460 287.904,163.500 288.713 L 166.500 289.194 164.177 287.489 C 159.614 284.140,150.450 280.025,147.528 280.013 C 144.577 280.000,144.570 280.014,146.528 281.928 M270.485 286.024 C 270.137 286.588,270.186 288.500,270.595 290.274 C 271.004 292.048,271.228 294.963,271.093 296.752 C 270.820 300.354,273.452 302.392,275.153 299.896 C 276.493 297.928,275.455 286.904,273.832 285.875 C 272.063 284.754,271.248 284.790,270.485 286.024 M256.250 288.662 C 255.563 288.940,254.438 288.940,253.750 288.662 C 253.063 288.385,253.625 288.158,255.000 288.158 C 256.375 288.158,256.938 288.385,256.250 288.662 M172.000 293.559 C 172.000 294.416,172.457 294.835,173.016 294.490 C 173.575 294.144,173.774 293.443,173.457 292.931 C 172.600 291.544,172.000 291.802,172.000 293.559 M106.136 295.091 L 103.778 297.000 108.139 296.985 C 110.989 296.975,112.026 296.669,111.132 296.103 C 110.380 295.626,109.478 294.774,109.129 294.209 C 108.734 293.569,107.604 293.902,106.136 295.091 M155.168 296.750 L 155.000 301.000 158.750 300.840 C 162.360 300.686,162.381 300.665,159.307 300.281 C 156.454 299.924,156.072 299.489,155.725 296.191 L 155.336 292.500 155.168 296.750 M161.000 295.059 C 161.000 295.641,161.450 295.840,162.000 295.500 C 162.550 295.160,163.000 294.684,163.000 294.441 C 163.000 294.198,162.550 294.000,162.000 294.000 C 161.450 294.000,161.000 294.477,161.000 295.059 M230.141 297.000 C 230.141 297.825,230.527 299.400,231.000 300.500 C 231.542 301.761,231.859 301.945,231.859 301.000 C 231.859 300.175,231.473 298.600,231.000 297.500 C 230.458 296.239,230.141 296.055,230.141 297.000 M213.000 302.892 C 213.000 305.766,213.392 307.876,213.871 307.580 C 214.678 307.081,214.270 299.021,213.391 298.083 C 213.176 297.854,213.000 300.018,213.000 302.892 M169.500 300.000 C 166.514 300.760,166.518 300.764,170.250 300.882 C 172.313 300.947,174.000 300.550,174.000 300.000 C 174.000 298.898,173.830 298.898,169.500 300.000 M233.000 301.500 C 233.000 302.875,233.388 304.000,233.861 304.000 C 234.335 304.000,234.508 302.875,234.245 301.500 C 233.982 300.125,233.594 299.000,233.383 299.000 C 233.173 299.000,233.000 300.125,233.000 301.500 M146.000 307.000 C 146.000 307.550,146.477 308.000,147.059 308.000 C 147.641 308.000,147.840 307.550,147.500 307.000 C 147.160 306.450,146.684 306.000,146.441 306.000 C 146.198 306.000,146.000 306.450,146.000 307.000 M159.405 311.146 C 157.510 313.280,157.512 313.285,159.750 312.110 C 160.988 311.461,162.000 310.495,162.000 309.965 C 162.000 308.544,161.521 308.762,159.405 311.146 M271.000 312.000 C 271.000 312.550,273.475 313.000,276.500 313.000 C 281.230 313.000,282.000 313.265,282.000 314.893 C 282.000 315.934,281.256 317.071,280.347 317.420 C 278.213 318.239,272.005 316.199,271.985 314.672 C 271.976 313.983,271.586 314.106,271.039 314.971 C 270.527 315.780,269.813 316.146,269.452 315.785 C 269.090 315.423,267.732 315.532,266.433 316.026 C 264.945 316.591,263.841 316.552,263.451 315.921 C 263.110 315.370,261.970 315.192,260.916 315.527 C 259.845 315.867,259.000 315.664,259.000 315.067 C 259.000 313.964,260.974 313.650,267.000 313.792 C 268.925 313.837,269.707 313.644,268.738 313.362 C 267.769 313.079,267.233 312.433,267.547 311.924 C 268.314 310.683,271.000 310.742,271.000 312.000 M103.000 319.441 C 103.000 319.684,102.550 320.160,102.000 320.500 C 101.450 320.840,101.000 320.641,101.000 320.059 C 101.000 319.477,101.450 319.000,102.000 319.000 C 102.550 319.000,103.000 319.198,103.000 319.441 M107.375 319.798 C 107.646 320.237,107.448 321.249,106.934 322.048 C 106.117 323.317,105.883 323.317,105.066 322.048 C 104.074 320.506,104.536 319.000,106.000 319.000 C 106.485 319.000,107.104 319.359,107.375 319.798 M112.234 321.214 C 111.977 322.196,111.144 323.000,110.383 323.000 C 109.623 323.000,109.000 322.196,109.000 321.214 C 109.000 320.143,109.741 319.429,110.850 319.429 C 112.134 319.429,112.558 319.975,112.234 321.214 M122.500 320.000 C 122.840 320.550,122.641 321.000,122.059 321.000 C 121.477 321.000,121.000 320.550,121.000 320.000 C 121.000 319.450,121.198 319.000,121.441 319.000 C 121.684 319.000,122.160 319.450,122.500 320.000 M127.333 320.833 C 126.791 322.908,124.333 323.354,124.333 321.377 C 124.333 320.668,124.708 320.320,125.167 320.603 C 125.625 320.886,126.000 320.641,126.000 320.059 C 126.000 319.477,126.408 319.000,126.906 319.000 C 127.405 319.000,127.597 319.825,127.333 320.833 M141.730 320.931 C 141.650 321.993,141.221 322.637,140.776 322.362 C 140.331 322.087,140.200 321.485,140.485 321.024 C 140.770 320.563,140.032 320.440,138.845 320.751 C 137.366 321.137,136.912 320.951,137.403 320.158 C 138.618 318.191,141.893 318.776,141.730 320.931 M270.702 323.967 C 271.276 326.165,272.865 326.858,278.000 327.153 C 282.798 327.428,284.256 328.652,282.871 331.240 C 281.998 332.872,281.613 332.999,280.908 331.885 C 280.425 331.123,280.024 330.868,280.015 331.318 C 280.007 331.768,278.653 331.177,277.007 330.005 C 275.361 328.833,273.592 328.134,273.076 328.453 C 272.560 328.772,271.856 328.575,271.510 328.016 C 271.165 327.457,269.784 327.000,268.441 327.000 C 265.832 327.000,265.233 325.167,267.200 323.200 C 268.936 321.464,270.114 321.722,270.702 323.967 M113.000 326.545 C 113.000 326.727,112.131 326.810,111.069 326.730 C 110.007 326.650,109.347 326.248,109.601 325.836 C 110.024 325.153,113.000 325.773,113.000 326.545 M137.772 327.483 C 137.659 328.849,137.199 329.599,136.750 329.150 C 136.302 328.702,136.222 327.584,136.574 326.667 C 137.496 324.266,138.009 324.615,137.772 327.483 M146.273 326.935 C 146.565 328.054,146.193 329.096,145.389 329.404 C 144.435 329.770,144.000 329.165,144.000 327.469 C 144.000 324.540,145.551 324.176,146.273 326.935 M142.607 328.529 C 142.726 329.338,142.413 330.000,141.912 330.000 C 141.410 330.000,141.000 329.025,141.000 327.833 C 141.000 325.524,142.245 326.063,142.607 328.529 M123.779 328.163 C 123.213 329.860,120.000 330.071,120.000 328.412 C 120.000 327.635,120.938 327.000,122.083 327.000 C 123.229 327.000,123.992 327.523,123.779 328.163 M139.683 329.188 C 139.364 329.985,139.127 329.748,139.079 328.583 C 139.036 327.529,139.272 326.939,139.604 327.271 C 139.936 327.603,139.972 328.466,139.683 329.188 M201.000 327.859 C 201.000 328.397,200.727 329.548,200.393 330.418 C 200.059 331.288,200.232 332.000,200.776 332.000 C 202.101 332.000,203.055 328.152,201.906 327.442 C 201.408 327.134,201.000 327.322,201.000 327.859 M161.000 331.000 C 162.970 332.273,165.287 332.273,164.500 331.000 C 164.160 330.450,162.896 330.007,161.691 330.015 C 159.910 330.028,159.781 330.212,161.000 331.000 M144.463 333.061 C 144.143 333.577,144.359 334.000,144.941 334.000 C 145.523 334.000,146.000 333.592,146.000 333.094 C 146.000 332.595,146.900 332.423,148.000 332.710 C 149.219 333.029,149.994 334.066,149.985 335.367 C 149.972 337.111,149.792 337.226,149.000 336.000 C 148.467 335.175,148.024 334.967,148.015 335.537 C 147.991 337.179,143.747 337.064,141.132 335.351 C 139.347 334.181,138.564 334.088,138.013 334.978 C 137.493 335.821,137.088 335.671,136.625 334.465 C 136.092 333.076,136.435 332.850,138.486 333.242 C 139.869 333.506,141.000 333.431,141.000 333.074 C 141.000 332.717,141.910 332.357,143.022 332.273 C 144.134 332.190,144.782 332.544,144.463 333.061 M154.985 336.441 C 154.976 337.024,154.577 336.880,154.096 336.122 C 153.616 335.364,152.765 335.027,152.205 335.373 C 151.578 335.761,151.403 335.176,151.749 333.854 C 152.286 331.797,152.369 331.784,153.655 333.543 C 154.395 334.555,154.993 335.859,154.985 336.441 M109.683 335.188 C 109.364 335.985,109.127 335.748,109.079 334.583 C 109.036 333.529,109.272 332.939,109.604 333.271 C 109.936 333.603,109.972 334.466,109.683 335.188 M116.000 334.000 C 117.293 334.835,117.266 334.971,115.809 334.985 C 114.879 334.993,113.840 334.550,113.500 334.000 C 112.718 332.734,114.042 332.734,116.000 334.000 M134.638 334.304 C 135.020 334.687,134.358 335.000,133.167 335.000 C 131.975 335.000,131.000 334.590,131.000 334.088 C 131.000 333.072,133.557 333.224,134.638 334.304 M126.000 335.500 C 126.000 335.657,125.325 336.045,124.500 336.362 C 123.595 336.709,123.000 336.367,123.000 335.500 C 123.000 334.633,123.595 334.291,124.500 334.638 C 125.325 334.955,126.000 335.343,126.000 335.500 M269.991 345.250 C 269.980 359.834,269.120 367.000,267.380 367.000 C 265.224 367.000,264.711 362.683,265.243 349.034 C 265.762 335.737,266.145 334.000,268.559 334.000 C 269.729 334.000,269.998 336.117,269.991 345.250 M200.149 336.664 C 199.406 337.471,199.076 338.409,199.416 338.749 C 200.253 339.586,202.316 337.424,201.863 336.186 C 201.663 335.641,200.894 335.856,200.149 336.664 M170.000 337.378 C 170.000 337.585,170.675 338.315,171.500 339.000 C 172.729 340.020,173.000 339.951,173.000 338.622 C 173.000 337.730,172.325 337.000,171.500 337.000 C 170.675 337.000,170.000 337.170,170.000 337.378 M203.000 338.500 C 203.000 339.325,203.177 340.000,203.393 340.000 C 203.609 340.000,204.045 339.325,204.362 338.500 C 204.678 337.675,204.501 337.000,203.969 337.000 C 203.436 337.000,203.000 337.675,203.000 338.500 M19.264 367.718 C 20.784 367.947,23.034 367.941,24.264 367.704 C 25.494 367.467,24.250 367.279,21.500 367.286 C 18.750 367.294,17.744 367.488,19.264 367.718 M16.250 379.716 C 17.763 379.945,20.238 379.945,21.750 379.716 C 23.263 379.487,22.025 379.300,19.000 379.300 C 15.975 379.300,14.738 379.487,16.250 379.716 M242.885 381.250 C 242.234 382.488,241.205 383.831,240.600 384.235 C 239.968 384.657,240.456 384.976,241.750 384.985 C 243.379 384.996,244.000 384.416,244.000 382.883 C 244.000 381.239,244.459 380.887,246.057 381.305 C 247.745 381.746,247.903 381.588,246.935 380.421 C 245.285 378.433,244.258 378.644,242.885 381.250 M260.886 382.071 C 259.281 383.062,258.551 382.536,259.469 381.050 C 259.837 380.455,260.605 380.256,261.176 380.609 C 261.848 381.024,261.745 381.539,260.886 382.071 M16.768 382.725 C 18.565 382.947,21.265 382.943,22.768 382.715 C 24.271 382.486,22.800 382.304,19.500 382.310 C 16.200 382.315,14.971 382.502,16.768 382.725 M223.000 386.500 C 223.000 387.325,222.823 388.000,222.607 388.000 C 222.391 388.000,221.955 387.325,221.638 386.500 C 221.322 385.675,221.499 385.000,222.031 385.000 C 222.564 385.000,223.000 385.675,223.000 386.500 M16.768 389.725 C 18.565 389.947,21.265 389.943,22.768 389.715 C 24.271 389.486,22.800 389.304,19.500 389.310 C 16.200 389.315,14.971 389.502,16.768 389.725 M16.768 395.725 C 18.565 395.947,21.265 395.943,22.768 395.715 C 24.271 395.486,22.800 395.304,19.500 395.310 C 16.200 395.315,14.971 395.502,16.768 395.725 " stroke="none" fill="black" fill-rule="evenodd"/></svg>