<svg id="svg" version="1.1" width="40" height="25" xmlns="http://www.w3.org/2000/svg"><path d="M0.000 12.434 L 0.000 25.000 16.559 25.000 C 27.344 25.000,32.903 24.651,32.500 24.000 C 31.196 21.890,33.228 20.880,34.661 22.927 C 35.460 24.067,37.004 25.000,38.093 25.000 C 39.948 25.000,40.055 24.396,39.786 15.362 L 39.500 5.724 36.279 5.374 C 33.960 5.121,32.789 5.525,32.099 6.815 C 30.724 9.385,32.276 11.334,35.125 10.616 C 36.431 10.287,36.914 10.285,36.197 10.610 C 35.211 11.058,35.332 11.528,36.697 12.542 C 39.095 14.326,37.223 17.544,33.874 17.394 C 32.573 17.336,31.019 17.960,30.419 18.780 C 29.182 20.472,16.908 23.308,15.766 22.166 C 15.355 21.755,14.721 19.187,14.356 16.460 C 13.991 13.732,13.199 11.169,12.596 10.765 C 11.258 9.868,9.423 9.757,10.292 10.625 C 10.635 10.969,9.023 12.207,6.708 13.376 C 2.484 15.511,1.012 15.153,1.047 12.000 C 1.094 7.746,6.879 5.691,7.079 9.857 C 7.131 10.946,7.332 11.067,7.673 10.216 C 7.957 9.510,7.604 8.228,6.890 7.367 C 6.175 6.506,5.570 4.608,5.545 3.151 C 5.509 1.016,4.965 0.438,2.750 0.184 L 0.000 -0.133 0.000 12.434 M22.298 0.631 C 23.038 1.372,33.063 1.270,33.819 0.515 C 34.102 0.232,31.483 0.000,28.000 0.000 C 24.517 0.000,21.951 0.284,22.298 0.631 M38.095 1.750 C 38.831 2.712,39.561 3.687,39.717 3.917 C 39.873 4.146,40.000 3.358,40.000 2.167 C 40.000 0.835,39.375 0.000,38.378 0.000 C 36.989 0.000,36.948 0.252,38.095 1.750 M11.074 1.877 C 9.740 2.250,8.469 3.094,8.249 3.752 C 7.947 4.660,8.592 4.690,10.927 3.876 C 12.619 3.286,14.254 2.397,14.561 1.902 C 15.183 0.895,14.604 0.891,11.074 1.877 M20.553 6.915 C 20.231 7.436,20.394 8.125,20.915 8.447 C 21.436 8.769,22.125 8.606,22.447 8.085 C 22.769 7.564,22.606 6.875,22.085 6.553 C 21.564 6.231,20.875 6.394,20.553 6.915 M2.667 9.667 C 1.309 11.024,1.969 13.949,3.500 13.362 C 4.325 13.045,5.000 11.934,5.000 10.893 C 5.000 8.993,3.912 8.421,2.667 9.667 M16.800 14.200 C 17.733 15.133,18.267 15.133,19.200 14.200 C 20.133 13.267,19.867 13.000,18.000 13.000 C 16.133 13.000,15.867 13.267,16.800 14.200 " stroke="none" fill="black" fill-rule="evenodd"/></svg>